<svg xmlns="http://www.w3.org/2000/svg" width="800" height="533.33"><path fill="#f5dc0f" fill-rule="evenodd" d="M0-.002h800V533.33H0z" overflow="visible" style="marker:none"/><g fill-rule="evenodd"><path fill="#002673" d="M558.867 266.664a158.867 158.867 0 1 1-317.734 0 158.867 158.867 0 1 1 317.734 0" overflow="visible" style="marker:none"/><path fill="#fff" d="M553.437 266.664a153.437 153.437 0 1 1-306.874 0 153.437 153.437 0 1 1 306.874 0" overflow="visible" style="marker:none"/><path fill="#002673" d="M546.292 266.664a146.292 146.292 0 1 1-292.584 0 146.292 146.292 0 1 1 292.584 0" overflow="visible" style="marker:none"/><path fill="#fff" d="M541.72 266.664a141.72 141.72 0 1 1-283.44 0 141.72 141.72 0 1 1 283.44 0" overflow="visible" style="marker:none"/><path fill="#002673" d="m459.184 219.866-3.809.376 6.014 6.64c-.51.226-.849.382-1.178.601v1.629c-4.226.31-8.715 1.362-14.057 4.084-1.504.767-2.252 2.081.426 2.707 8.551 1.997 20.824 2.16 31.147 1.653l1.378.301a5 5 0 0 0-1.078.551v1.955c1.674.992 4.738 1.202 7.417 1.002v1.854c2.87 1.701 9.838 1.197 11.928.025.767-.43 1.038-.886 1.152-1.353l13.556 2.832 2.581-2.306-19.595-5.688 5.638-.175 8.87-1.83 4.536 1.73 1.579-1.554-2.28-1.578.5-2.682 3.709-5.186c.926-1.292.514-2.697-.927-2.707l-5.588-.05.977 1.253c.283.366.246.666-.1 1.002l-4.861 4.736-1.654-1.303-3.683.326.977 1.178-28.265-.652-.35-.2c-.798-1.31-2.394-2.269-4.01-2.456z"/><path fill="#f5dc0f" d="M327.8 232.835a17.325 17.325 0 1 1-34.65 0 17.325 17.325 0 1 1 34.65 0" overflow="visible" style="marker:none"/><path fill="#f5dc0f" d="m372.06 201.048-.076 7.968h-12.73c-3.481 0-6.574 5.41-6.64 8.544-.049 2.378 1.139 5.702 5.864 5.613l13.38-.25v1.904l-7.542.2c-2.101.054-3.802 1.097-5.111 3.734-22.467 21.22-44.636 44.285-64.398 67.48l-.15-.05c-1.203-.389-1.609 1.096-.602 1.428l18.894 6.24v1.728c0 1.216.78 1.395 1.503 1.554l32.675 10.449v1.077h-4.936l1.002 5.814c.362 2.092 1.097 4.165 3.282 5.788l5.012 3.734c1.314.976 2.66 1.78 4.235 4.86l3.232 6.29c.513 1.039 1.866 2.02 3.558 1.002 5.964-3.582 9.949-5.05 14.308-5.387 5.388-.417 10.848-.36 16.488 1.328l12.88 3.834c6.853 2.74 13.618 2.964 20.146.426l12.754-4.961c5.705-2.22 11.856-2.524 17.79-.301.708.265 1.56.781 2.23-.3l2.206-3.584c.693-1.118 1.338-1.525 3.433-3.358l2.881-2.506c1.468-1.283 2.084-2.902 2.707-4.936l1.077-3.508c.384-1.253 1.108-1.995 3.082-3.358l4.285-2.956c.41-.284.651-.47.651-.802v-1.88h-1.403v-.877c0-.682-.435-.651-.751-.651h-5.714l11-25.133c.345-.114.67-.368.828-.726.293-.67-.032-1.436-.702-1.73a1.4 1.4 0 0 0-.526-.125 1.3 1.3 0 0 0-1.228.777c-.157.358-.15.747 0 1.078l-1.629 3.758c-2.611-1.33-6.245-2.367-13.48-2.38-4.38-.008-8.354-.436-11.026-2.155-4.45 1.588-4.79 4.432-5.362 7.166-.764 3.65-2.031 5.99-4.335 6.866-.235-2.012-.885-4.218-2.03-6.665-.815-1.744-1.5-3.609-.576-5.287l.777-1.429c1.063-1.933.531-4.745-.577-6.94l4.962-2.732c2.918-1.607 4.474-5.495 4.36-10.75 2.77-1.155 4.66-3.467 4.66-6.063V256.9c3.053.044 5.363-2.82 5.363-5.814v-4.936c0-1.39.039-2.685.927-3.508l-1.278-.927-16.94 21.6c-7.796-5.263-9.895-20.987.201-40.393l-7.617.2-.2-22.075h-3.81l-.2 22.175-9.17.251c-11.236 8.507-13.395 24.438-8.67 37.937 1.305 3.73 3.837 4.245 6.69 4.636l10.8-.301-.427 48.135h-17.916l-3.307 2.707h-11.451l-.076-2.682h-22.752l-.025-3.533c3.195.685 6.511.134 9.697-.927-7.547-9.421-6.821-13.065-7.016-17.34-.25-8.008 2.63-13.203 5.939-17.465l-8.946.251-.025-2.43 8.445-.226c-7.969-15.228-9.567-30.418-4.51-45.63.355-1.07.51-1.997-.201-1.98l-4.16.1-.125-15.034a26 26 0 0 1 2.005-.676h-2.005l-.075-7.968zm24.38 6.665c-3.96.14-6.482 2.729-8.093 5.989-2.344 4.74 2.111 8.74 6.966 8.62l17.189-.452c-6.168-6.647-1.212-10.985 3.433-14.157h-18.693a10 10 0 0 0-.802 0m-24.481 3.934-.075 10.299c-3.317-1.17-5.407-2.197-5.037-4.436.361-2.184 2.466-4.248 5.112-5.863m42.522 12.028-18.943.476c-3.625.087-5.163-.13-7.292 3.232-12.512 19.757-5.486 38.153 1.529 44.753l30.22-.877c-16.695-11.408-12.32-35.064-5.514-47.584m-56.028 6.915c-2.278 5.806-4.355 11.953-5.287 19.445-3.28 3.756-6.41 7.564-9.221 11.476 2.235-14.521 8.01-24.487 14.508-30.92zm-5.788 26.286a79 79 0 0 0 .325 9.321c.35 3.716 1.102 6.855 5.388 6.74l13.055-.35-.025 2.43-8.82.25c-9.846 2.32-14.224 8.587-14.885 13.908-.69 5.55.071 11.077 7.668 12.103 1.357.183 1.937.528 2.355 1.653 1.172 3.156 2.98 7.215 11.026 4.285.757-.276 1.414-.25 2.355.35l-.05 6.34h-6.465v2.33h-7.743c-15.203-17.011-15.729-37.688-4.184-59.36m90.407 8.57-5.312 6.765-.05-6.615zm-19.896 8.193-30.97.852c-15.4 12.219-13.007 27.197 6.49 36.108 15.629 5.392 23.729 2.01 31.17-2.33-13.82-11.225-13.143-23.173-6.69-34.63m55.503 18.042-6.214 14.182c-1.408-5.874.306-11.403 6.214-14.182m-162.022.1a47 47 0 0 1 5.287.25 721 721 0 0 1-6.866 10.75l-19.118-6.164a48.7 48.7 0 0 1 20.697-4.836m9.622 8.795c10.221-.352 21.13 7.68 28.967 15.66h-2.055l-35.557-11.5c.093-.415.193-.956-.426-1.253a17.2 17.2 0 0 1 9.071-2.907m118.923.651c2.12 1.608 6.503 2.072 12.83 1.83 8.304-.318 11.753 1.714 13.831 4.21l-2.23 5.111h-29.367v-1.353c3.188-2.549 4.998-5.722 4.936-9.798"/><path fill="#f5dc0f" d="M379.952 348.31c-10.583-.153-20.042 4.113-25.984 10.825l4.21 3.734c6.346-7.17 18.225-11.311 31.02-7.467l16.689 5.011c8.997 2.703 17.17 3.976 25.583.226l11.878-5.312c4.483-2 10.999-1.941 19.269 1.979l2.405-5.062c-9.294-4.406-17.596-4.864-23.955-2.03l-11.902 5.288c-6.79 3.027-13.076 2.107-21.675-.476l-16.663-5.012a39.8 39.8 0 0 0-10.875-1.704"/><path fill="#002673" d="M399.998 132.315c-13.2 0-23.905 10.705-23.905 23.905 0 11.388 7.978 20.947 18.643 23.353v10.35h-84.243l-14.984 15.585h99.227v141.374c0 15.745-7.135 23.618-12.93 27.739-8.235 5.857-18.855 7.012-28.314 2.906-27.735-12.036-47.78-30.798-61.116-57.932 9.54 4.317 19.835 6.48 30.27 6.314-22.484-16.95-42.412-36.74-53.523-66.202a125 125 0 0 0-.175 6.966c0 72.34 58.711 131.05 131.15 131.05s131.151-58.71 131.151-131.05c0-2.442-.046-4.528-.175-6.966-11.11 29.461-31.04 49.251-53.523 66.202 10.435.166 20.73-1.997 30.27-6.314-13.337 27.134-33.356 45.896-61.09 57.932-9.46 4.106-20.08 2.951-28.315-2.906-5.795-4.121-12.955-11.994-12.955-27.739V205.508h99.027l-14.984-15.586H405.46v-10.399c10.563-2.48 18.442-11.986 18.442-23.303 0-13.2-10.705-23.905-23.905-23.905zm0 11.877c6.64 0 12.028 5.389 12.028 12.028s-5.388 12.027-12.028 12.027c-6.639 0-12.027-5.388-12.027-12.027 0-6.64 5.388-12.028 12.027-12.028" overflow="visible" style="marker:none"/></g><path fill="#002673" d="m318.753 113.474 4.54-2.325-4.533-4.65q-.21-.21-.633-.701l-1.093-1.26q.168.695.312 1.328t.259 1.224zm-3.187 9.53-2.802-19.7 5.717-2.928 14.363 13.776-4.54 2.326-2.381-2.563-6.483 3.322.665 3.441-4.54 2.326zm18.971-9.558-6.442-17.672 4.647-1.694 9.989 6.656q.294.207 1.04.885.747.678 1.7 1.644a39 39 0 0 1-.924-1.879 21 21 0 0 1-.62-1.496l-3.182-8.728 4.623-1.685 6.442 17.672-4.623 1.685-10.002-6.692q-.306-.203-1.053-.881a43 43 0 0 1-1.679-1.624q.55 1.057.929 1.89.379.834.62 1.497l3.182 8.728zm30.287-28.026 1.291 5.45q-1.294-.893-2.44-1.184a4.8 4.8 0 0 0-2.307-.015q-2.15.51-3.134 2.294-.983 1.785-.423 4.147.52 2.2 2.22 3.33t3.801.63a4.8 4.8 0 0 0 2.056-1.047q.893-.772 1.646-2.166l1.294 5.464a12.3 12.3 0 0 1-2.159 1.422 10.3 10.3 0 0 1-2.307.85q-1.5.356-2.854.3a8.1 8.1 0 0 1-2.588-.53q-2.376-.89-3.945-2.722-1.57-1.833-2.189-4.446-.498-2.1-.223-3.981.274-1.881 1.317-3.606.984-1.647 2.458-2.695 1.475-1.05 3.475-1.523 1.2-.285 2.444-.275t2.567.303m7.041 17.01-2.23-18.677 5.09-.608.867 7.259 6.787-.81-.866-7.26 5.103-.608 2.23 18.676-5.104.61-.907-7.604-6.787.81.908 7.604-5.09.608zm40.45-11.396a9.7 9.7 0 0 1-.796 3.793 9.7 9.7 0 0 1-2.213 3.144 10.3 10.3 0 0 1-3.317 2.095 10.1 10.1 0 0 1-3.851.7 10.1 10.1 0 0 1-3.85-.802 9.8 9.8 0 0 1-3.216-2.183 9.5 9.5 0 0 1-2.161-3.215 9.7 9.7 0 0 1-.701-3.8 9.7 9.7 0 0 1 .802-3.786 9.6 9.6 0 0 1 2.245-3.15 9.8 9.8 0 0 1 3.273-2.096 10.1 10.1 0 0 1 3.87-.7q2.005.026 3.85.803a10 10 0 0 1 3.242 2.182 9.7 9.7 0 0 1 2.122 3.202 9.7 9.7 0 0 1 .701 3.813m-10.12 5.39q2.132.029 3.548-1.52 1.414-1.549 1.446-3.938.032-2.364-1.36-3.963t-3.487-1.627q-2.132-.029-3.547 1.527-1.414 1.555-1.447 3.932-.03 2.415 1.322 3.988 1.355 1.572 3.525 1.601m13.188 4.426 2.478-18.645 5.31.706q3.12.414 4.312.864 1.19.45 1.993 1.244a5.1 5.1 0 0 1 1.288 2.154q.383 1.257.194 2.683-.287 2.165-1.531 3.38-1.245 1.215-3.34 1.39l4.082 8.19-5.744-.764-3.31-7.866-.969 7.297zm6.07-9.199.942.125q1.643.219 2.475-.24.833-.46.992-1.658.186-1.401-.442-2.087t-2.297-.908l-1.019-.135zm17.117 5.931 4.956 1.205-.394-6.482a16 16 0 0 1-.021-.944l-.005-1.667q-.326.635-.63 1.208a40 40 0 0 1-.604 1.096zm-8.639 5.132L440.68 85.97l6.242 1.518 1.873 19.813-4.956-1.205-.129-3.496-7.079-1.721-1.744 3.04zm31.395 1.768 1.369-3.699 9.447 3.496q-.055.185-.13.404-.074.22-.23.641-1.686 4.555-5.019 6.178-3.333 1.622-7.695.008-2.145-.795-3.575-2.056a9 9 0 0 1-2.254-3.074 9.5 9.5 0 0 1-.837-3.714q-.054-1.986.647-3.877.73-1.976 2.019-3.383a9.53 9.53 0 0 1 6.88-3.064q1.964-.027 3.951.708 2.591.96 4.206 2.721t2.227 4.29l-4.909.458q-.368-1.301-1.117-2.146-.749-.846-1.905-1.274-2.157-.798-3.931.182t-2.697 3.475q-.932 2.52-.226 4.424.705 1.905 2.863 2.703 1.83.678 3.387.233 1.554-.445 2.313-1.864zm9.889 11.471 8.391-16.833 10.314 5.141-1.84 3.691-5.84-2.912-1.457 2.921 5.508 2.746-1.8 3.61-5.508-2.745-1.415 2.84 5.84 2.912-1.88 3.771zM350.203 437.697l4.918 1.354-.198-6.491a15 15 0 0 1 .007-.944l.046-1.667q-.345.625-.668 1.19-.321.563-.636 1.076zm-8.79 4.868 11.25-16.411 6.193 1.706 1.273 19.86-4.918-1.354-.022-3.498-7.023-1.935-1.836 2.986zm23.402 5.941 3.09-18.554 5.056.842-2.368 14.22 6.286 1.047-.721 4.334zm22.15-4.16 5.091.305-1.54-6.309q-.072-.287-.188-.925l-.301-1.64q-.208.683-.406 1.302a40 40 0 0 1-.4 1.186l-2.256 6.08zm-7.59 6.585 7.602-18.387 6.413.385 5.363 19.164-5.091-.305-.748-3.417-7.272-.436-1.176 3.302zm24.66-5.144q1.206 1.24 2.348 1.827 1.142.586 2.245.532 1.027-.051 1.66-.635.634-.585.592-1.432-.046-.936-.642-1.415-.595-.48-2.637-.918-2.796-.608-3.997-1.745-1.2-1.137-1.304-3.216-.133-2.694 1.586-4.484t4.593-1.931a10.2 10.2 0 0 1 2.966.271 9.5 9.5 0 0 1 2.7 1.134l-1.423 3.762a6.7 6.7 0 0 0-1.845-1.034 4.7 4.7 0 0 0-1.835-.29q-.924.046-1.48.518-.555.471-.52 1.164.034.705.562 1.104t1.997.712l.234.053q3.173.691 4.211 1.657.702.66 1.096 1.611.394.952.453 2.133.147 2.99-1.726 4.902-1.875 1.913-5.146 2.075-1.963.096-3.607-.49-1.643-.589-3.202-1.94zm17.672 4.934-2.974-18.573 5.011-.803 1.351 8.437 4.523-9.377 5.9-.945-5.414 10.157 8.983 8.32-6.317 1.012-7.386-7.366 1.334 8.335-5.01.803zm24.502-12.01 4.905-1.399-3.542-5.442q-.164-.248-.485-.81l-.827-1.448q.03.713.048 1.362t.016 1.251zm-4.98 8.728 1.082-19.868 6.178-1.761 11.41 16.306-4.905 1.398-1.838-2.976-7.005 1.997-.016 3.505-4.905 1.399z" font-family="Futura Md BT" font-size="26.313" font-weight="700" style="text-align:center;line-height:125%;-inkscape-font-specification:Futura Md BT Bold" text-anchor="middle"/></svg>