<svg xmlns="http://www.w3.org/2000/svg" width="600" height="400" overflow="visible"><path fill="#55bcff" d="M0 0h600v400H0z"/><path fill="none" stroke="#1c5ba2" stroke-width="5.381" d="M575.14 292.419c0 10.032-8.133 18.164-18.163 18.164H43.024c-10.032 0-18.164-8.132-18.164-18.164V114.823c0-10.031 8.131-18.164 18.164-18.164h513.953c10.03 0 18.163 8.132 18.163 18.164z"/><path fill="#1c5ba2" d="m197.757 256.496 12.755 37.945H557.58v-37.945zm16.705-70.799q0 8.165-1.091 11.432-1.091 3.266-3.817 5.838-2.779 2.623-7.363 4.381-4.587 1.756-10.487 2.498 6.74-4.75 9.368-9.624 2.627-4.875 2.627-14.525V130.27q0-5.194-.936-7.668-.936-2.473-3.101-4.403h18.834q-2.216 1.93-3.126 4.403-.91 2.474-.91 7.668v55.427zm63.532 1.223v-5.27q-5.052 3.613-10.154 5.394a31.3 31.3 0 0 1-10.4 1.782q-6.043 0-10.749-1.979-4.705-1.978-8.122-5.937-2.675-3.116-3.838-7.247-1.165-4.131-1.165-11.106v-32.294q0-5.192-.922-7.665c-.922-2.473-1.653-3.116-3.113-4.401h18.834q-2.193 1.929-3.115 4.401c-.922 2.472-.921 4.204-.921 7.665v30.167q0 7.071.694 10.484.693 3.413 2.33 5.439 1.983 2.425 5.28 3.636t7.909 1.211q3.768 0 7.041-1.112 3.272-1.112 5.752-3.24 2.181-1.78 3.123-4.624c.942-2.844.942-4.475.942-7.74v-34.223q0-5.388-.896-7.788-.896-2.399-3.083-4.279h18.834q-2.166 1.88-3.102 4.501-.936 2.62-.935 7.565v44.459q0 5.207.935 7.71t3.102 4.486h-14.261zm91.598-68.722q-2.216 1.93-3.127 4.403-.907 2.474-.909 7.668v58.22q-3.604-.1-6.838-2.322t-8.121-8.45l-35.545-44.727v41.758q0 5.393.896 7.817.895 2.425 3.084 4.354h-15.584q2.166-1.978 3.102-4.477t.936-7.693V130.27q0-5.194-.936-7.668-.935-2.473-3.102-4.403h13.961l40.691 51.604V130.27q0-5.194-.936-7.668-.935-2.473-3.101-4.403zm11.213 68.722q2.164-1.978 3.101-4.477.935-2.499.935-7.694v-44.497q0-5.187-.935-7.657t-3.101-4.396h37.667v10.762a16.5 16.5 0 0 0-5.555-2.866q-3.026-.89-6.992-.89-2.033 0-4.563.321a79 79 0 0 0-5.703.964v19.455h16.815v9.978c-.793-.923-1.862-1.574-3.216-1.953q-2.029-.569-7.418-.569h-6.183v24.602q3.913.592 7.087.887 3.171.297 5.501.296 5.255 0 9.913-1.404 4.656-1.405 9.17-4.313l-4.8 13.453h-41.725v-.002zm58.236-9.302a11 11 0 0 0-.668 2.153 11.7 11.7 0 0 0-.223 2.301q-.001.99.717 2.177t2.302 2.672h-16.255q2.031-1.385 3.642-3.81 1.612-2.424 3.297-6.63l19.371-49.035q.594-1.385.893-2.72.297-1.335.298-2.374 0-1.186-.571-2.175-.57-.989-1.854-1.979h15.65l21.869 57.589q1.531 3.91 3.287 6.359 1.755 2.448 4.523 4.774h-19.676l.246-.247q2.72-2.87 2.722-4.206 0-1.584-1.188-4.652a10 10 0 0 0-.247-.742l-5.892-15.883h-25.655zm9.311-23.321h20.308l-9.757-26.555zm94.966 32.623v-5.27q-5.051 3.613-10.152 5.394a31.3 31.3 0 0 1-10.4 1.782q-6.041 0-10.749-1.979-4.706-1.978-8.122-5.937-2.673-3.116-3.839-7.247-1.163-4.131-1.164-11.106v-32.294q0-5.192-.922-7.665-.92-2.473-3.114-4.401h18.836q-2.193 1.929-3.115 4.401-.921 2.473-.921 7.665v30.167q-.001 7.071.692 10.484c.693 3.413 1.24 4.088 2.331 5.439q1.983 2.425 5.28 3.636t7.909 1.211q3.766 0 7.041-1.112 3.272-1.113 5.751-3.24 2.182-1.78 3.123-4.624t.941-7.74v-34.223q0-5.388-.896-7.788-.896-2.399-3.084-4.279h18.834q-2.165 1.88-3.103 4.501-.933 2.62-.934 7.565v44.459q0 5.207.934 7.71.937 2.504 3.103 4.486h-14.261z"/><g fill="#1c5ba2"><path d="M252.463 232.547q-.127.298-.192.619c-.065.321-.064.434-.064.661q0 .284.207.626.206.342.662.77h-4.653q.582-.398 1.043-1.097.462-.697.943-1.905l5.544-14.072q.17-.399.255-.781.085-.383.085-.684 0-.342-.163-.623a2 2 0 0 0-.532-.568h4.479l6.277 16.529q.44 1.124.946 1.828.504.704 1.301 1.373h-5.661l.071-.07q.782-.826.782-1.211 0-.454-.342-1.338a3 3 0 0 0-.071-.213l-1.688-4.567h-7.342zm2.668-6.686h5.812l-2.792-7.629zm13.902 9.362q.631-.57.905-1.287.272-.718.272-2.211v-12.769q0-1.49-.272-2.2a3.2 3.2 0 0 0-.905-1.265h5.438a3.1 3.1 0 0 0-.912 1.265q-.266.71-.266 2.2v13.71a41 41 0 0 0 2.06.257q.909.084 1.578.085 1.49 0 2.842-.406 1.35-.407 2.629-1.246l-1.376 3.867zm16.469-2.676q-.127.298-.192.619c-.065.321-.064.434-.064.661q0 .284.206.626.207.342.662.77h-4.652q.582-.398 1.042-1.097.463-.697.943-1.905l5.544-14.072q.17-.399.255-.781a3.2 3.2 0 0 0 .085-.684q0-.342-.163-.623-.163-.283-.531-.568h4.479l6.277 16.529q.44 1.124.946 1.828.505.704 1.302 1.373h-5.662l.071-.07q.782-.826.783-1.211 0-.454-.341-1.338a3 3 0 0 0-.071-.213l-1.688-4.567h-7.342zm2.667-6.686h5.812l-2.792-7.629zm13.864 8.928-.938-3.575q1.717 1.15 3.334 1.71c1.617.56 2.146.561 3.205.561q2.03 0 3.264-.873t1.234-2.266q-.001-.397-.128-.795a3 3 0 0 0-.368-.752q-.537-.81-3.618-2.316-.781-.369-1.206-.582-2.88-1.45-3.951-2.672-1.07-1.222-1.07-2.899-.001-2.402 1.961-3.815 1.964-1.413 5.372-1.414.981 0 2.16.129 1.18.126 2.558.395v3.316q-1.22-.931-2.455-1.391a7.3 7.3 0 0 0-2.568-.46q-1.689 0-2.719.728-1.03.725-1.029 1.896 0 1.04.808 1.837c.808.797 1.745 1.244 3.623 2.137q.157.07.483.229 2.386 1.092 3.566 2.018a4.8 4.8 0 0 1 1.371 1.661q.49.979.49 2.087 0 2.541-2.329 4.311c-2.329 1.77-3.495 1.768-5.823 1.768q-1.122 0-2.414-.24c-.864-.17-1.8-.411-2.813-.733m20.199-3.06q0 1.49.267 2.209.264.717.911 1.285h-5.438q.632-.57.905-1.285.273-.718.272-2.209v-12.771q-.001-1.492-.272-2.201a3.2 3.2 0 0 0-.905-1.265h5.438a3.06 3.06 0 0 0-.911 1.265q-.266.71-.267 2.201zm.49-6.863 4.576-6.164q.484-.655.71-1.095.228-.44.229-.738 0-.327-.187-.668c-.187-.341-.307-.465-.553-.71h4.938l-6.356 8.821 5.79 8.168q.341.498.973 1.164c.421.444.958.972 1.612 1.576h-1.663q-1.59.002-2.61-.604-1.024-.603-2.385-2.563z"/><path d="M335.267 232.547a3 3 0 0 0-.191.619 3.4 3.4 0 0 0-.064.661q0 .284.206.626.208.342.662.77h-4.652q.583-.398 1.043-1.097.463-.697.943-1.905l5.544-14.072q.17-.399.255-.781.085-.383.085-.684 0-.342-.162-.623-.162-.283-.531-.568h4.479l6.277 16.529q.44 1.124.944 1.828.505.704 1.303 1.373h-5.661l.07-.07q.782-.826.782-1.211 0-.454-.342-1.338a4 4 0 0 0-.071-.213l-1.688-4.567h-7.342zm2.667-6.686h5.813l-2.792-7.629zm12.504-7.427q-.734-.085-1.165-.52-.432-.43-.432-1.1 0-.764.498-1.295.497-.533 1.196-.533.755-.001 1.239.568.482.566.483 1.487 0 .895-.538 1.879-.537.983-1.585 1.979l-1.295-.113q.69-.781 1.05-1.327a5.3 5.3 0 0 0 .549-1.025m5.959 16.355-.938-3.575q1.719 1.15 3.335 1.71c1.616.56 2.146.561 3.205.561q2.029 0 3.263-.873t1.234-2.266q0-.397-.127-.795a2.9 2.9 0 0 0-.368-.752q-.538-.81-3.618-2.316-.782-.369-1.206-.582-2.88-1.45-3.951-2.672c-1.071-1.222-1.07-1.781-1.07-2.899q-.002-2.402 1.962-3.815 1.962-1.413 5.371-1.414a20 20 0 0 1 2.16.129q1.179.126 2.559.395v3.316q-1.22-.931-2.455-1.391a7.3 7.3 0 0 0-2.57-.46q-1.688 0-2.718.728-1.03.725-1.03 1.896.001 1.04.809 1.837c.808.797 1.745 1.244 3.624 2.137q.156.07.481.229 2.389 1.092 3.567 2.018a4.8 4.8 0 0 1 1.371 1.661q.49.979.491 2.087 0 2.541-2.33 4.311-2.33 1.769-5.823 1.768-1.121 0-2.415-.24a26 26 0 0 1-2.813-.733m41.361-3.518-1.481 3.547q-1.393.456-2.612.683c-.813.149-1.589.228-2.327.228q-1.647-.001-3.207-.427a11.6 11.6 0 0 1-2.952-1.265 9.2 9.2 0 0 1-3.449-3.622q-1.233-2.302-1.234-5.072 0-2.075.895-4.032a10.8 10.8 0 0 1 2.541-3.48 10.4 10.4 0 0 1 3.436-2.096 11.7 11.7 0 0 1 4.115-.719q1.033 0 2.179.191 1.142.191 2.448.589v3.172c-.891-.477-1.729-.829-2.524-1.059a8.4 8.4 0 0 0-2.325-.343q-3.304 0-5.296 2.047-1.99 2.046-1.99 5.431 0 3.712 2.063 5.992t5.427 2.28q1.376 0 2.929-.504 1.545-.505 3.364-1.541m3.657 1.276a3.15 3.15 0 0 0-.255 1.28q0 .284.207.626.205.342.662.77h-4.652q.58-.398 1.043-1.097.46-.697.943-1.905l5.544-14.072q.168-.399.254-.781.086-.383.086-.684-.001-.342-.163-.623a2 2 0 0 0-.532-.568h4.479l6.276 16.529q.441 1.124.945 1.828.505.704 1.303 1.373h-5.662l.07-.07q.782-.826.783-1.211 0-.454-.341-1.338a4 4 0 0 0-.071-.213l-1.689-4.567h-7.342zm2.667-6.686h5.812l-2.79-7.629zm18.162 5.864q0 1.493.265 2.213.265.717.913 1.285h-5.438q.632-.57.902-1.285.274-.719.273-2.213v-12.769q0-1.49-.273-2.2a3.2 3.2 0 0 0-.902-1.265h7.084q3.22 0 5.132 1.47 1.908 1.469 1.91 3.911 0 2.402-1.747 3.877c-1.747 1.475-2.707 1.478-4.628 1.478q-.483 0-1.043-.058a16 16 0 0 1-1.188-.167q2.655-.498 4.019-1.697 1.361-1.2 1.362-3.047 0-1.704-1.188-2.699-1.188-.993-3.224-.992-.441 0-1.002.063-.562.065-1.229.191zm16.895.004q0 1.49.267 2.209.264.717.911 1.285h-5.438a3.2 3.2 0 0 0 .912-1.285q.266-.718.266-2.209v-12.771q0-1.492-.266-2.201a3.07 3.07 0 0 0-.912-1.265h5.438a3.06 3.06 0 0 0-.911 1.265q-.268.71-.267 2.201zm12.166-.004q.001 1.493.272 2.211t.905 1.287h-5.438q.645-.57.911-1.287.265-.717.265-2.211V217.65h-1.601q-1.64 0-2.657.252-1.02.251-1.627.813l.977-3.224h14.103l-.921 3.167a2.6 2.6 0 0 0-1.155-.764q-.715-.246-1.807-.246h-2.228zm8.506.822q-.126.298-.19.619c-.064.321-.063.434-.063.661q-.001.284.206.626.206.342.662.77h-4.651q.58-.398 1.042-1.097.461-.697.942-1.905l5.544-14.072q.17-.399.256-.781a3.2 3.2 0 0 0 .084-.684q0-.342-.163-.623-.161-.283-.531-.568h4.479l6.276 16.529q.44 1.124.947 1.828.504.704 1.301 1.373h-5.661l.071-.07q.78-.826.78-1.211.001-.454-.341-1.338a3 3 0 0 0-.07-.213l-1.688-4.567H461.7zm2.668-6.686h5.813l-2.793-7.629zm13.902 9.362q.632-.57.904-1.287.271-.717.271-2.211v-12.769q0-1.49-.271-2.2a3.2 3.2 0 0 0-.904-1.265h5.438a3.07 3.07 0 0 0-.911 1.265q-.268.71-.267 2.2v13.71q1.152.17 2.062.257a18 18 0 0 0 1.577.085q1.491 0 2.842-.406c1.351-.406 1.776-.687 2.63-1.246l-1.377 3.867zm40.456-3.952-1.481 3.547q-1.394.456-2.612.683c-.813.149-1.589.228-2.327.228q-1.647-.001-3.208-.427a11.6 11.6 0 0 1-2.951-1.265 9.2 9.2 0 0 1-3.449-3.622q-1.234-2.302-1.234-5.072 0-2.075.895-4.032a10.7 10.7 0 0 1 2.54-3.48 10.4 10.4 0 0 1 3.437-2.096 11.7 11.7 0 0 1 4.113-.719 13 13 0 0 1 2.181.191 19 19 0 0 1 2.447.589v3.172q-1.334-.715-2.523-1.059a8.4 8.4 0 0 0-2.325-.343q-3.304 0-5.296 2.047-1.99 2.046-1.991 5.431 0 3.712 2.064 5.992t5.427 2.28q1.376 0 2.929-.504 1.545-.505 3.364-1.541m6.567.458q0 1.49.265 2.209.266.717.911 1.285h-5.436q.644-.57.909-1.285.267-.718.267-2.209v-12.771q0-1.492-.267-2.201a3.1 3.1 0 0 0-.909-1.265h5.436q-.645.553-.911 1.265-.265.71-.265 2.201zm12.165-.004q0 1.493.271 2.211a3.3 3.3 0 0 0 .905 1.287h-5.438q.647-.57.911-1.287.267-.718.268-2.211V217.65h-1.604q-1.64 0-2.657.252-1.02.251-1.627.813l.978-3.224h14.103l-.922 3.167a2.57 2.57 0 0 0-1.155-.764q-.714-.246-1.807-.246h-2.227z"/><path d="M550.826 231.729q0 1.49.271 2.209.273.717.905 1.285h-5.466q.645-.57.911-1.285.266-.718.266-2.209v-5.441l-4.825-7.827a12.5 12.5 0 0 0-1.194-1.61 11 11 0 0 0-1.436-1.356h4.354l5.119 8.595 3.459-5.598a6 6 0 0 0 .475-.93q.163-.42.163-.72 0-.34-.205-.674c-.137-.224-.347-.446-.63-.675h4.586l-6.754 10.854v5.382z"/></g><path fill="#55bcff" d="m74.645 176.568 44.821-110.36 13.937-7.156 45.199 132.207-110.362 3.767z"/><path fill="#019700" d="M196.577 294.441 126.729 81.968 99.937 168.3l-9.923-29.77-49.388 155.911z"/><g fill="#55bcff"><circle cx="558.552" cy="255.13" r="6.021"/><circle cx="546.518" cy="255.13" r="6.021"/><circle cx="534.484" cy="255.13" r="6.021"/><circle cx="522.449" cy="255.13" r="6.021"/><circle cx="510.415" cy="255.13" r="6.021"/><circle cx="498.38" cy="255.13" r="6.021"/><circle cx="197.529" cy="255.13" r="6.021"/><circle cx="209.563" cy="255.13" r="6.021"/><circle cx="221.597" cy="255.13" r="6.021"/><circle cx="486.347" cy="255.13" r="6.021"/><circle cx="474.313" cy="255.13" r="6.021"/><circle cx="462.279" cy="255.13" r="6.021"/><circle cx="450.245" cy="255.13" r="6.021"/><circle cx="438.21" cy="255.13" r="6.021"/><circle cx="426.177" cy="255.13" r="6.021"/><circle cx="414.142" cy="255.13" r="6.021"/><circle cx="402.108" cy="255.13" r="6.021"/><circle cx="390.075" cy="255.13" r="6.021"/><circle cx="378.042" cy="255.13" r="6.021"/><circle cx="366.007" cy="255.13" r="6.021"/><circle cx="353.972" cy="255.13" r="6.021"/><circle cx="341.938" cy="255.13" r="6.021"/><circle cx="329.904" cy="255.13" r="6.021"/><circle cx="317.87" cy="255.13" r="6.021"/><circle cx="305.836" cy="255.13" r="6.021"/><circle cx="293.802" cy="255.13" r="6.021"/><circle cx="281.768" cy="255.13" r="6.021"/><circle cx="269.733" cy="255.13" r="6.021"/><circle cx="257.699" cy="255.13" r="6.021"/><circle cx="245.666" cy="255.13" r="6.021"/><circle cx="233.631" cy="255.13" r="6.021"/></g><path fill="#f6cc28" stroke="#1c5ba2" stroke-width="1.999" d="m227.473 234.549 13.637-9.964h-16.903l-5.213-15.896-5.212 15.896h-16.903l13.636 9.964-5.343 16.299 13.822-10.103 13.823 10.103z"/></svg>