<svg xmlns="http://www.w3.org/2000/svg" width="800" height="480"><path fill="#002673" fill-rule="evenodd" d="M0 0h400v480H0z" overflow="visible" style="marker:none"/><path fill="#f5dc0f" fill-rule="evenodd" d="M400 0h400v480H400z" overflow="visible" style="marker:none"/><path fill="#fff" fill-rule="evenodd" d="M567.918 240a167.918 167.918 0 1 1-335.836 0 167.918 167.918 0 1 1 335.836 0" overflow="visible" style="marker:none"/><g fill-rule="evenodd" stroke="#000" stroke-linecap="round" stroke-linejoin="round" stroke-width=".75"><path d="M483.98 209.566c3.016 0 4.94 2.386 5.157 4.625 2.232.224 4.593 2.14 4.593 5.156s-2.358 4.936-4.593 5.156c-.221 2.236-2.141 4.625-5.157 4.625s-4.938-2.386-5.156-4.625c-2.232-.224-4.625-2.14-4.625-5.156s2.391-4.936 4.625-5.156c.22-2.234 2.141-4.625 5.156-4.625m-.03 3.031c-1.066 0-2.15.659-2.188 2.156-.02.732.08 1.577-.375 2.032s-1.3.355-2.032.375c-1.497.039-2.156 1.122-2.156 2.187s.659 2.148 2.156 2.188c.733.019 1.575-.051 2.032.406s.356 1.299.375 2.031c.039 1.498 1.122 2.156 2.187 2.156s2.149-.658 2.188-2.156c.019-.732-.082-1.574.375-2.031s1.299-.356 2.031-.375c1.497-.04 2.187-1.123 2.187-2.188s-.69-2.148-2.187-2.187c-.732-.02-1.574.05-2.031-.406-.457-.458-.356-1.3-.375-2.032-.04-1.497-1.123-2.156-2.188-2.156z"/><path d="M483.98 229.128c3.016 0 4.94 2.387 5.157 4.625 2.232.224 4.593 2.141 4.593 5.157s-2.358 4.935-4.593 5.156c-.221 2.235-2.141 4.625-5.157 4.625s-4.938-2.387-5.156-4.625c-2.232-.224-4.625-2.141-4.625-5.156 0-3.016 2.391-4.937 4.625-5.157.22-2.234 2.141-4.625 5.156-4.625m-.03 3.032c-1.066 0-2.15.658-2.188 2.156-.02.732.08 1.576-.375 2.031s-1.3.356-2.032.375c-1.497.04-2.156 1.123-2.156 2.188s.659 2.148 2.156 2.187c.733.02 1.575-.05 2.032.406.457.458.356 1.3.375 2.032.039 1.497 1.122 2.156 2.187 2.156s2.149-.659 2.188-2.156c.019-.732-.082-1.575.375-2.032s1.299-.355 2.031-.375c1.497-.039 2.187-1.122 2.187-2.187s-.69-2.148-2.187-2.188c-.732-.019-1.574.051-2.031-.406s-.356-1.299-.375-2.031c-.04-1.498-1.123-2.156-2.188-2.156z"/><path d="M483.965 224.116c-.827 0-1.492.665-1.492 1.492v7.066c0 .827.665 1.492 1.492 1.492s1.492-.665 1.492-1.492v-7.066c0-.827-.665-1.492-1.492-1.492" overflow="visible" style="marker:none"/><path d="M483.98 248.683c3.016 0 4.94 2.387 5.157 4.625 2.232.224 4.593 2.141 4.593 5.156s-2.358 4.936-4.593 5.157c-.221 2.235-2.141 4.625-5.157 4.625s-4.938-2.387-5.156-4.625c-2.232-.225-4.625-2.142-4.625-5.157s2.391-4.936 4.625-5.156c.22-2.234 2.141-4.625 5.156-4.625m-.03 3.031c-1.066 0-2.15.66-2.188 2.157-.02.732.08 1.576-.375 2.03-.455.456-1.3.357-2.032.376-1.497.039-2.156 1.122-2.156 2.187s.659 2.149 2.156 2.188c.733.019 1.575-.051 2.032.406s.356 1.3.375 2.031c.039 1.498 1.122 2.157 2.187 2.157s2.149-.66 2.188-2.157c.019-.732-.082-1.574.375-2.03.457-.458 1.299-.357 2.031-.376 1.497-.04 2.187-1.122 2.187-2.187 0-1.066-.69-2.149-2.187-2.188-.732-.02-1.574.051-2.031-.406s-.356-1.3-.375-2.031c-.04-1.498-1.123-2.157-2.188-2.157z"/><path d="M483.965 243.67c-.827 0-1.492.666-1.492 1.492v7.067c0 .827.665 1.492 1.492 1.492s1.492-.665 1.492-1.492v-7.067c0-.826-.665-1.492-1.492-1.492" overflow="visible" style="marker:none"/><path d="M484.043 198.503c2.731.046 5.329 2.167 5.437 5.282a5.56 5.56 0 0 1-1.28 3.75c-.949 1.145-2.527 1.98-4.47 2.03-3.525.095-6.54-.924-10.53-3.03-3.667 1.353-10.206 1.506-13.939-.661a1.51 1.51 0 0 1 1.25-2.75c2.899 1.334 9.138 1.741 12.22.442a1.5 1.5 0 0 1 1.28.062c4.17 2.271 6.496 3.022 9.657 2.938 1.192-.032 1.795-.426 2.219-.938.423-.511.612-1.227.593-1.75-.055-1.596-1.137-2.384-2.468-2.406-1.295-.022-2.325 1.213-2.438 2.031a1.5 1.5 0 1 1-2.969-.406 5.374 5.374 0 0 1 5.438-4.594"/><path d="M483.965 204.582c-.827 0-1.492.665-1.492 1.492v7.066c0 .827.665 1.493 1.492 1.493s1.492-.666 1.492-1.493v-7.066c0-.827-.665-1.492-1.492-1.492" overflow="visible" style="marker:none"/></g><g fill-rule="evenodd" stroke="#000" stroke-linecap="round" stroke-linejoin="round" stroke-width=".75"><path d="M316.02 209.566c-3.016 0-4.94 2.386-5.157 4.625-2.232.224-4.593 2.14-4.593 5.156s2.358 4.936 4.593 5.156c.221 2.236 2.141 4.625 5.157 4.625s4.938-2.386 5.156-4.625c2.232-.224 4.625-2.14 4.625-5.156s-2.391-4.936-4.625-5.156c-.22-2.234-2.141-4.625-5.156-4.625m.03 3.031c1.066 0 2.15.659 2.188 2.156.02.732-.08 1.577.375 2.032s1.3.355 2.032.375c1.497.039 2.156 1.122 2.156 2.187s-.659 2.148-2.156 2.188c-.733.019-1.575-.051-2.032.406s-.356 1.299-.375 2.031c-.039 1.498-1.122 2.156-2.187 2.156s-2.149-.658-2.188-2.156c-.019-.732.082-1.574-.375-2.031s-1.299-.356-2.031-.375c-1.497-.04-2.187-1.123-2.187-2.188s.69-2.148 2.187-2.187c.732-.02 1.574.05 2.031-.406.457-.458.356-1.3.375-2.032.04-1.497 1.123-2.156 2.188-2.156z"/><path d="M316.02 229.128c-3.016 0-4.94 2.387-5.157 4.625-2.232.224-4.593 2.141-4.593 5.157s2.358 4.935 4.593 5.156c.221 2.235 2.141 4.625 5.157 4.625s4.938-2.387 5.156-4.625c2.232-.224 4.625-2.141 4.625-5.156 0-3.016-2.391-4.937-4.625-5.157-.22-2.234-2.141-4.625-5.156-4.625m.03 3.032c1.066 0 2.15.658 2.188 2.156.02.732-.08 1.576.375 2.031s1.3.356 2.032.375c1.497.04 2.156 1.123 2.156 2.188s-.659 2.148-2.156 2.187c-.733.02-1.575-.05-2.032.406-.457.458-.356 1.3-.375 2.032-.039 1.497-1.122 2.156-2.187 2.156s-2.149-.659-2.188-2.156c-.019-.732.082-1.575-.375-2.032s-1.299-.355-2.031-.375c-1.497-.039-2.187-1.122-2.187-2.187s.69-2.148 2.187-2.188c.732-.019 1.574.051 2.031-.406s.356-1.299.375-2.031c.04-1.498 1.123-2.156 2.188-2.156z"/><path d="M316.035 224.116c.827 0 1.492.665 1.492 1.492v7.066c0 .827-.665 1.492-1.492 1.492a1.49 1.49 0 0 1-1.492-1.492v-7.066c0-.827.665-1.492 1.492-1.492" overflow="visible" style="marker:none"/><path d="M316.02 248.683c-3.016 0-4.94 2.387-5.157 4.625-2.232.224-4.593 2.141-4.593 5.156s2.358 4.936 4.593 5.157c.221 2.235 2.141 4.625 5.157 4.625s4.938-2.387 5.156-4.625c2.232-.225 4.625-2.142 4.625-5.157s-2.391-4.936-4.625-5.156c-.22-2.234-2.141-4.625-5.156-4.625m.03 3.031c1.066 0 2.15.66 2.188 2.157.02.732-.08 1.576.375 2.03.455.456 1.3.357 2.032.376 1.497.039 2.156 1.122 2.156 2.187s-.659 2.149-2.156 2.188c-.733.019-1.575-.051-2.032.406s-.356 1.3-.375 2.031c-.039 1.498-1.122 2.157-2.187 2.157s-2.149-.66-2.188-2.157c-.019-.732.082-1.574-.375-2.03-.457-.458-1.299-.357-2.031-.376-1.497-.04-2.187-1.122-2.187-2.187 0-1.066.69-2.149 2.187-2.188.732-.02 1.574.051 2.031-.406s.356-1.3.375-2.031c.04-1.498 1.123-2.157 2.188-2.157z"/><path d="M316.035 243.67c.827 0 1.492.666 1.492 1.492v7.067c0 .827-.665 1.492-1.492 1.492a1.49 1.49 0 0 1-1.492-1.492v-7.067c0-.826.665-1.492 1.492-1.492" overflow="visible" style="marker:none"/><path d="M315.957 198.503c-2.731.046-5.329 2.167-5.437 5.282a5.56 5.56 0 0 0 1.28 3.75c.949 1.145 2.527 1.98 4.47 2.03 3.525.095 6.54-.924 10.53-3.03 3.667 1.353 10.206 1.506 13.939-.661a1.51 1.51 0 0 0-1.25-2.75c-2.899 1.334-9.138 1.741-12.22.442a1.5 1.5 0 0 0-1.28.062c-4.17 2.271-6.496 3.022-9.657 2.938-1.193-.032-1.796-.426-2.219-.938-.423-.511-.612-1.227-.593-1.75.055-1.596 1.137-2.384 2.468-2.406 1.295-.022 2.325 1.213 2.438 2.031a1.5 1.5 0 1 0 2.969-.406 5.374 5.374 0 0 0-5.438-4.594"/><path d="M316.035 204.582c.827 0 1.492.665 1.492 1.492v7.066c0 .827-.665 1.493-1.492 1.493a1.49 1.49 0 0 1-1.492-1.493v-7.066c0-.827.665-1.492 1.492-1.492" overflow="visible" style="marker:none"/></g><g fill-rule="evenodd"><g fill="#fff" stroke="#000" stroke-linecap="round" stroke-linejoin="round" stroke-width="3"><path d="M399.374 137.663a19.2 19.2 0 0 0-1.204 4.36c-.372-.601-.933-1.014-1.864-1.148-.575-1.157-1.329-1.44-2.036-1.835-.442 1.829-.543 3.695-.058 5.592-3.903 1.18-6.267 3.012-7.743 5.22-3.767 1.924-6.26 4.012-8.287 6.136-.398.417-.814 1.015-1.635 1.348-1.652.67-3.34 2.118-4.646 3.814-2.3.806-3.483 1.491-4.33 2.868-1.062 1.726-.793 3.472.803 5.19-.799 1.441.064 2.95 1.463 1.979q.171-.12.344-.23c.08.417.186.846.545 1.32.378.498.88.531 1.147.287 1.362-1.25 2.902-1.799 4.416-2.524.207.128.376.263.488.43.96 1.434-3.885 3.749-4.159 3.843-.276.095-.31.469-.172.63.363.413.84.718 2.208.03.845.835 1.786 1.524 3.012.716 1.72-1.134 1.903-2.242 2.466-3.699 4.107-1.376 8.23-2.734 11.93-4.56.423-.209.954-.278 1.405.058.495.37.858.779 1.462 1.233.617.463.457.97.144 1.52-1.564 2.74-4.283 5.64-7.6 8.03-7.652 5.513-9.767 10.196-11.757 15.112 12.765-2.31 25.537-3.33 38.34-1.778 2.252-6.037 3.114-12.719 2.582-20.418-.907-13.123-4.562-23.972-13.392-27.559-.18-1.687-1.005-2.866-1.836-3.412-.504-1.708-1.434-2.046-2.036-2.553"/><path d="M397.185 188.675c2.496-.908 4.292-1.357 7.063-1.165 1.818.127 3.285.688 4.362 1.49 1.03.766 1.705 1.752 1.989 2.787.285 1.038.796 2.299 2.1 3.44-1.57.478-3.712.924-5.44.606-1.848-.34-3.237-.889-4.298-1.53-1.6-.968-2.457-2.145-3.03-3.13-.571-.983-1.518-1.869-2.746-2.498"/><path d="M408.607 188.996c2.71-.591 4.602-.816 7.271-.292 1.752.343 3.035 1.072 3.867 1.99.797.878 1.181 1.928 1.169 2.98-.013 1.054.134 2.355 1.093 3.634-1.676.28-3.907.46-5.516-.06-1.722-.557-2.931-1.265-3.794-2.024-1.299-1.144-1.81-2.404-2.095-3.442-.284-1.035-.964-2.02-1.995-2.786"/><path d="M426.958 199.174c-3.694.343-4.317-1.02-4.95-1.87-.955-1.28-1.102-2.58-1.09-3.635.013-1.051-.378-2.101-1.175-2.979 2.83-.254 4.811-.372 7.287.465 1.625.549 3.406 1.366 3.83 2.95.958 3.572-1.763 4.87-3.902 5.07zm-41.09-9.436c2.197-1.194 3.835-1.852 6.613-1.997 1.823-.095 3.423.28 4.708.937 1.228.63 2.169 1.517 2.74 2.5.573.986 1.43 2.163 3.034 3.128-1.408.658-3.387 1.355-5.175 1.252-1.913-.11-3.433-.483-4.657-.986-1.845-.758-3.019-1.811-3.86-2.71-.839-.898-2.018-1.654-3.403-2.124"/><path d="M375.044 192.148c1.824-1.438 3.248-2.283 5.938-2.76a9.85 9.85 0 0 1 4.89.353c1.385.47 2.56 1.229 3.399 2.126.84.9 2.015 1.953 3.863 2.708-1.197.817-2.947 1.74-4.733 1.855-1.911.122-3.51-.06-4.855-.407-2.026-.522-3.478-1.416-4.558-2.199-1.077-.78-2.45-1.38-3.944-1.676"/><path d="M370.77 192.279c1.498-.678 2.718-.437 4.28-.129 1.494.295 2.862.9 3.94 1.68 1.08.783 2.53 1.676 4.56 2.196-.947.947-2.573 1.808-4.128 2.393-1.472.554-3.18.979-5.661.702-4.662-.932-7.488-4.806-2.99-6.842z"/></g><path d="M403.676 143.67c7.152-.307 9.703 4.117 12.977 7.727 2.81 3.1 5.414 5.146 9.06 6.713-2.883.012-5.559-.326-8.349-1.582 1.192 1.756 3.295 2.786 6.811 3.585-1.841.542-3.856.688-6.381.438 4.807.297 7.334 5.266 11.742 10.539-1.839-.798-3.957-1.354-4.991-2.847-.234 1.092.149 1.775.605 2.464-1.688-.78-2.99-2.35-4.31-3.885.82 2.853 2.352 5.267 6.191 6.26-2.208.125-4.451-.708-6.713-2.035.993.775 2.637 1.63 2.378 3.017 1.4 1.276 2.698 2.665 2.973 5.207-1.283-2.268-2.239-2.59-3.664-2.934 1.22 1.38 1.475 1.606 2.055 3.166-1.683-1.337-3.084-2.217-4.238-1.68 2.86 2.51 5.38 5.29 11.574 5.127-1.261.916-3.042 1.572-6.165 1.556 1.48.31 2.253 1.018 3.239 1.607-2.117-.594-4-.71-5.771-.596 1.868 2.433 5.61 3.09 8.661 3.16-.894.751-1.598.87-2.351 1.153.818.351 1.48.186 2.375.26-3.118 2.736-6.489 3.404-9.942 2.625l-8.166-.878.947-25.671-11.188-19.979.64-2.517z"/><path fill="#fff" stroke="#000" d="M370.011 170.16c.212.694.136 1.335.722 2.108.378.499.86.54 1.127.295 1.622-1.487 3.529-1.987 5.298-2.967l-1.862-1.406zm26.282-29.3c-.574-1.158-1.306-1.416-2.013-1.812-.476 1.97-.586 3.968.041 6.02l4.227-.747.061-1.235c-.28-1.174-.899-2.024-2.316-2.227z"/><path d="M395.034 145.78c-.588-1.983-.545-3.838-.353-5.5 1.8 1.368 1.922 3.593 2.104 5.956-.49-.568-.981-1.124-1.751-.455z"/><path fill="#fff" stroke="#000" d="M375.712 193.376c1.99-4.916 4.1-9.586 11.753-15.1 3.317-2.39 6.04-5.287 7.605-8.028.313-.549.486-1.058-.13-1.52-.604-.455-.985-.89-1.48-1.259-.451-.336-.965-.25-1.388-.041-3.699 1.825-7.838 3.188-11.946 4.564-.562 1.457-.728 2.555-2.448 3.69-1.225.808-2.187.113-3.03-.722-1.37.689-1.835.379-2.198-.033-.138-.162-.1-.513.177-.608.274-.094 5.124-2.408 4.164-3.842-.747-1.116-3.77-1.506-6.945.698-1.4.972-2.255-.54-1.457-1.981-1.596-1.719-1.89-3.445-.829-5.171.847-1.377 2.054-2.078 4.354-2.885 1.306-1.696 2.982-3.132 4.634-3.801.821-.333 1.244-.945 1.642-1.361 2.027-2.124 4.515-4.21 8.282-6.133 1.902-2.845 5.243-5.082 11.513-6.078a19 19 0 0 1 1.385-6.096c.602.506 1.547.832 2.05 2.54.832.546 1.657 1.712 1.837 3.4 8.83 3.586 12.486 14.438 13.393 27.561.532 7.7-.34 14.393-2.59 20.43-12.804-1.553-25.582-.534-38.348 1.776z"/><path d="M392.007 150.536c-1.339-.108-2.689.208-3.39.767l.353.539c.475-.232.923-.31 1.543-.41a1.9 1.9 0 0 0-.328.928 1.925 1.925 0 0 0 1.78 2.057c.992.034 1.936.07 2.87-.319-.178-.316-.647-.515-1.081-.613a1.9 1.9 0 0 0 .268-.843 1.9 1.9 0 0 0-.081-.694c.57.23 1.116.516 1.627.829-.539-1.458-2.043-2.119-3.56-2.241z"/><path fill="#fff" d="M392.29 151.918a.509.509 0 1 1-1.014-.074.509.509 0 1 1 1.015.074z" overflow="visible" style="marker:none"/><path d="M393.07 157.554c-1.678.532-3.306.783-4.845.52l.13 1.098c-1.724 1.37-2.466 3.044-3.189 4.724 1.718-1.307 3.318-3.298 5.24-3.424.722-.926 1.523-1.62 2.443-1.967zm-18.456 5.113c-.04 1.375-.655 2.789-1.246 4.202 1.226-.599 2.5-1.135 3.23-2.393-.49-.847-1.23-1.339-1.984-1.809m-2.952 6.011c1.391-.663 1.717-1.369 4.17-1.598 1.08-.1 2.357.43 2.184 2.368-.884-1.551-3.383-1.644-6.354-.77m-.407-1.451c2.046-1.738 1.684-3.173.794-3.811-1.062-.763-3.705.046-4.177 2.535l.909-.024c-.264 1.644 1.172 2.135 2.474 1.3m-.208-5.329c.915-.328 1.98-.647 2.982-.078.014-.583-.18-1.017-1.499-1.136l-.42.482zm27.008-13.955.872-.54.703.716-.558.382zm6.767-1.77c2.818 3.896 3.533 9.02 2.375 13.75 1.145-1.278 2.046-4.453 1.869-6.907-.227-3.126-2.81-6.19-4.244-6.843m-9.567 24.029.208-1.195-2.28-1.89-.975.11-2.598 1.199-9.473 3.415c-1.585 3.817-3.532 4.426-4.081 3.903 1.575.006 2.799-2.117 2.793-4.058-.002-.588.16-1.023 1.053-1.162 5.543-.866 8.757-2.363 10.056-3.947-1.881.75-3.121.971-4.967.935-1.357-.027-2.333 1.578-4.202 2.05 1.266-.815 1.433-1.521 2.591-2.35 2.251-1.611 4.473-.886 6.644-2.354 2.076-1.64 1.622-3.529 3.4-5.131-.365 1.882-.255 4.424 2.583 5.995 2.767 1.53 5.542.68 8.377-1.259-.887 1.265-1.012 2.554-3.66 3.722-3.07 1.355-5.017 2.67-6.063 4.004-1.7 2.168-3.388 4.67-6.392 6.832-4.436 3.192-8.36 7.442-10.164 12.863l-2.234 1.382c1.508-3.893 3.462-7.82 6.917-11.01 3.103-2.98 7.597-5.808 9.775-8.352 1.07-1.289 1.946-2.47 2.692-3.702m-20.718 4.266c.662-.449 1.15-.686 1.7-1.326.567.097.609.794.237 1.302-.365.5-.798.738-1.287.858zm23.951-30.813c-.044.74-.068 1.407.069 2.152-.61-.586-.78-1.212-.765-1.931z"/><path d="M402.763 143.417c.09.77-.067 1.38-.236 1.993.485-.682 1.453-.612 2.15-.152 6.86 4.528 6.954 13.01 1.685 21.106 1.204-1.034 2.459-2.026 3.56-3.216 1.328-1.433 1.695-1.35 2.667-.077 1.253 1.643.945 2.735 1.629 5.673.925-4.715.677-7.91-.072-12.03-2.463-5.654-5.578-10.824-11.383-13.297m-3.913 1.123c-.119-2.066.347-3.862.914-5.436 1.44 1.742 1.05 3.937.687 6.279-.347-.665-.698-1.32-1.601-.844z"/><path d="M414.704 160.302c1.289 5.461 1.25 15.466-1.558 22.342.73-4.41.995-5.971.93-9.995-2.06 6.663-6.158 13.356-11.375 17.995l11.285 1.132 2.62-10.148c.67-5.861.432-17.035-1.902-21.326"/><path fill="#002673" stroke="#000" stroke-width="2.908" d="M366.526 371.996c5.872-3.265 10.097-4.881 16.615-4.189 4.277.455 7.727 2.474 10.26 5.356 2.424 2.757 4.01 6.302 4.678 10.023.67 3.733 1.872 8.264 4.938 12.37-3.69 1.716-8.728 3.319-12.792 2.178-4.35-1.22-7.616-3.196-10.113-5.504-3.762-3.477-5.778-7.71-7.126-11.254-1.344-3.534-3.57-6.718-6.46-8.98z" transform="matrix(.42513 0 0 .27811 241.365 85.212)"/><path fill="#f5dc0f" stroke="#000" stroke-width="2.908" d="M393.394 373.15c6.374-2.126 10.824-2.935 17.103-1.051 4.12 1.235 7.138 3.856 9.097 7.156 1.873 3.156 2.777 6.934 2.748 10.714-.03 3.792.315 8.467 2.571 13.07-3.942 1.004-9.19 1.65-12.974-.22-4.05-2.003-6.896-4.547-8.924-7.276-3.056-4.111-4.257-8.643-4.928-12.375-.669-3.721-2.27-7.261-4.692-10.017z" transform="matrix(.42513 0 0 .27811 241.365 85.212)"/><path fill="#002673" stroke="#000" stroke-width="2.908" d="M436.56 409.747c-8.69 1.232-10.156-3.666-11.646-6.723-2.245-4.604-2.59-9.28-2.56-13.072.028-3.78-.892-7.555-2.765-10.71 6.657-.915 11.316-1.34 17.14 1.67 3.82 1.974 8.012 4.913 9.01 10.61 2.251 12.84-4.148 17.512-9.18 18.225z" transform="matrix(.42513 0 0 .27811 241.365 85.212)"/><path fill="#f5dc0f" stroke="#000" stroke-width="2.908" d="M339.906 375.818c5.169-4.293 9.023-6.66 15.557-7.182 4.287-.342 8.05 1.006 11.072 3.371 2.89 2.262 5.103 5.455 6.446 8.989 1.348 3.544 3.364 7.777 7.136 11.247-3.31 2.366-7.967 4.871-12.171 4.5-4.5-.398-8.075-1.737-10.955-3.545-4.339-2.723-7.101-6.511-9.08-9.746-1.972-3.225-4.747-5.944-8.005-7.634z" transform="matrix(.42513 0 0 .27811 241.365 85.212)"/><path fill="#002673" stroke="#000" stroke-width="2.908" d="M314.447 384.485c4.289-5.173 7.64-8.21 13.966-9.929 4.15-1.127 8.098-.496 11.504 1.271 3.258 1.69 6.021 4.42 7.993 7.645 1.979 3.235 4.741 7.023 9.088 9.738-2.817 2.936-6.931 6.258-11.132 6.668-4.496.44-8.256-.217-11.42-1.463-4.767-1.876-8.181-5.09-10.722-7.904-2.534-2.806-5.763-4.966-9.277-6.026z" transform="matrix(.42513 0 0 .27811 241.365 85.212)"/><path fill="#f5dc0f" stroke="#000" stroke-width="2.908" d="M304.394 384.954c3.522-2.438 6.392-1.57 10.066-.462 3.514 1.06 6.733 3.233 9.267 6.04 2.54 2.814 5.955 6.027 10.727 7.894-2.226 3.405-6.052 6.502-9.71 8.607-3.461 1.99-7.48 3.517-13.316 2.523-10.965-3.35-17.613-17.28-7.034-24.602z" transform="matrix(.42513 0 0 .27811 241.365 85.212)"/><path fill="#001542" d="m382.056 194.48 4.027.635-.874-1.492 3.3.952-.389-1.714c.746.646 1.38 1.291 3.25 1.936-2.391 1.17-5.009 1.935-9.314-.317"/><path fill="#c8b308" d="m392.084 192.874 3.779 1.11-.438-1.571 2.974 1.334.102-1.732c.55.725.992 1.435 2.649 2.295-2.68.861-5.47 1.297-9.066-1.436"/><path fill="#001542" d="m402.393 192.507 3.4 1.546.014-1.597 2.546 1.67.589-1.69c.337.779.57 1.53 1.956 2.576-2.877.522-5.741.615-8.505-2.505"/><path fill="#c8b308" d="m412.629 193.39 2.906 1.93.463-1.569 2.032 1.949 1.055-1.59c.112.806.13 1.573 1.196 2.768-2.975.166-5.816-.089-7.652-3.489z"/><path fill="#1663cf" d="m386.967 191.326-4.28-.38 1.094 1.433-3.723-.585.615 1.685c-.857-.597-1.598-1.2-3.629-1.726 2.349-1.346 5.102-2.853 9.923-.427"/><path fill="#fff" d="m397.816 190.369-4.1-.89.672 1.54-3.494-1.024.13 1.73c-.675-.69-1.233-1.373-3.08-2.135 2.687-1.04 5.818-2.188 9.872.779"/><path fill="#1663cf" d="m408.749 190.736-3.778-1.369.226 1.595-3.146-1.428-.36 1.716c-.469-.76-.825-1.498-2.426-2.47 2.935-.697 6.336-1.448 9.484 1.956"/><path fill="#fff" d="m419.39 192.417-3.326-1.801-.228 1.594-2.69-1.783-.838 1.643c-.246-.803-.387-1.572-1.687-2.72 3.081-.331 6.636-.659 8.77 3.067z"/><path fill="#c8b308" d="m371.623 197.448 4.411.048-1.21-1.226 3.305.448.027-1.773c.915.545 1.72 1.102 3.74 1.511-2.02 1.438-6.367 3.18-10.273.992"/><path fill="#001542" d="m422.44 195.492 2.14 1.6 1.585-.922.76 1.485 2.86-.731c-2.668 2.923-7.097 1.729-7.345-1.432"/><path fill="#1663cf" d="m429.375 195.353-2.761-2.172-.674 1.54-2.14-2.077-1.287 1.514c-.015-.82.062-1.592-.891-2.878 3.121.047 6.707.154 7.753 4.073"/><path fill="#fff" d="m376.574 193.577-3.324.143.49 1.276-2.792-.21-.296 1.807c-3.758-3.312 3.222-5.457 5.922-3.016"/></g><path fill="#002673" fill-rule="evenodd" stroke="#000" stroke-linecap="round" stroke-linejoin="round" stroke-width="3" d="M400.704 201.821c2.962 6.79 14.914 11.873 29.194 11.873 13.019 0 24.64-4.681 28.742-10.572l1.919.519c11.933 58.782-10.434 116.483-60.559 135.336-50.125-18.853-72.492-76.554-60.559-135.336l1.92-.519c4.1 5.89 15.722 10.572 28.74 10.572 14.28 0 26.233-5.084 29.195-11.873z" overflow="visible" style="marker:none"/><path fill="#f5dc0f" fill-rule="evenodd" stroke="#000" stroke-linecap="round" stroke-linejoin="round" d="m366.147 221.786-.565 6.597c-1.184-2.499-2.708-3.394-4.145-4.729.494 2.014.779 3.645.74 5.721-2.012-2.12-3.727-2.605-5.585-3.347.892 1.222 2.397 2.327 2.822 4.476-2.2-.635-4.79-.65-6.656.37 2.007.422 4.05.777 5.08 2.49-2.619.646-5 1.762-6.403 4.982 2.934-1.417 4.357-2.249 6.286-1.615-1.687 1.027-3.434 3.389-3.464 7.22 1.719-3.121 3.169-5.14 5.546-5.1-1.806 3.686-1.173 6.027-1.07 7.98.53-1.968 1.385-3.471 2.393-4.671l.136.39 1.323.466 2.102 5.857-.214.526-2.822 13.427.99.857 1.287-.954.66 1.619 1.755-1.358 1.341 1.745 1.463-1.9 1.217 1.748 1.101-1.631 1.287 1.14.452-1.342 1.787.368-2.442-13.739.214-.31 1.42-6.072 1.285-.603.136-.604c1.15 1.26 2.156 2.86 2.744 5.04.102-1.952.735-4.293-1.07-7.978 2.376-.042 3.807 1.978 5.526 5.098-.03-3.83-1.758-6.192-3.445-7.22 1.929-.633 3.352.2 6.286 1.616-1.403-3.22-3.804-4.336-6.422-4.982 1.03-1.713 3.092-2.068 5.099-2.49-1.865-1.02-4.476-1.005-6.675-.37.425-2.149 1.949-3.254 2.841-4.476-1.858.742-3.592 1.228-5.604 3.347-.04-2.076.265-3.707.759-5.72-1.437 1.334-2.961 2.23-4.145 4.728l-.564-6.597c-1.252 2.001-2.146 4.06-2.394 6.227-.248-2.167-1.142-4.226-2.393-6.227"/><path fill="#f5dc0f" stroke="#000" stroke-linecap="round" stroke-linejoin="round" d="M373.504 247.353c-3.666.318-5.741.613-9.989 0-.538 1.412-.278 1.888.134 3.3 3.865.748 5.634.643 9.498.09.738-1.413.924-1.978.357-3.39"/><path fill-rule="evenodd" d="m365.485 251.235-.745 7.159 2.028-7.035zm1.714.082.33 7.19.957-7.258zm3.297.262 1.454 7.05-.193-7.32-1.26.27zm-2.033-3.939-1.18-5.864-.086 6.104zm3.117.001.65-5.946-1.93 5.793zm-.945 16.042-.713-5.94-.568 6.08zM362.43 240a.62.62 0 0 0-.428.234l-1.248 1.564.613.973 1.043.247c.282.93.748 1.733 1.493 2.286.55-1.729 1.935-4.061 2.603-5.837-1.198.755-2.248 1.787-2.896 2.88l-.538-1.938a.62.62 0 0 0-.642-.409m14.107 2.112c-.914-1.262-2.003-2.189-3.096-3.166.571 1.196 1.43 2.19 1.654 3.628z"/><path fill="#f5dc0f" fill-rule="evenodd" stroke="#000" stroke-linecap="round" stroke-linejoin="round" d="m397.606 271.036-.564 6.597c-1.184-2.499-2.708-3.394-4.145-4.729.494 2.014.779 3.645.74 5.721-2.012-2.12-3.727-2.605-5.585-3.347.892 1.222 2.397 2.327 2.822 4.476-2.2-.635-4.79-.65-6.656.37 2.007.422 4.05.777 5.08 2.49-2.619.646-5 1.762-6.403 4.982 2.934-1.417 4.357-2.249 6.286-1.615-1.687 1.027-3.434 3.389-3.464 7.22 1.719-3.121 3.169-5.14 5.546-5.1-1.806 3.686-1.173 6.027-1.07 7.98.53-1.968 1.385-3.471 2.393-4.671l.136.39 1.323.466 2.102 5.857-.214.526-2.822 13.427.99.857 1.287-.954.66 1.619 1.755-1.358 1.34 1.745 1.464-1.9 1.217 1.748 1.101-1.631 1.287 1.14.452-1.342 1.787.368-2.442-13.739.214-.31 1.42-6.072 1.285-.603.136-.604c1.15 1.26 2.156 2.86 2.744 5.04.102-1.952.735-4.293-1.07-7.978 2.376-.042 3.807 1.978 5.526 5.098-.03-3.83-1.758-6.192-3.445-7.22 1.929-.633 3.352.2 6.286 1.616-1.403-3.22-3.804-4.336-6.422-4.982 1.03-1.713 3.092-2.068 5.099-2.49-1.865-1.02-4.476-1.005-6.675-.37.425-2.149 1.949-3.254 2.841-4.476-1.858.742-3.592 1.228-5.604 3.347-.04-2.076.265-3.707.759-5.72-1.437 1.334-2.961 2.23-4.145 4.728l-.564-6.597c-1.252 2.001-2.146 4.06-2.394 6.227-.248-2.167-1.142-4.226-2.394-6.227"/><path fill="#f5dc0f" stroke="#000" stroke-linecap="round" stroke-linejoin="round" d="M404.964 296.603c-3.666.318-5.741.613-9.99 0-.537 1.412-.277 1.888.135 3.3 3.865.748 5.634.643 9.498.09.738-1.413.924-1.978.357-3.39"/><path fill-rule="evenodd" d="m396.945 300.485-.745 7.159 2.028-7.035zm1.714.082.33 7.19.957-7.258zm3.297.262 1.454 7.05-.193-7.32-1.26.27zm-2.033-3.939-1.18-5.864-.086 6.104zm3.117.001.65-5.946-1.93 5.793zm-.945 16.042-.714-5.94-.567 6.08 1.28-.14zm-8.205-23.683a.62.62 0 0 0-.428.234l-1.248 1.564.613.973 1.043.247c.282.93.748 1.733 1.493 2.286.55-1.729 1.935-4.061 2.603-5.837-1.198.755-2.248 1.787-2.896 2.88l-.538-1.938a.62.62 0 0 0-.642-.409m14.107 2.112c-.914-1.262-2.003-2.189-3.096-3.166.571 1.196 1.429 2.19 1.654 3.628z"/><path fill="#f5dc0f" fill-rule="evenodd" stroke="#000" stroke-linecap="round" stroke-linejoin="round" d="m429.397 221.786-.565 6.597c-1.184-2.499-2.708-3.394-4.145-4.729.494 2.014.779 3.645.74 5.721-2.012-2.12-3.727-2.605-5.585-3.347.892 1.222 2.397 2.327 2.822 4.476-2.2-.635-4.79-.65-6.656.37 2.007.422 4.05.777 5.08 2.49-2.619.646-5 1.762-6.403 4.982 2.934-1.417 4.357-2.249 6.286-1.615-1.687 1.027-3.434 3.389-3.464 7.22 1.719-3.121 3.169-5.14 5.546-5.1-1.806 3.686-1.173 6.027-1.07 7.98.53-1.968 1.385-3.471 2.393-4.671l.136.39 1.323.466 2.102 5.857-.214.526-2.822 13.427.99.857 1.287-.954.66 1.619 1.755-1.358 1.341 1.745 1.463-1.9 1.217 1.748 1.101-1.631 1.287 1.14.452-1.342 1.787.368-2.442-13.739.214-.31 1.42-6.072 1.285-.603.136-.604c1.15 1.26 2.156 2.86 2.744 5.04.102-1.952.735-4.293-1.07-7.978 2.376-.042 3.807 1.978 5.526 5.098-.03-3.83-1.758-6.192-3.445-7.22 1.929-.633 3.352.2 6.286 1.616-1.403-3.22-3.804-4.336-6.422-4.982 1.03-1.713 3.092-2.068 5.099-2.49-1.865-1.02-4.476-1.005-6.675-.37.425-2.149 1.949-3.254 2.841-4.476-1.858.742-3.592 1.228-5.604 3.347-.04-2.076.265-3.707.759-5.72-1.437 1.334-2.961 2.23-4.145 4.728l-.564-6.597c-1.252 2.001-2.146 4.06-2.394 6.227-.248-2.167-1.142-4.226-2.393-6.227"/><path fill="#f5dc0f" stroke="#000" stroke-linecap="round" stroke-linejoin="round" d="M436.754 247.353c-3.666.318-5.741.613-9.989 0-.538 1.412-.278 1.888.134 3.3 3.865.748 5.634.643 9.498.09.738-1.413.924-1.978.357-3.39"/><path fill-rule="evenodd" d="m428.735 251.235-.745 7.159 2.028-7.035zm1.714.082.33 7.19.957-7.258zm3.297.262 1.454 7.05-.193-7.32-1.26.27zm-2.033-3.939-1.18-5.864-.086 6.104zm3.117.001.65-5.946-1.93 5.793zm-.945 16.042-.713-5.94-.568 6.08zM425.68 240a.62.62 0 0 0-.428.234l-1.248 1.564.613.973 1.043.247c.282.93.748 1.733 1.493 2.286.55-1.729 1.935-4.061 2.603-5.837-1.198.755-2.248 1.787-2.896 2.88l-.538-1.938a.62.62 0 0 0-.642-.409m14.107 2.112c-.914-1.262-2.003-2.189-3.096-3.166.571 1.196 1.43 2.19 1.654 3.628z"/><g fill="#fff" fill-rule="evenodd" stroke="#002673" stroke-linecap="round" stroke-linejoin="round" stroke-width="3"><path d="M247.57 240a4.794 4.794 0 1 1-9.588 0 4.794 4.794 0 1 1 9.588 0" overflow="visible" style="marker:none"/><path d="M247.86 230.603a4.794 4.794 0 1 1-9.57-.591 4.794 4.794 0 1 1 9.57.591" overflow="visible" style="marker:none"/><path d="M248.728 221.247a4.794 4.794 0 1 1-9.516-1.18 4.794 4.794 0 1 1 9.516 1.18" overflow="visible" style="marker:none"/><path d="M250.165 211.996a4.794 4.794 0 1 1-9.426-1.762 4.794 4.794 0 1 1 9.426 1.762" overflow="visible" style="marker:none"/><path d="M252.172 202.831a4.794 4.794 0 1 1-9.3-2.338 4.794 4.794 0 1 1 9.3 2.338" overflow="visible" style="marker:none"/><path d="M254.748 193.776a4.794 4.794 0 1 1-9.137-2.908 4.794 4.794 0 1 1 9.137 2.908" overflow="visible" style="marker:none"/><path d="M257.864 184.935a4.794 4.794 0 1 1-8.941-3.464 4.794 4.794 0 1 1 8.941 3.464" overflow="visible" style="marker:none"/><path d="M261.525 176.286a4.794 4.794 0 1 1-8.71-4.008 4.794 4.794 0 1 1 8.71 4.008" overflow="visible" style="marker:none"/><path d="M265.7 167.903a4.794 4.794 0 1 1-8.45-4.536 4.794 4.794 0 1 1 8.45 4.536" overflow="visible" style="marker:none"/><path d="M270.387 159.78a4.794 4.794 0 1 1-8.154-5.046 4.794 4.794 0 1 1 8.154 5.047z" overflow="visible" style="marker:none"/><path d="M275.592 151.923a4.794 4.794 0 1 1-7.826-5.54 4.794 4.794 0 1 1 7.826 5.54" overflow="visible" style="marker:none"/><path d="M281.237 144.448a4.794 4.794 0 1 1-7.47-6.01 4.794 4.794 0 1 1 7.47 6.01" overflow="visible" style="marker:none"/><path d="M287.362 137.3a4.794 4.794 0 1 1-7.086-6.46 4.794 4.794 0 1 1 7.086 6.46" overflow="visible" style="marker:none"/><path d="M293.909 130.55a4.794 4.794 0 1 1-6.674-6.886 4.794 4.794 0 1 1 6.674 6.885z" overflow="visible" style="marker:none"/><path d="M300.86 124.216a4.794 4.794 0 1 1-6.237-7.283 4.794 4.794 0 1 1 6.236 7.283z" overflow="visible" style="marker:none"/><path d="M308.154 118.349a4.794 4.794 0 1 1-5.778-7.653 4.794 4.794 0 1 1 5.778 7.653" overflow="visible" style="marker:none"/><path d="M315.814 112.928a4.794 4.794 0 1 1-5.296-7.994 4.794 4.794 0 1 1 5.296 7.994" overflow="visible" style="marker:none"/><path d="M323.78 107.995a4.794 4.794 0 1 1-4.795-8.304 4.794 4.794 0 1 1 4.795 8.304" overflow="visible" style="marker:none"/><path d="M332.063 103.548a4.794 4.794 0 1 1-4.274-8.584 4.794 4.794 0 1 1 4.274 8.584" overflow="visible" style="marker:none"/><path d="M340.585 99.627a4.794 4.794 0 1 1-3.737-8.83 4.794 4.794 0 1 1 3.737 8.83" overflow="visible" style="marker:none"/><path d="M349.353 96.23a4.794 4.794 0 1 1-3.186-9.043 4.794 4.794 0 1 1 3.186 9.044z" overflow="visible" style="marker:none"/><path d="M358.314 93.381a4.794 4.794 0 1 1-2.623-9.223 4.794 4.794 0 1 1 2.623 9.223" overflow="visible" style="marker:none"/><path d="M367.381 91.101a4.794 4.794 0 1 1-2.051-9.366 4.794 4.794 0 1 1 2.051 9.366" overflow="visible" style="marker:none"/><path d="M376.626 89.373a4.794 4.794 0 1 1-1.47-9.475 4.794 4.794 0 1 1 1.47 9.475" overflow="visible" style="marker:none"/><path d="M385.93 88.221a4.794 4.794 0 1 1-.884-9.548 4.794 4.794 0 1 1 .885 9.548z" overflow="visible" style="marker:none"/><path d="M395.326 87.642a4.794 4.794 0 1 1-.294-9.584 4.794 4.794 0 1 1 .294 9.584M247.86 249.397a4.794 4.794 0 1 0-9.57.591 4.794 4.794 0 1 0 9.57-.591" overflow="visible" style="marker:none"/><path d="M248.728 258.753a4.794 4.794 0 1 0-9.516 1.18 4.794 4.794 0 1 0 9.516-1.18" overflow="visible" style="marker:none"/><path d="M250.165 268.004a4.794 4.794 0 1 0-9.426 1.762 4.794 4.794 0 1 0 9.426-1.762" overflow="visible" style="marker:none"/><path d="M252.172 277.169a4.794 4.794 0 1 0-9.3 2.338 4.794 4.794 0 1 0 9.3-2.338" overflow="visible" style="marker:none"/><path d="M254.748 286.224a4.794 4.794 0 1 0-9.137 2.908 4.794 4.794 0 1 0 9.137-2.908" overflow="visible" style="marker:none"/><path d="M257.864 295.065a4.794 4.794 0 1 0-8.941 3.464 4.794 4.794 0 1 0 8.941-3.464" overflow="visible" style="marker:none"/><path d="M261.525 303.714a4.794 4.794 0 1 0-8.71 4.008 4.794 4.794 0 1 0 8.71-4.008" overflow="visible" style="marker:none"/><path d="M265.7 312.097a4.794 4.794 0 1 0-8.45 4.536 4.794 4.794 0 1 0 8.45-4.536" overflow="visible" style="marker:none"/><path d="M270.387 320.22a4.794 4.794 0 1 0-8.154 5.046 4.794 4.794 0 1 0 8.154-5.047z" overflow="visible" style="marker:none"/><path d="M275.592 328.077a4.794 4.794 0 1 0-7.826 5.54 4.794 4.794 0 1 0 7.826-5.54" overflow="visible" style="marker:none"/><path d="M281.237 335.552a4.794 4.794 0 1 0-7.47 6.01 4.794 4.794 0 1 0 7.47-6.01" overflow="visible" style="marker:none"/><path d="M287.362 342.7a4.794 4.794 0 1 0-7.086 6.46 4.794 4.794 0 1 0 7.086-6.46" overflow="visible" style="marker:none"/><path d="M293.909 349.45a4.794 4.794 0 1 0-6.674 6.886 4.794 4.794 0 1 0 6.674-6.885z" overflow="visible" style="marker:none"/><path d="M300.86 355.784a4.794 4.794 0 1 0-6.237 7.283 4.794 4.794 0 1 0 6.236-7.283z" overflow="visible" style="marker:none"/><path d="M308.154 361.651a4.794 4.794 0 1 0-5.778 7.653 4.794 4.794 0 1 0 5.778-7.653" overflow="visible" style="marker:none"/><path d="M315.814 367.072a4.794 4.794 0 1 0-5.296 7.994 4.794 4.794 0 1 0 5.296-7.994" overflow="visible" style="marker:none"/><path d="M323.78 372.005a4.794 4.794 0 1 0-4.795 8.304 4.794 4.794 0 1 0 4.795-8.304" overflow="visible" style="marker:none"/><path d="M332.063 376.452a4.794 4.794 0 1 0-4.274 8.584 4.794 4.794 0 1 0 4.274-8.584" overflow="visible" style="marker:none"/><path d="M340.585 380.373a4.794 4.794 0 1 0-3.737 8.83 4.794 4.794 0 1 0 3.737-8.83" overflow="visible" style="marker:none"/><path d="M349.353 383.77a4.794 4.794 0 1 0-3.186 9.043 4.794 4.794 0 1 0 3.186-9.044z" overflow="visible" style="marker:none"/><path d="M358.314 386.619a4.794 4.794 0 1 0-2.623 9.223 4.794 4.794 0 1 0 2.623-9.223" overflow="visible" style="marker:none"/><path d="M367.381 388.899a4.794 4.794 0 1 0-2.051 9.366 4.794 4.794 0 1 0 2.051-9.366" overflow="visible" style="marker:none"/><path d="M376.626 390.627a4.794 4.794 0 1 0-1.47 9.475 4.794 4.794 0 1 0 1.47-9.475" overflow="visible" style="marker:none"/><path d="M385.93 391.779a4.794 4.794 0 1 0-.884 9.548 4.794 4.794 0 1 0 .885-9.548z" overflow="visible" style="marker:none"/><path d="M395.326 392.358a4.794 4.794 0 1 0-.294 9.584 4.794 4.794 0 1 0 .294-9.584M552.43 240a4.794 4.794 0 1 0 9.588 0 4.794 4.794 0 1 0-9.588 0" overflow="visible" style="marker:none"/><path d="M552.14 230.603a4.794 4.794 0 1 0 9.57-.591 4.794 4.794 0 1 0-9.57.591" overflow="visible" style="marker:none"/><path d="M551.272 221.247a4.794 4.794 0 1 0 9.516-1.18 4.794 4.794 0 1 0-9.516 1.18" overflow="visible" style="marker:none"/><path d="M549.835 211.996a4.794 4.794 0 1 0 9.426-1.762 4.794 4.794 0 1 0-9.426 1.762" overflow="visible" style="marker:none"/><path d="M547.828 202.831a4.794 4.794 0 1 0 9.3-2.338 4.794 4.794 0 1 0-9.3 2.338" overflow="visible" style="marker:none"/><path d="M545.252 193.776a4.794 4.794 0 1 0 9.137-2.908 4.794 4.794 0 1 0-9.137 2.908" overflow="visible" style="marker:none"/><path d="M542.136 184.935a4.794 4.794 0 1 0 8.941-3.464 4.794 4.794 0 1 0-8.941 3.464" overflow="visible" style="marker:none"/><path d="M538.475 176.286a4.794 4.794 0 1 0 8.71-4.008 4.794 4.794 0 1 0-8.71 4.008" overflow="visible" style="marker:none"/><path d="M534.3 167.903a4.794 4.794 0 1 0 8.45-4.536 4.794 4.794 0 1 0-8.45 4.536" overflow="visible" style="marker:none"/><path d="M529.613 159.78a4.794 4.794 0 1 0 8.154-5.046 4.794 4.794 0 1 0-8.154 5.047z" overflow="visible" style="marker:none"/><path d="M524.408 151.923a4.794 4.794 0 1 0 7.826-5.54 4.794 4.794 0 1 0-7.826 5.54" overflow="visible" style="marker:none"/><path d="M518.763 144.448a4.794 4.794 0 1 0 7.47-6.01 4.794 4.794 0 1 0-7.47 6.01" overflow="visible" style="marker:none"/><path d="M512.638 137.3a4.794 4.794 0 1 0 7.086-6.46 4.794 4.794 0 1 0-7.086 6.46" overflow="visible" style="marker:none"/><path d="M506.091 130.55a4.794 4.794 0 1 0 6.674-6.886 4.794 4.794 0 1 0-6.674 6.885z" overflow="visible" style="marker:none"/><path d="M499.14 124.216a4.794 4.794 0 1 0 6.237-7.283 4.794 4.794 0 1 0-6.236 7.283z" overflow="visible" style="marker:none"/><path d="M491.846 118.349a4.794 4.794 0 1 0 5.778-7.653 4.794 4.794 0 1 0-5.778 7.653" overflow="visible" style="marker:none"/><path d="M484.186 112.928a4.794 4.794 0 1 0 5.296-7.994 4.794 4.794 0 1 0-5.296 7.994" overflow="visible" style="marker:none"/><path d="M476.22 107.995a4.794 4.794 0 1 0 4.795-8.304 4.794 4.794 0 1 0-4.795 8.304" overflow="visible" style="marker:none"/><path d="M467.937 103.548a4.794 4.794 0 1 0 4.274-8.584 4.794 4.794 0 1 0-4.274 8.584" overflow="visible" style="marker:none"/><path d="M459.415 99.627a4.794 4.794 0 1 0 3.737-8.83 4.794 4.794 0 1 0-3.737 8.83" overflow="visible" style="marker:none"/><path d="M450.647 96.23a4.794 4.794 0 1 0 3.186-9.043 4.794 4.794 0 1 0-3.186 9.044z" overflow="visible" style="marker:none"/><path d="M441.686 93.381a4.794 4.794 0 1 0 2.623-9.223 4.794 4.794 0 1 0-2.623 9.223" overflow="visible" style="marker:none"/><path d="M432.619 91.101a4.794 4.794 0 1 0 2.051-9.366 4.794 4.794 0 1 0-2.051 9.366" overflow="visible" style="marker:none"/><path d="M423.374 89.373a4.794 4.794 0 1 0 1.47-9.475 4.794 4.794 0 1 0-1.47 9.475" overflow="visible" style="marker:none"/><path d="M414.07 88.221a4.794 4.794 0 1 0 .884-9.548 4.794 4.794 0 1 0-.885 9.548z" overflow="visible" style="marker:none"/><path d="M404.674 87.642a4.794 4.794 0 1 0 .294-9.584 4.794 4.794 0 1 0-.294 9.584M552.14 249.397a4.794 4.794 0 1 1 9.57.591 4.794 4.794 0 1 1-9.57-.591" overflow="visible" style="marker:none"/><path d="M551.272 258.753a4.794 4.794 0 1 1 9.516 1.18 4.794 4.794 0 1 1-9.516-1.18" overflow="visible" style="marker:none"/><path d="M549.835 268.004a4.794 4.794 0 1 1 9.426 1.762 4.794 4.794 0 1 1-9.426-1.762" overflow="visible" style="marker:none"/><path d="M547.828 277.169a4.794 4.794 0 1 1 9.3 2.338 4.794 4.794 0 1 1-9.3-2.338" overflow="visible" style="marker:none"/><path d="M545.252 286.224a4.794 4.794 0 1 1 9.137 2.908 4.794 4.794 0 1 1-9.137-2.908" overflow="visible" style="marker:none"/><path d="M542.136 295.065a4.794 4.794 0 1 1 8.941 3.464 4.794 4.794 0 1 1-8.941-3.464" overflow="visible" style="marker:none"/><path d="M538.475 303.714a4.794 4.794 0 1 1 8.71 4.008 4.794 4.794 0 1 1-8.71-4.008" overflow="visible" style="marker:none"/><path d="M534.3 312.097a4.794 4.794 0 1 1 8.45 4.536 4.794 4.794 0 1 1-8.45-4.536" overflow="visible" style="marker:none"/><path d="M529.613 320.22a4.794 4.794 0 1 1 8.154 5.046 4.794 4.794 0 1 1-8.154-5.047z" overflow="visible" style="marker:none"/><path d="M524.408 328.077a4.794 4.794 0 1 1 7.826 5.54 4.794 4.794 0 1 1-7.826-5.54" overflow="visible" style="marker:none"/><path d="M518.763 335.552a4.794 4.794 0 1 1 7.47 6.01 4.794 4.794 0 1 1-7.47-6.01" overflow="visible" style="marker:none"/><path d="M512.638 342.7a4.794 4.794 0 1 1 7.086 6.46 4.794 4.794 0 1 1-7.086-6.46" overflow="visible" style="marker:none"/><path d="M506.091 349.45a4.794 4.794 0 1 1 6.674 6.886 4.794 4.794 0 1 1-6.674-6.885z" overflow="visible" style="marker:none"/><path d="M499.14 355.784a4.794 4.794 0 1 1 6.237 7.283 4.794 4.794 0 1 1-6.236-7.283z" overflow="visible" style="marker:none"/><path d="M491.846 361.651a4.794 4.794 0 1 1 5.778 7.653 4.794 4.794 0 1 1-5.778-7.653" overflow="visible" style="marker:none"/><path d="M484.186 367.072a4.794 4.794 0 1 1 5.296 7.994 4.794 4.794 0 1 1-5.296-7.994" overflow="visible" style="marker:none"/><path d="M476.22 372.005a4.794 4.794 0 1 1 4.795 8.304 4.794 4.794 0 1 1-4.795-8.304" overflow="visible" style="marker:none"/><path d="M467.937 376.452a4.794 4.794 0 1 1 4.274 8.584 4.794 4.794 0 1 1-4.274-8.584" overflow="visible" style="marker:none"/><path d="M459.415 380.373a4.794 4.794 0 1 1 3.737 8.83 4.794 4.794 0 1 1-3.737-8.83" overflow="visible" style="marker:none"/><path d="M450.647 383.77a4.794 4.794 0 1 1 3.186 9.043 4.794 4.794 0 1 1-3.186-9.044z" overflow="visible" style="marker:none"/><path d="M441.686 386.619a4.794 4.794 0 1 1 2.623 9.223 4.794 4.794 0 1 1-2.623-9.223" overflow="visible" style="marker:none"/><path d="M432.619 388.899a4.794 4.794 0 1 1 2.051 9.366 4.794 4.794 0 1 1-2.051-9.366" overflow="visible" style="marker:none"/><path d="M423.374 390.627a4.794 4.794 0 1 1 1.47 9.475 4.794 4.794 0 1 1-1.47-9.475" overflow="visible" style="marker:none"/><path d="M414.07 391.779a4.794 4.794 0 1 1 .884 9.548 4.794 4.794 0 1 1-.885-9.548z" overflow="visible" style="marker:none"/><path d="M404.674 392.358a4.794 4.794 0 1 1 .294 9.584 4.794 4.794 0 1 1-.294-9.584" overflow="visible" style="marker:none"/></g><path fill="none" stroke="#002673" stroke-linecap="round" stroke-linejoin="round" stroke-width="5" d="M544.18 240a144.18 144.18 0 1 1-288.36 0 144.18 144.18 0 1 1 288.36 0" overflow="visible" style="marker:none"/><path fill="#f5dc0f" stroke="#000" stroke-linecap="round" stroke-linejoin="round" stroke-width="4" d="M312.393 322.374q-.538 2.327-.195 4.158t1.52 3.023q1.023 1.035 2.03 1.235 1.009.201 1.722-.504.507-.501.116-1.6-.4-1.09-1.997-3.545-2.375-3.674-2.576-5.694t1.644-3.843q2.08-2.055 5.048-1.794t5.39 2.712q2.045 2.07 2.456 4.654l1.14-.624 1.186 1.201-3.428 6.627-2.031-1.099q.985-2.343.616-4.747-.37-2.404-1.96-4.016-1.187-1.2-2.37-1.402-1.183-.2-2.032.638-.585.579-.224 1.687.362 1.09 1.93 3.516 2.412 3.712 2.614 5.752.21 2.03-1.625 3.843-1.894 1.871-4.576 1.656-2.683-.216-4.853-2.412-1.717-1.72-2.168-4.187l-.886.412-1.196-1.21 2.77-5.36zm4.996-13.22-1.92 1.278-.285-.354q-.693-.891-1.271-.918-.579-.027-1.767.764l-7.95 5.296q-1.188.791-1.387 1.335-.198.545.357 1.527l.217.4-1.919 1.278-4.01-6.02-4.998-7.505 1.642-2.76 1.642-2.759 1.842 1.082q-1.06 2.52-.84 4.534.197 1.88 1.62 4.115.745 1.17 1.33 1.292.585.121 1.726-.64l2.297-1.529-.51-.765q-.945-1.416-1.67-1.518-.727-.101-2.361.938l-1.225-1.84 3.61-2.404 3.621-2.412 1.225 1.84q-1.447 1.144-1.623 1.995t.753 2.245l.327.491 3.553-2.366q1.166-.776 1.268-1.364t-.726-1.735q-1.575-2.166-3.402-3.126-2.062-1.067-5.34-1.061l-.3-2.208 3.582-.54 3.602-.534 5.28 7.928zm-16.927-18.026-15.573-.173-.822-2.007-.828-2.019 11.085-10.774q1.097-1.088 1.34-1.706.243-.619-.048-1.583l-.113-.384 2.134-.874 1.916 4.673 1.915 4.674-2.133.874-.252-.505q-.607-1.263-1.138-1.328-.53-.064-1.638.998l-1.514 1.407 2.379 5.804 2.077-.036q1.544.005 1.863-.43t-.16-1.855l-.19-.575 2.133-.874 1.608 3.924 1.609 3.924-2.134.875-.2-.378q-.435-.846-1.218-1.236-.784-.392-2.098-.416m-12.072-2.78 6.014-.092-1.635-3.987-4.38 4.08zm9.227-17.726-2.259.462-.137-.462q-.32-1.155-.85-1.424-.532-.27-1.93.017l-9.36 1.912q-1.398.285-1.775.74-.376.456-.231 1.645l.055.479-2.259.462-.98-4.801-.982-4.801 2.26-.462.136.463q.333 1.15.858 1.422.524.27 1.923-.015l9.83-2.009q1.103-.225 1.352-.619t-.028-1.472q-.555-2.1-1.866-3.373-1.486-1.447-4.61-2.547l.626-2.145 3.575.769 3.589.765 1.585 7.76zm-3.005-40.701q-.399 4.36-3.41 6.986-3.01 2.625-7.179 2.244-4.455-.408-7.13-3.643t-2.264-7.72q.4-4.373 3.418-6.998t7.2-2.243q4.442.406 7.11 3.642 2.667 3.235 2.255 7.732m-2.83-.26q.215-2.336-1.63-3.863t-5.221-1.835q-3.254-.298-5.263.8t-2.21 3.285q-.21 2.31 1.64 3.844 1.852 1.533 5.242 1.844 3.24.296 5.241-.802 2.003-1.099 2.202-3.272zm.111-16.812-9.147-2.755q-1.366-.412-1.914-.19-.547.224-.983 1.338l-.178.449-2.208-.665 2.13-7.071 2.47-8.2 3.172-.493 3.173-.492.34 2.11q-2.617.788-4.03 2.24-1.197 1.215-1.963 3.38-.478 1.346-.21 1.886.267.539 1.608.943l2.878.866.25-.827q.49-1.63.105-2.255t-2.226-1.222l.637-2.116 4.153 1.25 4.166 1.255-.637 2.116q-1.804-.386-2.572.021c-.768.407-.929.941-1.25 2.01l-.155.513 3.824 1.152q1.367.411 1.936.138.57-.272 1.045-1.563l.197-.514 2.208.665-1.464 4.863-1.465 4.863-2.208-.665.1-.472q.251-1.172-.088-1.66-.327-.486-1.694-.898m14.599-34.265-9.448-6.242q-.264-.174-.391-.143t-.282.291a4.4 4.4 0 0 0-.549 2.598q.129 1.599 1.257 3.775l-1.814 1.253-1.816-2.532-1.807-2.543 4.252-6.436 4.251-6.436 3.041.676 3.048.665-.44 2.16q-2.445-.183-3.965.325-1.346.444-2.175 1.525-.178.244-.156.373.021.13.284.304l9.449 6.241q1.19.787 1.807.7.616-.086 1.426-1.163l.33-.424 1.924 1.271-2.86 4.33-2.86 4.328-1.924-1.27.261-.47q.674-1.168.51-1.769-.163-.6-1.353-1.387m10.405-14.467-6.698-6.811q-1-1.018-1.587-1.086t-1.506.7l-.371.308-1.617-1.644 3.494-3.436 3.494-3.435 1.617 1.644-.314.366q-.784.906-.726 1.493t1.059 1.606l1.915 1.947 5.099-5.013-1.915-1.948q-1.001-1.017-1.588-1.086-.586-.067-1.505.701l-.372.307-1.616-1.644 3.494-3.435 3.493-3.436 1.617 1.644-.313.367q-.784.906-.726 1.493.057.588 1.059 1.606l6.697 6.811q1.002 1.018 1.588 1.086t1.505-.7l.372-.308 1.616 1.644-3.494 3.435-3.493 3.436-1.617-1.644.314-.366q.783-.906.725-1.494-.057-.588-1.058-1.605l-2.974-3.024-5.099 5.013 2.974 3.024q1 1.018 1.587 1.086t1.506-.7l.37-.308 1.618 1.644-3.494 3.436-3.494 3.435-1.617-1.644.314-.366q.784-.906.721-1.498-.054-.583-1.054-1.601m19.454-11.815-1.227-1.953.362-.275q.909-.67.951-1.247t-.718-1.786l-5.083-8.088q-.76-1.21-1.299-1.42-.538-.214-1.535.316l-.406.206-1.227-1.952 6.124-3.85 7.635-4.798 2.715 1.714 2.715 1.714-1.13 1.813q-2.491-1.125-4.51-.96-1.885.15-4.158 1.512-1.188.714-1.325 1.295-.138.58.593 1.743l1.468 2.335.778-.489q1.442-.906 1.562-1.63t-.875-2.384l1.871-1.176 2.308 3.672 2.316 3.684-1.871 1.175q-1.107-1.476-1.953-1.674t-2.263.693l-.5.314 2.272 3.614q.744 1.185 1.33 1.304.585.118 1.753-.68 2.207-1.518 3.215-3.319 1.122-2.033 1.202-5.31l2.215-.241.444 3.595.44 3.614-8.065 5.07zm46.637-25.851q-.472 3.146-2.41 5.243-1.936 2.099-5.119 2.894-4.207 1.053-7.681-.985c-3.474-2.038-3.82-3.423-4.514-6.192q-1.113-4.448.8-7.805 1.91-3.357 6.145-4.417 2.49-.624 4.747-.028l.163-.706 1.638-.41 4.049 5.835-1.927 1.289q-1.832-2.173-3.716-3.117-1.885-.943-3.562-.523-2.264.566-3.109 2.815-.844 2.25-.022 5.537.82 3.276 2.708 4.827 1.887 1.551 4.31.944 1.8-.45 3.075-1.936 1.276-1.487 1.908-3.88zm6.044.456-.733-9.525q-.11-1.423-.52-1.853-.412-.43-1.665-.43l-.51-.001-.176-2.3 4.981-.382 4.982-.383.176 2.299-.503.08q-1.238.192-1.579.679t-.232 1.91l.732 9.525q.11 1.424.521 1.853t1.665.43l.51.002.176 2.299-4.981.383-4.982.383-.176-2.3.503-.08q1.238-.19 1.585-.686.334-.48.226-1.903m17.775-.336.958-11.283q.026-.315-.061-.412-.09-.096-.39-.109a4.4 4.4 0 0 0-2.545.762q-1.341.878-2.713 2.91l-1.968-.993 1.354-2.805 1.368-2.805 7.686.653 7.686.653.862 2.993.875 2.995-2.108.647q-1.008-2.234-2.183-3.326-1.033-.97-2.38-1.18-.298-.039-.402.042-.103.08-.13.395l-.958 11.283q-.12 1.422.25 1.922t1.704.696l.53.086-.195 2.298-5.17-.44-5.17-.438.196-2.298.536.004q1.348.033 1.797-.398.45-.43.571-1.852m22.456.568-2.08-7.361q-.467-1.614-.906-2.23-.44-.618-1.439-1.015l-.37-.152.657-2.21 5.052 1.5 5.066 1.503-.656 2.21-.512-.108q-1.225-.263-1.49.145t.11 1.994l.89 3.9 3.005-2.744q1.248-1.118 1.256-1.603t-1.219-.934l-.514-.196.656-2.21 4.132 1.226 4.131 1.227-.656 2.21-.46-.093a3.74 3.74 0 0 0-1.974.094q-.952.312-2.09 1.248l-5.771 4.83-.934 3.144q-.405 1.368-.182 1.915.225.546 1.342.978l.449.176-.657 2.21-4.697-1.394-4.697-1.395.656-2.21.472.097q1.172.248 1.659-.088.486-.335.892-1.703zm30.154 23.208q-3.591-2.505-4.383-6.42c-.792-3.915.006-5.06 1.602-7.35q2.56-3.669 6.695-4.392t7.827 1.852q3.603 2.513 4.391 6.434t-1.614 7.366q-2.552 3.66-6.683 4.376-4.13.717-7.835-1.866m1.625-2.33q1.926 1.342 4.165.494 2.24-.848 4.179-3.629 1.867-2.68 1.908-4.969t-1.76-3.545q-1.904-1.327-4.152-.477-2.25.85-4.196 3.641-1.86 2.67-1.897 4.952-.037 2.284 1.753 3.532zm14.546 8.472 6.959-6.545q1.04-.978 1.12-1.563.082-.585-.667-1.52l-.299-.379 1.68-1.58 5.059 5.38 5.868 6.239-1.16 2.993-1.16 2.994-1.996-.76q.625-2.66.073-4.61-.454-1.645-1.945-3.39-.928-1.088-1.529-1.125-.6-.038-1.62.922l-2.19 2.059.592.63q1.167 1.24 1.9 1.218.734-.021 2.172-1.317l1.514 1.61-3.16 2.972-3.169 2.98-1.514-1.61q1.236-1.37 1.268-2.237.03-.87-1.116-2.088l-.367-.39-2.909 2.736q-1.04.978-1.088 1.608t.832 1.686l.346.428-1.68 1.58-3.48-3.7-3.478-3.699 1.68-1.58.358.322q.888.804 1.482.754.584-.04 1.624-1.018m22.359 29.792 10.134-5.052q.282-.14.32-.266.036-.126-.11-.39a4.4 4.4 0 0 0-1.975-1.776q-1.447-.69-3.897-.803l-.175-2.198 3.1-.303 3.106-.29 3.442 6.903 3.441 6.903-2.108 2.293-2.102 2.306-1.65-1.463q1.384-2.025 1.705-3.595.29-1.387-.23-2.646-.123-.276-.245-.322-.123-.047-.405.094l-10.134 5.052q-1.278.638-1.512 1.214t.293 1.817l.202.497-2.064 1.03-2.315-4.644-2.314-4.643 2.063-1.03.276.462q.673 1.167 1.275 1.327.6.16 1.879-.477m7.256 16.231 9.234-2.45q1.38-.366 1.729-.842.35-.477.136-1.655l-.084-.475 2.23-.591 1.256 4.736 1.64 6.182q1.029 3.873.265 6.135c-.764 2.262-1.617 2.488-3.324 2.941q-2.335.62-4.474-1.184a8.3 8.3 0 0 1-1.69-1.98l-3 3.948q-1.077 1.45-1.365 2.187-.287.737-.137 1.677l.055.369-2.229.591-.468-1.764-1.186-4.471 6.43-7.826-.427-1.606-3.316.88q-1.393.37-1.732.886t-.073 1.837l.1.541-2.228.592-1.296-4.882-1.295-4.882 2.229-.592.163.454q.398 1.13.945 1.368.533.242 1.912-.124m7.205 3.229.457 1.725q.57 2.149 1.61 3.15 1.041 1.003 2.34.658 1.274-.338 1.683-1.66.409-1.323-.134-3.366l-.073-.279q-.276-1.035-.678-1.268-.403-.234-1.438.04zm-6.8 18.39 2.301-.13.067.45q.145 1.12.63 1.436t1.911.236l9.538-.537q1.425-.08 1.872-.449.446-.368.465-1.497l.016-.454 2.302-.13.406 7.222.507 9.004-2.814 1.546-2.814 1.547-1.04-1.866q2.19-1.635 3.022-3.483.783-1.722.689-4.37-.05-1.385-.493-1.786-.441-.402-1.812-.324l-2.754.155.051.918q.096 1.698.671 2.155.576.455 2.51.388l.125 2.206-4.33.244-4.345.244-.124-2.206q1.828-.255 2.41-.899.582-.645.489-2.316l-.034-.59-4.261.24q-1.398.078-1.785.533-.387.456-.253 1.864.26 2.665 1.349 4.42 1.237 1.964 4.066 3.62l-.86 2.055-3.362-1.35-3.376-1.364-.535-9.51zm5.03 27.452q-1.413-.2-1.92.104-.507.302-.769 1.472l-.108.47-2.283-.322.523-3.71.523-3.711 2.283.322-.026.481q-.072 1.196.332 1.627t1.817.63l9.46 1.333q1.413.199 1.92-.103.507-.303.769-1.472l.107-.47 2.284.322-.575 4.077-.574 4.077-11.845 4.874 6.197.873q1.414.2 1.92-.104.508-.303.77-1.472l.108-.47 2.283.322-.523 3.71-.523 3.71-2.283-.32.026-.482q.072-1.196-.332-1.627t-1.817-.63l-14.203-2.002.251-1.78.251-1.78 15.947-6.541zm-5.184 24.367 10.686 3.745q.298.105.414.043.116-.061.203-.35a4.4 4.4 0 0 0-.103-2.654q-.515-1.519-2.14-3.354l1.453-1.658 2.378 2.012 2.374 2.024-2.55 7.28-2.552 7.28-3.114.086-3.118.1-.1-2.202q2.415-.42 3.765-1.284 1.197-.758 1.737-2.009.113-.28.06-.4t-.35-.225l-10.686-3.745q-1.348-.472-1.924-.238t-1.1 1.477l-.215.491-2.176-.763 1.716-4.896 1.715-4.896 2.177.763-.139.518q-.366 1.297-.063 1.84.305.543 1.652 1.015m-15.299 20.809q2.264-3.75 6.119-4.796t7.438 1.117q3.831 2.313 4.823 6.392t-1.335 7.932q-2.27 3.76-6.13 4.803-3.862 1.044-7.457-1.127-3.82-2.306-4.805-6.38-.987-4.075 1.347-7.941m2.433 1.468q-1.215 2.01-.22 4.188.992 2.179 3.895 3.932 2.796 1.688 5.083 1.578t3.422-1.99q1.2-1.985.204-4.174t-3.91-3.948q-2.784-1.68-5.065-1.568-2.281.114-3.41 1.982zm-9.28 17.08q-1.038-.98-1.628-1.024-.589-.046-1.477.758l-.36.321-1.678-1.58 2.569-2.728 2.569-2.728 1.678 1.58-.299.379q-.749.935-.668 1.52t1.12 1.563l6.954 6.55q1.04.978 1.628 1.024.589.045 1.478-.758l.36-.322 1.678 1.581-2.823 2.998-2.823 2.997-12.485-2.858 4.556 4.29q1.04.979 1.628 1.025.589.045 1.478-.758l.359-.322 1.679 1.581-2.57 2.728-2.568 2.728-1.679-1.581.3-.378q.748-.935.668-1.52-.082-.585-1.12-1.564l-10.442-9.833 1.233-1.31 1.232-1.308 16.798 3.865zm-116.581 43.588 4.316-9.087q.468-.967.159-1.444-.31-.478-1.592-.834l-1.15-.32.996-2.101q1.995.454 3.496.642a44 44 0 0 0 3.659.318l1.441.4-6.538 13.754q-.541 1.132-.26 1.502t2.125.967l.664.227-.997 2.102-5.78-1.604-5.792-1.607.996-2.102.699.15q1.956.444 2.496.295.537-.136 1.062-1.258m17.619 8.013q1.635-4.259 5.2-8.216 2.437-2.697 6.49-6.051l-7.098-.748q-1.598-.169-2.462.313-.865.48-1.993 2.143l-2.016-.779 1.233-2.92 1.26-2.917 15.37 1.62v-.013l-.332 2.504-.027-.003q-4.54 4.449-6.72 7.835-2.162 3.36-3.281 7.825zm24.32 1.163q-2.75.224-4.496-.496-1.745-.718-1.86-2.128-.09-1.107.58-1.94a2.37 2.37 0 0 1 1.722-.918q.89-.072 1.5.498t.72 1.58q.075.585.575.8.5.214 1.621.123 2.572-.21 3.949-2.249 1.068-1.601 1.532-4.53-2.327 1.868-5.364 2.115-2.75.223-4.46-1.008-1.712-1.23-1.902-3.57a8 8 0 0 1-.02-.68q.003-.38.042-.74.257-2.775 2.744-4.871 2.488-2.095 5.826-2.367 4.309-.35 6.414 2 1.484 1.641 1.697 4.447a15 15 0 0 1-.037 2.592q-.476 5.16-3.243 8.058-2.74 2.894-7.54 3.284m5.948-14.24q.012-.195.013-.435v-.42q-.121-1.326-1.004-2.108-.883-.783-2.155-.679-1.546.125-2.667 1.325-1.122 1.2-1.273 2.892a6 6 0 0 0-.037.568 5 5 0 0 0 .014.508q.108 1.34.935 2.017.826.677 2.235.562 1.532-.124 2.66-1.331 1.113-1.205 1.28-2.9zm23.245-6.716q.724 2.678-1.354 5.883-1.779 2.74-6.633 7.395l3.798-1.047q2.13-.587 2.901-1.326.772-.74 1.269-2.656l2.075.14-.492 3.125-.478 3.122-13.484 3.715-.01.017-.99-2.717.013-.003 2.294-2.37q3.306-3.401 4.883-6.67 1.554-3.246.933-5.396-.342-1.188-1.186-1.695t-1.983-.194q-1.469.405-2.24 1.479-.773 1.074-.035 1.682 1.008.82.642 2.2-.367 1.383-1.69 1.748-1.084.299-1.912-.328-.828-.626-.933-1.835-.24-2.37 1.584-4.48 1.825-2.112 4.789-2.928 3.096-.854 5.354.005 2.258.858 2.885 3.134" font-family="ITC Bookman Demi" font-size="28.11" font-weight="700" style="text-align:center;line-height:88513.348388669998%;-inkscape-font-specification:ITC Bookman Demi Bold" text-anchor="middle"/><path fill="#f5dc0f" d="M312.393 322.374q-.538 2.327-.195 4.158t1.52 3.023q1.023 1.035 2.03 1.235 1.009.201 1.722-.504.507-.501.116-1.6-.4-1.09-1.997-3.545-2.375-3.674-2.576-5.694t1.644-3.843q2.08-2.055 5.048-1.794t5.39 2.712q2.045 2.07 2.456 4.654l1.14-.624 1.186 1.201-3.428 6.627-2.031-1.099q.985-2.343.616-4.747-.37-2.404-1.96-4.016-1.187-1.2-2.37-1.402-1.183-.2-2.032.638-.585.579-.224 1.687.362 1.09 1.93 3.516 2.412 3.712 2.614 5.752.21 2.03-1.625 3.843-1.894 1.871-4.576 1.656-2.683-.216-4.853-2.412-1.717-1.72-2.168-4.187l-.886.412-1.196-1.21 2.77-5.36zm4.996-13.22-1.92 1.278-.285-.354q-.693-.891-1.271-.918-.579-.027-1.767.764l-7.95 5.296q-1.188.791-1.387 1.335-.198.545.357 1.527l.217.4-1.919 1.278-4.01-6.02-4.998-7.505 1.642-2.76 1.642-2.759 1.842 1.082q-1.06 2.52-.84 4.534.197 1.88 1.62 4.115.745 1.17 1.33 1.292.585.121 1.726-.64l2.297-1.529-.51-.765q-.945-1.416-1.67-1.518-.727-.101-2.361.938l-1.225-1.84 3.61-2.404 3.621-2.412 1.225 1.84q-1.447 1.144-1.623 1.995t.753 2.245l.327.491 3.553-2.366q1.166-.776 1.268-1.364t-.726-1.735q-1.575-2.166-3.402-3.126-2.062-1.067-5.34-1.061l-.3-2.208 3.582-.54 3.602-.534 5.28 7.928zm-16.927-18.026-15.573-.173-.822-2.007-.828-2.019 11.085-10.774q1.097-1.088 1.34-1.706.243-.619-.048-1.583l-.113-.384 2.134-.874 1.916 4.673 1.915 4.674-2.133.874-.252-.505q-.607-1.263-1.138-1.328-.53-.064-1.638.998l-1.514 1.407 2.379 5.804 2.077-.036q1.544.005 1.863-.43t-.16-1.855l-.19-.575 2.133-.874 1.608 3.924 1.609 3.924-2.134.875-.2-.378q-.435-.846-1.218-1.236-.784-.392-2.098-.416m-12.072-2.78 6.014-.092-1.635-3.987-4.38 4.08zm9.227-17.726-2.259.462-.137-.462q-.32-1.155-.85-1.424-.532-.27-1.93.017l-9.36 1.912q-1.398.285-1.775.74-.376.456-.231 1.645l.055.479-2.259.462-.98-4.801-.982-4.801 2.26-.462.136.463q.333 1.15.858 1.422.524.27 1.923-.015l9.83-2.009q1.103-.225 1.352-.619t-.028-1.472q-.555-2.1-1.866-3.373-1.486-1.447-4.61-2.547l.626-2.145 3.575.769 3.589.765 1.585 7.76zm-3.005-40.701q-.399 4.36-3.41 6.986-3.01 2.625-7.179 2.244-4.455-.408-7.13-3.643t-2.264-7.72q.4-4.373 3.418-6.998t7.2-2.243q4.442.406 7.11 3.642 2.667 3.235 2.255 7.732m-2.83-.26q.215-2.336-1.63-3.863t-5.221-1.835q-3.254-.298-5.263.8t-2.21 3.285q-.21 2.31 1.64 3.844 1.852 1.533 5.242 1.844 3.24.296 5.241-.802 2.003-1.099 2.202-3.272zm.111-16.812-9.147-2.755q-1.366-.412-1.914-.19-.547.224-.983 1.338l-.178.449-2.208-.665 2.13-7.071 2.47-8.2 3.172-.493 3.173-.492.34 2.11q-2.617.788-4.03 2.24-1.197 1.215-1.963 3.38-.478 1.346-.21 1.886.267.539 1.608.943l2.878.866.25-.827q.49-1.63.105-2.255t-2.226-1.222l.637-2.116 4.153 1.25 4.166 1.255-.637 2.116q-1.804-.386-2.572.021c-.768.407-.929.941-1.25 2.01l-.155.513 3.824 1.152q1.367.411 1.936.138.57-.272 1.045-1.563l.197-.514 2.208.665-1.464 4.863-1.465 4.863-2.208-.665.1-.472q.251-1.172-.088-1.66-.327-.486-1.694-.898m14.599-34.265-9.448-6.242q-.264-.174-.391-.143t-.282.291a4.4 4.4 0 0 0-.549 2.598q.129 1.599 1.257 3.775l-1.814 1.253-1.816-2.532-1.807-2.543 4.252-6.436 4.251-6.436 3.041.676 3.048.665-.44 2.16q-2.445-.183-3.965.325-1.346.444-2.175 1.525-.178.244-.156.373.021.13.284.304l9.449 6.241q1.19.787 1.807.7.616-.086 1.426-1.163l.33-.424 1.924 1.271-2.86 4.33-2.86 4.328-1.924-1.27.261-.47q.674-1.168.51-1.769-.163-.6-1.353-1.387m10.405-14.467-6.698-6.811q-1-1.018-1.587-1.086t-1.506.7l-.371.308-1.617-1.644 3.494-3.436 3.494-3.435 1.617 1.644-.314.366q-.784.906-.726 1.493t1.059 1.606l1.915 1.947 5.099-5.013-1.915-1.948q-1.001-1.017-1.588-1.086-.586-.067-1.505.701l-.372.307-1.616-1.644 3.494-3.435 3.493-3.436 1.617 1.644-.313.367q-.784.906-.726 1.493.057.588 1.059 1.606l6.697 6.811q1.002 1.018 1.588 1.086t1.505-.7l.372-.308 1.616 1.644-3.494 3.435-3.493 3.436-1.617-1.644.314-.366q.783-.906.725-1.494-.057-.588-1.058-1.605l-2.974-3.024-5.099 5.013 2.974 3.024q1 1.018 1.587 1.086t1.506-.7l.37-.308 1.618 1.644-3.494 3.436-3.494 3.435-1.617-1.644.314-.366q.784-.906.721-1.498-.054-.583-1.054-1.601m19.454-11.815-1.227-1.953.362-.275q.909-.67.951-1.247t-.718-1.786l-5.083-8.088q-.76-1.21-1.299-1.42-.538-.214-1.535.316l-.406.206-1.227-1.952 6.124-3.85 7.635-4.798 2.715 1.714 2.715 1.714-1.13 1.813q-2.491-1.125-4.51-.96-1.885.15-4.158 1.512-1.188.714-1.325 1.295-.138.58.593 1.743l1.468 2.335.778-.489q1.442-.906 1.562-1.63t-.875-2.384l1.871-1.176 2.308 3.672 2.316 3.684-1.871 1.175q-1.107-1.476-1.953-1.674t-2.263.693l-.5.314 2.272 3.614q.744 1.185 1.33 1.304.585.118 1.753-.68 2.207-1.518 3.215-3.319 1.122-2.033 1.202-5.31l2.215-.241.444 3.595.44 3.614-8.065 5.07zm46.637-25.851q-.472 3.146-2.41 5.243-1.936 2.099-5.119 2.894-4.207 1.053-7.681-.985c-3.474-2.038-3.82-3.423-4.514-6.192q-1.113-4.448.8-7.805 1.91-3.357 6.145-4.417 2.49-.624 4.747-.028l.163-.706 1.638-.41 4.049 5.835-1.927 1.289q-1.832-2.173-3.716-3.117-1.885-.943-3.562-.523-2.264.566-3.109 2.815-.844 2.25-.022 5.537.82 3.276 2.708 4.827 1.887 1.551 4.31.944 1.8-.45 3.075-1.936 1.276-1.487 1.908-3.88zm6.044.456-.733-9.525q-.11-1.423-.52-1.853-.412-.43-1.665-.43l-.51-.001-.176-2.3 4.981-.382 4.982-.383.176 2.299-.503.08q-1.238.192-1.579.679t-.232 1.91l.732 9.525q.11 1.424.521 1.853t1.665.43l.51.002.176 2.299-4.981.383-4.982.383-.176-2.3.503-.08q1.238-.19 1.585-.686.334-.48.226-1.903m17.775-.336.958-11.283q.026-.315-.061-.412-.09-.096-.39-.109a4.4 4.4 0 0 0-2.545.762q-1.341.878-2.713 2.91l-1.968-.993 1.354-2.805 1.368-2.805 7.686.653 7.686.653.862 2.993.875 2.995-2.108.647q-1.008-2.234-2.183-3.326-1.033-.97-2.38-1.18-.298-.039-.402.042-.103.08-.13.395l-.958 11.283q-.12 1.422.25 1.922t1.704.696l.53.086-.195 2.298-5.17-.44-5.17-.438.196-2.298.536.004q1.348.033 1.797-.398.45-.43.571-1.852m22.456.568-2.08-7.361q-.467-1.614-.906-2.23-.44-.618-1.439-1.015l-.37-.152.657-2.21 5.052 1.5 5.066 1.503-.656 2.21-.512-.108q-1.225-.263-1.49.145t.11 1.994l.89 3.9 3.005-2.744q1.248-1.118 1.256-1.603t-1.219-.934l-.514-.196.656-2.21 4.132 1.226 4.131 1.227-.656 2.21-.46-.093a3.74 3.74 0 0 0-1.974.094q-.952.312-2.09 1.248l-5.771 4.83-.934 3.144q-.405 1.368-.182 1.915.225.546 1.342.978l.449.176-.657 2.21-4.697-1.394-4.697-1.395.656-2.21.472.097q1.172.248 1.659-.088.486-.335.892-1.703zm30.154 23.208q-3.591-2.505-4.383-6.42c-.792-3.915.006-5.06 1.602-7.35q2.56-3.669 6.695-4.392t7.827 1.852q3.603 2.513 4.391 6.434t-1.614 7.366q-2.552 3.66-6.683 4.376-4.13.717-7.835-1.866m1.625-2.33q1.926 1.342 4.165.494 2.24-.848 4.179-3.629 1.867-2.68 1.908-4.969t-1.76-3.545q-1.904-1.327-4.152-.477-2.25.85-4.196 3.641-1.86 2.67-1.897 4.952-.037 2.284 1.753 3.532zm14.546 8.472 6.959-6.545q1.04-.978 1.12-1.563.082-.585-.667-1.52l-.299-.379 1.68-1.58 5.059 5.38 5.868 6.239-1.16 2.993-1.16 2.994-1.996-.76q.625-2.66.073-4.61-.454-1.645-1.945-3.39-.928-1.088-1.529-1.125-.6-.038-1.62.922l-2.19 2.059.592.63q1.167 1.24 1.9 1.218.734-.021 2.172-1.317l1.514 1.61-3.16 2.972-3.169 2.98-1.514-1.61q1.236-1.37 1.268-2.237.03-.87-1.116-2.088l-.367-.39-2.909 2.736q-1.04.978-1.088 1.608t.832 1.686l.346.428-1.68 1.58-3.48-3.7-3.478-3.699 1.68-1.58.358.322q.888.804 1.482.754.584-.04 1.624-1.018m22.359 29.792 10.134-5.052q.282-.14.32-.266.036-.126-.11-.39a4.4 4.4 0 0 0-1.975-1.776q-1.447-.69-3.897-.803l-.175-2.198 3.1-.303 3.106-.29 3.442 6.903 3.441 6.903-2.108 2.293-2.102 2.306-1.65-1.463q1.384-2.025 1.705-3.595.29-1.387-.23-2.646-.123-.276-.245-.322-.123-.047-.405.094l-10.134 5.052q-1.278.638-1.512 1.214t.293 1.817l.202.497-2.064 1.03-2.315-4.644-2.314-4.643 2.063-1.03.276.462q.673 1.167 1.275 1.327.6.16 1.879-.477m7.256 16.231 9.234-2.45q1.38-.366 1.729-.842.35-.477.136-1.655l-.084-.475 2.23-.591 1.256 4.736 1.64 6.182q1.029 3.873.265 6.135c-.764 2.262-1.617 2.488-3.324 2.941q-2.335.62-4.474-1.184a8.3 8.3 0 0 1-1.69-1.98l-3 3.948q-1.077 1.45-1.365 2.187-.287.737-.137 1.677l.055.369-2.229.591-.468-1.764-1.186-4.471 6.43-7.826-.427-1.606-3.316.88q-1.393.37-1.732.886t-.073 1.837l.1.541-2.228.592-1.296-4.882-1.295-4.882 2.229-.592.163.454q.398 1.13.945 1.368.533.242 1.912-.124m7.205 3.229.457 1.725q.57 2.149 1.61 3.15 1.041 1.003 2.34.658 1.274-.338 1.683-1.66.409-1.323-.134-3.366l-.073-.279q-.276-1.035-.678-1.268-.403-.234-1.438.04zm-6.8 18.39 2.301-.13.067.45q.145 1.12.63 1.436t1.911.236l9.538-.537q1.425-.08 1.872-.449.446-.368.465-1.497l.016-.454 2.302-.13.406 7.222.507 9.004-2.814 1.546-2.814 1.547-1.04-1.866q2.19-1.635 3.022-3.483.783-1.722.689-4.37-.05-1.385-.493-1.786-.441-.402-1.812-.324l-2.754.155.051.918q.096 1.698.671 2.155.576.455 2.51.388l.125 2.206-4.33.244-4.345.244-.124-2.206q1.828-.255 2.41-.899.582-.645.489-2.316l-.034-.59-4.261.24q-1.398.078-1.785.533-.387.456-.253 1.864.26 2.665 1.349 4.42 1.237 1.964 4.066 3.62l-.86 2.055-3.362-1.35-3.376-1.364-.535-9.51zm5.03 27.452q-1.413-.2-1.92.104-.507.302-.769 1.472l-.108.47-2.283-.322.523-3.71.523-3.711 2.283.322-.026.481q-.072 1.196.332 1.627t1.817.63l9.46 1.333q1.413.199 1.92-.103.507-.303.769-1.472l.107-.47 2.284.322-.575 4.077-.574 4.077-11.845 4.874 6.197.873q1.414.2 1.92-.104.508-.303.77-1.472l.108-.47 2.283.322-.523 3.71-.523 3.71-2.283-.32.026-.482q.072-1.196-.332-1.627t-1.817-.63l-14.203-2.002.251-1.78.251-1.78 15.947-6.541zm-5.184 24.367 10.686 3.745q.298.105.414.043.116-.061.203-.35a4.4 4.4 0 0 0-.103-2.654q-.515-1.519-2.14-3.354l1.453-1.658 2.378 2.012 2.374 2.024-2.55 7.28-2.552 7.28-3.114.086-3.118.1-.1-2.202q2.415-.42 3.765-1.284 1.197-.758 1.737-2.009.113-.28.06-.4t-.35-.225l-10.686-3.745q-1.348-.472-1.924-.238t-1.1 1.477l-.215.491-2.176-.763 1.716-4.896 1.715-4.896 2.177.763-.139.518q-.366 1.297-.063 1.84.305.543 1.652 1.015m-15.299 20.809q2.264-3.75 6.119-4.796t7.438 1.117q3.831 2.313 4.823 6.392t-1.335 7.932q-2.27 3.76-6.13 4.803-3.862 1.044-7.457-1.127-3.82-2.306-4.805-6.38-.987-4.075 1.347-7.941m2.433 1.468q-1.215 2.01-.22 4.188.992 2.179 3.895 3.932 2.796 1.688 5.083 1.578t3.422-1.99q1.2-1.985.204-4.174t-3.91-3.948q-2.784-1.68-5.065-1.568-2.281.114-3.41 1.982zm-9.28 17.08q-1.038-.98-1.628-1.024-.589-.046-1.477.758l-.36.321-1.678-1.58 2.569-2.728 2.569-2.728 1.678 1.58-.299.379q-.749.935-.668 1.52t1.12 1.563l6.954 6.55q1.04.978 1.628 1.024.589.045 1.478-.758l.36-.322 1.678 1.581-2.823 2.998-2.823 2.997-12.485-2.858 4.556 4.29q1.04.979 1.628 1.025.589.045 1.478-.758l.359-.322 1.679 1.581-2.57 2.728-2.568 2.728-1.679-1.581.3-.378q.748-.935.668-1.52-.082-.585-1.12-1.564l-10.442-9.833 1.233-1.31 1.232-1.308 16.798 3.865zm-116.581 43.588 4.316-9.087q.468-.967.159-1.444-.31-.478-1.592-.834l-1.15-.32.996-2.101q1.995.454 3.496.642a44 44 0 0 0 3.659.318l1.441.4-6.538 13.754q-.541 1.132-.26 1.502t2.125.967l.664.227-.997 2.102-5.78-1.604-5.792-1.607.996-2.102.699.15q1.956.444 2.496.295.537-.136 1.062-1.258m17.619 8.013q1.635-4.259 5.2-8.216 2.437-2.697 6.49-6.051l-7.098-.748q-1.598-.169-2.462.313-.865.48-1.993 2.143l-2.016-.779 1.233-2.92 1.26-2.917 15.37 1.62v-.013l-.332 2.504-.027-.003q-4.54 4.449-6.72 7.835-2.162 3.36-3.281 7.825zm24.32 1.163q-2.75.224-4.496-.496-1.745-.718-1.86-2.128-.09-1.107.58-1.94a2.37 2.37 0 0 1 1.722-.918q.89-.072 1.5.498t.72 1.58q.075.585.575.8.5.214 1.621.123 2.572-.21 3.949-2.249 1.068-1.601 1.532-4.53-2.327 1.868-5.364 2.115-2.75.223-4.46-1.008-1.712-1.23-1.902-3.57a8 8 0 0 1-.02-.68q.003-.38.042-.74.257-2.775 2.744-4.871 2.488-2.095 5.826-2.367 4.309-.35 6.414 2 1.484 1.641 1.697 4.447a15 15 0 0 1-.037 2.592q-.476 5.16-3.243 8.058-2.74 2.894-7.54 3.284m5.948-14.24q.012-.195.013-.435v-.42q-.121-1.326-1.004-2.108-.883-.783-2.155-.679-1.546.125-2.667 1.325-1.122 1.2-1.273 2.892a6 6 0 0 0-.037.568 5 5 0 0 0 .014.508q.108 1.34.935 2.017.826.677 2.235.562 1.532-.124 2.66-1.331 1.113-1.205 1.28-2.9zm23.245-6.716q.724 2.678-1.354 5.883-1.779 2.74-6.633 7.395l3.798-1.047q2.13-.587 2.901-1.326.772-.74 1.269-2.656l2.075.14-.492 3.125-.478 3.122-13.484 3.715-.01.017-.99-2.717.013-.003 2.294-2.37q3.306-3.401 4.883-6.67 1.554-3.246.933-5.396-.342-1.188-1.186-1.695t-1.983-.194q-1.469.405-2.24 1.479-.773 1.074-.035 1.682 1.008.82.642 2.2-.367 1.383-1.69 1.748-1.084.299-1.912-.328-.828-.626-.933-1.835-.24-2.37 1.584-4.48 1.825-2.112 4.789-2.928 3.096-.854 5.354.005 2.258.858 2.885 3.134" font-family="ITC Bookman Demi" font-size="28.11" font-weight="700" style="text-align:center;line-height:88513.348388669983%;-inkscape-font-specification:ITC Bookman Demi Bold" text-anchor="middle"/></svg>