<svg xmlns="http://www.w3.org/2000/svg" xml:space="preserve" width="300mm" height="200mm" style="shape-rendering:geometricPrecision;text-rendering:geometricPrecision;image-rendering:optimizeQuality;fill-rule:evenodd;clip-rule:evenodd" viewBox="0 0 30000 20000"><defs><style>.fil1{fill:#de2910}</style></defs><g id="Слой_x0020_1"><path d="M0 0h30000v20000H0z" style="fill:#fff"/><path d="M13000 0v8000H0v4000h13000v8000h4000v-8000h13000V8000H17000V0z" class="fil1"/><path d="M21613 3263c466 88 943 146 1429 169-23-486-81-963-169-1429 224 28 451 42 682 42s458-14 682-42c-88 466-146 943-169 1429 486-23 963-81 1429-169-28 224-42 451-42 682s14 458 42 682c-466-88-943-146-1429-169 23 486 81 963 169 1429-224-28-451-42-682-42s-458 14-682 42c88-466 146-943 169-1429-486 23-963 81-1429 169 28-224 42-451 42-682s-14-458-42-682m0 12110c466 88 943 146 1429 169-23-486-81-963-169-1429 224 28 451 42 682 42s458-14 682-42c-88 466-146 943-169 1429 486-23 963-81 1429-169-28 224-42 451-42 682s14 458 42 682c-466-88-943-146-1429-169 23 486 81 963 169 1429-224-28-451-42-682-42s-458 14-682 42c88-466 146-943 169-1429-486 23-963 81-1429 169 28-224 42-451 42-682s-14-458-42-682m-17110 0c466 88 943 146 1429 169-23-486-81-963-169-1429 224 28 451 42 682 42s458-14 682-42c-88 466-146 943-169 1429 486-23 963-81 1429-169-28 224-42 451-42 682s14 458 42 682c-466-88-943-146-1429-169 23 486 81 963 169 1429-224-28-451-42-682-42s-458 14-682 42c88-466 146-943 169-1429-486 23-963 81-1429 169 28-224 42-451 42-682s-14-458-42-682m0-12110c466 88 943 146 1429 169-23-486-81-963-169-1429 224 28 451 42 682 42s458-14 682-42c-88 466-146 943-169 1429 486-23 963-81 1429-169-28 224-42 451-42 682s14 458 42 682c-466-88-943-146-1429-169 23 486 81 963 169 1429-224-28-451-42-682-42s-458 14-682 42c88-466 146-943 169-1429-486 23-963 81-1429 169 28-224 42-451 42-682s-14-458-42-682" class="fil1"/></g></svg>