<svg xmlns="http://www.w3.org/2000/svg" width="650" height="500"><path fill="#002673" d="M0 250h650v250H0z"/><path fill="#c70f2e" d="M0 .003h650V250H0z"/><path fill="#fff" d="M489.123 465.194c0-.374 4.08-7.783 4.88-8.862.433-.585 1.762-1.568 2.954-2.184 1.247-.644 2.167-1.638 2.167-2.339 0-1.543 2.53-4.297 5.231-5.694 1.145-.592 2.544-1.971 3.11-3.065s1.452-1.989 1.971-1.989c1.446 0 1.74-.913 2.012-6.245l.252-4.923-2.62-1.03c-2.131-.837-2.622-1.36-2.622-2.794 0-1.905-1.087-4.382-2.266-5.162l-332.772-.848 1.08-236.694c.205-1.079-.106-1.334-1.63-1.334-1.06 0-2.279-.537-2.785-1.227-.806-1.098-1.153-1.137-3.277-.369-2.235.809-2.486.753-4.252-.94-1.032-.988-2.349-1.797-2.926-1.797-1.448 0-2.779-1.764-2.29-3.035q.404-1.052-2.593-3.778c-2.182-1.985-2.996-3.232-2.996-4.585 0-1.022.3-2.044.667-2.27.366-.227.666-1.028.666-1.78 0-1.107-.301-1.29-1.593-.966-1.309.329-1.982-.105-3.766-2.43-1.194-1.555-3.096-3.278-4.226-3.827-1.13-.55-2.211-1.65-2.402-2.446s-1.174-2.095-2.185-2.886c-3.882-3.037-3.747-6.001.273-6.001 1.801 0 1.929-.167 1.783-2.326-.186-2.769 1.805-5.798 4.176-6.352 1.255-.294 1.653-.88 1.82-2.683.29-3.112.846-3.508 3.251-2.308 1.992.993 4.101.795 4.303-.404.335-1.998.09-2.262-2.1-2.262-2.776 0-3.267-1.72-.667-2.334 2.135-.504 2.393-3.514.333-3.896-2.193-.408-3.021-1.456-2.57-3.253.27-1.073.09-1.869-.507-2.246-1.328-.84-5.362.055-6.565 1.457-1.817 2.118-5.503 1.904-7.68-.446-1.027-1.107-2.139-1.64-3.136-1.5-1.254.176-1.584-.128-1.755-1.617-.128-1.107-.614-1.834-1.228-1.834-1.275 0-4.3-2.248-7.399-5.5-1.832-1.923-2.901-2.5-4.627-2.5-2.78 0-3.29-1.119-2.234-4.892l.796-2.844-3.062-3.3c-2.258-2.434-2.971-3.68-2.717-4.747.547-2.298-.28-3.553-2.345-3.553-2.173 0-4.086-1.606-3.556-2.987.384-1.001-3.751-3.14-5.717-2.957-2.12.198-2.331-.117-.845-1.261l1.527-1.175-1.413-3.194c-.777-1.757-1.552-3.997-1.722-4.978s-.76-2.127-1.31-2.546c-1.196-.91-.65-3.962.86-4.807 1.32-.74.85-3.691-.635-3.974-.816-.156-1.167.205-1.167 1.2 0 1.233-.328 1.395-2.456 1.216-2.076-.175-2.536-.507-2.972-2.15-.283-1.069-.347-2.215-.142-2.548 95.86 1.188 191.747.329 287.603-2.452 12.974-.516 13.753-.478 15.335.752.917.713 1.821 1.91 2.01 2.659.207.82 1.267 1.663 2.66 2.114 1.45.471 2.4 1.249 2.545 2.085.128.733.607 1.633 1.066 2s1.195 1.342 1.635 2.167c.481.904 1.422 1.5 2.368 1.5 1.26 0 1.654.452 2 2.293.48 2.56 4.092 5.368 5.976 4.644 1.417-.543 1.357.06-.222 2.258-3.503 4.876-5.456 16.802-4.033 24.622.868 4.772 1.964 7.56 4.615 11.73 1.565 2.463 1.58 2.61.48 4.473-1.572 2.662-.842 4.87 2.296 6.947 2.8 1.853 2.857 1.985 2.647 6.086-.13 2.508.103 2.906 3.077 5.277 1.77 1.41 4.294 3.64 5.61 4.955 1.318 1.315 3.193 2.93 4.168 3.588.975.66 1.773 1.724 1.773 2.367 0 1.612 1.306 2.77 3.125 2.77 1.053 0 2.044.821 3.2 2.653.922 1.46 1.676 2.925 1.676 3.256 0 .938 5.221 5.425 6.313 5.425.536 0 1.96.856 3.165 1.903 1.205 1.046 3.39 2.655 4.857 3.574 1.467.92 4.56 3.497 6.873 5.729 4.07 3.927 4.227 4.202 4.87 8.594.366 2.495 1.152 5.483 1.747 6.64 1 1.949.998 2.231-.037 3.81-1.414 2.159-1.4 2.726.143 6.044.694 1.49 1.434 3.91 1.644 5.378.283 1.972 1.077 3.318 3.047 5.167 1.465 1.375 3.265 2.5 4 2.5 1.839 0 5.914-3.719 7.047-6.43.83-1.985 1.223-2.238 3.479-2.238 1.4 0 3.74.648 5.201 1.44 1.462.79 3.995 1.693 5.63 2.005 1.636.312 4.036 1.264 5.334 2.116 1.299.85 3.636 2.353 5.195 3.337 3.95 2.495 3.796 4.079-.834 8.497-3.83 3.655-4.425 5.35-2.688 7.648.539.711.989 2.527 1 4.034.018 2.252-.411 3.2-2.409 5.317-2.677 2.84-3.842 5.21-4.916 10.002-.44 1.96-1.566 4.125-2.937 5.641-2.98 3.3-3.961 6.546-3.545 11.733.386 4.805 1.612 7.096 4.806 8.98 1.217.719 2.596 2.231 3.064 3.36.954 2.304 4.932 5.457 8.275 6.56 1.215.402 2.358 1.294 2.538 1.983s1.487 1.847 2.904 2.573c1.417.727 3.304 2.1 4.193 3.053.987 1.058 2.334 1.732 3.46 1.732 2.233 0 2.932.886 1.583 2.006-1.194.991-1.248 2.038-.219 4.296.98 2.15 3.827 2.28 6.509.298 1.814-1.341 1.968-1.352 3.64-.257.96.63 1.746 1.35 1.746 1.6 0 .251 1.05.836 2.333 1.3s2.642 1.422 3.02 2.127c.378.706 1.578 1.745 2.667 2.308 1.62.838 1.98 1.446 1.98 3.34 0 1.857.26 2.317 1.307 2.317.719 0 1.994.713 2.834 1.584s2.425 1.795 3.524 2.054c2.925.689 3.67 1.57 3.67 4.342 0 1.635.455 2.893 1.334 3.688 1.416 1.282 1.776 2.945.667 3.084-.367.046-1.038.12-1.491.167-.454.046-.928.618-1.054 1.27-.27 1.407 3.528 9.814 4.434 9.814 1.006 0 2.778 4.337 2.778 6.802 0 2.513-.98 3.866-2.8 3.866-1.802 0-3.868 2.422-3.868 4.534 0 2.165 1.072 3.467 2.854 3.467 1.024 0 1.178.34.844 1.86-.466 2.123 1.943 7.272 4.828 10.32 1.292 1.364 1.706 2.441 1.592 4.139-.127 1.88.18 2.497 1.698 3.418a95 95 0 0 1 3.757 2.433c1.775 1.222 1.978 1.235 3 .201 1.019-1.03.942-1.236-1.077-2.906-2.758-2.28-2.726-2.796.173-2.796 1.284 0 2.334.255 2.334.568s.9 1.51 2 2.66c1.1 1.152 2 2.711 2 3.466 0 1.22.35 1.351 3.144 1.173 3.624-.23 4.169.642 2.96 4.745-.387 1.314-.877 3.225-1.089 4.246-.226 1.093-1.062 2.165-2.033 2.607-2.526 1.151-2.287 4.184.404 5.122 2.89 1.008 2.463 3.169-.567 2.874-1.741-.17-2.284.102-2.899 1.45-.63 1.385-.515 2.051.699 4.015 1.45 2.347 1.451 2.36.175 4.882a227 227 0 0 0-2.225 4.53c-1.504 3.186-4.067 3.077-6.38-.27-2.092-3.028-3.944-3.976-5.146-2.632-.443.496-1.624 3.488-2.624 6.65-2.106 6.658-4.399 9.562-6.16 7.8-.947-.947-.933-1.355.156-4.42 1.162-3.272 1.16-3.42-.046-4.752-2.442-2.699-7.616-.991-6.65 2.195.238.786 1.148 2.385 2.022 3.552 1.897 2.533 1.918 2.743.44 4.377-1.088 1.203-1.088 1.377 0 3.273 1.366 2.38 1.496 5.445.274 6.46-.49.406-1.921.556-3.249.34-4.248-.689-4.083 2.284.25 4.494 3.123 1.593 3.008 2.636-.415 3.776-1.897.632-3.185.661-5.201.118-1.958-.527-2.882-.52-3.429.028-.554.555.335 1.772 3.419 4.68 2.291 2.16 4.167 4.388 4.167 4.948s-.975 1.514-2.167 2.118c-3.297 1.67-4.5 2.972-4.504 4.874-.002.951-.677 2.547-1.5 3.545l-1.497 1.816c-16.097-.302-32.249.877-48.34.166z"/><g fill-rule="evenodd"><path fill="#002673" d="M649.987 170.493c-5.867 0-11.112-2.122-16.25-4.243-5.137-2.121-10.383-4.243-16.249-4.243s-11.111 2.122-16.249 4.243-10.383 4.243-16.25 4.243c-5.866 0-11.112-2.122-16.25-4.243-5.137-2.121-10.382-4.243-16.248-4.243s-11.112 2.122-16.25 4.243c-5.137 2.121-10.382 4.243-16.249 4.243s-11.112-2.122-16.25-4.243c-5.137-2.121-10.382-4.243-16.248-4.243s-11.112 2.122-16.25 4.243c-5.137 2.121-10.382 4.243-16.25 4.243-5.866 0-11.111-2.122-16.249-4.243s-10.382-4.243-16.249-4.243-11.111 2.122-16.249 4.243-10.382 4.243-16.25 4.243c-5.866 0-11.112-2.122-16.249-4.243s-10.383-4.243-16.249-4.243-11.112 2.122-16.25 4.243c-5.137 2.121-10.382 4.243-16.249 4.243s-11.112-2.122-16.25-4.243c-5.137-2.121-10.382-4.243-16.248-4.243s-11.112 2.122-16.25 4.243c-5.137 2.121-10.382 4.243-16.249 4.243s-11.112-2.122-16.25-4.243c-5.137-2.121-10.382-4.243-16.249-4.243s-11.111 2.122-16.249 4.243-10.382 4.243-16.25 4.243c-5.866 0-11.111-2.122-16.249-4.243s-10.382-4.243-16.249-4.243-11.111 2.122-16.249 4.243-10.383 4.243-16.25 4.243c-5.866 0-11.112-2.122-16.25-4.243-5.137-2.121-10.382-4.243-16.248-4.243s-11.112 2.122-16.25 4.243c-5.137 2.121-10.382 4.243-16.249 4.243s-11.112-2.122-16.25-4.243c-5.137-2.121-10.382-4.243-16.248-4.243s-11.112 2.122-16.25 4.243c-5.137 2.121-10.382 4.243-16.25 4.243v167.5c5.868 0 11.113-2.122 16.25-4.243s10.383-4.243 16.25-4.243c5.866 0 11.111 2.122 16.249 4.243s10.382 4.243 16.25 4.243c5.866 0 11.111-2.122 16.249-4.243s10.383-4.243 16.249-4.243 11.111 2.122 16.249 4.243 10.383 4.243 16.25 4.243c5.866 0 11.112-2.122 16.25-4.243 5.137-2.121 10.382-4.243 16.248-4.243s11.112 2.122 16.25 4.243c5.137 2.121 10.382 4.243 16.249 4.243s11.112-2.122 16.25-4.243c5.137-2.121 10.382-4.243 16.248-4.243s11.112 2.122 16.25 4.243c5.137 2.121 10.382 4.243 16.25 4.243 5.866 0 11.111-2.122 16.249-4.243s10.382-4.243 16.249-4.243 11.111 2.122 16.249 4.243 10.382 4.243 16.25 4.243c5.866 0 11.111-2.122 16.249-4.243s10.383-4.243 16.249-4.243 11.112 2.122 16.249 4.243 10.383 4.243 16.25 4.243 11.112-2.122 16.25-4.243c5.137-2.121 10.382-4.243 16.248-4.243s11.112 2.122 16.25 4.243c5.137 2.121 10.382 4.243 16.249 4.243s11.112-2.122 16.25-4.243c5.137-2.121 10.382-4.243 16.249-4.243s11.111 2.122 16.249 4.243 10.382 4.243 16.25 4.243c5.866 0 11.111-2.122 16.249-4.243s10.382-4.243 16.249-4.243 11.111 2.122 16.249 4.243 10.383 4.243 16.25 4.243c5.866 0 11.112-2.122 16.25-4.243 5.137-2.121 10.382-4.243 16.248-4.243s11.112 2.122 16.25 4.243c5.137 2.121 10.382 4.243 16.249 4.243z"/><path fill="#fff" d="M649.987 203.993c-5.867 0-11.112-2.122-16.25-4.243-5.137-2.121-10.383-4.243-16.249-4.243s-11.111 2.122-16.249 4.243-10.383 4.243-16.25 4.243c-5.866 0-11.112-2.122-16.25-4.243-5.137-2.121-10.382-4.243-16.248-4.243s-11.112 2.122-16.25 4.243c-5.137 2.121-10.382 4.243-16.249 4.243s-11.112-2.122-16.25-4.243c-5.137-2.121-10.382-4.243-16.248-4.243s-11.112 2.122-16.25 4.243c-5.137 2.121-10.382 4.243-16.25 4.243-5.866 0-11.111-2.122-16.249-4.243s-10.382-4.243-16.249-4.243-11.111 2.122-16.249 4.243-10.382 4.243-16.25 4.243c-5.866 0-11.112-2.122-16.249-4.243s-10.383-4.243-16.249-4.243-11.112 2.122-16.25 4.243c-5.137 2.121-10.382 4.243-16.249 4.243s-11.112-2.122-16.25-4.243c-5.137-2.121-10.382-4.243-16.248-4.243s-11.112 2.122-16.25 4.243c-5.137 2.121-10.382 4.243-16.249 4.243s-11.112-2.122-16.25-4.243c-5.137-2.121-10.382-4.243-16.249-4.243s-11.111 2.122-16.249 4.243-10.382 4.243-16.25 4.243c-5.866 0-11.111-2.122-16.249-4.243s-10.382-4.243-16.249-4.243-11.111 2.122-16.249 4.243-10.383 4.243-16.25 4.243c-5.866 0-11.112-2.122-16.25-4.243-5.137-2.121-10.382-4.243-16.248-4.243s-11.112 2.122-16.25 4.243c-5.137 2.121-10.382 4.243-16.249 4.243s-11.112-2.122-16.25-4.243c-5.137-2.121-10.382-4.243-16.248-4.243s-11.112 2.122-16.25 4.243c-5.137 2.121-10.382 4.243-16.25 4.243v33.5c5.868 0 11.113-2.122 16.25-4.243s10.383-4.243 16.25-4.243c5.866 0 11.111 2.122 16.249 4.243s10.382 4.243 16.25 4.243c5.866 0 11.111-2.122 16.249-4.243s10.383-4.243 16.249-4.243 11.111 2.122 16.249 4.243 10.383 4.243 16.25 4.243c5.866 0 11.112-2.122 16.25-4.243 5.137-2.121 10.382-4.243 16.248-4.243s11.112 2.122 16.25 4.243c5.137 2.121 10.382 4.243 16.249 4.243s11.112-2.122 16.25-4.243c5.137-2.121 10.382-4.243 16.248-4.243s11.112 2.122 16.25 4.243c5.137 2.121 10.382 4.243 16.25 4.243 5.866 0 11.111-2.122 16.249-4.243s10.382-4.243 16.249-4.243 11.111 2.122 16.249 4.243 10.382 4.243 16.25 4.243c5.866 0 11.111-2.122 16.249-4.243s10.383-4.243 16.249-4.243 11.112 2.122 16.249 4.243 10.383 4.243 16.25 4.243 11.112-2.122 16.25-4.243c5.137-2.121 10.382-4.243 16.248-4.243s11.112 2.122 16.25 4.243c5.137 2.121 10.382 4.243 16.249 4.243s11.112-2.122 16.25-4.243c5.137-2.121 10.382-4.243 16.249-4.243s11.111 2.122 16.249 4.243 10.382 4.243 16.25 4.243c5.866 0 11.111-2.122 16.249-4.243s10.382-4.243 16.249-4.243 11.111 2.122 16.249 4.243 10.383 4.243 16.25 4.243c5.866 0 11.112-2.122 16.25-4.243 5.137-2.121 10.382-4.243 16.248-4.243s11.112 2.122 16.25 4.243c5.137 2.121 10.382 4.243 16.249 4.243zm0 67c-5.867 0-11.112-2.122-16.25-4.243-5.137-2.121-10.383-4.243-16.249-4.243s-11.111 2.122-16.249 4.243-10.383 4.243-16.25 4.243c-5.866 0-11.112-2.122-16.25-4.243-5.137-2.121-10.382-4.243-16.248-4.243s-11.112 2.122-16.25 4.243c-5.137 2.121-10.382 4.243-16.249 4.243s-11.112-2.122-16.25-4.243c-5.137-2.121-10.382-4.243-16.248-4.243s-11.112 2.122-16.25 4.243c-5.137 2.121-10.382 4.243-16.25 4.243-5.866 0-11.111-2.122-16.249-4.243s-10.382-4.243-16.249-4.243-11.111 2.122-16.249 4.243-10.382 4.243-16.25 4.243c-5.866 0-11.112-2.122-16.249-4.243s-10.383-4.243-16.249-4.243-11.112 2.122-16.25 4.243c-5.137 2.121-10.382 4.243-16.249 4.243s-11.112-2.122-16.25-4.243c-5.137-2.121-10.382-4.243-16.248-4.243s-11.112 2.122-16.25 4.243c-5.137 2.121-10.382 4.243-16.249 4.243s-11.112-2.122-16.25-4.243c-5.137-2.121-10.382-4.243-16.249-4.243s-11.111 2.122-16.249 4.243-10.382 4.243-16.25 4.243c-5.866 0-11.111-2.122-16.249-4.243s-10.382-4.243-16.249-4.243-11.111 2.122-16.249 4.243-10.383 4.243-16.25 4.243c-5.866 0-11.112-2.122-16.25-4.243-5.137-2.121-10.382-4.243-16.248-4.243s-11.112 2.122-16.25 4.243c-5.137 2.121-10.382 4.243-16.249 4.243s-11.112-2.122-16.25-4.243c-5.137-2.121-10.382-4.243-16.248-4.243s-11.112 2.122-16.25 4.243c-5.137 2.121-10.382 4.243-16.25 4.243v33.5c5.868 0 11.113-2.122 16.25-4.243s10.383-4.243 16.25-4.243c5.866 0 11.111 2.122 16.249 4.243s10.382 4.243 16.25 4.243c5.866 0 11.111-2.122 16.249-4.243s10.383-4.243 16.249-4.243 11.111 2.122 16.249 4.243 10.383 4.243 16.25 4.243c5.866 0 11.112-2.122 16.25-4.243 5.137-2.121 10.382-4.243 16.248-4.243s11.112 2.122 16.25 4.243c5.137 2.121 10.382 4.243 16.249 4.243s11.112-2.122 16.25-4.243c5.137-2.121 10.382-4.243 16.248-4.243s11.112 2.122 16.25 4.243c5.137 2.121 10.382 4.243 16.25 4.243 5.866 0 11.111-2.122 16.249-4.243s10.382-4.243 16.249-4.243 11.111 2.122 16.249 4.243 10.382 4.243 16.25 4.243c5.866 0 11.111-2.122 16.249-4.243s10.383-4.243 16.249-4.243 11.112 2.122 16.249 4.243 10.383 4.243 16.25 4.243 11.112-2.122 16.25-4.243c5.137-2.121 10.382-4.243 16.248-4.243s11.112 2.122 16.25 4.243c5.137 2.121 10.382 4.243 16.249 4.243s11.112-2.122 16.25-4.243c5.137-2.121 10.382-4.243 16.249-4.243s11.111 2.122 16.249 4.243 10.382 4.243 16.25 4.243c5.866 0 11.111-2.122 16.249-4.243s10.382-4.243 16.249-4.243 11.111 2.122 16.249 4.243 10.383 4.243 16.25 4.243c5.866 0 11.112-2.122 16.25-4.243 5.137-2.121 10.382-4.243 16.248-4.243s11.112 2.122 16.25 4.243c5.137 2.121 10.382 4.243 16.249 4.243z"/></g><path fill="#002673" d="M442 250a117 117 0 1 1-234 0 117 117 0 1 1 234 0"/><path fill="#c70f2e" d="M407 250a82 82 0 1 1-164 0 82 82 0 1 1 164 0"/><g stroke="#002673" stroke-linecap="round" stroke-linejoin="round"><path fill="#fff" fill-rule="evenodd" stroke-width="2" d="M325.007 198.223c-.253.006-.365.262-.325.494.022.135.057.331.176.35.02.056.016.144-.04.166a1.4 1.4 0 0 0-.556.37c-.118.13-.15.49-.237.667-.09-.065-.172-.155-.25-.213-.145-.373-.223-.344-.305-.295-.1.059-.145.214.142.453.058.168.084.226.196.413.147.244.314.054.4-.035.167-.174.168-.315.29-.529.085.27.089.517.021.776-.123.476-.02.963.02 1.491.01.19.007.379-.094.591-.137.287-.146.614-.109.962-.682.19-1.098.702-1.103 1.498-1.42.746-2.008 1.92-2.039 3.023l-.068.048c.02-.411-.301-.677-.724-.68.16.24.318.483.318.845v1.106c-.535.207-.954.458-1.158.756-.2.292-.089.68.176.817l.44 1.031q.074.067.15.124v4.795h.026l-.23.488q-.213.114-.413.248h-.826v1.14c-.793.343-1.407.78-1.693 1.32v1.408a27.4 27.4 0 0 0-5.08 2.342c-.344-.278-1.005-.05-1.13.701q-1.026.681-2.005 1.47l-1.219-.048-.013 1.168c-4.361 4.037-7.81 9.94-8.479 17.809l-.575 1.49c-.932.304-1.063 1.504-.61 2.234.382.614.043 1.007-.088 1.34l.542.432v2.22l-2.343 1.16v1.045l.325.275v.268l.284.336v.097h-3.284v1.058l.278.26v.33l.29.317v2.24l-.135.068v.433l.23.103c.017.167.113.28.21.35l.02 14.552c-.203.145-.461.224-.412.694l-.258.096v.103a10 10 0 0 0-.4.303c-1.74 1.395-1.502 2.409-.737 3.827v4.569c-1.084.937-2.346 1.604-3.027 3.153v2.652h70.848v-2.652c-.68-1.55-1.936-2.216-3.02-3.153v-4.57c.765-1.417 1.004-2.431-.738-3.826q-.189-.149-.4-.296v-.11l-.264-.096c.049-.47-.21-.549-.413-.694l.02-14.552a.5.5 0 0 0 .21-.35l.237-.103v-.433l-.135-.069v-2.24l.291-.315v-.33l.271-.261v-1.058H353.2v-.097l.29-.336v-.268l.326-.275v-1.044l-2.343-1.161v-2.22l.542-.432c-.131-.333-.47-.726-.088-1.34.453-.73.322-1.93-.61-2.233l-.582-1.491c-.67-7.869-4.118-13.772-8.479-17.809l-.013-1.168-1.213.049a27 27 0 0 0-2.01-1.47c-.126-.752-.78-.98-1.125-.702a27.3 27.3 0 0 0-5.08-2.342v-1.409c-.285-.54-.9-.976-1.692-1.319v-1.14h-.826a5 5 0 0 0-.413-.248l-.23-.488h.02v-4.788a2 2 0 0 0 .155-.131l.44-1.03c.266-.137.37-.526.17-.818-.204-.298-.623-.55-1.158-.756v-1.106c0-.362.158-.605.318-.845-.423.003-.745.269-.724.68l-.061-.041c-.029-1.106-.616-2.283-2.039-3.03-.005-.84-.468-1.361-1.219-1.525.034-.338.018-.656-.115-.935-.112-.223-.098-.466-.088-.707.268.067.534.093.67-.365.142-.476.106-.898-.115-1.113a2 2 0 0 0 .217-.22c.163-.197.204-.38 0-.625-.318-.38-.616-.5-.914-.632-.09-.04-.063-.127-.047-.185.112-.089.153-.211.19-.412.052-.296-.156-.445-.346-.44zm.494 1.717a.9.9 0 0 1 .42.316c-.086.154-.217.199-.372.323a1 1 0 0 1-.048-.639m3.352 12.903v4.02c-.14-.045-.281-.091-.426-.13v-3.8q.221-.037.426-.09m-7.7.007c.135.035.275.058.42.083v3.806q-.213.058-.42.124z"/><g stroke-width="1.833"><path fill="#fff" fill-rule="evenodd" d="M378.594 349.688c-1.168.027-1.682 1.194-1.5 2.25.105.61.262 1.505.812 1.593.092.25.074.65-.187.75-1.023.39-1.814.881-2.563 1.688-.546.588-.69 2.223-1.094 3.031-.413-.296-.794-.704-1.156-.969-.666-1.7-1.024-1.566-1.406-1.344-.458.268-.665.976.656 2.063.268.763.39 1.029.906 1.875.68 1.11 1.448.25 1.844-.156.774-.791.776-1.434 1.344-2.406.386 1.224.405 2.35.094 3.53-.57 2.163-.098 4.378.094 6.782.04.86.028 1.722-.438 2.688-.647 1.34-.687 2.869-.5 4.5h5.594c.187-1.631.147-3.16-.5-4.5-.519-1.018-.455-2.12-.406-3.22 1.238.307 2.464.427 3.093-1.656.655-2.166.485-4.084-.531-5.062a9 9 0 0 0 1-1c.75-.9.942-1.734 0-2.844-1.47-1.73-2.843-2.276-4.219-2.875-.413-.18-.288-.577-.219-.844.52-.403.709-.96.875-1.875.246-1.346-.717-2.02-1.593-2zm2.281 7.812c.695.279 1.395.663 1.938 1.438-.397.7-1.003.902-1.72 1.468a4.54 4.54 0 0 1-.218-2.906" transform="matrix(.2167 0 0 .21986 242.962 121.341)"/><path fill="#fff" fill-rule="evenodd" d="M361.018 397.55c-.426-5.444 2.14-11.566 9.375-15.313.032-4.686 3.237-7.187 8.178-7.187s8.147 2.501 8.179 7.187c7.236 3.747 9.8 9.87 9.375 15.313z" transform="matrix(.2167 0 0 .21986 242.962 121.341)"/><path fill="#fff" fill-rule="evenodd" d="M397.438 403.05v-6.125c-5.418-4.212-12.132-5.125-18.867-5.125-6.734 0-13.448.913-18.866 5.125v6.125H397.5" transform="matrix(.2167 0 0 .21986 242.962 121.341)"/><path fill="#fff" fill-rule="evenodd" d="M360.694 402.954v-6.524c.23-2-1.31-3.286-3.34-3.3.738 1.09 1.466 2.19 1.466 3.837v6.448zm14.338-2.707v-8.116c0-1.856-2.125-2.673-4.236-3.3.498 1.245.488 2.19.488 3.838v8.038zm-8.228.686v-7.497c0-1.856-2.409-2.75-4.318-3.3.8 1.168 1.363 2.19 1.363 3.838v7.42l2.955-.46zm15.307-.686v-8.116c0-1.856 2.125-2.673 4.236-3.3-.498 1.245-.489 2.19-.489 3.838v8.038zm8.228.686v-7.497c0-1.856 2.409-2.75 4.318-3.3-.8 1.168-1.363 2.19-1.363 3.838v7.42l-2.955-.46zm6.11 2.021v-6.524c-.23-2 1.31-3.286 3.34-3.3-.738 1.09-1.467 2.19-1.467 3.837v6.448z" transform="matrix(.2167 0 0 .21986 242.962 121.341)"/><path fill="#fff" fill-rule="evenodd" d="M364.964 434.793v-17.855c-3.454-.481-6.273-.842-8.662-3.093l-2.033-4.685c-1.223-.623-1.717-2.382-.796-3.712 3.062-4.418 16.644-6.63 25.098-6.63s22.037 2.212 25.099 6.63c.921 1.33.427 3.09-.796 3.712l-2.033 4.685c-2.39 2.251-5.208 2.612-8.662 3.093v17.855z" transform="matrix(.2167 0 0 .21986 242.962 121.341)"/><path fill="#fff" fill-rule="evenodd" d="M357.009 436.207v-24.395c1.394-1.142 2.642-.977 3.8 0v24.307z" transform="matrix(.2167 0 0 .21986 242.962 121.341)"/><path fill="none" d="M363.422 414.817c-2.954-2.949 9.1-4.861 15.15-4.861 6.049 0 18.103 1.912 15.149 4.861" transform="matrix(.2167 0 0 .21986 242.962 121.341)"/><path fill="#fff" fill-rule="evenodd" d="M362.754 434.35v-24.394c1.394-1.142 2.642-.977 3.8 0v24.306zm37.38 1.857v-24.395c-1.394-1.142-2.642-.977-3.8 0v24.307zm-5.745-1.857v-24.394c-1.394-1.142-2.643-.977-3.8 0v24.306zm-8.22-1.325V408.63c-1.394-1.142-2.643-.977-3.801 0v24.307zm-15.195 0V408.63c1.394-1.142 2.642-.977 3.8 0v24.307z" transform="matrix(.2167 0 0 .21986 242.962 121.341)"/><path fill="#fff" fill-rule="evenodd" d="m355.683 439.212 1.68-3.535c5.864-2.341 12.094-3.624 21.208-3.624 9.115 0 15.345 1.283 21.21 3.624l1.679 3.535z" transform="matrix(.2167 0 0 .21986 242.962 121.341)"/><path fill="#fff" fill-rule="evenodd" d="M350.33 447.487v-7.937h3.813c6.334-4.188 15.003-5.188 24.428-5.188s18.095 1 24.429 5.188h3.813v7.937z" transform="matrix(.2167 0 0 .21986 242.962 121.341)"/><path fill="#fff" d="M373.518 435.175h10.107v5.25h-10.107z" transform="matrix(.2167 0 0 .21986 242.962 121.341)"/><path fill="#fff" d="M375.518 436.988h6.107v2.312h-6.107z" transform="matrix(.2167 0 0 .21986 242.962 121.341)"/><path fill="#fff" fill-rule="evenodd" d="M342.518 458.487v-7.75c4.156-7.732 23.287-10.75 36.053-10.75 12.767 0 31.898 3.018 36.054 10.75v7.75z" transform="matrix(.2167 0 0 .21986 242.962 121.341)"/><path fill="none" d="M342.518 458.112c4.156-7.732 23.287-10.75 36.053-10.75 12.767 0 31.898 3.018 36.054 10.75" transform="matrix(.2167 0 0 .21986 242.962 121.341)"/><path fill="#fff" fill-rule="evenodd" d="M500.714 657.72v-68.93l2.5-1.964c-.604-1.512-2.163-3.32-.401-6.116 2.092-3.32 1.486-8.752-2.813-10.134l-2.679-6.785c-3.088-35.79-19-62.661-39.125-81.022l-.057-5.31-5.62.216c-22.983-18.235-50.838-26.741-73.948-26.741s-50.964 8.506-73.946 26.741l-5.621-.217-.058 5.31c-20.125 18.362-36.036 45.233-39.125 81.023l-2.678 6.785c-4.3 1.382-4.905 6.814-2.813 10.134 1.762 2.795.203 4.604-.401 6.116l2.5 1.965v68.929z" transform="matrix(.2167 0 0 .21986 242.962 121.341)"/><path fill="#fff" fill-rule="evenodd" d="m234.342 712.69-.041-6.084 1.208-.458c-.224-2.14.96-2.486 1.9-3.144l-.083-66.185c-.45-.32-.9-.827-.976-1.588l-1.077-.478v-1.974l.623-.316v-10.186l-1.342-1.421v-1.5l-1.264-1.185v-4.817h15.317c22.515-21.028 88.565-27.666 129.964-27.666s107.45 6.638 129.965 27.666h15.316v4.817l-1.263 1.184v1.5l-1.342 1.422v10.186l.623.316v1.974l-1.077.478c-.076.761-.526 1.268-.976 1.588l-.084 66.185c.94.658 2.125 1.004 1.9 3.144l1.209.458-.042 6.084z" transform="matrix(.2167 0 0 .21986 242.962 121.341)"/><path fill="#fff" fill-rule="evenodd" d="M422.11 671.952V634.71c0-5.862 5.146-7.975 8.433-7.566 3.147.392 8.432 3.803 8.432 9.665v37.241z" transform="matrix(.2167 0 0 .21986 242.962 121.341)"/><path fill="none" d="M261.333 623.81c25.5-13.835 77.441-18.621 117.238-18.621 39.798 0 91.74 4.786 117.239 18.62" transform="matrix(.2167 0 0 .21986 242.962 121.341)"/><path fill="none" d="M264.112 607.412c37.103-15.382 90.52-16.953 114.46-16.953 23.938 0 77.356 1.571 114.459 16.953m-236.355-23.07c0-20.424 54.569-37 121.806-37s121.805 16.576 121.805 37m-102.283-49.375v-4.822c0-4.892 10.337-5.384 10.337 0v5.179m36.585 5.292v-4.891c0-4.964 7.522-4.671 7.522.79v5.254m26.564 9.213v-4.86c0-4.931 4.655-4.099 4.655 1.329v5.22" transform="matrix(.2167 0 0 .21986 242.962 121.341)"/><path fill="none" d="M256.676 587.842c0-20.424 54.569-37 121.806-37s121.805 16.576 121.805 37m-91.933-52.583c0-43.853-6.03-56.46-10.354-73.962 7.503 15.134 13.97 44.163 14.269 70.079zM398 534.912c-.157-26.612-2.204-51.587-7.071-73.49 2.27 23.057 3.389 46.311 2.652 69.701zm46.964 5.867c-.157-26.995-4.704-56.496-24.75-73.642 16.2 18.135 21.068 46.072 20.331 69.8l4.42 3.842zm7.536 1.037c.09-30.356-4.865-45.067-15.714-62.857m42.286 72.138c-.158-27.327-10.24-48.94-27.25-65.746 12.805 18.542 23.567 37.837 22.83 61.856zm4.678 1.783c.403-21.188-5.66-39.97-16.964-54.278m-48.661-3.472c-.795-3.125 4.954-5.707 7.321-.357 2.114 4.775 2.915 10.314 3.929 15.893 1.004 5.525-6.97 6.958-7.857 1.339-.854-5.403-2.078-11.701-3.393-16.875" transform="matrix(.2167 0 0 .21986 242.962 121.341)"/><path fill="none" d="M454.136 502.184c-1.1-3.12 2.422-5.707 4.969-.358 2.273 4.775 3.776 10.315 5.432 15.893 1.64 5.526-3.967 7.019-5.168 1.34-1.113-5.266-3.405-11.69-5.233-16.875m-75.565 10.267c-2.308 0-5.037-1.89-4.91-5.178l.535-13.929c.13-3.386 2.086-4.821 4.375-4.821s4.245 1.435 4.375 4.821l.536 13.929c.127 3.289-2.602 5.178-4.91 5.178zm-39.553-17.321c.794-3.125-4.954-5.707-7.322-.357-2.113 4.775-2.914 10.314-3.928 15.893-1.004 5.525 6.97 6.958 7.857 1.339.854-5.403 2.077-11.701 3.393-16.875m-36.011 7.054c1.1-3.12-2.422-5.707-4.969-.358-2.273 4.775-3.776 10.315-5.432 15.893-1.64 5.526 3.967 7.019 5.168 1.34 1.113-5.266 3.405-11.69 5.233-16.875" transform="matrix(.2167 0 0 .21986 242.962 121.341)"/><path fill="none" stroke-width="1.697" d="M256.143 565.362c0-17.112 54.848-31 122.428-31 67.581 0 122.429 13.888 122.429 31" transform="matrix(.2116 0 0 .26241 244.893 98.657)"/><path fill="none" stroke-width="1.693" d="M256.143 565.362c0-17.112 54.848-31 122.428-31 67.581 0 122.429 13.888 122.429 31" transform="matrix(.21273 0 0 .26241 244.505 99.592)"/><path fill="none" stroke-width="1.682" d="M256.143 565.362c0-17.112 54.848-31 122.428-31 67.581 0 122.429 13.888 122.429 31" transform="matrix(.2156 0 0 .26241 243.36 100.796)"/><path fill="none" d="M249.174 613.612c0-20.424 57.97-37 129.397-37 71.428 0 129.398 16.576 129.398 37" transform="matrix(.2167 0 0 .21986 242.962 121.341)"/><path fill="#fff" fill-rule="evenodd" d="M394.102 576.854v-27.598l-2.365-4.596 12.82.5 12.106 1.101-2.911 4.232v27.4l-9.494-.617z" transform="matrix(.2167 0 0 .21986 242.962 121.341)"/><path fill="none" d="M409.613 572.133v-19.976l-11.137-.707v19.976zm-14.363-24.771 8.75.3 8.813.825" transform="matrix(.2167 0 0 .21986 242.962 121.341)"/><path fill="#fff" fill-rule="evenodd" d="M441.202 580.883v-26.494l-1.912-5.002 10.364 2.02 9.789 2.156-2.354 3.799v26.678l-7.676-1.83-8.21-1.327z" transform="matrix(.2167 0 0 .21986 242.962 121.341)"/><path fill="none" d="M453.743 577.76v-19.177l-9.004-1.69v19.176zm-11.613-25.084 7.075 1.083 7.125 1.592" transform="matrix(.2167 0 0 .21986 242.962 121.341)"/><path fill="#fff" fill-rule="evenodd" d="M476.157 588.966v-25.698l-1.367-4.386 7.407 3.122 6.996 3.806-1.682 2.126v24.99l-5.486-2.1z" transform="matrix(.2167 0 0 .21986 242.962 121.341)"/><path fill="none" d="M485.12 587.064V568.72l-6.436-2.65v18.344zm-8.3-25.329 5.233 2.29 4.915 2.518m-119.618 3.223v-13.893c1.527 6.88 4.7 12.818 11.221 12.818 6.61 0 9.695-5.937 11.222-12.818v13.893m-23.15 1.852H390.5m-23.857-17.413H390.5m-18.907 1.768c1.02 6.663 3.157 8.75 6.978 8.75 3.844 0 5.997-3.755 6.979-8.75m30.476 15.901v-13.893c1.367 7.02 4.207 13.245 10.045 13.835 5.918.599 8.679-4.264 10.046-11.007v13.893m-20.724-1.04 10.829 1.308 10.528 1.649m-21.357-20.369 11.545 1.168 9.812 1.788m-16.926-.74c.913 6.755 2.826 9.037 6.247 9.383 3.442.348 5.369-2.418 6.248-7.323m25.548 4.056c1.023 7.124 3.148 13.568 7.517 14.61 4.428 1.054 6.494-3.596 7.517-10.233v13.893m-15.508-2.638 8.103 2.143 7.879 2.46m-15.982-22.015 8.64 2.058 7.342 2.545m-10.443 3.894c.811 2.446 1.347 3.542 2.952 3.925 2.575.613 3.517-2.004 4.175-6.841m18.31 8.961c.486 5.754 1.498 11.057 3.577 12.247 2.108 1.207 3.091-1.747 3.578-6.942v9.285m-7.38-2.192L492 591.5l3.75 2.081m-7.607-17.692 4.112 2.354 3.495 3.208m-3.804 4.984c1.226.701 1.912-1.261 2.225-5.055" transform="matrix(.2167 0 0 .21986 242.962 121.341)"/><path fill="#fff" fill-rule="evenodd" d="M437.08 470.148v4.685l6.276 2.298v-4.95c0-5.812-6.276-6.393-6.276-2.033" transform="matrix(.2167 0 0 .21986 242.962 121.341)"/><path fill="#fff" fill-rule="evenodd" d="M438.937 472.18v3.368l2.519.92v-3.559c0-4.177-2.52-3.863-2.52-.728z" transform="matrix(.2167 0 0 .21986 242.962 121.341)"/><path fill="none" d="m455.302 480.224 2.859 2.52" transform="matrix(.2167 0 0 .21986 242.962 121.341)"/><path fill="#fff" fill-rule="evenodd" d="M409.33 464.33v4.685l7.276 1.309v-4.95c0-5.812-7.276-5.404-7.276-1.044" transform="matrix(.2167 0 0 .21986 242.962 121.341)"/><path fill="#fff" fill-rule="evenodd" d="M411.482 466.07v3.368l2.92.522v-3.558c0-4.178-2.92-3.466-2.92-.332m-37.236.379v-4.95c0-2.906 2.163-4.336 4.325-4.336s4.326 1.43 4.326 4.336v4.95h-8.65z" transform="matrix(.2167 0 0 .21986 242.962 121.341)"/><path fill="none" d="M388.25 440.55v5.187l4.304.49 4.384.885v-5.25m3.75.813v5.125l3.005 1.173 2.932 1.14v-5.438m2.688 1.625v4.875l1.92 1.213 1.83 1.35m-39.108-13.626v5.188l4.616-.188 4.616.188v-5.188m-14.294.438v5.187l-4.304.49-4.384.885v-5.25m-3.75.813v5.125l-3.005 1.173-2.932 1.14v-5.438m84.294 26.288c.852 1.143 1.594 2.22 2.263 3.859m1.019-7.241-3.25 1" transform="matrix(.2167 0 0 .21986 242.962 121.341)"/><path fill="#fff" fill-rule="evenodd" d="M376.621 466.449v-3.584c0-2.104.975-3.14 1.95-3.14.976 0 1.95 1.036 1.95 3.14v3.584zm-56.559 3.699v4.685l-6.275 2.298v-4.95c0-5.812 6.275-6.393 6.275-2.033" transform="matrix(.2167 0 0 .21986 242.962 121.341)"/><path fill="#fff" fill-rule="evenodd" d="M318.206 472.18v3.368l-2.519.92v-3.559c0-4.177 2.52-3.863 2.52-.728z" transform="matrix(.2167 0 0 .21986 242.962 121.341)"/><path fill="none" d="m301.84 480.224-2.858 2.52" transform="matrix(.2167 0 0 .21986 242.962 121.341)"/><path fill="#fff" fill-rule="evenodd" d="M347.812 464.33v4.685l-7.275 1.309v-4.95c0-5.812 7.275-5.404 7.275-1.044" transform="matrix(.2167 0 0 .21986 242.962 121.341)"/><path fill="#fff" fill-rule="evenodd" d="M345.66 466.07v3.368l-2.92.522v-3.558c0-4.178 2.92-3.466 2.92-.332" transform="matrix(.2167 0 0 .21986 242.962 121.341)"/><path fill="none" d="M322.33 470.963c-.851 1.143-1.593 2.22-2.262 3.859m-1.019-7.241 3.25 1m36.84 66.386v-4.822c0-4.892-10.337-5.384-10.337 0v5.179m-36.585 5.292v-4.891c0-4.964-7.522-4.671-7.522.79v5.254m-26.565 9.213v-4.86c0-4.931-4.654-4.099-4.654 1.329v5.22" transform="matrix(.2167 0 0 .21986 242.962 121.341)"/><path fill="none" d="M348.789 535.259c0-43.853 6.03-56.46 10.354-73.962-7.504 15.134-13.97 44.163-14.269 70.079zm10.354-.347c.157-26.612 2.204-51.587 7.07-73.49-2.269 23.057-3.388 46.311-2.65 69.701zm-46.965 5.867c.158-26.995 4.705-56.496 24.75-73.642-16.198 18.135-21.067 46.072-20.33 69.8zm-7.535 1.037c-.09-30.356 4.865-45.067 15.714-62.857m-42.286 72.138c.158-27.327 10.24-48.94 27.25-65.746-12.806 18.542-23.568 37.837-22.83 61.856zm-4.678 1.783c-.403-21.188 5.66-39.97 16.964-54.278" transform="matrix(.2167 0 0 .21986 242.962 121.341)"/><path fill="#fff" fill-rule="evenodd" d="M363.04 576.854v-27.598l2.366-4.596-12.82.5-12.106 1.101 2.911 4.232v27.4l9.494-.617z" transform="matrix(.2167 0 0 .21986 242.962 121.341)"/><path fill="none" d="M347.53 572.133v-19.976l11.137-.707v19.976zm14.363-24.771-8.751.3-8.812.825" transform="matrix(.2167 0 0 .21986 242.962 121.341)"/><path fill="#fff" fill-rule="evenodd" d="M315.94 580.883v-26.494l1.913-5.002-10.365 2.02-9.788 2.156 2.354 3.799v26.678l7.676-1.83z" transform="matrix(.2167 0 0 .21986 242.962 121.341)"/><path fill="none" d="M303.4 577.76v-19.177l9.004-1.69v19.176zm11.613-25.084-7.076 1.083-7.124 1.592" transform="matrix(.2167 0 0 .21986 242.962 121.341)"/><path fill="#fff" fill-rule="evenodd" d="M280.986 588.966v-25.698l1.367-4.386-7.407 3.122-6.996 3.806 1.682 2.126v24.99l5.486-2.1z" transform="matrix(.2167 0 0 .21986 242.962 121.341)"/><path fill="none" d="M272.024 587.064V568.72l6.435-2.65v18.344zm8.299-25.329-5.233 2.29-4.915 2.518m70.942 5.331v-13.893c-1.367 7.02-4.207 13.245-10.046 13.835-5.917.599-8.678-4.264-10.045-11.007v13.893m20.724-1.04-10.829 1.308-10.528 1.649m21.357-20.369-11.545 1.168-9.812 1.788m16.926-.74c-.913 6.755-2.826 9.037-6.248 9.383-3.44.348-5.368-2.418-6.247-7.323m-25.548 4.056c-1.023 7.124-3.148 13.568-7.517 14.61-4.428 1.054-6.494-3.596-7.517-10.233v13.893m15.508-2.638-8.104 2.143-7.878 2.46m15.982-22.015-8.64 2.058-7.342 2.545m10.443 3.894c-.811 2.446-1.347 3.542-2.952 3.925-2.575.613-3.517-2.004-4.175-6.841m-18.31 8.961c-.487 5.754-1.498 11.057-3.578 12.247-2.107 1.207-3.09-1.747-3.577-6.942v9.285m7.38-2.192-3.856 1.758-3.75 2.081M269 575.889l-4.112 2.354-3.495 3.208m3.803 4.984c-1.225.701-1.912-1.261-2.225-5.055" transform="matrix(.2167 0 0 .21986 242.962 121.341)"/><path fill="#fff" fill-rule="evenodd" d="M446.803 611.943v-12.13l-.884-1.237v-1.502l-1.68-1.238-.043-4.675 8.342-4.282 21.577 4.98v4.773l-1.503 1.237v1.238l-1.325 1.502v11.933l-17.682-3.322z" transform="matrix(.2167 0 0 .21986 242.962 121.341)"/><path fill="#fff" fill-rule="evenodd" d="m464.688 616.175-7.375-1v-2.125l7.812-3.25 6.875 1.312v2.125z" transform="matrix(.2167 0 0 .21986 242.962 121.341)"/><path fill="none" d="M452.239 588.28v3.756l.751.707v2.342l.663 1.503v10.916" transform="matrix(.2167 0 0 .21986 242.962 121.341)"/><path fill="none" d="m444.77 595.88 7.38-3.889 20.95 4.509" transform="matrix(.2167 0 0 .21986 242.962 121.341)"/><path fill="none" d="m446.438 598.3 6.375-3.188 18.75 3.813" transform="matrix(.2167 0 0 .21986 242.962 121.341)"/><path fill="#fff" fill-rule="evenodd" d="m453.313 614.112-7.375-1v-2.125l7.812-3.25 6.875 1.313v2.125z" transform="matrix(.2167 0 0 .21986 242.962 121.341)"/><path fill="#fff" fill-rule="evenodd" d="M453.531 610.281c-2.94 0-5.312 1.122-5.312 2.5 0 .584.439 1.106 1.156 1.532v66.28c-1.035.564-1.687 1.319-1.688 2.157 0 1.732 2.72 3.156 6.063 3.156s6.031-1.424 6.031-3.156c0-.903-.726-1.709-1.906-2.281v-66.25c.627-.41 1-.895 1-1.438 0-1.378-2.404-2.5-5.344-2.5" transform="matrix(.2167 0 0 .21986 242.962 121.341)"/><path fill="none" d="M450.5 612.612c1.765-.37 3.51-.765 6.25 0m-6.25 67.75c1.765-.37 3.51-.765 6.25 0" transform="matrix(.2167 0 0 .21986 242.962 121.341)"/><path fill="#fff" fill-rule="evenodd" d="M469.634 679.45v-37.242c0-5.862 3.959-7.802 6.487-7.282 2.422.498 6.488 4.087 6.488 9.949v37.241l-12.975-2.667z" transform="matrix(.2167 0 0 .21986 242.962 121.341)"/><path fill="#fff" fill-rule="evenodd" d="M465.156 611.906c-2.94 0-5.312 1.122-5.312 2.5 0 .584.439 1.106 1.156 1.532v66.28c-1.035.564-1.687 1.319-1.688 2.157 0 1.732 2.72 3.156 6.063 3.156s6.031-1.424 6.031-3.156c0-.903-.726-1.709-1.906-2.281v-66.25c.627-.41 1-.895 1-1.438 0-1.378-2.404-2.5-5.344-2.5" transform="matrix(.2167 0 0 .21986 242.962 121.341)"/><path fill="none" d="M462.125 614.237c1.765-.37 3.51-.765 6.25 0m-6.25 67.75c1.765-.37 3.51-.765 6.25 0" transform="matrix(.2167 0 0 .21986 242.962 121.341)"/><path fill="#f9f9f9" fill-rule="evenodd" d="M476.325 692.68v-6.977l-22.893-4.042-9.546 2.652v5.657z" transform="matrix(.2167 0 0 .21986 242.962 121.341)"/><path fill="none" d="M453.344 683.518v5.48m-5.227-84.069 5.491-2.569 16.01 3.282" transform="matrix(.2167 0 0 .21986 242.962 121.341)"/><path fill="#fff" fill-rule="evenodd" d="M489.907 621.546v-12.129l-.884-1.237v-1.503l-1.68-1.237-.044-4.676 10.8-3.165 13.425 6.543v4.773l-1.503 1.238v1.237l-1.326 1.503v11.932l-11.987-4.885z" transform="matrix(.2167 0 0 .21986 242.962 121.341)"/><path fill="none" d="m488.544 605.892 8.96-2.72 13.003 6.543" transform="matrix(.2167 0 0 .21986 242.962 121.341)"/><path fill="none" d="m489.837 608.5 7.51-2.02 11.97 5.486m-18.178 3.353 6.155-1.613 10.515 4.758m-10.664.738v-20.211" transform="matrix(.2167 0 0 .21986 242.962 121.341)"/><path fill="#fff" fill-rule="evenodd" d="m501.888 627.736-6.37-1.838v-2.125l8.427-2.747 5.423 2.373v2.125z" transform="matrix(.2167 0 0 .21986 242.962 121.341)"/><path fill="#fff" fill-rule="evenodd" d="m495.3 625.111-6.37-1.837v-2.125l8.426-2.748 5.424 2.374v2.125z" transform="matrix(.2167 0 0 .21986 242.962 121.341)"/><path fill="#fff" fill-rule="evenodd" d="M502.9 623.52c-2.94 0-5.313 1.121-5.313 2.5 0 .584.44 1.106 1.157 1.531v66.281c-1.035.563-1.688 1.318-1.688 2.156 0 1.733 2.72 3.157 6.063 3.157s6.031-1.424 6.031-3.157c0-.903-.726-1.708-1.906-2.28v-66.25c.627-.41 1-.896 1-1.438 0-1.379-2.404-2.5-5.344-2.5" transform="matrix(.2167 0 0 .21986 242.962 121.341)"/><path fill="none" d="M499.534 693.712c1.765-.37 3.51-.765 6.25 0m-5.804-67.862c1.766-.37 3.51-.765 6.25 0" transform="matrix(.2167 0 0 .21986 242.962 121.341)"/><path fill="#fff" fill-rule="evenodd" d="M496.2 620.84c-2.94 0-5.313 1.121-5.313 2.5 0 .584.44 1.106 1.157 1.53v66.282c-1.035.563-1.688 1.318-1.688 2.156 0 1.732 2.72 3.157 6.063 3.157s6.03-1.425 6.03-3.157c0-.903-.726-1.708-1.905-2.28v-66.25c.627-.41 1-.896 1-1.438 0-1.379-2.404-2.5-5.344-2.5" transform="matrix(.2167 0 0 .21986 242.962 121.341)"/><path fill="none" d="M493.157 623.332c1.766-.37 3.51-.765 6.25 0m-6.238 67.7c1.765-.37 3.51-.765 6.25 0" transform="matrix(.2167 0 0 .21986 242.962 121.341)"/><path fill="#fff" fill-rule="evenodd" d="m510.272 703.689.112-7.555-14.853-4.885-6.866 1.423v6.662z" transform="matrix(.2167 0 0 .21986 242.962 121.341)"/><path fill="none" d="M495.554 692.256v5.48m26.064-77.895H510.54m9.428 3.772h-8.957m8.957 6.01h-9.31m8.956 4.479h-9.31m8.839 2.357h-7.307m.354 3.064v57.984M268.774 577.344c-.487 5.754-1.498 11.057-3.578 12.247-2.107 1.207-3.09-1.747-3.577-6.942v9.285m7.38-2.192-3.856 1.758-3.75 2.081M269 575.889l-4.112 2.354-3.495 3.208m3.803 4.984c-1.225.701-1.912-1.261-2.225-5.055" transform="matrix(.2167 0 0 .21986 242.962 121.341)"/><path fill="#fff" fill-rule="evenodd" d="M393.442 606.662v-12.129l-.883-1.237v-1.503l-1.68-1.237-.044-4.676 5.98-3.865 23.94 2.479v4.773l-1.503 1.237v1.238l-1.326 1.502v11.933l-17.682-1.238z" transform="matrix(.2167 0 0 .21986 242.962 121.341)"/><path fill="none" d="M396.724 583.068v4.799l.752.707v2.342l.663 1.503v9.874" transform="matrix(.2167 0 0 .21986 242.962 121.341)"/><path fill="none" d="m391.41 590.6 5.226-2.916 22.893 2.006m-26.452 3.33 4.499-2.007 19.862 1.728" transform="matrix(.2167 0 0 .21986 242.962 121.341)"/><path fill="#fff" fill-rule="evenodd" d="m413.153 608.067-8.14-.096v-2.403l5.381-2.417 8.335.688.069 2.333z" transform="matrix(.2167 0 0 .21986 242.962 121.341)"/><path fill="#fff" fill-rule="evenodd" d="m400.925 607.303-8.14-.097v-2.403l5.38-2.416 8.335.687.07 2.334z" transform="matrix(.2167 0 0 .21986 242.962 121.341)"/><path fill="#fff" fill-rule="evenodd" d="M400.032 604.723c-2.94 0-5.313 1.122-5.313 2.5 0 .584.439 1.106 1.156 1.531v66.281c-1.035.563-1.687 1.318-1.687 2.157 0 1.732 2.72 3.156 6.062 3.156s6.032-1.424 6.032-3.156c0-.904-.727-1.709-1.907-2.282v-66.25c.628-.41 1-.895 1-1.437 0-1.378-2.404-2.5-5.343-2.5" transform="matrix(.2167 0 0 .21986 242.962 121.341)"/><path fill="none" d="M397 607.332c1.766-.371 3.51-.766 6.25 0m-6.209 67.048c1.766-.37 3.51-.766 6.25 0" transform="matrix(.2167 0 0 .21986 242.962 121.341)"/><path fill="#fff" fill-rule="evenodd" d="M412.42 605.097c-2.939 0-5.312 1.122-5.312 2.5 0 .584.44 1.106 1.157 1.531v66.282c-1.035.563-1.688 1.317-1.688 2.156 0 1.732 2.72 3.156 6.063 3.156s6.03-1.424 6.03-3.156c0-.903-.726-1.709-1.905-2.281v-66.25c.627-.41 1-.895 1-1.438 0-1.378-2.404-2.5-5.344-2.5z" transform="matrix(.2167 0 0 .21986 242.962 121.341)"/><path fill="none" d="M409.39 607.706c1.765-.37 3.51-.765 6.25 0m-6.14 67.611c1.765-.37 3.51-.765 6.25 0" transform="matrix(.2167 0 0 .21986 242.962 121.341)"/><path fill="#f9f9f9" fill-rule="evenodd" d="M422.964 685.516v-7.996l-26.233-.94-6.205 1.063v6.884z" transform="matrix(.2167 0 0 .21986 242.962 121.341)"/><path fill="none" d="M396.839 676.848v5.48m-2.639-82.332 3.963-1.596 18.372 1.336" transform="matrix(.2167 0 0 .21986 242.962 121.341)"/><path fill="#fff" fill-rule="evenodd" d="M370.139 670.5v-37.242c0-5.862 5.146-8.615 8.432-8.615 3.148 0 8.433 2.753 8.433 8.615V670.5zm-35.106 1.452V634.71c0-5.862-5.146-7.975-8.433-7.566-3.147.392-8.432 3.803-8.432 9.665v37.241zm-24.693-60.009v-12.13l.884-1.237v-1.502l1.679-1.238.044-4.675-8.342-4.282-21.577 4.98v4.773l1.502 1.237v1.238l1.326 1.502v11.933l17.682-3.322z" transform="matrix(.2167 0 0 .21986 242.962 121.341)"/><path fill="#fff" fill-rule="evenodd" d="m292.455 616.175 7.375-1v-2.125l-7.812-3.25-6.875 1.312v2.125z" transform="matrix(.2167 0 0 .21986 242.962 121.341)"/><path fill="none" d="M304.904 588.28v3.756l-.751.707v2.342l-.663 1.503v10.916" transform="matrix(.2167 0 0 .21986 242.962 121.341)"/><path fill="none" d="m312.373 595.88-7.38-3.889-20.949 4.508" transform="matrix(.2167 0 0 .21986 242.962 121.341)"/><path fill="none" d="m310.705 598.3-6.375-3.188-18.75 3.813" transform="matrix(.2167 0 0 .21986 242.962 121.341)"/><path fill="#fff" fill-rule="evenodd" d="m303.83 614.112 7.375-1v-2.125l-7.812-3.25-6.875 1.313v2.125z" transform="matrix(.2167 0 0 .21986 242.962 121.341)"/><path fill="#fff" fill-rule="evenodd" d="M303.612 610.281c2.94 0 5.312 1.122 5.312 2.5 0 .584-.439 1.106-1.156 1.532v66.28c1.035.564 1.687 1.319 1.687 2.157 0 1.732-2.72 3.156-6.062 3.156s-6.031-1.424-6.031-3.156c0-.903.726-1.709 1.906-2.281v-66.25c-.628-.41-1-.895-1-1.438 0-1.378 2.404-2.5 5.344-2.5" transform="matrix(.2167 0 0 .21986 242.962 121.341)"/><path fill="none" d="M306.643 612.612c-1.766-.37-3.51-.765-6.25 0m6.25 67.75c-1.766-.37-3.51-.765-6.25 0" transform="matrix(.2167 0 0 .21986 242.962 121.341)"/><path fill="#fff" fill-rule="evenodd" d="M287.509 679.45v-37.242c0-5.862-3.96-7.802-6.488-7.282-2.421.498-6.487 4.087-6.487 9.949v37.241l12.975-2.667z" transform="matrix(.2167 0 0 .21986 242.962 121.341)"/><path fill="#fff" fill-rule="evenodd" d="M291.987 611.906c2.94 0 5.312 1.122 5.312 2.5 0 .584-.439 1.106-1.156 1.532v66.28c1.035.564 1.687 1.319 1.687 2.157 0 1.732-2.72 3.156-6.062 3.156s-6.031-1.424-6.031-3.156c0-.903.726-1.709 1.906-2.281v-66.25c-.628-.41-1-.895-1-1.438 0-1.378 2.404-2.5 5.344-2.5" transform="matrix(.2167 0 0 .21986 242.962 121.341)"/><path fill="none" d="M295.018 614.237c-1.766-.37-3.51-.765-6.25 0m6.25 67.75c-1.766-.37-3.51-.765-6.25 0" transform="matrix(.2167 0 0 .21986 242.962 121.341)"/><path fill="#f9f9f9" fill-rule="evenodd" d="M280.818 692.68v-6.977l22.893-4.042 9.546 2.652v5.657z" transform="matrix(.2167 0 0 .21986 242.962 121.341)"/><path fill="none" d="M303.799 683.518v5.48m5.227-84.069-5.491-2.569-16.01 3.282" transform="matrix(.2167 0 0 .21986 242.962 121.341)"/><path fill="#fff" fill-rule="evenodd" d="M267.236 621.546v-12.129l.884-1.237v-1.503l1.68-1.237.043-4.676-10.798-3.165-13.426 6.543v4.773l1.503 1.238v1.237l1.325 1.503v11.932l11.988-4.885z" transform="matrix(.2167 0 0 .21986 242.962 121.341)"/><path fill="none" d="m268.599 605.892-8.96-2.72-13.004 6.543" transform="matrix(.2167 0 0 .21986 242.962 121.341)"/><path fill="none" d="m267.306 608.5-7.51-2.02-11.97 5.486m18.178 3.353-6.156-1.613-10.514 4.758m10.663.738v-20.211" transform="matrix(.2167 0 0 .21986 242.962 121.341)"/><path fill="#fff" fill-rule="evenodd" d="m255.255 627.736 6.37-1.838v-2.125l-8.427-2.747-5.423 2.373v2.125z" transform="matrix(.2167 0 0 .21986 242.962 121.341)"/><path fill="#fff" fill-rule="evenodd" d="m261.843 625.111 6.37-1.837v-2.125l-8.426-2.748-5.424 2.374v2.125z" transform="matrix(.2167 0 0 .21986 242.962 121.341)"/><path fill="#fff" fill-rule="evenodd" d="M254.243 623.52c2.94 0 5.312 1.121 5.312 2.5 0 .584-.439 1.106-1.156 1.531v66.281c1.035.563 1.688 1.318 1.688 2.156 0 1.733-2.72 3.157-6.063 3.157s-6.031-1.424-6.031-3.157c0-.903.726-1.708 1.906-2.28v-66.25c-.627-.41-1-.896-1-1.438 0-1.379 2.404-2.5 5.344-2.5" transform="matrix(.2167 0 0 .21986 242.962 121.341)"/><path fill="none" d="M257.61 693.712c-1.766-.37-3.511-.765-6.25 0m5.802-67.862c-1.765-.37-3.51-.765-6.25 0" transform="matrix(.2167 0 0 .21986 242.962 121.341)"/><path fill="#fff" fill-rule="evenodd" d="M260.943 620.84c2.94 0 5.312 1.121 5.312 2.5 0 .584-.438 1.106-1.156 1.53v66.282c1.035.563 1.688 1.318 1.688 2.156 0 1.732-2.72 3.157-6.063 3.157s-6.031-1.425-6.031-3.157c0-.903.726-1.708 1.906-2.28v-66.25c-.627-.41-1-.896-1-1.438 0-1.379 2.404-2.5 5.344-2.5" transform="matrix(.2167 0 0 .21986 242.962 121.341)"/><path fill="none" d="M263.986 623.332c-1.766-.37-3.51-.765-6.25 0m6.238 67.7c-1.765-.37-3.51-.765-6.25 0" transform="matrix(.2167 0 0 .21986 242.962 121.341)"/><path fill="#fff" fill-rule="evenodd" d="m246.871 703.689-.112-7.555 14.853-4.885 6.866 1.423v6.662z" transform="matrix(.2167 0 0 .21986 242.962 121.341)"/><path fill="none" d="M261.589 692.256v5.48m-26.064-77.895h11.078m-9.428 3.772h8.957m-8.957 6.01h9.31m-8.956 4.479h9.31M238 636.459h7.307m-.354 3.064v57.984" transform="matrix(.2167 0 0 .21986 242.962 121.341)"/><path fill="#fff" fill-rule="evenodd" d="M363.7 606.662v-12.129l.884-1.237v-1.503l1.68-1.237.044-4.676-5.98-3.865-23.94 2.479v4.773l1.503 1.237v1.238l1.326 1.502v11.933l17.682-1.238z" transform="matrix(.2167 0 0 .21986 242.962 121.341)"/><path fill="none" d="M360.418 583.068v4.799l-.75.707v2.342l-.664 1.503v9.874" transform="matrix(.2167 0 0 .21986 242.962 121.341)"/><path fill="none" d="m365.733 590.6-5.226-2.916-22.894 2.006m26.453 3.33-4.499-2.007-19.862 1.728" transform="matrix(.2167 0 0 .21986 242.962 121.341)"/><path fill="#fff" fill-rule="evenodd" d="m343.99 608.067 8.14-.096v-2.403l-5.382-2.417-8.334.688-.07 2.333z" transform="matrix(.2167 0 0 .21986 242.962 121.341)"/><path fill="#fff" fill-rule="evenodd" d="m356.218 607.303 8.14-.097v-2.403l-5.381-2.416-8.334.687-.07 2.334z" transform="matrix(.2167 0 0 .21986 242.962 121.341)"/><path fill="#fff" fill-rule="evenodd" d="M357.111 604.723c2.94 0 5.313 1.122 5.313 2.5 0 .584-.44 1.106-1.156 1.531v66.281c1.035.563 1.687 1.318 1.687 2.157 0 1.732-2.72 3.156-6.062 3.156s-6.032-1.424-6.032-3.156c0-.904.727-1.709 1.907-2.282v-66.25c-.628-.41-1-.895-1-1.437 0-1.378 2.404-2.5 5.343-2.5" transform="matrix(.2167 0 0 .21986 242.962 121.341)"/><path fill="none" d="M360.143 607.332c-1.766-.371-3.511-.766-6.25 0m6.209 67.048c-1.766-.37-3.51-.766-6.25 0" transform="matrix(.2167 0 0 .21986 242.962 121.341)"/><path fill="#fff" fill-rule="evenodd" d="M344.722 605.097c2.94 0 5.312 1.122 5.312 2.5 0 .584-.438 1.106-1.156 1.531v66.282c1.035.563 1.688 1.317 1.688 2.156 0 1.732-2.72 3.156-6.063 3.156s-6.031-1.424-6.031-3.156c0-.903.726-1.709 1.906-2.281v-66.25c-.627-.41-1-.895-1-1.438 0-1.378 2.404-2.5 5.344-2.5" transform="matrix(.2167 0 0 .21986 242.962 121.341)"/><path fill="none" d="M347.753 607.706c-1.765-.37-3.51-.765-6.25 0m6.14 67.611c-1.765-.37-3.51-.765-6.25 0" transform="matrix(.2167 0 0 .21986 242.962 121.341)"/><path fill="#f9f9f9" fill-rule="evenodd" d="M334.179 685.516v-7.996l26.233-.94 6.205 1.063v6.884z" transform="matrix(.2167 0 0 .21986 242.962 121.341)"/><path fill="#fff" fill-rule="evenodd" d="M215.096 773.034v-12.079c3.144-7.048 8.967-10.079 13.967-14.343v-20.763c-3.528-6.45-4.64-11.058 3.397-17.402 16.692-13.178 60.81-25.25 146.111-25.25 85.303 0 129.42 12.072 146.112 25.25 8.037 6.344 6.925 10.953 3.397 17.402v20.763c5 4.264 10.822 7.295 13.967 14.343v12.08h-326.95z" transform="matrix(.2167 0 0 .21986 242.962 121.341)"/><path fill="none" d="M360.304 676.848v5.48m2.639-82.332-3.963-1.596-18.372 1.336M230.324 723.66c16.937-10.39 61.699-19.911 148.247-19.911 86.55 0 131.31 9.52 148.247 19.912m-296.494 22.941c16.937-4.13 61.699-7.912 148.247-7.912 86.55 0 131.31 3.783 148.247 7.912m-310.105 11.5c18.491-3.868 67.363-7.412 161.858-7.412s143.368 3.544 161.86 7.412" transform="matrix(.2167 0 0 .21986 242.962 121.341)"/><path fill="none" d="M216.713 760.852c18.491-2.825 67.363-5.412 161.858-5.412s143.368 2.587 161.86 5.412M494.5 733.737v-16.625l-7.25-1.25v17.125zm-264.176 10.365c16.937-4.651 61.699-8.912 148.247-8.912 86.55 0 131.31 4.26 148.247 8.912" transform="matrix(.2167 0 0 .21986 242.962 121.341)"/><path fill="none" d="M230.324 721.66c16.937-11.435 61.699-21.911 148.247-21.911 86.55 0 131.31 10.476 148.247 21.912" transform="matrix(.2167 0 0 .21986 242.962 121.341)"/><path fill="none" d="M230.324 718.91c16.937-12.348 61.699-23.661 148.247-23.661 86.55 0 131.31 11.313 148.247 23.662" transform="matrix(.2167 0 0 .21986 242.962 121.341)"/><path fill="none" d="m487.625 717.675 2.813.375v15.062m-227.795.625v-16.625l7.25-1.25v17.125z" transform="matrix(.2167 0 0 .21986 242.962 121.341)"/><path fill="none" d="m269.518 717.675-2.813.375v15.062m155.438-99.092c.139-1.868 2.634-4.857 5.48-5.038 4.912-.313 8.397 4.439 8.397 8.308v36.24m33.676-32.439c.08-1.868 1.526-4.857 3.176-5.038 2.847-.313 4.867 4.439 4.867 8.309V680.6" transform="matrix(.2167 0 0 .21986 242.962 121.341)"/><path fill="#fff" fill-rule="evenodd" d="M370.139 635.468c0-5.862 5.146-8.615 8.432-8.615 3.148 0 8.433 2.753 8.433 8.615" transform="matrix(.2167 0 0 .21986 242.962 121.341)"/><path fill="none" d="M335 634.02c-.14-1.868-2.634-4.857-5.48-5.038-4.912-.313-8.397 4.439-8.397 8.308v36.24m-33.676-32.439c-.08-1.868-1.526-4.857-3.176-5.038-2.847-.313-4.867 4.439-4.867 8.309V680.6m123.409-240.925v3.312m-48.483-3.312v3.312m-6.5 3.313v4.875l-1.92 1.213-1.83 1.35m10.1-44.313c1.314-4.873 15.498-7.248 24.391-7.248s23.078 2.375 24.391 7.248" transform="matrix(.2167 0 0 .21986 242.962 121.341)"/><path fill="none" d="M356.302 413.668c-4.344-4.343 13.376-7.16 22.27-7.16 8.892 0 26.612 2.817 22.27 7.16m-28.762-31.681c1.575-.974 4.24-1.437 6.491-1.437s4.917.463 6.491 1.437" transform="matrix(.2167 0 0 .21986 242.962 121.341)"/></g></g><path fill="#fff" d="m325 138.953 2.762 8.5h8.938l-7.23 5.253 2.76 8.5-7.23-5.252-7.23 5.253 2.76-8.5-7.23-5.254h8.938zm28.741 3.784.468 8.925 8.633 2.313-8.344 3.203.468 8.926-5.625-6.946-8.344 3.203 4.867-7.496-5.624-6.946 8.633 2.313zm26.783 11.093-1.858 8.742 7.74 4.47-8.889.934-1.858 8.742-3.636-8.165-8.888.934 6.641-5.98-3.635-8.165 7.74 4.468zm22.998 17.648-4.057 7.963 6.32 6.32-8.828-1.398-4.058 7.963-1.398-8.827-8.827-1.398 7.963-4.058-1.398-8.828 6.32 6.32zm17.648 22.998-5.98 6.642 4.468 7.74-8.165-3.634-5.98 6.641.934-8.888-8.165-3.636 8.742-1.858.935-8.889 4.469 7.74zm11.093 26.783-7.495 4.868 2.313 8.633-6.946-5.624-7.496 4.867 3.203-8.344-6.946-5.625 8.926.468 3.203-8.344 2.313 8.633zM436.047 250l-8.5 2.762v8.938l-5.254-7.23-8.5 2.76 5.253-7.23-5.253-7.23 8.5 2.76 5.254-7.23v8.938zm-3.784 28.741-8.925.468-2.313 8.633-3.203-8.344-8.926.468 6.946-5.625-3.203-8.344 7.496 4.867 6.946-5.624-2.313 8.633zm-11.093 26.783-8.742-1.858-4.47 7.74-.934-8.889-8.742-1.858 8.165-3.636-.934-8.888 5.98 6.641 8.165-3.635-4.468 7.74zm-17.648 22.998-7.963-4.057-6.32 6.32 1.398-8.828-7.963-4.058 8.827-1.398 1.398-8.827 4.058 7.963 8.827-1.398-6.319 6.32zm-22.998 17.648-6.642-5.98-7.74 4.468 3.634-8.165-6.641-5.98 8.888.934 3.636-8.165 1.858 8.742 8.889.935-7.74 4.469zm-26.783 11.093-4.868-7.495-8.633 2.313 5.624-6.946-4.867-7.496 8.344 3.203 5.625-6.946-.468 8.926 8.344 3.203-8.633 2.313zM325 361.047l-2.762-8.5H313.3l7.23-5.253-2.76-8.5 7.23 5.252 7.23-5.253-2.76 8.5 7.23 5.254h-8.938zm-28.741-3.784-.468-8.925-8.633-2.313 8.344-3.203-.468-8.926 5.625 6.946 8.344-3.203-4.867 7.496 5.624 6.946-8.633-2.313zm-26.783-11.093 1.858-8.742-7.74-4.47 8.889-.934 1.858-8.742 3.636 8.165 8.888-.934-6.641 5.98 3.635 8.165-7.74-4.468zm-22.998-17.648 4.057-7.963-6.32-6.32 8.828 1.398 4.058-7.963 1.398 8.827 8.827 1.398-7.963 4.058 1.398 8.828-6.32-6.32zm-17.648-22.998 5.98-6.642-4.468-7.74 8.165 3.634 5.98-6.641-.934 8.888 8.165 3.636-8.742 1.858-.935 8.889-4.469-7.74zm-11.093-26.783 7.495-4.868-2.313-8.633 6.946 5.625 7.496-4.868-3.203 8.344 6.946 5.625-8.926-.468-3.203 8.344-2.313-8.633zM213.953 250l8.5-2.762V238.3l5.253 7.23 8.5-2.762-5.252 7.231 5.253 7.23-8.5-2.76-5.254 7.23v-8.938zm3.784-28.741 8.925-.468 2.313-8.633 3.203 8.344 8.926-.468-6.946 5.625 3.203 8.344-7.496-4.867-6.946 5.624 2.313-8.633zm11.093-26.783 8.742 1.858 4.47-7.74.934 8.889 8.742 1.858-8.165 3.636.934 8.888-5.98-6.641-8.165 3.635 4.468-7.74zm17.648-22.998 7.963 4.057 6.32-6.32-1.398 8.828 7.963 4.058-8.827 1.398-1.398 8.827-4.058-7.963-8.828 1.398 6.32-6.32zm22.998-17.648 6.642 5.98 7.74-4.468-3.634 8.165 6.641 5.98-8.888-.934-3.636 8.165-1.858-8.742-8.889-.935 7.74-4.469zm26.783-11.093 4.868 7.495 8.633-2.313-5.625 6.946 4.868 7.496-8.344-3.203-5.625 6.946.468-8.926-8.344-3.203 8.633-2.313z"/><path fill="#002673" stroke="#002673" stroke-linecap="round" stroke-linejoin="round" d="m165.614 109.637 1.873-1.9q1.23 2.638 3.815 2.638 1.71 0 2.673-1.298.963-1.3 1.593-4.43l3.13-15.777h-3.65l1.928-2.024h8.804l-2.105 2.024h-2.105l-2.666 13.398q-.89 4.43-3.131 6.815-2.242 2.386-5.524 2.386-2.543 0-4.635-1.832m31.2-6.289-.205 1.053q-4.349 3.021-7.41 3.021-1.942 0-3.152-1.36t-1.21-3.52q0-3.855 2.953-7.253t6.303-3.398q1.216 0 1.969.82.752.82.752 2.133 0 2.625-2.68 4.512t-6.398 1.887l-.014.615q0 3.992 2.926 3.992 2.529 0 6.166-2.502m-9.051-2.953q3.063-.245 4.785-1.58 1.723-1.332 1.723-3.451 0-2.092-1.518-2.092-1.64 0-3.172 2.18-1.53 2.181-1.818 4.943m3.65 15.613 1.955-2.037a7.1 7.1 0 0 0 2.68.533q1.955 0 3.015-1.326 1.059-1.326 1.579-4.388l2.625-15.545h-3.063l.957-1.012h2.31l.042-.178q.78-3.965 3.596-6.446t6.535-2.482q1.19 0 2.2.233l-1.954 2.078q-1.272-.793-2.611-.793-2.051 0-3.05 1.21t-1.64 4.436l-.396 1.942h5.113l-1.108 1.217a30 30 0 0 0-3.486-.205h-.71l-1.997 11.757q-.903 5.36-3.596 8.272t-6.754 2.912q-1.065 0-2.242-.178m11.43 0 1.955-2.037a7.1 7.1 0 0 0 2.68.533q1.955 0 3.014-1.326 1.06-1.326 1.58-4.388l2.624-15.545h-3.062l.957-1.012h2.31l.042-.178q.78-3.965 3.595-6.446 2.817-2.481 6.535-2.482 1.19 0 2.202.233l-1.955 2.078q-1.272-.793-2.612-.793-2.05 0-3.049 1.21-.998 1.21-1.64 4.436l-.397 1.942h5.114l-1.108 1.217a30 30 0 0 0-3.486-.205h-.711l-1.996 11.757q-.903 5.36-3.596 8.272t-6.754 2.912q-1.066 0-2.242-.178m31.978-12.66-.205 1.053q-4.347 3.021-7.41 3.021-1.94 0-3.151-1.36t-1.21-3.52q0-3.855 2.953-7.253t6.303-3.398q1.216 0 1.969.82.75.82.751 2.133 0 2.625-2.68 4.512-2.679 1.887-6.398 1.887l-.013.615q0 3.992 2.925 3.992 2.53 0 6.166-2.502m-9.05-2.953q3.061-.245 4.785-1.58 1.722-1.332 1.722-3.451 0-2.092-1.517-2.092-1.64 0-3.172 2.18-1.53 2.181-1.818 4.943m13.33 6.85 1.011-4.211 1.327-6.686q.204-1.011.205-1.75 0-1.176-.82-1.176-1.45 0-4.143 3.09l.246-1.217q3.158-3.404 5.482-3.404 1.97 0 1.97 2.256 0 .998-.247 2.215l-.656 3.295h.178q1.626-3.418 3.848-5.585t4.068-2.167q.957 0 1.709.424l-1.819 2.46q-.806-.533-1.367-.533-2.666 0-7.096 7.834l-.998 4.99zm12.838-.63 1.79-1.845q1.778 1.299 3.624 1.299 1.134 0 1.914-.595.78-.594.78-1.47 0-.97-1.546-2.652l-1.244-1.367q-1.818-1.996-1.818-3.336 0-1.86 1.763-3.302t4.034-1.442q1.244 0 2.789.52l-.602 3.02h-.861l.04-.232a1.3 1.3 0 0 0 .028-.287q0-1.845-2.379-1.845-2.666 0-2.666 2.132 0 1.08 1.586 2.871l1.121 1.245q1.832 2.064 1.832 3.39 0 1.832-1.941 3.268t-4.416 1.435q-1.737 0-3.828-.806zm18.62.807q-1.79 0-2.987-1.401-1.196-1.402-1.196-3.493 0-3.938 2.98-7.28t6.495-3.343q1.9 0 3.13 1.367t1.231 3.486q0 4.088-2.98 7.376c-2.98 3.288-4.211 3.288-6.672 3.288zm1.56-1.19q2.022 0 3.56-2.604t1.539-6.05q0-4.525-2.762-4.525-1.955 0-3.52 2.687-1.566 2.685-1.566 6.05 0 4.443 2.748 4.443zm11.484 1.013 1.011-4.211 1.34-6.754q.315-1.572.315-2.051 0-.848-.807-.848-1.34 0-4.074 2.994l.246-1.257q2.98-3.213 5.373-3.213 1.97 0 1.969 2.05 0 .698-.315 2.325l-.67 3.377h.205q1.71-3.5 3.863-5.626t4.012-2.126q2.243 0 2.243 2.488 0 .807-.233 1.969l-1.326 6.672q-.314 1.585-.314 2.05 0 .862.806.862 1.367 0 4.088-3.008l-.26 1.271q-2.98 3.213-5.373 3.213-1.968 0-1.968-2.064 0-.684.328-2.324l1.326-6.7q.164-.78.164-1.312 0-1.107-.82-1.107-2.612 0-7.246 8.285l-.999 4.88zm43.736-1.409q-4.347 1.75-7.629 1.75-3.526 0-5.469-1.982-1.941-1.983-1.941-5.578 0-5.7 3.726-9.7t9.016-4q3.158 0 5.865.807l-1.162 3.76h-.861q.137-.643.137-1.053 0-1.19-1.3-1.927-1.297-.74-3.376-.739-3.13 0-5.483 2.79-1.558 1.845-2.542 4.58-.985 2.734-.985 5.181 0 2.953 1.552 4.649 1.551 1.695 4.259 1.695 3.034 0 6.453-1.531zm13.043-2.898-.246 1.271q-2.994 3.213-5.373 3.213-1.97 0-1.969-2.064 0-.697.315-2.297l.943-4.758q.383-2.024.383-2.693 0-1.149-.889-1.149-.615 0-2.201.479l.164-.848 6.686-2.187-1.04 4.375-1.34 6.754q-.314 1.585-.314 2.023 0 .89.807.889 1.353 0 4.074-3.008m-5.018-13.412.916-1.86 3.856-2.515-1.176 2.515zm9.68 3.719h-3.13l.943-1.012h2.379l.779-3.87 2.83-.683-.902 4.553h5.154l-1.121 1.203a29 29 0 0 0-3.131-.191h-1.108l-1.859 9.365q-.287 1.449-.287 2.037 0 1.08.957 1.08 1.476 0 4.033-2.187l-.246 1.257q-2.652 2.625-5.1 2.625-2.324 0-2.324-2.57 0-.915.301-2.434zm9.885 22.545 1.887-1.915a5.64 5.64 0 0 0 2.898.793q1.9 0 2.96-1.353t1.92-4.922l2.12-8.736h-.178q-1.598 3.254-3.254 5.339-1.654 2.085-2.61 2.085-.999 0-1.498-1.074-.5-1.073-.868-3.985l-.656-5.318q-.37-2.954-1.245-2.954-.847 0-2.748 2.393l.274-1.394q2.145-2.844 4.06-2.844 1.095 0 1.559.984.465.984.875 4.143l.574 4.566q.315 2.447 1.04 2.447.847 0 2.392-2.365.273-.437 3.049-5.072l1.039-4.375 2.912-.164-1.217 4.265-2.393 9.721q-1.216 4.936-3.876 7.533-2.659 2.598-6.514 2.598-1.463 0-2.502-.396m23.074 270.826 1.955-2.01q1.38 2.27 3.842 2.27 1.614 0 2.857-1.367 1.245-1.368 1.696-3.623l2.584-12.988q-.698-.11-.97-.11-2.257 0-3.76 1.607-1.505 1.606-1.505 3.999l-2.652 1.298q.287-3.813 3.049-5.933t7.424-2.12h1.107a78.6 78.6 0 0 1 3.692 14.48l8.968-14.48 2.926-.341-1.039 4.389-2.229 11.17q-.286 1.49-.287 2.378 0 1.204 1.463 1.204.724 0 1.942-.15l-.178.874-6.754 1.34 3.541-17.8-9.352 14.984-1.408.218v-.396q0-5.346-2.611-13.275l-1.121 5.578q-2.05 10.322-8.942 10.322-2.406 0-4.238-1.518m43.45-2.884-.247 1.271q-2.994 3.213-5.373 3.213-1.969 0-1.969-2.065 0-.697.315-2.296l.943-4.758q.383-2.024.383-2.694 0-1.148-.889-1.148-.615 0-2.2.479l.163-.848 6.686-2.188-1.04 4.375-1.339 6.754q-.314 1.587-.314 2.024 0 .888.806.888 1.354 0 4.074-3.007zm-5.018-13.413.916-1.859 3.855-2.516-1.175 2.516zm4.402 17.09 1.791-1.845q1.778 1.298 3.623 1.298 1.136 0 1.914-.594.78-.595.78-1.47 0-.97-1.545-2.652l-1.244-1.368q-1.82-1.995-1.819-3.336 0-1.86 1.764-3.301 1.764-1.443 4.033-1.443 1.245 0 2.79.52l-.602 3.021h-.862l.041-.232q.027-.123.028-.287 0-1.845-2.38-1.846-2.665 0-2.665 2.133 0 1.08 1.586 2.871l1.12 1.244q1.833 2.065 1.833 3.39 0 1.833-1.942 3.268-1.941 1.436-4.416 1.436-1.735 0-3.828-.807m12.633 0 1.791-1.845q1.778 1.298 3.623 1.298 1.135 0 1.914-.594.78-.595.78-1.47 0-.97-1.546-2.652l-1.244-1.368q-1.818-1.995-1.818-3.336 0-1.86 1.764-3.301a6.2 6.2 0 0 1 4.033-1.443q1.244 0 2.789.52l-.602 3.021h-.861l.041-.232q.027-.123.027-.287 0-1.845-2.379-1.846-2.666 0-2.666 2.133.001 1.08 1.586 2.871l1.121 1.244q1.833 2.065 1.833 3.39 0 1.833-1.942 3.268-1.941 1.436-4.416 1.436-1.736 0-3.828-.807m18.621.807q-1.791 0-2.987-1.401t-1.197-3.494q0-3.937 2.98-7.28 2.982-3.342 6.495-3.343 1.9 0 3.13 1.368 1.231 1.366 1.231 3.486 0 4.088-2.98 7.376c-2.98 3.288-4.211 3.288-6.672 3.288m1.559-1.19q2.023 0 3.561-2.604t1.538-6.05q0-4.525-2.761-4.525-1.955 0-3.521 2.686c-1.566 2.686-1.565 3.808-1.565 6.05q0 4.443 2.748 4.443m22.271-6.576h-.232q-3.883 7.766-7.575 7.766-2.187 0-2.187-2.584 0-.738.219-1.846l1.326-6.713q.315-1.572.314-2.05 0-.849-.806-.848-1.341 0-4.074 2.994l.246-1.258q2.98-3.213 5.373-3.213 1.982 0 1.982 2.051 0 .684-.328 2.324l-1.34 6.727q-.177.902-.178 1.285 0 1.107.807 1.108 1.026 0 3.11-2.482 2.085-2.481 3.835-5.776l.985-4.909 2.898-.164-1.012 4.211-1.34 6.754q-.314 1.572-.314 2.051 0 .861.807.861 1.353 0 4.074-3.007l-.246 1.271q-2.994 3.213-5.373 3.213-1.983 0-1.983-2.065 0-.697.329-2.324zm8.914 7.588 1.012-4.21 1.326-6.686q.205-1.012.205-1.75 0-1.176-.82-1.176-1.449 0-4.143 3.09l.246-1.217q3.159-3.404 5.483-3.404 1.969 0 1.969 2.256 0 .998-.247 2.214l-.656 3.295h.178q1.627-3.417 3.849-5.585 2.22-2.167 4.067-2.167.957 0 1.709.424l-1.818 2.461q-.807-.533-1.368-.533-2.665 0-7.095 7.834l-.998 4.99zm24.008-4.306-.246 1.271q-2.994 3.213-5.373 3.213-1.97 0-1.969-2.065 0-.697.315-2.296l.943-4.758q.383-2.024.383-2.694 0-1.148-.889-1.148-.615 0-2.201.479l.164-.848 6.686-2.188-1.04 4.375-1.34 6.754q-.314 1.587-.314 2.024 0 .888.807.888 1.353 0 4.074-3.007m-5.018-13.413.916-1.859 3.856-2.516-1.176 2.516z" font-family="Lucida Calligraphy" font-size="28" font-weight="400" style="text-align:center;line-height:125%;-inkscape-font-specification:Lucida Calligraphy" text-anchor="middle"/></svg>