<svg xmlns="http://www.w3.org/2000/svg" width="600" height="400"><path fill="#fff" d="M0 0h600v400H0z"/><path fill="#fff" fill-rule="evenodd" d="M197.96 117.926v149.492c0 56.326 45.714 102.04 102.04 102.04s102.04-45.714 102.04-102.04V117.926z"/><path fill-rule="evenodd" d="M351.808 163.907a21 21 0 0 0-15.327 6.194l-49.21 49.63 29.683 29.683 13.438-13.543v50.6a20.99 20.99 0 0 0 10.419 18.425 20.97 20.97 0 0 0 21.154 0 20.99 20.99 0 0 0 10.419-18.424V184.903a20.99 20.99 0 0 0-12.991-19.421 20.9 20.9 0 0 0-7.585-1.575"/><path fill-rule="evenodd" d="M228.561 188.468v97.872c0 12.216 9.962 22.204 22.177 22.204s22.177-9.988 22.177-22.204v-7.82a48 48 0 0 0 27.216 8.424c13.552 0 25.81-5.638 34.591-14.671l-61.807-61.807v-23.372l-8.398 8.105v10.937c-7.855 8.59-12.677 19.998-12.677 32.517 0 12.527 4.815 23.95 12.677 32.544v15.143c0 7.708-6.071 13.805-13.779 13.805s-13.779-6.097-13.779-13.805V195.2zm38.449 27.982 55.35 55.35a40 40 0 0 1-4.855 2.809l-27.977-27.977-5.957 5.957 25.09 25.064a40 40 0 0 1-4.567.709l-23.148-23.148-5.958 5.957 16.43 16.43c-17.86-3.971-31.18-19.876-31.18-38.948 0-8.233 2.516-15.858 6.772-22.203m1.05 58.238c.355.316.711.638 1.076.944-.365-.308-.72-.626-1.076-.944"/><path fill="none" stroke="#000" stroke-linecap="round" stroke-linejoin="round" stroke-width="8.398" d="M270.357 184.839a19.736 19.736 0 1 1-39.473 0 19.736 19.736 0 1 1 39.473 0"/><path fill="none" stroke="#000" stroke-width="8.398" d="m230.884 182.372-22.516 19.701h33.148"/><path fill="#019903" fill-rule="evenodd" d="M197.96 117.926v77.921l19.736-17.295v-38.37h164.608v123.036c0 46.36-35.945 83.985-82.304 83.985s-82.304-37.625-82.304-83.985v-49.603h-19.737v53.803c0 56.326 45.715 102.04 102.041 102.04s102.04-45.714 102.04-102.04V117.926z"/><path fill-rule="evenodd" d="M351.808 163.907a21 21 0 0 0-15.327 6.194l-49.21 49.63 29.683 29.683 13.438-13.543v50.6a20.99 20.99 0 0 0 10.419 18.425 20.97 20.97 0 0 0 21.154 0 20.99 20.99 0 0 0 10.419-18.424V184.903a20.99 20.99 0 0 0-12.991-19.421 20.9 20.9 0 0 0-7.585-1.575"/><path fill-rule="evenodd" d="M228.561 188.468v97.872c0 12.216 9.962 22.204 22.177 22.204s22.177-9.988 22.177-22.204v-7.82a48 48 0 0 0 27.216 8.424c13.552 0 25.81-5.638 34.591-14.671l-61.807-61.807v-23.372l-8.398 8.105v10.937c-7.855 8.59-12.677 19.998-12.677 32.517 0 12.527 4.815 23.95 12.677 32.544v15.143c0 7.708-6.071 13.805-13.779 13.805s-13.779-6.097-13.779-13.805V195.2zm38.449 27.982 55.35 55.35a40 40 0 0 1-4.855 2.809l-27.977-27.977-5.957 5.957 25.09 25.064a40 40 0 0 1-4.567.709l-23.148-23.148-5.958 5.957 16.43 16.43c-17.86-3.971-31.18-19.876-31.18-38.948 0-8.233 2.516-15.858 6.772-22.203m1.05 58.238c.355.316.711.638 1.076.944-.365-.308-.72-.626-1.076-.944"/><path fill="none" stroke="#000" stroke-linecap="round" stroke-linejoin="round" stroke-width="8.398" d="M270.357 184.839a19.736 19.736 0 1 1-39.473 0 19.736 19.736 0 1 1 39.473 0"/><path fill="none" stroke="#000" stroke-width="8.398" d="m230.884 182.372-22.516 19.701h33.148"/><path fill="#07814b" d="m140.964 125.814 5.252 4.127q1.521 1.194 2.061 1.317t1.145-.162c.605-.285.941-.714 1.614-1.571l.512.402-7.537 9.593-.511-.402q1.02-1.299 1.142-1.953.122-.653-.118-1.143-.24-.492-1.761-1.686l-12.164-9.556q-1.52-1.195-2.06-1.318-.542-.123-1.145.163-.604.285-1.615 1.57l-.511-.401 6.842-8.708q2.67-3.4 4.379-4.607 1.708-1.206 3.755-1.208 2.046-.001 3.746 1.334 2.074 1.629 2.255 4.186.108 1.627-.81 3.678l9.885.478q1.925.082 2.522-.052a3 3 0 0 0 1.502-.944l.511.402-4.637 5.902-13.288-.671zm-9.192-7.222 8.21 6.451.62-.788q1.509-1.92 1.906-3.152.396-1.23-.094-2.499-.49-1.267-1.969-2.43-2.143-1.683-3.952-1.484-1.81.198-3.559 2.423l-1.162 1.48zm19.308-21.918 6.775 6.946.34-.331q1.623-1.583 1.358-3.315t-2.002-3.915l.478-.467 8.715 8.934-.478.467q-1.576-1.312-2.968-1.771t-2.347-.154-2.176 1.496l4.689 4.807q1.375 1.41 1.8 1.607.428.198.95.08.525-.117 1.254-.83l1.02-.993q2.39-2.333 2.751-4.845t-1.22-5.392l.466-.454 4.523 6.172-14.748 14.385-.454-.465.566-.553q.742-.724.938-1.43.155-.495-.086-1.095-.157-.437-1.408-1.72l-10.948-11.225q-1.13-1.158-1.45-1.36-.556-.318-1.129-.226-.822.114-1.652.924l-.566.553-.454-.466 14.282-13.93 4.922 5.045-.479.467q-2.168-1.494-3.615-1.655-1.446-.16-3.022.64-.926.46-2.864 2.35zm31.329-28.356 4.99 6.76-.524.387q-2.994-2.073-5.953-2.117t-5.21 1.616q-2.149 1.585-2.685 3.85-.536 2.263.467 4.866a20.8 20.8 0 0 0 2.683 4.88q2.036 2.757 4.22 4.356 2.186 1.6 4.355 1.505 2.17-.094 4.165-1.566.693-.51 1.311-1.197.62-.686 1.174-1.533l-2.943-3.988q-.835-1.131-1.236-1.35-.401-.216-1.087-.125-.687.09-1.38.602l-.495.366-.386-.524 9.32-6.878.387.523q-1.008.855-1.264 1.381-.255.527-.106 1.203.071.363.843 1.41L196 86.733a23.5 23.5 0 0 1-2.913 4.061 25 25 0 0 1-3.815 3.46q-2.73 2.014-5.08 2.603-2.353.588-4.623.396-2.272-.19-4.167-1.13-2.43-1.222-4.215-3.64-3.194-4.328-2.355-9.557.838-5.228 5.45-8.63 1.427-1.055 2.74-1.674.705-.346 2.49-.844t2.04-.686q.396-.291.521-.832.126-.541-.186-1.556zm28.323 10.894.326.563-10.786 6.243-.326-.563.685-.396q.897-.52 1.26-1.156.272-.443.186-1.083-.045-.463-.942-2.014l-7.855-13.57q-.915-1.583-1.312-1.881-.396-.3-1.078-.3-.681-.002-1.548.5l-.685.396-.326-.563 10.787-6.243.326.563-.685.396q-.899.52-1.26 1.156-.273.443-.202 1.091.045.462.943 2.014l7.854 13.57q.915 1.583 1.32 1.877t1.085.296 1.549-.5zm3.903-27.92q5.13-2.48 9.81-.672 4.678 1.807 6.809 6.67 1.82 4.153.772 8.374-1.386 5.598-7.262 8.173-5.894 2.582-10.863 0-3.927-2.04-5.824-6.372-2.13-4.862-.244-9.556 1.887-4.695 6.802-6.617m.644.945q-2.994 1.312-3.215 5.056-.172 3.069 1.888 7.77 2.45 5.587 5.584 7.399 2.187 1.268 4.65.188 1.658-.726 2.417-2.018.964-1.65.763-4.26-.203-2.607-1.797-6.246-1.898-4.331-3.645-6.127-1.747-1.797-3.383-2.136-1.636-.337-3.262.374m24.333-9.77 15.263 11.13-2.721-9.88q-.57-2.068-1.364-2.633-1.083-.759-2.99-.198l-.172-.627 7.592-2.091.173.627q-1.407.588-1.825 1.022t-.513 1.18.353 2.374l5.27 19.133-.576.159-20.81-14.852 4.023 14.608q.547 1.983 1.645 2.428a3.45 3.45 0 0 0 2.267.123l.542-.15.173.627-8.151 2.246-.173-.627q1.893-.54 2.429-1.508t.031-2.798l-4.467-16.219-.66-.474q-.98-.715-1.62-.849-.637-.135-1.698.122l-.173-.627zm29.506-5.071 1.31 9.614.47-.064q2.247-.306 3.065-1.854.818-1.55.721-4.339l.662-.09 1.685 12.366-.662.09q-.484-1.99-1.33-3.189-.847-1.197-1.795-1.52-.949-.324-2.639-.094l.906 6.654q.267 1.95.49 2.363.226.414.717.63.49.217 1.5.08l1.411-.192q3.31-.451 5.095-2.255 1.786-1.805 2.23-5.059l.644-.087-.04 7.651-20.413 2.78-.088-.644.784-.107q1.028-.14 1.605-.59.42-.307.583-.932.135-.444-.108-2.22l-2.116-15.537q-.218-1.602-.355-1.956-.257-.585-.772-.853-.729-.398-1.878-.24l-.784.106-.088-.644 19.769-2.693.951 6.984-.662.09q-.853-2.49-1.92-3.481-1.065-.99-2.81-1.285-1.017-.18-3.7.185zm71.719 16.362 9.568-14.044 9.495 2-.134.636-.757-.16q-1.032-.217-1.727.014-.48.15-.858.664-.276.373-.642 2.11l-3.24 15.377q-.375 1.79-.28 2.276.093.487.608.946.514.458 1.495.665l.757.16-.134.636-12.178-2.565.134-.636.756.159q1.032.217 1.728-.014.48-.15.862-.68.276-.373.645-2.128l3.641-17.286-13.425 19.393-.413-.087-4.634-23.035-3.46 16.426q-.36 1.72-.359 2.134.042.907.677 1.607.633.7 2.234 1.036l-.135.637-7.98-1.681.133-.637.241.05q.77.182 1.498.056.726-.126 1.165-.5.438-.375.797-1.144.075-.18.404-1.747l3.109-14.758q.372-1.771.276-2.25-.097-.48-.611-.937-.514-.46-1.495-.665l-.74-.156.135-.637L337.522 37zm31.156 10.785-7.857-3.027-1.77 1.805q-.875.905-1.147 1.611-.36.935.223 1.669.342.433 2.03 1.234l-.234.607-7.397-2.85.234-.607q1.267.28 2.35-.234 1.084-.515 3.195-2.622l14.794-14.682.311.12.994 21.33q.15 3.034.628 3.99.362.724 1.348 1.198l-.234.607-10.76-4.146.233-.607.443.17q1.296.5 1.96.342.462-.124.652-.616a2.2 2.2 0 0 0 .135-.645q.024-.16-.018-1.42zm-.09-1.428-.362-8.937-6.363 6.346zM393.523 70l-3.24 5.841q-.938 1.692-.973 2.245t.342 1.104 1.807 1.344l-.315.569-10.669-5.917.316-.568q1.445.801 2.109.818t1.11-.3q.447-.315 1.384-2.005l7.502-13.528q.938-1.692.973-2.245.036-.552-.342-1.104-.378-.55-1.807-1.344l.315-.569 9.685 5.371q3.78 2.097 5.244 3.592 1.463 1.494 1.79 3.515t-.722 3.91q-1.279 2.307-3.775 2.892-1.589.366-3.76-.215l1.1 9.835q.224 1.914.452 2.482.366.826 1.17 1.333l-.315.568-6.564-3.64-1.45-13.225-1.368-.76zm5.668-10.223-5.063 9.131.876.486q2.136 1.185 3.415 1.382 1.279.195 2.452-.49 1.174-.686 2.086-2.33 1.321-2.383.838-4.139-.484-1.755-2.959-3.128zm37.34 22.66-4.961 6.606-.549-.412q1.325-3.05.672-5.695-.652-2.643-2.79-4.248a7.07 7.07 0 0 0-4.045-1.433 7.5 7.5 0 0 0-4.195 1.049q-2.48 1.457-4.432 4.058-1.92 2.558-2.852 5.145t-.361 4.696q.57 2.11 2.763 3.757 1.799 1.35 3.887 1.688t5.193-.344l-1.235 1.645q-2.859.47-5.16-.082-2.3-.552-4.62-2.293-3.05-2.29-4.5-5.292t-1.016-6.258q.435-3.258 2.377-5.844 2.047-2.727 5.31-4.101 3.264-1.376 6.702-.903 3.438.471 6.165 2.519 2.01 1.509 3.59 4.059.914 1.477 1.265 1.74.45.339 1.028.256.578-.082 1.215-.725zm2.094 19.538-5.226 5.215q-1.294 1.292-1.475 1.758-.18.465-.007 1.125t.88 1.368l.56.56-.46.459-8.804-8.822.46-.459.559.56q.732.734 1.44.921.498.15 1.095-.098.435-.161 1.704-1.428l11.098-11.076q1.295-1.29 1.481-1.75.188-.46.014-1.12-.174-.659-.881-1.368l-.56-.56.461-.459 8.804 8.822-.46.46-.56-.56q-.732-.735-1.44-.922-.497-.15-1.106.086-.436.16-1.705 1.427l-4.778 4.769 5.948 5.96 4.778-4.769q1.294-1.29 1.48-1.75.188-.46.008-1.126t-.887-1.374l-.546-.547.46-.46 8.791 8.81-.46.459-.547-.548q-.745-.747-1.44-.921-.497-.15-1.107.086-.435.16-1.704 1.427l-11.099 11.076q-1.293 1.292-1.48 1.751-.188.46-.008 1.125.18.666.887 1.375l.547.547-.46.46-8.792-8.81.46-.459.547.547q.746.747 1.44.922.498.149 1.107-.086.435-.161 1.704-1.428l5.226-5.215zm28.463 15.334-7.74 5.85.285.38q1.368 1.808 3.118 1.763t4.136-1.496l.403.533-9.956 7.526-.403-.533q1.5-1.398 2.129-2.722.63-1.325.447-2.31t-1.212-2.345l-5.356 4.049q-1.57 1.187-1.82 1.585t-.2.932q.052.535.667 1.348l.858 1.136q2.014 2.664 4.462 3.337t5.502-.534l.392.519-6.69 3.713-12.423-16.435.518-.392.477.631q.625.827 1.302 1.11.471.216 1.097.052.453-.1 1.883-1.182l12.509-9.454q1.29-.975 1.531-1.268.385-.512.365-1.091-.01-.83-.71-1.756l-.476-.63.518-.393 12.031 15.916-5.623 4.25-.403-.532q1.755-1.965 2.095-3.38t-.256-3.079q-.34-.975-1.973-3.135z" font-family="Bitstream Vera Sans" font-size="34.53" font-weight="400"/></svg>