<svg xmlns="http://www.w3.org/2000/svg" width="600" height="400"><path fill="#00f" d="M0 0h600v400H0z"/><path fill="#ff0042" fill-rule="evenodd" stroke="#fff" stroke-width="1.2" d="M202.373 86.516c0 102.096 40.624 201.62 97.627 201.62s97.627-99.524 97.627-201.62z"/><path fill="#fff" d="M371.245 86.516 236.986 239.7c6.248 11.157 13.193 20.754 20.776 28.414L396.94 109.201c.439-7.519.694-15.097.694-22.685zm-97.985 64.229-14.944-6.218-6.171 14.964-6.17-14.964-14.945 6.218 6.218-14.944-14.964-6.171 14.964-6.17-6.218-14.945 14.944 6.218 6.17-14.964 6.172 14.964 14.944-6.218-6.218 14.944 14.964 6.17-14.964 6.172z"/><path fill="#ffde00" d="m209.34 248.432 13.573-5.33 2.265 5.768q.855 2.175.876 3.305.02 1.13-.68 2.09-.704.96-1.907 1.432-1.528.6-2.875.093-1.348-.508-2.31-2.192-.168 1.092-.562 1.914-.393.823-1.59 2.425l-1.997 2.698-1.287-3.278 2.175-3.14q1.168-1.678 1.428-2.229.26-.55.24-1.045-.016-.495-.388-1.44l-.218-.555-5.666 2.225zm8.91-.335.795 2.027q.775 1.972 1.134 2.398.36.424.876.543.516.117 1.127-.123.685-.269.963-.8t.127-1.241q-.085-.351-.739-2.018l-.84-2.139-3.444 1.353zm-.772 18.997 12.443-7.603 5.637 9.226-2.105 1.286-4.102-6.714-2.759 1.686 3.817 6.247-2.096 1.28-3.817-6.246-3.387 2.069 4.248 6.951-2.097 1.281zm19.194 17.37 1.798-1.673 4.323 4.646-4.252 3.957q-1.285-.067-2.98-.889a9.8 9.8 0 0 1-2.922-2.139q-1.558-1.674-2.014-3.574a6.1 6.1 0 0 1 .268-3.741q.725-1.843 2.261-3.272 1.668-1.552 3.614-2.059 1.947-.507 3.892.197 1.487.531 2.91 2.06 1.85 1.989 2.056 3.882t-.966 3.583l-2.393-1.768q.576-.957.452-2.004-.124-1.045-.991-1.978-1.315-1.413-2.986-1.413-1.673 0-3.434 1.64-1.9 1.767-2.065 3.497-.165 1.728 1.11 3.098.63.677 1.53 1.11.898.435 1.731.57l1.355-1.26zm6.833 13.52 8.804-11.624 2.347 1.778-8.804 11.624zm12-.057q1.005-1.988 2.283-3.036a6.9 6.9 0 0 1 2.114-1.17q1.167-.402 2.275-.321 1.475.1 3.065.905 2.875 1.454 3.698 4.112t-.785 5.835q-1.594 3.15-4.207 4.063-2.615.912-5.48-.539-2.902-1.468-3.719-4.106t.755-5.743zm2.751 1.281q-1.118 2.21-.675 3.867.444 1.656 2.014 2.452 1.571.794 3.151.173 1.58-.622 2.725-2.885 1.132-2.235.709-3.833-.425-1.596-2.048-2.419-1.624-.822-3.182-.211t-2.694 2.856m14.181 14.16 3.41-14.178 2.785.67 3.526 10.863 2.276-9.468 2.66.64-3.41 14.177-2.872-.69-3.492-10.62-2.223 9.245zm19.983 3.764.233-14.58 10.81.173-.04 2.466-7.866-.125-.051 3.232 7.32.117-.04 2.456-7.32-.116-.063 3.968 8.145.13-.039 2.456zm24.813-1.445-3.99-14.025 4.239-1.206 5.266 8.843-.205-10.282 4.247-1.209 3.99 14.025-2.631.749-3.14-11.04.356 11.832-2.727.775-5.915-10.25 3.14 11.04zm17.407-13.237q-1.1-1.937-1.267-3.58a6.9 6.9 0 0 1 .194-2.41q.311-1.194.991-2.072.9-1.174 2.449-2.053 2.802-1.59 5.472-.808 2.67.784 4.427 3.88 1.743 3.072 1.058 5.754t-3.48 4.268q-2.827 1.605-5.477.827t-4.367-3.806m2.589-1.584q1.222 2.154 2.848 2.701t3.157-.322 1.887-2.53q.355-1.66-.896-3.865-1.238-2.18-2.802-2.71-1.566-.53-3.148.368-1.582.9-1.936 2.534-.352 1.635.89 3.824m19.655-4.032-9.576-10.837 2.207-1.95 7.949 8.997 5.486-4.848 1.627 1.842zm12.83-12.506-11.146-9.402 1.899-2.25 11.145 9.401zm2.661-10.814 1.283-2.576q1.36.546 2.353.234t1.705-1.45q.754-1.206.626-2.136-.127-.93-.81-1.358a1.33 1.33 0 0 0-.908-.21q-.468.064-1.097.563-.425.345-1.79 1.661-1.752 1.695-2.984 2.052-1.733.5-3.2-.418a3.75 3.75 0 0 1-1.432-1.64q-.486-1.05-.287-2.327.201-1.277 1.092-2.702 1.456-2.328 3.212-2.865 1.757-.54 3.497.468l-1.452 2.565q-1.053-.436-1.8-.17t-1.407 1.32q-.68 1.088-.618 1.983.039.575.52.876.438.275.982.098.691-.224 2.261-1.776t2.575-2.138a4.1 4.1 0 0 1 2.11-.58q1.107.006 2.279.738a4.3 4.3 0 0 1 1.62 1.836q.559 1.17.335 2.532-.224 1.36-1.232 2.972-1.467 2.344-3.336 2.923-1.87.578-4.097-.475m13.995-14.817-13.447-5.64 4.182-9.97 2.275.954-3.043 7.256 2.98 1.25 2.832-6.751 2.266.95-2.831 6.75 3.66 1.536 3.15-7.513 2.265.95z" font-family="Bitstream Vera Sans" font-size="12" font-weight="400"/></svg>