<svg xmlns="http://www.w3.org/2000/svg" xmlns:xlink="http://www.w3.org/1999/xlink" width="750" height="500"><path fill="#fff" d="M0 .011h750V499.99H0z"/><path fill="#009ee0" stroke="#000" stroke-linejoin="round" d="M375.018 398.245c0-9.05 4.222-14.82 10.533-14.82 4.703 0 45.655 0 66.078.11 4.955 0 11.44-7.09 11.44-11.648V209.04l-176.132.035v162.842c0 4.522 6.485 11.648 11.44 11.613 20.424-.07 61.41-.109 66.112-.109 6.307 0 10.484 5.809 10.484 14.82h.045z"/><path fill="#f82920" stroke="#000" stroke-width="2.02" d="M178.34 689.43 73.79 586.11V443.26l104.33-106.05h147.89l104.33 106.05v142.85L325.72 689.43z" transform="matrix(.495 0 0 .4948 250.228 42.224)"/><path fill="#fff" stroke="#000" stroke-width="2.02" d="m305.34 391.06 69.77 71.64v99.8l-72.21 72.21H201.09l-72.22-72.21v-99.8l69.77-71.64z" transform="matrix(.495 0 0 .4948 250.228 42.224)"/><path fill="#f2ce26" stroke="#000" d="M286.932 167.64h176.31v41.434h-176.31z"/><path fill="#00a05e" stroke="#000" d="M308.05 197.353c4.954 0 9.018-4.028 9.018-9.016 0-4.953-4.064-8.975-9.018-8.975s-9.02 4.027-9.02 8.975c0 4.993 4.064 9.015 9.02 9.015zm26.822 0c4.955 0 8.98-4.028 8.98-9.016 0-4.953-4.03-8.975-8.98-8.975-4.99 0-9.019 4.027-9.019 8.975a9.003 9.003 0 0 0 9.02 9.015zm26.784 0c4.955 0 9.019-4.028 9.019-9.016 0-4.953-4.064-8.975-9.02-8.975-4.954 0-9.018 4.027-9.018 8.975.005 4.993 4.069 9.015 9.018 9.015zm53.645 0c4.955 0 9.02-4.028 9.02-9.016 0-4.953-4.065-8.975-9.02-8.975s-9.018 4.027-9.018 8.975c.005 4.993 4.063 9.015 9.018 9.015zm26.824 0c4.955 0 9.018-4.028 9.018-9.016 0-4.953-4.063-8.975-9.018-8.975s-9.02 4.027-9.02 8.975c.005 4.993 4.07 9.015 9.02 9.015zm-53.647 0c4.955 0 9.02-4.028 9.02-9.016 0-4.953-4.065-8.975-9.02-8.975s-9.018 4.027-9.018 8.975c.005 4.993 4.069 9.015 9.018 9.015z"/><g transform="matrix(.49995 0 0 .49997 285.009 100.012)"><g fill="#008f4c" stroke="#000" stroke-width="1.5" transform="matrix(-.203 -.05296 -.03659 .14443 310.899 358.113)"><g id="a"><path fill="#866238" stroke="#443320" stroke-width="3.359" d="M876.731 146.648c-22.314 25.046-36.866 53.745-47.8 83.884-7.13 19.658-12.723 39.929-17.926 60.2-3.394 13.224-6.623 26.448-10.006 39.502-4.283 15.133-6.732 28.634-11.881 41.103-17.88 33.062-35.26 55.654-57.345 78.253-23.407 20-53.656 53.33-56.017 85.192 2.305 7.491 4.05 16.867 9.754 12.903 3.538-11.264-2.269-35.477 25.528-68.74 26.75-27.072 46.137-44.788 63.408-68.944 7.613-10.647 16.372-22.545 22.53-37.047 5.67-13.39 7.506-26.696 11.401-40.278 2.739-15.053 5.844-29.601 9.418-43.794 5.289-21.01 11.603-41.242 19.27-61.183 10.44-27.146 23.385-53.754 39.666-81.05"/><g id="b"><path d="M803.351 350.587c16.75 1.608 20.507-8.382 24.693-19.678 1.563-4.339 3.223-9.202 4.08-13.825 3.622-8.09.821-6.96-.34-9.152-2.602-4.094-11.107 3.917-15.008 9.352-8.921 10.262-13.78 21.287-12.142 28.35-4.029 2.258-1.228 5.552-1.283 4.953"/><path fill="#000" stroke-width="2.882" d="M1697.872 409.787c.014 9.592-3.39 18.463-8.925 23.265s-12.359 4.802-17.894 0c-5.536-4.802-8.939-13.673-8.925-23.265-.014-9.591 3.39-18.463 8.925-23.264 5.535-4.802 12.359-4.802 17.894 0 5.536 4.801 8.939 13.673 8.925 23.264" transform="matrix(.4863 -.08008 .07297 .53367 -88.62 357.963)"/><path d="M718.995 462.995c6.681 12.05 13.988 10.066 22.223 7.78 3.143-.907 6.624-1.986 9.607-3.5 6.18-1.215 4.278-2.596 4.982-4.374 1.12-3.611-7.226-5.733-12.043-5.91-9.798-1.383-18.186.324-21.409 4.63-3.09-1.702-3.67 1.683-3.36 1.374"/><path fill="#000" stroke-width="3.593" d="M1697.872 409.787c.014 9.592-3.39 18.463-8.925 23.265s-12.359 4.802-17.894 0c-5.536-4.802-8.939-13.673-8.925-23.265-.014-9.591 3.39-18.463 8.925-23.264 5.535-4.802 12.359-4.802 17.894 0 5.536 4.801 8.939 13.673 8.925 23.264" transform="matrix(.1359 .40646 -.37039 .14914 662.169 -288.6)"/><path fill="#000" stroke-width="2.882" d="M1697.872 409.787a17.872 26.809 0 1 1-35.744 0 17.872 26.809 0 1 1 35.744 0" transform="matrix(.48085 .11297 -.10294 .52768 26.448 -29.8)"/><g stroke-width="2.621"><path d="M1383.34 424.277c-29.407-.283-48.443-43.27-48.71-69.245-.072-7.017-8.885-10.514-2.178-14.877 7.582-4.932 10.964.623 15.367 1.616 22.383 12.09 44.376 47.763 33.446 73.247.841 1.121 4.837 2.13 3.276 3.337-1.262 1.008.06 4.914-1.2 5.922" transform="matrix(.54521 -.08978 .07872 .5757 11.931 227.76)"/><path d="M1336.259 343.79c25.906 14.672 23.818 48.013 39.588 69.823 1.409 2.23 6.68 5.793 4.226 6.688" transform="matrix(.54521 -.08978 .07872 .5757 11.931 227.76)"/></g><path d="M721.154 463.266c8.942 5.822 20.354-5.185 32.675-.32m-35.626-.284c-7.72-8.682-1.312-26.755 5.54-34.39 1.85-2.062.445-5.657 3.386-4.965 3.325.783 2.74 3.388 3.643 4.964 2.713 10.063-.963 26.873-10.652 31.09-.075.573.715 2.034-.02 1.93-.604-.077-1.294 1.446-1.897 1.37"/><path d="M727.17 425.478c2.958 11.844-6.48 20.933-8.112 31.89-.22 1.06.228 3.639-.662 3.182m35.428-26.765c8.74 15.763 18.3 13.168 29.074 10.179 4.111-1.187 8.665-2.6 12.567-4.58 8.085-1.59 5.596-3.396 6.518-5.722 1.465-4.724-9.454-7.5-15.755-7.731-12.818-1.81-23.792.423-28.008 6.055-4.043-2.225-4.802 2.203-4.396 1.8"/><g stroke-width="2.882"><path d="M1228.087 540.337c-17.189-23.862 6.173-64.66 26.944-80.26 5.611-4.213 3.209-13.386 10.697-10.566 8.465 3.188 5.992 9.203 7.8 13.34 3.515 25.194-12.203 64.044-39.21 70.33-.405 1.342 1.15 5.159-.748 4.616-1.56-.42-3.923 2.96-5.483 2.54" transform="matrix(.46936 -.16097 .14668 .51507 97.06 347.94)"/><path d="M1265.054 454.731c3.522 29.564-24.58 47.628-32.812 73.252-.962 2.456-.711 8.814-2.886 7.367" transform="matrix(.46936 -.16097 .14668 .51507 97.06 347.94)"/></g><path d="M756.648 432.85c11.699 7.617 26.628-6.783 42.747-.419"/><g stroke-width="2.882"><path d="M1417.674 320.589c34.189.489 40.458-18.53 47.423-40.028 2.585-8.25 5.295-17.484 6.41-26.155 6.253-15.49.724-12.985-1.929-16.865-5.828-7.179-21.995 8.886-29.175 19.508-16.706 20.288-25.072 41.385-20.797 54.196-7.865 4.77-1.74 10.442-1.932 9.344" transform="matrix(.35302 .37567 -.34233 .3874 388.462 -259.414)"/><path d="M1415.869 321.943c-28.75 6.195-56.779-31.549-62.755-56.828-1.614-6.83-10.981-8.301-5.399-14.033 6.311-6.48 10.833-1.806 15.346-1.806 24.495 6.868 53.8 36.827 48.745 64.091 1.068.909 5.188 1.013 3.93 2.535-1.009 1.261 1.142 4.78.133 6.04" transform="matrix(.35302 .37567 -.34233 .3874 388.462 -259.414)"/><path d="M1352.229 253.79c28.5 8.611 33.8 41.595 53.983 59.399 1.865 1.865 7.792 4.18 5.594 5.594m9.479-2.708c24.606-12.635 18.162-52.538 45.585-74.02" transform="matrix(.35302 .37567 -.34233 .3874 388.462 -259.414)"/></g><path fill="#000" stroke-width="2.882" d="M1697.872 409.787a17.872 26.809 0 1 1-35.744 0 17.872 26.809 0 1 1 35.744 0" transform="matrix(.38059 .31164 -.3375 .4209 348.315 -498.348)"/><g stroke-width="2.882"><path d="M1419.249 158.843c29.436-17.396 24.878-36.896 19.622-58.874-2.092-8.389-4.59-17.682-8.157-25.663-2.733-16.48-6.147-11.461-10.433-13.39-8.715-3.092-14.144 19.044-14.738 31.851-3.689 26.021.163 48.387 10.487 57.094-4.228 8.17 3.956 9.82 3.219 8.982" transform="matrix(-.44317 .21864 .21838 .49106 1433.482 -172.68)"/><path d="M1419.98 153.11c14.418-23.606-11.873-54.306.341-86.931" transform="matrix(-.44317 .21864 .21838 .49106 1433.482 -172.68)"/></g><path fill="#000" stroke-width="3.055" d="M1697.872 409.787a17.872 26.809 0 1 1-35.744 0 17.872 26.809 0 1 1 35.744 0" transform="matrix(-.44653 .12677 .13401 .49113 1558.113 -250.107)"/><path fill="#000" stroke-width="2.882" d="M1697.872 409.787a17.872 26.809 0 1 1-35.744 0 17.872 26.809 0 1 1 35.744 0" transform="matrix(-.47676 -.1211 -.13818 .5215 1682.535 263.77)"/><g stroke-width="3.1"><path d="M1417.674 320.589c34.189.489 40.458-18.53 47.423-40.028 2.585-8.25 5.295-17.484 6.41-26.155 6.253-15.49.724-12.985-1.929-16.865-5.828-7.179-21.995 8.886-29.175 19.508-16.706 20.288-25.072 41.385-20.797 54.196-7.865 4.77-1.74 10.442-1.932 9.344" transform="matrix(-.42425 -.20805 -.17153 .45642 1514.461 326.745)"/><path d="M1415.869 321.943c-28.75 6.195-56.779-31.549-62.755-56.828-1.614-6.83-10.981-8.301-5.399-14.033 6.311-6.48 10.833-1.806 15.346-1.806 24.495 6.868 53.8 36.827 48.745 64.091 1.068.909 5.188 1.013 3.93 2.535-1.009 1.261 1.142 4.78.133 6.04" transform="matrix(-.42425 -.20805 -.17153 .45642 1514.461 326.745)"/><path d="M1352.229 253.79c28.5 8.611 33.8 41.595 53.983 59.399 1.865 1.865 7.792 4.18 5.594 5.594m9.479-2.708c24.606-12.635 18.162-52.538 45.585-74.02" transform="matrix(-.42425 -.20805 -.17153 .45642 1514.461 326.745)"/></g><g stroke-width="2.882"><path d="M1416.73 159.524c-18.096 23.181-63.803 12.173-84.592-3.402-5.616-4.207-13.75.667-13.138-7.312.691-9.018 7.158-8.328 10.623-11.22 23.204-10.429 64.9-6.213 78.494 17.955 1.402.013 4.63-2.548 4.64-.574.035 1.616 3.94 2.938 3.974 4.553" transform="matrix(-.4732 .13434 .14202 .52047 1488.578 -58.122)"/><path d="M1324.2 147.996c27.396-11.656 52.604 10.266 79.508 10.997 2.627.237 8.66-1.784 7.88.71" transform="matrix(-.4732 .13434 .14202 .52047 1488.578 -58.122)"/></g><g stroke-width="2.882"><path d="M1417.674 320.589c34.189.489 40.458-18.53 47.423-40.028 2.585-8.25 5.295-17.484 6.41-26.155 6.253-15.49.724-12.985-1.929-16.865-5.828-7.179-21.995 8.886-29.175 19.508-16.706 20.288-25.072 41.385-20.797 54.196-7.865 4.77-1.74 10.442-1.932 9.344" transform="matrix(-.43096 -.24022 -.2463 .47846 1511.764 441.12)"/><path d="M1415.869 321.943c-28.75 6.195-56.779-31.549-62.755-56.828-1.614-6.83-10.981-8.301-5.399-14.033 6.311-6.48 10.833-1.806 15.346-1.806 24.495 6.868 53.8 36.827 48.745 64.091 1.068.909 5.188 1.013 3.93 2.535-1.009 1.261 1.142 4.78.133 6.04" transform="matrix(-.43096 -.24022 -.2463 .47846 1511.764 441.12)"/><path d="M1352.229 253.79c28.5 8.611 33.8 41.595 53.983 59.399 1.865 1.865 7.792 4.18 5.594 5.594m9.479-2.708c24.606-12.635 18.162-52.538 45.585-74.02" transform="matrix(-.43096 -.24022 -.2463 .47846 1511.764 441.12)"/></g><g stroke-width="2.882"><path d="M1417.674 320.589c34.189.489 40.458-18.53 47.423-40.028 2.585-8.25 5.295-17.484 6.41-26.155 6.253-15.49.724-12.985-1.929-16.865-5.828-7.179-21.995 8.886-29.175 19.508-16.706 20.288-25.072 41.385-20.797 54.196-7.865 4.77-1.74 10.442-1.932 9.344" transform="matrix(-.47676 -.1211 -.13818 .5215 1533.935 302.407)"/><path d="M1415.869 321.943c-28.75 6.195-56.779-31.549-62.755-56.828-1.614-6.83-10.981-8.301-5.399-14.033 6.311-6.48 10.833-1.806 15.346-1.806 24.495 6.868 53.8 36.827 48.745 64.091 1.068.909 5.188 1.013 3.93 2.535-1.009 1.261 1.142 4.78.133 6.04" transform="matrix(-.47676 -.1211 -.13818 .5215 1533.935 302.407)"/><path d="M1352.229 253.79c28.5 8.611 33.8 41.595 53.983 59.399 1.865 1.865 7.792 4.18 5.594 5.594m9.479-2.708c24.606-12.635 18.162-52.538 45.585-74.02" transform="matrix(-.47676 -.1211 -.13818 .5215 1533.935 302.407)"/></g><g stroke-width="2.882"><path d="M1322.235 58.735c17.205-13.605 12.701-25.709 7.55-39.34-2.022-5.196-4.375-10.937-7.296-15.748-3.097-10.323-4.844-6.823-7.719-7.7-5.777-1.249-7.381 13.38-6.695 21.63-.18 16.97 4.114 30.967 11.377 35.677-2.002 5.585 3.32 5.955 2.783 5.481" transform="matrix(-.43396 -.27514 -.23615 .46178 1461.612 488.224)"/><path d="M1322.222 55.003c7.178-16.323-12.023-33.777-6.99-55.689" transform="matrix(-.43396 -.27514 -.23615 .46178 1461.612 488.224)"/></g><path d="M872.135 156.27c7.69 6.095 20.365-1.779 25.105-8.896 1.28-1.922 4.2-1.037 3.241-3.65-1.082-2.954-2.96-2.13-4.282-2.78-7.988-1.36-20.116 3.873-21.86 13.204-.42.133-1.639-.427-1.45.234.146.544-.9 1.344-.754 1.887"/><path d="M898.839 143.928c-9.368-1.387-14.821 8.258-22.84 10.97-.766.32-2.777.197-2.3.96"/><g stroke-width="2.882"><path d="M1322.235 58.735c17.205-13.605 12.701-25.709 7.55-39.34-2.022-5.196-4.375-10.937-7.296-15.748-3.097-10.323-4.844-6.823-7.719-7.7-5.777-1.249-7.381 13.38-6.695 21.63-.18 16.97 4.114 30.967 11.377 35.677-2.002 5.585 3.32 5.955 2.783 5.481" transform="matrix(-.4732 .13434 .14202 .52047 1489.105 -52.622)"/><path d="M1322.222 55.003c7.178-16.323-12.023-33.777-6.99-55.689" transform="matrix(-.4732 .13434 .14202 .52047 1489.105 -52.622)"/></g><path fill="#000" stroke-width="3.208" d="M1697.872 409.787a17.872 26.809 0 1 1-35.744 0 17.872 26.809 0 1 1 35.744 0z" transform="matrix(-.44357 -.02445 -.04664 .48044 1590.761 78.29)"/><path d="M805.284 348.3c12.52-5.833 10.79-27.562 25.01-38.046"/></g></g></g><use xlink:href="#a" width="744.094" height="1052.362" fill="#008f4c" stroke="#000" stroke-width="1.5" transform="matrix(-.14433 -.00816 .01088 .08293 276.242 293.75)"/><use xlink:href="#a" width="744.094" height="1052.362" fill="#008f4c" stroke="#000" stroke-width="1.5" transform="matrix(-.15452 -.0354 -.02715 .09927 316.308 322.738)"/><path fill="#866238" stroke="#443320" stroke-width=".596" d="M242.718 313.186c-2.921 3.268-5.91 6.037-9.086 8.48a68 68 0 0 1-7.364 4.92 86 86 0 0 1-5.474 2.903c-1.652 1.037-3.349 1.783-4.89 3.061-1.67 1.387-2.866 3.038-3.947 4.49-2.45 3.292-3.937 6.656-6.335 11.382-2.762 4.418-6.326 5.199-8.114 5.918-.01-.234-.027-.465-.028-.703a66 66 0 0 1-.611-6.326 55 55 0 0 1 .305-9.251c.505-4.24 1.536-8.58 3.168-13.242-2.93 4.784-4.152 9.487-4.585 14.149-.282 3.04-.238 6.06-.11 9.047.082 1.949.202 3.901.277 5.827.017 2.258.3 4.173 0 6.145-1.619 5.518-3.729 9.629-6.752 14.08-.047.057-.093.124-.14.182a9 9 0 0 0-1.11-.114c.031.057.01.078-.084 0h.083c-.181-.32-2.25-1.839-4.835 5.691.767-2.883 1.349-5.357 1.528-7.98.115-1.68.277-3.592-.139-5.488-.385-1.749-1.273-3.115-1.917-4.716a60 60 0 0 1-2.5-4.875 47.4 47.4 0 0 1-2.668-7.37c-.927-3.446-1.467-7.083-1.612-11.087-.869 4.36-.367 8.32.75 12.085.73 2.457 1.707 4.832 2.751 7.165.681 1.523 1.389 3.03 2.056 4.535.726 1.78 1.568 3.236 1.946 4.853.426 4.678.02 8.355-1.029 12.47-.864 2.379-1.655 5.414-1.64 8.14-2.9 2.885-7.697 10.5-6.557 2.2-1.216-6.554 1.366-4.33 2.612-9.297-.915-.308-1.792-.946-2.88-1.588-2.08 1.402-2.04 2.62-3.571 5.15-.703-3.169-2.976-6.11-4.525-8.731-2.248-4.748-3.658-9.068-4.335-14.716.033-1.987.632-3.842 1.028-6.077.398-1.899.841-3.815 1.25-5.736.628-2.945 1.187-5.935 1.418-8.979.354-4.666-.068-9.467-2.168-14.534.834 4.8 1.13 9.213.917 13.468a55.5 55.5 0 0 1-1.25 9.206 68 68 0 0 1-1.695 6.19c-.346 2.01-1.046 3.817-1.056 5.963-.008 2.326.67 4.568 1.223 6.553 1.255 4.505 3.395 8.413 6.14 14.126 1.174 3.136 1.098 5.317.695 6.938-4.417-8.293-6.734-8.55-6.696-7.664-1.335-4.554-5.599-4.777-6.808-4.172a12 12 0 0 0-.25-2.222c-.386-1.766-1.274-3.167-1.918-4.784-.928-1.644-1.788-3.277-2.529-4.92a48 48 0 0 1-2.64-7.437c-.926-3.481-1.466-7.158-1.611-11.201-.869 4.402-.367 8.418.75 12.221.73 2.48 1.707 4.877 2.751 7.233.681 1.537 1.389 3.06 2.056 4.58.726 1.797 1.568 3.266 1.946 4.898.426 4.724-.007 8.429-1.056 12.584-1.453 4.04-1.931 10.765.5 13.922.167.082.331.175.5.272.012.016.015.03.028.045a66 66 0 0 0-4.78-1.247c-3.21-.944-6.14-1.975-9.058-3.242.156-.126.235-.323.222-.613-1.32-1.321-5.4-2.059-7.697-8.661-1.489-6.015-2.287-10.261-4.224-14.602a63 63 0 0 0-1.278-2.698c.411-.207.834-.521 1.25-.794 1.694-3.441-1.984-8.806-5.224-12.357-2.804-3.736-4.676-7.173-5.947-11.723-.166-1.614.261-3.153.445-4.988.22-1.563.466-3.135.695-4.716.35-2.424.624-4.886.555-7.37-.105-3.806-1.011-7.674-3.695-11.676 1.347 3.852 2.095 7.417 2.306 10.883a35 35 0 0 1-.361 7.528 44 44 0 0 1-1.112 5.124c-.155 1.65-.706 3.155-.5 4.898.227 1.889 1.144 3.678 1.918 5.26 1.754 3.591 4.363 6.64 7.78 11.133 2.187 3.55 1.568 5.645.945 7.075a17 17 0 0 0-1.112-1.61c-1.434-1.8-3.208-3-4.835-4.535a92 92 0 0 1-5.53-4.467 72 72 0 0 1-7.169-7.188c-3.005-3.482-5.71-7.32-8.197-11.722 1.602 5.186 4.466 9.432 7.864 13.196 2.216 2.456 4.658 4.696 7.141 6.893 1.62 1.434 3.267 2.843 4.863 4.263 1.818 1.702 3.57 3.016 4.919 4.67 3.183 5.046 4.875 9.302 6.14 14.285.57 3.743 1.89 8.584 4.363 11.859a78 78 0 0 1-1.917-1.089c-1.818-1.322-3.137-2.917-4.946-4.625-1.498-1.49-2.991-3.001-4.502-4.512-2.315-2.316-4.697-4.62-7.364-6.757-4.088-3.276-8.827-6.182-14.894-8.208 4.99 2.63 9.26 5.357 13.06 8.276a75 75 0 0 1 7.725 6.802 84 84 0 0 1 4.613 5.102c1.634 1.53 2.855 3.122 4.835 4.535 2.148 1.529 4.663 2.6 6.864 3.56 4.993 2.177 10.001 3.413 17.09 5.464 3.741-.177 9.702 6.16 10.614 5.646 5.183 4.472 7.254 10.28 7.847 13.218.744 3.69.736 12.287.059 18.782-.31 2.975-2.007 12.534-1.626 16.987.388 2.402-.14 12.786-.528 15.188s-3.104 1.202-6.21 1.202-6.204 2.38-9.698 2.38-6.803-2.392-9.91-2.993c-3.106-.6-5.423.607-7.752.907-2.33.3-8.482-.876-7.705-.275.776.6 3.818 2.379 5.37 2.679 1.554.3 3.114.29 3.89.59s.778.918.39 1.519-4.714 2.38-4.683 2.679c.035.341 5.007.052 5.77-1.017.714-1.001 2.389-2.264 3.553-2.864s1.946-.618 1.946-.318-.901 1.87-.513 2.17 2.07-.656 2.847-.356c.776.3.377.714 0 1.792-.377 1.075-6.463 3.496-6.714 3.988-.28.549 6.186-.26 7.739-.86s2.273-2.216 3.438-2.516 1.919.294 2.695.294c.777 0 1.557-.595 1.945-.294.389.3-.024 1.356-.389 2.698-.454 1.67-6.722 5.855-6.769 5.97-.15.362 7.846-1.245 9.104-1.458.846-.143 5.267 4.52 6.29 2.757.11-.19-3.986-4.22-4.345-5.773-.35-1.508.39-3.288 1.167-4.489.776-1.201 1.557-1.814 2.334-1.814.776 0 1.382.669 1.945 1.497.613.9-.596 4.848-.504 4.951.724.816 2.752-3.304 2.685-4.34-.047-.739 2.309.29 3.474.59 1.164.3 1.945.307 1.945.907s-.78 1.798-1.945 2.698c-1.165.901-2.697 1.52-3.474 2.721-.776 1.201-.805 3-.417 3.9.389.901 1.947-1.525 2.724-2.426.776-.9 2.336-1.474 3.5-1.474 1.166 0 1.947.573 2.335 1.474s2.056 2.287 2.832 2.588c.777.3.67-.474.67-1.976 0-1.501-1.557-3.906-1.557-6.008s1.53-3.906 2.696-4.807c1.164-.901 1.947-.89 3.112-.59s2.725.89 3.89 1.792c1.165.9 1.944 2.114 1.556 3.015s-1.947 1.503-3.112 2.404c-1.165.9-1.945 2.08-1.945 3.582s.779 3.305 1.167 3.605.39-.885 1.167-2.086c.776-1.2 2.336-2.392 3.501-2.993 1.165-.6 1.947-.617 2.723-.317.777.3 1.154.96 1.556 2.109.45 1.279-.074 3.11 0 3.287.29.696 3.113-.896 3.502-2.698s-1.17-4.184-2.334-5.986-1.943-3.01-.779-3.31 4.254.283 5.42.884c1.164.6-.555 4.444.003 4.392.518-.048 1.737-2.901 2.11-3.19.777-.6.78-1.78 1.167-2.381.389-.6 1.17-.6 1.946 0s1.554 1.786.778 3.288c-.777 1.501-5.327 7.548-4.508 7.746.48.116 4.457-3.729 6.425-3.529 1.207.123 2.726.295 3.89.295s4.402 4.226 4.661 3.67c.857-1.84-3.528-6.378-4.272-6.368-.85.011-1.557-.301-1.945-1.202s-.362-2.699-.75-3.9-1.193-1.814-.417-1.814c.777 0 3.115.607 4.668.907 1.554.3 2.336.306 3.113.907.776.6 1.556 1.797 1.556 2.698s.223 5.077.54 5.263c.287.168 1.873-5.057 2.961-4.356.676.436 9.88 1.314 9.202.29-.156-.235-8.56-1.74-9.202-3.305-.455-1.111-1.944-1.809-1.556-2.11s1.92.301 3.084 0c1.165-.3 1.949-1.49 3.502-1.79s2.904.3 5.234 0 4.642-1.503 5.418-2.404c.777-.9-3.867.295-6.196.295-2.33 0-4.435-1.207-7.54-.907-3.107.3-6.231 2.114-9.337 1.814-3.107-.3-6.202-2.715-8.92-3.016-2.718-.3-5.87.912-7.423-.59-1.553-1.5-1.978-12.36-2.366-14.463-.036-6.032 1.096-14.716.735-18.017-.546-5.003-1.074-12.866-1.42-15.043-.558-3.517-.642-7.97.44-13.454 6.987-3.056 4.373-4.687 10.53-9.297 1.665-1.694 3.674-2.692 7.531-3.877.082-.002.17 0 .25 0 .142-.06.278-.137.417-.204 2.995-.935 5.705-1.866 8.364-3.061 2.186-.983 4.684-2.054 6.808-3.605 1.958-1.433 3.142-3.056 4.752-4.603a84 84 0 0 1 4.557-5.147 74 74 0 0 1 7.586-6.893c3.755-2.958 8-5.707 12.95-8.39-6.035 2.09-10.72 5.027-14.756 8.345-2.633 2.164-5.001 4.485-7.28 6.825-1.488 1.526-2.945 3.074-4.419 4.58-1.782 1.727-3.094 3.33-4.89 4.67-3.792 2.255-7.254 3.9-10.893 5.284 3.075-2.96 5.235-7.683 6.447-11.383 2.09-4.795 4.502-8.827 8.503-13.468 1.612-1.489 3.554-2.576 5.64-4.059 1.82-1.228 3.684-2.434 5.53-3.673 2.83-1.899 5.618-3.87 8.225-6.054 3.998-3.349 7.546-7.217 10.004-12.176-3.204 4.082-6.525 7.589-10.087 10.702-2.617 2.287-5.37 4.353-8.308 6.304a100 100 0 0 1-6.225 3.809c-1.869 1.34-3.835 2.324-5.557 3.945-.503.474-.963.97-1.39 1.474-.375-1.486-.586-3.632 2.168-6.893 4.14-4.069 7.218-6.82 9.559-10.18 1.031-1.482 2.237-3.143 2.778-4.989.498-1.703.21-3.246.334-4.897a43 43 0 0 1-.25-5.193c.04-2.525.336-5 .917-7.505.79-3.41 2.13-6.878 4.112-10.543-3.33 3.665-4.897 7.419-5.64 11.178-.486 2.452-.608 4.906-.668 7.346-.038 1.593-.066 3.19-.11 4.762-.127 1.838.046 3.407-.39 4.988-2.022 4.365-4.458 7.565-7.864 10.952-3.805 3.155-8.352 8.056-7.252 11.654.36.311.718.657 1.083.907-.615.864-1.167 1.726-1.695 2.54-2.648 4.083-4.156 8.197-6.64 13.99-3.385 6.282-7.558 6.57-9.087 7.731-.066.303.014.515.166.658-5.927 1.403-12.912 3.519-15.283 7.437.005.373-4.489 2.467-6.863 1.474-2.623-6.864 3.196-9.098 10.03-9.84.25.086.542.052.89-.16a2.8 2.8 0 0 0 .139-.68v-.022c.687-.734 1.356-1.63 1.695-2.517 1.009-1.57 1.555-3.224 1.655-5.375.307-.344.532-1.131.902-1.495 5.23-4.41 9.051-7.326 12.337-11.088 1.449-1.658 3.133-3.52 4.224-5.669 1.004-1.983 1.204-3.863 1.834-5.827a68 68 0 0 1 1.362-6.258 58 58 0 0 1 3.195-8.888c1.814-3.994 4.161-7.964 7.197-12.13-4.33 4.015-6.987 8.325-8.864 12.742-1.224 2.881-2.106 5.792-2.918 8.707-.53 1.902-1.026 3.813-1.556 5.691-.69 2.187-1.01 4.097-1.917 5.94-3.292 5-6.633 8.548-10.949 12.222a51 51 0 0 0-4.946 4.081 29.6 29.6 0 0 0-.472-4.557c-.341-4.233-.132-7.975 1.084-12.607.647-1.574 1.73-2.927 2.75-4.625.917-1.431 1.847-2.862 2.78-4.308 1.429-2.217 2.834-4.472 3.973-6.848 1.746-3.642 2.9-7.56 2.779-12.017-.823 3.988-1.972 7.562-3.474 10.906a51 51 0 0 1-3.89 7.074 66 66 0 0 1-3.307 4.58c-.91 1.53-2.044 2.83-2.723 4.535-.733 1.85-.885 3.772-1.056 5.465-.388 3.84-.156 6.509.288 11.611-.792.678-.722 1.913-.746 1.79-1.04 1.061-1.007 2.155-1.765 3.264-1.724-.26-4.478-.057-8.809.952-2.822 1.341-7.396 7.067-8.92 2.041.327-.203.625-.439.89-.68.878-.077.902-.386.892-.92.476-.876.776-1.472 1.22-2.164a2.7 2.7 0 0 0-.056-.635c1.376-5.553-.87-13.184 7.558-13.4-.296-.633-1.678-1.153-3.029-1.474 2.056-2.977 3.754-5.603 5.086-8.48.881-1.905 1.923-4.044 2.306-6.349.175-1.063.168-2.055.111-3.038 4.144-1.729 9.42-8.264 10.976-12.153 2.014-3.911 4.24-7.161 7.864-10.861 1.442-1.172 3.16-2.005 5.002-3.152 1.604-.945 3.236-1.88 4.863-2.834 2.493-1.462 4.96-2.984 7.28-4.693 3.557-2.622 6.753-5.696 9.087-9.728zm-88.337 63.42c4.766 7.548 8.722 8.453 10.976 17.255.711 3.77 10.2 14.004 1.584 8.638-7.493-2.046-10.997-6.406-12.643-3.65-.261.063-.56.194-.834.363-1.137-1.623-2.48-4.046-1.89-7.755 1.297-5.005 2.408-8.443 2.668-12.29.055-.805.13-1.679.14-2.561z"/><use xlink:href="#a" width="744.094" height="1052.362" fill="#008f4c" stroke="#000" stroke-width="1.5" transform="matrix(-.16564 -.02238 -.01424 .10083 285.154 301.904)"/><use xlink:href="#a" width="744.094" height="1052.362" fill="#008f4c" stroke="#000" stroke-width="1.5" transform="matrix(.07013 -.13352 .12773 .05091 42.643 418.588)"/><use xlink:href="#a" width="744.094" height="1052.362" fill="#008f4c" stroke="#000" stroke-width="1.5" transform="matrix(.16784 -.00364 -.00283 .10147 83.143 288.014)"/><use xlink:href="#a" width="744.094" height="1052.362" fill="#008f4c" stroke="#000" stroke-width="1.5" transform="matrix(.07435 -.09076 .06579 .05168 110.216 366.787)"/><use xlink:href="#a" width="744.094" height="1052.362" fill="#008f4c" stroke="#000" stroke-width="1.5" transform="matrix(-.11487 -.05223 -.0358 .06086 308.889 329.642)"/><use xlink:href="#b" width="744.094" height="1052.362" fill="#008f4c" stroke="#000" stroke-width="1.5" transform="matrix(-.2018 .05264 .06243 .12778 267.716 303.833)"/><use xlink:href="#b" width="744.094" height="1052.362" fill="#008f4c" stroke="#000" stroke-width="1.5" transform="matrix(.09234 -.15559 .14622 .06846 -4.105 465.116)"/><use xlink:href="#b" width="744.094" height="1052.362" fill="#008f4c" stroke="#000" stroke-width="1.5" transform="matrix(-.18096 -.0899 -.0774 .1222 332.892 386.144)"/><use xlink:href="#b" width="744.094" height="1052.362" fill="#008f4c" stroke="#000" stroke-width="1.5" transform="matrix(-.19626 -.06343 -.0677 .1033 296.15 356.814)"/><use xlink:href="#b" width="744.094" height="1052.362" fill="#008f4c" stroke="#000" stroke-width="1.5" transform="matrix(.13588 -.09386 .08637 .09213 13.6 414.073)"/><use xlink:href="#b" width="744.094" height="1052.362" fill="#008f4c" stroke="#000" stroke-width="1.5" transform="matrix(.2026 .05054 -.06044 .12841 91.173 303.366)"/><use xlink:href="#b" width="744.094" height="1052.362" fill="#008f4c" stroke="#000" stroke-width="1.5" transform="matrix(-.06533 -.16445 -.15634 .05146 342.26 482.034)"/><use xlink:href="#b" width="744.094" height="1052.362" fill="#008f4c" stroke="#000" stroke-width="1.5" transform="matrix(.19435 -.06882 .05614 .1297 21.707 366.121)"/><use xlink:href="#b" width="744.094" height="1052.362" fill="#008f4c" stroke="#000" stroke-width="1.5" transform="matrix(.20506 -.04088 .04971 .1099 63.029 341.176)"/><use xlink:href="#b" width="744.094" height="1052.362" fill="#008f4c" stroke="#000" stroke-width="1.5" transform="matrix(.20944 -.02606 .0137 .1371 49.7 339.845)"/><use xlink:href="#b" width="744.094" height="1052.362" fill="#008f4c" stroke="#000" stroke-width="1.5" transform="matrix(-.04704 -.1401 -.13508 .03615 303.768 430.717)"/><use xlink:href="#b" width="744.094" height="1052.362" fill="#008f4c" stroke="#000" stroke-width="1.5" transform="matrix(-.11883 -.10817 -.10103 .0816 336.074 424.39)"/><use xlink:href="#b" width="744.094" height="1052.362" fill="#008f4c" stroke="#000" stroke-width="1.5" transform="matrix(.13589 -.09295 .08638 .09125 43.97 406.419)"/></g><path fill="#f2ce26" stroke="#000" d="M373.55 131.15c46.034 0 83.63-6.615 83.63-14.697s-37.596-14.696-83.631-14.696c-46.102 0-83.698 6.615-83.698 14.696 0 8.087 37.596 14.697 83.699 14.697z"/><path fill="#f2ce26" stroke="#000" d="M444.379 140.072H303.243v-13.858c-5.86-1.89-9.208-3.92-9.208-6.193 0-7.383 35.713-13.438 79.514-13.438 43.734 0 79.48 6.055 79.48 13.438 0 2.206-3.138 4.371-8.65 6.193z"/><path fill="#f2ce26" stroke="#000" d="M373.55 159.668c43.733 0 79.48-6.056 79.48-13.472 0-7.382-35.747-13.438-79.48-13.438-43.802 0-79.515 6.056-79.515 13.438 0 7.42 35.713 13.472 79.514 13.472z"/><path fill="#fff" stroke="#000" d="M373.55 155.891c39.165 0 71.144-4.233 71.144-9.413s-31.979-9.414-71.145-9.414c-39.233 0-71.212 4.233-71.212 9.414 0 5.18 31.979 9.413 71.212 9.413z"/><path fill="#00a05e" stroke="#000" d="M336.744 119.068c3.802-.7 7.29.666 7.74 3.043.49 2.342-2.2 4.864-5.997 5.564-3.802.7-7.255-.666-7.74-3.008-.494-2.382 2.195-4.9 5.997-5.599zm74.27 0c-3.801-.7-7.29.666-7.74 3.043-.49 2.342 2.2 4.864 5.997 5.564 3.802.7 7.256-.666 7.74-3.008.49-2.382-2.194-4.9-5.997-5.599z"/><path fill="#f82920" stroke="#000" d="m432.853 128.339 11.758-1.366 5.483 5.348-7.1 3.016z"/><path fill="#009ee0" stroke="#000" d="m387.433 119.67-13.97 7.5-13.138-7.354 13.138-6.701z"/><path stroke="#000" stroke-width="1.2" d="M172.554 31.454v1.673l.366.027c.189.014.432.035.705.08h.026c.252.035.5.1.757.19.009.002.017-.003.026 0 .18.076.234.164.26.242.058.167.105.36.105.594v12.087c0 .256-.043.427-.104.54v.027c-.052.103-.128.171-.287.243h-.026a2.4 2.4 0 0 1-.6.135c-.341.039-.608.065-.784.08l-.365.027v1.673h7.778v-1.7h-.392a9 9 0 0 1-.913-.08c-.013-.002-.013.001-.026 0a3.3 3.3 0 0 1-.6-.135c-.197-.08-.275-.165-.314-.243a1.5 1.5 0 0 1-.104-.567v-4.64h1.41a8 8 0 0 0 2.296-.324 6.4 6.4 0 0 0 2.036-1.026l.026-.026a5.1 5.1 0 0 0 1.488-1.808c.368-.744.548-1.579.548-2.51 0-1.363-.559-2.527-1.592-3.345-1.022-.824-2.34-1.214-3.915-1.214zm.836.864h6.969c1.44 0 2.568.339 3.419 1.025.855.677 1.253 1.532 1.253 2.67 0 .817-.168 1.523-.47 2.132a4.1 4.1 0 0 1-1.227 1.511c-.54.411-1.128.7-1.775.89a7.3 7.3 0 0 1-2.088.297h-2.244v5.504c0 .321.049.618.156.89v.028c.146.327.442.564.783.701.21.084.453.113.81.162.213.029.406.04.6.054v.027h-6.108v-.027c.136-.014.24-.033.418-.054.368-.041.607-.084.835-.189.298-.133.559-.33.705-.62.151-.28.208-.613.208-.972V34.26a2.7 2.7 0 0 0-.13-.89c-.124-.358-.427-.616-.783-.756h-.026a4.7 4.7 0 0 0-.94-.243v.027a9 9 0 0 0-.365-.054v-.027zm3.837.107v8.257h1.592c.864 0 1.576-.132 2.166-.432.566-.293 1.024-.667 1.331-1.133q.43-.628.575-1.322.131-.647.13-1.188c0-.475-.047-.97-.157-1.456-.002-.01.002-.02 0-.027a3.7 3.7 0 0 0-.6-1.376 3.16 3.16 0 0 0-1.227-.999c-.505-.238-1.085-.323-1.775-.323zm.835.864h1.2c.605 0 1.073.099 1.436.27.377.177.664.39.887.701v.027c.214.294.383.614.47 1.025v.027a5.6 5.6 0 0 1 .026 2.267c-.07.339-.213.688-.443 1.025-.211.32-.549.594-1.018.836-.43.22-1.022.351-1.801.351h-.757v-6.53z" color="#000" font-family="Georgia" font-size="28" font-weight="400" overflow="visible" style="text-indent:0;text-align:start;line-height:normal;text-transform:none;block-progression:tb;marker:none;-inkscape-font-specification:Georgia" transform="matrix(.49995 0 0 .49997 285.009 100.012)"/><path fill="#ff0" d="M371.79 124.083a.6.6 0 0 1 .264-.068c.231-.001.584-.24.66-.447.094-.257.085-6.666-.01-6.858-.12-.243-.335-.38-.668-.428-.173-.025-.332-.074-.353-.11-.025-.04.725-.056 2.026-.04l1.83.043.453.08c.761.134 1.217.7 1.366.973.372.686.165 1.69-.369 2.315-.54.634-1.144.86-2.45.914l-.905.038v1.421c0 1.446.048 1.79.273 1.935.05.032.282.11.517.173l.428.115-1.58.005c-1.043.003-1.547-.018-1.482-.061m3.062-3.815c1.105-.163 1.695-.994 1.593-2.246-.05-.614-.204-.968-.569-1.308-.388-.36-.727-.459-1.584-.459h-.658v4.084h.379a7 7 0 0 0 .839-.07z"/><path fill="#f82920" stroke="#000" d="m314.905 128.339-11.759-1.366-5.483 5.348 7.101 3.016z"/><path fill="#00a05e" d="M143.984.023h53.745V500h-53.745z"/><path fill="#f82920" d="M552.523 0h53.493v499.977h-53.493z"/><g fill="#f2ce26" stroke="#f2ce26" stroke-width="1.5" font-family="Adobe Song Std L" font-size="80" font-weight="300" letter-spacing="0" style="line-height:125%;-inkscape-font-specification:Adobe Song Std L Light" word-spacing="0"><path d="M-258.74-125.742v-22.56q.009-1.108.21-1.45.204-.343.51-.31a24 24 0 0 1 1.58-.11 63 63 0 0 1 2.66-.05q6.326-.037 10.04 2.91 3.716 2.947 3.8 9.33-.011 3.412-1.09 5.85-1.077 2.438-3.07 3.99-1.591 1.305-3.95 1.86-2.355.555-5.81.54zm-12.079 24h19.6v-1.12q-4.985-.118-6.34-1.75t-1.18-6.25v-13.28q4.975-.086 7.4.4 2.424.484 3.8 2.56 5.932 9.705 9.766 14.008 3.834 4.305 6.868 5.316 3.033 1.01 6.566.835l.24-1.04q-3.163-.972-6.85-4.87a112 112 0 0 1-6.67-7.69 128 128 0 0 1-4.01-5.81q-2.058-3.152-3.11-5.15 4.652-2.05 7.19-5.3 2.537-3.25 2.57-8.3-.293-7.509-5.31-10.159-5.018-2.65-11.25-2.48h-18.88v1.2q4.87.203 6.2 1.65t1.16 6.03v32.08q.183 4.617-1.21 6.25-1.393 1.632-6.55 1.75zm49.993-.001h37.44a625 625 0 0 0 1.41-6.31 384 384 0 0 1 1.47-6.49h-1.36q-.95 2.715-2.21 4.74-1.265 2.025-2.27 3.18-1.989 2.133-5.25 2.63-3.264.498-6.99.41-4.978.236-7.45-.94-2.473-1.174-2.47-6.58v-15.6h9.36q4.434-.171 6.32.93 1.884 1.104 2.72 5.55h1.36v-14.88h-1.36q-.76 3.904-2.6 5.09-1.84 1.189-6.44 1.07h-9.36v-18.72q-.063-1.504.31-1.899.372-.395 1.93-.34h7.52q7-.105 9.44 2.22t3.44 8.34l1.36-.24q-.255-3.6-.48-6.84t-.24-5.4h-34.8v1.12q4.812.1 6.13 1.82t1.15 6.74v31.36q.2 4.5-1.22 6.12t-6.86 1.8zm98.679-22.479h-18.72v1.12q6.58.392 8.18 1.85 1.6 1.457 1.34 5.03v6.96q.015 2.574-.78 3.74-.795 1.164-2.58 1.7-1.817.604-4.43.94-2.612.334-5.81.34-8.794-.15-14.1-3.962-5.307-3.812-7.665-9.49-2.36-5.679-2.314-11.428.024-11.193 5.96-17.39 5.934-6.197 17.48-6.29 6.228-.18 10.66 2.34 4.429 2.52 6.459 9.9l1.28-.16a188 188 0 0 1-.86-6.91 819 819 0 0 1-.5-4.93q-2.123-.66-6.27-1.38-4.148-.72-9.33-.78-8.008.008-14.927 3.034t-11.212 8.972q-4.292 5.946-4.42 14.714.225 11.584 8.34 18.58 8.115 6.994 21.42 7.18a48.6 48.6 0 0 0 9.79-1.16 237 237 0 0 0 8.769-2.12q-.465-1.213-.6-2.95a46 46 0 0 1-.12-3.85v-7.2q-.132-2.572.71-3.69.843-1.118 4.25-1.59zm5.082 22.479h19.36v-1.12q-4.99-.117-6.38-1.75-1.39-1.632-1.22-6.25v-31.84q-.17-4.555 1.22-6.19 1.39-1.63 6.38-1.809v-1.12h-19.36v1.12q5.042.178 6.41 1.81 1.367 1.632 1.19 6.19v31.84q.177 4.617-1.19 6.25-1.368 1.632-6.41 1.75zm54.348-51.279q-8.947.124-15.25 3.982c-6.303 3.858-7.413 5.89-9.632 9.956q-3.33 6.097-3.357 12.942.282 11.312 7.75 18.35 7.467 7.037 18.73 7.25 11.719-.193 19.659-7.51t8.26-19.45q-.382-11.78-8.07-18.58-7.687-6.8-18.09-6.94zm-2.32 1.92q9.892-.017 16.35 6.67 6.457 6.687 6.69 20.29-.273 10.7-6.23 16.18t-14.33 5.5q-9.93-.163-16.26-7.15-6.33-6.988-6.54-18.85.273-11.54 6.17-17.08t14.15-5.56zm34.599 49.359h19.92v-1.12q-3.98-.3-5.98-1.38t-2.5-2.94q-.405-1.632-.54-5.17-.135-3.537-.18-9.55v-21.28h.16l36.88 42h.88v-31.2q-.018-5.58.13-8.93.147-3.345.67-5.15.497-1.749 2.21-2.839 1.712-1.09 5.15-1.4v-1.12H6.522v1.12q6.732.103 8.23 3.55 1.497 3.448 1.21 14.77v22.8h-.24l-36.96-42.24h-9.84v1.12q3.11.35 4.72 1.06t2.56 1.9q1.06 1.017 1.46 2.23.4 1.212.38 6.25v17.36q.006 6.007-.2 9.57-.204 3.561-.68 5.31-.452 1.7-2.27 2.8-1.817 1.1-5.33 1.36zm60.705 0h37.44q.532-2.307 1.41-6.31a384 384 0 0 1 1.47-6.49h-1.36q-.948 2.715-2.21 4.74t-2.27 3.18q-1.988 2.133-5.25 2.63-3.263.498-6.99.41-4.977.236-7.45-.94-2.472-1.174-2.47-6.58v-15.6h9.36q4.435-.171 6.32.93 1.885 1.104 2.72 5.55h1.36v-14.88h-1.36q-.76 3.904-2.6 5.09-1.84 1.189-6.44 1.07h-9.36v-18.72q-.062-1.504.31-1.899.373-.395 1.93-.34h7.52q7-.105 9.44 2.22t3.44 8.34l1.36-.24q-.255-3.6-.48-6.84t-.24-5.4h-34.8v1.12q4.813.1 6.13 1.82t1.15 6.74v31.36q.2 4.5-1.22 6.12t-6.86 1.8zm73.963-46.319q-.003-1.22.19-1.6a.68.68 0 0 1 .61-.4q.525-.115 1.5-.14a94 94 0 0 1 2.58-.02q7.387-.023 11.13 3.09 3.741 3.112 3.75 9.63-.144 6.9-3.81 9.96-3.668 3.06-9.15 3-2.81-.037-4.48-.45t-2.32-.75zm-11.84 46.32h20.56v-1.12q-5.9-.22-7.42-1.76t-1.3-6.08v-13.28l6.4 1.76q3.896.411 8.174-1.114 4.279-1.526 7.304-5.132t3.161-9.434q-.183-6.53-3.401-9.511-3.218-2.983-7.277-3.751-4.06-.77-6.761-.658H92.87v1.2q5.06.105 6.16 1.68t.88 6.24v31.84q.174 4.617-1.18 6.25-1.356 1.632-6.34 1.75zm90.793-30.08q.012-6.448.25-9.61.238-3.163.55-4.87.315-1.858 2.22-2.95t5.22-1.45v-1.12h-19.68v1.12q4.162.407 6.21 1.49t2.43 2.99q.407 1.657.53 4.83.122 3.173.11 9.57v4.24q.057 10.594-3.77 16.9-3.827 6.304-12.95 6.46-8.168.051-12.69-4.89-4.522-4.943-4.59-15.51v-17.76q-.177-4.705 1.13-6.5 1.308-1.795 6.23-1.82v-1.12h-19.28v1.12q5.158.295 6.55 1.82 1.393 1.525 1.21 6.5v20.24q.006 6.702 1.6 10.81 1.596 4.107 4.72 6.55a17.2 17.2 0 0 0 6.13 3.11q3.343.917 6.91.89 4.26-.02 8.1-1.48t6.54-4.12q3.65-3.774 5.02-8.97t1.3-12.63zm66.232 7.6h-18.72v1.12q6.58.392 8.18 1.85 1.6 1.457 1.34 5.03v6.96q.015 2.574-.78 3.74-.795 1.164-2.58 1.7-1.817.604-4.43.94-2.612.334-5.81.34-8.794-.15-14.1-3.962t-7.665-9.49q-2.36-5.679-2.314-11.428.025-11.193 5.96-17.39t17.48-6.29q6.23-.18 10.66 2.34t6.46 9.9l1.28-.16a188 188 0 0 1-.86-6.91 819 819 0 0 1-.5-4.93q-2.123-.66-6.27-1.38-4.148-.72-9.33-.78-8.008.008-14.928 3.034-6.919 3.026-11.211 8.972t-4.42 14.714q.225 11.584 8.339 18.58 8.115 6.994 21.42 7.18a48.6 48.6 0 0 0 9.79-1.16 237 237 0 0 0 8.77-2.12q-.465-1.213-.6-2.95a46 46 0 0 1-.12-3.85v-7.2q-.133-2.572.71-3.69.842-1.118 4.25-1.59zm41.562 10q-1.003 2.655-2.17 4.62c-1.167 1.965-1.442 2.33-1.99 3.06q-1.413 1.44-4.13 2.16-2.718.72-6.35.72-5.985.25-8.1-1.18t-1.98-7.54v-30.32q-.182-4.558 1.27-6.19c1.452-1.632 3.212-1.692 6.73-1.81v-1.12h-19.84v1.12q5.152.178 6.51 1.81t1.17 6.19v31.44q.178 4.905-1.13 6.6t-6.23 1.8v1.12h34.8q.495-2.844 1.44-6.57a255 255 0 0 0 1.44-5.91zm5.552 12.479h19.36v-1.12q-4.99-.117-6.38-1.75-1.39-1.632-1.22-6.25v-31.84q-.17-4.555 1.22-6.19 1.39-1.63 6.38-1.809v-1.12h-19.36v1.12q5.042.178 6.41 1.81 1.367 1.632 1.19 6.19v31.84q.177 4.617-1.19 6.25-1.368 1.632-6.41 1.75zm57.628 0h18.32v-1.12q-3.99-.503-5.52-1.95t-3.12-5.73a622 622 0 0 1-4.92-12.97q-2.625-7.136-5.4-14.71l-5.36-14.799-.96.4-17.36 40.72q-2.018 5.184-3.81 6.8-1.792 1.614-5.79 2.24v1.12h18.16v-1.12q-3.355-.463-5-1.21-1.644-.748-1.64-2.71.067-1.404 1.067-4.602a122 122 0 0 1 2.133-6.237q1.135-3.039 1.6-3.961h18.48q2.277 5.614 3.79 9.82 1.512 4.204 1.57 5.86.038 1.39-1.41 2t-4.83 1.04zm-7.6-43.84 7.76 21.44h-16.8a411 411 0 0 1 8.88-21.44z" style="-inkscape-font-specification:Adobe Song Std L Light" transform="translate(349.713 100.007)scale(.49998)"/></g></svg>