<svg xmlns="http://www.w3.org/2000/svg" width="600" height="400"><path fill="#005aab" d="M0 0h600v400H0z"/><ellipse cx="96.25" cy="107.75" fill="#cecece" rx="96.25" ry="107.75" transform="translate(211.714 101.166)scale(.91725)"/><path fill="#cea518" d="M237.36 259.668c15.086 19.829 37.552 32.404 62.64 32.404 25.091 0 47.557-12.577 62.643-32.408L237.357 140.336c15.086-19.83 37.552-32.409 62.643-32.409 25.088 0 47.554 12.576 62.64 32.405z"/><path fill="#4aad42" d="M287.005 184.167v-1.415h11.046v-32.906l-10.147-3.497 5.79-14.562-5.084.325 11.16-29.505 11.16 29.505-5.083-.325 5.79 14.562-10.146 3.497v32.906h11.045v1.415h-25.53z"/><path fill="none" stroke="#52ad42" d="m309.631 153.801-9.86 3.383-9.86-3.383"/><path fill="none" stroke="#52ad42" d="m309.631 151.05-9.86 3.382-9.86-3.382"/><path fill="#1fc2ff" d="M269.598 236.526h58.493v6.535h-58.493zm15.937 21.384s-5.217 0-8.37-3.153-3.096-8.6-3.096-8.6h49.55s.058 5.447-3.095 8.6-8.37 3.153-8.37 3.153h-26.62zm-1.3 3h29.218v27.517s-.153 1.701-2.16 1.701h-5.961s-5.79-1.605-9.345-6.65c-3.554-5.045-11.122-5.217-11.752-5.217z"/><path fill="none" stroke="#cea518" d="M289.222 265.994v16.51m6.421-16.51v20.486m6.421-20.486v24.154m6.421-24.154v25.378"/><path d="M243.665 178.892h12.2l-5.114 24.46 5.114 25.072h-12.2l5.141-25.071-5.141-24.46z"/><circle cx="34.047" cy="82.724" r="2.167" transform="translate(211.714 101.166)scale(.91725)"/><circle cx="49.125" cy="82.724" r="2.167" transform="translate(211.714 101.166)scale(.91725)"/><circle cx="34.047" cy="140.78" r="2.167" transform="translate(211.714 101.166)scale(.91725)"/><circle cx="49.125" cy="140.78" r="2.167" transform="translate(211.714 101.166)scale(.91725)"/><path d="M224.987 209.852v-12.199l24.46 5.113 25.071-5.113v12.2l-25.07-5.141z"/><circle cx="12.456" cy="119.277" r="2.167" transform="translate(211.714 101.166)scale(.91725)"/><circle cx="12.456" cy="104.199" r="2.167" transform="translate(211.714 101.166)scale(.91725)"/><circle cx="70.511" cy="119.277" r="2.167" transform="translate(211.714 101.166)scale(.91725)"/><circle cx="70.511" cy="104.199" r="2.167" transform="translate(211.714 101.166)scale(.91725)"/><path d="M344.172 174.726h8.485v56.182h-8.485z"/><path d="M320.323 198.575h56.182v8.485h-56.182zm20.81-20.18h14.561v6.65h-14.561zm0 42.194h14.561v6.65h-14.561z"/><path d="M323.992 195.536h6.65v14.561h-6.65zm42.194 0h6.65v14.561h-6.65z"/><path fill="#fff" d="M184.036 52.832h19.872q1.918 0 4.194.368 2.277.367 4.114 1.617a8.75 8.75 0 0 1 2.853 3.161q1.017 1.912 1.017 4.313 0 3.897-2.623 6.31-2.622 2.415-6.204 3.15l6.632 8.184.277.368q.647.833 1.179 1.237.531.405 1.062.576.532.172 1.48.172h1.386v4.73h-10.33l-10.35-14.728h-2.68v6.812q0 1.764.184 2.242.185.478.59.711t1.629.233h1.478v4.73h-15.759v-4.73h1.433q1.132 0 1.606-.257.473-.259.705-.772.115-.294.115-1.838V60.184q0-1.128-.173-1.605-.174-.478-.566-.625-.555-.27-1.271-.27l-.647.025h-1.202v-4.877zm11.877 5.612v8.846h4.784q2.819 0 4.217-.55 1.398-.552 2.102-1.582.705-1.029.705-2.5 0-1.347-.658-2.315-.66-.968-1.872-1.433-1.214-.466-3.963-.466zm25.095-5.612h26.897l3.674 10.807-4.183 1.593q-1.062-2.646-2.484-4.264-1.421-1.617-3.142-2.144-1.722-.527-4.01-.527h-4.921v8.528h1.617q1.826 0 2.461-.282.636-.282.913-.882t.277-2.39v-1.298h4.113V76.43h-4.113v-1.47q0-1.495-.335-2.181-.334-.687-.913-.932-.578-.245-2.564-.245h-1.456v7.842q0 1.25.115 1.52t.45.416q.336.147 1.445.147h2.704q3.027 0 5.106-.919 2.08-.918 3.71-2.965 1.627-2.047 2.506-4.864l4.229 1.544-4.229 12.693h-27.867v-4.73h.809q1.617.001 2.172-.244.555-.246.785-.858.116-.368.116-2.083V60.478q0-1.52-.197-1.985a1.4 1.4 0 0 0-.612-.698q-.416-.234-1.64-.233h-1.433zm53.077 15.953h15.736v4.779h-1.178q-1.155 0-1.583.22a1.37 1.37 0 0 0-.636.699q-.208.477-.207 1.826v10.708h-4.737l-1.225-2.45q-2.172 1.519-4.506 2.279t-4.853.76q-4.413 0-8.04-2.28-3.63-2.279-5.743-6.37-2.115-4.094-2.114-9.166 0-5.023 2.09-8.994 2.092-3.97 5.847-6.26a15.35 15.35 0 0 1 8.145-2.292q2.125 0 4.24.576t3.617 1.532l.855-1.52h3.235l2.911 11.322-4.252 1.47q-2.172-3.724-3.43-5.073a9.3 9.3 0 0 0-2.89-2.107q-1.627-.76-3.177-.76-2.195 0-4.101 1.348t-3.016 3.933-1.109 6.261q0 4.044 1.213 7.009t3.178 4.399 4.32 1.433a7.25 7.25 0 0 0 3.155-.71q1.49-.711 2.045-1.593t.554-2.377v-1.25q0-1.299-.161-1.642-.255-.49-.682-.71-.427-.221-1.675-.221h-1.826zm17.723-15.953h15.713v4.73h-1.432q-1.248 0-1.652.233-.405.233-.601.735-.197.502-.197 1.923v18.919q0 1.543.162 1.985.162.44.555.637.484.294 1.455.294h1.71v4.73h-15.713v-4.73h1.271q1.364 0 1.78-.208.416-.21.612-.662.196-.454.196-1.801V60.625q0-1.593-.196-2.095a1.5 1.5 0 0 0-.659-.772q-.323-.196-1.57-.196h-1.434zm36.394-.588q7.673 0 12.42 4.95 4.75 4.95 4.75 12.719 0 5.22-2.173 9.263t-5.996 6.236q-3.825 2.194-9.232 2.194-7.14-.001-11.692-4.166-5.5-5.025-5.5-13.43 0-7.816 4.818-12.791t12.605-4.975m.093 5.44q-3.674 0-5.846 2.916-2.727 3.676-2.727 9.484c0 5.808.847 6.935 2.542 9.19q2.195 2.89 5.8 2.891 3.627 0 5.8-2.891 2.565-3.456 2.565-9.239 0-4.067-1.098-6.837t-2.97-4.141q-1.871-1.373-4.066-1.373m20.542-4.852h13.102l9.45 19.948V60.576q0-1.57-.16-1.96-.232-.589-.625-.821-.393-.234-1.525-.233h-1.571v-4.73h13.31v4.73h-1.48q-1.108 0-1.582.27a1.45 1.45 0 0 0-.659.734q-.185.465-.184 2.01v26.441h-6.632l-11.97-25.191v17.62q0 1.518.173 1.935.174.417.624.662t1.56.245h1.548v4.73h-13.379v-4.73h1.387q1.155 0 1.582-.208.428-.21.682-.723.255-.515.254-1.544V60.208q0-1.127-.23-1.654-.232-.526-.625-.76-.392-.232-1.317-.232h-1.733zm35.03 0h26.898l3.674 10.807-4.183 1.593q-1.062-2.646-2.484-4.264-1.421-1.617-3.142-2.144t-4.01-.527h-4.92v8.528h1.617q1.825 0 2.461-.282t.913-.882.277-2.39v-1.298h4.113V76.43h-4.113v-1.47q0-1.495-.335-2.181-.335-.687-.913-.932-.577-.245-2.565-.245H395.7v7.842q0 1.25.115 1.52t.45.416q.336.147 1.445.147h2.704q3.027 0 5.106-.919 2.08-.918 3.709-2.965t2.507-4.864l4.229 1.544-4.229 12.693h-27.867v-4.73h.809q1.617.001 2.172-.244.554-.246.785-.858.116-.368.116-2.083V60.478q0-1.52-.197-1.985a1.4 1.4 0 0 0-.612-.698q-.416-.234-1.64-.233h-1.433v-4.73z" font-family="Bitstream Vera Sans" font-size="28.428" font-weight="400"/><path fill="#fff" d="M201.918 312.983h3.127l3.016 12.277-4.095 1.323q-2.048-4.386-3.853-6.224-2.51-2.524-5.438-2.524-2.136 0-3.996 1.323t-2.95 3.896-1.09 6.029q0 5.269 2.5 9.067 2.498 3.798 6.549 3.798 2.576 0 4.953-1.642 2.973-2.034 5.13-5.464l3.413 2.818q-3.325 5.048-6.077 7.033-4.249 3.063-9.467 3.063-4.337 0-7.848-2.316-3.513-2.315-5.603-6.482-2.092-4.165-2.092-9.091 0-4.901 2.036-8.932t5.549-6.286q3.511-2.255 7.826-2.255 4.381 0 7.684 2.059zm20.828 0h6.89l9.225 26.392q.75 2.107 1.332 2.598.584.49 2.147.465v4.73h-14.53v-4.73l.88-.024q1.21 0 1.695-.356.484-.354.485-.87 0-.44-.419-1.813l-.902-3.112h-9.357l-1.145 3.455q-.352 1.102-.352 1.446 0 .392.253.71.254.32.825.466.375.099 2.07.098v4.73h-11.889v-4.73q1.145 0 1.673-.22.53-.22.87-.662.341-.44.76-1.642zm-.947 18.403h6.142l-2.994-9.41zm22.412-18.403h15.015v4.73h-1.32q-1.102 0-1.388.122a1.54 1.54 0 0 0-.77.747q-.243.502-.242 1.605v19.531q0 1.176.099 1.446t.407.429q.308.16 1.189.16 2.95 0 4.744-.859 1.794-.857 3.237-2.756 1.441-1.9 2.476-5.159l4.051 1.544-4.05 12.645H244.21v-4.73h1.475q.903 0 1.365-.27.463-.269.672-.722c.209-.453.209-.83.209-1.58v-19.36q0-1.225-.21-1.765-.209-.538-.594-.784-.385-.245-1.288-.245h-1.629v-4.73zm39.915 0h6.891l9.225 26.392q.75 2.107 1.332 2.598.585.49 2.147.465v4.73h-14.53v-4.73l.88-.024q1.21 0 1.695-.356.484-.354.484-.87 0-.44-.418-1.813l-.903-3.112h-9.356l-1.145 3.455q-.353 1.102-.353 1.446 0 .392.254.71.253.32.825.466.375.099 2.07.098v4.73h-11.889v-4.73q1.145 0 1.673-.22.529-.22.87-.662.34-.44.76-1.642zm-.946 18.403h6.142l-2.994-9.41zm22.346-13.674v-4.73h17.459q4.007 0 6.296 1.042 2.29 1.04 3.523 2.99a7.84 7.84 0 0 1 1.233 4.276 8.04 8.04 0 0 1-2.52 5.894q-1.223 1.164-3.226 1.923 2.157.613 3.302 1.348 1.65 1.029 2.62 2.88.969 1.85.969 4.129a9.07 9.07 0 0 1-1.475 5.011q-1.476 2.292-4.172 3.492-2.698 1.2-7.893 1.2h-16.116v-4.729h1.21q1.212 0 1.641-.233a1.3 1.3 0 0 0 .606-.661q.176-.429.176-1.924v-19.065q0-1.52-.176-1.936a1.37 1.37 0 0 0-.606-.662q-.43-.245-1.64-.245zm11.25 9.116h3.369q2.642 0 3.908-.49 1.265-.49 1.904-1.483.638-.992.638-2.29 0-1.35-.605-2.304-.606-.955-1.75-1.36-1.146-.405-4.095-.405h-3.369zm0 5.024v7.4q.023 1.57.11 1.838.11.344.364.478.252.135 1.376.135h2.245q1.96 0 3.248-.404 1.287-.405 2.19-1.679t.903-3.063q0-1.519-.639-2.573-.638-1.055-1.915-1.593-1.276-.54-3.897-.54zm21.136-18.87h18.933q1.828 0 3.996.368a9.34 9.34 0 0 1 3.92 1.617 8.6 8.6 0 0 1 2.718 3.162q.969 1.911.969 4.313 0 3.895-2.499 6.31a12 12 0 0 1-5.911 3.149l6.318 8.185.265.367q.616.834 1.122 1.238t1.013.576q.506.171 1.41.171h1.32v4.73h-9.841l-9.863-14.728h-2.554v6.813q0 1.764.176 2.242.176.477.561.71t1.553.233h1.409v4.73h-15.015v-4.73h1.365q1.079 0 1.53-.257.45-.258.671-.772.11-.294.11-1.838v-19.237q0-1.127-.165-1.605t-.54-.625a2.6 2.6 0 0 0-1.21-.27l-.616.025h-1.145zm11.316 5.612v8.847h4.557q2.685 0 4.018-.552 1.332-.55 2.004-1.58.67-1.03.671-2.5 0-1.347-.627-2.315-.628-.969-1.784-1.434-1.155-.466-3.775-.466zm23.733-5.611h14.971v4.73h-1.365q-1.188 0-1.574.232t-.572.735q-.188.502-.188 1.924v18.918q0 1.544.155 1.985.153.441.528.637.462.294 1.387.294h1.63v4.73H372.96v-4.73h1.211q1.299 0 1.695-.208a1.26 1.26 0 0 0 .584-.662q.187-.453.187-1.8v-18.993q0-1.593-.187-2.095a1.5 1.5 0 0 0-.628-.772q-.308-.195-1.497-.196h-1.365v-4.73zm29.348 0h6.89l9.225 26.392q.75 2.107 1.332 2.598.584.49 2.147.465v4.73h-14.53v-4.73l.88-.024q1.21 0 1.695-.356.485-.354.485-.87 0-.44-.419-1.813l-.902-3.112h-9.357l-1.145 3.455q-.352 1.103-.352 1.446 0 .392.253.71.253.32.826.466.374.098 2.069.098v4.73h-11.889v-4.73q1.145 0 1.674-.22a2.1 2.1 0 0 0 .87-.662q.34-.44.759-1.642zm-.947 18.403h6.142l-2.994-9.41z" font-family="Bitstream Vera Sans" font-size="27.749" font-weight="400"/></svg>