<svg xmlns="http://www.w3.org/2000/svg" width="945.771" height="630.847" viewBox="-291.884 -90.579 945.771 630.847"><g font-size="8"><text font-family="'ArialMT'" transform="translate(122.338 217.231)">created by:</text><text fill="#ed1c24" font-family="'Arial-BoldMT'" transform="translate(170.09 217.231)">cecilomar</text><text font-family="'Arial-BoldMT'" transform="translate(211.91 217.231)">design</text><text font-family="'ArialMT'" transform="translate(128.625 226.832)">http://www.cecilomar.com/</text><text font-family="'ArialMT'" transform="translate(156.735 236.43)">no copyright</text></g><path fill="#fff" stroke="#000" d="M-291.384-90.079h944.771v629.847h-944.771z"/><path fill="#b49f5c" stroke="#000" d="m152.794 37.459.686 5.765-6.86.842-.712-5.761-16.98 2.491 16.931 72.047 25.905-3.229-2.675-73.74z"/><path fill="none" stroke="#000" d="m168.967 41.76-38.805 4.794m39.477 3.124-37.641 4.719m1.64 6.656 36.047-4.561m.845 19.749-32.362 4.247m1.688 6.892 30.746-4.108m.287 6.791-29.528 4m1.305 5.007 28.485-3.898m.15 6.675-27.155 3.791"/><path fill="#445684" stroke="#000" d="m145.389 71.041.638 5.195 16.388-2.011-.629-5.124z"/><path fill="none" stroke="#000" d="m156.682 97.426.799 6.506m-2.273-18.511.84 6.843m-4.146-33.768 1.253 10.21m-3.085-25.132 1.005 8.19M146.9 59.11l-.649-6.754m3.244 33.766-.681-7.09m1.816 18.909-.498-5.179m1.849 19.247-.692-7.206m14.083-1.727 1.152 6.806m-3.174-18.743.889 5.246m-3.213-18.967 1.19 7.03m-5.63-33.246 1.095 6.465"/><g stroke="#000"><path fill="#b49f5c" d="m90.737 53.225 2.061 5.427-6.453 2.476-2.085-5.417-15.872 6.525 33.858 65.81 24.353-9.399-20.433-70.903z"/><path fill="none" d="m107.47 53.485-36.492 14.04m39.06-6.52L74.656 74.69m3.202 6.061 33.874-13.145m5.597 18.958-30.373 11.95m3.305 6.278 28.838-11.423m1.922 6.52-27.683 11.025m2.477 4.542 26.695-10.674m1.761 6.44L98.84 121.47"/><path fill="#445684" d="m91.677 87.6 1.875 4.887 15.414-5.916-1.849-4.82z"/><path fill="none" d="m109.017 110.469 2.349 6.12m-6.684-17.411 2.472 6.436M94.961 73.853l3.686 9.603m-9.073-23.639 2.956 7.703m-2.274 8.139-2.263-6.397m11.315 31.978-2.375-6.715m6.337 17.909-1.735-4.906m6.449 18.228-2.415-6.824m13.246-5.082 2.765 6.324m-7.615-17.418 2.132 4.875m-7.706-17.626 2.857 6.533M97.742 65.642l2.627 6.008"/></g><g stroke="#000"><path fill="#b49f5c" d="m279.391 54.291-2.098 5.412-6.453-2.477 2.075-5.421-16.161-5.772-18.875 71.562 24.389 9.31 32.257-66.364z"/><path fill="none" d="m291.652 65.681-36.513-13.985m33.39 21.291-35.45-13.505m-1.677 6.647 33.97 12.897m-8.528 17.833-30.567-11.442m-1.743 6.877 29.073 10.808m-2.935 6.13-27.947-10.33m-1.2 5.033 26.981 9.931m-3.002 5.964-25.754-9.401"/><path fill="#445684" d="m257.088 80.464-1.875 4.888 15.412 5.917 1.85-4.819z"/><path fill="none" d="m254.672 109.063-2.347 6.119m6.681-17.411-2.468 6.437m12.191-31.761-3.687 9.602m9.074-23.638-2.957 7.703m-7.136 4.527 2.599-6.268m-12.989 31.335 2.728-6.579m-7.275 17.548 1.993-4.807m-7.403 17.862 2.772-6.687m13.243 5.087-2.177 6.55m5.996-18.04-1.677 5.05m6.067-18.255-2.248 6.766m10.638-31.998-2.069 6.223"/></g><g stroke="#000"><path fill="#b49f5c" d="m217.439 38.636-.728 5.759-6.859-.843.701-5.761-17.078-1.691-1 74.002 25.916 3.134 15.246-72.197z"/><path fill="none" d="m232.092 46.722-38.813-4.737m37.55 12.581-37.664-4.526m-.02 6.855 36.08 4.295m-3.957 19.367-32.428-3.709m-.029 7.096 30.824 3.452m-1.364 6.659-29.619-3.262m.056 5.174 28.582 3.108m-1.47 6.512-27.265-2.89"/><path fill="#445684" d="m202.131 69.428-.638 5.196 16.388 2.013.629-5.124z"/><path fill="none" d="m206.706 97.761-.799 6.507m2.271-18.511-.838 6.843m4.144-33.768-1.254 10.21m3.088-25.132-1.005 8.19m-5.831 6.118 1.006-6.71m-5.023 33.546 1.056-7.043m-2.812 18.787.77-5.146m-2.863 19.122 1.072-7.16m14.082 1.732-.529 6.883m1.454-18.955-.405 5.306m1.47-19.182-.545 7.11m2.58-33.62-.502 6.538"/></g><g stroke="#000"><path fill="#b49f5c" d="m168.562 109.742-2.852-95.641h31.369l-2.412 95.593z"/><path fill="#b49f5c" d="M159.787.5h8.556l.016 7.037h9.109L177.489.5h9.086v7.037h8L194.551.5h8.012v7.02l-5.561 6.605h-31.14l-6.075-6.605z"/><path fill="none" d="M166.044 21.345h30.953m-.233 6.849H166.09m30.394 7.571h-29.882m29.882 5.888h-30.069m29.791 8.052h-29.558m.279 6.849h29.139m-.464 19.948h-28.117m.279 7.09h27.559m-.094 6.85h-27.326m.279 5.167h26.908m-.188 6.73h-26.581"/><path fill="#445684" d="M177.782 65.448h6.864l.556-20.071s-2.82-4.206-3.975-4.206-4.077 4.206-4.077 4.206zm-8.478-35.927h6.866V21.43s-2.266-3.237-3.422-3.237c-1.155 0-3.468 3.307-3.468 3.307zm16.9 0h6.864V21.43s-2.266-3.237-3.42-3.237c-1.155 0-3.469 3.307-3.469 3.307zm-11.391 80.612h12.871l1.039-25.521s-5.285-7.885-7.452-7.885-7.644 7.885-7.644 7.885z"/><path fill="none" d="M181.2 21.537V14.19m0 21.476v-7.574m-6.125 39.554.248 8.937m-1.131-40.804.157 5.649m14.635.229.127-5.765m-.903 40.917.194-8.825"/><path fill="#b49f5c" d="m217.131 112.967 20.371-93.49 30.437 7.589-25.466 92.17z"/><path fill="#b49f5c" d="m235.045 4.848 8.303 2.069-1.687 6.832 8.838 2.204 1.724-6.823 8.815 2.198-1.702 6.828 7.762 1.935 1.679-6.833 7.774 1.938-1.699 6.811-6.993 5.065-30.214-7.534-4.297-7.879z"/><path fill="none" d="m236.075 26.587 30.03 7.488m-1.88 6.59-29.764-7.421m27.661 14.699-28.995-7.229m27.571 12.942-29.177-7.274m26.958 15.019-28.68-7.151m-1.386 6.714 28.273 7.05m-5.275 19.243-27.282-6.802m-1.445 6.946 26.74 6.667m-1.748 6.624-26.513-6.61m-.981 5.081 26.11 6.509m-1.81 6.485-25.793-6.431"/><path fill="#445684" d="m236.793 72.22 6.662 1.661 5.393-19.341s-1.719-4.763-2.84-5.042c-1.119-.279-4.973 3.095-4.973 3.095zm.465-36.91 6.662 1.661 1.959-7.851s-1.416-3.689-2.537-3.969-4.166 2.37-4.166 2.37zm16.399 4.088 6.661 1.661 1.957-7.851s-1.414-3.689-2.534-3.968c-1.121-.28-4.166 2.369-4.166 2.369zm-30.553 75.461 12.488 3.114 7.182-24.512s-3.221-8.929-5.321-9.454c-2.103-.524-9.324 5.802-9.324 5.802z"/><path fill="none" d="m250.732 30.44 1.778-7.129m-5.196 20.838 1.832-7.348m-15.511 36.897-1.92 8.731m8.773-39.866-1.215 5.52m14.145 3.762 1.52-5.562m-10.775 39.483 2.323-8.516"/><path fill="#b49f5c" d="m258.398 126.164 42.386-85.786 27.697 14.727-47.01 83.271z"/><path fill="#b49f5c" d="m301.938 25.589 7.555 4.017-3.289 6.221 8.041 4.276 3.324-6.203 8.021 4.266-3.302 6.212 7.062 3.756 3.283-6.224 7.073 3.761-3.295 6.198-8.01 3.223-27.497-14.62-2.261-8.685z"/><path fill="none" d="m297.676 46.932 27.328 14.53m-3.42 5.939-27.082-14.4m23.282 20.954-26.386-14.029m23.622 19.228-26.551-14.117m22.524 21.094-26.097-13.876m-2.97 6.179 25.729 13.68m-9.776 17.396-24.826-13.2m-3.082 6.39 24.334 12.938m-3.299 6.004-24.127-12.828m-2.181 4.693 23.76 12.633m-3.325 5.854-23.47-12.48"/><path fill="#445684" d="m287.334 91.384 6.063 3.223 9.912-17.461s-.516-5.038-1.535-5.58-5.573 1.8-5.573 1.8zm9.381-35.702 6.063 3.223 3.8-7.145s-.479-3.922-1.5-4.465-4.615 1.292-4.615 1.292zm14.922 7.934 6.063 3.223 3.799-7.145s-.48-3.921-1.5-4.464c-1.021-.542-4.615 1.291-4.615 1.291zm-47.901 65.828 11.363 6.042 12.898-22.047s-.965-9.443-2.877-10.46-10.451 3.374-10.451 3.374z"/><path fill="none" d="m310.967 54.217 3.45-6.488m-10.083 18.962 3.557-6.686m-23.978 32.049-3.975 8.007m18.156-36.56-2.513 5.062m12.814 7.073 2.82-5.03m-20.007 35.703 4.313-7.7"/><path fill="#b49f5c" d="M124.419 118.645 98.515 26.534l30.437-7.589 20.785 93.338z"/><path fill="#b49f5c" d="m89.478 14.771 8.301-2.07 1.719 6.823 8.837-2.203-1.681-6.833 8.816-2.198 1.702 6.828 7.762-1.935-1.725-6.823 7.773-1.938 1.699 6.811-3.797 7.755-30.216 7.533-7.492-4.939z"/><path fill="none" d="m100.591 33.482 30.033-7.487m1.432 6.702-29.763 7.421m31.323-.008-28.995 7.23m30.42-1.516-29.177 7.274m30.853.605-28.678 7.151m1.927 6.579 28.274-7.05m4.375 19.468-27.281 6.802m1.985 6.812 26.74-6.667m1.566 6.669-26.513 6.61m1.52 4.947 26.109-6.51m1.447 6.575-25.792 6.431"/><path fill="#445684" d="m122.65 73.436 6.662-1.661-4.318-19.608s-3.753-3.399-4.874-3.12-2.938 5.067-2.938 5.067zm-16.918-32.808 6.662-1.661-1.958-7.852s-2.981-2.593-4.103-2.313-2.565 4.047-2.565 4.047zm16.399-4.089 6.661-1.661-1.958-7.852s-2.981-2.592-4.103-2.313-2.564 4.047-2.564 4.047zm8.449 80.973 12.489-3.114-5.167-25.015s-7.036-6.373-9.137-5.849-5.509 9.5-5.509 9.5z"/><path fill="none" d="m115.344 30.002-1.778-7.128m5.196 20.837-1.832-7.348m3.626 39.861 2.402 8.611M111.99 45.517l1.518 5.443m14.256-3.318-1.27-5.625m9.021 39.921-1.946-8.611"/><path fill="#b49f5c" d="M82.332 140.228 34.913 57.12l27.698-14.727 42.747 85.537z"/><path fill="#b49f5c" d="m23.299 47.892 7.554-4.017 3.318 6.206 8.042-4.276-3.284-6.223 8.022-4.266 3.304 6.213 7.062-3.755-3.323-6.203 7.073-3.76 3.296 6.197-1.808 8.443L35.06 57.07l-8.466-2.98z"/><path fill="none" d="m38.609 63.359 27.329-14.53m3.011 6.156L41.866 69.386m30.391-7.585-26.385 14.03M75.021 67l-26.55 14.117m30.083-6.877L52.457 88.116m3.461 5.917 25.729-13.68m8.955 17.832-24.825 13.199m3.574 6.13 24.333-12.939m3.133 6.092L72.69 123.496m2.672 4.432 23.759-12.633m2.994 6.029-23.47 12.48"/><path fill="#445684" d="m69.679 96.79 6.062-3.223-8.934-17.981s-4.464-2.39-5.484-1.848-1.625 5.628-1.625 5.628zM45.326 69.049l6.063-3.223-3.799-7.145s-3.52-1.794-4.541-1.251c-1.021.542-1.51 4.547-1.51 4.547zm14.923-7.935 6.062-3.223-3.799-7.145s-3.52-1.794-4.541-1.252c-1.02.542-1.509 4.547-1.509 4.547zm27.787 76.524 11.365-6.042-11.065-23.021s-8.368-4.481-10.281-3.464-3.047 10.551-3.047 10.551z"/><path fill="none" d="m52.082 56.414-3.45-6.487m10.082 18.962-3.555-6.687m13.162 37.8 4.414 7.774M52.581 72.279l2.79 4.914M68.4 70.524l-2.593-5.149m18.411 36.551-3.971-7.884"/></g><path fill="#b49f5c" stroke="#000" d="M303.534 106.795s-.14-.11-.482-.363a74 74 0 0 0-1.567-1.119c-1.4-.975-3.506-2.382-6.279-4.078-5.547-3.393-13.764-7.939-24.361-12.489-21.197-9.104-51.893-18.218-89.827-18.216-71.102-.013-114.468 32.062-119.327 35.845-.324.252-.451.357-.451.357a3.5 3.5 0 1 1-4.446-5.406c.357-.288 46.058-37.781 124.223-37.798 78.157.023 126.466 37.48 126.812 37.735a3.505 3.505 0 0 1 .619 4.914 3.5 3.5 0 0 1-2.768 1.354 3.5 3.5 0 0 1-2.146-.736zM281.5 143.929s-.113-.09-.395-.297a59 59 0 0 0-1.283-.916 104 104 0 0 0-5.139-3.336c-4.537-2.776-11.263-6.496-19.933-10.218-17.344-7.449-42.457-14.906-73.495-14.904-58.174-.01-93.656 26.232-97.631 29.328-.265.207-.369.292-.369.292a2.863 2.863 0 1 1-3.637-4.423c.292-.236 37.684-30.912 101.638-30.926 63.946.019 103.472 30.666 103.757 30.874a2.866 2.866 0 0 1 .504 4.021 2.85 2.85 0 0 1-2.262 1.106 2.86 2.86 0 0 1-1.755-.601z"/><g stroke="#000"><path fill="#b49f5c" d="m69.818 372.166 9.46-10.553s4.973-3.518 13.342 4.852 5.458 12.492 5.458 12.492l-9.946 11.039-8.611 1.818-13.099-12.372z"/><path fill="none" d="M76.476 373.905s2.05-.485 2.924-2.71c1.334-3.396-3.517-6.429-.121-9.582m3.434 21.17s1.097-1.873 4.935-2.734c2.535-.567 5.215 4.125 10.431-1.092"/><path fill="#b49f5c" d="m293.13 372.644-9.528-10.553s-5.009-3.518-13.438 4.853c-8.431 8.37-5.498 12.492-5.498 12.492l10.019 11.038 8.674 1.818 13.193-12.371z"/><path fill="none" d="M286.425 374.384s-2.065-.486-2.944-2.711c-1.345-3.396 3.543-6.428.121-9.582m-3.459 21.17s-1.105-1.872-4.972-2.733c-2.553-.567-5.252 4.124-10.506-1.092"/><path fill="#b49f5c" d="M82.713 382.783s33.345 41.02 99.555 41.02c66.209 0 97.875-40.54 97.875-40.54l17.99 23.271s-44.857 43.658-115.387 43.658c-70.527 0-117.785-44.619-117.785-44.619z"/><g fill="#b49f5c"><path d="M8.695 156.03s25.914 5.265 41 28.333c14.083 21.534 17.886 60.989 5.333 60.667l-5.333-2.668-15-11.667s7.667-38.667-33.333-50.667l16-8c0 .002-4-11.331-8.667-15.998z"/><path d="M53.029 235.697s2.218.563 3.434 2.557c1.411 2.313-.129 6.25-1.434 6.777l-5.333-2.666z"/></g><g fill="#b49f5c"><path d="M354.319 156.51s-25.882 5.265-40.947 28.333c-14.063 21.534-17.863 60.989-5.326 60.667l5.326-2.666 14.979-11.668s-7.655-38.667 33.291-50.667l-15.979-8c0 .001 3.996-11.333 8.656-15.999z"/><path d="M310.042 236.175s-2.215.563-3.431 2.557c-1.408 2.314.131 6.251 1.434 6.777l5.326-2.666z"/></g><path fill="#b49f5c" d="m76.476 373.905-20.391 19.431s-27.39-18.639-37.39-75.971c-10-57.334 9.333-92 9.333-92l25 10.333s-15.333 38.668-7.667 77.334 31.115 60.873 31.115 60.873zm209.949.479 20.539 19.431s27.588-18.64 37.66-75.972c10.072-57.334-9.4-92-9.4-92l-25.182 10.333s15.444 38.668 7.723 77.334c-7.723 38.667-31.34 60.874-31.34 60.874z"/></g><path d="m31.944 241.182-.328.217q-.966-1.027-1.224-2.157a3.95 3.95 0 0 1 .101-2.189q.603-1.778 2.305-2.389 1.703-.608 3.585.027 1.816.617 2.866 2.055 1.268 1.733.572 3.787-.468 1.38-1.438 1.957c-.97.577-1.255.48-1.826.287q-.542-.185-.754-.621-.213-.437-.032-.971.19-.561.686-.801.495-.24 1.475-.006.618.148.93.011a.72.72 0 0 0 .412-.435q.155-.457-.222-.943-.563-.742-2.076-1.256a7.7 7.7 0 0 0-2.536-.416q-1.281.014-2.078.517a2.05 2.05 0 0 0-.828 1.099 2 2 0 0 0-.081.959q.076.493.491 1.268m5.123 8.568a4.33 4.33 0 0 1-1.192 2.043 4.03 4.03 0 0 1-2.146 1.092q-1.266.233-2.606-.119-1.932-.51-2.976-1.833-1.26-1.598-.711-3.687.54-2.05 2.269-2.777 1.729-.729 3.622-.229 1.953.515 3.105 2.025 1.155 1.515.635 3.485m-.7-.141a1.17 1.17 0 0 0-.149-.947q-.28-.455-1.353-.855-1.074-.402-3.035-.918a13 13 0 0 0-1.978-.375q-.718-.076-1.169.18-.452.255-.569.701-.116.436.051.792c.154.31.417.562.79.748q.873.437 3.677 1.176 1.651.436 2.316.413.666-.023 1.042-.307.27-.202.377-.608m-1.835 10.06-1.196-.217q.642.852.875 1.566t.098 1.466q-.162.899-.768 1.403a2.44 2.44 0 0 1-1.383.566q-.591.055-2.192-.231l-3.597-.649q-1.067-.194-1.363-.047t-.477.745l-.355-.063.843-4.674.355.063q-.025.537.299.83.219.203 1.197.379l4.111.74q1.136.207 1.449.172a.9.9 0 0 0 .514-.219.77.77 0 0 0 .247-.441q.154-.849-.93-1.801l-4.951-.893q-1.038-.188-1.349-.045c-.311.143-.366.314-.476.655l-.355-.065.843-4.673.355.063q-.045.594.226.898.187.208 1.255.399l5.217.94q1.048.188 1.339.041.29-.146.481-.744l.366.066zm-1.692 14.015-3.201-.188.036-.34q1.482-.459 2.071-1.059.59-.597.658-1.248a1 1 0 0 0-.201-.729.85.85 0 0 0-.603-.356.82.82 0 0 0-.541.146q-.443.275-1.593 1.639-1.15 1.362-1.893 1.752a2.74 2.74 0 0 1-1.602.301 3.3 3.3 0 0 1-1.486-.553 2.76 2.76 0 0 1-1.032-1.219 3.16 3.16 0 0 1-.233-1.611q.07-.669.61-1.743.141-.286.153-.397.034-.33-.441-.603l.035-.329 3.372.195-.036.341q-1.365.31-2.108 1.022-.743.714-.817 1.412-.05.482.211.815a.95.95 0 0 0 .682.381q.479.05.86-.212c.381-.262.654-.583 1.201-1.227q1.22-1.415 1.828-1.805.889-.572 1.877-.467 1.078.113 1.873.95c.795.837.745 1.307.646 2.245a3.15 3.15 0 0 1-.526 1.429q-.179.253-.195.424-.02.18.043.298c.063.118.171.211.388.395zm2.774 6.646-3.43-.166-.108 2.228-.993-.05.108-2.227-5.787-.279q-.812-.04-1.052.023c-.24.063-.291.125-.394.247q-.156.183-.163.345-.032.653.933 1.281l-.235.291q-1.887-.908-1.798-2.73.044-.893.569-1.485.526-.595 1.146-.733.346-.083 1.851-.012l5.064.246.059-1.225.352.019q.832 1.306 1.771 2.241c.939.935 1.333 1.176 2.122 1.656zm-11.522 8.92q-1.545-1.69-1.566-3.058-.012-.802.505-1.343.519-.541 1.312-.555 1.074-.017 1.947.894.874.91 2.349 3.989l.944-.016q1.064-.019 1.339-.138t.474-.444q.201-.325.195-.727-.01-.653-.309-1.068-.184-.26-.426-.254-.211.003-.518.289-.426.39-.827.395a1.1 1.1 0 0 1-.845-.354q-.352-.361-.361-.953-.01-.633.364-1.064.375-.433.887-.441.723-.012 1.39.551.668.562 1.035 1.58.368 1.017.386 2.123.02 1.336-.534 2.122c-.554.786-.774.868-1.213 1.029-.279.099-.925.153-1.936.172l-3.644.06q-.643.008-.808.063c-.165.055-.191.087-.244.154a.36.36 0 0 0-.077.231q.004.263.38.525l-.236.307q-.75-.49-1.096-1.022a2.25 2.25 0 0 1-.356-1.213q-.013-.805.357-1.263.371-.455 1.132-.571m.733-.01 3.143-.05q-.733-1.204-1.556-1.782-.548-.385-1.1-.375-.463.007-.808.346-.267.254-.26.705.009.5.581 1.156m7.778 9.358-1.209.112q.848.647 1.265 1.273t.489 1.387q.087.908-.362 1.558a2.43 2.43 0 0 1-1.179.918q-.555.215-2.174.366l-3.639.345q-1.08.102-1.327.321t-.257.848l-.36.033-.447-4.729.36-.033q.12.524.511.719.265.136 1.255.043l4.159-.395q1.15-.108 1.44-.229a.9.9 0 0 0 .436-.348.77.77 0 0 0 .121-.492q-.081-.858-1.381-1.481l-5.008.476c-.699.063-1.137.172-1.312.318q-.261.221-.281.76l-.36.032-.448-4.728.361-.034q.115.584.458.803.236.15 1.316.048l5.278-.498q1.06-.1 1.301-.32.242-.219.263-.848l.37-.035zm-4.717 16.859-.187.348q-1.338-.448-2.101-1.322a3.94 3.94 0 0 1-.948-1.975q-.312-1.85.899-3.193 1.21-1.344 3.17-1.675 1.892-.318 3.497.452 1.938.927 2.298 3.064.242 1.437-.34 2.403-.58.97-1.472 1.118-.564.096-.959-.19-.393-.284-.487-.84-.097-.584.224-1.028c.214-.3.646-.531 1.297-.703q.613-.163.823-.435a.71.71 0 0 0 .158-.575q-.08-.476-.642-.728-.849-.389-2.424-.121a7.6 7.6 0 0 0-2.43.836q-1.124.616-1.587 1.437a2.06 2.06 0 0 0-.209 1.359 2 2 0 0 0 .382.883q.304.394 1.038.885m8.146 4.632-7.263 1.619q-.97.217-1.189.502-.22.284-.112.949l-.353.08-1.103-4.949.353-.08q.155.604.554.824.27.145 1.239-.07l5.352-1.192q.97-.216 1.189-.502c.219-.286.184-.504.115-.94l.362-.08zm4.135-2.36a1.5 1.5 0 0 1-.206 1.179 1.52 1.52 0 0 1-.975.68 1.5 1.5 0 0 1-1.168-.207 1.5 1.5 0 0 1-.68-.977 1.5 1.5 0 0 1 .203-1.166q.343-.539.971-.68a1.5 1.5 0 0 1 1.171.201q.544.346.684.97m-9.834 12.249q-1.924-1.245-2.293-2.561-.217-.773.146-1.428.364-.656 1.128-.869 1.034-.288 2.111.367 1.076.657 3.287 3.26l.909-.254q1.026-.288 1.259-.475.235-.185.346-.551a1.3 1.3 0 0 0 .003-.752q-.176-.626-.57-.957-.244-.202-.477-.137-.204.058-.427.412-.312.484-.7.592-.473.134-.905-.125-.433-.261-.593-.83-.171-.607.081-1.123c.252-.516.417-.562.746-.652q.695-.194 1.484.18.787.372 1.403 1.264.614.892.914 1.955.36 1.284.024 2.188c-.336.904-.527 1.036-.912 1.305q-.368.25-1.828.658l-3.509.984q-.619.173-.765.267a.5.5 0 0 0-.196.212.35.35 0 0 0-.015.243q.07.253.502.413l-.151.355q-.85-.284-1.32-.709a2.25 2.25 0 0 1-.653-1.084q-.217-.774.023-1.312.24-.534.948-.836m.705-.198 3.027-.85q-1.016-.978-1.958-1.328-.627-.23-1.16-.081a1.15 1.15 0 0 0-.693.538q-.194.316-.071.75.135.486.855.971m5.039 17.057c-1.359-.694-2.205-1.469-2.538-2.315q-.293-.748.003-1.437.296-.685 1.035-.978 1-.392 2.136.153 1.138.548 3.598 2.914l.878-.346q.99-.388 1.206-.597.216-.21.289-.583a1.3 1.3 0 0 0-.073-.748q-.239-.605-.663-.895-.264-.175-.488-.09-.196.079-.383.455c-.175.34-.387.562-.636.658a1.12 1.12 0 0 1-.915-.035q-.457-.212-.673-.767-.231-.591-.032-1.125.2-.537.676-.724.673-.266 1.494.027.82.291 1.523 1.118.7.824 1.104 1.853.488 1.245.244 2.176-.243.932-.777 1.389-.342.285-1.752.84l-3.393 1.332c-.399.154-.644.271-.734.342a.47.47 0 0 0-.174.229.36.36 0 0 0 .01.245q.095.241.54.358l-.114.369q-.876-.197-1.385-.574a2.26 2.26 0 0 1-.759-1.012q-.293-.749-.108-1.307c.126-.365.412-.677.861-.925m.683-.266 2.926-1.147q-1.107-.871-2.082-1.125-.648-.166-1.162.035a1.14 1.14 0 0 0-.636.605q-.16.332.005.753.184.466.949.879m10.487 6.123-1.109.542q1.097.327 1.688.77c.591.443.706.678.935 1.146q.396.812.285 1.547-.11.736-.741 1.413 1.164.326 1.849.812.684.489 1.037 1.209.428.878.278 1.592a2.3 2.3 0 0 1-.667 1.22q-.519.506-1.873 1.166l-3.456 1.687q-.975.474-1.123.767-.15.288.052.886l-.325.158-2.128-4.359.326-.158q.296.493.767.564.323.043 1.198-.383l3.628-1.771q1.128-.55 1.391-.791t.317-.506a.8.8 0 0 0-.073-.529q-.19-.39-.668-.646-.477-.257-1.245-.387l-4.529 2.211q-.912.444-1.072.714-.233.369.018.976l-.325.157-2.131-4.366.325-.158q.189.343.447.468a.86.86 0 0 0 .511.087q.254-.041.994-.402l3.628-1.771q1.146-.559 1.391-.79a.98.98 0 0 0 .303-.523.8.8 0 0 0-.06-.533 1.3 1.3 0 0 0-.511-.566q-.488-.288-1.397-.436l-4.53 2.211q-.894.433-1.091.75-.199.316.021.9l-.325.158-2.123-4.35.325-.158q.314.504.712.591.274.054 1.249-.419l4.765-2.326q.956-.466 1.105-.758.15-.289-.052-.885l.334-.164zm8.722 15.951q.624 1.056.615 2.285c-.009 1.229-.25 1.583-.733 2.293q-.724 1.063-1.917 1.771-1.72 1.014-3.395.827-2.024-.23-3.122-2.088-1.078-1.823-.38-3.563.697-1.742 2.383-2.738 1.738-1.027 3.625-.782 1.887.24 2.924 1.995m-.593.397a1.17 1.17 0 0 0-.78-.561q-.52-.119-1.559.361-1.04.48-2.787 1.512-.925.547-1.657 1.145-.56.457-.694.957-.136.501.099.896.23.392.599.521.492.163 1.087-.035.923-.313 3.422-1.789 1.47-.868 1.922-1.356t.514-.957q.049-.33-.166-.694m5.924 8.549-1.762 1.195q1.73-.043 2.519.269.79.315 1.156.854.316.465.219.938-.097.47-.621.827-.557.378-1.047.316-.491-.061-.75-.443a1.36 1.36 0 0 1-.237-.957q.063-.516.057-.596a.43.43 0 0 0-.081-.226.84.84 0 0 0-.493-.332q-.514-.151-1.156.031a6.9 6.9 0 0 0-1.958.94l-1.787 1.213-.459.328q-.473.32-.567.469a.8.8 0 0 0-.127.518q.028.267.319.749l-.299.203-2.848-4.196.299-.203q.385.479.743.497t1.372-.67l4.295-2.916q.664-.451.802-.644a.8.8 0 0 0 .177-.471q0-.232-.229-.66l.307-.207zm14.631 28.407 1.805-7.371q.412-1.669.372-2.153c-.04-.484-.135-.615-.323-.877l.226-.296 3.968 3.025-.225.295q-.403-.282-.667-.27a.52.52 0 0 0-.409.205q-.231.304-.514 1.502l-.949 3.896 2.592-1.596q1.389-.848 1.749-1.318a.76.76 0 0 0 .163-.621q-.062-.323-.544-.717l.225-.295 2.499 1.902-.225.297a1.18 1.18 0 0 0-.815-.174q-.417.067-2.037 1.066l-6.349 3.908q-2.389 1.461-3.145 1.643-1.062.252-1.893-.381-.663-.506-.785-1.197a1.5 1.5 0 0 1 .286-1.229q.352-.464.868-.551.515-.088.93.229.4.304.448.746.049.442-.351.982-.223.308-.226.445a.27.27 0 0 0 .117.229q.192.146.583.078.575-.094 1.919-.961zm18.875 2.341-3.483 5.506q-.504.797-.464 1.107.073.486.819.922l-.193.305-4.674-2.957.193-.305q.54.329.837.357a.75.75 0 0 0 .511-.123q.214-.151.622-.795l3.484-5.506-1.154-.729.526-.832 1.154.729.371-.586.244-.402q.773-1.222 2.183-1.471t2.938.719q1.044.659 1.301 1.369c.172.475.158.867-.042 1.186q-.241.38-.733.463-.491.082-1.008-.246-.441-.279-.555-.672t.063-.672q.048-.078.25-.281.125-.123.206-.25.113-.179.064-.328a.55.55 0 0 0-.25-.336.6.6 0 0 0-.541-.057q-.294.097-.579.547l-.922 1.496-.639 1.01 1.17.74-.526.832zm6.576 2.78-3.742 6.43q-.5.858-.439 1.213c.061.355.248.479.622.729l-.182.313-4.382-2.551.182-.313q.548.296.98.152.29-.097.79-.957l2.757-4.736q.5-.861.439-1.215-.06-.355-.613-.723l.187-.322zm1.073-4.639q.564.328.725.949.16.624-.163 1.18-.323.553-.945.715-.622.16-1.177-.162c-.555-.322-.609-.529-.718-.941a1.48 1.48 0 0 1 .16-1.172q.324-.556.943-.723a1.47 1.47 0 0 1 1.175.154m11.171 6.396-4.978 9.588q-.504.97-.543 1.178-.082.33.045.576.126.249.607.541l-.153.295-3.875-1.141.685-1.318q-1.03.436-1.668.457a2.54 2.54 0 0 1-1.262-.305q-1.595-.83-1.781-2.734-.147-1.546.727-3.23.699-1.344 1.715-2.17 1.016-.823 2.104-.949a3.44 3.44 0 0 1 2.015.355q.597.311.94.783c.343.472.418.756.568 1.324l1.304-2.514q.495-.954.517-1.189a.86.86 0 0 0-.122-.551q-.15-.235-.737-.541l.194-.375zm-5.427 4.356q-.002-1.608-.956-2.104a.92.92 0 0 0-.636-.104q-.474.103-1.043.689-.57.588-1.315 2.021-.82 1.576-.98 2.455c-.16.879-.086 1.061.064 1.424q.117.276.473.461.784.406 2.117-.461zm11.325 7.769-4.699-2.109q-.682 1.742-.301 3.102.29 1.043 1.18 1.441.55.247 1.136.143t1.457-.674l.221.342q-1.334 1.107-2.441 1.32-1.108.214-2.216-.285-1.906-.852-2.228-2.76-.258-1.534.527-3.283.961-2.145 2.689-2.895 1.728-.748 3.285-.049 1.3.583 1.779 2.08c.479 1.497.19 2.208-.389 3.627m-1.978-1.625q.661-1.474.748-2.096c.087-.622.016-.768-.125-1.059q-.119-.252-.439-.395-.477-.217-.988.117-.906.571-1.543 1.992l-.144.32zm10.346-4.291-4.299 10.844q-.367.923-.253 1.266.112.344.724.627l-.133.336-4.713-1.867.133-.336q.586.21.992.004.272-.141.638-1.064l3.582-9.033q.363-.913.25-1.258-.113-.342-.714-.621l.137-.346zm4.443 6.125-2.488 7.01q-.333.938-.207 1.275.125.335.746.6l-.121.34-4.778-1.693.121-.34q.594.187.991-.033.266-.152.599-1.086l1.833-5.166q.332-.937.207-1.273-.125-.339-.736-.598l.124-.352zm.197-4.755q.615.218.888.801c.273.583.202.783.058 1.188a1.5 1.5 0 0 1-.796.879 1.5 1.5 0 0 1-1.187.059 1.5 1.5 0 0 1-.88-.793q-.275-.574-.06-1.182c.215-.608.408-.699.793-.885q.578-.282 1.184-.067m12.039 4.138-3.07 10.357q-.312 1.049-.311 1.258-.018.343.154.559.171.219.698.418l-.094.316-4.021-.385.422-1.426q-.928.626-1.551.766c-.623.14-.848.074-1.296-.061q-1.723-.51-2.267-2.348-.438-1.491.102-3.311.43-1.453 1.272-2.455c.842-1.002 1.19-1.111 1.887-1.33a3.44 3.44 0 0 1 2.046-.033q.645.192 1.071.59.426.4.809 1.193l.805-2.715c.203-.688.297-1.107.281-1.268a.86.86 0 0 0-.224-.516q-.191-.205-.826-.393l.12-.404zm-4.504 5.305q-.307-1.578-1.337-1.885-.356-.103-.645.02-.444.194-.893.877-.449.684-.908 2.232-.505 1.705-.498 2.598t.333 1.387q.167.247.552.361.848.252 1.992-.854zm9.011 8.328q-2.007 1.105-3.339.807-.783-.176-1.188-.807-.405-.632-.23-1.404.235-1.05 1.324-1.684 1.089-.635 4.428-1.35l.207-.92q.232-1.037.181-1.334-.053-.294-.321-.564a1.3 1.3 0 0 0-.66-.359q-.637-.143-1.112.051-.294.118-.347.354-.047.205.16.57.278.504.19.896-.108.478-.541.736c-.433.258-.626.215-1.011.129q-.617-.14-.95-.604-.333-.468-.221-.967.158-.705.86-1.223.702-.515 1.778-.635a6.5 6.5 0 0 1 2.154.123q1.302.292 1.938 1.016.635.723.715 1.42.045.445-.287 1.924l-.797 3.555q-.14.628-.128.801.013.17.093.271a.37.37 0 0 0 .208.129q.255.058.601-.246l.241.301q-.653.617-1.25.826a2.25 2.25 0 0 1-1.264.063q-.783-.176-1.142-.643-.36-.462-.29-1.232m.16-.715.688-3.064q-1.341.43-2.097 1.094-.5.443-.621.98-.1.453.145.867.186.32.626.418c.326.072.746-.023 1.259-.295m16.342-8.793-1.617 10.682q-.164 1.082-.134 1.287c.02.229.096.404.229.533s.382.234.749.316l-.049.328-4.037.17.222-1.469q-.834.744-1.431.971-.597.225-1.292.119-1.778-.27-2.568-2.014-.639-1.416-.354-3.293.226-1.499.922-2.605c.696-1.106 1.026-1.266 1.686-1.578q.99-.47 2.022-.313.665.1 1.142.438.477.336.965 1.07l.423-2.801q.16-1.061.104-1.293a.86.86 0 0 0-.292-.48q-.218-.176-.873-.275l.063-.416zm-3.732 5.871q-.522-1.521-1.583-1.68a.93.93 0 0 0-.636.105q-.414.252-.764.99t-.593 2.338q-.266 1.755-.135 2.641.13.881.52 1.326.2.222.597.283.874.132 1.855-1.121zm19.066 3.78-5.146-.215q.012 1.868.87 2.988.657.861 1.63.902.602.026 1.107-.291.506-.314 1.104-1.164l.332.234q-.827 1.524-1.777 2.133-.95.606-2.164.557-2.087-.088-3.092-1.736-.808-1.33-.729-3.246.097-2.345 1.425-3.684 1.327-1.337 3.032-1.266 1.424.062 2.423 1.271c.667.812.995 1.981.985 3.517m-2.44-.778q.067-1.613-.083-2.223c-.15-.61-.27-.719-.508-.938q-.204-.19-.554-.203-.522-.022-.874.477-.629.867-.694 2.422l-.015.352zm9.999-3.959.211 3.199-.341.006q-.64-1.412-1.307-1.922-.669-.51-1.319-.498a1 1 0 0 0-.697.289.86.86 0 0 0-.278.645.82.82 0 0 0 .211.518q.328.406 1.821 1.377 1.496.97 1.976 1.66c.48.69.485.977.496 1.551a3.3 3.3 0 0 1-.361 1.543 2.75 2.75 0 0 1-1.082 1.176q-.706.415-1.567.432-.674.015-1.805-.389-.305-.103-.414-.102-.332.007-.543.512l-.33.006-.226-3.369.341-.006q.476 1.315 1.277 1.963.799.65 1.503.637c.321-.008.582-.109.782-.313a.96.96 0 0 0 .291-.723q-.008-.485-.315-.828-.307-.345-1.364-1.039-1.556-1.034-2.019-1.588-.68-.812-.697-1.805-.02-1.085.711-1.977c.486-.596 1.202-.9 2.146-.92a3.14 3.14 0 0 1 1.481.344q.273.146.443.143a.5.5 0 0 0 .29-.08q.11-.077.343-.434zm11.576-.603.18 1.221q.644-.945 1.244-1.373.602-.427 1.377-.541.894-.13 1.562.199.666.329 1.118 1.135.665-1.01 1.338-1.514a3.2 3.2 0 0 1 1.467-.621q.964-.141 1.6.219.635.357.959 1.006.323.65.539 2.139l.557 3.805q.156 1.072.389 1.303.231.232.857.221l.054.357-4.8.699-.051-.357q.559-.131.771-.559.14-.293-.001-1.258l-.583-3.994q-.181-1.241-.33-1.564c-.149-.323-.228-.367-.386-.455a.8.8 0 0 0-.526-.092q-.427.064-.817.439-.39.376-.748 1.066l.729 4.988q.148 1.002.353 1.236.282.333.935.279l.054.357-4.809.701-.053-.357q.384-.076.582-.283a.84.84 0 0 0 .238-.461q.036-.252-.08-1.066l-.584-3.994q-.184-1.263-.33-1.564a.97.97 0 0 0-.404-.447.8.8 0 0 0-.528-.105 1.35 1.35 0 0 0-.694.314q-.422.374-.84 1.197l.729 4.986q.143.982.383 1.268.238.284.864.256l.052.355-4.788.699-.052-.357q.578-.146.778-.498.137-.244-.021-1.316l-.767-5.244q-.153-1.055-.385-1.283-.23-.231-.857-.219l-.055-.369zm21.582-4.213 1.747 7.139q.255 1.043.515 1.254.257.212.869.133l.086.352-3.716.908-.299-1.219q-.46.94-1.028 1.457-.567.515-1.375.713-.772.188-1.486-.137-.715-.328-1.074-.91c-.359-.582-.489-1.111-.747-2.164l-.886-3.617q-.252-1.035-.504-1.24-.253-.208-.877-.139l-.088-.359 3.715-.908 1.524 6.229q.239.976.4 1.236a.84.84 0 0 0 .397.357.8.8 0 0 0 .498.031q.352-.085.59-.34.327-.347.686-1.254l-1.193-4.875q-.252-1.032-.505-1.24c-.253-.208-.46-.184-.876-.137l-.088-.361zm9.476 7.314-5.02-5.691q-1.133-1.29-1.555-1.533a1.7 1.7 0 0 0-.904-.236l-.113-.354 4.748-1.531.114.354q-.462.169-.601.395a.52.52 0 0 0-.065.455q.118.363.938 1.277l2.656 3.006.17-3.039q.1-1.626-.082-2.189a.77.77 0 0 0-.416-.488q-.303-.135-.899.037l-.114-.354 2.991-.963.112.354q-.422.188-.606.57c-.184.382-.218 1.014-.288 2.281l-.417 7.441q-.165 2.796-.448 3.521-.399 1.014-1.395 1.336-.792.253-1.432-.041-.639-.295-.844-.936-.179-.555.043-1.025.22-.473.719-.635.477-.153.867.059.391.214.605.85.128.362.236.441a.27.27 0 0 0 .255.033c.151-.051.284-.193.397-.436q.252-.525.307-2.123zm11.789-14.863.49 1.111q.344-1.01.807-1.602.464-.594 1.16-.902.837-.369 1.592-.148.756.222 1.244.828.379.46 1.033 1.947l1.477 3.344q.438.991.724 1.156c.286.165.486.102.886-.023l.146.332-4.345 1.916-.146-.33q.459-.28.521-.713.046-.294-.355-1.203l-1.686-3.82q-.467-1.058-.67-1.295a.9.9 0 0 0-.469-.305.77.77 0 0 0-.504.041q-.789.348-.972 1.777l2.03 4.602c.283.645.522 1.023.719 1.145q.29.178.808.027l.146.33-4.345 1.916-.146-.33q.518-.293.617-.689.068-.271-.37-1.262l-2.14-4.852q-.43-.971-.715-1.133-.283-.162-.887.02l-.148-.342zm10.93-5.514a4.34 4.34 0 0 1 2.313-.488 4.06 4.06 0 0 1 2.25.857q1.022.781 1.659 2.012c.613 1.184.826 2.326.64 3.436q-.339 2.007-2.254 3.002-1.88.973-3.58.184c-1.7-.789-2-1.371-2.603-2.529q-.929-1.791-.582-3.662c.347-1.871.951-2.187 2.157-2.812m.363.616a1.17 1.17 0 0 0-.603.748q-.148.51.274 1.576.422 1.064 1.355 2.863c.33.637.68 1.207 1.051 1.719q.425.582.918.744c.493.162.629.094.901-.051a1.15 1.15 0 0 0 .554-.568q.191-.484.022-1.088-.262-.938-1.597-3.514-.786-1.515-1.25-1.992-.462-.478-.926-.564-.323-.067-.699.127m6.186-8.737 2.648 4.439q.391-1.658 1.598-2.377a3.2 3.2 0 0 1 1.852-.445q1.023.05 1.973.701.95.648 1.647 1.822.786 1.318.903 2.709c.117 1.391-.063 1.756-.426 2.48q-.541 1.09-1.672 1.764-.655.393-1.287.486-.633.096-1.401-.076l-.815 1.668-.293.176-6.115-10.252q-.418-.696-.575-.824a.77.77 0 0 0-.484-.195q-.255-.005-.704.238l-.19-.318zm3.107 5.207 2.14 3.588c.437.729.729 1.186.886 1.365q.39.457.904.576c.514.119.686.018 1.023-.186q.44-.26.605-.699.164-.437-.064-1.305-.23-.868-1.385-2.799-1.103-1.855-1.982-2.266-.633-.301-1.203.039-.741.447-.924 1.687m6.886-11.48 6.42 9.74q.546.828.892.934.343.103.93-.232l.197.301-4.231 2.791-.199-.303q.51-.358.572-.811.04-.302-.507-1.133l-5.349-8.113q-.54-.82-.886-.924-.345-.105-.921.227l-.204-.311zm13.594.949-4.19 2.994q1.16 1.467 2.525 1.822 1.048.277 1.84-.291a1.9 1.9 0 0 0 .695-.908q.204-.56.154-1.598l.406-.02q.282 1.71-.093 2.773c-.375 1.063-.704 1.299-1.362 1.77q-1.7 1.215-3.508.531-1.455-.552-2.57-2.111-1.363-1.91-1.141-3.779.225-1.871 1.613-2.863 1.16-.83 2.693-.486 1.536.342 2.938 2.166m-2.399.889q-.94-1.314-1.434-1.703-.493-.387-.977-.426-.278-.023-.563.18-.424.305-.396.914.037 1.07.941 2.336l.204.287zm33.23-27.94-7.392-1.721q-1.671-.394-2.156-.348-.484.047-.873.332l-.298-.223 2.979-4.002.298.223q-.277.407-.26.669a.52.52 0 0 0 .21.407q.306.225 1.508.496l3.906.904-1.626-2.574q-.862-1.38-1.337-1.732-.298-.221-.622-.156c-.324.065-.453.229-.712.553l-.298-.221 1.876-2.521.298.222q-.236.403-.164.817c.072.414.411.951 1.09 2.023l3.98 6.305q1.488 2.372 1.679 3.127.263 1.058-.361 1.896-.497.668-1.188.8a1.51 1.51 0 0 1-1.23-.271q-.467-.349-.561-.861a1.16 1.16 0 0 1 .219-.934q.299-.402.74-.456.44-.054.986.34.31.22.447.222.136.002.228-.119.144-.194.071-.584-.099-.576-.982-1.908zm.298-18.27 1.097.566q-.395-1.073-.392-1.812t.362-1.436c.275-.535.634-.92 1.069-1.153q.657-.349 1.575-.249-.434-1.128-.453-1.968a3.2 3.2 0 0 1 .352-1.554q.448-.866 1.108-1.174c.66-.308.899-.27 1.376-.192q.716.116 2.054.806l3.416 1.766q.963.498 1.285.443.32-.055.679-.57l.321.166-2.227 4.309-.32-.166q.219-.531-.006-.952-.156-.286-1.022-.731l-3.586-1.853q-1.114-.575-1.464-.644-.35-.067-.597.049a.8.8 0 0 0-.38.374q-.198.384-.119.922c.079.538.196.769.434 1.229l4.478 2.313q.902.466 1.211.434.436-.033.771-.596l.32.166-2.229 4.316-.32-.166q.162-.356.109-.639a.84.84 0 0 0-.237-.461q-.184-.18-.915-.558l-3.586-1.853q-1.133-.585-1.464-.644c-.331-.059-.421-.017-.601.067s-.312.207-.394.367a1.3 1.3 0 0 0-.148.748q.06.563.483 1.381l4.479 2.313q.882.455 1.254.427.37-.03.709-.554l.321.165-2.221 4.3-.32-.166q.218-.554.048-.924-.118-.253-1.081-.751l-4.71-2.433q-.946-.489-1.269-.435-.32.054-.679.569l-.329-.17zm8.855-19.823 6.866 2.616q1.004.384 1.323.289.32-.092.604-.64l.338.129-1.362 3.574-1.172-.447q.51.914.613 1.674t-.193 1.537a2.22 2.22 0 0 1-.958 1.145q-.673.406-1.358.369-.684-.035-2.204-.615l-3.48-1.326q-.994-.378-1.309-.288-.313.09-.61.644l-.347-.133 1.361-3.574 5.994 2.284q.938.357 1.244.372c.306.015.377-.031.521-.124a.78.78 0 0 0 .311-.392q.129-.339.055-.678-.099-.47-.642-1.276l-4.69-1.787q-.994-.38-1.309-.289c-.315.091-.412.274-.61.644l-.347-.133zm11.299-3.581-7.523 1.002q-1.703.223-2.14.438a1.74 1.74 0 0 0-.699.619l-.356-.103 1.372-4.797.356.103q-.116.479-.008.719.11.24.341.306.367.106 1.586-.067l3.976-.533-2.432-1.834q-1.293-.986-1.864-1.149a.77.77 0 0 0-.637.074q-.28.175-.471.77l-.357-.104.864-3.021.357.103q-.081.458.136.822.214.364 1.734 1.509l5.951 4.49q2.23 1.693 2.675 2.332.62.898.334 1.9-.23.801-.83 1.168-.6.365-1.247.18-.56-.159-.829-.606a1.14 1.14 0 0 1-.125-.948q.138-.484.531-.688.392-.206 1.042-.031.368.095.498.05a.27.27 0 0 0 .17-.193q.066-.23-.141-.571-.294-.501-1.594-1.437zm-10.156-18.621 11.494 1.992q.98.169 1.291-.012.312-.179.466-.836l.356.063-.866 4.994-.355-.062q.087-.615-.197-.972-.194-.238-1.174-.406l-9.574-1.659q-.969-.167-1.281.013-.31.181-.464.826l-.366-.063zm9.804-9.009-.589 5.115q1.867.124 3.046-.648.907-.594 1.02-1.562a1.9 1.9 0 0 0-.209-1.126q-.28-.527-1.081-1.186l.258-.313q1.46.936 1.997 1.929.537.991.398 2.197-.24 2.075-1.957 2.958-1.387.711-3.29.49-2.335-.269-3.57-1.688-1.236-1.421-1.041-3.115.163-1.418 1.445-2.325 1.28-.909 3.573-.726m-.95 2.377q-1.606-.184-2.226-.08-.617.106-.97.438-.204.19-.244.538-.058.519.411.906.82.692 2.366.867l.349.041zm4.964-9.009q1.438 1.783 1.375 3.147-.036.803-.586 1.311t-1.343.473q-1.075-.049-1.891-1.01-.815-.963-2.1-4.125l-.942-.043q-1.063-.048-1.345.055c-.282.103-.354.207-.501.414a1.3 1.3 0 0 0-.238.713q-.029.654.243 1.086.168.27.409.281.21.009.534-.258.448-.36.85-.344.492.023.82.402.33.383.303.975-.028.633-.429 1.041c-.401.408-.57.4-.911.387q-.723-.032-1.354-.635c-.631-.603-.731-.947-.936-1.641s-.289-1.406-.255-2.143q.06-1.334.661-2.086.6-.751 1.273-.951.429-.123 1.942-.054l3.64.164q.642.032.811-.015a.47.47 0 0 0 .253-.139.36.36 0 0 0 .091-.228q.012-.261-.349-.548l.256-.29q.718.534 1.03 1.087.313.55.28 1.232-.035.803-.433 1.236c-.259.296-.647.462-1.158.506m-.732-.032-3.14-.143q.657 1.246 1.442 1.874.524.415 1.075.44.462.022.827-.295.282-.238.303-.688.026-.501-.507-1.188m-11.394-9.396 11.665-.124q.994-.012 1.268-.245c.184-.155.284-.458.308-.905l.36-.004.054 5.068-.36.004q-.029-.623-.371-.92-.232-.197-1.228-.188l-9.718.104q-.982.011-1.257.244-.274.234-.307.896l-.372.004zm7.444-16.702.495 5.126q1.85-.27 2.843-1.272.762-.77.669-1.738a1.9 1.9 0 0 0-.439-1.057q-.382-.459-1.306-.934l.188-.361q1.622.61 2.355 1.467.731.858.85 2.066.2 2.079-1.295 3.303-1.206.983-3.114 1.168-2.338.226-3.845-.904-1.506-1.13-1.67-2.829-.136-1.42.927-2.575 1.06-1.16 3.342-1.46m-.433 2.521q-1.609.156-2.191.39-.583.233-.855.632-.159.23-.126.577.048.519.592.801.947.504 2.495.354l.35-.033zm-5.259-9.539 3.146-.623.05.339q-1.32.817-1.737 1.543-.42.727-.323 1.373a1 1 0 0 0 .377.653.85.85 0 0 0 .674.193.8.8 0 0 0 .486-.275q.36-.378 1.13-1.984c.77-1.606.978-1.796 1.391-2.172a2.74 2.74 0 0 1 1.477-.692 3.3 3.3 0 0 1 1.577.16q.803.276 1.305.922c.502.646.545.931.63 1.5.066.442.017 1.058-.151 1.839q-.065.316-.049.424.05.329.578.473l.049.328-3.313.656-.05-.338q1.244-.643 1.781-1.52.54-.877.437-1.573-.072-.476-.409-.735a.96.96 0 0 0-.756-.195 1.24 1.24 0 0 0-.779.421q-.302.348-.854 1.487-.826 1.676-1.315 2.205-.717.778-1.699.924-1.071.16-2.052-.449-.978-.609-1.188-2.01a3.2 3.2 0 0 1 .148-1.516q.11-.29.083-.459a.5.5 0 0 0-.117-.275q-.09-.098-.474-.285zm-4.26-5.615 3.369-.652-.424-2.189.977-.188.424 2.188 5.688-1.102q.797-.154 1.017-.273a.74.74 0 0 0 .323-.334q.106-.215.075-.373-.124-.64-1.21-1.021l.159-.338q2.046.431 2.396 2.227.17.876-.2 1.576-.372.703-.939.985-.317.163-1.794.45l-4.978.964.232 1.202-.346.066a13 13 0 0 0-2.252-1.756 11.4 11.4 0 0 0-2.454-1.105zm9.225-11.161q1.878 1.311 2.198 2.64.19.78-.197 1.422-.39.641-1.158.828-1.044.252-2.096-.443-1.052-.698-3.167-3.375l-.917.222q-1.034.25-1.275.429-.24.176-.366.537c-.081.24-.093.491-.028.752q.154.634.535.975.235.213.472.154.205-.049.441-.396.33-.47.72-.565.477-.117.9.158c.423.275.47.467.563.85q.15.615-.121 1.119-.271.506-.769.625-.702.17-1.477-.23-.774-.402-1.355-1.313a6.6 6.6 0 0 1-.844-1.986q-.313-1.297.056-2.188.367-.891.957-1.271.377-.234 1.851-.592l3.542-.857q.624-.153.773-.239c.149-.086.167-.126.203-.204a.35.35 0 0 0 .023-.242q-.061-.254-.486-.431l.163-.351q.841.313 1.293.757.455.444.614 1.106.19.781-.07 1.309-.26.524-.978.8m-.712.173-3.055.739q.978 1.013 1.907 1.397.62.252 1.156.121.448-.107.712-.513.204-.308.1-.747-.119-.484-.82-.997m-14.911-27.386.221-.326q1.285.585 1.95 1.535a3.96 3.96 0 0 1 .736 2.062q.114 1.874-1.229 3.083t-3.328 1.33q-1.912.119-3.43-.814-1.828-1.124-1.962-3.289-.09-1.452.59-2.355.678-.902 1.581-.957.572-.034.932.291.363.324.397.885.036.591-.331 1.001c-.367.41-.699.461-1.363.562q-.628.099-.863.345a.73.73 0 0 0-.219.556q.031.48.563.791.802.472 2.396.375a7.7 7.7 0 0 0 2.504-.575q1.182-.495 1.729-1.264.397-.577.351-1.329a2 2 0 0 0-.289-.917q-.258-.429-.936-.99m-11.137-5.275q.056-.65.55-1.061.495-.412 1.135-.355.639.055 1.051.549.41.494.356 1.134a1.5 1.5 0 0 1-.545 1.051 1.48 1.48 0 0 1-1.128.356 1.5 1.5 0 0 1-1.059-.544 1.5 1.5 0 0 1-.36-1.13m4.651-1.01 7.411.637q.992.085 1.286-.122.295-.205.394-.873l.358.031-.435 5.052-.359-.031q.033-.621-.28-.951-.213-.22-1.204-.305l-5.461-.469q-.99-.087-1.284.121-.294.207-.393.863l-.37-.032zm2.85-13.007 7.082 1.962q1.033.287 1.346.164.31-.123.54-.693l.349.096-1.021 3.686-1.209-.335q.592.862.769 1.608.174.747-.049 1.549a2.22 2.22 0 0 1-.847 1.229q-.633.465-1.318.494c-.685.029-1.208-.116-2.253-.405l-3.59-.994q-1.025-.284-1.329-.166-.303.12-.547.698l-.358-.099 1.021-3.687 6.182 1.713q.968.269 1.274.254a.86.86 0 0 0 .505-.172.77.77 0 0 0 .272-.42 1.16 1.16 0 0 0-.01-.679q-.145-.457-.759-1.21l-4.837-1.34q-1.028-.284-1.329-.165-.305.12-.549.697l-.357-.099zm3.212-15.497 9.293 5.508q.94.559 1.145.609.327.1.579-.013c.252-.113.36-.267.575-.576l.284.169-1.356 3.805-1.278-.757q.38 1.053.362 1.691a2.54 2.54 0 0 1-.374 1.243q-.915 1.545-2.831 1.625-1.552.06-3.185-.907-1.303-.774-2.07-1.834-.765-1.06-.828-2.155a3.4 3.4 0 0 1 .469-1.991q.344-.579.834-.895t1.354-.493l-2.436-1.443q-.924-.548-1.159-.582a.86.86 0 0 0-.556.09q-.245.136-.582.706l-.362-.215zm4.042 5.663q-1.603-.088-2.152.836a.93.93 0 0 0-.14.629q.078.478.632 1.08.553.603 1.943 1.426 1.528.906 2.396 1.117t1.425.017q.285-.1.487-.447.451-.76-.342-2.14zm12.193-5.922q-.11 2.288-1.062 3.267-.56.575-1.308.59-.749.014-1.318-.539-.77-.749-.741-2.009t1.168-4.479l-.677-.658q-.764-.742-1.041-.851-.28-.11-.65-.023c-.37.087-.466.183-.65.375-.305.312-.482.636-.541.974q-.05.313.122.481.152.147.569.162.577.028.862.307.353.343.347.847-.009.504-.421.929-.44.454-1.012.493-.57.04-.938-.316-.519-.504-.592-1.373-.074-.869.391-1.848a6.6 6.6 0 0 1 1.23-1.771q.929-.958 1.879-1.119.95-.163 1.585.133.404.193 1.486 1.25l2.614 2.54q.46.448.614.527a.5.5 0 0 0 .28.063.35.35 0 0 0 .218-.109q.182-.187.105-.641l.382-.048q.185.877.051 1.498-.135.62-.608 1.109-.559.575-1.146.637-.579.062-1.198-.398m-.524-.511-2.255-2.19q-.335 1.368-.165 2.359.116.659.513 1.043.33.321.813.329.37.009.684-.315.35-.359.41-1.226m5.418-18.861 6.114 8.904q.621.903.782 1.034.256.228.531.232.277.005.764-.28l.188.273-2.832 2.882-.841-1.224q-.099 1.115-.382 1.687a2.56 2.56 0 0 1-.862.97q-1.482 1.017-3.251.284-1.434-.599-2.509-2.163-.857-1.249-1.107-2.534-.248-1.284.154-2.303.402-1.02 1.263-1.61a2.6 2.6 0 0 1 1.133-.461q.577-.08 1.437.122l-1.604-2.333q-.607-.887-.809-1.017a.85.85 0 0 0-.541-.151q-.28.021-.824.396l-.239-.348zm1.285 6.838q-1.419-.753-2.305-.146a.93.93 0 0 0-.392.512q-.13.467.119 1.246.249.78 1.164 2.112 1.005 1.465 1.703 2.021t1.287.614q.297.027.629-.201.728-.5.59-2.085zM23.018 176.58l-1.988 3.209q-.581.939-.617 1.254c-.036.315.033.424.169.642q.204.328.99.814l-.196.316-5.882-3.643.196-.316q.802.497 1.181.525c.379.028.466-.028.642-.14q.263-.167.845-1.106l4.653-7.512q.582-.939.617-1.254.036-.314-.165-.64-.2-.325-.994-.816l.196-.316 5.045 3.125q2.493 1.543 3.027 3.103c.534 1.56.26 2.003-.291 2.891q-.698 1.127-1.895 1.496c-1.197.369-1.667.212-2.606-.102q-.956-.309-2.927-1.53m3.51-5.668-3.098 5.002q.271.192.416.281 1.041.645 1.988.375.946-.27 1.75-1.568.798-1.289.605-2.235t-1.312-1.639zm9.618 11.377a4.35 4.35 0 0 1 1.184 2.048q.31 1.19-.116 2.405a5.9 5.9 0 0 1-1.396 2.204q-1.4 1.427-3.066 1.676-2.014.303-3.555-1.209-1.512-1.484-1.289-3.347t1.595-3.26q1.413-1.44 3.3-1.693 1.888-.251 3.343 1.176m-.471.537a1.17 1.17 0 0 0-.898-.339q-.532.02-1.413.752-.88.732-2.301 2.18a13 13 0 0 0-1.306 1.532q-.42.586-.423 1.104t.328.842q.323.317.713.348.518.031 1.041-.315.812-.54 2.844-2.612 1.195-1.219 1.506-1.807t.249-1.057q-.039-.332-.34-.628m7.765 8.86-1.795 1.146q1.73.004 2.51.34t1.131.886q.302.474.191.944t-.645.81q-.567.362-1.056.287a1.01 1.01 0 0 1-.737-.464 1.36 1.36 0 0 1-.209-.962q.077-.514.073-.595a.44.44 0 0 0-.073-.227.85.85 0 0 0-.483-.347q-.509-.163-1.156-.001a6.8 6.8 0 0 0-1.984.885l-1.82 1.161-.469.311q-.483.308-.58.454a.8.8 0 0 0-.143.514q.02.266.298.756l-.305.195-2.728-4.275.305-.194q.372.49.729.517.358.029 1.39-.631l4.376-2.793q.677-.432.82-.619.184-.236.19-.467c.006-.231-.065-.375-.209-.665l.313-.2zm7.228 17.591-3.083.883-.079-.332q1.247-.924 1.604-1.685.357-.76.207-1.395a.98.98 0 0 0-.431-.621.86.86 0 0 0-.688-.137.83.83 0 0 0-.462.315q-.327.407-.959 2.074t-1.205 2.281q-.572.615-1.412.814a3.3 3.3 0 0 1-1.585-.028 2.75 2.75 0 0 1-1.378-.809 3.16 3.16 0 0 1-.754-1.442q-.154-.655-.003-1.846.038-.318.013-.426-.076-.322-.616-.422l-.076-.322 3.247-.933.079.332q-1.187.745-1.65 1.665-.464.919-.302 1.604.11.469.47.699t.769.133q.47-.111.742-.485.273-.374.727-1.554.682-1.74 1.125-2.309.649-.835 1.616-1.063 1.056-.25 2.083.276t1.353 1.904q.176.743-.022 1.521-.084.299-.045.464a.5.5 0 0 0 .14.266q.099.09.497.244zm.606 13.192-7.35.102q-1.074.015-1.337.22-.264.204-.325.818l-.362.005-.053-3.825 1.255-.018q-.813-.661-1.188-1.329c-.375-.668-.38-.946-.388-1.501a2.22 2.22 0 0 1 .468-1.417q.479-.625 1.128-.844c.649-.219 1.192-.228 2.276-.242l3.725-.052q1.063-.015 1.323-.214.258-.2.33-.823l.372-.005.053 3.826-6.416.089q-1.004.014-1.294.113a.86.86 0 0 0-.438.307.8.8 0 0 0-.144.479q.005.362.2.65.267.398 1.068.95l5.02-.07q1.064-.015 1.323-.214.258-.2.33-.823l.372-.005z"/><g stroke="#000"><path fill="#445684" d="M280.532 309.279s-6.361 87.379-99.029 87.379-99.029-86.408-99.029-86.408V151.026h198.058z"/><path fill="#fff" d="M106.324 333.442c8.309-.461 16.71-7.108 23.08-7.108s14.31 3.971 14.31 3.971l3.508-10.063s-6.739-3.232-16.063-4.154c-9.324-.924-21.787 7.201-24.834 6.832s-11.355-3.141-15.51-5.726c-2.016-1.254-4.919-.896-7.378-.198a111 111 0 0 0 3.114 12.563c.972-.254 2.264-.408 3.986-.361 6.831.18 7.479 4.705 15.787 4.244zm127.033-18.831-2.399 5.264s-.187 7.016 6.276 7.016c6.461 0 13.939 5.908 20.494 5.908 6.48 0 14.486-5.043 19.129-5.338a112 112 0 0 0 2.765-11.66c-7.203 1.875-16.563 7.203-23 7.675-7.569.553-16.065-8.771-23.265-8.865z"/><path fill="#c0a264" d="m217.939 350.063 28.988-6.188s-2.77-13.387-5.725-14.679c-2.953-1.292-1.938-2.769-3.416-6.276-1.477-3.51-2.215-9.141-2.77-11.078-.554-1.938-4.525-8.678-7.388-10.893-2.862-2.217-6.924-8.771-10.894-10.156-3.971-1.385-7.108-2.492-10.155-3.23-3.045-.738-5.539-4.708-7.106-6.093-1.57-1.386-9.785-.83-12.556-.738-2.771.093-7.94-2.032-11.541.83s-9.047 8.586-11.816 8.862c-2.769.277-11.447 3.324-12.278 3.231s-2.031 8.031-2.678 10.71c-.647 2.678-3.878 6.368-4.432 10.707s-.554 8.125-1.385 9.973c-.831 1.847-9.601 10.522-10.063 11.447s-1.016 3.323-1.016 3.323l25.48 13.017 28.434-7.386z"/><path fill="#fff" d="M157.022 348.957s1.803-2.438 2.969-4.24c1.166-1.801 2.226-2.014 3.392-4.239s-.53-6.042.53-7.103c1.06-1.062 8.587-7.422 9.541-7.846s2.013-1.482 3.073-2.968-.847-2.228 1.591-5.089 9.751-5.725 13.78-5.618c0 0-.955 5.088-1.907 6.571-.955 1.484-.531 2.758 0 3.924.528 1.166 2.225 6.148-.955 9.646s-5.302 4.238-4.451 7.844c.849 3.604-.53 2.543-.53 2.543z"/><path fill="#445684" d="M163.701 346.201s.424-2.757 1.59-4.135.001-5.617 1.272-7.104c1.271-1.484 8.691-7.526 10.494-8.799 1.803-1.271 2.545-4.134 2.757-5.83s6.997-5.828 6.997-5.512-2.438 5.406-2.862 6.254c-.425.848-4.77 7.42-5.194 7.95s-4.452 3.923-4.664 5.937-1.061 8.162-1.061 8.162l2.65-.848s.211-5.83.636-6.996 3.181-3.605 4.347-5.089 5.725-8.161 5.936-10.282c0 0 1.908 3.817 1.695 6.467-.211 2.649-2.225 5.193-4.346 7.313s-2.226 6.785-2.226 6.785l-4.876 3.073zm72.238 5.797c-6.555 0-20.494 7.108-28.063 7.108s-18.739-7.108-25.203-7.108-18.557 7.017-25.574 7.017-14.401-6.464-24.741-6.464-20.957 5.908-26.681 5.908c-2.234 0-4.041-.168-5.421-.375 3.451 4.982 7.564 9.881 12.462 14.428 4.075-1.906 12.847-5.649 18.902-5.649 8.124 0 18.925 8.399 25.203 8.399s15.604-7.938 25.02-7.938 18.648 7.294 26.773 7.294c8.122 0 17.909-7.107 26.68-7.107 5.683 0 10.998 3.285 14.052 5.604 4.959-4.518 9.139-9.399 12.657-14.388-1.09.117-2.303.195-3.631.195-5.631-.001-15.879-6.924-22.435-6.924zM208.43 387.08c-8.123 0-17.541-8.309-25.479-8.309-7.939 0-15.417 8.4-25.573 8.4s-17.819-7.108-24.466-7.108c-3.627 0-6.312.962-8.009 1.836 13.88 8.792 32.259 14.759 56.601 14.759 24.285 0 42.632-6.006 56.501-14.861-1.977-.43-4.471-.81-7.141-.81-6.186 0-14.309 6.093-22.434 6.093z"/><path fill="#fff" d="M265.111 347.197c-8.862 0-20.954-8.125-29.448-8.125-8.492 0-18.463 7.387-28.435 7.387s-15.139-6.371-23.91-6.371c-8.77 0-17.909 6.465-26.033 7.203-8.124.737-16.987-8.863-26.312-8.863s-16.895 7.662-25.203 7.939c-4.488.149-9.729-1.128-13.601-2.334 2.18 4.607 4.841 9.364 8.086 14.051 1.38.207 3.187.375 5.421.375 5.724 0 16.341-5.908 26.681-5.908s17.725 6.464 24.741 6.464 19.11-7.017 25.574-7.017c6.463 0 17.633 7.108 25.203 7.108s21.51-7.108 28.064-7.108 16.803 6.924 22.434 6.924c1.328 0 2.541-.077 3.631-.195a98.4 98.4 0 0 0 7.209-11.961c-1.373.269-2.754.431-4.102.431zm-56.495 27.42c-8.125 0-17.357-7.295-26.773-7.295s-18.741 7.939-25.02 7.939-17.079-8.4-25.203-8.4c-6.056 0-14.827 3.743-18.902 5.65a84 84 0 0 0 12.185 9.388c1.697-.874 4.382-1.836 8.009-1.836 6.646 0 14.311 7.108 24.466 7.108s17.634-8.4 25.573-8.4 17.357 8.309 25.48 8.309c8.125 0 16.248-6.093 22.434-6.093 2.67 0 5.164.38 7.141.81a84 84 0 0 0 11.342-8.684c-3.053-2.318-8.369-5.605-14.051-5.605-8.772-.001-18.559 7.109-26.681 7.109z"/><path fill="#c0a264" d="M146.489 183.334c-11.368 0-20.584 9.216-20.584 20.584s9.216 20.584 20.584 20.584 20.584-9.216 20.584-20.584-9.216-20.584-20.584-20.584zm-8.421 34.619a6.015 6.015 0 1 1 0-12.03 6.015 6.015 0 0 1 0 12.03zm0-14.971a6.015 6.015 0 1 1 0-12.03 6.015 6.015 0 0 1 0 12.03zm15.639 0a6.015 6.015 0 1 1 0-12.03 6.015 6.015 0 0 1 0 12.03z"/><path fill="#fff" d="M195.068 261.442s5.125 5.333 7.218 6.483 3.346 3.66 3.346 5.752-.209 5.123-1.465 7.216c-1.254 2.092-5.438 6.798-6.063 8.157-.627 1.359-2.511 4.81-1.465 5.646s4.077 1.466 4.916 1.466c.836 0 3.346-.941 3.555-1.779.209-.836-1.359-3.137-1.359-3.137s-.104-1.674.838-3.138c.939-1.464 2.613-5.961 3.764-7.425 1.151-1.465 2.931-5.542 3.349-6.379.418-.838.209-2.197.104-2.721-.104-.521-1.568-6.691-1.675-7.946-.104-1.255.313-5.544.313-5.544z"/><path fill="#fff" d="M162.651 297.626c0 1.149.837 1.567 2.092 1.567s6.171.522 6.693-1.987c.522-2.508-1.255-3.031-1.255-3.031s2.51-5.021 2.51-6.693-1.15-6.379-2.196-8.889-2.196-12.342-2.092-12.863.418-3.766.418-3.766.942-.418 5.125-.104 8.262 2.51 15.791 2.092 19.451-.104 23.111-5.543c3.66-5.438 8.994-19.975 8.994-19.975s5.125 9.412 8.367 9.412c0 0 1.777-7.53-2.719-12.76-4.498-5.229-5.857-5.646-5.857-5.646s-14.535-1.987-22.902-1.674c-8.364.313-23.005 2.51-26.353 1.883-3.347-.627-17.674.418-17.15-12.131l-15.688-9.203s-4.6 4.392-4.705 10.144.836 15.477 7.215 24.68 11.816 15.269 11.816 15.269 5.542 10.877 6.588 12.444 5.125 7.948 6.275 10.876 1.674 4.706 1.15 7.216c-.524 2.513-5.228 8.682-5.228 8.682z"/><path fill="#c0a264" d="m192.038 168.264-4.306 9.221-7.753.026-2.572 3.722h8.575l-60.977 130.613h5.438l60.276-130.625 8.217-.025 2.259-3.718-8.747-.002 4.297-9.317z"/><path fill="#fff" d="M160.769 252.761s-10.146 4.078-12.445 5.23c-2.299 1.15-8.993 4.916-8.993 6.588 0 1.674-3.032 10.146-3.66 12.235s-1.673 6.587-2.928 8.261-.733 6.066 2.3 5.021 4.812-3.348 5.334-3.766.209-1.777-1.255-2.72c0 0 .836-3.45 1.673-5.751s2.197-8.785 3.033-9.831 1.673-2.51 2.928-2.51 12.445-.104 15.164-.104 7.32 1.256 9.83-2.51 2.091-5.646 2.091-5.646m28.863-11.085s3.764 9.203 8.573 14.746c4.811 5.541 8.576 9.41 8.576 9.41s.418 8.576-.104 11.504l-.521 2.929s-1.777 5.124-2.406 6.379c-.627 1.255-4.184 4.603-4.184 5.647s1.567 1.149 2.301 1.149c.732 0 5.858 1.196 7.008-1.673.627-1.569-1.15-2.196-1.15-2.196s-.523-.731.209-2.301 1.674-7.845 2.928-12.968c1.256-5.125 3.765-10.25 4.287-10.668.523-.418-1.254-2.821-2.51-8.26-1.254-5.438-1.986-16.522-1.568-20.603s-2.194-6.901-2.194-6.901m-80.945-18.716s-5.751 11.085-11.398 11.294c0 0-.836-10.772 7.32-16.628 0 0-2.405-5.02.418-7.843s7.006-5.333 11.189-4.392 7.111 4.078 8.366 4.915 6.274 8.994 7.216 9.935 2.719 3.242 1.464 4.392-4.497 2.091-8.68 2.719-9.412 1.674-11.713.837-4.496-1.778-4.182-5.229z"/><path fill="none" d="M148.429 205.389s5.753.628 6.693 3.242m-15.059 2.615s-4.602 2.51-5.961 8.262"/><path fill="#fff" d="M205.939 200.321s-2.565 4.906-.688 7.062c1.881 2.155 9.217-.963 7.016-4.402s-6.328-2.66-6.328-2.66zm-7.964-9.411 1.762-4.885c-4.301.329-8.44.497-10.018-.029 0 0-.758 1.759-1.85 4.2 1.684.726 5.574 1.996 10.106.714zm18.475 2.55c.946-1.834 1.762-3.806 1.299-4.454-.94-1.317-3.011-3.951-6.209-3.951-.912 0-2.806.168-5.119.383l-1.571 4.441c-.002 0 9.731-.093 11.6 3.581zm-31.229 2.523c-1.453 3.087-2.949 6.096-3.968 7.696 0 0 1.129 1.128 6.208 1.128 1.686 0 3.537-.313 5.416-.728l4.182-7.901c0 .001-6.398 1.922-11.838-.195z"/><path fill="#ee2d2b" d="m213.438 198.813.924-1.719c-.288-.002 0 0 0 0s1.113-1.745 2.089-3.635c-1.869-3.674-11.603-3.581-11.603-3.581l1.572-4.441c-2.027.188-4.377.41-6.684.587l-1.762 4.885c-4.531 1.282-8.423.012-10.105-.714a326 326 0 0 1-2.648 5.787c5.439 2.117 11.838.196 11.838.196l-4.182 7.901c2.373-.524 4.791-1.213 6.977-1.655l2.359-6.36c10.424-.343 11.225 2.749 11.225 2.749z"/><path fill="#fff" d="M248.788 198.788s-5.644 3.198-10.347 3.01-8.467-3.198-11.477-3.951c-2.617-.654-10.668-.742-12.604-.752l-.924 1.719s-.801-3.093-11.226-2.749l-2.358 6.36c1.301-.263 2.52-.438 3.598-.438 4.326 0 6.207.564 6.207 2.634s-4.891 2.069-4.891 2.069-1.506 4.139 2.633 4.139h11.1c2.445 0 7.338.376 8.654 1.317s14.297 6.396 18.246 0c0 0-3.385 1.505-8.652-.376-1.654-.591-3.217-1.349-4.58-2.111-2.656-.5-7.049-1.49-9.568-2.941-3.779-2.176-12.828-1.718-12.828-1.718l2.636-4.238h7.444c1.293 0 8.908 3.942 14.334 5.592 5.616-.397 12.825-2.016 14.603-7.566z"/><path fill="#ee2d2b" d="m212.407 200.76-2.636 4.238s9.049-.458 12.828 1.718c2.521 1.451 6.912 2.44 9.568 2.941-2.979-1.663-5.014-3.345-5.014-3.345s3.131.315 7.031.04c-5.427-1.65-13.041-5.592-14.334-5.592z"/><path fill="none" d="m214.361 197.095-4.59 7.903"/></g><path fill="none" d="M0 0h363.004v450.691H0z"/></svg>