<svg xmlns="http://www.w3.org/2000/svg" width="1600" height="1000" overflow="visible"><path fill="#fff" d="M0 0h1600v1000H0z"/><path fill="#e3303c" d="m694.028 369.086-41.752-252.901 87.452 47.27 58.301-103.21 62.246 88.24 85.871-54.364-48.848 275.751 108.729-79.572 13.385 47.267 124.484-25.211-48.843 81.152 87.448 38.606-252.897 200.118 30.718 69.333-126.046-49.635-10.25 170.174H781.48l-2.36-170.96-148.906 55.149 40.973-62.237-253.697-208.79 90.604-25.214-13.391-115.815 75.634 28.363 12.602-56.725z"/><path fill="#fff" d="M799.605 526.661h44.116s2.366-36.244 32.312-36.244c29.936 0 33.873 41.758 33.873 41.758 9.454 0 48.847-18.125 48.847-67.756 0-26-24.429-65.393-65.391-65.393-40.972 0-53.568 25.208-53.568 25.208 22.842-74.848-7.884-143.387-40.188-181.206-32.298 37.819-63.029 106.358-40.182 181.206 0 0-12.602-25.208-53.574-25.208-40.967 0-65.395 39.393-65.395 65.393 0 49.631 39.396 67.756 48.852 67.756 0 0 3.942-41.758 33.878-41.758s32.303 36.244 32.303 36.244zm0 33.089h43.33s0 48.06-43.33 72.482c-43.328-24.423-43.328-72.482-43.328-72.482zm0-22.047h-65.389v12.607l130.78.005v-12.612z"/><path fill="#212020" d="M844.123 452.989c0 4.816 11.419-1.963 12.606-5.905 1.179-3.938-9.847-16.545-19.302-18.912-9.455-2.364-20.49-1.969-29.15 7.486-8.672 9.457-11.819 20.09-12.202 29.944-5.518-3.545-10.648-5.121-16.161-6.31-.397-12.602-.444-29.501 1.179-44.121.79-7.089 4.333-14.177 8.271-16.544 3.942-2.364 20.886-4.729 21.269 17.729 7.099-1.973 11.036-1.575 13.403-6.306 2.354-4.726-4.341-17.333-15.366-21.269-11.033-3.942-24.42-5.123-32.305 7.089-7.879 12.211-10.634 29.936-11.424 55.154-7.485.393-18.911 0-18.512 6.304.393 6.298 15.366 6.298 15.366 6.298s16.937 13.79 34.663 14.974c1.576 6.69 13.792 21.271 30.336 21.271 16.545 0 31.114-11.429 31.509-14.973.391-3.544-2.761-6.696-4.331-6.696s-9.456 9.848-21.67 9.455c-12.213-.393-18.124-14.177-17.721-24.03.393-9.847 7.088-22.456 18.114-26.001 11.036-3.544 11.428 8.668 11.428 15.363"/><path d="m232.894 706.457 10.609 15.512q-6.156 4.76-12.371 6.273-6.218 1.513-12.338-.096c-6.12-1.609-8.439-3.473-13.076-7.203q-8.439-6.785-11.814-13.541c-3.375-6.756-3.014-9.857-2.29-16.059q1.085-9.302 8.837-18.943 10.336-12.851 22.72-14.26t24.883 8.645q9.78 7.866 12.196 16.32c2.416 8.454 1.127 11.916-1.452 18.834l-16.651-8.217q1.16-2.961 1.229-4.709.135-2.916-1.013-5.465-1.147-2.552-3.547-4.482-5.437-4.372-11.854-2.322-4.803 1.488-10.396 8.443-6.929 8.616-6.886 13.912.042 5.296 4.774 9.102 4.59 3.691 9.011 3.002c4.421-.689 6.091-2.041 9.429-4.746m48.227-13.065 16.792 11.9-38.427 54.224-16.792-11.9zm25.818 18.614 52.739 33.383-8.775 13.865-17.695-11.201-26.765 42.283-17.35-10.982 26.765-42.283-17.694-11.199zm55.001 34.909 20.047 10.86 1.11 26.12 22.484-13.338 19.929 10.796-41.114 21.649-13.257 24.472-18.094-9.802 13.257-24.472zm84.522 81.054q6.142-15.076 17.962-20.053 11.82-4.974 26.812 1.131 15.37 6.264 20.321 17.902c4.951 11.638 2.934 16.594-1.104 26.504q-4.397 10.79-10.844 16.219c-6.447 5.429-9.257 5.775-14.878 6.473s-11.847-.346-18.677-3.129q-10.414-4.242-15.887-10.34-5.472-6.097-6.787-15.006c-1.315-8.909.15-12.506 3.082-19.701m18.988 7.834q-3.798 9.322-1.993 14.807c1.805 5.485 3.792 6.295 7.768 7.914q6.13 2.499 11.115-.121t9.193-12.951q3.541-8.693 1.669-14.131-1.872-5.44-7.877-7.887-5.754-2.344-10.898.311c-5.144 2.655-6.422 5.788-8.977 12.058m67.593-9.307 48.33 15.539-4.371 13.594-28.696-9.227-3.552 11.047 24.51 7.881-4.107 12.773-24.51-7.881-8.311 25.848-19.634-6.313zm90.823 26.551 20.129 4.064-9.915 49.1 31.414 6.344-3.239 16.041-51.543-10.408zm62.165 11.676 20.381 2.812-9.078 65.811-20.381-2.812zm30.484 4.557 62.277 4.354-1.145 16.372-20.895-1.461-3.491 49.931-20.488-1.433 3.491-49.931-20.895-1.461zm65.707 4.484 62.405-1.145.301 16.405-20.938.384.918 50.032-20.529.377-.918-50.032-20.938.384zm70.75-1.932 20.419-2.1 5.122 49.809 31.868-3.277 1.674 16.271-52.287 5.377zm60.765-6.691 54.091-10.047 2.59 13.945-33.862 6.289 1.929 10.383 31.412-5.834 2.474 13.322-31.412 5.834 2.392 12.875 34.843-6.471 2.747 14.793-55.071 10.229zm151.095 3.396 18.799-.213q.542 7.766-1.652 13.779-2.194 6.012-6.933 10.213-4.738 4.199-13.257 6.879-10.336 3.252-17.833 2.309c-7.497-.943-9.876-2.969-14.635-7.016s-8.375-10.004-10.852-17.875q-4.953-15.74.755-26.828 5.708-11.086 21.017-15.904 11.978-3.767 20.356-1.08 8.377 2.687 14.863 11.67l-16.086 9.291q-1.821-2.61-3.236-3.639-2.351-1.731-5.11-2.193c-2.759-.462-3.739-.154-5.699.461q-6.66 2.097-8.52 8.574-1.429 4.823 1.252 13.34 3.319 10.552 7.751 13.459 4.43 2.907 10.226 1.084 5.622-1.77 7.504-5.83c1.882-4.06 1.685-6.202 1.29-10.481m72.812-10.058-21.684 8.75 1.12 11.373-19.457 7.852-1.705-70.949 20.76-8.377 48.014 52.262-19.919 8.039zm-9.368-11.709-15.744-19.4 2.171 24.877zm17.231-51.788 17.182-8.518 38.752 21.826-16.33-32.941 17.344-8.598 29.519 59.547-17.344 8.598-38.509-21.643 16.209 32.697-17.304 8.578zm131.365-7.281-20.156 11.882 2.799 11.088-18.086 10.662-12.235-69.954 19.297-11.376 55.282 44.578-18.516 10.915zm-11.011-10.195-18.464-16.855 5.847 24.293zm9.761-54.02 25.118-17.303q7.428-5.115 13.388-6.25t11.542.58c5.582 1.714 7.179 3.072 10.372 5.789q4.788 4.075 8.646 9.674 6.04 8.771 7.374 14.979 1.333 6.211.036 11.918c-1.297 5.707-2.404 7.002-4.619 9.592q-4.532 5.323-9.049 8.436l-25.118 17.301zm25.442.746 20.593 29.895 4.144-2.854q5.3-3.651 6.729-6.369c1.429-2.718 1.18-3.986.681-6.521q-.75-3.805-5.273-10.373-5.991-8.696-11.039-9.953-5.048-1.254-11.616 3.27zm96.777-21.732-18.219 14.65 4.364 10.561-16.349 13.146-22.169-67.408 17.443-14.025 61.079 36.117L1407.255 709zm-12.354-8.496-20.685-14.008 9.279 23.18z"/></svg>