<svg xmlns="http://www.w3.org/2000/svg" width="319" height="200"><path fill="#fff" d="M0 0h319v200H0z"/><path fill="#0036de" d="M0 0v200L319 99z"/><circle cx="88.792" cy="99.5" r="47" fill="#fff"/><path fill="#0036de" d="M134.042 97.5h-43.25V54.25h-4V97.5h-43.25v4h43.25v43.25h4V101.5h43.25z"/><g fill="#0036de"><path d="M69.047 107.203c-6.834 0-12.375 5.54-12.375 12.375s5.541 12.375 12.375 12.375 12.375-5.54 12.375-12.375-5.541-12.375-12.375-12.375m0 21.188c-4.867 0-8.813-3.945-8.813-8.813s3.945-8.813 8.813-8.813 8.813 3.945 8.813 8.813-3.946 8.813-8.813 8.813"/><path d="M53.984 118.266h30.125v2.625H53.984z"/><path d="m60.376 131.97 15.063-26.089 2.273 1.313-15.063 26.089z"/><path d="m75.44 133.281-15.062-26.089 2.273-1.312 15.063 26.089z"/></g><path fill="#0036de" d="M54 90h29.75v4H54zm18.75-24H65l-11 5.583v4h29.75v-4zm-13.458 6.583 6.428-3.208h6.312l6.468 3.208z"/><path fill="#0036de" d="M57 74.75h4.875v16.875H57zm18.875 0h4.875v16.875h-4.875zm-12.563-.083h2.417V91.25h-2.417zm4.417 0h2.417V91.25h-2.417zm4.417 0h2.417V91.25h-2.417zm51.005 7.391v-2.625h-2.759a12.3 12.3 0 0 0-.996-3.701l2.393-1.381-1.313-2.273-2.399 1.385a12.4 12.4 0 0 0-2.706-2.706l1.385-2.399-2.273-1.313-1.381 2.393a12.3 12.3 0 0 0-3.701-.996v-2.759h-2.625v2.759a12.3 12.3 0 0 0-3.701.996l-1.381-2.393-2.273 1.313 1.385 2.399a12.4 12.4 0 0 0-2.706 2.706l-2.4-1.386-1.313 2.273 2.393 1.381a12.3 12.3 0 0 0-.996 3.701h-2.759v2.625h2.759c.138 1.306.484 2.548.996 3.701l-2.393 1.381 1.313 2.273 2.399-1.385a12.4 12.4 0 0 0 2.706 2.706l-1.385 2.399 2.273 1.313 1.381-2.393c1.153.512 2.395.858 3.701.996v2.759h2.625v-2.759a12.3 12.3 0 0 0 3.701-.996l1.381 2.393 2.273-1.313-1.385-2.399a12.4 12.4 0 0 0 2.706-2.706l2.399 1.385 1.313-2.273-2.393-1.381c.512-1.153.858-2.395.996-3.701zm-6.865 1.904a8.79 8.79 0 0 1-6.886 5.487c-.429.064-.865.108-1.313.108s-.883-.044-1.313-.108a8.8 8.8 0 0 1-1.905-.506 8.79 8.79 0 0 1-5.487-6.886c-.064-.429-.108-.865-.108-1.313s.044-.883.108-1.313c.099-.662.269-1.3.506-1.905a8.79 8.79 0 0 1 6.886-5.487c.429-.064.865-.108 1.313-.108s.883.044 1.313.108c.662.099 1.3.269 1.905.506a8.79 8.79 0 0 1 5.487 6.886c.064.429.108.865.108 1.313s-.044.883-.108 1.313a8.7 8.7 0 0 1-.506 1.905"/><path fill="#0036de" d="M108.594 75.125a5.656 5.656 0 1 0 0 11.313 5.656 5.656 0 0 0 0-11.313m0 8.679a3.022 3.022 0 1 1 0-6.044 3.022 3.022 0 0 1 0 6.044"/><path fill="#fff" d="M106.75 81V65.167h-5.5V86.5h23.333V81z"/><path fill="#0036de" d="M100.75 86.999V64.666h6.5v15.833h17.833v6.5zm1-.999h22.333v-4.5H106.75V81h.5-.5v.5h-.501V65.665h-4.499z"/><path fill="#0036de" d="M102.917 67.667h3.667v1h-3.667zm0 3.75h3.667v1h-3.667zm0 3.75h3.667v1h-3.667zm0 3.75h3.667v1h-3.667zm11.057 52.5L113 114.188l-3.477-2.461 1.337-2.909.198.097s3.129-1.567 2.817-2.685c-.28-1.004-2.418-.789-3.332-1.233-.874-.425-2.153-1.924-3.08-1.549-1.075.436-.163 3.636-.163 3.636l.244.119-6.822 14.841 3.35 1.541 3.296-7.17 1.693 1.398v8.313h-1.188V130h-2.169l-.039-1.75-1.083-2s-1.021-.781-2.271-1.438c-1.464-.769-2.708-1.219-3.375-.469s-.875 1.28.719 2.5c2.531 1.938 3.094.323 3.094.323l1.167 1.333-2.171 2.917h-6.162v2.416h22.333v-2.416h-3.942z"/></svg>