<svg xmlns="http://www.w3.org/2000/svg" width="150mm" height="100mm" fill-rule="evenodd" clip-rule="evenodd" image-rendering="optimizeQuality" shape-rendering="geometricPrecision" text-rendering="geometricPrecision" viewBox="0 0 150 100"><defs><style>.str0{stroke:#393185;stroke-width:.2}.fil1{fill:#fefefe}.fil2,.fil5{fill:#f0b719;fill-rule:nonzero}.fil5{fill:#464a9a}</style></defs><g id="Capa_x0020_1"><g id="_292674568"><path id="_220651072" fill="#393185" d="M0 0h150v100H0z"/><circle id="_219236576" cx="75" cy="50" r="33.106" class="fil1"/><path id="_219236480" d="M75 16.394c9.28 0 17.682 3.761 23.763 9.843S108.606 40.72 108.606 50s-3.761 17.682-9.843 23.763S84.28 83.606 75 83.606s-17.682-3.761-23.763-9.843S41.394 59.28 41.394 50s3.761-17.682 9.843-23.763S65.72 16.394 75 16.394m23.056 10.55c-5.9-5.9-14.052-9.55-23.056-9.55s-17.156 3.65-23.056 9.55-9.55 14.052-9.55 23.056 3.65 17.156 9.55 23.056 14.052 9.55 23.056 9.55 17.156-3.65 23.056-9.55 9.55-14.052 9.55-23.056-3.65-17.156-9.55-23.056" class="fil2"/><circle id="_219236384" cx="75" cy="50" r="21.037" fill="#00a0e3"/><path id="_220652824" fill="#464a9a" d="M58.025 61.656c11.01 14.44 29.943 9.435 35.33-2.03-1.201.315-2.552 1.102-3.827 1.562-17.407 6.28-17.557-5.503-31.503.468"/><path id="_219236288" d="M75 28.463a21.47 21.47 0 0 1 15.229 6.308A21.47 21.47 0 0 1 96.537 50a21.47 21.47 0 0 1-6.308 15.229A21.47 21.47 0 0 1 75 71.537a21.47 21.47 0 0 1-15.229-6.308 21.47 21.47 0 0 1-6.308-15.23 21.47 21.47 0 0 1 6.308-15.228 21.47 21.47 0 0 1 15.23-6.308zm14.522 7.015A20.47 20.47 0 0 0 75 29.463a20.47 20.47 0 0 0-14.522 6.015A20.47 20.47 0 0 0 54.463 50a20.47 20.47 0 0 0 6.015 14.522A20.47 20.47 0 0 0 75 70.537a20.47 20.47 0 0 0 14.522-6.015A20.47 20.47 0 0 0 95.537 50a20.47 20.47 0 0 0-6.015-14.522" class="fil2"/><path id="_219235856" d="m44.193 49.457 1.895-.133.01.157q-.727.23-1.09.742a1.7 1.7 0 0 0-.319 1.125q.036.512.36.918.326.408.815.572.627.21 1.373.16.733-.052 1.324-.28.59-.227.87-.644.283-.416.238-1.046a2 2 0 0 0-.292-.93q-.255-.414-.842-.852l.473-.033q.511.427.762.91t.298 1.15q.06.874-.243 1.578a2.5 2.5 0 0 1-.934 1.12 2.84 2.84 0 0 1-1.375.467 2.9 2.9 0 0 1-1.513-.307 2.9 2.9 0 0 1-1.166-1.028 3 3 0 0 1-.49-1.451 3.4 3.4 0 0 1 .164-1.236q.119-.382.113-.483a.3.3 0 0 0-.111-.216.52.52 0 0 0-.309-.103zm5.971-3.867.148.018-.35 2.845-.147-.018.022-.18a.76.76 0 0 0-.038-.392.36.36 0 0 0-.174-.184q-.09-.057-.5-.107l-3.58-.44q-.416-.05-.527-.019a.4.4 0 0 0-.204.156.7.7 0 0 0-.123.353l-.022.181-.149-.018.35-2.846.149.019-.023.18a.76.76 0 0 0 .037.392q.044.111.173.188.092.055.5.106l3.58.44q.417.05.527.018a.42.42 0 0 0 .205-.158.7.7 0 0 0 .124-.354zm-3.728-6.735 1.427.41-.04.138q-.531-.016-.789.073a1.1 1.1 0 0 0-.463.318q-.114.127-.218.496l-.113.393 4.065 1.165q.405.116.518.101a.42.42 0 0 0 .227-.124.7.7 0 0 0 .179-.334l.05-.175.143.041-.79 2.76-.144-.041.05-.175a.76.76 0 0 0 .024-.393.38.38 0 0 0-.142-.213q-.078-.07-.477-.184l-4.065-1.165-.11.382q-.152.532.004.838.218.427.776.685l-.042.147-1.428-.41zm3.629-6.721.129.077a.8.8 0 0 0-.08.439q.041.26.465 1.024l1.089 2.041 1.137.683q.362.22.476.235.11.014.245-.057a.67.67 0 0 0 .25-.26l.157-.262.128.076-1.585 2.638-.128-.077.148-.246a.74.74 0 0 0 .125-.373.38.38 0 0 0-.082-.242q-.058-.09-.413-.302l-.943-.566-2.678-.104q-.793-.029-.981.043a.68.68 0 0 0-.325.295l-.129-.078 1.353-2.252.13.077-.061.1q-.123.205-.113.322t.076.156q.125.075.793.1l2.068.086-.91-1.699q-.331-.626-.501-.729-.093-.055-.21-.003-.156.066-.364.37l-.128-.077zm4.643-5.068q.973-.88 2.122-.785 1.149.098 1.935 1.033.67.8.712 1.798.057 1.326-1.074 2.275-1.133.95-2.399.702-.998-.197-1.697-1.029-.786-.936-.673-2.094.113-1.16 1.074-1.9m.204.166q-.577.483-.384 1.325.162.688.92 1.592.903 1.075 1.711 1.272.566.14 1.04-.26.319-.268.403-.601.105-.426-.108-.99-.213-.563-.8-1.262-.7-.835-1.201-1.117-.502-.284-.886-.252-.383.03-.695.293m5.258-3.606 1.126 1.951.138-.08q.313-.181.46-.39a.93.93 0 0 0 .153-.515q.01-.305-.17-.71l.122-.07 1.377 2.384-.122.07q-.456-.637-.876-.68a1.28 1.28 0 0 0-.795.17l-.138.08.84 1.453q.21.363.303.432a.42.42 0 0 0 .25.067.7.7 0 0 0 .356-.113l.158-.091.075.129-2.483 1.433-.075-.129.158-.09a.76.76 0 0 0 .29-.267.36.36 0 0 0 .042-.249q-.008-.105-.216-.463l-1.803-3.124q-.21-.364-.302-.433a.4.4 0 0 0-.247-.07.73.73 0 0 0-.356.116l-.158.09-.075-.13 4.006-2.312.786 1.363-.143.082q-.326-.451-.66-.567-.336-.114-.771.012-.24.069-.808.396zm8.359-.427.316 1.488q.093.435.17.535a.4.4 0 0 0 .228.14q.151.039.515-.038l.031.146-2.726.58-.03-.147q.371-.079.49-.177a.42.42 0 0 0 .148-.22q.029-.121-.064-.556l-.74-3.48q-.092-.436-.169-.537a.4.4 0 0 0-.227-.14q-.148-.04-.516.04l-.032-.148 2.339-.497q1.154-.244 1.744.06t.72.922q.111.521-.134.963-.245.44-.786.696-.362.176-1.277.37m-.558-2.626.493 2.318q.132-.02.2-.034.482-.102.681-.445.2-.342.073-.944-.127-.596-.447-.818t-.838-.111zm6.019 1.906.027 1.537q.007.445.063.558a.4.4 0 0 0 .195.181q.14.067.516.06l.003.15-2.807.048-.003-.149q.38-.006.515-.08a.42.42 0 0 0 .187-.187q.052-.114.045-.559l-.063-3.557q-.008-.445-.063-.56a.4.4 0 0 0-.197-.18q-.138-.067-.514-.06l-.003-.15 2.548-.045q.995-.016 1.458.113.462.128.761.495.296.364.306.861.01.606-.42 1.011-.274.255-.773.389l1.35 1.833q.266.355.375.442a.7.7 0 0 0 .388.131l.002.15-1.726.03-1.81-2.469zm-.047-2.689.042 2.401.23-.004q.561-.008.839-.116a.84.84 0 0 0 .432-.38q.156-.273.148-.704-.01-.628-.31-.921-.296-.294-.95-.283zm6.883 5.606-.026.147-2.823-.498.026-.147.18.032a.76.76 0 0 0 .392-.018.36.36 0 0 0 .193-.164q.062-.085.133-.493l.627-3.552q.072-.414.046-.526a.4.4 0 0 0-.145-.212.7.7 0 0 0-.346-.14l-.18-.032.026-.148 2.824.497-.026.149-.18-.032a.76.76 0 0 0-.392.016.4.4 0 0 0-.197.163q-.06.088-.132.494l-.626 3.552q-.075.413-.047.525a.42.42 0 0 0 .148.213q.12.103.346.142zm5.189-4.01q1.24.424 1.715 1.476.471 1.053.034 2.192a2.92 2.92 0 0 1-1.227 1.495q-1.133.693-2.51.163-1.38-.529-1.777-1.757-.312-.968.077-1.984.438-1.14 1.505-1.602 1.069-.465 2.183.017m-.046.259q-.704-.27-1.345.307-.524.474-.947 1.576-.503 1.31-.283 2.113.153.562.73.784.39.15.723.061.423-.115.813-.575.39-.458.716-1.311.39-1.017.394-1.592.005-.577-.208-.898a1.2 1.2 0 0 0-.593-.465m4.331 5.401-.882 1.26q-.255.365-.276.488a.4.4 0 0 0 .05.262q.075.136.383.352l-.086.122-2.3-1.61.086-.123q.312.219.464.238.15.02.262-.041.108-.062.364-.426l2.04-2.915q.255-.364.278-.49a.4.4 0 0 0-.053-.261q-.072-.135-.381-.351l.086-.123 2.087 1.461q.815.57 1.114.948.298.376.325.848a1.36 1.36 0 0 1-.26.877q-.346.495-.933.571-.372.046-.854-.14l.015 2.277q.007.443.043.578a.7.7 0 0 0 .237.334l-.086.122-1.414-.99-.014-3.061zm1.542-2.202-1.377 1.967.189.132q.459.323.747.399a.84.84 0 0 0 .573-.054q.285-.128.533-.483.36-.512.29-.927-.067-.412-.6-.787zm6.32 10.89-1.625 1.052-3.065-3.784.116-.094.115.142q.15.185.308.244a.37.37 0 0 0 .254.004q.101-.025.423-.286l2.803-2.27q.326-.264.38-.365a.4.4 0 0 0 .03-.256.7.7 0 0 0-.17-.333l-.114-.142.117-.095 1.84 2.273-.116.095-.15-.186a.76.76 0 0 0-.308-.246.4.4 0 0 0-.256-.006q-.103.027-.424.286l-2.714 2.198q-.327.266-.386.375a.32.32 0 0 0-.014.257q.035.101.28.402l.287.355q.275.34.578.47.3.13.693.084.392-.042 1.014-.302zm1.372 4-.818-1.754-.582.017a1.2 1.2 0 0 0-.447.083.36.36 0 0 0-.228.312q-.014.126.138.528l-.135.063-.771-1.652.135-.063a.8.8 0 0 0 .428.335q.26.09.947.076l4.794-.071.033.07-3.24 3.691q-.46.527-.533.762a.64.64 0 0 0 .032.414l-.135.063-1.121-2.404.135-.063.046.1q.135.288.27.368a.22.22 0 0 0 .208.002.5.5 0 0 0 .124-.085 4 4 0 0 0 .224-.239l.496-.552zm.213-.25 1.367-1.538-2.067.035zm3.316 5.994-2.001 2.353q-.422.5-.545.823a.87.87 0 0 0-.04.47l-.147.028-.545-2.802.147-.029q.075.262.15.327a.18.18 0 0 0 .162.05q.166-.032.556-.488l1.313-1.536-.206-.167-1.468.286q-.42.082-.515.15a.4.4 0 0 0-.141.216q-.048.151.01.448l-.147.029-.527-2.715.146-.029.035.18a.76.76 0 0 0 .157.36.36.36 0 0 0 .222.12q.102.027.508-.053l3.54-.688q.413-.08.508-.144a.4.4 0 0 0 .146-.21.73.73 0 0 0 .008-.375l-.035-.179.147-.029.521 2.679-.148.029q-.052-.274-.159-.4a.4.4 0 0 0-.219-.127q-.109-.03-.517.05l-1.675.325 2.004 1.683q.418.352.62.313.151-.03.205-.217.027-.096-.029-.445l.148-.028.408 2.1-.147.028a1.2 1.2 0 0 0-.186-.422q-.114-.146-.695-.634zm2.076 6.248-2.226-.156-.008.11q-.036.518.274.776.311.256.943.367l-.011.152-2.864-.2.01-.153q.473-.015.782-.15.31-.134.427-.334.116-.198.144-.589l-1.54-.108q-.452-.03-.556 0a.32.32 0 0 0-.175.132q-.073.099-.088.334l-.023.326q-.054.766.27 1.253.32.486 1.034.74l-.01.148-1.722-.366.33-4.728.149.01-.013.182a.76.76 0 0 0 .059.388.36.36 0 0 0 .183.175q.092.052.504.081l3.598.252q.372.025.457.01a.4.4 0 0 0 .228-.133q.124-.145.143-.412l.012-.181.15.01-.32 4.578-1.618-.113.011-.153q.6-.075.874-.27a1.2 1.2 0 0 0 .42-.572q.09-.22.133-.841l.04-.565z" class="fil5"/><path id="_219235928" d="m61.23 75.188 2.28-1.694 1.39.835-.056.094-.11-.067a.56.56 0 0 0-.273-.093.3.3 0 0 0-.173.058q-.063.045-.217.298L62.72 76.87q-.157.263-.17.344a.3.3 0 0 0 .045.183.53.53 0 0 0 .2.188l.11.066-.055.093-1.784-1.072.056-.092.11.066a.6.6 0 0 0 .275.093.3.3 0 0 0 .174-.061q.063-.043.218-.3l1.52-2.532-3.18 2.329-.062-.037.529-3.892-1.445 2.406q-.152.251-.174.318a.42.42 0 0 0 .02.29q.061.146.296.286l-.056.093-1.17-.702.057-.093.035.021a.6.6 0 0 0 .234.09.4.4 0 0 0 .21-.014.6.6 0 0 0 .19-.137q.02-.025.16-.254l1.298-2.161q.155-.26.166-.34a.3.3 0 0 0-.045-.182.54.54 0 0 0-.2-.186l-.108-.066.056-.093 1.395.838-.393 2.828zm3.884 3.12-.04.1-1.932-.78.041-.1.123.049a.55.55 0 0 0 .281.047.26.26 0 0 0 .162-.087q.056-.052.17-.331l.981-2.43q.114-.283.113-.366a.3.3 0 0 0-.071-.173.5.5 0 0 0-.225-.152l-.123-.05.04-.101 1.932.78-.04.101-.123-.05a.55.55 0 0 0-.282-.047.28.28 0 0 0-.164.086q-.057.054-.169.331l-.981 2.43q-.115.282-.113.366a.3.3 0 0 0 .073.173.5.5 0 0 0 .225.154zm2.796-3.206 1.31 2.873.414-1.662q.087-.346.018-.495-.095-.198-.42-.274l.027-.106 1.277.319-.027.106q-.252-.03-.349-.002a.34.34 0 0 0-.172.13q-.075.101-.143.375l-.802 3.219-.097-.025-1.812-3.87-.612 2.458q-.084.333.04.487a.57.57 0 0 0 .32.205l.09.023-.025.105-1.371-.342.026-.105q.32.076.477-.02.158-.097.234-.405l.68-2.729-.056-.123a.8.8 0 0 0-.167-.257.7.7 0 0 0-.257-.12l.026-.107 1.372.342zm4.25.808 1.742 2.633.15-1.706q.03-.357-.06-.492-.127-.181-.458-.205l.01-.109 1.31.115-.009.11q-.254.008-.345.052a.33.33 0 0 0-.15.155q-.058.112-.082.393l-.29 3.305-.099-.01-2.394-3.539-.221 2.524q-.03.342.116.475a.57.57 0 0 0 .348.152l.093.008-.009.108-1.408-.123.01-.108q.329.026.468-.095.141-.12.168-.436l.245-2.801-.075-.113a.8.8 0 0 0-.205-.228.7.7 0 0 0-.273-.079l.01-.109zm4.112.377.141 1.615.08-.007q.376-.033.526-.284.148-.252.155-.719l.111-.01.182 2.079-.11.01a1.6 1.6 0 0 0-.197-.544q-.133-.208-.288-.269-.156-.06-.44-.036l.098 1.118q.03.327.063.398.033.07.115.11.079.041.25.026l.236-.02q.555-.05.869-.336.313-.285.413-.827l.108-.009-.068 1.277-3.43.3-.01-.108.132-.011a.55.55 0 0 0 .272-.086.26.26 0 0 0 .105-.151q.027-.072 0-.372l-.228-2.61a2 2 0 0 0-.044-.33.28.28 0 0 0-.121-.148.5.5 0 0 0-.312-.055l-.132.011-.01-.109 3.322-.29.103 1.174-.111.01q-.123-.423-.293-.597a.9.9 0 0 0-.459-.237q-.167-.04-.618.001zm4.704-.957.286 1.297-.12.023a1.36 1.36 0 0 0-.564-.71q-.385-.234-.765-.16-.295.056-.435.248a.5.5 0 0 0-.102.396q.025.13.106.218a1 1 0 0 0 .32.216q.154.069.691.216.752.205 1.05.458.295.253.37.64.095.49-.218.918-.315.428-.902.542a1.6 1.6 0 0 1-.356.03 3 3 0 0 1-.44-.061.6.6 0 0 0-.24-.013.3.3 0 0 0-.146.088.4.4 0 0 0-.102.203l-.106.02-.287-1.476.106-.021q.248.598.674.855.425.257.843.176.324-.063.48-.276a.55.55 0 0 0 .113-.447.55.55 0 0 0-.126-.255.9.9 0 0 0-.271-.202 3.5 3.5 0 0 0-.59-.201q-.584-.159-.854-.298a1.4 1.4 0 0 1-.44-.343 1.04 1.04 0 0 1-.223-.477q-.09-.468.189-.863.28-.395.802-.497a1.6 1.6 0 0 1 .378-.026q.142.008.354.065.215.055.291.04a.16.16 0 0 0 .11-.069q.034-.054.037-.237zm2.091-.533q.883-.359 1.644-.008.76.352 1.064 1.186.26.712.04 1.405-.29.919-1.3 1.286-1.008.368-1.811-.117a2.1 2.1 0 0 1-.903-1.124q-.304-.834.06-1.597.367-.763 1.206-1.03zm.098.164q-.514.188-.59.81-.062.509.232 1.315.348.959.852 1.294.351.235.774.081a.84.84 0 0 0 .425-.31q.177-.265.172-.703t-.233-1.06q-.27-.744-.542-1.061-.272-.319-.543-.393a.9.9 0 0 0-.547.027m5.113-2.41.49.96-.094.048q-.254-.29-.43-.383a.8.8 0 0 0-.398-.088q-.123.002-.372.13l-.264.134 1.395 2.738q.138.272.203.325a.3.3 0 0 0 .178.059.5.5 0 0 0 .266-.07l.118-.06.05.096-1.86.947-.048-.096.118-.06a.55.55 0 0 0 .22-.182.28.28 0 0 0 .043-.181q-.002-.076-.139-.345l-1.395-2.738-.257.132q-.358.181-.444.417-.12.328.021.751l-.1.051-.49-.962zm3.115 1.333-1.18.767.07.416a.9.9 0 0 0 .106.313.26.26 0 0 0 .248.133q.091-.002.365-.152l.06.09-1.112.722-.059-.09a.6.6 0 0 0 .198-.342q.038-.197-.04-.69l-.537-3.442.047-.03 2.984 1.957q.425.278.602.307a.47.47 0 0 0 .295-.065l.059.09-1.617 1.05-.059-.09.067-.044q.195-.127.238-.232a.16.16 0 0 0-.02-.149.4.4 0 0 0-.074-.08 3 3 0 0 0-.194-.138l-.448-.3zm-.203-.128-1.244-.827.234 1.483z" class="fil5"/><path id="_219235616" d="M75.53 31.081V59.32H57.858z" class="fil1 str0"/><path id="_219235760" d="m76.83 34.475 15.312 24.844H76.831z" class="fil1 str0"/></g></g></svg>