<svg xmlns="http://www.w3.org/2000/svg" width="650" height="487.5"><path fill="#f5dc0f" d="M0 0h650v487.5H0z"/><path fill="#002673" d="M0 162.5h650V325H0z"/><path fill="#c70f2e" fill-rule="evenodd" d="M325 411.486c-4.513-6.853-20.53-10.347-25.371-11.667l-62.23-16.967c-36.317-9.902-47.022-37.69-47.022-68.943V101.07c39.94 14.116 85.71 11.717 115.079-9.616L325 77.257l19.544 14.197c29.368 21.333 75.138 23.732 115.08 9.616v212.84c0 31.253-10.706 59.04-47.023 68.942l-62.23 16.967c-4.841 1.32-20.858 4.814-25.371 11.667"/><path fill="#f5dc0f" fill-rule="evenodd" d="m325 74.247-3.625 3.25v132.128h-131l96.5 186.719c3.421-11.666 18.207-20.063 38.125-20.063 19.565 0 34.704 8.397 38.125 20.063l96.5-186.719h-131V77.497z"/><path fill="#f5dc0f" fill-rule="evenodd" d="M391.188 113.188c-1.063 0-2.077 1.172-.97 2.562v2.969l-4.593 6.562v7.063c-1.25.364-2.5.746-3.75 2v3.062c-9.297 4.523-15.123 11.182-16.594 21.656 4.716-3.393 18.399-4.062 25.906-4.062 7.633 0 21.223.669 25.938 4.063-1.47-10.475-7.328-17.134-16.625-21.657v-3.062c-1.25-1.254-2.5-1.636-3.75-2v-7.063l-4.594-6.562v-2.969c1.108-1.39.094-2.563-.969-2.563zm0 31.624c1.141 0 2.937.946 2.937 2.72v2.218c0 1.265-1.487 2.406-2.938 2.406-1.467 0-2.937-1.141-2.937-2.406v-2.219c0-1.773 1.796-2.719 2.938-2.719m-12.563 1.25c1.048 0 2.507.892 2.188 2.594l-.407 2.156c-.228 1.215-1.778 2.313-3.125 2.313-1.33 0-2.478-1.098-2.25-2.313l.406-2.156c.32-1.702 2.14-2.594 3.188-2.594m25.156 0c1.048 0 2.837.892 3.156 2.594l.407 2.156c.228 1.215-.92 2.313-2.25 2.313-1.347 0-2.897-1.098-3.125-2.313l-.406-2.156c-.32-1.702 1.17-2.594 2.218-2.594m-12.594 11.875c-13.675 0-24.194 2.354-27.875 4.407v5.469c4.544-1.53 14.458-3.438 27.875-3.438s23.332 1.908 27.875 3.438v-5.47c-3.68-2.052-14.2-4.405-27.875-4.405zm0 9.75c-11.336 0-27.124 1.264-30.5 3.563v9.156c5.328 2.17 10.41 4.99 15.344 8.156a49 49 0 0 1 6.125-.187 57.3 57.3 0 0 1 14.813 2.469c6.919-5.35 15.65-8.592 24.719-8.406V171.25c-3.376-2.3-19.164-3.563-30.5-3.563zm-2.937 4.813h5.875v9.563h-5.875zm-11.188.375v9.188h-5.875v-8.844zm28.282 0 5.875.344v8.844h-5.875zm-62.594 7.063c-.21.002-.415.024-.625.03.518 3.169 3.215 6.461 11 9.907 5.33 2.36 10.187 6 11 9-3.745.408-7.799.39-10.625 0-1.746-.241-1.877 1.517-.375 2.375 4.11 2.346 10 2.604 17.625 1.25 6.487-1.152 13.6.015 20.156.906-6.96-5.304-14.14-10.527-21.312-14.687-9.191-5.332-18.305-8.877-26.844-8.781m39.75 11.812c-.548.001-1.059.022-1.563.063 1.66 1.028 7.91 5.664 10.188 7.375 2.438 1.83 4.58 3.53 8.031 3.125 6.15-.722 8.133-.372 14.531 1.25 2.486.63 4.687.355 7.094-.25-3.595-2.1-7.252-4.132-12.5-5.313-3.263-.735-5.779-1.352-8.625-2.531-4.942-2.048-11.958-3.729-17.156-3.719m66.75-16.375c-8.93.28-16.592 4.695-22.25 11.25-10.49-2.48-21.12 1.968-25.969 5.625 2.09.864 4.018 1.408 6.406 1.969 7.258-2.232 14.46-1.784 21.438-.719 6.942-6.635 14.971-13.875 21.75-15.625 1.834-.473 2.849-2.633-1.375-2.5m-176.044-47.507-33.875.437-17.375 18 20.281 5.125 56.157-1.375v-14.737l-8.75.156.033 6.948zm-52.5 21.218v10.032l19.813 7.062v-12.094zm77.688 3.969-54.875 1.344v12.344l54.875-2.063zm-77.688 9.25v9.594l19.813 8.937v-11.468zm77.688 5.375-54.875 2.063v11.843l54.875-2.625zm-77.688 7.5v11.563l19.813 11.28V184.15l-19.813-8.969zm77.688 6.813-19 .906v13.875l19-1.063zm-33.5 1.593-21.375 1.032v14.156l21.375-1.188z"/><path fill="#002673" fill-rule="evenodd" d="M434.844 226.344c-.462.053-.949.278-1.469.656-8.587 6.239-32.146 6.907-66.094 8.875-22.563 1.308-34.257 14.235-36.906 33.094 7.538.821 14.488 3.87 20.781 8.031 4.617-2.156 10.721-2.52 18.125-2.844 15.631-.681 17.584-5.617 20.969-10.844-9.364 1.633-18.65-3.215-28.5.75 3.409-2.865 7.234-3.712 11.25-3.75 6.033-.056 12.58 1.774 19.125.688 7.457-1.237 13.656-5.746 16.5-13.719-10.346 2.656-20.988-1.966-31.75 2.75 8.595-7.48 20.323-3.124 31.813-4.844 6.666-.997 13.157-3.323 19.02-6.772 4.126-2.714 8.544-5.315 8.917-10.571-.339-1.163-1.011-1.59-1.781-1.5"/><path fill="#002673" d="m325 31.328 7.462 22.963h24.145l-19.533 14.194 7.46 22.964L325 77.257 305.466 91.45l7.46-22.964-19.533-14.193 24.145-.001z"/><path fill="#c70f2e" fill-rule="evenodd" d="M325 469.938c-54.32 0-100.956-2.546-154.442-11.375-13.456-2.222-25-4.107-22.928-18.5 1.319-9.165-6.094-14.604-15.844-16.157-18.91-3.012-37.536-8.697-52.232-16.281 17.12-.964 30.935-6.15 39.448-13.125-11.152-7.41-18.966-18.591-24.602-32.844 18.767 9.685 34.006 15.875 58.221 16.594 24.613.73 25.85 13.678 24.86 21.906-.945 7.868 6.875 12.961 13.815 14.031 39.14 6.037 87.65 8.782 133.704 8.782s94.564-2.745 133.704-8.781c6.94-1.07 14.76-6.164 13.815-14.032-.99-8.228.247-21.175 24.86-21.906 24.215-.719 39.454-6.909 58.221-16.594-5.636 14.253-13.45 25.434-24.602 32.844 8.513 6.974 22.328 12.16 39.448 13.125-14.696 7.584-33.322 13.269-52.232 16.281-9.75 1.553-17.163 6.992-15.844 16.156 2.071 14.394-9.472 16.28-22.928 18.5-53.486 8.83-100.122 11.375-154.442 11.375z"/><path fill="#f5dc0f" d="M173.139 444.516a8.5 8.5 0 0 1-.408-1.236q-.133-.563-.075-.95.078-.521.414-.786a1 1 0 0 1 .8-.197q.675.1 1.979 1.422.771.786 1.263 1.195 2.19 1.869 4.56 2.914 2.373 1.045 5.54 1.519 2.975.444 4.886-.317c1.911-.761 1.71-.68 1.877-1.8.152-1.017-.25-1.768-1.207-2.681q-1.434-1.37-6.13-3.77a90 90 0 0 0-2.184-1.117c-2.926-1.477-4.487-3.412-5.254-4.092q-1.582-1.442-2.197-2.945-.614-1.504-.357-3.223.47-3.15 3.337-4.754 2.867-1.606 6.942-.997 1.584.237 3.178.742 1.593.504 1.65.513.445.066.732-.068.287-.135.565-.548.255-.377.534-.532a.96.96 0 0 1 .628-.104q.483.072.95.517t1.054 1.402l2.62 4.144q.606.96.788 1.46.182.501.121.907-.07.464-.455.732a1.17 1.17 0 0 1-.868.196q-.638-.096-2.099-1.42-.75-.665-1.205-1.049-1.495-1.23-2.902-1.924a9.6 9.6 0 0 0-2.817-.905q-1.95-.291-3.15.131-1.2.423-1.352 1.447c-.161 1.082 1.271 3.26 4.869 4.825a179 179 0 0 1 3.148 1.399c3.482 1.626 6.182 2.498 7.528 4.325q2.02 2.74 1.448 6.565-.609 4.075-4.197 6.018-3.59 1.942-9.132 1.114a36 36 0 0 1-5.722-1.36q-2.901-.936-3.036-.957-.33-.048-1.122.83-.792.879-1.546.766a1.35 1.35 0 0 1-.836-.48q-.355-.408-.898-1.655zm44.29-2.477a3 3 0 0 0-.182.413q-.057.171-.07.288-.057.543.465.805t2.076.426q1.98.21 3.147.05 1.167-.162 1.216-.628a1.8 1.8 0 0 0-.005-.423 5 5 0 0 0-.11-.532l-1.728-7.038a1.9 1.9 0 0 0-.21-.523q-.126-.2-.243-.212-.175-.019-.369.147a1.5 1.5 0 0 0-.344.465zm-11.62 11.967q-.816-.087-1.221-.523-.405-.435-.328-1.173.126-1.185 1.654-1.514a9 9 0 0 0 .583-.135q.63-.187 1.204-.795.576-.607 1.621-2.323l11.452-19.27q.094-.148.216-.37.48-.833 1.666-.708l3.418.363q.836.089 1.047.317.21.23.471 1.297l5.274 20.829q.03.1.084.323.696 2.883 2.027 3.672.11.07.278.147 1.28.706 1.168 1.774-.075.699-.515.966-.441.269-1.412.165l-8.799-.933q-1.242-.132-1.673-.521-.43-.39-.341-1.225a1.37 1.37 0 0 1 .327-.77 1.6 1.6 0 0 1 .747-.471q.164-.06.405-.114.805-.19.88-.889.043-.408-.177-1.295-.22-.888-.536-1.432-.45-.755-1.06-1.114t-1.795-.485l-4.642-.492q-1.107-.118-1.915.003-.808.12-1.277.464-.6.466-1.175 1.456-.577.99-.65 1.689-.055.505.722.96.075.048.091.069.648.364.895.733.245.37.194.855-.07.66-.556.982t-1.263.24zm38.226 3.793q-1.228-.086-1.773-.536-.546-.45-.486-1.307.067-.955 1.449-1.386.4-.128.581-.194.484-.202.717-.586.232-.385.286-1.145l1.267-18.002q.054-.76-.123-1.174-.175-.414-.627-.68a6 6 0 0 0-.549-.274q-1.307-.621-1.24-1.575.062-.877.665-1.236.603-.36 1.83-.272l7.95.56q1.226.086 1.764.525.536.438.475 1.316-.067.954-1.43 1.387a8 8 0 0 0-.561.195q-.504.2-.737.585t-.286 1.145l-1.267 18.002q-.054.76.123 1.174.176.414.647.682.15.089.53.272 1.287.619 1.22 1.574-.062.876-.655 1.236-.594.36-1.82.273l-7.95-.56zm21.312-22.912q.011-.273-.3-.549-.312-.276-.908-.535-.71-.3-.952-.634-.24-.33-.22-.859.036-.878.627-1.255t1.821-.328l6.167.245q.566.023.98.186.414.162.713.487l11.75 13.7.344-8.625q.03-.761-.16-1.17-.188-.408-.647-.66-.21-.107-.557-.257-1.345-.582-1.307-1.538.035-.878.626-1.255.592-.377 1.841-.328l4.918.196q1.25.05 1.809.472c.559.422.548.716.525 1.302q-.038.956-1.425 1.428a7 7 0 0 0-.556.213q-.498.215-.708.607-.211.393-.242 1.153l-.9 22.658q-.014.312-.135.435-.123.122-.415.11l-3.24-.129q-.292-.01-.405-.143-.112-.13-.1-.443l.107-2.674q.06-1.483-1.567-3.346a8 8 0 0 0-.243-.284l-12.775-14.953-.635 15.945q-.03.78.148 1.198.18.417.658.671.172.085.556.257 1.326.581 1.288 1.537-.036.897-.618 1.285t-1.831.337l-5.406-.215q-1.25-.05-1.809-.482-.56-.433-.523-1.33.037-.957 1.386-1.43a9 9 0 0 0 .555-.213q.517-.214.749-.625t.261-1.173zm42.92 25.535q-1.25-.012-1.822-.427-.573-.416-.565-1.275.009-.957 1.362-1.472.39-.152.568-.229.49-.23.69-.628.197-.4.206-1.16l.163-16.93q.01-1.095-.348-1.39-.36-.297-1.667-.31-1.68-.015-2.866.423-1.186.439-2.839 1.83-.473.405-1.221 1.121-1.38 1.296-1.966 1.29a.89.89 0 0 1-.69-.299q-.261-.295-.257-.784.008-.819 3.264-6.513l.16-.291q.615-1.088 1.117-1.582.504-.492.972-.489.488.004 1.175.675.687.67 1.742.68l15.038.14q1.114.01 1.998-.518.884-.529 1.137-.527.84.008 1.798 1.97.172.373.288.589 1.4 2.786 1.992 4.237.592 1.45.587 1.998a.97.97 0 0 1-.33.73q-.324.3-.793.295-.606-.006-1.573-1.011-.329-.375-.541-.572-2.052-2.01-3.442-2.688-1.39-.677-3.11-.693-1.483-.014-1.985.333-.501.348-.51 1.382l-.165 16.97q-.007.742.195 1.154.202.413.706.651.195.099.545.24 1.323.54 1.314 1.496-.007.86-.587 1.264-.58.405-1.83.393zm57.046-13.964q.034 1.211.622 1.585.587.374 2.168.33 3.24-.093 5.049-1.786 1.807-1.693 1.727-4.562-.084-2.949-2.161-4.863t-5.083-1.829q-1.328.037-1.949.534-.621.496-.63 1.513zm.242 8.513q.02.722.247 1.116.225.395.72.615.179.072.574.218 1.342.489 1.37 1.446.024.858-.54 1.285t-1.814.462l-7.927.225q-1.25.036-1.837-.358-.588-.394-.612-1.252-.028-.957 1.325-1.523.385-.167.56-.25.48-.249.665-.644.184-.397.163-1.138l-.514-18.079q-.022-.762-.238-1.156-.217-.394-.692-.615a17 17 0 0 0-.573-.218q-1.38-.49-1.409-1.445-.024-.88.54-1.295.564-.417 1.814-.453l6.93-.197q4.14-.117 6.72.278 2.58.396 4.72 1.39 3.385 1.584 5.206 4.092 1.82 2.508 1.91 5.71.12 4.177-2.926 6.316-3.046 2.138-9.391 2.319a40 40 0 0 1-1.788-.008 39 39 0 0 0-1.769-.008q-.839.023-1.174.287t-.316.908zm30.103-9.425q-.081.26-.108.438a1.4 1.4 0 0 0-.02.295q.036.546.595.714.56.17 2.118.067 1.989-.13 3.11-.488 1.122-.357 1.09-.825a1.8 1.8 0 0 0-.076-.416 5 5 0 0 0-.2-.505l-2.9-6.641a1.9 1.9 0 0 0-.297-.48q-.158-.176-.275-.168-.176.012-.339.208a1.5 1.5 0 0 0-.26.517zm-9.411 13.77q-.819.055-1.293-.306-.474-.36-.522-1.1-.078-1.19 1.371-1.774a9 9 0 0 0 .552-.232q.588-.293 1.051-.989.464-.696 1.202-2.565l8.002-20.94q.068-.16.15-.4.332-.904 1.52-.981l3.43-.225q.84-.055 1.086.134.248.19.686 1.198l8.745 19.626q.045.094.137.304 1.177 2.722 2.622 3.273.12.05.3.098 1.381.477 1.452 1.548.046.702-.342 1.04-.39.34-1.364.403l-8.828.58q-1.248.081-1.738-.229t-.545-1.148a1.37 1.37 0 0 1 .191-.815 1.6 1.6 0 0 1 .656-.592q.15-.088.38-.181.761-.324.716-1.026-.027-.409-.395-1.246-.369-.837-.772-1.32-.572-.666-1.235-.917-.662-.25-1.85-.172l-4.659.306q-1.11.072-1.887.329-.775.257-1.179.674-.51.562-.91 1.636t-.353 1.775q.033.507.876.823.08.034.1.052.702.248 1.007.57.306.322.337.81.044.663-.38 1.062-.424.4-1.204.451l-7.113.467zm43.015-31.463q.893-.097 1.4.23.508.328.586 1.046.116 1.069-1.354 1.641-.526.215-.669.348-.737.63-.518 4.615.045.78.055 1.231l.378 8.152q.011.293.038.615.024.32.093.943.37 3.397 1.87 4.717t4.547.988q3.204-.35 4.636-1.989 1.433-1.64 1.11-4.59a33 33 0 0 0-.342-2.419l-1.397-8.139a.5.5 0 0 0-.032-.114q-.729-4.518-1.545-4.98a7 7 0 0 0-.91-.411q-1.23-.476-1.32-1.29-.071-.66.263-1.021t1.072-.441l6.388-.696q.815-.09 1.291.222.475.312.55.991.09.816-1.019 1.467a19 19 0 0 1-.48.288q-.585.378-.78.773-.192.394-.124 1.015a4 4 0 0 0 .109.637l1.633 8.683q.058.346.19 1.02.726 4.125.858 5.349.452 4.136-2.136 6.53t-8.2 3.005q-6.426.701-9.717-1.19-3.29-1.89-3.799-6.55-.108-.99-.151-3.913a87 87 0 0 0-.024-2.021l-.073-7.694a13 13 0 0 0-.08-1.465q-.081-.738-.324-1.075t-.916-.558a6 6 0 0 0-.407-.132q-1.28-.39-1.374-1.246-.068-.621.318-1.056.384-.435 1.083-.51zm29.623 24.695q-1.237.185-1.867-.135t-.758-1.17q-.143-.946 1.132-1.67.363-.214.525-.316.448-.305.583-.72t.025-1.15l-2.684-17.885q-.113-.753-.375-1.119-.262-.365-.76-.527a18 18 0 0 0-.595-.148q-1.43-.319-1.573-1.265-.13-.87.38-1.35.51-.482 1.747-.668l7.842-1.177q1.236-.185 1.865.125.63.31.76 1.18.142.946-1.113 1.668-.344.21-.506.313-.447.304-.6.742-.15.437-.04 1.171l2.593 17.287q.125.831.624 1.2.5.37 1.292.25l4.153-.623q1.603-.24 2.865-.844t2.462-1.693q.453-.404 1.174-1.124 1.357-1.35 1.995-1.445.483-.072.851.208.369.28.446.802.05.329-.018.665-.069.335-.354.932l-2.424 5.696q-.39.947-.697 1.28a1.24 1.24 0 0 1-.75.398q-.347.053-1.355-.606-1.007-.659-2.011-.508z" font-family="Windsor BT" font-size="40" font-weight="400" style="text-align:center;line-height:125%;-inkscape-font-specification:Windsor BT" text-anchor="middle"/><path fill="#002673" d="M325 274.904c-21.542 0-39.04 17.497-39.04 39.04 0 21.541 17.498 38.965 39.04 38.965s39.04-17.424 39.04-38.966-17.498-39.04-39.04-39.04zm0 9.797c16.105 0 29.168 13.137 29.168 29.242 0 16.106-13.063 29.169-29.168 29.169s-29.243-13.064-29.243-29.169 13.138-29.242 29.243-29.242m0 2.375c-14.82 0-26.868 12.047-26.868 26.867S310.18 340.737 325 340.737s26.793-11.974 26.793-26.794S339.82 287.076 325 287.076m-3.117 4.082v13.805c-.352.122-.708.21-1.04.37l-9.722-9.722a22.84 22.84 0 0 1 10.762-4.453m6.234 0a22.84 22.84 0 0 1 10.762 4.453l-9.723 9.723c-.331-.161-.687-.249-1.039-.371zm-21.375 8.906 9.723 9.723a9 9 0 0 0-.446 1.04h-13.804c.546-4.025 2.174-7.676 4.527-10.763m36.516 0c2.353 3.087 3.98 6.738 4.527 10.762h-13.804a10 10 0 0 0-.446-1.039zm-41.043 16.922h13.73c.133.391.339.747.52 1.114l-9.723 9.722c-2.368-3.093-3.99-6.786-4.527-10.836m31.766 0h13.804c-.537 4.05-2.16 7.743-4.527 10.836l-9.723-9.722a10 10 0 0 0 .446-1.114m-13.137 5.493c.331.16.687.248 1.039.37v13.806a22.8 22.8 0 0 1-10.762-4.454zm8.312 0 9.723 9.722a22.8 22.8 0 0 1-10.762 4.454V322.85c.352-.123.708-.21 1.04-.371z"/><path fill="#002673" fill-rule="evenodd" d="M215.07 226.344c.461.053.948.278 1.468.656 8.587 6.239 32.146 6.907 66.094 8.875 22.563 1.308 34.258 14.235 36.906 33.094-7.538.821-14.488 3.87-20.781 8.031-4.617-2.156-10.72-2.52-18.125-2.844-15.63-.681-17.583-5.617-20.969-10.844 9.364 1.633 18.651-3.215 28.5.75-3.409-2.865-7.234-3.712-11.25-3.75-6.033-.056-12.58 1.774-19.125.688-7.457-1.237-13.656-5.746-16.5-13.719 10.347 2.656 20.989-1.966 31.75 2.75-8.594-7.48-20.323-3.124-31.812-4.844-6.667-.997-13.158-3.323-19.02-6.772-4.127-2.714-8.544-5.315-8.918-10.571.34-1.163 1.012-1.59 1.781-1.5z"/></svg>