<svg xmlns="http://www.w3.org/2000/svg" xmlns:xlink="http://www.w3.org/1999/xlink" width="450" height="300"><path fill="#fff" d="M119.699 0h209.48v300H119.7z"/><path fill="#250" d="M0 0h120v300H0zm330 0h120v300H330z"/><g transform="translate(140.932 90.092)scale(.51528)"><path fill="#250" stroke="#250" stroke-width="1.941" d="m60 197.884-30-60c4.9-6.666 5.653-14.715 14.7-20 5.3-10 16.867-3.41 25.3-5.115 10-4.961 19.078-12.688 30-14.885 12.304.569 20.922 11.275 30 10 7.128-8.402 13.333-6.666 20-10h30c10 0 15.853-7.373 30 0 22.903-1.029 29.217 1.168 30 5.208 13.333 1.597 29.432-.492 40 4.792 11.736 4.363 17.48 12.412 20 20l-20 50-10 10z"/><path fill="#250" fill-rule="evenodd" stroke="#250" stroke-width="1.941" d="M270 232.806a105 10 0 1 1-210 0 105 10 0 1 1 210 0z"/><path fill="#250" stroke="#250" stroke-width="1.754" d="M823.514 402.781c-11.623 0-34.237-1.359-55.11.189a2965 2965 0 0 1-41.817 2.762s6.024 9.588 6.669 12.236c.534 2.196-2.242 3.055-2.242 3.055s18.483-1.297 38.812-2.804c20.523-1.522 42.687-2.344 53.688-2.344h34.5c10.636 0 33.344.823 53.687 2.344 20.165 1.507 39.267 2.804 39.267 2.804s-3.079-1.513-2.676-3.84c.41-2.366 5.286-11.054 5.286-11.054s-20.011-.803-40.908-2.364c-20.718-1.549-43.378-.984-54.656-.984z" transform="matrix(.98378 0 0 2.24736 -662.548 -721.93)"/><path fill="#ff0" stroke="#250" stroke-width="2.743" d="M474.597 218.078c-2.553 2.483-5.97.962-8.031 1.797-6.258 2.536-15.788 7.13-25 9.375-4.48 1.092-11.845 2.232-18.781 3.25-6.937 1.018-13.315 1.888-16.938 2.781-10.144 2.5-15.335 2.354-25.781 6.625-9.788 4.003-19.39 9.881-27.406 16.781-6.6 5.682-11.25 13.126-14.5 20.813-3.198 7.563-3.804 17.743-3.532 24.781.168 4.327 1.788 9.278 3.282 13.563a147 147 0 0 0 2.937 7.719l7.375-3.125s-1.384-3.21-2.781-7.22c-1.397-4.008-2.726-9.003-2.813-11.25-.236-6.106.672-16.088 2.907-21.374 2.904-6.87 6.966-13.215 12.343-17.844 7.314-6.296 16.285-11.815 25.22-15.469 9.52-3.893 13.886-3.557 24.687-6.219 2.529-.623 9.19-1.602 16.156-2.625s14.366-2.147 19.531-3.406c10.401-2.535 20.41-7.446 26.094-9.75 4.162-1.686 7.72-4.893 10.594-7.687 7.969-3.676.021-.1-5.563-1.516z" transform="matrix(.98378 0 0 .91852 -310.072 -163.95)"/><path fill="#ff0" stroke="#250" stroke-width="2.743" d="M474.822 218.527c-2.553 2.484-6.194 2.943-8.256 3.779-6.258 2.536-15.788 4.698-25 6.944-4.48 1.092-11.845 2.232-18.781 3.25-6.937 1.018-13.315 1.888-16.938 2.781-10.144 2.5-15.335 2.354-25.781 6.625-9.788 4.003-19.39 9.881-27.406 16.781-6.6 5.682-11.25 13.126-14.5 20.813-3.198 7.563-3.804 17.743-3.532 24.781.168 4.327 1.788 9.278 3.282 13.563a147 147 0 0 0 2.937 7.719l7.375-3.125s-1.384-3.21-2.781-7.22c-1.397-4.008-2.726-9.003-2.813-11.25-.236-6.106.671-16.088 2.907-21.374 2.904-6.87 6.966-13.215 12.343-17.844 7.314-6.296 16.285-11.815 25.22-15.469 9.52-3.893 13.886-3.557 24.687-6.219 2.529-.623 9.19-1.602 16.156-2.625s14.366-2.147 19.531-3.406c10.401-2.535 20.41-7.446 26.094-9.75 4.162-1.686 7.72-4.893 10.594-7.687 10.779-2.604-2.427-1.5-5.338-1.067z" transform="matrix(-.98378 0 0 .91893 638.776 -164.082)"/><path fill="#ff0" stroke="#250" stroke-width="2.743" d="M412.52 337.357s-7.978-31.006-7.323-43.004c.13-2.375-.126-4.907.829-9.142.794-3.521 2.729-8.83 3.613-10.6 3.183-6.37 11.03-12.466 16.286-17.273 6.536-5.978 15.881-13.269 23.197-18.261 6.523-4.452 15.54-9.998 22.703-13.326 2.42-1.125 8.39-2.961 8.39-2.961l-.454-7.417s-13.734 4.495-19.781 6.923c-16.203 6.506-41.108 16.185-55.77 25.665-9.06 5.857-16.715 12.317-22.805 21.222-3.337 4.88-5.698 12.475-6.91 18.26-1.093 5.22.027 11.65 1.48 16.781 1.4 4.939 6.032 13.875 9.378 17.768 3.759 4.373 22.584 25.92 22.584 25.92z" transform="matrix(.98378 0 0 .91845 -310.072 -163.23)"/><path fill="#ff0" stroke="#250" stroke-width="2.743" d="M413.278 347.912s-8.736-41.56-8.081-53.559c.13-2.375-.126-4.907.829-9.142.794-3.521 2.729-8.83 3.613-10.6 3.183-6.37 11.03-12.466 16.286-17.273 6.536-5.978 15.881-13.269 23.197-18.261 6.523-4.452 15.54-9.998 22.703-13.326 2.42-1.125 8.39-2.961 8.39-2.961v-6.445s-14.188 3.523-20.235 5.951c-16.203 6.506-41.108 16.185-55.77 25.665-9.06 5.857-16.715 12.317-22.805 21.222-3.337 4.88-5.698 12.475-6.91 18.26-1.093 5.22.027 11.65 1.48 16.781 1.4 4.939 6.032 13.875 9.378 17.768 3.759 4.373 18.64 25.92 18.64 25.92z" transform="matrix(-.98378 0 0 .91845 638.776 -163.23)"/><path fill="#ff0" stroke="#250" stroke-width="2.784" d="M843.656 231.105s.835 3.373 3.782 13.094c4.195 13.842 11.296 33.062 13.078 44.914.892 5.933 1.07 14.096 0 20-1.166 6.429-5.592 13.402-9.111 21.926-3.384 8.195-8.386 25.918-8.386 25.918l-4.527-7.844-5.327 7.844s-4.203-17.723-7.587-25.918c-3.52-8.524-7.945-15.497-9.11-21.926-1.071-5.904-.893-14.067 0-20 1.781-11.852 8.882-31.072 13.078-44.914 2.946-9.72 3.466-13.094 3.466-13.094z" transform="matrix(.98378 0 0 .892 -660.543 -171.79)"/><path fill="#ff0" stroke="#250" stroke-width="5.205" d="M2885.906 785.625c-1.767 4.062-4.538 9.603-8.719 13.313-5.27 4.676-8.37 6.97-15.437 9.187-4.754 1.492-12.586 3.006-18.469 2.25-4.342-.558-11.21-.64-17-3.063-4.72-1.975-10.488-5.42-14.437-9.187-1.06-1.011-1.94-2.18-2.781-3.375-.475 1.132-.942 2.268-1.688 3.344-4.027 5.81-10.566 10.06-16.375 12.593-5.054 2.205-11.368 3.181-16.938 2.407-7.196-1-15.358-4.456-20.968-9.313-2.363-2.045-4.282-4.777-6.063-7.562-.573 2.597-1.264 5.16-2.281 7.343-2.548 5.471-6.55 10.619-12.25 13.782-5.667 3.144-12.767 3.832-18.5 3.312-5.026-.455-11.151-1.963-15.719-5.937-1.06-.923-1.894-1.98-2.781-3-1.756 6.008-4.924 13.032-11.719 16.625-6.325 3.345-14.907 4.863-22.25 2.375-8.8-2.982-14.26-9.934-18.186-16.248-1.772-2.85-3.39-7.622-4.189-10.596s-1.312-5.469-1.312-5.469l9.312-1.906s.472 2.243 1.188 4.906c.715 2.664 2.673 7.406 3.063 8.033 3.287 5.287 9.048 10.877 13.187 12.28 3.23 1.095 11.206.124 14.75-1.75 3.001-1.587 5.88-6.665 7.219-11.469 1.21-4.341 1.937-9.625 1.937-9.625l2.156-16.656 6.875 15.343s3.317 6.796 7 10c1.71 1.488 7.051 3.361 10.313 3.657 3.821.346 10.309-.677 13.031-2.188 3.462-1.92 6.405-5.473 8.281-9.5.724-1.554 1.898-6.38 2.594-10.375s1.03-5.117 1.094-7.343c.074-2.579-.775-8.563-.775-8.563l6.399-1.233s3.727 9.038 4.407 10.327 1.65 3.059 2.75 4.937c2.198 3.757 5.276 8.09 6.688 9.313 3.57 3.09 11.2 6.422 16.03 7.093 3.066.427 8.908-.406 11.845-1.687 4.368-1.905 10.077-5.997 12.374-9.313.268-.385 1.518-3.43 2.22-5.937.7-2.507 3.351-20.771 3.351-20.771l9.21 19.427c1.214 2.558 3.509 5.315 4.063 5.844 2.436 2.323 8.143 5.85 11.563 7.281 2.963 1.24 9.463 1.756 14.531 2.407 1.872.24 11.7-1.026 14.406-1.875 6.317-1.983 6.748-2.586 11.969-7.22 1.724-1.53 4.93-6.822 6.312-10 .666-1.529 1.353-7.531 1.344-12.5-.01-4.967-.344-9.187-.344-9.187l9.732-.781 9.732.781s-.335 4.22-.344 9.188c-.01 4.968.679 10.97 1.344 12.5 1.382 3.177 4.588 8.47 6.312 10 5.222 4.633 5.652 5.236 11.97 7.218 2.706.85 12.533 2.116 14.405 1.875 5.069-.65 11.568-1.166 14.532-2.406 3.42-1.43 9.126-4.958 11.562-7.281.555-.529 2.85-3.286 4.063-5.844l9.21-19.427s2.651 18.264 3.352 20.771 1.952 5.552 2.219 5.938c2.298 3.315 8.006 7.407 12.375 9.312 2.937 1.28 8.779 2.114 11.844 1.688 4.83-.672 12.46-4.003 16.031-7.094 1.411-1.222 4.49-5.556 6.687-9.313 1.1-1.878 2.07-3.649 2.75-4.937s4.408-10.327 4.408-10.327l6.398 1.233s-.849 5.984-.774 8.562c.064 2.227.397 3.349 1.093 7.344.697 3.996 1.87 8.82 2.594 10.375 1.876 4.027 4.82 7.58 8.281 9.5 2.723 1.51 9.21 2.534 13.032 2.188 3.261-.296 8.602-2.169 10.312-3.657 3.684-3.204 7-10 7-10l6.875-15.343 2.156 16.656s.728 5.284 1.938 9.625c1.339 4.804 4.217 9.882 7.219 11.469 3.544 1.874 11.519 2.845 14.75 1.75 4.138-1.403 9.9-6.993 13.186-12.28.39-.627 2.348-5.37 3.064-8.033.715-2.663 1.187-4.906 1.187-4.906l9.313 1.906s-.514 2.495-1.313 5.469-2.417 7.747-4.188 10.596c-3.927 6.314-9.387 13.266-18.187 16.248-7.342 2.488-15.924.97-22.25-2.375-6.794-3.593-9.963-10.617-11.719-16.625-.887 1.02-1.72 2.077-2.78 3-4.569 3.974-10.694 5.482-15.72 5.937-5.733.52-12.832-.168-18.5-3.312-5.7-3.163-9.701-8.31-12.25-13.782-1.017-2.183-1.708-4.746-2.28-7.343-1.782 2.785-3.7 5.517-6.063 7.562-5.61 4.857-13.772 8.312-20.969 9.313-5.57.774-11.883-.202-16.938-2.407-5.809-2.533-12.348-6.782-16.375-12.593-.745-1.076-1.212-2.212-1.687-3.344-.842 1.194-1.721 2.364-2.781 3.375-3.95 3.767-9.717 7.212-14.438 9.188-5.789 2.422-12.657 2.504-17 3.062-5.883.756-13.715-.758-18.469-2.25-7.066-2.217-10.166-4.51-15.437-9.188-4.18-3.71-6.952-9.25-8.719-13.312-1.076-2.473-1.408-2.811-2.101-4.944-.24.85-.412 1.424-.555 1.854-.405 1.214-.575 1.263-1.37 3.09z" transform="matrix(.4919 0 0 .51035 -1256.192 -243.911)"/><path fill="#ff0" stroke="#250" stroke-width="2.602" d="M822.33 361.844c-6.51 0-31.35.64-55.25 3.625s-46.094 8.25-46.094 8.25-4.368 4.853-3.864 7.271c.54 2.587 6.895 5.479 6.895 5.479s21.68-5.127 44.688-8c23.007-2.873 48.068-3.563 53.625-3.563h36.812c5.353 0 29.965.688 53.032 3.563s45.343 8 45.343 8 5.816-2.66 6.4-5.03c.608-2.465-3.462-7.72-3.462-7.72s-22.721-5.267-46.656-8.25-48.32-3.625-54.657-3.625zm1.184 40.937c-11.623 0-33.783.828-54.656 2.375-21.066 1.562-40 4.75-40 4.75s-4.42 5.613-3.776 8.26c.534 2.197 5.932 4.647 5.932 4.647s18.483-3.087 38.812-4.594c20.523-1.522 42.687-2.344 53.688-2.344h34.5c10.636 0 33.344.823 53.687 2.344 20.165 1.507 38.813 4.594 38.813 4.594s5.095-3.303 5.498-5.63c.41-2.366-3.342-7.277-3.342-7.277s-19.103-3.188-40-4.75c-20.718-1.548-43.378-2.375-54.656-2.375z" transform="matrix(.98378 0 0 1.0207 -662.548 -198.355)"/><path fill="#ff0" stroke="#250" stroke-width="2.602" d="M415.733 409.798s-6.56-14.99-10.472-21.105c-2.107-3.294-6.757-8.646-10.274-10.553-2.864-1.552-5.402-1.832-8.693-1.696-2.068.086-4.322.638-5.927 1.885-1.42 1.102-2.372 3.195-2.767 4.9-.498 2.152-.466 4.86.198 6.971.897 2.854 2.601 5.934 4.742 8.103 1.625 1.647 4.14 3.637 6.322 4.523 2.376.964 7.508 1.884 7.508 1.884s-2.533-3.22-3.358-5.276c-.403-1.003-.605-2.674 0-3.58.527-.79 1.983-1.361 2.963-1.32 2.123.091 3.894 1.914 5.532 3.204 2.366 1.862 4.789 5.075 6.718 7.35 1.119 1.318 3.556 4.522 3.556 4.522z" transform="matrix(.98378 0 0 1.0207 -314.754 -255.958)"/><path fill="#ff0" stroke="#250" stroke-width="2.602" d="M758.617 359.129s-3.76-12.55-4.347-18.09c-.494-4.67-.764-11.08.396-15.64.512-2.016 1.57-4.806 3.16-6.22 1.636-1.452 4.683-2.557 6.916-2.637 3.353-.121 8.22 1.016 10.67 3.203 2.506 2.238 3.772 6.92 4.148 10.176.303 2.614-.524 6.168-1.383 8.668-.437 1.273-2.42 3.279-3.43 4.21-1.183 1.089-3.682 2.008-3.682 2.008s.916-3.769.395-5.276c-.685-1.98-2.19-3.812-4.347-4.146-1.023-.158-3.424.424-4.15 1.131-1.67 1.628-1.891 3.797-2.37 6.03-.826 3.847.79 13.002.79 13.002l-2.766 3.58z" transform="matrix(.98378 0 0 1.0207 -650.328 -204.431)"/><path fill="#ff0" stroke="#250" stroke-width="2.602" d="M415.733 409.798s-6.56-14.99-10.472-21.105c-2.107-3.294-6.757-8.646-10.274-10.553-2.864-1.552-5.402-1.832-8.693-1.696-2.068.086-4.322.638-5.927 1.885-1.42 1.102-2.372 3.195-2.767 4.9-.498 2.152-.466 4.86.198 6.971.897 2.854 2.601 5.934 4.742 8.103 1.625 1.647 4.14 3.637 6.322 4.523 2.376.964 7.508 1.884 7.508 1.884s-2.533-3.22-3.358-5.276c-.403-1.003-.605-2.674 0-3.58.527-.79 1.983-1.361 2.963-1.32 2.123.091 3.894 1.914 5.532 3.204 2.366 1.862 4.789 5.075 6.718 7.35 1.119 1.318 3.556 4.522 3.556 4.522z" transform="matrix(-.98378 0 0 1.0207 643.458 -255.958)"/><path fill="#ff0" stroke="#250" stroke-width="2.602" d="M897.6 359.129s3.76-12.55 4.347-18.09c.494-4.67.764-11.08-.395-15.64-.512-2.016-1.57-4.806-3.161-6.22-1.635-1.452-4.683-2.557-6.916-2.637-3.353-.121-8.22 1.016-10.669 3.203-2.507 2.238-3.772 6.92-4.149 10.176l-.01.096c-.272 2.605.545 6.103 1.393 8.572.438 1.273 2.42 3.279 3.431 4.21 1.183 1.089 3.682 2.008 3.682 2.008s-.916-3.769-.395-5.276c.685-1.98 2.189-3.812 4.347-4.146 1.023-.158 3.423.424 4.149 1.131 1.671 1.628 1.892 3.797 2.37 6.03.826 3.847-.79 13.002-.79 13.002l2.766 3.58z" transform="matrix(.98378 0 0 1.0207 -650.328 -204.431)"/><path fill="#ff0" stroke="#250" stroke-width="2.602" d="M602.619 366.662s5.98-11.058 10.296-16.73c2.72-3.575 5.403-7.906 8.194-11.425 2.93-3.693 5.843-9.33 9.95-14.905 5.448-7.393 11.84-14.445 11.84-14.445s-9.812.707-13.729 2.135c-3.318 1.21-7.517 3.66-10.068 6.102-1.907 1.826-3.524 5.058-4.881 7.322-1.495 2.494-3.46 5.858-4.577 8.543-2.167 5.214-5.492 18-5.492 18l-5.01 12.937z" transform="matrix(.98378 0 0 1.0207 -309.79 -197.05)"/><path fill="#ff0" stroke="#250" stroke-width="2.602" d="M362.894 362.996s-10.27-12.502-12.55-20.388c-1.043-3.606-1.88-9.102-.305-12.51 1.037-2.244 4-4.62 6.407-5.186 2.464-.58 6.165.378 8.238 1.83 1.954 1.37 3.866 4.834 4.8 7.03 1.218 2.86 1.641 6.15 2.124 9.221.218 1.387-.436 4.825-.951 6.903-.395 1.59-.877 2.606-.877 2.606s-.95-6.791-2.656-8.806c-1.297-1.531-2.987-4.5-4.881-3.834-1.221.429-.673 2.978-.61 4.271.187 3.858 2.651 8.667 3.05 12.51.294 2.823-1.789 6.353-1.789 6.353z" transform="matrix(-.98378 0 0 1.0207 637.032 -194.758)"/><path fill="#ff0" stroke="#250" stroke-width="2.602" d="M361.296 366.662s-5.98-11.058-10.296-16.73c-2.72-3.575-5.403-7.906-8.194-11.425-2.93-3.693-5.843-9.33-9.95-14.905-5.448-7.393-11.84-14.445-11.84-14.445s9.812.707 13.729 2.135c3.318 1.21 7.517 3.66 10.068 6.102 1.906 1.826 3.524 5.058 4.881 7.322 1.495 2.494 3.46 5.858 4.577 8.543 2.167 5.214 5.491 18 5.491 18l5.011 12.937z" transform="matrix(.98378 0 0 1.0207 -309.79 -197.05)"/><path fill="#ff0" stroke="#250" stroke-width="2.602" d="M362.894 362.996s-10.27-12.502-12.55-20.388c-1.043-3.606-1.88-9.102-.305-12.51 1.037-2.244 4-4.62 6.407-5.186 2.464-.58 6.165.378 8.238 1.83 1.954 1.37 3.866 4.834 4.8 7.03 1.218 2.86 1.641 6.15 2.124 9.221.218 1.387-.436 4.825-.951 6.903-.395 1.59-.877 2.606-.877 2.606s-.95-6.791-2.656-8.806c-1.297-1.531-2.987-4.5-4.881-3.834-1.221.429-.673 2.978-.61 4.271.187 3.858 2.651 8.667 3.05 12.51.294 2.823-1.789 6.353-1.789 6.353z" transform="matrix(.98378 0 0 1.0207 -308.328 -194.758)"/><path fill="#ff0" stroke="#250" stroke-width="2.602" d="M855.927 260.793s.717-11.17-.784-16.853c-1.276-4.837-4.087-13.146-7.446-16.853-.874-.964-1.833-2.295-3.413-3.231-1.391-.825-3.388-1.295-4.48-1.641-1.491-.474-5.917-.599-9.282.303-2.956.791-4.891 2.503-6.092 3.723-2.597 2.64-3.668 6.554-3.776 7.9-.233 2.9-.107 6.796 1.175 9.407 1.255 2.554 3.642 5.687 5.88 7.446 2.44 1.919 7.577 3.266 7.577 3.266s-2.404-4.434-2.483-7.185c-.035-1.227.233-3.656 1.176-4.442 1.636-1.363 5.143-1.721 7.055-.784 2.227 1.092 4.541 4.893 5.487 7.186.968 2.346 1.417 5.75 1.96 8.23.256 1.172.784 3.92.784 3.92zm2.942 0s-.717-11.17.784-16.853c1.276-4.837 4.087-13.146 7.446-16.853.874-.964 1.833-2.295 3.413-3.231 1.391-.825 3.388-1.295 4.48-1.641 1.491-.474 5.917-.599 9.282.303 2.956.791 4.891 2.503 6.092 3.723 2.597 2.64 3.668 6.554 3.776 7.9.233 2.9.107 6.796-1.175 9.407-1.256 2.554-3.642 5.687-5.88 7.446-2.44 1.919-7.577 3.266-7.577 3.266s2.404-4.434 2.482-7.185c.036-1.227-.232-3.656-1.175-4.442-1.636-1.363-5.143-1.721-7.055-.784-2.227 1.092-4.541 4.893-5.487 7.186-.968 2.346-1.417 5.75-1.96 8.23-.256 1.172-.784 3.92-.784 3.92z" transform="matrix(.98378 0 0 1.0207 -679.142 -110.289)"/><path fill="#ff0" fill-rule="evenodd" stroke="#250" stroke-width="2.602" d="M710.638 440.797c2.185 6.525 2.11 12.393-.168 13.097-2.277.705-4.68-4.396-6.864-10.922-2.185-6.525-3.326-12.016-1.05-12.72 2.278-.705 5.898 4.02 8.082 10.545z" overflow="visible" style="marker:none" transform="matrix(.98378 0 0 1.0207 -639.044 -243.757)"/><path fill="#ff0" fill-rule="evenodd" stroke="#250" stroke-width="2.602" d="M710.638 440.797c2.185 6.525 2.11 12.393-.168 13.097-2.277.705-4.68-4.396-6.864-10.922-2.185-6.525-3.326-12.016-1.05-12.72 2.278-.705 5.898 4.02 8.082 10.545z" overflow="visible" style="marker:none" transform="matrix(-.98378 0 0 1.0207 967.748 -243.757)"/><path fill="#ff0" fill-rule="evenodd" stroke="#250" stroke-width="5.437" d="M2755 830h-5l-25 30v5l30 30h5l25-30v-5z" transform="matrix(.68676 -.02703 .01223 .33445 -1803.824 -13.22)"/><path fill="#250" stroke="#ff0" stroke-width="4.129" d="M2750 839h6l19 20v6l-15 20h-6l-19-19v-6z" transform="matrix(.70478 -.02774 .01223 .33445 -1853.858 -11.251)"/><path fill="#ff0" fill-rule="evenodd" stroke="#ff0" stroke-width="5.437" d="M2755 830h-5l-25 30v5l30 30h5l25-30v-5z" transform="matrix(-.68676 -.02703 -.01223 .33445 2132.528 -13.22)"/><path fill="#250" stroke="#250" stroke-width="4.129" d="M2750 839h6l19 20v6l-15 20h-6l-19-19v-6z" transform="matrix(-.70478 -.02774 -.01223 .33445 2182.562 -11.251)"/><path id="a" fill="#338000" fill-rule="evenodd" stroke-width="1.5" d="M2700.19 785.026a10.489 10.66 0 1 1-20.977 0 10.489 10.66 0 1 1 20.977 0" overflow="visible" style="marker:none" transform="matrix(.74458 0 0 .7641 -1837.75 -572.187)"/><path id="b" fill="#250" fill-rule="evenodd" d="m2680.844 788.616 1.995 2.512 3.842 2.143 3.325.147 3.547-.369 3.768-2.955 1.626-2.513 1.034-3.916v-4.063l-1.625-2.29-2.365-2.735-2.955-1.182s1.536 2.719 1.92 3.99c.37 1.221.395 2.812.149 4.064-.238 1.208-.857 2.732-1.626 3.694-.851 1.066-2.465 2.364-3.694 2.956-1.373.66-3.132.84-4.655.886-1.29.039-4.286-.37-4.286-.37z" transform="matrix(.74458 0 0 .7641 -1837.75 -570.61)"/><path id="c" fill="#4a0" fill-rule="evenodd" stroke-width="1.5" d="M2690.302 778.013c0 1.897-1.556 3.436-3.473 3.436s-3.473-1.54-3.473-3.436c0-.974.767-.944 1.426-1.57.624-.591 1.694-1.684 2.626-1.684 1.917 0 2.894 1.357 2.894 3.254" overflow="visible" style="marker:none" transform="matrix(1.2357 0 0 1.24063 -3158.338 -940.134)"/><use xlink:href="#a" width="330.812" height="287.884" transform="translate(0 25.206)"/><use xlink:href="#b" width="330.812" height="287.884" transform="translate(0 25.206)"/><use xlink:href="#c" width="330.812" height="287.884" transform="translate(0 25.206)"/><path id="d" fill="#338000" fill-rule="evenodd" stroke-width="1.5" d="M2700.19 785.026a10.489 10.66 0 1 1-20.977 0 10.489 10.66 0 1 1 20.977 0" overflow="visible" style="marker:none" transform="matrix(.74458 0 0 .7641 -1750.5 -508.204)"/><path id="e" fill="#250" fill-rule="evenodd" d="m2680.844 788.616 1.995 2.512 3.842 2.143 3.325.147 3.547-.369 3.768-2.955 1.626-2.513 1.034-3.916v-4.063l-1.625-2.29-2.365-2.735-2.955-1.182s1.536 2.719 1.92 3.99c.37 1.221.395 2.812.149 4.064-.238 1.208-.857 2.732-1.626 3.694-.851 1.066-2.465 2.364-3.694 2.956-1.373.66-3.132.84-4.655.886-1.29.039-4.286-.37-4.286-.37z" transform="matrix(.74458 0 0 .7641 -1750.5 -506.627)"/><path id="f" fill="#4a0" fill-rule="evenodd" stroke-width="1.5" d="M2690.302 778.013c0 1.897-1.556 3.436-3.473 3.436s-3.473-1.54-3.473-3.436c0-.974.767-.944 1.426-1.57.624-.591 1.694-1.684 2.626-1.684 1.917 0 2.894 1.357 2.894 3.254" overflow="visible" style="marker:none" transform="matrix(1.2357 0 0 1.24063 -3071.088 -876.15)"/><use xlink:href="#d" id="g" width="330.812" height="287.884" transform="translate(-12.527 -15.511)"/><use xlink:href="#e" id="h" width="330.812" height="287.884" transform="translate(-12.527 -15.511)"/><use xlink:href="#f" id="i" width="330.812" height="287.884" transform="translate(-12.527 -15.511)"/><use xlink:href="#g" id="j" width="330.812" height="287.884" transform="translate(-15.958 -10.74)"/><use xlink:href="#h" id="k" width="330.812" height="287.884" transform="translate(-15.958 -10.74)"/><use xlink:href="#i" id="l" width="330.812" height="287.884" transform="translate(-15.958 -10.74)"/><use xlink:href="#j" id="m" width="330.812" height="287.884" transform="translate(-16.557 -12.527)"/><use xlink:href="#k" id="n" width="330.812" height="287.884" transform="translate(-16.557 -12.527)"/><use xlink:href="#l" id="o" width="330.812" height="287.884" transform="translate(-16.557 -12.527)"/><use xlink:href="#m" id="p" width="330.812" height="287.884" transform="translate(-19.389 -11.633)"/><use xlink:href="#n" id="q" width="330.812" height="287.884" transform="translate(-19.389 -11.633)"/><use xlink:href="#o" id="r" width="330.812" height="287.884" transform="translate(-19.389 -11.633)"/><use xlink:href="#p" id="s" width="330.812" height="287.884" transform="translate(29.084)"/><use xlink:href="#q" id="t" width="330.812" height="287.884" transform="translate(29.084)"/><use xlink:href="#r" id="u" width="330.812" height="287.884" transform="translate(29.084)"/><use xlink:href="#s" id="v" width="330.812" height="287.884" transform="translate(23.267 3.878)"/><use xlink:href="#t" id="w" width="330.812" height="287.884" transform="translate(23.267 3.878)"/><use xlink:href="#u" id="x" width="330.812" height="287.884" transform="translate(23.267 3.878)"/><use xlink:href="#v" id="y" width="330.812" height="287.884" transform="translate(21.328 3.878)"/><use xlink:href="#w" id="z" width="330.812" height="287.884" transform="translate(21.328 3.878)"/><use xlink:href="#x" id="A" width="330.812" height="287.884" transform="translate(21.328 3.878)"/><use xlink:href="#y" id="B" width="330.812" height="287.884" transform="translate(21.328 9.695)"/><use xlink:href="#z" id="C" width="330.812" height="287.884" transform="translate(21.328 9.695)"/><use xlink:href="#A" id="D" width="330.812" height="287.884" transform="translate(21.328 9.695)"/><use xlink:href="#B" id="E" width="330.812" height="287.884" transform="translate(19.389 13.572)"/><use xlink:href="#C" id="F" width="330.812" height="287.884" transform="translate(19.389 13.572)"/><use xlink:href="#D" id="G" width="330.812" height="287.884" transform="translate(19.389 13.572)"/><use xlink:href="#E" id="H" width="330.812" height="287.884" transform="translate(9.695 17.45)"/><use xlink:href="#F" id="I" width="330.812" height="287.884" transform="translate(9.695 17.45)"/><use xlink:href="#G" id="J" width="330.812" height="287.884" transform="translate(9.695 17.45)"/><use xlink:href="#H" id="K" width="330.812" height="287.884" transform="translate(4.325 21.328)"/><use xlink:href="#I" id="L" width="330.812" height="287.884" transform="translate(4.325 21.328)"/><use xlink:href="#J" id="M" width="330.812" height="287.884" transform="translate(4.325 21.328)"/><use xlink:href="#K" id="N" width="330.812" height="287.884" transform="translate(-304.408)"/><use xlink:href="#L" id="O" width="330.812" height="287.884" transform="translate(-304.408)"/><use xlink:href="#M" id="P" width="330.812" height="287.884" transform="translate(-304.408)"/><use xlink:href="#N" id="Q" width="330.812" height="287.884" transform="translate(3.878 -19.836)"/><use xlink:href="#O" id="R" width="330.812" height="287.884" transform="translate(3.878 -19.836)"/><use xlink:href="#P" id="S" width="330.812" height="287.884" transform="translate(3.878 -19.836)"/><use xlink:href="#Q" id="T" width="330.812" height="287.884" transform="translate(11.633 -19.389)"/><use xlink:href="#R" id="U" width="330.812" height="287.884" transform="translate(11.633 -19.389)"/><use xlink:href="#S" id="V" width="330.812" height="287.884" transform="translate(11.633 -19.389)"/><use xlink:href="#T" id="W" width="330.812" height="287.884" transform="translate(19.389 -13.572)"/><use xlink:href="#U" id="X" width="330.812" height="287.884" transform="translate(19.389 -13.572)"/><use xlink:href="#V" id="Y" width="330.812" height="287.884" transform="translate(19.389 -13.572)"/><use xlink:href="#W" id="Z" width="330.812" height="287.884" transform="translate(23.267 -9.695)"/><use xlink:href="#X" id="aa" width="330.812" height="287.884" transform="translate(23.267 -9.695)"/><use xlink:href="#Y" id="ab" width="330.812" height="287.884" transform="translate(23.267 -9.695)"/><use xlink:href="#Z" id="ac" width="330.812" height="287.884" transform="translate(23.267 -5.817)"/><use xlink:href="#aa" id="ad" width="330.812" height="287.884" transform="translate(23.267 -5.817)"/><use xlink:href="#ab" id="ae" width="330.812" height="287.884" transform="translate(23.267 -5.817)"/><use xlink:href="#ac" id="af" width="330.812" height="287.884" transform="translate(23.267)"/><use xlink:href="#ad" id="ag" width="330.812" height="287.884" transform="translate(23.267)"/><use xlink:href="#ae" id="ah" width="330.812" height="287.884" transform="translate(23.267)"/><use xlink:href="#af" id="ai" width="330.812" height="287.884" transform="translate(21.328 1.939)"/><use xlink:href="#ag" id="aj" width="330.812" height="287.884" transform="translate(21.328 1.939)"/><use xlink:href="#ah" id="ak" width="330.812" height="287.884" transform="translate(21.328 1.939)"/><use xlink:href="#ai" id="al" width="330.812" height="287.884" transform="translate(-14.913 7.756)"/><use xlink:href="#aj" id="am" width="330.812" height="287.884" transform="translate(-14.913 7.756)"/><use xlink:href="#ak" id="an" width="330.812" height="287.884" transform="translate(-14.913 7.756)"/><use xlink:href="#al" id="ao" width="330.812" height="287.884" transform="translate(-17.602 13.126)"/><use xlink:href="#am" id="ap" width="330.812" height="287.884" transform="translate(-17.602 13.126)"/><use xlink:href="#an" id="aq" width="330.812" height="287.884" transform="translate(-17.602 13.126)"/><use xlink:href="#ao" id="ar" width="330.812" height="287.884" transform="translate(-17.45 11.633)"/><use xlink:href="#ap" id="as" width="330.812" height="287.884" transform="translate(-17.45 11.633)"/><use xlink:href="#aq" id="at" width="330.812" height="287.884" transform="translate(-17.45 11.633)"/><use xlink:href="#ar" width="330.812" height="287.884" transform="translate(-9.695 17.45)"/><use xlink:href="#as" width="330.812" height="287.884" transform="translate(-9.695 17.45)"/><use xlink:href="#at" width="330.812" height="287.884" transform="translate(-9.695 17.45)"/><use xlink:href="#v" id="au" width="330.812" height="287.884" transform="translate(11.633 67.862)"/><use xlink:href="#w" id="av" width="330.812" height="287.884" transform="translate(11.633 67.862)"/><use xlink:href="#x" id="aw" width="330.812" height="287.884" transform="translate(11.633 67.862)"/><use xlink:href="#au" id="ax" width="330.812" height="287.884" transform="translate(-7.756 21.328)"/><use xlink:href="#av" id="ay" width="330.812" height="287.884" transform="translate(-7.756 21.328)"/><use xlink:href="#aw" id="az" width="330.812" height="287.884" transform="translate(-7.756 21.328)"/><use xlink:href="#ax" id="aA" width="330.812" height="287.884" transform="translate(-79.495)"/><use xlink:href="#ay" id="aB" width="330.812" height="287.884" transform="translate(-79.495)"/><use xlink:href="#az" id="aC" width="330.812" height="287.884" transform="translate(-79.495)"/><use xlink:href="#aA" id="aD" width="330.812" height="287.884" transform="translate(0 -21.328)"/><use xlink:href="#aB" id="aE" width="330.812" height="287.884" transform="translate(0 -21.328)"/><use xlink:href="#aC" id="aF" width="330.812" height="287.884" transform="translate(0 -21.328)"/><use xlink:href="#aD" id="aG" width="330.812" height="287.884" transform="translate(0 -19.389)"/><use xlink:href="#aE" id="aH" width="330.812" height="287.884" transform="translate(0 -19.389)"/><use xlink:href="#aF" id="aI" width="330.812" height="287.884" transform="translate(0 -19.389)"/><use xlink:href="#aG" id="aJ" width="330.812" height="287.884" transform="translate(-87.25 21.328)"/><use xlink:href="#aH" id="aK" width="330.812" height="287.884" transform="translate(-87.25 21.328)"/><use xlink:href="#aI" id="aL" width="330.812" height="287.884" transform="translate(-87.25 21.328)"/><use xlink:href="#aJ" id="aM" width="330.812" height="287.884" transform="translate(9.695 21.328)"/><use xlink:href="#aK" id="aN" width="330.812" height="287.884" transform="translate(9.695 21.328)"/><use xlink:href="#aL" id="aO" width="330.812" height="287.884" transform="translate(9.695 21.328)"/><use xlink:href="#aM" id="aP" width="330.812" height="287.884" transform="translate(7.756 21.328)"/><use xlink:href="#aN" id="aQ" width="330.812" height="287.884" transform="translate(7.756 21.328)"/><use xlink:href="#aO" id="aR" width="330.812" height="287.884" transform="translate(7.756 21.328)"/><use xlink:href="#aP" id="aS" width="330.812" height="287.884" transform="translate(-46.534 13.572)"/><use xlink:href="#aQ" id="aT" width="330.812" height="287.884" transform="translate(-46.534 13.572)"/><use xlink:href="#aR" id="aU" width="330.812" height="287.884" transform="translate(-46.534 13.572)"/><use xlink:href="#aS" id="aV" width="330.812" height="287.884" transform="translate(116.334 -11.633)"/><use xlink:href="#aT" id="aW" width="330.812" height="287.884" transform="translate(116.334 -11.633)"/><use xlink:href="#aU" id="aX" width="330.812" height="287.884" transform="translate(116.334 -11.633)"/><use xlink:href="#aV" id="aY" width="330.812" height="287.884" transform="translate(70.846 -3.878)"/><use xlink:href="#aW" id="aZ" width="330.812" height="287.884" transform="translate(70.846 -3.878)"/><use xlink:href="#aX" id="ba" width="330.812" height="287.884" transform="translate(70.846 -3.878)"/><use xlink:href="#aY" width="330.812" height="287.884" transform="translate(48.473 13.572)"/><use xlink:href="#aZ" width="330.812" height="287.884" transform="translate(48.473 13.572)"/><use xlink:href="#ba" width="330.812" height="287.884" transform="translate(48.473 13.572)"/><use xlink:href="#s" width="330.812" height="287.884" transform="translate(-52.35 31.022)"/><use xlink:href="#t" width="330.812" height="287.884" transform="translate(-52.35 31.022)"/><use xlink:href="#u" width="330.812" height="287.884" transform="translate(-52.35 31.022)"/></g><path fill="none" d="M126.979 99.06c32.474-10.037 72.501-15.49 98.934-15.055 25.426.219 64.446 6.982 97.424 15.055"/><path fill="#ff0" stroke="#250" stroke-width=".5" d="m145.98 72.412 1.89 7.096-.588.157q-1.405-2.6-3.611-3.598t-4.501-.385a6.3 6.3 0 0 0-3.224 2.04 6.65 6.65 0 0 0-1.572 3.506q-.345 2.535.4 5.327.733 2.748 2.029 4.82t3.083 2.833q1.787.76 4.143.133 1.932-.515 3.315-1.789t2.613-3.817l.47 1.766q-1.242 2.256-2.891 3.56t-4.14 1.969q-3.277.872-6.171.237t-4.931-2.729a10.9 10.9 0 0 1-2.778-4.87q-.78-2.93.052-5.965c.832-3.035 1.572-3.75 3.05-5.179q2.22-2.143 5.148-2.924 2.159-.575 4.81-.279 1.533.174 1.91.073.484-.129.744-.578.26-.45.16-1.247zm15.342-2.948q4.935-1.147 8.638 1.333 3.705 2.48 4.602 7.114.768 3.958-.965 7.413-2.295 4.583-7.894 5.669-5.614 1.087-9.42-2.121-3.006-2.537-3.806-6.663-.898-4.632 1.654-8.334 2.554-3.703 7.19-4.41zm.374.946q-2.852.554-3.776 3.756-.747 2.628.121 7.107 1.032 5.323 3.397 7.507 1.65 1.525 3.996 1.071 1.58-.306 2.49-1.278 1.159-1.244 1.493-3.545.334-2.3-.339-5.767-.8-4.127-1.964-6.026c-1.164-1.899-1.614-2.103-2.516-2.512q-1.353-.613-2.902-.313zm23.198 7.116.766 5.888q.22 1.704.488 2.119.267.414.828.61.56.194 2.002.007l.074.573-10.753 1.398-.075-.573q1.457-.189 1.94-.528.484-.34.637-.8.154-.462-.069-2.165l-1.772-13.636q-.222-1.704-.488-2.118-.267-.415-.828-.61-.562-.195-2.002-.007l-.075-.574 9.762-1.269q3.811-.495 5.646-.198a5.67 5.67 0 0 1 3.135 1.57q1.3 1.273 1.548 3.178.302 2.325-1.174 4.06-.945 1.1-2.803 1.83l5.976 6.456q1.17 1.25 1.634 1.536a2.65 2.65 0 0 0 1.54.336l.075.573-6.617.86-8.016-8.695zm-1.34-10.304 1.197 9.204.883-.115q2.154-.28 3.172-.814 1.017-.534 1.496-1.644.478-1.11.262-2.768-.312-2.402-1.584-3.402t-3.768-.676zm28.217-4.256q5.044-.472 8.38 2.484t3.603 7.668q.228 4.024-1.954 7.216-2.89 4.232-8.585 4.555-5.709.323-9.048-3.37-2.638-2.917-2.876-7.114-.267-4.711 2.761-8.036 3.03-3.325 7.719-3.403zm.244.988q-2.902.165-4.247 3.214-1.096 2.504-.837 7.059.307 5.412 2.356 7.895 1.428 1.734 3.815 1.6 1.607-.092 2.64-.933 1.316-1.075 1.956-3.31t.44-5.761q-.237-4.197-1.135-6.235-.898-2.04-2.155-2.828-1.258-.79-2.833-.7zm22.422-1.068 9.834 13.61.422-9.1q.087-1.904-.427-2.6-.708-.94-2.473-.99l.027-.578 6.992.324-.026.577q-1.35.11-1.824.362-.473.252-.759.856-.286.605-.355 2.103l-.816 17.622-.531-.025-13.497-18.284-.623 13.454q-.084 1.827.721 2.505a3.06 3.06 0 0 0 1.882.728l.5.024-.027.577-7.507-.348.026-.577q1.75.065 2.468-.605.72-.67.798-2.357l.691-14.937-.426-.583q-.633-.873-1.135-1.163-.502-.288-1.47-.365l.028-.577zm28.119 17.674-7.427-.928-1.14 1.936q-.562.969-.645 1.636-.11.884.55 1.391.39.3 2.016.63l-.071.574-6.993-.874.072-.574q1.153-.03 1.978-.705.825-.677 2.194-2.946l9.616-15.837.295.037 5.427 18.189q.78 2.585 1.398 3.308.467.546 1.418.744l-.071.573-10.171-1.27.071-.574.419.052q1.225.153 1.764-.126.372-.205.43-.67a2 2 0 0 0-.022-.586q-.013-.143-.32-1.22zm-.384-1.214-2.227-7.631-4.13 6.837zm9.784 8.536.099-.57.692.12q.909.157 1.443-.045.534-.201.85-.654.195-.3.474-1.916l2.37-13.734q.276-1.602.175-2.031-.1-.43-.564-.819-.464-.39-1.342-.54l-.692-.12.098-.57 9.346 1.613q3.742.645 5.845 2.055 2.572 1.728 3.576 4.501t.454 5.961q-.38 2.202-1.408 3.935t-2.361 2.748a9.1 9.1 0 0 1-2.93 1.493q-1.597.478-3.79.511-.972.023-2.988-.325zm11.359-18.32-2.811 16.29q-.224 1.294-.15 1.608.072.315.338.518.376.303 1.161.438 2.572.444 4.23-1.077 2.256-2.053 3.117-7.042.693-4.019-.155-6.638-.675-2.052-2.13-3-1.026-.669-3.6-1.097zm27.553 3.715q4.991.863 7.438 4.59t1.471 8.344q-.833 3.944-3.775 6.452-3.897 3.33-9.477 2.15-5.595-1.181-7.852-5.619-1.782-3.506-.913-7.619.976-4.617 4.768-7.034 3.792-2.415 8.34-1.264zm-.024 1.017q-2.843-.6-4.94 1.99-1.711 2.13-2.654 6.595-1.121 5.304.208 8.236.924 2.048 3.264 2.542 1.575.333 2.79-.209 1.552-.694 2.755-2.684 1.204-1.988 1.933-5.444.87-4.113.536-6.315t-1.34-3.293q-1.007-1.091-2.552-1.418z" font-family="Times New Roman" font-size="32" font-weight="700" letter-spacing="0" style="line-height:125%;-inkscape-font-specification:Sans Bold" word-spacing="0"/><g fill="#ff0" stroke="#250" font-family="Times New Roman" font-weight="700" letter-spacing="0" word-spacing="0"><path stroke-width=".5" d="M140.226 224.333v4.763h-.468q-.415-1.648-.92-2.362-.507-.728-1.39-1.155-.493-.234-1.726-.234h-1.31v13.575q0 1.35.142 1.687.156.338.584.597.443.247 1.194.247h.584v.48h-9.214v-.48h.584q.766 0 1.233-.273.337-.182.532-.623.143-.312.143-1.635v-13.575h-1.272q-1.778 0-2.582.753-1.13 1.05-1.428 2.998h-.493v-4.763h15.807" font-size="26.578" style="line-height:125%;-inkscape-font-specification:Sans Bold"/><path stroke-width=".475" d="M146.922 235.282v4.283q0 1.06.112 1.326.123.264.46.469.346.193.927.193h.459v.378h-7.23v-.378h.46q.6 0 .968-.214.266-.142.408-.49.112-.243.112-1.284v-9.095q0-1.061-.112-1.326-.113-.265-.459-.459-.336-.204-.918-.204h-.459v-.377h7.23v.377h-.459q-.602 0-.969.214-.264.144-.418.49-.112.244-.112 1.285v3.915h4.884v-3.915q0-1.061-.112-1.326-.113-.265-.459-.459-.345-.204-.928-.204h-.448v-.377h7.219v.377h-.449q-.611 0-.968.214-.265.144-.418.49-.113.244-.113 1.285v9.095q0 1.06.113 1.326.111.264.458.469.347.193.928.193h.449v.378h-7.22v-.378h.45q.61 0 .968-.214.265-.142.418-.49.112-.243.112-1.284v-4.283h-4.884m16.213-6.382v5.628h.275q1.316 0 1.907-.826t.754-2.437h.388v7.24h-.388q-.122-1.183-.52-1.938-.387-.755-.907-1.01-.52-.264-1.51-.264v3.895q0 1.142.093 1.397.102.255.367.418.264.163.856.163h.826q1.938 0 3.1-.897 1.173-.898 1.682-2.733h.378l-.622 4.395h-11.95v-.378h.458q.601 0 .969-.214.264-.142.408-.49.112-.243.112-1.284v-9.095q0-.939-.051-1.153a.98.98 0 0 0-.378-.55q-.387-.286-1.06-.286h-.459v-.377h11.573v4.089h-.387q-.296-1.5-.836-2.152-.53-.652-1.51-.958-.57-.184-2.14-.184h-1.428" font-size="20.883" style="line-height:125%;-inkscape-font-specification:Sans Bold"/><path stroke-width=".5" d="M194.355 223.93v6.1h-.506q-.57-2.388-2.128-3.66-1.558-1.27-3.53-1.271a5.2 5.2 0 0 0-3.024.947 5.5 5.5 0 0 0-2.012 2.479q-.817 1.96-.817 4.36 0 2.362.597 4.309.596 1.934 1.869 2.933 1.27.986 3.296.986 1.661 0 3.037-.727 1.388-.726 2.92-2.504v1.518q-1.48 1.545-3.09 2.245-1.595.688-3.737.688-2.816 0-5.009-1.13a8.03 8.03 0 0 1-3.374-3.243 9.1 9.1 0 0 1-1.181-4.504q0-2.517 1.31-4.775 1.324-2.259 3.557-3.504a9.67 9.67 0 0 1 4.762-1.246q1.856 0 3.92.804 1.193.468 1.518.468.415 0 .714-.299.31-.311.402-.973h.506" font-size="26.578" style="line-height:125%;-inkscape-font-specification:Sans Bold"/><path stroke-width=".475" d="M201.368 235.63v3.874q0 1.122.133 1.417.142.286.49.46.345.172 1.294.172v.378h-7.076v-.378q.958 0 1.295-.173.346-.184.48-.469.142-.286.142-1.407v-8.973q0-1.122-.143-1.407-.132-.296-.479-.47-.347-.173-1.295-.173v-.377h6.424q2.508 0 3.67.347 1.164.346 1.897 1.284.735.929.734 2.183 0 1.53-1.1 2.528-.705.633-1.969.949l3.324 4.68q.653.907.928 1.132.418.316.969.346v.378h-4.354l-4.456-6.302h-.908m0-6.78v6.056h.582q1.418 0 2.12-.255a2.12 2.12 0 0 0 1.102-.938q.408-.683.408-1.774 0-1.58-.745-2.335-.735-.755-2.375-.755h-1.092m17.61-.938q3.304-.122 5.364 1.927 2.07 2.05 2.07 5.13 0 2.63-1.54 4.629-2.04 2.65-5.761 2.65-3.732 0-5.772-2.528-1.61-1.998-1.61-4.741 0-3.08 2.09-5.13 2.1-2.058 5.16-1.937m.121.653q-1.896 0-2.885 1.937-.806 1.59-.806 4.568 0 3.54 1.244 5.231.867 1.183 2.427 1.183 1.05 0 1.754-.51.897-.652 1.397-2.08.5-1.437.5-3.742 0-2.743-.51-4.1-.51-1.365-1.306-1.926-.785-.561-1.815-.561m28.745-.459v.377q-.388.03-.653.214-.265.185-.469.561-.06.123-.642 1.58l-4.334 11.41h-.397l-3.427-8.911-3.772 8.912h-.378l-4.547-11.288q-.694-1.703-.969-2.06t-.928-.418v-.377h5.996v.377q-.725.021-.969.225a.6.6 0 0 0-.234.49q0 .387.5 1.64l2.712 6.71 2.171-5.24-.57-1.47q-.47-1.202-.725-1.6-.255-.408-.591-.581-.326-.174-.969-.174v-.377h6.7v.377q-.705.011-1.01.112a.65.65 0 0 0-.336.245.6.6 0 0 0-.123.377q0 .235.46 1.438l2.518 6.546 2.253-5.924q.357-.918.439-1.254a2.7 2.7 0 0 0 .081-.622q0-.418-.285-.653-.285-.244-1.091-.265v-.377h3.589m5.384 0 6.821 8.575v-5.944q0-1.244-.357-1.683-.489-.591-1.641-.57v-.378h4.568v.377q-.878.113-1.183.296-.296.174-.47.581-.162.397-.162 1.377v11.512h-.347l-9.35-11.512v8.79q0 1.193.54 1.61a2.02 2.02 0 0 0 1.254.418h.327v.378h-4.905v-.378q1.142-.01 1.59-.469.45-.459.45-1.56v-9.758l-.296-.367q-.439-.55-.775-.724-.337-.173-.969-.194v-.377h4.905" font-size="20.883" style="line-height:125%;-inkscape-font-specification:Sans Bold"/><path stroke-width=".5" d="M286.08 223.93v6.1h-.506q-.57-2.388-2.128-3.66-1.557-1.27-3.53-1.271a5.2 5.2 0 0 0-3.024.947 5.5 5.5 0 0 0-2.011 2.479q-.818 1.96-.818 4.36 0 2.362.597 4.309.597 1.934 1.869 2.933 1.272.986 3.296.986 1.662 0 3.037-.727 1.389-.726 2.92-2.504v1.518q-1.48 1.545-3.089 2.245-1.596.688-3.737.688-2.816 0-5.01-1.13a8.03 8.03 0 0 1-3.374-3.243 9.1 9.1 0 0 1-1.18-4.504q0-2.517 1.31-4.775 1.323-2.259 3.556-3.504a9.67 9.67 0 0 1 4.763-1.246q1.855 0 3.919.804 1.194.468 1.518.468.416 0 .714-.299.312-.311.402-.973h.506" font-size="26.578" style="line-height:125%;-inkscape-font-specification:Sans Bold"/><path stroke-width=".475" d="M295.194 241.553v.378h-7.23v-.378h.46q.601 0 .968-.214.266-.142.408-.49.112-.243.112-1.284v-9.095q0-1.061-.112-1.326-.111-.265-.459-.459-.336-.204-.917-.204h-.46v-.377h7.23v.377h-.459q-.6 0-.968.214-.265.144-.418.49-.112.244-.112 1.285v9.095q0 1.06.112 1.326.121.264.459.469.346.193.927.193h.46m13.642-13.449v3.742h-.367q-.325-1.295-.724-1.856a2.77 2.77 0 0 0-1.09-.907q-.388-.184-1.357-.184h-1.03v10.666q0 1.06.113 1.326.122.264.458.469.347.193.938.193h.46v.378h-7.24v-.378h.459q.6 0 .968-.214.265-.142.418-.49.112-.243.112-1.284V228.9h-.999q-1.397 0-2.029.592-.887.826-1.122 2.355h-.387v-3.742h12.42m15.621-.001v.377q-.684.093-1.05.398-.51.429-1.612 2.335l-2.997 5.007v3.344q0 1.071.112 1.336.112.255.438.459.337.193.887.193h.775v.378h-7.76v-.378h.725q.61 0 .968-.214.265-.142.418-.49.112-.243.112-1.284v-2.773l-3.252-5.925q-.968-1.753-1.367-2.06-.397-.315-1.06-.326v-.377h6.628v.377h-.296q-.601 0-.846.174-.235.173-.235.367 0 .367.816 1.845l2.498 4.579 2.488-4.17q.928-1.53.928-2.03 0-.275-.265-.459-.346-.255-1.275-.306v-.377h4.222" font-size="20.883" style="line-height:125%;-inkscape-font-specification:Sans Bold"/></g></svg>