<svg xmlns="http://www.w3.org/2000/svg" width="650" height="500"><path fill="#8ab9fd" d="M0 .003h650V500H0z"/><path fill="#809101" d="M433.332.003H650V500H433.332z"/><path fill="#fff" d="M628 250a86.328 86.328 0 1 1-172.656 0A86.328 86.328 0 1 1 628 250"/><path fill="#809101" fill-rule="evenodd" d="M328.17 409.49h-6.34v-89.802c0-7.725-4.6-12.05-9.59-14.628s-13.247-2.994-17.206-2.439c-14.378 2.015-23.914-1.215-37.093-9.7-10.941-7.044-23.959-25.677-28.125-35.812l1.736-1.945c6.944 3.241 17.017 2.131 25.694 1.945 18.754-.403 30.774 10.306 38.542 26.163 4.27 8.715 10.56 14.647 17.796 17.41 5.264 2.01 8.246-.41 8.246-3.536v-48.82c0-2.983-.004-6.98-6.181-12.171s-15.893-10.97-26.458-10.866c-13.277.131-29.956-9.356-36.98-15.38-6.712-5.757-20.312-21.625-22.743-34.471l1.303-1.15c9.143 5.01 21.407 1.825 32.726 3.978 16.749 3.187 30.028 13.256 37.5 31.467 3.408 8.306 7.404 16.653 14.93 19.177 2.139.717 5.903-.372 5.903-5.126v-28.547c0-5.266-.468-11.857-2.976-16.389-4.685-8.463-10.888-23.019-11.566-30.308-1.344-14.438-.466-20.97 4.212-32.04 5.322-12.597 10.5-23.583 12.5-36.75l3.159-.823c13.167 22.166 20.96 45.119 18.091 70.823-1.371 12.287-9.298 22.2-14.415 32.368-1.938 3.851-2.665 8.38-2.665 13.119v28.547c0 4.754 3.764 5.843 5.902 5.126 7.527-2.524 11.523-10.871 14.931-19.177 7.472-18.211 20.751-28.28 37.5-31.467 11.319-2.153 23.583 1.032 32.726-3.977l1.303 1.149c-2.431 12.846-16.03 28.714-22.744 34.471-7.023 6.024-23.702 15.511-36.98 15.38-10.564-.104-20.279 5.675-26.457 10.866-6.177 5.19-6.181 9.188-6.181 12.17v48.821c0 3.125 2.982 5.546 8.246 3.536 7.236-2.763 13.526-8.695 17.796-17.41 7.768-15.857 19.788-26.566 38.542-26.163 8.677.186 18.75 1.296 25.694-1.945l1.736 1.945c-4.166 10.135-17.184 28.768-28.125 35.812-13.179 8.485-22.715 11.715-37.093 9.7-3.96-.555-12.215-.14-17.206 2.439-4.99 2.578-9.59 6.903-9.59 14.628z"/><path fill="#552501" d="M232.126 409.464v-36.69h21.446v8.895H244.2v5.303h8.216v8.645H244.2v13.847zm39.345-29.076v8.745q2.463-.05 3.59-1.08 1.127-1.055 1.127-3.293 0-2.185-1.068-3.267-1.068-1.105-3.174-1.105zm-12.103 29.076v-36.69h13.913q7.06 0 11.123 3.04 4.064 3.04 4.064 8.268 0 3.216-1.839 5.504-1.809 2.261-5.458 3.618l8.573 16.26H276.93l-5.458-14.199v14.2zm35.49 0v-36.692h21.506v8.896h-9.344v4.675h8.424v8.594h-8.424v5.052h9.344v9.474zm38.592-12.19q2.49 1.734 4.58 2.638 2.12.905 3.694.905 1.403 0 2.29-.729.917-.729.917-1.834 0-1.308-3.035-3.82l-.115-.1q-5.239-4.248-6.728-6.585-1.49-2.337-1.489-5.051 0-4.65 3.58-7.64 3.606-3.015 9.247-3.016 2.205 0 4.552.528 2.376.528 4.896 1.583v9.525q-2.09-1.457-3.922-2.187-1.833-.753-3.35-.753-1.317 0-2.119.628-.802.603-.801 1.583 0 1.407 3.006 3.468.228.176.343.251 5.21 3.669 6.757 6.057 1.546 2.362 1.546 5.579 0 5.378-3.865 8.645-3.865 3.242-10.25 3.242a17.5 17.5 0 0 1-4.838-.679q-2.377-.678-4.896-2.11zm28.007 12.188v-36.69h11.624l6.442 19.3v-19.3h10.593v36.69h-11.48l-6.5-18.37v18.37zm44.728-18.572q0 5.73.859 7.841.858 2.086 3.006 2.086 2.118 0 2.949-2.06.86-2.086.859-7.867 0-5.78-.859-7.866-.831-2.085-2.949-2.085-2.148 0-3.006 2.11-.86 2.112-.86 7.841m-11.795.252q0-9.098 4.094-14.099 4.123-5 11.567-5 7.415 0 11.481 5 4.094 4.976 4.094 14.099 0 9.098-4.065 14.073-4.065 4.976-11.51 4.976-7.473 0-11.567-4.976-4.095-5.001-4.094-14.073" font-family="Futura XBlkCn BT" font-size="55.917" font-stretch="condensed" font-weight="400"/><path fill="#faca01" fill-rule="evenodd" d="M595.551 250.011c5.367-3.756 10.906-5.524 17.506-5.878-4.98-3.86-12.876-7.807-19.339-8.067 4.212-5.018 9.104-8.159 15.388-10.209-5.809-2.439-14.458-4.209-20.768-2.787 2.77-5.937 6.683-10.237 12.221-13.843-6.242-.853-15.054-.324-20.78 2.682 1.138-6.45 3.804-11.617 8.221-16.534-6.25.792-14.625 3.583-19.379 7.97-.57-6.526.669-12.207 3.662-18.1-5.832 2.383-13.199 7.247-16.655 12.714-2.24-6.156-2.514-11.963-1.147-18.43-5.017 3.81-10.874 10.416-12.776 16.634-3.779-5.409-5.546-10.948-5.9-17.548-3.86 4.98-7.808 12.876-8.067 19.339-5.018-4.212-8.16-9.105-10.209-15.388-2.44 5.809-4.209 14.457-2.787 20.768-5.937-2.77-10.237-6.683-13.843-12.222-.853 6.242-.324 15.055 2.682 20.782-6.45-1.139-11.617-3.805-16.534-8.222.792 6.25 3.583 14.625 7.97 19.379-6.526.57-12.207-.669-18.1-3.663 2.383 5.833 7.247 13.2 12.714 16.656-6.156 2.24-11.964 2.514-18.43 1.147 3.81 5.017 10.416 10.874 16.634 12.776-5.41 3.778-10.948 5.546-17.548 5.9 4.98 3.86 12.875 7.807 19.339 8.067-4.212 5.018-9.105 8.159-15.388 10.209 5.809 2.439 14.457 4.209 20.767 2.787-2.769 5.937-6.682 10.237-12.22 13.843 6.241.853 15.053.324 20.78-2.682-1.138 6.45-3.805 11.617-8.221 16.534 6.25-.792 14.625-3.583 19.379-7.97.57 6.526-.669 12.207-3.663 18.1 5.832-2.383 13.2-7.247 16.656-12.714 2.24 6.156 2.514 11.963 1.147 18.43 5.017-3.81 10.874-10.416 12.776-16.634 3.778 5.409 5.546 10.948 5.9 17.548 3.86-4.98 7.807-12.876 8.067-19.339 5.018 4.212 8.159 9.105 10.208 15.388 2.44-5.809 4.21-14.457 2.788-20.768 5.937 2.77 10.237 6.683 13.843 12.222.853-6.242.324-15.055-2.683-20.782 6.452 1.139 11.618 3.805 16.535 8.222-.792-6.25-3.583-14.625-7.97-19.379 6.526-.57 12.207.669 18.1 3.663-2.383-5.833-7.247-13.2-12.715-16.656 6.156-2.24 11.964-2.514 18.43-1.147-3.81-5.017-10.415-10.874-16.59-12.798z"/><path fill="#552501" d="M0 .003h216.672V500H0z"/><path fill="#fbffff" d="M102.969 168.781v7.563c-2.895.208-5.77.53-8.563 1.062l-1.906-7.25-10.344 2.781 1.969 7.282a74 74 0 0 0-8 3.312L72.375 177l-9.313 5.344 3.75 6.469c-2.381 1.619-4.609 3.433-6.78 5.312l-5.344-5.344-7.563 7.563 5.344 5.344c-1.883 2.174-3.69 4.427-5.313 6.812l-6.468-3.75-5.376 9.281 6.563 3.75c-1.251 2.574-2.393 5.24-3.344 7.969l-7.25-1.938-2.781 10.344 7.25 1.906c-.537 2.812-.885 5.68-1.094 8.594h-7.531v10.719h7.531c.21 2.904.559 5.76 1.094 8.563l-7.25 1.906 2.781 10.344 7.25-1.938c.95 2.73 2.093 5.395 3.344 7.969l-6.563 3.75 5.376 9.281 6.468-3.75c1.62 2.38 3.403 4.643 5.282 6.813l-5.313 5.343 7.563 7.563 5.343-5.344c2.172 1.88 4.4 3.693 6.782 5.313l-3.75 6.468L72.374 323l3.75-6.531a74 74 0 0 0 8 3.312l-1.969 7.281 10.344 2.782 1.906-7.25c2.793.532 5.668.854 8.563 1.062v7.563h10.719v-7.531c2.898-.209 5.766-.56 8.562-1.094l1.906 7.25 10.344-2.781-1.969-7.282a74 74 0 0 0 8-3.312l3.75 6.531 9.313-5.344-3.75-6.469c2.381-1.619 4.61-3.433 6.781-5.312l5.344 5.344 7.562-7.563-5.344-5.344c1.884-2.174 3.69-4.427 5.313-6.812l6.469 3.75 5.375-9.281-6.563-3.75c1.251-2.574 2.394-5.24 3.344-7.969l7.25 1.938 2.781-10.344-7.25-1.906c.536-2.802.885-5.66 1.094-8.563h7.531v-10.719H182c-.209-2.914-.557-5.782-1.094-8.594l7.25-1.906-2.781-10.344-7.25 1.938c-.95-2.73-2.093-5.395-3.344-7.969l6.563-3.75-5.375-9.281-6.469 3.75c-1.619-2.38-3.403-4.643-5.281-6.813l5.312-5.343-7.562-7.563-5.344 5.344c-2.172-1.88-4.4-3.693-6.781-5.313l3.75-6.468L144.28 177l-3.75 6.531a74 74 0 0 0-8-3.312l1.969-7.281-10.344-2.782-1.906 7.25a74 74 0 0 0-8.563-1.094v-7.53H102.97zm5.344 34.281c25.9 0 46.937 21.037 46.937 46.938 0 25.9-21.037 46.906-46.938 46.906-25.9 0-46.906-21.005-46.906-46.906 0-25.9 21.006-46.938 46.907-46.938"/></svg>