<svg xmlns="http://www.w3.org/2000/svg" width="880" height="510"><path fill="#fff" d="M0 0h880v510H0z"/><path fill="#0e720e" fill-rule="evenodd" stroke="#0e720e" stroke-width=".09" d="M527.126 176.441c-56.385 0-102.915 36.966-109.413 84.582h9.297c6.466-44.959 50.527-79.779 103.867-79.779s97.4 34.82 103.867 79.78h1.795c-6.498-47.617-53.028-84.583-109.413-84.583z" transform="matrix(1.87376 0 0 1.94637 -547.7 -190.218)"/><g fill="#0e720e"><path d="M255.907 316.152c-.115-.05-.206-.233-.203-.405s.1-.39.218-.485 1.97-1.053 4.116-2.131c4.773-2.397 5.81-2.953 8.453-4.528 2.718-1.62 10.712-6.984 13.308-8.93 4.378-3.143 8.572-6.539 12.77-9.934 7.303-5.887 14.193-12.301 20.978-18.819 4.714-4.595 6.26-5.97 10.393-9.248 5.458-4.328 7.918-6.025 15.167-10.464 4.05-2.481 13.09-7.035 17.617-8.875 3.64-1.48 10.496-3.655 12.432-3.944a38 38 0 0 0 2.026-.404c1.947-.438 3.008-.37 2.636.169-.065.094-1.646.998-3.514 2.009-3.644 1.972-9.405 5.75-13.793 9.045-2.523 1.757-4.907 3.696-7.315 5.61-1.412 1.03-5.85 4.63-7.164 5.81a581 581 0 0 0-10.67 9.257c-3.131 2.765-9.372 8.783-15.221 14.678-8.138 8.2-14.287 13.363-21.067 17.684-3.176 2.013-6.296 4.12-9.531 6.03-3.048 1.965-6.506 3.1-9.691 4.753-2.703 1.128-5.54 1.845-8.37 2.54-1.737.427-7.141.815-10.339.743-1.665-.038-3.121-.11-3.236-.16zm63.679 1.136c-2.713-.088-3.34-.155-3.512-.377-.294-.382-.041-.566 1.037-.756.508-.09 2.369-.621 4.136-1.181 5.71-1.81 10.536-4.54 18.175-10.28 2.625-1.971 4.817-3.723 6.224-4.972.705-.626 1.684-1.454 2.176-1.84s1.484-1.228 2.205-1.87c7.37-6.257 13.993-13.372 21.087-19.948 3.276-2.974 8.527-7.946 12.043-11.403 4.254-4.169 8.88-8.352 13.057-12.171 4.177-3.82 7.544-6.912 11.738-11.052s10.286-9.785 13.929-13.212c3.642-3.426 5.392-4.76 8.114-7.106 5.652-5.428 11.61-8.55 18.451-11.719 2.688-1.322 9.064-2.549 12.885-2.48 5.644.103 11.512 2.482 15.343 6.22.652.637 1.469 1.383 1.815 1.659.648.515.947 1.11.689 1.369-.082.082-.85-.098-1.734-.406-6.343-2.208-13.587-2.522-19.417-.84-3.629 1.047-9.127 4.229-13.252 7.669-7.013 6.872-6.491 6.245-20.9 20.787-6.466 7.186-11.249 10.83-29.148 27.976-17.766 17.02-13.372 13.695-25.22 24.521-11.974 10.941-11.715 9.684-15.34 12.414-2.183 1.644-2.78 2.015-5.356 3.33a216 216 0 0 0-3.48 1.816c-.746.403-2.347 1.028-3.556 1.39s-2.405.736-2.659.832c-.917.349-4.332.994-7.22 1.365-3.13.401-6.124.466-12.31.265"/><path d="M285.756 316.524c-.218-.234.25-.735.778-.834 1.09-.203 3.258-1.063 6.07-2.407 4.68-2.236 7.11-3.753 11.888-7.414 4.392-3.322 8.782-6.638 13.04-10.143 6.566-5.325 12.656-11.232 19.042-16.78 18.472-16.967 35.851-35.154 54.21-52.26 5.236-4.507 10.284-9.212 15.24-14.047 6.586-6.437 13.208-11.412 18.294-13.741 2.222-1.018 8.723-2.496 12.745-2.897a87.4 87.4 0 0 1 13.468-.545c4.861.325 9.186 1.268 11.399 2.484 1.272.7 4.353 3.577 4.27 3.989-.071.36-.943.426-1.953.15-5.277-1.325-10.5-1.306-15.839-.444-4.228.76-8.864 2.326-12.436 4.202-7.872 3.966-14.014 10.57-20.644 16.351-6.11 5.069-11.642 10.815-17.505 16.175a1660 1660 0 0 0-18.595 17.763c-3.174 3.042-7.648 7.43-9.942 9.752l-9.76 9.889c-4.717 4.9-9.76 9.435-14.64 14.152-2.552 2.486-4.088 3.884-8.372 7.617-4.161 3.626-9.377 7.694-13.297 10.37-3.61 2.478-7.575 4.37-11.625 5.93a54.3 54.3 0 0 1-15.278 2.804c-3.497.14-10.391.064-10.558-.116"/></g><path fill="#1ada1a" d="M350.139 317.844c-.835-.1-1.172-.361-.897-.693a.72.72 0 0 1 .499-.23c.604.011 4.222-.974 6.352-1.729 2.674-.947 6.459-2.807 9.018-4.43 2.188-1.387 2.593-1.688 7.863-5.828 3.489-2.59 6.767-5.465 10.074-8.297 7.543-6.178 14.985-12.489 22.11-19.185a659 659 0 0 0 25.586-25.123c8.265-8.473 16.44-17.054 25.206-24.976 1.814-1.534 5.387-4.105 6.908-4.973 4.922-2.808 10.82-3.736 15.71-2.472 2.628.679 5.085 1.776 7.25 3.237 1.595 1.078 4.567 3.534 4.563 3.773-.008.393-.429.438-1.29.138-2.6-.906-8.432-1.364-10.872-.855-3.422.715-5.076 1.2-7.379 2.163-7.408 3.268-13.65 8.788-18.846 15.088-6.78 8.223-13.918 16.143-21.267 23.82-7.457 7.708-14.862 15.451-22.523 22.942-7.285 7.116-9.902 9.455-16.548 14.79-5.11 4.101-6.813 5.346-12.156 8.887-1.753 1.162-6.38 2.644-10.003 3.202-3.1.64-6.228.778-9.379.807l-6.786.017c-1.388.004-2.825-.028-3.193-.072zm38.741-.493c-.286-.308.262-.64 1.805-1.089 3.02-.88 5.546-1.83 7.983-3.008 3.93-1.897 5.883-3.31 13.994-10.118 1.828-1.534 9.938-9.548 13.567-13.406 5.445-5.789 7.479-7.926 8.91-9.362 3.217-3.23 10.542-10.95 12.549-13.226 5.911-6.704 14.497-15.567 21.029-21.708 7.735-7.272 9.975-9.04 14.052-11.096 4.565-2.456 9.744-3 14.754-1.969 2.59.778 2.762.863 7.05 3.477.829.505 1.29.895 1.286 1.088-.008.4-.256.46-1.172.286-.421-.08-1.811-.169-3.09-.198-3.137-.102-6.264.753-9.204 1.84-9.114 2.225-14.199 8.187-20.964 14.538-8.416 9.197-10.372 11.662-19.66 21.46-5.542 6.543-13.814 15.926-19.787 22.054-7.92 7.815-11.07 10.648-14.606 13.138-2.869 2.019-5.155 3.116-9.478 4.547-4.394 1.455-7.683 2.16-12.663 2.716-1.87.209-6.171.233-6.355.036m36.458.049c-.19-.334.477-.777 1.882-1.248 7.097-2.381 16.686-10.48 29.781-25.155 7.245-8.101 14.416-16.273 21.61-24.424 6.151-7.012 13.888-13.847 19.98-17.653 5.01-2.886 10.884-5.51 16.739-4.589 2.736.458 4.757 1.195 7.268 2.652 2.313 1.342 2.65 1.652 2.234 2.05-.218.21-.44.206-1.595-.026-3.49-.7-5.011-.754-8.827-.318-4.046.462-7.646 1.82-11.569 4.365-3.706 2.403-6.16 4.582-10.19 9.048-3.455 3.755-6.857 7.562-10.28 11.349-4.97 5.496-9.827 11.1-14.65 16.735-3.018 3.56-13.394 14.417-16.806 17.587-4.079 3.79-7.2 5.718-11.54 7.127-1.406.404-2.725 1.108-4.165 1.384-1.68.371-3.35.712-5.062.874-1.066.083-2.43.216-3.034.296-1.422.187-1.642.18-1.776-.054"/><path fill="#ce9812" d="M457.406 316.997c-1.398-.196-.965-.637 1.222-1.246 2.354-.655 3.651-1.184 5.397-2.204 3.574-2.087 6.085-3.867 9.667-6.85 2.954-2.461 8.801-8.279 11.13-11.074 8.623-10.019 16.88-20.373 25.69-30.216 4.132-4.581 6.865-7.005 9.782-8.672 3.266-1.868 8.263-2.824 12.78-2.445 2.85.239 7.39 1.543 8.034 2.307.388.463-.06.776-.888.62-3.44-.645-7.847-.698-9.998-.12-6.783 1.839-11.895 6.591-16.084 12.181-2.562 3.465-5.285 6.797-7.946 10.18-3.652 4.742-7.558 9.257-11.458 13.778-5.747 6.758-7.891 9.056-11.938 12.798-3.709 3.428-5.217 5.014-7.224 6.155-6.111 3.476-3.717 2.2-10.756 4.373-1.864.575-6.095.624-6.655.542zm33.739-.127c-.193-.336.045-.463 2.063-1.104 2.417-.768 7.106-3.061 9.3-4.549 4.982-3.378 7.234-5.61 12.445-12.338 2.09-2.703 4.202-5.385 6.29-8.089 4.142-5.376 7.028-8.971 8.873-11.056 2.619-3.122 5.348-6.138 8.342-8.877 4.48-3.652 8.057-5.653 13.908-5.965 4.442-.04 6.256.45 10.794 2.906 2.85 1.543 3.758 2.22 3.432 2.556-.157.162-.526.065-1.675-.441-3.74-1.65-9.646-2.111-13.63-1.065-4.356 1.315-8.438 3.556-11.78 6.733-2.556 2.476-4.043 4.288-8.782 10.702-5.064 6.853-8.072 10.808-9.898 13.015-2.573 3.11-9.035 9.615-11.017 11.092-2.69 2.003-6.54 4.034-9.39 4.951-4.13 1.33-8.936 2.122-9.275 1.53zm32.221.152c-.26-.337.15-.746 1.277-1.27 7.153-3.329 8.715-4.367 14.714-9.772 5.082-5.142 9.697-10.778 14.2-16.471 3.371-4.306 6.806-7.907 9.375-9.83 3.999-2.992 8.592-4.085 13.115-3.12 3.36.716 8.419 2.565 8.625 3.152.192.549-.254.556-1.726.028-5.76-2.067-12.394-1.38-17.016 1.763q-5.762 3.917-13.786 14.434c-1.903 2.489-3.917 4.88-5.751 7.424-.72 1.019-4.678 5.424-6.787 7.553-3.03 3.175-6.875 4.534-10.943 5.578-3.452.844-4.94.994-5.297.531"/><path fill="#dede4f" d="M554.735 317.508c-.16-.28.078-.634.643-.958 1.26-.724 4.027-2.591 5.063-3.417 1.965-1.569 4.917-5.015 7.217-8.427 3.754-5.569 8.427-10.627 12.065-13.06 2.466-1.649 5.676-3.056 7.529-3.3 3.276-.433 3.739-.436 5.745-.043 2.655.52 5.347 1.573 5.338 2.088-.007.434-.234.444-1.527.07-.928-.268-1.823-.37-3.524-.404-3.262-.063-5.264.45-8.984 2.302-2.948 1.468-4.286 2.45-8.5 6.244-4.518 3.545-6.972 8.956-10.681 13.24-1.71 1.84-5.794 4.445-8.34 5.32-1.593.547-1.899.599-2.044.345m50.805-.004c-.344-.272-.254-.38 1.474-1.769.408-.328 1.366-1.106 2.128-1.728 2.571-2.1 4.874-2.976 7.356-2.801 1.649.116 3.185.695 3.177 1.197-.004.238-.35.268-2.344.203-3.547-.118-5.167.502-8.435 3.225-.93.774-1.715 1.408-1.746 1.407s-.335.114-.676.255c-.515.213-.674.215-.933.01zm-23.717-.144c.002-.146.499-.666 1.103-1.158.604-.49 1.646-1.345 2.315-1.897s2.352-2.373 3.74-4.045c5.153-6.208 8.81-8.638 13.845-9.196 1.439-.16 2.036-.146 3.292.074 2.119.37 4.714 1.508 4.945 2.167.14.398-.154.47-.967.238-2.505-.716-3.034-.792-5.327-.762-2.077.026-2.525.092-3.995.582-1.887.63-3.8 1.622-5.332 2.765-1.387 1.034-5.538 5.276-6.704 6.85-1.06 1.433-1.88 2.215-3.412 3.255-1.877 1.275-3.514 1.801-3.503 1.126z"/><path fill="#0e720e" d="M239.379 357.11q1.711 0 3.39-.235 1.68-.236 2.653-.669.435-.197.57-.393.168-.236.303-.747.135-.512.268-1.337.135-.826.235-1.573.1-.787.168-1.455a11 11 0 0 0 .067-.865q0-.59-.302-.59a.34.34 0 0 0-.302.157q-.068.158-.134.63-.101.589-.437 1.337a5.1 5.1 0 0 1-.705 1.258q-.973 1.298-2.383 1.77-1.377.432-3.76.432-1.746 0-3.626-.905-1.847-.905-3.425-2.673-1.578-1.77-2.551-4.405-.975-2.673-.974-6.016 0-3.225.672-5.78.704-2.556 2.417-4.404a7.2 7.2 0 0 1 2.652-1.809q1.545-.63 3.66-.629 2.249 0 4.095.708 1.88.668 2.72 1.73.603.747.94 1.73a6.3 6.3 0 0 1 .369 1.887q0 .866.336.866.369 0 .403-.905.033-.354.067-2.005 0-1.534.033-2.242a19 19 0 0 1 .135-1.69q.033-.355.033-.472 0-.433-.504-.472a29 29 0 0 1-1.645-.315q-1.14-.275-1.712-.354a30 30 0 0 0-2.35-.275 23 23 0 0 0-2.518-.118q-3.591 0-6.143 1.062a12.8 12.8 0 0 0-4.465 3.106 12.4 12.4 0 0 0-1.914 2.674q-.773 1.416-1.209 2.87-.435 1.455-.638 2.793a19 19 0 0 0-.167 2.437q0 3.264.94 6.253.939 2.988 3.223 5.347 2.216 2.243 5.069 3.264 2.853 1.023 6.446 1.022m14.865-11.953q0 3.617-.034 5.544a45 45 0 0 1-.134 3.028q-.167 1.77-.974 1.966a4.8 4.8 0 0 1-1.208.157q-.537 0-.537.315 0 .393.671.393.705 0 2.652-.079 1.31-.039 1.578-.039.47 0 1.545.04 2.282.078 3.692.078.638 0 .638-.393 0-.315-.537-.315-.403 0-.873-.04a14 14 0 0 0-.839-.117q-.705-.118-.974-.55-.268-.473-.369-1.377a45 45 0 0 1-.134-3.028v-18.56q0-1.297.067-2.28.067-1.062.302-1.573.269-.51.94-.669a5.4 5.4 0 0 1 1.007-.118q.537 0 .537-.393 0-.315-.705-.314c-.705.001-1.287.026-2.45.078a63 63 0 0 1-1.645.04q-.504 0-1.914-.04a69 69 0 0 0-2.45-.078q-.807 0-.806.314 0 .393.537.393.705 0 1.208.158 1.041.274 1.142 2.202.067.982.067 2.28zm19.612.001q0 3.499-.034 5.387a45 45 0 0 1-.134 2.988q-.1.984-.302 1.534-.202.51-.672.629a4.8 4.8 0 0 1-1.208.157q-.537 0-.537.315 0 .393.671.393.705 0 2.652-.079a84 84 0 0 1 1.578-.039q.47 0 1.612.04 2.282.078 3.659.078.638 0 .638-.393 0-.315-.537-.315-.404 0-.873-.04a14 14 0 0 0-.84-.117q-.705-.118-.973-.63-.236-.55-.336-1.493a47 47 0 0 1-.134-3.028 325 325 0 0 1-.034-5.387v-16.122l4.23.118q2.048.04 2.955.668.94.629 1.007 1.534l.033.432q.034.787.37.787.234 0 .302-.63 0-.59.067-2.516.034-1.69.034-2.045 0-.826-.269-.826-.1 0-.537.118l-.37.08h-.033q-1.209.196-2.283.196h-13.294q-.84 0-1.746-.04a67 67 0 0 1-1.612-.157q-.502-.039-1.074-.354-.268-.118-.37-.118-.268 0-.402.747 0 .04-.134.669-.101.59-.269 1.494-.135.904-.235 1.533-.067.63-.067.826 0 .63.302.63.269 0 .37-.472.134-.59.57-1.377.37-.63 1.04-.825.706-.237 2.217-.315l5.002-.157zm24.532 4.443q0 .866-.034 1.887 0 1.023-.067 2.045-.066.904-.335 1.494-.236.55-.705.669a4.7 4.7 0 0 1-1.175.157q-.538 0-.538.315 0 .393.739.393.672 0 2.484-.079a74 74 0 0 1 1.712-.039q.471 0 1.578.04 2.25.078 3.559.078.705 0 .705-.393 0-.315-.537-.315-.369 0-.84-.04a14 14 0 0 0-.839-.117q-.705-.118-1.007-.669c-.302-.551-.324-.865-.37-1.494a63 63 0 0 1-.1-2.045v-5.111q0-1.297.067-2.124.1-.865.437-1.809.234-.629 1.074-2.398t1.947-3.932a322 322 0 0 1 2.048-3.893q.94-1.731 1.343-2.28.604-.866.94-1.26.369-.392.873-.668a3 3 0 0 1 1.477-.472q.638 0 .638-.393 0-.315-.604-.314-.27 0-1.679.039a51 51 0 0 1-1.914.079q-.47 0-1.477-.04a25 25 0 0 0-1.678-.078q-.57 0-.571.354 0 .156.134.236.168.078.47.157.404.118.537.393a1 1 0 0 1 .168.59q0 .825-.47 2.045-.135.393-.906 2.005a711 711 0 0 0-1.645 3.46 377 377 0 0 1-1.679 3.54q-.705 1.493-.806 1.808l-.671-1.376a643 643 0 0 1-1.209-2.399q-.537-1.14-1.645-3.382a269 269 0 0 0-1.544-3.185 24 24 0 0 1-.638-1.415q-.403-.944-.403-1.337 0-.59.47-.708a.33.33 0 0 1 .168-.04q.57-.195.57-.392 0-.354-.503-.354-.974 0-2.45.078-.84.04-1.142.04-.57 0-2.686-.079a118 118 0 0 0-1.544-.04q-.638 0-.638.355c0 .355.168.353.504.353q.302 0 .705.158.368.158.705.354 1.074.747 2.316 2.87.47.786 1.343 2.477a222 222 0 0 1 1.914 3.657 460 460 0 0 1 1.813 3.46q.771 1.496.839 1.73.403 1.102.57 1.928.202.786.202 2.202zm38.446-23.318q-3.592-.001-6.277 1.375-2.653 1.376-4.332 3.695a16.1 16.1 0 0 0-2.484 4.994 19.2 19.2 0 0 0-.769 5.35q-.002 2.754.769 5.467a16.5 16.5 0 0 0 2.453 4.994q1.678 2.24 4.261 3.615 2.587 1.337 6.048 1.338 3.122.001 5.706-1.216a12.6 12.6 0 0 0 4.398-3.421q1.847-2.241 2.82-5.152.974-2.95.973-6.332 0-3.345-.942-6.058-.94-2.752-2.718-4.678-1.748-1.926-4.266-2.948-2.519-1.022-5.64-1.023m-.973 1.889q2.049 0 3.828.982 1.814.984 3.156 2.871 1.344 1.848 2.083 4.52.772 2.637.773 5.9 0 3.972-.84 6.567-.807 2.594-2.051 3.93-1.24 1.298-2.515 1.772-1.241.432-2.382.432c-1.567 0-3.004-.365-4.302-1.1q-1.91-1.14-3.253-3.145-1.344-2.007-2.051-4.683-.704-2.673-.703-5.737-.001-3.5.703-5.9.707-2.438 1.883-3.813 1.209-1.416 2.653-2.006a7.9 7.9 0 0 1 3.018-.59m25.817 13.801q0-.354.235-.354h2.384q.873.039 1.578.078.738 0 1.007.04.705.118 1.141.55.437.393.571.865.201.707.202 1.22 0 .55.268.55.235 0 .269-.197.067-.196.067-.55t.033-1.377q.068-1.022.101-1.494.067-.668.202-1.77.066-.55.067-.668 0-.354-.202-.354-.168 0-.369.276l-.067.117q-.436.63-1.444.708-.47.04-1.51.04l-4.298.039q-.234 0-.235-.354v-9.83q0-.55.302-.55l5.17.117q.874.039 1.444.393.57.315.772.787.135.354.168.747.034.354.034.747.066.63.336.63.267 0 .335-.551a9 9 0 0 0 .067-.787q.034-.63.068-1.337.033-.905.033-1.061.067-.59.202-1.298a3 3 0 0 0 .067-.472q0-.354-.235-.354-.101 0-.303.118-.167.08-.234.118-.27.078-1.041.118a1 1 0 0 1-.336.04q-.773.039-8.863.039-.336 0-1.746-.04a96 96 0 0 0-3.088-.078q-.773 0-.773.393 0 .314.571.314.906 0 1.31.118.806.197 1.074.708.301.472.37 1.534.066.983.066 2.28v12.976q0 3.579-.033 5.427a44 44 0 0 1-.135 2.95q-.135 1.02-.335 1.533-.168.51-.638.629a4.8 4.8 0 0 1-1.209.157q-.503 0-.503.315 0 .393.705.393.671 0 2.518-.079a72 72 0 0 1 1.745-.039q.437 0 1.511.04 2.25.078 3.592.078.74 0 .739-.393 0-.315-.57-.315-.37 0-.84-.04a14 14 0 0 0-.84-.117q-.705-.118-.973-.63-.236-.549-.336-1.533a44 44 0 0 1-.134-2.949q-.034-1.848-.034-5.426zm24.052 10.656q-.168 1.298-.47 2.123-.27.825-.907.983a4.4 4.4 0 0 1-1.007.118q-.537 0-.537.275 0 .433.604.433.537 0 2.048-.079a51 51 0 0 1 1.276-.039q.302 0 1.074.04a53 53 0 0 0 2.45.078q.807 0 .807-.433 0-.275-.504-.275a5.8 5.8 0 0 1-1.41-.196q-.47-.119-.739-.433-.268-.315-.268-.826 0-.786.1-1.848l1.746-15.65h.135l.604 1.494q.303.747 1.007 2.517.27.63.974 2.438.705 1.77.906 2.28.135.394.638 1.613.536 1.18 1.209 2.752a1124 1124 0 0 0 2.014 4.562l.1.235q.807 1.73 1.075 1.73.235 0 .436-.393.202-.393.806-1.808l7.319-17.852h.134l2.014 17.301q.068.472.068.865 0 .748-.235.826-.37.196-.37.433 0 .195.202.275.2.079.772.157a67 67 0 0 0 3.592.157q2.484.08 3.223.079.873 0 .873-.433 0-.275-.537-.275a6 6 0 0 1-2.082-.393q-.738-.276-1.074-1.14-.336-.865-.57-2.832l-3.056-24.3q-.134-1.22-.604-1.22-.37 0-.739.944l-9.131 22.453-9.166-22.177q-.302-.708-.503-.944-.202-.275-.403-.275-.404 0-.57 1.022zm47.105-26.346q-3.591-.001-6.277 1.375-2.653 1.376-4.332 3.695a16.1 16.1 0 0 0-2.484 4.994 19.2 19.2 0 0 0-.774 5.35q.001 2.754.774 5.467a16.5 16.5 0 0 0 2.448 4.994q1.68 2.24 4.266 3.615 2.585 1.337 6.043 1.338 3.121.001 5.706-1.216a12.6 12.6 0 0 0 4.398-3.421q1.847-2.242 2.82-5.152.974-2.95.973-6.332.002-3.345-.937-6.058-.939-2.752-2.718-4.678-1.747-1.926-4.266-2.948-2.518-1.022-5.64-1.023m-.973 1.889q2.049 0 3.829.982 1.812.984 3.156 2.871c.895 1.232 1.584 2.738 2.077 4.52q.772 2.637.773 5.9 0 3.972-.84 6.567-.805 2.594-2.046 3.93-1.244 1.299-2.52 1.772-1.241.432-2.382.432-2.35.001-4.297-1.1-1.913-1.14-3.258-3.145-1.342-2.007-2.046-4.683-.706-2.673-.707-5.737.001-3.5.707-5.9.704-2.438 1.878-3.813 1.209-1.416 2.653-2.006a7.9 7.9 0 0 1 3.023-.59m18.932-1.339q-.738.001-.738.356c0 .355.19.351.57.351q.906 0 1.308.118.806.195 1.074.707.304.474.372 1.537.067.984.066 2.281v12.976q.001 3.499-.03 5.386a44 44 0 0 1-.138 2.988q-.134 1.021-.336 1.532-.167.511-.636.631a4.8 4.8 0 0 1-1.206.158q-.54 0-.54.316 0 .392.672.392.906-.002 2.718-.082 1.11-.037 1.38-.036.234-.001 1.074.036 1.71.04 2.448.04.74.04 1.41.042.672 0 .672-.392 0-.315-.402-.316-.338-.001-.81-.04a10 10 0 0 0-.834-.118q-.707-.119-.977-.631-.236-.55-.336-1.532-.1-1.14-.133-3.03a321 321 0 0 1-.035-5.385v-.55q0-.315.27-.315l2.921.081q.404 0 .606.275.168.234.402.667.268.392 1.207 1.924c.694 1.18 1.268 2.128 1.715 2.835q1.576 2.556 2.581 3.854 1.009 1.296 2.016 1.924a4.2 4.2 0 0 0 1.41.59q.773.158 2.184.159h3.187q.64 0 .641-.392c0-.21-.139-.316-.407-.316q-.367 0-.937-.117h-.035q-.739-.159-1.645-.672-.873-.55-2.082-2.006-1.71-2.12-6.108-8.608l-1.176-1.73q2.452-2.32 3.426-4.404a10 10 0 0 0 1.008-4.403c0-1.206-.251-2.298-.744-3.268q-.704-1.455-1.542-2.123a6.9 6.9 0 0 0-2.785-1.334q-1.51-.355-3.39-.356-.47 0-2.25.04a73 73 0 0 1-2.484.077q-.168.001-1.344-.036a73 73 0 0 0-1.95-.04 20 20 0 0 0-1.308-.041m8.695 1.848q.806.001 1.68.356.907.353 1.68 1.217.804.825 1.272 2.24c.336.943.504 2.074.504 3.385q0 2.241-.57 3.695-.537 1.454-1.41 2.2c-.314.262-.623.45-.937.554q-.47.119-1.446.118a12 12 0 0 1-1.374-.082 6.2 6.2 0 0 1-1.176-.31c-.201-.105-.305-.346-.305-.713v-11.953q.002-.431.305-.55.435-.156 1.777-.157m39.516 20.92q0-3.54.033-4.719.033-1.061.302-1.572.302-.512.974-.669.605-.118.906-.118.437 0 .437-.314 0-.394-.672-.394-.671 0-2.014.04a51 51 0 0 1-1.914.078q-.335 0-1.812-.04a96 96 0 0 0-3.056-.078q-.705 0-.705.394 0 .315.504.314.906 0 1.31.118.805.197 1.107.708.303.51.336 1.533.033 1.18.033 4.64v3.697q0 1.101-.637 1.455a3.6 3.6 0 0 1-1.243.353 14 14 0 0 1-1.611.08q-2.619 0-4.8-1.102-2.15-1.101-3.694-3.106c-1.544-2.005-1.824-2.91-2.383-4.719q-.806-2.713-.806-5.859 0-3.5.806-5.82.805-2.358 2.283-3.814 1.577-1.533 3.189-1.966a12.3 12.3 0 0 1 3.458-.472q2.584 0 4.566.983 2.014.944 2.92 2.084.571.708.806 1.534.236.786.336 1.73.067.51.336.511.369 0 .369-.826 0-2.516.067-3.814.068-1.337.134-2.202.034-.315.034-.432 0-.433-.47-.472a16 16 0 0 1-1.242-.157q-.74-.118-1.41-.276a6 6 0 0 0-.873-.157 24 24 0 0 0-1.545-.236 23 23 0 0 0-1.812-.157 19 19 0 0 0-1.713-.079q-2.55 0-4.7.511-2.148.512-4.33 2.045-2.52 1.77-4.197 5.112-1.645 3.342-1.645 7.746 0 3.933 1.209 6.882 1.242 2.949 3.39 4.836a13.9 13.9 0 0 0 4.935 2.792q2.787.904 5.976.904a22.6 22.6 0 0 0 4.398-.432q2.183-.432 3.693-1.337.303-.196.37-.393.066-.236.067-1.023zm15.4-23.634q-.235 0-.438.357-.201.314-.503 1.216l-8.425 24.695q-.57 1.69-1.176 2.555-.605.825-1.68.983a7 7 0 0 1-1.039.081q-.402 0-.402.316-.001.392.637.392.874-.001 1.781-.041a38 38 0 0 1 1.44-.04q.639-.039.74-.037.435-.001 1.745.077 1.175.04 1.812.04.57 0 .57-.391 0-.315-.503-.316h-.5q-.74 0-1.043-.316-.3-.316-.3-.906 0-.943.504-2.397l1.812-5.62q.1-.315.3-.316h7.488q.236 0 .336.275l2.683 8.333a.8.8 0 0 1 .071.316q-.001.472-.371.59-.47.04-.469.357 0 .234.87.31h.138q1.98.08 3.39.082h2.953q.94-.002 1.242-.082.302-.076.3-.31c0-.21-.141-.316-.432-.316q-.74 0-1.41-.158-.705-.197-1.41-1.064-.707-.864-1.548-3.222-.637-1.77-1.206-3.42a99 99 0 0 0-.906-2.597q-.304-.944-3.192-9.356-1.24-3.658-2.01-5.941-.774-2.28-1.009-2.871-.47-1.257-.84-1.258m-.84 8.064q.101 0 .168.315v.036l3.024 9.713c0 .157-.056.24-.168.24h-6.18c-.09 0-.132-.097-.132-.28l3.085-9.673q.068-.352.203-.351m20.695.667h.1q.035.038.74.944.234.315 1.241 1.612 1.041 1.298 1.914 2.399.907 1.1 1.98 2.438 1.075 1.336 2.116 2.516 1.209 1.376 4.465 5.23a435 435 0 0 1 3.223 3.814q1.442 1.651 2.216 2.517.368.432.638.629.268.236.503.236.436 0 .437-1.22l.369-24.811q.034-1.652.268-2.36.27-.746.974-.983a3.7 3.7 0 0 1 1.007-.118q.604 0 .604-.353 0-.196-.201-.276-.168-.078-.57-.078-1.11 0-2.686.078-.504.04-.605.04-.336 0-1.175-.04a68 68 0 0 0-2.887-.078q-.437 0-.671.078-.202.08-.202.276 0 .353.537.353.57 0 1.007.04.47.04.773.196.603.315.839 1.062.269.708.302 2.477l.336 17.656h-.168l-.739-.865-1.678-2.084a313 313 0 0 0-3.324-4.011 72 72 0 0 0-1.645-2.006 305 305 0 0 1-3.626-4.246 645 645 0 0 1-3.156-3.854 167 167 0 0 0-2.45-3.028 340 340 0 0 0-1.175-1.494 6 6 0 0 1-.302-.393q-.639-.826-.94-.826-.437 0-.437 1.337l-.302 23.279q-.033 2.673-.235 3.657-.167.982-.806 1.219-.57.196-1.51.196-.538 0-.538.315 0 .393.739.393.806 0 1.678-.04a35 35 0 0 1 1.377-.039 8 8 0 0 1 .57-.039q.303 0 .94.04 1.815.078 3.224.078.772 0 .772-.393 0-.315-.57-.315-1.076 0-1.747-.275-.537-.236-.839-1.219t-.336-3.146zm43.907 4.64q-.201 0-.201-.275v-6.882q0-1.297.067-2.28.067-1.062.302-1.573.268-.51.94-.669.604-.117.974-.118.604 0 .604-.353c0-.353-.235-.354-.705-.354q-.638 0-2.585.078a89 89 0 0 1-1.645.04q-.403 0-1.645-.04a89 89 0 0 0-3.19-.078q-.705 0-.705.354c0 .354.19.353.571.353q.906 0 1.31.118.805.197 1.074.708.302.472.369 1.534.067.982.067 2.28v12.976q0 3.501-.033 5.388a45 45 0 0 1-.135 2.988q-.135 1.023-.335 1.534-.168.51-.638.629a4.8 4.8 0 0 1-1.209.157q-.537 0-.537.315 0 .393.671.393.705 0 2.653-.079a84 84 0 0 1 1.578-.039q.47 0 1.611.04 2.283.078 3.626.078.67 0 .671-.393 0-.315-.537-.315-.403 0-.873-.04a14 14 0 0 0-.84-.117q-.705-.118-.973-.63-.234-.55-.335-1.493a47 47 0 0 1-.135-3.028 325 325 0 0 1-.033-5.387v-3.46q0-.237.201-.237h12.825q.201.001.201.236v3.46q0 3.501-.033 5.388a45 45 0 0 1-.135 2.988q-.135 1.023-.335 1.534-.168.51-.638.629a4.8 4.8 0 0 1-1.209.157q-.537 0-.537.315 0 .393.705.393.671 0 2.619-.079a84 84 0 0 1 1.577-.039q.47 0 1.612.04 2.283.078 3.626.078.67 0 .671-.393 0-.315-.537-.315-.403 0-.873-.04a14 14 0 0 0-.84-.117q-.705-.118-.973-.63-.234-.55-.336-1.493a47 47 0 0 1-.134-3.028 325 325 0 0 1-.033-5.387V332.18q0-1.298.067-2.28.066-1.062.302-1.573.268-.51.94-.669.604-.118.974-.118.604 0 .604-.353c0-.353-.235-.354-.705-.354q-.638 0-2.585.078a89 89 0 0 1-1.645.04q-.403 0-1.645-.04a89 89 0 0 0-3.19-.078q-.705 0-.705.354c0 .354.19.353.571.353q.906 0 1.31.118.805.197 1.074.708.301.472.369 1.534.067.983.067 2.28v6.882q0 .275-.201.275zm28.256 5.82q0 3.617-.033 5.544a45 45 0 0 1-.135 3.028q-.167 1.77-.973 1.966a4.8 4.8 0 0 1-1.209.157q-.537 0-.537.315 0 .393.672.393.705 0 2.652-.079a84 84 0 0 1 1.578-.039q.47 0 1.544.04 2.283.078 3.693.078.638 0 .638-.393 0-.315-.537-.315-.403 0-.873-.04a14 14 0 0 0-.84-.117q-.705-.118-.973-.55-.269-.473-.37-1.377a46 46 0 0 1-.134-3.028v-18.56q0-1.298.067-2.28.067-1.062.303-1.573.268-.51.94-.669a5.4 5.4 0 0 1 1.007-.118q.537 0 .537-.393 0-.315-.705-.314c-.705.001-1.287.026-2.45.078q-1.243.04-1.646.04-.504 0-1.914-.04a69 69 0 0 0-2.45-.078q-.806 0-.806.314 0 .393.537.393.705 0 1.209.158 1.04.274 1.141 2.202.067.982.067 2.28zm19.344-6.92v-6.056q0-1.298.067-2.28.067-1.062.302-1.573.268-.51.94-.669.605-.118 1.31-.118.604 0 .604-.353c0-.353-.235-.354-.705-.354q-.639 0-2.787.078-1.51.04-1.78.04-.3 0-1.711-.04a90 90 0 0 0-2.888-.078q-.738 0-.738.354c0 .354.19.353.57.353q.706 0 1.108.118.807.197 1.075.708.301.472.369 1.534.067.983.067 2.28v12.976q0 3.501-.033 5.388a45 45 0 0 1-.135 2.988q-.135 1.023-.335 1.534-.168.51-.638.629a4.8 4.8 0 0 1-1.209.157q-.537 0-.537.315 0 .393.671.393.705 0 2.653-.079a84 84 0 0 1 1.577-.039q1.21 0 3.458.079 1.813.078 3.156.118 1.342.039 3.156.039 1.276 0 1.611-.197.336-.196.504-.865.1-.393.168-1.022.1-.669.168-1.494a27 27 0 0 0 .134-1.298q.034-.51.034-.708 0-.668-.269-.668-.302 0-.37.59a4.4 4.4 0 0 1-.301 1.297q-.27.669-.571 1.062-.57.708-1.444.904c-.874.196-1.41.197-2.484.197q-1.88 0-2.753-.197-.84-.196-1.31-.668t-.604-2.241q-.1-1.77-.1-6.213zm20.326 0v-6.056q0-1.298.068-2.28.066-1.062.302-1.573.268-.51.94-.669.605-.117 1.31-.118.603 0 .603-.353c0-.353-.235-.354-.705-.354q-.638 0-2.786.078-1.51.04-1.78.04-.301 0-1.712-.04a90 90 0 0 0-2.887-.078q-.738 0-.738.354c0 .354.19.353.57.353q.706 0 1.108.118.805.197 1.075.708.3.472.369 1.534.067.982.067 2.28v12.976q0 3.501-.034 5.388a45 45 0 0 1-.134 2.988q-.134 1.023-.336 1.534-.168.51-.637.629a4.8 4.8 0 0 1-1.21.157q-.536 0-.536.315 0 .393.671.393.705 0 2.652-.079 1.31-.039 1.578-.039 1.21 0 3.458.079 1.813.078 3.156.118 1.342.039 3.156.039 1.275 0 1.611-.197.336-.196.504-.865.1-.393.168-1.022.1-.669.168-1.494.1-.825.134-1.298.033-.51.033-.708 0-.668-.268-.668-.303 0-.37.59a4.4 4.4 0 0 1-.302 1.297q-.269.669-.57 1.062-.57.708-1.444.904c-.874.196-1.41.197-2.484.197q-1.88 0-2.753-.197-.84-.196-1.31-.668t-.604-2.241q-.1-1.77-.1-6.213v-6.921"/></svg>