<svg xmlns="http://www.w3.org/2000/svg" width="900" height="500" overflow="visible" viewBox="-350.5 -150.5 900 500"><path fill="#fff" d="M-350.5-150.5h900v500h-900z"/><path fill="#006" d="M547.876-21.275C230.622-44.322 258.344 71.957 258.344 71.957c4.107 51.332-13.349 83.805-13.349 83.805C150.538 302.422-350.5 221.76-350.5 221.76V349.5h900V-21.056z"/><path fill="#3200c4" d="M-349.286 138.758c113.358 7.982 229.346 10.833 340.563-16.614 34.15-9.95 70.985-22.253 94.509-50.763 17.039-40.307-16.67-82.388 1.071-122.883 12.312-32.348 50.702-34.447 78.367-44.929 124.867-33.897 255.891-39.438 384.275-29.995V-150.5h-899.981v289.272z"/><path fill="#fbcb00" d="M548.049 231.352c-41.383-17.037-82.038-78.52-82.038-78.52C396.315 39.499 549.5 43.203 549.5 43.203v188.379z"/><path fill="#005e00" d="M-350.5 31.351s159.805-33.771 70.481-181.476H-350.5z"/><path fill="#fff" d="m-264.988 297.777-3.278 2.516q-2.715-3.537-6.519-5.362t-8.357-1.825q-4.977 0-9.22 2.385-4.242 2.386-6.575 6.408c-2.333 4.022-2.333 5.697-2.333 9.047q0 7.593 5.218 12.674t13.165 5.08q8.739 0 14.621-6.844l3.278 2.486q-3.11 3.964-7.761 6.129c-4.651 2.165-6.564 2.166-10.39 2.166q-10.914 0-17.218-7.257-5.287-6.128-5.287-14.796 0-9.12 6.404-15.346 6.403-6.226 16.045-6.227 5.824 0 10.517 2.305t7.69 6.461m19.325-7.734h4.156v41.563h-4.156zm21.133 4.062v-4.063h22.813v4.063h-9.281v37.5h-4.25v-37.5zm37.067-4.062h4.773l10.649 17.194 10.462-17.194h4.803l-13.156 21.696v19.866h-4.094v-19.866zm96.527-1.031q9.44 0 15.8 6.297 6.359 6.296 6.359 15.502 0 9.12-6.345 15.473-6.346 6.354-15.475 6.354-9.243 0-15.602-6.324-6.36-6.325-6.359-15.305 0-5.985 2.897-11.097 2.896-5.11 7.9-8.005 5.003-2.895 10.825-2.895m.184 4.031q-4.607 0-8.732 2.402-4.126 2.404-6.443 6.475t-2.317 9.074q0 7.406 5.129 12.509 5.129 5.102 12.364 5.103 4.833 0 8.944-2.346c4.111-2.346 4.88-3.703 6.416-6.418q2.303-4.07 2.303-9.046 0-4.947-2.303-8.947t-6.486-6.403q-4.185-2.403-8.875-2.403m41.895-3h20.813v4.063H-44.7v13.031h16.656v4.063H-44.7v20.406h-4.156zm62.934 33.807 3.532-2.119q3.73 6.875 8.622 6.875a8.25 8.25 0 0 0 3.93-.975q1.838-.973 2.798-2.611c.96-1.638.961-2.25.961-3.475q0-2.09-1.414-4.096-1.951-2.768-7.125-6.669-5.203-3.928-6.475-5.681-2.206-2.935-2.206-6.35 0-2.71 1.3-4.939c1.3-2.229 2.087-2.658 3.66-3.515s3.284-1.284 5.13-1.284q2.939 0 5.497 1.454c2.558 1.454 3.509 2.753 5.413 5.349l-3.391 2.572q-2.344-3.112-3.995-4.104a6.87 6.87 0 0 0-3.599-.99q-2.512 0-4.108 1.525-1.595 1.526-1.595 3.758 0 1.356.565 2.627c.565 1.271 1.064 1.771 2.063 2.769q.819.79 5.369 4.152 5.397 3.982 7.403 7.089 2.006 3.105 2.006 6.24 0 4.52-3.436 7.852c-3.436 3.332-5.075 3.332-8.354 3.332q-3.789 0-6.871-2.02-3.078-2.02-5.68-6.766m61.689-33.807 19.375 41.563h-4.479l-6.506-13.688H66.208l-6.464 13.688H55.11l19.625-41.563zm-.533 8.76-7.137 15.115h14.247zm76.681-1.026-3.279 2.516q-2.714-3.537-6.518-5.362-3.805-1.825-8.357-1.825-4.977 0-9.219 2.385-4.242 2.386-6.576 6.408-2.332 4.023-2.332 9.047 0 7.593 5.217 12.674 5.219 5.08 13.164 5.08 8.738 0 14.621-6.844l3.279 2.486q-3.11 3.964-7.762 6.129-4.65 2.165-10.391 2.166-10.912 0-17.217-7.257-5.287-6.128-5.287-14.796 0-9.12 6.402-15.346c6.402-6.226 9.617-6.227 16.045-6.227q5.825 0 10.518 2.305 4.695 2.306 7.692 6.461m20.137-7.734h8.281q6.922 0 9.383.565 3.701.847 6.02 3.634 2.317 2.783 2.316 6.855 0 3.393-1.596 5.965c-1.596 2.572-2.586 3.012-4.564 3.888s-4.709 1.324-8.195 1.343l14.949 19.313h-5.129l-14.949-19.313h-2.359v19.313h-4.156v-41.563zm4.156 4.062v14.125l7.154.057q4.156 0 6.15-.791 1.993-.79 3.109-2.528c1.116-1.738 1.117-2.452 1.117-3.884q0-2.091-1.131-3.801-1.131-1.708-2.969-2.443-1.84-.734-6.107-.734h-7.323zm59.303-4.062 19.375 41.563h-4.479l-6.506-13.688h-17.949l-6.463 13.688h-4.635l19.625-41.563zm-.531 8.76-7.139 15.115h14.248zm36.054 32.802 5.924-41.563h.695l16.896 34.094 16.762-34.094h.664l5.965 41.563h-4.059l-4.113-29.75-14.719 29.75h-1.086l-14.852-29.969-4.066 29.969zm66.709-41.562h23.813v4.063h-19.656v13.031h19.5v4.063h-19.5v16.344h19.5v4.063h-23.656zm42.612 41.562v-41.563h.9l27.631 31.832v-31.832h4.094v41.563h-.932l-27.412-31.486v31.486zm50.242-37.5v-4.063h22.813v4.063h-9.281v37.5h-4.25v-37.5zm60.158-5.093q9.44 0 15.799 6.297c6.359 6.297 6.359 9.365 6.359 15.502q0 9.12-6.346 15.473t-15.475 6.354q-9.242 0-15.602-6.324c-6.36-6.324-6.359-9.318-6.359-15.305q0-5.985 2.896-11.097c2.896-5.112 4.564-6.075 7.9-8.005s6.945-2.895 10.828-2.895m.184 4.031q-4.608 0-8.732 2.402-4.127 2.404-6.443 6.475-2.318 4.07-2.318 9.074 0 7.406 5.129 12.509c5.129 5.103 7.541 5.103 12.365 5.103q4.832 0 8.943-2.346 4.113-2.346 6.416-6.418 2.303-4.07 2.303-9.046 0-4.947-2.303-8.947c-2.303-4-3.697-4.801-6.486-6.403q-4.186-2.403-8.874-2.403"/></svg>