<svg xmlns="http://www.w3.org/2000/svg" width="450" height="300" overflow="visible" viewBox="25 0 450 300"><path fill="#000191" d="M25 0h450v300H25z"/><path fill="#be001c" d="M25 0h450v150H25z"/><path fill="#fff" d="M25 145h450v10H25z"/><path fill="#fff" d="M193.684 181.756 158.2 289.994l91.8-67.08 91.8 67.08-35.484-108.238 90.565-66.188H284.615L250 10l-34.615 105.568H103.119z"/><path fill="#fff" fill-rule="evenodd" d="M308.632 163.735a58.627 58.627 0 1 1-117.254 0 58.627 58.627 0 1 1 117.254 0"/><circle cx="249.5" cy="163.83" r="48.5" fill="#d5a735" transform="translate(-29.879 -20.042)scale(1.12176)"/><path fill="none" stroke="#000" stroke-width="1.067" d="m262.508 167.853 20.113-14.695h-24.937L250 129.713l-7.684 23.445h-24.937l20.113 14.695-7.874 24.039L250 176.995l20.394 14.897z"/><circle cx="249.5" cy="164.15" r="45.013" fill="none" stroke="#000" stroke-width=".951" transform="translate(-29.879 -20.042)scale(1.12176)"/><path d="M251.054 128.692c-.435-.012-.733-.366-.722-.826.015-.46.341-.797.79-.785.447.013.745.352.733.827-.015.461-.332.797-.79.785l-.01-.001zm2.626.168c-.435-.043-.706-.418-.66-.877.046-.458.398-.77.844-.725s.72.406.672.877c-.046.458-.385.771-.844.726h-.013zm2.613.37c-.43-.074-.674-.467-.591-.922.076-.453.453-.739.896-.66.44.076.686.458.601.925-.076.454-.442.742-.896.662zm2.58.561c-.422-.106-.634-.517-.522-.962.114-.447.509-.703.944-.594.434.11.65.509.534.967-.111.447-.495.708-.942.595zm2.513.741c-.413-.138-.596-.562-.45-1 .147-.437.558-.664.984-.523.426.143.611.556.463 1.004-.146.438-.547.668-.985.523zm2.479.931c-.402-.168-.552-.605-.374-1.03s.605-.621 1.019-.448c.415.174.569.6.385 1.036-.179.425-.595.626-1.02.446zm2.389 1.122c-.389-.198-.505-.644-.297-1.055.21-.41.65-.573 1.051-.371s.523.638.307 1.061c-.21.41-.641.579-1.05.371zm2.311 1.29c-.371-.226-.456-.681-.215-1.075.238-.395.69-.524 1.073-.293.384.233.474.678.228 1.083-.238.394-.68.531-1.074.29zm2.199 1.447c-.354-.253-.404-.712-.138-1.09.267-.377.729-.472 1.095-.213.364.26.423.71.148 1.095-.268.376-.718.48-1.095.212zm2.086 1.615c-.335-.278-.35-.74-.058-1.095.295-.355.762-.417 1.105-.131.345.286.37.738.067 1.103-.293.355-.75.426-1.105.132zm1.963 1.75c-.315-.3-.297-.763.023-1.095.32-.334.788-.361 1.114-.05.324.31.314.763-.015 1.105-.319.333-.778.37-1.113.05zm1.84 1.907c-.29-.325-.241-.783.104-1.092.342-.308.816-.301 1.114.032.3.333.257.784-.095 1.101-.343.308-.806.311-1.113-.032zm1.683 2.03c-.267-.343-.182-.798.18-1.08.367-.283.836-.241 1.11.113.273.355.202.801-.174 1.092-.365.282-.826.251-1.109-.114l-.007-.01zm1.525 2.143c-.241-.363-.122-.81.262-1.065.382-.254.849-.18 1.096.194s.139.814-.254 1.075c-.384.256-.842.19-1.097-.193zm1.38 2.255c-.212-.378-.064-.818.339-1.043.401-.226.862-.116 1.08.274.22.392.08.821-.333 1.053-.402.227-.855.128-1.082-.274zm1.2 2.366c-.183-.394 0-.818.419-1.014.417-.195.867-.051 1.054.354.19.406.02.825-.41 1.025-.42.196-.862.065-1.056-.353zm1.032 2.435c-.156-.406.06-.818.49-.98.432-.165.868.012 1.028.43.158.42-.043.823-.486.993-.43.164-.863 0-1.027-.432zm.83 2.49c-.123-.417.12-.811.561-.941.442-.131.865.075.994.506.127.43-.106.819-.557.955-.442.132-.863-.066-.994-.507zm.651 2.547c-.093-.425.177-.8.63-.898.45-.099.857.14.952.579.095.437-.163.809-.626.91-.45.1-.855-.127-.954-.578zm.471 2.613c-.062-.43.24-.783.693-.848.456-.065.844.204.908.647.064.442-.223.794-.691.862-.457.065-.841-.192-.908-.649zm.258 2.625c-.028-.434.295-.765.754-.794.462-.03.826.263.857.711s-.282.777-.752.809c-.46.03-.823-.253-.857-.713zm.079 2.636c.008-.435.355-.735.82-.73.46.008.8.335.793.78-.01.448-.346.75-.82.741-.46-.008-.801-.32-.793-.779zm-.112 2.636c.032-.433.401-.712.863-.677.459.034.778.381.743.828-.034.445-.392.728-.863.688-.462-.036-.782-.371-.746-.828l.002-.01zm-.315 2.614c.069-.43.456-.683.912-.613.455.07.749.438.681.882-.07.442-.444.695-.912.625-.453-.07-.75-.425-.68-.88zm-.493 2.602c.097-.422.501-.646.952-.542.451.102.716.492.615.928-.103.438-.494.662-.956.554-.447-.103-.717-.477-.615-.928zm-.696 2.536c.128-.417.55-.606.99-.47.44.134.677.543.545.97-.134.428-.543.625-.995.483-.44-.134-.68-.531-.545-.971zm-.875 2.478c.159-.405.595-.564 1.021-.396.429.167.636.592.47 1.008-.164.417-.584.582-1.026.408-.429-.167-.639-.582-.468-1.01zm-1.065 2.435c.19-.392.632-.518 1.046-.319.419.201.59.639.394 1.042-.196.404-.627.538-1.053.332-.415-.2-.594-.628-.393-1.043zm-1.234 2.322c.215-.378.668-.471 1.068-.241s.54.678.316 1.067-.666.49-1.077.25c-.397-.23-.546-.668-.315-1.067zm-1.414 2.233c.245-.36.703-.421 1.085-.162.38.258.488.72.237 1.09-.25.374-.698.44-1.092.172-.381-.258-.494-.707-.236-1.09zM278 186.71c.268-.343.73-.369 1.092-.081.358.287.434.751.156 1.1-.277.352-.73.386-1.1.093-.36-.287-.442-.741-.157-1.103l.008-.01zm-1.728 2.007c.293-.32.757-.312 1.097 0 .338.312.378.782.071 1.112-.302.33-.756.33-1.103.01-.34-.31-.385-.772-.073-1.11zm-1.852 1.873c.317-.297.778-.256 1.094.08s.319.807-.009 1.112c-.326.307-.777.276-1.101-.07-.315-.334-.329-.8.008-1.115l.009-.006zm-1.985 1.717c.338-.275.793-.2 1.084.16.29.357.258.826-.089 1.11-.348.281-.796.215-1.094-.154-.289-.357-.27-.821.088-1.11zm-2.109 1.582c.357-.247.808-.14 1.07.237.263.38.2.846-.169 1.102-.368.255-.81.158-1.081-.232-.263-.378-.209-.836.17-1.098l.01-.01zm-2.232 1.424c.375-.222.817-.08 1.05.315.233.398.136.859-.251 1.087-.385.23-.82.1-1.06-.31-.235-.395-.146-.85.25-1.085zm-2.322 1.257c.39-.196.819-.022 1.023.394.203.412.07.865-.33 1.063-.403.2-.825.035-1.039-.388-.201-.414-.081-.862.335-1.063zm-2.412 1.077c.402-.164.818.039.992.466s.007.867-.41 1.038c-.414.168-.823-.024-1.003-.465-.172-.427-.019-.863.409-1.036zm-2.501.897c.416-.132.814.103.955.54.14.44-.06.867-.484 1.003s-.824-.085-.965-.537c-.141-.437.046-.862.484-1.002zm-2.524.696c.421-.103.804.161.91.609s-.12.86-.556.962c-.435.105-.813-.147-.922-.605-.109-.447.11-.857.555-.963zm-2.592.527c.43-.07.789.22.865.675.073.458-.186.85-.628.92-.444.072-.8-.205-.875-.674-.075-.455.173-.846.627-.92zm-2.625.325c.435-.038.771.278.813.737.039.458-.246.83-.692.87-.446.039-.781-.265-.822-.735-.041-.46.235-.83.691-.87zm-2.636.135c.437-.007.749.335.756.793.008.462-.306.813-.755.819-.447.007-.759-.32-.768-.794-.008-.46.294-.812.755-.818zm-2.647-.067c.435.023.722.386.695.847-.024.461-.364.786-.813.76-.446-.023-.735-.375-.708-.847.025-.46.353-.787.813-.763l.013.002zm-2.591-.248c.432.057.69.44.631.897-.06.456-.421.758-.866.699-.444-.058-.705-.427-.644-.897.06-.458.409-.76.866-.7zm-2.625-.448c.425.087.657.488.563.94-.093.45-.477.724-.915.634-.439-.092-.672-.48-.577-.944.093-.452.464-.728.915-.635zm-2.558-.628c.419.116.62.536.492.979-.127.442-.53.688-.96.563-.431-.123-.636-.528-.505-.984.126-.443.517-.69.959-.563zm-2.501-.831c.408.152.577.582.418 1.012-.16.434-.578.646-1 .493-.42-.156-.593-.573-.429-1.018.16-.433.565-.651 1-.491zm-2.435-1.009c.398.18.534.622.343 1.042-.191.422-.625.602-1.035.417-.407-.185-.548-.616-.353-1.044.19-.422.612-.607 1.033-.418zm-2.355-1.178c.381.209.486.659.265 1.062s-.668.555-1.06.338c-.394-.212-.504-.653-.275-1.07.222-.404.656-.56 1.06-.337zm-2.266-1.358c.364.236.435.693.184 1.081-.25.387-.707.505-1.084.26-.376-.247-.452-.69-.194-1.089.25-.387.696-.512 1.083-.26zm-2.154-1.525c.348.263.383.725.106 1.092-.279.365-.743.45-1.1.178-.355-.27-.4-.724-.115-1.098.279-.37.731-.458 1.098-.18zm-2.042-1.66c.328.288.33.748.025 1.095-.304.346-.772.394-1.11.097-.337-.295-.347-.746-.035-1.102.305-.346.764-.402 1.11-.099zm-1.918-1.84c.305.311.273.772-.056 1.095s-.8.337-1.114.017c-.314-.319-.291-.772.047-1.103.33-.323.791-.345 1.114-.017l.01.008zm-1.783-1.963c.28.333.214.79-.137 1.088s-.822.277-1.112-.067c-.29-.342-.233-.79.128-1.097.352-.297.814-.287 1.112.068zm-1.616-2.075c.256.351.157.805-.215 1.076-.374.27-.841.214-1.105-.148-.262-.363-.175-.807.209-1.086.373-.27.832-.225 1.103.147l.008.01zm-1.469-2.187c.23.37.096.815-.295 1.055-.392.243-.854.154-1.09-.229-.236-.379-.115-.818.288-1.067.391-.243.847-.162 1.09.23l.007.01zm-1.29-2.278c.202.386.037.818-.372 1.032-.408.212-.863.089-1.07-.307-.207-.397-.055-.821.365-1.043.408-.215.857-.103 1.07.306zm-1.144-2.412c.172.4-.024.82-.446 1.001-.423.183-.867.025-1.044-.386-.178-.41.007-.823.442-1.012.422-.182.861-.034 1.044.386l.004.012zm-.943-2.445c.142.412-.084.816-.52.965-.434.15-.866-.037-1.013-.462-.147-.423.067-.824.515-.979.435-.151.864.025 1.014.464zm-.762-2.524c.11.42-.144.807-.59.924s-.862-.105-.976-.537.129-.816.586-.935c.444-.117.858.09.976.536zm-.573-2.58c.08.429-.204.793-.657.878-.453.083-.851-.166-.933-.606s.188-.804.654-.89c.453-.084.849.155.933.605zm-.381-2.602c.047.433-.261.776-.72.825-.459.052-.837-.229-.886-.675-.05-.444.246-.786.718-.84.457-.05.835.217.887.676zm-.191-2.648c.017.436-.317.754-.778.772-.461.02-.818-.288-.835-.736-.015-.447.305-.768.778-.783.46-.019.817.277.834.735zm0-2.625c-.014.437-.371.732-.832.715s-.794-.348-.779-.795.358-.743.832-.727c.46.017.796.333.778.795zm.202-2.636c-.047.433-.423.7-.883.652-.458-.052-.767-.405-.719-.851s.413-.716.884-.666c.458.052.769.395.72.853zm.382-2.613c-.079.427-.475.667-.928.584s-.735-.461-.654-.903c.08-.44.465-.682.93-.596.454.083.737.448.654.902zm.583-2.581c-.111.423-.523.63-.97.513-.445-.117-.698-.514-.584-.948s.513-.646.972-.526c.445.117.702.502.585.948zm.774-2.523c-.14.411-.568.59-1.004.44-.436-.152-.658-.565-.513-.991.146-.422.56-.605 1.008-.451.436.15.663.554.513.99zm.942-2.446c-.171.4-.61.546-1.034.365-.423-.18-.615-.612-.44-1.023.176-.412.604-.564 1.039-.376.423.18.62.6.44 1.022zm1.144-2.4c-.2.387-.648.499-1.057.287-.41-.212-.57-.657-.363-1.054.208-.398.644-.516 1.065-.298.408.212.574.644.361 1.052zm1.313-2.3c-.229.37-.684.45-1.076.207-.392-.242-.517-.696-.283-1.076.236-.38.681-.468 1.083-.22.393.243.525.687.283 1.078l-.007.01zm1.481-2.187c-.256.352-.715.397-1.09.127-.373-.27-.465-.732-.202-1.094s.713-.417 1.096-.14c.374.27.473.723.203 1.096zm1.626-2.065c-.28.332-.742.345-1.095.048s-.41-.764-.122-1.108c.29-.342.743-.363 1.104-.057.352.296.42.755.121 1.107zm1.761-1.94c-.304.312-.766.29-1.096-.033s-.352-.792-.04-1.112c.313-.32.766-.308 1.105.022.33.323.361.783.04 1.113zm1.919-1.817c-.327.288-.786.233-1.09-.113-.305-.345-.295-.815.04-1.112.337-.297.787-.252 1.101.103.304.345.304.807-.041 1.113zm2.052-1.672c-.346.264-.8.175-1.079-.192-.278-.366-.233-.835.123-1.107.356-.27.802-.192 1.089.185.279.367.244.828-.124 1.107zm2.154-1.514c-.364.238-.81.115-1.062-.27-.25-.388-.172-.85.204-1.095.375-.245.813-.134 1.072.264.252.386.183.844-.204 1.095zm2.277-1.358c-.38.211-.816.055-1.038-.348s-.11-.862.282-1.076c.393-.217.822-.073 1.051.342.222.403.12.855-.285 1.077zm2.345-1.177c-.396.181-.82-.005-1.01-.424s-.046-.866.361-1.053.825-.012 1.022.42c.192.42.056.861-.363 1.053zm2.445-.999c-.408.152-.816-.066-.977-.498s.02-.867.441-1.023.823.05.988.494c.16.432-.008.863-.44 1.023zm2.513-.818c-.418.12-.809-.127-.936-.57-.127-.444.085-.864.514-.988.43-.123.818.111.95.566.127.443-.071.86-.515.988l-.013.003zm2.546-.629c-.426.09-.797-.186-.891-.637-.096-.45.148-.855.585-.948.439-.092.808.17.905.635.095.451-.136.853-.586.948zm2.625-.437c-.43.057-.78-.245-.841-.703-.06-.456.21-.84.655-.9.444-.059.793.23.855.7.06.457-.199.842-.655.902h-.014zm2.625-.247c-.435.026-.761-.302-.788-.762s.271-.823.719-.85c.446-.026.773.29.802.76.025.46-.26.823-.72.85zm42.493 50.393a43.2 43.2 0 0 1-6.196 11.175h1.474a44.1 44.1 0 0 0 5.983-11.175zm-82.141 0a44.3 44.3 0 0 0 5.982 11.175h1.475a43.1 43.1 0 0 1-6.195-11.175zm-5.705-19.78-.966-.498.019-.5 3.98-.014-.023.617q-1.73.222-2.593.988-.865.764-.904 1.79-.043 1.127.999 1.906 1.044.78 3.355.866 2.445.097 3.663-.67.957-.615 1.006-1.883a2.8 2.8 0 0 0-.848-2.17q-.651-.648-1.96-.95l.021-.6q1.684.28 2.625 1.398c.941 1.118.92 1.645.881 2.692q-.08 2.037-1.57 3.359t-3.734 1.235q-2.49-.096-3.916-1.743-1.213-1.405-1.143-3.22a3.8 3.8 0 0 1 .278-1.323c.166-.4.447-.826.83-1.28m.034-4.846 1.292-4.91.6.158-.233.888q-.074.287.005.445.08.161.3.217l7.432 1.955q.26.069.406-.038.189-.138.276-.466l.209-.791.6.156-1.291 4.91-.602-.156.199-.752q.103-.387.015-.582-.088-.193-.341-.26l-7.348-1.935c-.182-.049-.329-.032-.44.04q-.17.11-.25.423l-.225.857zm2.277-8.054 3.903-7.735 3.467 1.499-.273.541q-1.178-.352-1.935-.353-.762 0-1.214.264a1.7 1.7 0 0 0-.689.73q-.135.27-.089.45.046.183.257.29l6.854 3.458q.199.1.385.04a.45.45 0 0 0 .276-.232l.508-1.005.558.28-2.389 4.735-.557-.282.483-.958a.52.52 0 0 0 .049-.402.48.48 0 0 0-.264-.29l-6.818-3.441q-.239-.121-.418-.048-.18.071-.32.346-.77 1.529 1.758 3.48l-.265.525-3.267-1.893zm5.609-10.377 3.277-3.692.468.414-.455.512q-.239.27-.265.435-.024.166.086.264a.8.8 0 0 0 .367.164l4.03.81-1.189-3.002a1.46 1.46 0 0 0-.371-.574.65.65 0 0 0-.553-.175q-.302.05-.62.405l-.203.228-.467-.414 2.544-2.867.468.414q-.431.504-.51.972c-.079.468-.002.662.15 1.05l1.622 4.103 2.332 2.07q.206.18.407.159.199-.024.414-.265l.682-.767.468.414-3.601 4.058-.468-.414.676-.763q.232-.26.228-.452t-.215-.378l-2.07-1.837-5.214-1.048q-.499-.102-.809.003c-.31.105-.403.214-.594.429l-.142.16zm17.646-15.087q1.251-.63 2.614-.557c1.363.073 1.733.324 2.477.822q1.115.75 1.776 2.061 1.002 1.995.368 3.98c-.634 1.985-1.278 2.309-2.565 2.955q-1.284.644-2.602.55a4.95 4.95 0 0 1-2.424-.826q-1.103-.732-1.787-2.092-1.015-2.017-.385-3.978.627-1.96 2.527-2.915zm.324.556q-.714.359-1.041 1.015-.327.657-.196 1.686c.131 1.029.385 1.536.896 2.551q.803 1.6 1.502 2.28t1.443.801q.745.121 1.47-.243 1.073-.539 1.253-1.781t-.965-3.518q-.8-1.593-1.478-2.255c-.678-.662-.927-.701-1.422-.778a2.36 2.36 0 0 0-1.462.242m8.29-3.854 8.609-1.616.729 3.34-.591.112q-.45-1.522-1.132-2.01t-1.871-.266l-1.446.271q-.316.06-.438.219a.5.5 0 0 0-.075.402l.612 3.26.527-.098q1.573-.294 1.464-2.216l.584-.11.845 4.501-.585.11q-.163-.72-.45-1.098a1.65 1.65 0 0 0-.706-.545 1.6 1.6 0 0 0-.902-.076l-.665.126.667 3.551q.053.285.23.389.252.15.551.093l.925-.174.116.616-5.167.969-.115-.616.866-.163q.303-.056.44-.249a.56.56 0 0 0 .088-.436l-1.397-7.444q-.054-.283-.236-.366-.183-.08-.685.014l-.674.127zm17.421-1.728 5.241 1.025q1.431.282 2.388 1.097a4.4 4.4 0 0 1 1.357 2.055q.392 1.24.117 2.641-.286 1.455-1.053 2.422-.77.966-2.009 1.388a4.8 4.8 0 0 1-2.513.17l-5.431-1.062.118-.608.81.158c.2.038.357.013.48-.074q.18-.133.24-.42l1.437-7.34q.057-.295-.074-.461-.132-.166-.506-.24l-.718-.14zm3.002 10.063q.901.176 1.688-.141c.787-.317.942-.56 1.25-1.045s.572-1.28.788-2.383q.34-1.74.155-2.738c-.185-.998-.366-1.17-.732-1.512s-.954-.595-1.759-.752q-.664-.13-.855-.05-.188.079-.248.375l-1.442 7.377q-.064.33.041.501c.105.171.206.191.402.23zm15.541-4.566-.812 9.613q-.031.409.07.615c.101.206.197.255.379.349l.32.166-.287.55-4.123-2.149.286-.55.387.2q.456.24.682.228.227-.013.312-.178a.9.9 0 0 0 .087-.341l.17-1.99-3.298-1.718-.703.581q-.436.364-.555.59a.88.88 0 0 0-.041.778q.159.39.654.648l.28.146-.287.55-3.342-1.741.287-.551.19.1a.98.98 0 0 0 .674.092q.497-.106.918-.455l7.085-5.883zm-2.119 1.725-3.155 2.616 2.807 1.463.348-4.08zm8.423 3.121.423-.46 3.751 3.456-.421.459-.632-.581q-.27-.248-.473-.246-.203.004-.419.236l-4.996 5.424q-.303.33-.285.517c.018.187.15.307.406.543l1.056.973q.587.542 1.613.455c1.026-.087 1.49-.412 2.424-1.062l.434.4-2.746 2.646-6.431-5.928.423-.458.647.597q.217.199.423.191.21-.006.393-.204l5.136-5.577q.186-.202.158-.398c-.028-.196-.119-.28-.303-.446zm8.784 8.716.525-.336 2.741 4.292-.525.336-.462-.724q-.199-.31-.398-.359-.197-.048-.465.12l-6.217 3.973q-.377.243-.408.428c-.02.123.068.332.25.626l.772 1.202c.289.448.766.73 1.442.845q1.011.172 2.612-.414l.328.51-3.332 1.858-4.697-7.35.525-.336.467.733q.155.242.36.289.205.044.429-.101l6.393-4.085q.234-.148.254-.342.023-.193-.175-.505l-.42-.66zm8.614 15.188-7.383 6.213q-.31.263-.382.483-.071.22.02.514l.111.345-.591.185-1.39-4.442.592-.185.13.416q.154.494.321.644c.114.102.226.134.347.097a.9.9 0 0 0 .3-.18l1.525-1.277-1.107-3.543-.905-.085c-.378-.037-.645-.03-.81.021a.88.88 0 0 0-.58.518q-.163.389.005.921l.093.303-.59.184-1.126-3.6.591-.185.067.206a.97.97 0 0 0 .409.544q.425.278.967.334l9.165.851zm-2.718-.28-4.085-.385.944 3.021 3.14-2.636zm3.852 14.37.915.58.023.476-3.422.221-.027-.6q1.45-.54 2.145-1.439.694-.901.643-1.949-.04-.892-.553-1.428-.511-.535-1.187-.505-.4.02-.725.255c-.213.157-.395.405-.537.74q-.217.502-.41 1.752-.231 1.452-.448 2.016-.347.888-.965 1.357-.617.464-1.532.51-1.375.064-2.237-.842c-.69-.727-1.066-1.653-1.118-2.773q-.075-1.548.942-2.879l-1.012-.735-.023-.5 3.667-.176.028.593q-3.093 1.028-2.965 3.715.053 1.097.585 1.685.534.585 1.29.55.529-.027.873-.31c.23-.192.41-.475.539-.86q.105-.314.307-1.545.284-1.658.635-2.377c.351-.719.532-.836.894-1.075q.545-.356 1.347-.393 1.351-.063 2.245.805.897.868.969 2.398.068 1.463-.886 2.733m-69.65 32.396 7.117 3.823-1.478 3.19-.5-.268q.354-1.083.373-1.79c.019-.707-.06-.848-.218-1.134a1.6 1.6 0 0 0-.665-.659q-.248-.131-.417-.093c-.114.025-.205.106-.274.233l-3.384 6.298q-.097.182-.047.358c.05.176.103.204.21.262l.925.496-.274.508-4.35-2.335.273-.51.88.473a.5.5 0 0 0 .375.056.45.45 0 0 0 .276-.24l3.367-6.265c.079-.15.097-.277.055-.39q-.062-.166-.315-.303-1.405-.756-3.28 1.545l-.484-.26zm8.233 4.297 7.826 1.895-.587 3.184-.533-.13q.08-1.158-.084-1.712a1.9 1.9 0 0 0-.563-.912q-.4-.356-1.143-.534l-1.227-.299q-.286-.068-.441.014a.41.41 0 0 0-.204.283l-.753 3.108.42.102q.72.175 1.219-.142.498-.316.793-1.215l.55.132-1.013 4.184-.551-.133q.198-1.051-.1-1.579-.297-.52-1.104-.719l-.345-.083-.806 3.323q-.051.22.052.341.162.18.527.27l1.082.26q1.11.27 1.986-.269.878-.537 1.395-1.929l.55.133-.96 3.386-8.16-1.979.139-.565.807.197q.274.065.449-.039a.5.5 0 0 0 .234-.342l1.674-6.91q.054-.219-.065-.355-.118-.138-.49-.23l-.71-.17zm8.795 2.187 4.576-.074.009.584-.338.006q-.463.007-.61.09-.15.085-.147.222.003.166.263.513l1.571 2.08 1.189-1.488q.395-.487.385-.918a.5.5 0 0 0-.17-.4q-.17-.136-.488-.133l-.288.007-.012-.585 3.642-.06.01.584-.275.005a1.3 1.3 0 0 0-.604.153q-.265.151-.595.55l-2.339 2.866 3.127 4.03q.222.295.404.383a.8.8 0 0 0 .42.09l.303-.005.01.585-4.51.072-.01-.584.473-.009q.334-.005.483-.116a.33.33 0 0 0 .147-.282q-.003-.142-.205-.364l-.066-.083-1.753-2.303-1.412 1.775q-.288.369-.281.774.005.305.168.455a.75.75 0 0 0 .517.185l.351-.007.01.585-3.808.062-.01-.584.238-.003q.287-.006.602-.192.521-.32.802-.678l2.374-2.938-2.97-3.804q-.237-.3-.4-.384a.9.9 0 0 0-.426-.081l-.35.003zm14.953-1.761 5.54 7.078q.234.298.44.372a.8.8 0 0 0 .478-.003l.329-.09.153.559-4.183 1.15-.153-.556.389-.11q.464-.126.611-.277.146-.153.101-.322a.9.9 0 0 0-.156-.288l-1.143-1.463-3.335.918-.11.84q-.07.526-.009.754.11.392.467.558c.357.166.525.116.858.025l.284-.078.156.556-3.383.932-.157-.556.194-.054a.9.9 0 0 0 .516-.362q.271-.387.339-.893l1.098-8.512zm-.351 2.525-.491 3.788 2.839-.782zm10.884-6.205.098-1.005.383-.217 1.627 2.746-.491.278q-1.06-.976-2.1-1.172-1.035-.197-1.888.285-.722.412-.952 1.064-.231.651.083 1.2.184.326.518.495c.22.113.504.16.842.136q.51-.035 1.624-.394 1.304-.416 1.863-.473c.594-.06 1.104.019 1.535.227q.648.317 1.074 1.06c.423.739.503 1.479.243 2.21q-.47 1.323-1.836 2.1-1.255.715-2.79.428l-.185 1.154-.4.226-1.694-2.972.474-.273c1.443 1.434 2.89 1.733 4.34.91q.89-.506 1.15-1.197.261-.692-.088-1.306-.245-.43-.629-.598-.378-.166-.94-.087-.306.044-1.413.395c-.998.307-1.745.468-2.243.473q-.745.012-1.27-.29c-.35-.201-.645-.519-.895-.955q-.627-1.096-.282-2.209.343-1.11 1.583-1.817c.805-.452 1.688-.593 2.66-.422z"/><g fill="none" stroke="#000" stroke-width=".533"><path d="m242.91 166.372-4.116 12.564-.045.145 10.892-7.953.022-.022 10.915 7.975-4.195-12.81-.023-.056 10.713-7.83.056-.045H253.78l-.01-.034-4.129-12.586-4.094 12.62h-13.349l10.769 7.875z"/><path d="m232.153 158.295.157.045 17.253 5.643.056.01m17.499-5.619-.045.011-17.196 5.598-.18.056m-10.982 15.009.079-.112 10.746-14.684.045-.068.056-.078.034-.045.022-.022m-.056-18.319v18.374"/><path d="m260.578 179.081-10.757-14.83-.068-.089-.078-.1-.023-.023m-4.172-5.777.055.078 4.028 5.643.078.1"/><path d="m253.792 158.262-.023.044-3.892 5.677-.124.179-.045.056m-6.798 2.154 6.585-2.154"/><path d="m249.495 164.15.09.034.056.012.067.022.113.034 6.472 2.053m-6.652 4.845v-6.932"/></g></svg>