<svg xmlns="http://www.w3.org/2000/svg" width="800" height="533.33"><path fill="#069" d="M0 .002h800V533.33H0z"/><path fill="#fff" d="m400 10.124 63.684 195.973 206.06.008L503.042 327.23l63.67 195.978L400 402.095 233.289 523.208l63.669-195.978-166.702-121.125 206.06-.008z"/><path fill="#fff" d="M482.166 293.75a82.166 82.166 0 1 1-164.332 0 82.166 82.166 0 1 1 164.332 0"/><g stroke="#000"><g stroke-width="1.377"><path fill-rule="evenodd" d="m386.724 324.91 1.912-4.985 1.276 1.044-2.087 5.042z"/><path fill-rule="evenodd" d="M370.324 312.47c-1.978.934-1.54 2.536-.376 2.76 2.24.634 4.619-.403 6.863-.843 4.772-.905 9.791 4.212 14.531 8.549.215-.401.619-.59.833-.991-4.355-4.462-7.375-7.593-11.932-9.205-3.337-1.18-7.942-1.202-9.92-.27z"/><path fill-rule="evenodd" d="m369.89 318.692 3.207-4.867c.523-.793 1.777-.03 1.312.696l-3.044 4.744zm19.848 4.015.985 3.304 3.71-.985-.348-3.188z"/><path fill-rule="evenodd" d="M366.379 318.022c-2.137.899-1.664 2.441-.406 2.657 2.421.61 4.993-.389 7.42-.812 5.157-.871 10.583 4.055 15.707 8.23.232-.386.669-.567.9-.953-4.707-4.296-7.972-7.31-12.898-8.863-3.607-1.136-8.586-1.157-10.723-.259zm3.551.383zm27.575 6.795 1.507-3.42 1.97.058-1.912 3.768-1.855-.348m-8.225 5.812c-.097 0-.104.071-.124.081-.068.034-.2.164-.266.164h-.349c-.17 0-.347-.02-.512-.02h-.922c-.113 0-.395.048-.492 0-.06-.03-.297-.109-.328-.185-.034-.086-.152-.28-.266-.348-.126-.076-.239-.058-.37-.123-.17-.085-.44-.041-.634-.041-.138 0-.404-.013-.472.123-.058.117-.17.082-.307.082-.2 0-.327-.066-.512-.103-.18-.036-.347-.143-.513-.184a1.2 1.2 0 0 0-.307-.041c-.104 0-.186-.02-.307-.02-.152 0-.189-.073-.308-.103-.106-.027-.17-.061-.307-.061h-1.004c-.125 0-.205 0-.287.061-.063.047-.22.205-.308.205-.095 0-.19.02-.307.02a6 6 0 0 1-.902-.04c-.131 0-.175-.042-.307-.042h-1.373c-.119 0-.275-.028-.39 0-.126.032-.277.103-.41.103-.154 0-.315.102-.47.102-.276-.02-.51.076-.738.185-.072.074-.041.475-.041.574v.532c.049.266.211.496.327.738.086.114.107.263.287.308.2.05.472.32.656.43.207.094.378.247.553.39.196.202.378.413.513.655.023.116.248.221.328.328.204.282.496.463.778.656.12.09.21.123.37.123.15 0 .314.02.47.02.329-.028.656-.014.984 0 .175 0 .345.062.533.062.34.054.647.22.943.389.16.08.29.123.471.123.316-.046.604-.08.922-.041.154.038.343-.017.492.02.329.11.556.276.779.533.267.214.594.251.922.287h.881c.133 0 .255.035.348.082.112.056.289.155.41.246.058.044.314.041.39.041.265.022.375-.012.737-.123.09-.045.364.213.43.246.101.05.141.14.206.205.05.05.315.047.39.061.622.098 1.256.062 1.884.062.137 0 .287-.01.41.02.157.284.323.42.615.554.209.083.454.184.676.184.283.052.544.039.82-.02.262-.03.413-.198.594-.37a2 2 0 0 1 .513-.266q.317-.101.635-.205c.171-.1.363-.07.553-.061.912.64 1.387-.105 2.336-.185.35.014.663.173 1.005.246.44.196.864-.051 1.311-.082.304.018.505.129.656.37.082.272.226.314.492.348.39.059.64-.03.922-.287.279-.175.495-.214.799-.144.2.104.396.132.615.144.308.037.503-.064.738-.246.484-.457.886-.298 1.414.04.116.06.333-.016.43-.04.403-.14.78-.142 1.168 0 .15.112.307.102.492.102.173 0 .334-.001.492-.04a.9.9 0 0 0 .369-.185c.123-.093.275-.179.41-.246.147-.194.3-.178.532-.164.147-.037.358 0 .513 0 .118 0 .204.082.307.123.279.003.472-.174.758-.205.303.082.583.068.881 0 .255-.181.504-.361.78-.512.274-.16.593-.13.9-.144h.452c.278-.056.505-.228.778-.307h.349c.506-.03.867-.42 1.27-.697.143-.083.31-.085.472-.102a.5.5 0 0 0 .327-.226c.121-.11.188-.251.267-.39.069-.137-.017-.213.164-.122.11.183.277.294.45.41.057.056.044.175.062.246.039.154.032.154.144.266.031.032.276 0 .327 0 .27-.005.477-.17.697-.307.112-.056.266-.205.349-.287.12-.121.322-.217.47-.328.13-.138.282-.252.431-.369.198-.18.399-.274.656-.328.272-.14.494-.297.8-.348.199 0 .226-.083.348-.205.162-.239.366-.42.594-.594.21-.228.445-.325.738-.39.161-.032.253-.11.369-.225.118-.118.038-.167-.021-.226-.072-.072-.119-.09-.225-.143-.188-.07-.37-.103-.554-.184-.08-.04-.102-.103-.184-.144-.21-.1-.265-.226-.328-.43v-.39c0-.098.004-.22.02-.287-.199-.11-.567-.11-.84-.163a2.6 2.6 0 0 0-.615-.246c-.107 0-.233-.02-.348-.02-.424-.048-.826-.173-1.25-.288-.108 0-.237-.039-.328-.061-.15-.038-.357 0-.512 0-.177 0-.332.002-.492.082-.204.102-.53.181-.676.328-.271.245-.608.388-.943.512a2.5 2.5 0 0 1-.471.04c-.149 0-.178-.037-.267-.081-.124-.062-.234-.16-.348-.205a2 2 0 0 0-.328-.102c-.54-.153-1.09-.141-1.64-.062-.105.026-.239.048-.348.103-.43.204-.815.49-1.27.635-.127 0-.235.053-.349.082-.12.03-.244.02-.368.02h-.39c-.15 0-.28-.008-.41-.04-.513-.216-1.028-.388-1.578-.472-.158-.032-.382-.02-.553-.02-.131 0-.265-.011-.39.02-.121.03-.189.033-.286.082-.515.292-.959.716-1.517.922a3.3 3.3 0 0 1-.655.082c-.311 0-.591-.013-.882-.061-4.498-.923-9.659-.258-14.18-.554-.234-.046-.585-.123-.78-.123h-.86c-.23 0-.868.12-.656.205z"/><path fill-rule="evenodd" d="M390.793 325.331c-4.297 2.48-1.987 4.599.491 5.78l6.025 2.868 10-1.475c-1.525-1.234-3.1-2.439-4.303-3.976-2.257-2.885-4.226-4.107-6.27-4.14-2.223-.034-4.48.099-5.943.943zm-3.361-1.762c-.568-.205.712-3.935 1.721-3.935 11.35-1.08 22.612-1.176 33.854-1.065-.44 1.175-.427 2.35-.328 3.524-11.687-.552-23.45.177-35.247 1.476z"/><path d="M425.382 320.663c-1.354 0-2.453 1.742-2.453 3.887s1.1 3.888 2.453 3.888c1.354 0 2.453-1.742 2.453-3.888s-1.099-3.887-2.453-3.887zm.165 1.55c.683 0 1.241 1.03 1.241 2.301s-.558 2.303-1.24 2.303c-.684 0-1.234-1.031-1.234-2.303 0-1.27.55-2.302 1.233-2.302z"/><path fill-rule="evenodd" d="M423.646 318.563c-.416.715-.418 1.43-.377 2.145 1.104-.145 2.51-.988 2.956.029.238.543.843 1.442-2.145 2.521.006.571-.093 1.216.29 1.333 2.412-1.076 3.417-1.263 3.797-2.956.16-.715.158-1.973-1.42-2.898-.777-.455-2.033-.275-3.101-.174z"/></g><path fill-rule="evenodd" stroke-width=".23" d="m386.724 324.91 1.912-4.985 1.276 1.044-2.087 5.042z"/><path fill="#fff" fill-rule="evenodd" stroke-width=".23" d="M370.324 312.47c-1.978.934-1.54 2.536-.376 2.76 2.24.634 4.619-.403 6.863-.843 4.772-.905 9.791 4.212 14.531 8.549.215-.401.619-.59.833-.991-4.355-4.462-7.375-7.593-11.932-9.205-3.337-1.18-7.942-1.202-9.92-.27z"/><path fill="#fff" fill-rule="evenodd" stroke-width=".5" d="m369.89 318.692 3.207-4.867c.523-.793 1.777-.03 1.312.696l-3.044 4.744z"/><path fill-rule="evenodd" stroke-width=".23" d="m389.738 322.707.985 3.304 3.71-.985-.348-3.188z"/><path fill="#fff" fill-rule="evenodd" stroke-width=".23" d="M366.379 318.022c-2.137.899-1.664 2.441-.406 2.657 2.421.61 4.993-.389 7.42-.812 5.157-.871 10.583 4.055 15.707 8.23.232-.386.669-.567.9-.953-4.707-4.296-7.972-7.31-12.898-8.863-3.607-1.136-8.586-1.157-10.723-.259zm3.551.383zm27.575 6.795 1.507-3.42 1.97.058-1.912 3.768-1.855-.348"/><path fill-rule="evenodd" stroke-width=".23" d="M388.99 331.07c-.097 0-.104.071-.124.081-.068.034-.2.164-.266.164h-.349c-.17 0-.347-.02-.512-.02h-.922c-.113 0-.395.048-.492 0-.06-.03-.297-.109-.328-.185-.034-.086-.152-.28-.266-.348-.126-.076-.239-.058-.37-.123-.17-.085-.44-.041-.634-.041-.138 0-.404-.013-.472.123-.058.117-.17.082-.307.082-.2 0-.327-.066-.512-.103-.18-.036-.347-.143-.513-.184a1.2 1.2 0 0 0-.307-.041c-.104 0-.186-.02-.307-.02-.152 0-.189-.073-.308-.103-.106-.027-.17-.061-.307-.061h-1.004c-.125 0-.205 0-.287.061-.063.047-.22.205-.308.205-.095 0-.19.02-.307.02a6 6 0 0 1-.902-.04c-.131 0-.175-.042-.307-.042h-1.373c-.119 0-.275-.028-.39 0-.126.032-.277.103-.41.103-.154 0-.315.102-.47.102-.276-.02-.51.076-.738.185-.072.074-.041.475-.041.574v.532c.049.266.211.496.327.738.086.114.107.263.287.308.2.05.472.32.656.43.207.094.378.247.553.39.196.202.378.413.513.655.023.116.248.221.328.328.204.282.496.463.778.656.12.09.21.123.37.123.15 0 .314.02.47.02.329-.028.656-.014.984 0 .175 0 .345.062.533.062.34.054.647.22.943.389.16.08.29.123.471.123.316-.046.604-.08.922-.041.154.038.343-.017.492.02.329.11.556.276.779.533.267.214.594.251.922.287h.881c.133 0 .255.035.348.082.112.056.289.155.41.246.058.044.314.041.39.041.265.022.375-.012.737-.123.09-.045.364.213.43.246.101.05.141.14.206.205.05.05.315.047.39.061.622.098 1.256.062 1.884.062.137 0 .287-.01.41.02.157.284.323.42.615.554.209.083.454.184.676.184.283.052.544.039.82-.02.262-.03.413-.198.594-.37a2 2 0 0 1 .513-.266q.317-.101.635-.205c.171-.1.363-.07.553-.061.912.64 1.387-.105 2.336-.185.35.014.663.173 1.005.246.44.196.864-.051 1.311-.082.304.018.505.129.656.37.082.272.226.314.492.348.39.059.64-.03.922-.287.279-.175.495-.214.799-.144.2.104.396.132.615.144.308.037.503-.064.738-.246.484-.457.886-.298 1.414.04.116.06.333-.016.43-.04.403-.14.78-.142 1.168 0 .15.112.307.102.492.102.173 0 .334-.001.492-.04a.9.9 0 0 0 .369-.185c.123-.093.275-.179.41-.246.147-.194.3-.178.532-.164.147-.037.358 0 .513 0 .118 0 .204.082.307.123.279.003.472-.174.758-.205.303.082.583.068.881 0 .255-.181.504-.361.78-.512.274-.16.593-.13.9-.144h.452c.278-.056.505-.228.778-.307h.349c.506-.03.867-.42 1.27-.697.143-.083.31-.085.472-.102a.5.5 0 0 0 .327-.226c.121-.11.188-.251.267-.39.069-.137-.017-.213.164-.122.11.183.277.294.45.41.057.056.044.175.062.246.039.154.032.154.144.266.031.032.276 0 .327 0 .27-.005.477-.17.697-.307.112-.056.266-.205.349-.287.12-.121.322-.217.47-.328.13-.138.282-.252.431-.369.198-.18.399-.274.656-.328.272-.14.494-.297.8-.348.199 0 .226-.083.348-.205.162-.239.366-.42.594-.594.21-.228.445-.325.738-.39.161-.032.253-.11.369-.225.118-.118.038-.167-.021-.226-.072-.072-.119-.09-.225-.143-.188-.07-.37-.103-.554-.184-.08-.04-.102-.103-.184-.144-.21-.1-.265-.226-.328-.43v-.39c0-.098.004-.22.02-.287-.199-.11-.567-.11-.84-.163a2.6 2.6 0 0 0-.615-.246c-.107 0-.233-.02-.348-.02-.424-.048-.826-.173-1.25-.288-.108 0-.237-.039-.328-.061-.15-.038-.357 0-.512 0-.177 0-.332.002-.492.082-.204.102-.53.181-.676.328-.271.245-.608.388-.943.512a2.5 2.5 0 0 1-.471.04c-.149 0-.178-.037-.267-.081-.124-.062-.234-.16-.348-.205a2 2 0 0 0-.328-.102c-.54-.153-1.09-.141-1.64-.062-.105.026-.239.048-.348.103-.43.204-.815.49-1.27.635-.127 0-.235.053-.349.082-.12.03-.244.02-.368.02h-.39c-.15 0-.28-.008-.41-.04-.513-.216-1.028-.388-1.578-.472-.158-.032-.382-.02-.553-.02-.131 0-.265-.011-.39.02-.121.03-.189.033-.286.082-.515.292-.959.716-1.517.922a3.3 3.3 0 0 1-.655.082c-.311 0-.591-.013-.882-.061-4.498-.923-9.659-.258-14.18-.554-.234-.046-.585-.123-.78-.123h-.86c-.23 0-.868.12-.656.205z"/><path fill="#fff" fill-rule="evenodd" stroke-width=".5" d="M390.793 325.331c-4.297 2.48-1.987 4.599.491 5.78l6.025 2.868 10-1.475c-1.525-1.234-3.1-2.439-4.303-3.976-2.257-2.885-4.226-4.107-6.27-4.14-2.223-.034-4.48.099-5.943.943zm-3.361-1.762c-.568-.205.712-3.935 1.721-3.935 11.35-1.08 22.612-1.176 33.854-1.065-.44 1.175-.427 2.35-.328 3.524-11.687-.552-23.45.177-35.247 1.476z"/><path fill="#fff" stroke-width=".23" d="M425.382 320.663c-1.354 0-2.453 1.742-2.453 3.887s1.1 3.888 2.453 3.888c1.354 0 2.453-1.742 2.453-3.888s-1.099-3.887-2.453-3.887zm.165 1.55c.683 0 1.241 1.03 1.241 2.301s-.558 2.303-1.24 2.303c-.684 0-1.234-1.031-1.234-2.303 0-1.27.55-2.302 1.233-2.302z"/><path fill="#fff" fill-rule="evenodd" stroke-width=".5" d="M423.646 318.563c-.416.715-.418 1.43-.377 2.145 1.104-.145 2.51-.988 2.956.029.238.543.582 1.24-1.014 2.028.005.572.022 1.13.405 1.247 1.021-.526 2.171-.684 2.55-2.377.161-.715.16-1.973-1.42-2.898-.776-.455-2.032-.275-3.1-.174z"/><path fill="#fff" fill-rule="evenodd" stroke-width=".23" d="M398.49 334.56c-.096.038-.218.055-.271.156-.081.139-.193.276-.192.445-.021.153.033.338.185.404.147.068.32.043.466-.011.155-.072.27-.202.412-.295.11-.099.111-.261.099-.398a.29.29 0 0 0-.14-.227c-.133-.093-.302-.157-.465-.123a.2.2 0 0 0-.094.05zm2.48.225c.005-.413.928-.796 1.552-.73.447.047.855-.07 1.235-.33.522-.357 1.221.052 1.8-.183.495-.2.982.016 1.46.123.579.129.942-.4 1.468-.521.576-.133 1.202-.312 1.76-.04.562.273 1.217.365 1.707.768.461.38-.07 1.057-.562 1.099-.565.047-1.142.055-1.696-.088-.61-.158-1.217-.346-1.857-.327-.749.023-1.508-.01-2.243.142-.662.136-1.341.162-1.994.363-.834.256-2.634.2-2.63-.276zm-23.375-1.413c-.28.17-.792.036-1.18-.032-.197-.041-.41-.146-.472-.352a2 2 0 0 0-.229-.45.76.76 0 0 1 .04-.561c.116-.162.286-.275.453-.376.42-.17.884-.12 1.326-.11.22.006.441-.018.656.04.14.035.285.08.4.168.11.147.033.337.022.501-.066.364-.325.662-.622.866-.166.036-.257.224-.394.306zm.145.058c.27-.364.709-.542 1.126-.682.221-.088.264-.376.485-.463a.58.58 0 0 1 .6.058c.149.236.057.522.076.781a.57.57 0 0 1-.35.507c-.243.167-.41.456-.717.519-.302.066-.614.054-.922.056-.28-.057-.507-.35-.457-.637.025-.068.083-.13.159-.139zm1.68.812c.323-.39.853-.528 1.167-.926.12-.203-.032-.474.133-.66.193-.167.467-.132.701-.11.26.043.532.162.67.395.127.331-.05.704-.314.913a5 5 0 0 0-.564.59c-.15.157-.282.331-.444.474-.343.204-.795.107-1.094-.132-.16-.129-.294-.33-.255-.544zm3.304 1.188c.186-.062.395-.154.467-.352.07-.456-.016-.941.178-1.374a1.2 1.2 0 0 0-.002-.558c-.101-.164-.327-.166-.493-.119-.15.058-.321.035-.468.096-.172.103-.21.324-.201.509 0 .155-.095.284-.204.385q-.248.234-.495.47c-.135.124-.099.322-.09.485-.003.103 0 .217.096.28.112.093.263.099.401.098a.9.9 0 0 1 .35.142c.158.024.304-.07.461-.062zm.986-.029c.108-.1.015-.246-.01-.362a1.07 1.07 0 0 1 .15-.734c.17-.192.448-.196.685-.203.299-.01.598-.056.88-.159.15-.038.346.032.378.198.056.205.02.424.085.628.043.273-.059.593-.316.727-.235.11-.488.177-.723.287-.2.087-.424.209-.647.127-.19-.067-.331-.22-.457-.37a.16.16 0 0 1-.025-.139zm2.318.145c.378-.335.656-.81 1.146-1 .5-.202 1.059-.25 1.526-.534.186-.07.43-.259.612-.084.108.174.025.387.008.575-.042.338-.2.696-.524.848-.202.085-.426.131-.595.28a5.6 5.6 0 0 0-.695.774c-.216.193-.523.104-.784.124-.205.007-.46.026-.598-.16-.111-.164-.217-.333-.35-.48-.1-.176.09-.33.254-.343zm5.457-.732c-.35.027-.704-.006-1.054.007-.26.015-.416.245-.581.416-.16.208-.43.277-.674.323-.337.052-.692.285-.74.646.033.197.058.423.23.552.718.007 1.09.135 1.808.136.195-.026.768-.062.932-.208.107-.25.087-.529.158-.789.1-.248.299-.482.251-.767a.335.335 0 0 0-.33-.316zm.977.646c.318-.377.82-.62 1.317-.551.275.082.42.353.648.508.149.127.13.347.077.516-.07.28-.26.54-.526.66-.399.097-.826-.04-1.135-.298-.099-.077-.225-.135-.352-.103-.142.01-.284-.116-.244-.263.02-.175.13-.32.215-.47zm.956 1.303c.163.149.155.385.176.587.03.262.118.523.082.79-.05.113-.193.107-.298.108-.315.016-.625-.055-.933-.11-.181-.01-.392-.06-.483-.235-.132-.222-.09-.501.006-.729a.9.9 0 0 1 .403-.415c.11-.092.223-.22.38-.208.24.006.44.159.667.212zm-11.099-4.521c.182-.051.365.027.549.025.178.013.377.013.529-.096.134-.128.152-.33.139-.505a.8.8 0 0 0-.308-.516c-.09-.095-.204-.194-.344-.183-.112-.002-.223-.014-.334-.015-.135.011-.27.105-.294.245-.052.184-.01.376-.025.563.026.115-.05.221-.041.334a.27.27 0 0 0 .129.148zm1.478.638c.107-.041.116-.171.176-.254.075-.15.265-.212.421-.169.3.02.599.035.898.059.113.035.154.175.127.28-.016.194.047.407-.066.582a.5.5 0 0 1-.512.226c-.307-.023-.625.047-.921-.058-.178-.062-.252-.276-.218-.449a.5.5 0 0 1 .095-.217zm2.231.753c-.004-.142.13-.223.215-.316.156-.175.407-.228.633-.208a2.6 2.6 0 0 1 .703.083c.132.112.121.303.102.459-.042.29-.234.545-.48.696-.156.066-.33.072-.496.072a.64.64 0 0 1-.309-.148c-.208-.12-.463-.184-.614-.385-.058-.11.06-.232.17-.232a.2.2 0 0 0 .076-.02zm1.043-1.188c-.025-.117.068-.21.13-.298.095-.137.216-.292.396-.307.201-.02.401.022.601.03.13.037.182.188.173.312.007.182.012.365-.008.546-.058.19-.266.295-.454.287-.237-.003-.489-.045-.675-.203a.6.6 0 0 1-.176-.208c-.013-.053.002-.107.013-.159z"/></g><g stroke="#000" stroke-width="1.377"><path fill-rule="evenodd" stroke-linecap="round" d="M357.473 308.267a.804.804 0 1 0 .08 1.606h83.2a.803.803 0 1 0 0-1.606z"/><path fill="#fff" fill-rule="evenodd" stroke-linecap="round" d="M357.473 307.229a.804.804 0 1 0 .08 1.606h83.2a.803.803 0 1 0 0-1.606z"/><path fill="#fff" fill-rule="evenodd" d="M416.577 279.833v-12.541c0-2.037 1.273-2.941 3.114-2.941h19.807c.903 0 1.47.514 1.47 2.162v13.925l-23.699 5.709z"/><path fill="#fff" fill-rule="evenodd" d="M364.594 284.278c.054-2.36.753-4.445 3.814-5.518h48.212c1.373.898 2.896 2.436 2.758 5.275z"/><path fill-rule="evenodd" d="M368.22 291.914h-12.17l-3.793 5.443 5.321 5.32h21.59l4.892-6.176h10.214l16.023 1.712h6.116l.367-5.626z"/><path fill="#fff" fill-rule="evenodd" d="M364.316 284.518v6.77l2.238 3.673h30.239l13.656 1.262h4.82l15.78 2.64h9.123v-31.789h-19.91v17.214z"/><path fill="#fff" d="M402.38 289.785c-5.12 0-9.274 4.155-9.274 9.274 0 5.12 4.155 9.274 9.274 9.274 5.12 0 9.274-4.154 9.274-9.274s-4.155-9.274-9.274-9.274zm0 2.088a7.19 7.19 0 0 1 7.187 7.186 7.19 7.19 0 0 1-7.187 7.187 7.19 7.19 0 0 1-7.187-7.187 7.19 7.19 0 0 1 7.187-7.186zm20.456-2.088c-5.12 0-9.274 4.155-9.274 9.274 0 5.12 4.155 9.274 9.274 9.274 5.12 0 9.274-4.154 9.274-9.274s-4.155-9.274-9.274-9.274zm0 2.088a7.19 7.19 0 0 1 7.187 7.186 7.19 7.19 0 0 1-7.187 7.187 7.19 7.19 0 0 1-7.187-7.187 7.19 7.19 0 0 1 7.187-7.186z"/><path fill="#fff" stroke-linecap="round" d="M379.522 294.247a7.047 7.047 0 0 0-7.044 7.043 7.047 7.047 0 0 0 7.044 7.043 7.047 7.047 0 0 0 7.043-7.043 7.047 7.047 0 0 0-7.043-7.043zm0 1.972a5.071 5.071 0 1 1 0 10.14 5.071 5.071 0 0 1-.001-10.139zm-15.329-1.972a7.047 7.047 0 0 0-7.043 7.043 7.047 7.047 0 0 0 7.043 7.043 7.047 7.047 0 0 0 7.043-7.043 7.047 7.047 0 0 0-7.043-7.043zm0 1.972a5.071 5.071 0 1 1 0 10.14 5.071 5.071 0 0 1-.001-10.139z"/><path fill="#fff" d="M419.458 266.31v17.293h-54.97c-.962-.02-.97 1.356 0 1.377h56.347v-4.555h18.297v17.71h-2.718c-.476-7.074-6.38-12.689-13.57-12.689-4.083 0-7.74 1.82-10.236 4.677-2.494-2.855-6.146-4.677-10.228-4.677-4.31 0-8.156 2.019-10.65 5.157h-29.408a.91.91 0 0 0-.803.452.93.93 0 0 0 0 .932.91.91 0 0 0 .803.452h30.318a11.75 11.75 0 0 1 9.74-5.157c3.901 0 7.345 1.9 9.49 4.82l.738 1.004.739-1.004c2.143-2.92 5.595-4.82 9.496-4.82a11.76 11.76 0 0 1 11.734 12.688h6.391v-33.66zm1.377 1.377h3.557v11.361h-3.557zm4.884 0h3.587v11.361h-3.587zm4.914 0h3.586v11.361h-3.586zm4.913 0h3.586v11.361h-3.586z"/><path fill="#fff" fill-rule="evenodd" d="M368.923 257.695c-.55-.854-.453-2.92 1.896-3.21-.49-2.543 2.336-3.912 3.853-3.058.125-1.856 1.443-2.56 2.6-2.172.413-1.235 1.706-1.25 2.69-.611.892-1.936 3.702-1.314 3.456-.03 1.578-.286 1.877 3.496.58 3.638.85 1.122-1.33 3.3-2.568 2.416-.09 1.765-1.823 1.993-2.997 1.56-.766-.284-1.256.357-2.17.244-2.764-.341-2.392.401-3.334.704l-4.006.52z"/><path fill="#fff" fill-rule="evenodd" d="M373.152 279.206c.642-.843.162-1.646-.612-2.04v-1.959c1.183-.285 1.02-2.026 0-2.284l4.039-11.914c-.75-1.29-1.767-2.259-3.06-2.897v-.938h-6.161v.938c-1.293.638-2.31 1.606-3.06 2.897l4.04 11.914c-1.02.258-1.184 1.999 0 2.284v1.959c-.775.394-1.255 1.197-.613 2.04 1.488.39 3.89.408 5.427 0zm16.389-.35c-.133-.708-.32-1.38-1.253-1.529v-1.57c1.204 0 .959-1.871 0-1.693v-2.057c.744-.076.826-1.287 0-1.438-.07-.779-.32-1.49-1.438-1.865-.04-.786-.326-1.161-.825-1.131-.5-.03-.785.345-.826 1.131-1.118.376-1.368 1.086-1.437 1.865-.826.15-.745 1.362 0 1.438v2.057c-.96-.178-1.197 1.693 0 1.693v1.57c-.934.149-1.12.82-1.254 1.53 2.307.334 4.645.398 7.033 0z"/><path fill="#fff" stroke-linecap="round" d="M398.769 277.266h1.712v1.56c-.549.194-1.122.172-1.712 0z"/><path fill="#fff" fill-rule="evenodd" d="M402.809 277.285c-.154-.716-.582-1.419-1.309-1.79-.077-1.178-.165-2.35-1.18-3.169.01-1.192-.315-1.517-.726-1.699-.41.182-.735.507-.726 1.699-1.014.818-1.102 1.991-1.18 3.168-.726.372-1.17 1.044-1.308 1.791 2.164.394 4.306.38 6.429 0z"/><path fill="none" d="M413.122 262.833c0-.01 0-.02 0 0z"/><path fill="#fff" fill-rule="evenodd" d="M412.646 263.032c-.543-1.238.71-1.741-.086-2.681-1.577-1.232-.575-2.328.173-2.487.4-.87 1.016-1.364 1.643-1.838.534-1.934 1.741-1.136 1.881-.67 2.639-.602 2.059 2.474 1.254 3.005-.57.9-1.713 2.495-3.935 2.054-.142.65 1.12 1.795-.173 2.617z"/><path fill="#fff" fill-rule="evenodd" d="M415.73 278.795c.207-.556-.36-1.408-1.07-1.345v-1.223c1.14.06 1.534-2.172-.123-2.11v-1.652c1.01-.234.968-1.915-.58-2.14v-5.75c.919-.236.848-1.737 0-1.773h-1.716c-.802.036-.873 1.537.046 1.774v5.749c-1.549.225-1.591 1.906-.58 2.14v1.652c-1.657-.062-1.264 2.17-.123 2.11v1.223c-.711-.063-1.277.79-1.07 1.345 1.738.304 3.477.348 5.216 0z"/><path fill="none" d="M419.454 266.51c-.047-1.373-.934-1.977-1.766-1.609"/><path fill="#fff" fill-rule="evenodd" stroke-linecap="round" d="M356.118 291.521a.517.517 0 0 0 .057 1.033h4.031a.516.516 0 1 0 0-1.033zm-3.916 5.437a.516.516 0 0 0-.309.89l4.34 4.339a.517.517 0 0 0 .731-.732l-4.34-4.34a.52.52 0 0 0-.422-.157z"/></g><g stroke="#000" stroke-width="2.178"><path fill-rule="evenodd" stroke-linecap="round" stroke-width=".5" d="M357.473 308.267a.804.804 0 1 0 .08 1.606h83.2a.803.803 0 1 0 0-1.606z"/><path fill="#fff" fill-rule="evenodd" stroke-linecap="round" stroke-width=".5" d="M357.473 307.229a.804.804 0 1 0 .08 1.606h83.2a.803.803 0 1 0 0-1.606z"/><path fill="#fff" fill-rule="evenodd" stroke-width=".5" d="M416.577 279.833v-12.541c0-2.037 1.273-2.941 3.114-2.941h19.807c.903 0 1.47.514 1.47 2.162v13.925l-23.699 5.709z"/><path fill="#fff" fill-rule="evenodd" stroke-width=".5" d="M364.594 284.278c.054-2.36.753-4.445 3.814-5.518h48.212c1.373.898 2.896 2.436 2.758 5.275z"/><path fill="none" stroke-width=".5" d="M391.413 279.288v4.828m2.515-4.828v4.828m10.306-4.828c.408 1.118.593 2.736.568 4.828m1.908-4.828c.407 1.118.592 2.736.567 4.828m-26.979-4.828c-.408 1.118-.593 2.736-.568 4.828m-1.907-4.828c-.408 1.118-.593 2.736-.568 4.828"/><path fill-rule="evenodd" stroke-width=".5" d="M368.22 291.914h-12.17l-3.793 5.443 5.321 5.32h21.59l4.892-6.176h10.214l16.023 1.712h6.116l.367-5.626z"/><path fill="#fff" fill-rule="evenodd" stroke-width=".5" d="M364.316 284.518v6.77l2.238 3.673h30.239l13.656 1.262h4.82l15.78 2.64h9.123v-31.789h-19.91v17.214z"/><g fill="#fff" stroke-width=".5"><path stroke-linecap="round" d="M410.609 299.059a8.23 8.23 0 1 1-16.461 0 8.23 8.23 0 1 1 16.46 0z"/><path d="M401.072 302.073h2.609v4.695h-2.609z"/><path d="m403.585 302.112 1.845-1.844 3.32 3.32-1.845 1.844z"/><path d="M405.39 300.363v-2.608h4.695v2.608z"/><path d="m405.43 297.85-1.845-1.845 3.32-3.32 1.845 1.845z"/><path d="M403.68 296.045h-2.608v-4.695h2.609z"/><path d="m401.167 296.005-1.844 1.845-3.32-3.32 1.844-1.845z"/><path d="M399.362 297.755v2.608h-4.695v-2.608z"/><path d="m399.323 300.268 1.844 1.844-3.32 3.32-1.844-1.844z"/><path d="M402.38 289.785c-5.12 0-9.274 4.155-9.274 9.274 0 5.12 4.155 9.274 9.274 9.274 5.12 0 9.274-4.154 9.274-9.274s-4.155-9.274-9.274-9.274zm0 2.088a7.19 7.19 0 0 1 7.187 7.186 7.19 7.19 0 0 1-7.187 7.187 7.19 7.19 0 0 1-7.187-7.187 7.19 7.19 0 0 1 7.187-7.186z"/><path d="M402.38 295.236a3.83 3.83 0 0 0-3.83 3.823 3.83 3.83 0 0 0 3.83 3.823 3.822 3.822 0 1 0 0-7.646zm0 1.736a2.088 2.088 0 0 1 0 4.175 2.088 2.088 0 0 1 0-4.175z"/></g><g fill="#fff" stroke-width=".5"><path stroke-linecap="round" d="M431.065 299.059a8.23 8.23 0 1 1-16.461 0 8.23 8.23 0 1 1 16.46 0z"/><path d="M421.528 302.073h2.609v4.695h-2.609z"/><path d="m424.042 302.112 1.844-1.844 3.32 3.32-1.845 1.844z"/><path d="M425.846 300.363v-2.608h4.696v2.608z"/><path d="m425.886 297.85-1.844-1.845 3.32-3.32 1.844 1.845z"/><path d="M424.137 296.045h-2.609v-4.695h2.609z"/><path d="m421.623 296.005-1.844 1.845-3.32-3.32 1.844-1.845z"/><path d="M419.818 297.755v2.608h-4.695v-2.608z"/><path d="m419.779 300.268 1.844 1.844-3.32 3.32-1.844-1.844z"/><path d="M422.836 289.785c-5.12 0-9.274 4.155-9.274 9.274 0 5.12 4.155 9.274 9.274 9.274 5.12 0 9.274-4.154 9.274-9.274s-4.155-9.274-9.274-9.274zm0 2.088a7.19 7.19 0 0 1 7.187 7.186 7.19 7.19 0 0 1-7.187 7.187 7.19 7.19 0 0 1-7.187-7.187 7.19 7.19 0 0 1 7.187-7.186z"/><path d="M422.836 295.236a3.83 3.83 0 0 0-3.83 3.823 3.83 3.83 0 0 0 3.83 3.823 3.822 3.822 0 1 0 0-7.646zm0 1.736a2.088 2.088 0 0 1 0 4.175 2.088 2.088 0 0 1 0-4.175z"/></g><path fill="#fff" fill-rule="evenodd" stroke-linecap="round" stroke-width=".5" d="M398.844 295.703a.517.517 0 1 0 .05 1.033h25.097a.516.516 0 1 0 0-1.033zm-6.469-2.145a.516.516 0 0 0-.08 1.004l4.52 1.564a.516.516 0 1 0 .336-.976l-4.518-1.563a.5.5 0 0 0-.258-.029z"/><g fill="#fff" stroke-linecap="round" stroke-width=".5"><path d="M385.694 301.292a6.173 6.173 0 1 1-12.345 0 6.173 6.173 0 1 1 12.345 0z"/><path d="M378.623 303.35h1.797v3.361h-1.797z"/><path d="m380.341 303.382 1.27-1.27 2.378 2.376-1.27 1.271z"/><path d="M381.58 302.19v-1.797h3.36v1.797z"/><path d="m381.612 300.472-1.27-1.27 2.376-2.378 1.271 1.27z"/><path d="M380.42 299.234h-1.797v-3.362h1.797z"/><path d="m378.702 299.201-1.27 1.271-2.378-2.377 1.27-1.27z"/><path d="M377.464 300.393v1.797h-3.362v-1.797z"/><path d="m377.431 302.111 1.27 1.271-2.376 2.377-1.27-1.27z"/><path d="M379.522 294.247a7.047 7.047 0 0 0-7.044 7.043 7.047 7.047 0 0 0 7.044 7.043 7.047 7.047 0 0 0 7.043-7.043 7.047 7.047 0 0 0-7.043-7.043zm0 1.972a5.071 5.071 0 1 1 0 10.14 5.071 5.071 0 0 1-.001-10.139z"/><path d="M379.522 298.844a2.45 2.45 0 0 0 0 4.899 2.45 2.45 0 0 0 0-4.899zm0 1.155a1.292 1.292 0 0 1 0 2.582 1.292 1.292 0 0 1 0-2.582z"/></g><g fill="#fff" stroke-linecap="round" stroke-width=".5"><path d="M370.366 301.292a6.173 6.173 0 1 1-12.346 0 6.173 6.173 0 1 1 12.346 0z"/><path d="M363.295 303.35h1.796v3.361h-1.796z"/><path d="m365.013 303.382 1.27-1.27 2.377 2.376-1.27 1.271z"/><path d="M366.25 302.19v-1.797h3.362v1.797z"/><path d="m366.283 300.472-1.27-1.27 2.377-2.378 1.27 1.27z"/><path d="M365.091 299.234h-1.797v-3.362h1.797z"/><path d="m363.373 299.201-1.27 1.271-2.378-2.377 1.271-1.27z"/><path d="M362.135 300.393v1.797h-3.361v-1.797z"/><path d="m362.103 302.111 1.27 1.271-2.377 2.377-1.27-1.27z"/><path d="M364.193 294.247a7.047 7.047 0 0 0-7.043 7.043 7.047 7.047 0 0 0 7.043 7.043 7.047 7.047 0 0 0 7.043-7.043 7.047 7.047 0 0 0-7.043-7.043zm0 1.972a5.071 5.071 0 1 1 0 10.14 5.071 5.071 0 0 1-.001-10.139z"/><path d="M364.193 298.844a2.45 2.45 0 0 0 0 4.899 2.45 2.45 0 0 0 0-4.899zm0 1.155a1.292 1.292 0 0 1 0 2.582 1.292 1.292 0 0 1 0-2.582z"/></g><path fill="#fff" stroke-linecap="round" stroke-width=".5" d="M371.811 293.379c-.712 0-1.29.158-1.29.71 0 .352.239.7.594.904v3.686h1.392v-3.686c.358-.204.595-.55.595-.904 0-.552-.579-.71-1.29-.71z"/><path fill="#fff" fill-rule="evenodd" stroke-linecap="round" stroke-width=".5" d="M362.544 298.464a.517.517 0 1 0 .05 1.033h16.763a.516.516 0 1 0 0-1.033z"/><path fill="#fff" fill-rule="evenodd" stroke-width=".5" d="m368.791 291.346 2.525-5.508 9.525 3.557-.86 2.008z"/><path fill="#fff" stroke-linecap="round" stroke-width=".5" d="M384.69 284.58h2.343v6.474h-2.342z"/><path fill="#fff" stroke-width=".5" d="M419.458 266.31v17.293h-54.97c-.962-.02-.97 1.356 0 1.377h56.347v-4.555h18.297v17.71h-2.718c-.476-7.074-6.38-12.689-13.57-12.689-4.083 0-7.74 1.82-10.236 4.677-2.494-2.855-6.146-4.677-10.228-4.677-4.31 0-8.156 2.019-10.65 5.157h-29.408a.91.91 0 0 0-.803.452.93.93 0 0 0 0 .932.91.91 0 0 0 .803.452h30.318a11.75 11.75 0 0 1 9.74-5.157c3.901 0 7.345 1.9 9.49 4.82l.738 1.004.739-1.004c2.143-2.92 5.595-4.82 9.496-4.82a11.76 11.76 0 0 1 11.734 12.688h6.391v-33.66zm1.377 1.377h3.557v11.361h-3.557zm4.884 0h3.587v11.361h-3.587zm4.914 0h3.586v11.361h-3.586zm4.913 0h3.586v11.361h-3.586z"/><path fill="#fff" fill-rule="evenodd" stroke-width=".5" d="M368.923 257.695c-.55-.854-.453-2.92 1.896-3.21-.49-2.543 2.336-3.912 3.853-3.058.125-1.856 1.443-2.56 2.6-2.172.413-1.235 1.706-1.25 2.69-.611.892-1.936 3.702-1.314 3.456-.03 1.578-.286 1.877 3.496.58 3.638.85 1.122-1.33 3.3-2.568 2.416-.09 1.765-1.823 1.993-2.997 1.56-.766-.284-1.256.357-2.17.244-2.764-.341-2.392.401-3.334.704l-4.006.52z"/><path fill="#fff" fill-rule="evenodd" stroke-width=".5" d="M373.152 279.206c.642-.843.162-1.646-.612-2.04v-1.959c1.183-.285 1.02-2.026 0-2.284l4.039-11.914c-.75-1.29-1.767-2.259-3.06-2.897v-.938h-6.161v.938c-1.293.638-2.31 1.606-3.06 2.897l4.04 11.914c-1.02.258-1.184 1.999 0 2.284v1.959c-.775.394-1.255 1.197-.613 2.04 1.488.39 3.89.408 5.427 0z"/><path fill="none" stroke-width=".5" d="M367.368 258.167h6.14m-9.168 2.811h12.196m-8.196 11.936c1.399.075 2.797.15 4.195 0m-4.151 2.302c1.37.223 2.739.24 4.108 0m-4.087 1.936q1.86.432 4.066 0m2.996-20.986c.787-.064 1.629.092 2.263-.58.685.186 1.529-.048 1.682-1.01.211-.813-.62-1.751-2.232-1.131.257-1.215-2.003-1.294-2.324-.612.302-1.521 2.51-1.101 2.66-.03 2.11-1.047 3.13.82 2.844 1.926 1.793-1.28 2.266-3.547.275-3.7-.428-.73-.908-1.225-1.498-1.223q1.13-.429 1.651.611c1.508-.393 3.018 2.356.642 4.16"/><path fill="#fff" fill-rule="evenodd" stroke-width=".5" d="M389.541 278.856c-.133-.708-.32-1.38-1.253-1.529v-1.57c1.204 0 .959-1.871 0-1.693v-2.057c.744-.076.826-1.287 0-1.438-.07-.779-.32-1.49-1.438-1.865-.04-.786-.326-1.161-.825-1.131-.5-.03-.785.345-.826 1.131-1.118.376-1.368 1.086-1.437 1.865-.826.15-.745 1.362 0 1.438v2.057c-.96-.178-1.197 1.693 0 1.693v1.57c-.934.149-1.12.82-1.254 1.53 2.307.334 4.645.398 7.033 0z"/><path fill="none" stroke-width=".5" d="M383.798 270.546h4.454m-4.476 1.481h4.498m-4.52 2.033c1.514.241 3.028.158 4.541 0m-4.562 1.686c1.528.162 3.056.126 4.584 0m-4.541 1.557c1.5.259 2.998.201 4.498 0m-3.083-8.599h1.667"/><path fill="#fff" stroke-linecap="round" stroke-width=".5" d="M398.769 277.266h1.712v1.56c-.549.194-1.122.172-1.712 0z"/><path fill="#fff" fill-rule="evenodd" stroke-width=".5" d="M402.809 277.285c-.154-.716-.582-1.419-1.309-1.79-.077-1.178-.165-2.35-1.18-3.169.01-1.192-.315-1.517-.726-1.699-.41.182-.735.507-.726 1.699-1.014.818-1.102 1.991-1.18 3.168-.726.372-1.17 1.044-1.308 1.791 2.164.394 4.306.38 6.429 0z"/><path fill="none" stroke-width=".5" d="M397.714 275.477c1.274.085 2.548.192 3.822 0m-2.63-3.195h1.438m12.778-9.449c0-.01 0-.02 0 0z"/><path fill="#fff" fill-rule="evenodd" stroke-width=".5" d="M412.646 263.032c-.543-1.238.71-1.741-.086-2.681-1.577-1.232-.575-2.328.173-2.487.4-.87 1.016-1.364 1.643-1.838.534-1.934 1.741-1.136 1.881-.67 2.639-.602 2.059 2.474 1.254 3.005-.57.9-1.713 2.495-3.935 2.054-.142.65 1.12 1.795-.173 2.617z"/><path fill="#fff" fill-rule="evenodd" stroke-width=".5" d="M415.73 278.795c.207-.556-.36-1.408-1.07-1.345v-1.223c1.14.06 1.534-2.172-.123-2.11v-1.652c1.01-.234.968-1.915-.58-2.14v-5.75c.919-.236.848-1.737 0-1.773h-1.716c-.802.036-.873 1.537.046 1.774v5.749c-1.549.225-1.591 1.906-.58 2.14v1.652c-1.657-.062-1.264 2.17-.123 2.11v1.223c-.711-.063-1.277.79-1.07 1.345 1.738.304 3.477.348 5.216 0z"/><path fill="none" stroke-width=".5" d="M412.31 264.545h1.623m-1.633 5.795h1.643m-2.216 2.141h2.79m-2.79 1.633a31 31 0 0 0 2.79 0m-2.92 2.108a36 36 0 0 0 3.05 0m-3.061 1.222a12.2 12.2 0 0 0 3.071 0m-.173-20.726c.621-.188 1.068.386.714 1.168 1.049.42.788 1.551-.13 1.773m.93-3.979c.568.134.755.689.41 1.21m3.046 9.62c-.047-1.373-.934-1.977-1.766-1.609"/><path fill="#fff" stroke-linecap="round" stroke-width="2.239" d="M470.497 273.793h4.666v35.505h-4.666z" transform="matrix(.21722 .07412 0 .22952 315.256 169.331)"/><path fill="#fff" fill-rule="evenodd" stroke-linecap="round" stroke-width=".5" d="M356.118 291.521a.517.517 0 0 0 .057 1.033h4.031a.516.516 0 1 0 0-1.033zm-3.916 5.437a.516.516 0 0 0-.309.89l4.34 4.339a.517.517 0 0 0 .731-.732l-4.34-4.34a.52.52 0 0 0-.422-.157zm3.472-4.198a.52.52 0 0 0-.365.23l-1.47 2.167a.516.516 0 1 0 .853.58l1.47-2.166a.516.516 0 0 0-.488-.81z"/></g><path fill="#fff" stroke="#000" stroke-linecap="round" stroke-width=".689" d="m400.328 242.222 2.618 8.056h8.471l-6.853 4.98 2.618 8.056-6.854-4.979-6.853 4.98 2.617-8.057-6.853-4.98h8.471z"/><path fill="#069" d="M400.002 199.105c-52.243 0-94.656 42.413-94.656 94.656s42.413 94.625 94.656 94.625 94.656-42.382 94.656-94.625-42.413-94.656-94.656-94.656m0 18.875c41.828 0 75.781 33.953 75.781 75.78 0 41.829-33.953 75.75-75.781 75.75s-75.781-33.921-75.781-75.75c0-41.827 33.953-75.78 75.78-75.78z"/><path fill="none" stroke="#c70f2e" stroke-linecap="round" stroke-width="2.5" d="M456.603 293.75a56.603 56.603 0 1 1-113.206 0 56.603 56.603 0 1 1 113.206 0z"/><path d="m367.155 345.706 7.814 4.021-1.684 3.738-.45-.231q1.21-3.439-.666-4.404-.377-.195-.584-.136t-.362.358l-3.961 7.697q-.12.235-.041.416.08.18.392.342l.97.5-.25.488-4.475-2.303.252-.488 1.107.57q.221.113.395.063a.43.43 0 0 0 .268-.233l4.019-7.808q.128-.248.043-.452-.084-.203-.417-.375-.945-.486-2.035.081-.9.469-1.942 1.933l-.475-.244zm12.626 5.868 8.301 2.186-.732 3.586-.475-.125q.157-1.746-.28-2.573-.438-.828-1.422-1.086l-2.054-.541q-.248-.066-.411.036-.163.1-.236.377l-.982 3.732.9.237q.721.19 1.307-.208.587-.399.903-1.459l.49.129-1.278 4.851-.49-.128q.283-1.214-.037-1.855t-1.106-.847l-.822-.217-1.096 4.165a.43.43 0 0 0 .06.387q.122.16.475.254l1.622.427q2.643.696 3.934-2.57l.51.135-1.205 3.856-8.634-2.274.14-.53.715.188q.418.11.626.01.21-.101.281-.378l2.186-8.3q.072-.278-.04-.45-.114-.174-.433-.258l-.857-.226zm13.382 3.014 4.444.102-.012.55-.52-.013q-.564-.012-.753.078c-.189.09-.19.14-.192.238q-.003.11.203.422l2.002 3.094 1.644-2.38q.319-.462.325-.747a.52.52 0 0 0-.253-.46q-.26-.175-.984-.199l.012-.549 3.932.09-.012.55q-.644-.015-1.023.196-.513.281-.951.901l-2.301 3.2 3.306 5.014a.83.83 0 0 0 .355.312q.214.096.749.116l-.013.55-4.291-.1.013-.548.593.013q.432.01.599-.092.167-.103.17-.264.005-.168-.208-.495l-2.137-3.273-1.694 2.32q-.4.548-.41.972-.009.36.213.558.224.2.662.21l.425.01-.013.549-4.13-.095.013-.55a2.3 2.3 0 0 0 1.161-.314q.516-.306 1.024-1.013l2.368-3.257-2.86-4.315q-.34-.513-.608-.662-.269-.15-.86-.17l.012-.55zm18.97-1.418.48-.103 5.891 8.867q.356.537 1.065.384l.33-.07.115.536-4.224.911-.116-.537.337-.072q.659-.143.9-.344.165-.141.12-.348a.8.8 0 0 0-.106-.247l-1.366-2.058-4.181.902-.216 1.395q-.082.556-.017.858.075.35.455.53t1.003.047l.358-.077.116.537-3.838.827-.116-.537q.615-.133.916-.478.3-.346.439-1.162l1.656-9.76zm.233 2.085-.88 5.128 3.745-.808zm15.32-6.46.197-1.136.484-.226 1.71 3.559-.438.204q-1.18-1.453-2.34-1.834-1.158-.38-2.207.11-.875.408-1.19 1.193a1.87 1.87 0 0 0 .041 1.541q.22.472.598.727.378.257.904.282.525.026 1.81-.268 1.807-.405 2.638-.35.83.057 1.414.46.585.402.931 1.145.62 1.328.135 2.617-.486 1.29-1.9 1.95-1.52.708-3.1.25l-.322 1.266-.478.223-1.775-3.803.478-.223q1.014 1.443 2.407 1.9t2.607-.11q.983-.459 1.332-1.329t-.038-1.7a1.63 1.63 0 0 0-.618-.718q-.397-.246-1.015-.253t-2.259.339q-1.805.374-2.619.172-1.146-.29-1.725-1.531-.604-1.294-.163-2.506.44-1.213 1.728-1.813a3.5 3.5 0 0 1 1.277-.33q.66-.04 1.495.191zm-92.047-85.518-.772-.87.178-.425 4.095 1.504-.19.452q-1.882-.262-2.969.078-1.356.417-1.842 1.58-.525 1.257.266 2.516.792 1.26 3.468 2.377 2.25.94 3.812.529 1.322-.353 1.903-1.745.508-1.216.072-2.367-.435-1.15-1.906-2.059l.2-.48q1.697.956 2.233 2.37.537 1.414-.107 2.955a4.73 4.73 0 0 1-1.587 2.032q-1.065.782-2.505.915a5.9 5.9 0 0 1-2.846-.455 6.8 6.8 0 0 1-2.536-1.817q-1.04-1.192-1.28-2.475a4.2 4.2 0 0 1 .248-2.445q.27-.649.748-1.164.477-.515 1.317-1.006m1.424-4.552 2.578-4.28.47.284-.442.734q-.295.49-.25.692.045.203.44.44l7.027 4.233q.42.253.595.205.235-.064.473-.46l.495-.821.47.283-2.577 4.28-.47-.284.487-.81q.257-.426.207-.627c-.05-.201-.19-.286-.47-.455l-7.027-4.232q-.4-.242-.563-.186-.25.09-.534.56l-.438.727zm4.32-6.987 5.546-6.82 3.31 2.419-.319.392q-3.115-1.892-4.446-.255-.268.33-.254.544t.276.427l6.717 5.462q.204.166.398.125.195-.04.415-.313l.689-.847.426.347-3.174 3.904-.427-.347.786-.966q.158-.193.144-.374a.43.43 0 0 0-.173-.31l-6.813-5.54q-.217-.175-.433-.135-.218.04-.453.33-.67.825-.34 2.008.273.977 1.492 2.299l-.338.415zm7.49-8.937 3.594-3.1.358.417-.399.344q-.5.43-.582.638-.083.206.037.345.125.143.302.194l4.874 1.435-.88-4.048a1.1 1.1 0 0 0-.244-.486q-.248-.288-.585-.298-.337-.009-.687.293l-.382.33-.36-.416 3.129-2.698.359.416q-.539.465-.686.92-.148.457.013 1.227l1.098 5.097 2.239 2.596q.177.206.37.194.262-.022.577-.295l.705-.608.359.416-3.767 3.248-.358-.416.743-.64q.3-.259.34-.482a.49.49 0 0 0-.128-.417l-2.177-2.524-5.966-1.77a1.25 1.25 0 0 0-.696-.023q-.31.09-.842.527l-.359-.416zm19.78-14.08a4.9 4.9 0 0 1 2.627-.463 5 5 0 0 1 2.563 1.003q1.17.872 1.872 2.33.701 1.46.652 2.93t-.806 2.642a4.75 4.75 0 0 1-1.958 1.75 4.54 4.54 0 0 1-2.514.416q-1.34-.149-2.54-1.046-1.2-.9-1.9-2.357-.693-1.44-.645-2.888.047-1.449.78-2.61.735-1.162 1.87-1.708zm.35.457q-1.286.618-1.571 2.072-.285 1.453.877 3.87 1.26 2.62 2.56 3.23 1.302.61 2.51.029.844-.406 1.266-1.17.42-.763.325-1.936-.097-1.173-.871-2.783-.844-1.756-1.675-2.571-.83-.816-1.72-.974a2.73 2.73 0 0 0-1.7.233zm8.178-3.814 8.505-2.301 1.121 3.581-.488.132q-.83-1.778-1.57-2.185-.849-.475-2.094-.139l-1.675.453q-.247.067-.33.215-.08.147-.018.38l1.024 3.783.898-.243q.75-.203 1.06-.819t.068-1.657l.51-.137 1.275 4.715-.509.138q-.367-1.16-.934-1.546-.567-.385-1.33-.178l-.898.243 1.078 3.987q.096.354.305.453.21.099.626-.014l1.089-.295.143.53-5.027 1.36-.143-.53 1.075-.29q.324-.089.427-.256.103-.17.022-.466l-2.25-8.314q-.076-.282-.253-.364-.178-.08-.538.017l-1.025.277zm17.559-3.621 4.621.019-.002.549-.85-.004q-.446-.001-.582.155-.136.158-.139.765l-.013 3.34 4.958.02.014-3.34q.002-.63-.125-.776-.129-.147-.604-.15l-.791-.003.002-.549 4.6.019-.003.55-.842-.004q-.315-.002-.443.078a.57.57 0 0 0-.21.278q-.045.124-.047.652l-.031 7.793q-.003.563.092.681.19.25.695.252l.747.003-.002.55-4.6-.02.002-.549.791.003q.47.002.639-.253.095-.14.098-.732l.015-3.765-4.958-.02-.016 3.823q-.002.571.085.689.183.243.629.244l.85.004-.003.549-4.621-.019.002-.55.886.004a.65.65 0 0 0 .374-.093.55.55 0 0 0 .206-.27q.037-.117.04-.623l.031-7.822q.003-.607-.132-.766-.135-.158-.589-.16l-.776-.003zm20.174 1.36a4.9 4.9 0 0 1 2.36 1.241 5 5 0 0 1 1.414 2.361q.393 1.405.056 2.989-.337 1.582-1.275 2.716-.939 1.133-2.254 1.598t-2.62.187a4.54 4.54 0 0 1-2.244-1.209q-.968-.936-1.368-2.38-.4-1.446-.062-3.028.332-1.561 1.256-2.68.923-1.117 2.214-1.587t2.523-.207zm-.003.577q-1.397-.299-2.51.678-1.115.976-1.674 3.597-.606 2.844.05 4.122.657 1.278 1.967 1.558.918.195 1.718-.151t1.44-1.333q.642-.987 1.014-2.734.405-1.905.248-3.06-.159-1.152-.765-1.821a2.73 2.73 0 0 0-1.488-.856m8.576 1.806 4.6 1.963-.215.506-.923-.394q-.37-.159-.57-.1-.2.057-.307.307l-2.4 5.625q-.378.882-.415 1.4-.056.765.385 1.422.44.658 1.423 1.077 1.36.581 2.375.182 1.016-.399 1.518-1.578l1.952-4.574q.259-.607.308-.955a1.3 1.3 0 0 0-.034-.592 1.03 1.03 0 0 0-.29-.43q-.207-.189-.772-.43l.215-.505 3.766 1.607-.216.505-.27-.115q-.632-.27-1.087-.062-.456.207-.731.854l-2.09 4.898q-.685 1.603-1.966 2.068-1.441.523-3.153-.207-1.482-.633-2.151-1.416t-.717-1.735q-.033-.724.355-1.633l2.567-6.016a.48.48 0 0 0-.004-.428q-.103-.198-.42-.334l-.95-.405zm18.314 10.416 1.071-.423.446.296-2.146 3.314-.403-.268q.626-1.764.346-2.952t-1.244-1.828q-.806-.534-1.638-.392a1.87 1.87 0 0 0-1.294.838 1.74 1.74 0 0 0-.31.889q-.021.456.231.918.252.46 1.172 1.406 1.29 1.33 1.674 2.068.384.74.345 1.447t-.492 1.391q-.81 1.221-2.164 1.479-1.353.258-2.653-.605-1.398-.927-1.83-2.515l-1.248.385-.44-.292 2.32-3.497.44.292q-.703 1.617-.367 3.044.337 1.427 1.453 2.168.904.6 1.828.444.926-.156 1.431-.918.288-.434.291-.902t-.313-.999q-.316-.53-1.466-1.75-1.26-1.347-1.512-2.146-.35-1.13.407-2.27.79-1.191 2.054-1.446 1.263-.256 2.448.53.567.376.946.918t.617 1.376m4.914 2.627 6.364 6.063-2.67 3.11-.366-.348q2.13-2.958.602-4.413-.308-.293-.522-.296-.216-.001-.448.242l-5.971 6.268q-.183.19-.157.387.025.195.28.439l.79.752-.379.398-3.643-3.47.38-.399.9.86q.181.17.363.172.18 0 .322-.148l6.058-6.358q.192-.202.168-.42-.023-.22-.293-.478-.77-.733-1.976-.496-.995.195-2.408 1.306l-.387-.368zm12.027 12.937a4.9 4.9 0 0 1 .891 2.513q.101 1.395-.564 2.694-.666 1.299-1.988 2.232t-2.78 1.129q-1.46.194-2.74-.357a4.75 4.75 0 0 1-2.05-1.641 4.54 4.54 0 0 1-.828-2.41q-.075-1.346.612-2.678t2.01-2.266q1.303-.92 2.74-1.114t2.704.338q1.267.531 1.993 1.56m-.393.421q-.824-1.167-2.304-1.207-1.48-.039-3.67 1.506-2.376 1.677-2.762 3.06-.386 1.385.387 2.48.54.765 1.363 1.055.822.288 1.963 0 1.14-.291 2.6-1.32 1.592-1.124 2.259-2.079.667-.954.675-1.857a2.73 2.73 0 0 0-.511-1.638m5.181 7.438 1.038 2.368-5.172 9.4 5.642-2.472q.852-.374 1.09-.942.22-.52-.075-1.23l.503-.221 1.52 3.468-.503.22q-.233-.53-.494-.727-.262-.196-.737-.22a2.05 2.05 0 0 0-.937.178l-7.882 3.456-.277-.631 5.396-9.747-5.983 2.623q-.812.356-1.032.94-.219.585.144 1.449l-.504.22-1.658-3.783.503-.22q.339.699.96.922.622.224 1.26-.056l6.727-2.95.071-.166q.216-.494.22-.665a1.3 1.3 0 0 0-.126-.544l-.197-.45z" font-family="Century Schoolbook" font-size="15" font-weight="400" style="text-align:center;line-height:125%;-inkscape-font-specification:Century Schoolbook" text-anchor="middle"/><path fill="#fff" fill-rule="evenodd" stroke="#000" stroke-linejoin="round" stroke-width=".75" d="M444.163 343.855c.707-.09 1.477.155 2.187.718.984.78 1.967.439 2.594-.036 1.042-.789 2.928-1.512 3.64-.704 1.18-.439.88-3.18-1.036-3.027-.832.066-2.033.637-2.923 1.15l-.167-.51c.845-.674 1.807-1.21 2.962-1.636.813-.3 1.876-1.398.8-2.872.632-.812.345-1.485-.25-2.023-.594-.537-1.292-.755-2.036-.043-1.575-.923-2.562.245-2.778 1.084-.306 1.192-.744 2.203-1.33 3.111l-.525-.115c.422-.937.87-2.189.852-3.023-.041-1.922-2.798-1.945-3.116-.726.876.626.345 2.576-.334 3.691-.41.673-.651 1.684.224 2.585.632.65.972 1.408.954 2.12zm-88.311 0c-.707-.09-1.477.155-2.187.718-.984.78-1.966.439-2.594-.036-1.041-.789-2.928-1.512-3.639-.704-1.18-.439-.88-3.18 1.036-3.027.832.066 2.033.637 2.922 1.15l.168-.51c-.845-.674-1.807-1.21-2.962-1.636-.813-.3-1.876-1.398-.8-2.872-.633-.812-.345-1.485.25-2.023.594-.537 1.292-.755 2.036-.043 1.575-.923 2.561.245 2.777 1.084.307 1.192.745 2.203 1.33 3.111l.525-.115c-.422-.937-.869-2.189-.851-3.023.04-1.922 2.798-1.945 3.116-.726-.876.626-.346 2.576.334 3.691.41.673.651 1.684-.225 2.585-.631.65-.972 1.408-.953 2.12z"/></svg>