<svg xmlns="http://www.w3.org/2000/svg" width="800" height="400"><path fill="#fff" d="M0 0h800v400H0z"/><path fill="#fff" stroke="#002673" stroke-width="14" d="M344.361 174.08c0 67.72-54.962 122.682-122.683 122.682S98.995 241.8 98.995 174.08 153.957 51.397 221.678 51.397s122.683 54.962 122.683 122.683z"/><path fill="#002673" fill-rule="evenodd" d="M151.5 118.563c8.09-4.082 17.807-6.929 27.688-6.229 11.802.837 21.907 7.293 31.625 18.43 10.853 12.44 23.757 21.016 38.875 22.087 10.89.772 19.912-1.01 27.812-4.306v41.273c-6.923 3.903-17.579 6.257-27.688 5.54-11.802-.836-21.907-7.292-31.625-18.43-10.853-12.44-23.757-21.015-38.875-22.087-10.858-.77-20.19 1.794-27.812 5.02z"/><path fill="#002673" fill-rule="evenodd" d="M151.5 171.06c8.09-4.081 17.807-6.929 27.688-6.228 11.802.836 21.907 7.292 31.625 18.43 10.853 12.44 23.757 21.015 38.875 22.087 10.89.771 19.912-1.01 27.812-4.307l.063.026-.063 41.247c-6.923 3.903-17.579 6.257-27.688 5.54-11.802-.836-21.907-7.292-31.625-18.43-10.853-12.439-23.757-21.015-38.875-22.086-10.858-.77-20.19 1.793-27.812 5.02z"/><path fill="#002673" d="M279 118.5c0 14.352-11.648 26-26 26s-26-11.648-26-26 11.648-26 26-26 26 11.648 26 26"/><path fill="#c70f2e" fill-rule="evenodd" d="M800 85.41H621.315c-88.64 0-152.52 31.567-221.315 124.952S267.325 335.315 178.685 335.315H0V400h800z"/></svg>