<svg xmlns="http://www.w3.org/2000/svg" width="1024" height="682.66"><path fill="#f5dc0f" d="M0 0h1024v682.66H0z"/><g fill="#f5dc0f" fill-rule="evenodd" stroke="#000" stroke-width="5.12"><path d="M754.093 362.213c-.964-5.943-1.124-11.688.589-16.988.864-2.674 1.3-3.306 7.429-7.207 6.153-3.916 5.087-4.935 6.405-7.237 1.554 5.433 2.027 11.588.016 18.696-1.09 3.853-3.474 4.702-7.624 6.829-4.083 2.092-5.367 3.222-6.815 5.907z"/><path d="M761.145 330.33c-3.33 2.257-5.24 3.21-6.427 6.661-1.456 4.238-.502 6.945.03 8.026.904-3.235 3.669-4.585 7.69-7.038 3.977-2.426 5.29-4.61 6.128-7.122 1.227-3.679.49-6.446-.43-8.566-.721 3.84-3.638 5.764-6.991 8.038z"/><path d="M754.95 336.793c-1.58-5.81-2.34-11.507-1.19-16.957.58-2.749.947-3.424 6.635-7.943 5.71-4.538 4.544-5.44 5.614-7.868 2.113 5.242 3.227 11.313 1.97 18.592-.682 3.946-2.964 5.04-6.868 7.589-3.842 2.507-5.001 3.766-6.16 6.587z"/><path d="M758.63 304.347c-3.074 2.593-4.875 3.74-5.694 7.297-1.006 4.367.226 6.959.868 7.978.56-3.311 3.17-4.943 6.911-7.802 3.703-2.83 4.78-5.139 5.351-7.724.836-3.787-.186-6.462-1.324-8.474-.315 3.895-3.014 6.112-6.112 8.725z"/><path d="M753.146 311.422c-2.18-5.612-3.53-11.199-2.957-16.739.29-2.794.585-3.504 5.769-8.593 5.204-5.11 3.95-5.886 4.76-8.411 2.65 4.991 4.393 10.913 3.903 18.284-.265 3.995-2.42 5.322-6.037 8.264-3.559 2.895-4.58 4.268-5.438 7.195z"/><path d="M753.414 278.77c-2.787 2.9-4.458 4.23-4.9 7.852-.544 4.448.952 6.897 1.696 7.844.212-3.352 2.636-5.247 6.059-8.482 3.386-3.201 4.217-5.61 4.514-8.24.435-3.855-.86-6.409-2.202-8.29.093 3.906-2.36 6.394-5.167 9.315z"/><path d="M748.699 286.38c-2.754-5.355-4.681-10.77-4.69-16.339-.004-2.81.215-3.546 4.839-9.15 4.642-5.625 3.313-6.266 3.855-8.862 3.157 4.687 5.51 10.395 5.793 17.776.153 4.002-1.851 5.546-5.14 8.85-3.237 3.252-4.11 4.724-4.657 7.725z"/><path d="M745.553 253.877c-2.469 3.176-3.992 4.673-4.053 8.323-.076 4.48 1.668 6.76 2.507 7.623-.14-3.356 2.073-5.494 5.139-9.07 3.033-3.536 3.607-6.02 3.628-8.666.03-3.879-1.526-6.283-3.057-8.015.502 3.876-1.677 6.606-4.164 9.805z"/><path d="M741.659 261.939c-3.298-5.037-5.781-10.22-6.372-15.759-.298-2.794-.157-3.549 3.856-9.605 4.028-6.08 2.64-6.578 2.907-9.217 3.63 4.332 6.566 9.762 7.62 17.073.57 3.964-1.262 5.71-4.188 9.34-2.879 3.571-3.592 5.126-3.823 8.168z"/><path d="M735.133 229.944c-2.123 3.416-3.482 5.064-3.161 8.7.393 4.463 2.365 6.548 3.29 7.319-.49-3.323 1.488-5.68 4.163-9.556 2.647-3.835 2.958-6.365 2.702-9-.376-3.86-2.174-6.088-3.878-7.65.904 3.802-.978 6.745-3.116 10.187z"/><path d="M732.103 238.368c-3.807-4.665-6.818-9.56-7.985-15.007-.588-2.747-.527-3.513 2.831-9.955 3.37-6.468 1.938-6.818 1.928-9.47 4.063 3.928 7.55 9.022 9.362 16.183.982 3.882-.657 5.81-3.188 9.725-2.49 3.854-3.036 5.475-2.948 8.524z"/><path d="M722.268 207.23c-1.755 3.62-2.933 5.4-2.235 8.983.858 4.398 3.037 6.265 4.038 6.935-.834-3.253.886-5.805 3.141-9.939 2.231-4.09 2.277-6.639 1.747-9.232-.777-3.8-2.799-5.828-4.656-7.204 1.296 3.687-.268 6.81-2.035 10.457z"/><path d="M720.135 215.925c-4.273-4.242-7.78-8.795-9.51-14.09-.872-2.67-.89-3.439 1.775-10.197 2.677-6.784 1.215-6.983.928-9.62 4.45 3.483 8.452 8.184 11.002 15.116 1.383 3.758-.046 5.847-2.153 10.006-2.074 4.092-2.448 5.762-2.042 8.785z"/><path d="M707.1 185.986c-1.367 3.783-2.353 5.677-1.284 9.167 1.313 4.284 3.675 5.913 4.74 6.475-1.17-3.148.275-5.865 2.085-10.213 1.792-4.301 1.57-6.84.772-9.364-1.17-3.698-3.392-5.504-5.383-6.677 1.675 3.53.446 6.8-.93 10.612z"/><path d="M705.887 194.856c-4.693-3.772-8.656-7.934-10.93-13.019-1.147-2.565-1.246-3.327.699-10.326 1.952-7.028.478-7.072-.083-9.665 4.79 2.999 9.26 7.256 12.522 13.883 1.768 3.594.565 5.82-1.096 10.177-1.634 4.286-1.832 5.986-1.112 8.95z"/><path d="M689.793 166.443c-.964 3.905-1.746 5.893-.318 9.251 1.753 4.124 4.273 5.497 5.392 5.944-1.493-3.008-.341-5.862 1.005-10.374 1.332-4.465.847-6.968-.21-9.394-1.55-3.555-3.95-5.119-6.053-6.078 2.035 3.336 1.154 6.717.184 10.651z"/><path d="M689.514 175.391c-5.061-3.26-9.438-6.985-12.23-11.804-1.409-2.431-1.587-3.179-.384-10.343 1.207-7.193-.264-7.084-1.093-9.603 5.077 2.481 9.968 6.248 13.904 12.498 2.134 3.389 1.17 5.729-.026 10.235-1.177 4.434-1.196 6.145-.17 9.017z"/><path d="M670.539 148.817c-.55 3.984-1.12 6.043.65 9.234 2.175 3.917 4.825 5.02 5.984 5.347-1.799-2.836-.952-5.794-.084-10.423.858-4.58.114-7.017-1.192-9.32-1.913-3.374-4.462-4.678-6.654-5.412 2.372 3.106 1.85 6.56 1.296 10.574z"/><path d="M671.197 157.745c-5.374-2.713-10.116-5.96-13.397-10.461-1.655-2.27-1.91-2.996-1.464-10.247.45-7.28-1.002-7.017-2.09-9.436 5.309 1.937 10.567 5.172 15.135 10.977 2.476 3.147 1.762 5.574 1.043 10.181-.707 4.533-.547 6.237.773 8.986z"/><path d="M649.548 133.3c-.13 4.02-.483 6.126 1.612 9.115 2.573 3.669 5.323 4.488 6.51 4.693-2.086-2.633-1.552-5.663-1.173-10.357.374-4.645-.62-6.991-2.16-9.145-2.255-3.155-4.927-4.186-7.183-4.687 2.684 2.84 2.525 6.33 2.394 10.38z"/><path d="M651.136 142.11c-5.629-2.137-10.684-4.87-14.418-9.004-1.883-2.085-2.213-2.779-2.526-10.037-.315-7.286-1.73-6.873-3.066-9.166 5.483 1.372 11.05 4.039 16.2 9.335 2.792 2.87 2.335 5.36 2.102 10.016-.23 4.582.107 6.26 1.708 8.856z"/><path d="M627.05 120.061c.29 4.012.16 6.144 2.556 8.897 2.942 3.38 5.763 3.907 6.965 3.987-2.35-2.4-2.136-5.47-2.25-10.178-.113-4.658-1.348-6.887-3.103-8.868-2.573-2.903-5.338-3.648-7.634-3.91 2.966 2.544 3.173 6.03 3.466 10.072z"/><path d="M629.55 128.658c-5.821-1.537-11.135-3.727-15.28-7.448-2.09-1.876-2.491-2.532-3.562-9.718-1.074-7.214-2.44-6.655-4.006-8.795 5.596.79 11.411 2.862 17.086 7.59 3.077 2.563 2.883 5.086 3.138 9.742.25 4.58.76 6.214 2.624 8.629z"/><path d="M603.291 109.248c.708 3.959.802 6.093 3.473 8.58 3.278 3.054 6.14 3.284 7.343 3.238-2.588-2.142-2.696-5.217-3.301-9.888-.6-4.62-2.06-6.709-4.014-8.495-2.862-2.618-5.69-3.07-8.001-3.091 3.216 2.22 3.787 5.667 4.5 9.656z"/><path d="M606.676 117.536c-5.95-.92-11.463-2.543-15.974-5.81-2.276-1.648-2.743-2.258-4.558-9.292-1.823-7.063-3.122-6.364-4.904-8.329 5.647.202 11.647 1.653 17.786 5.762 3.327 2.228 3.399 4.758 4.138 9.361.728 4.53 1.407 6.1 3.512 8.308z"/><path d="M578.532 100.976c1.119 3.864 1.435 5.976 4.35 8.171 3.58 2.695 6.45 2.624 7.642 2.452-2.797-1.86-3.226-4.906-4.317-9.488-1.078-4.533-2.75-6.457-4.88-8.03-3.12-2.303-5.979-2.458-8.28-2.237 3.431 1.872 4.359 5.24 5.485 9.132z"/><path d="M582.765 108.865c-6.013-.293-11.666-1.33-16.494-4.108-2.435-1.4-2.964-1.959-5.504-8.765-2.551-6.833-3.77-6.002-5.748-7.77 5.638-.39 11.757.426 18.29 3.872 3.543 1.867 3.878 4.375 5.095 8.877 1.198 4.428 2.037 5.92 4.361 7.894z"/><path d="M553.045 95.339c1.516 3.725 2.05 5.793 5.18 7.67 3.842 2.306 6.688 1.936 7.856 1.64-2.976-1.557-3.721-4.542-5.285-8.984-1.546-4.395-3.41-6.134-5.692-7.475-3.344-1.966-6.204-1.82-8.469-1.36 3.608 1.503 4.882 4.755 6.41 8.509z"/><path d="M558.079 102.742c-6.011.337-11.742-.104-16.833-2.362-2.569-1.138-3.152-1.638-6.39-8.141-3.252-6.53-4.378-5.576-6.53-7.127 5.567-.977 11.738-.805 18.596 1.938 3.718 1.488 4.314 3.947 5.995 8.296 1.653 4.28 2.644 5.675 5.162 7.396z"/><path d="M527.107 92.396c1.897 3.547 2.646 5.547 5.954 7.087 4.062 1.892 6.854 1.226 7.984.81-3.122-1.237-4.175-4.128-6.195-8.383-1.997-4.21-4.032-5.744-6.442-6.84-3.53-1.604-6.36-1.161-8.564-.467 3.744 1.118 5.352 4.22 7.263 7.793z"/><path d="M532.888 99.232c-5.943.964-11.688 1.124-16.988-.589-2.674-.864-3.306-1.3-7.207-7.429-3.916-6.153-4.935-5.087-7.237-6.405 5.433-1.554 11.588-2.027 18.696-.016 3.853 1.09 4.702 3.474 6.829 7.624 2.092 4.083 3.222 5.367 5.907 6.815z"/><path d="M501.004 92.18c2.258 3.33 3.211 5.24 6.663 6.427 4.237 1.456 6.944.502 8.025-.03-3.235-.904-4.585-3.669-7.038-7.69-2.426-3.977-4.61-5.29-7.122-6.128-3.679-1.227-6.446-.49-8.566.43 3.84.721 5.764 3.638 8.038 6.991z"/><path d="M507.468 98.375c-5.81 1.58-11.507 2.34-16.957 1.19-2.749-.58-3.424-.947-7.943-6.635-4.538-5.71-5.44-4.544-7.868-5.614 5.242-2.113 11.313-3.227 18.592-1.97 3.946.682 5.04 2.964 7.589 6.868 2.507 3.842 3.766 5.001 6.587 6.16z"/><path d="M475.022 94.695c2.593 3.074 3.74 4.875 7.297 5.694 4.367 1.006 6.96-.226 7.978-.868-3.311-.56-4.943-3.17-7.802-6.911-2.83-3.703-5.139-4.78-7.724-5.351-3.787-.836-6.462.186-8.474 1.323 3.895.316 6.112 3.015 8.725 6.113z"/><path d="M482.097 100.18c-5.612 2.178-11.199 3.53-16.739 2.956-2.794-.29-3.504-.585-8.593-5.769-5.11-5.204-5.886-3.95-8.411-4.76 4.991-2.65 10.913-4.393 18.284-3.903 3.995.265 5.322 2.42 8.264 6.037 2.895 3.559 4.268 4.58 7.195 5.438z"/><path d="M449.444 99.91c2.9 2.788 4.23 4.459 7.853 4.902 4.448.543 6.897-.953 7.844-1.697-3.352-.212-5.247-2.636-8.482-6.059-3.201-3.386-5.61-4.217-8.24-4.514-3.855-.435-6.409.86-8.29 2.202 3.906-.094 6.394 2.36 9.315 5.167z"/><path d="M457.055 104.626c-5.355 2.754-10.77 4.681-16.339 4.69-2.81.004-3.546-.215-9.15-4.839-5.625-4.642-6.265-3.313-8.862-3.855 4.687-3.157 10.395-5.51 17.776-5.793 4.002-.153 5.546 1.851 8.85 5.14 3.252 3.237 4.724 4.11 7.725 4.657z"/><path d="M424.552 107.772c3.176 2.469 4.674 3.992 8.323 4.053 4.48.076 6.76-1.668 7.623-2.507-3.356.14-5.494-2.073-9.07-5.139-3.536-3.033-6.02-3.607-8.666-3.628-3.879-.03-6.283 1.526-8.015 3.057 3.876-.502 6.606 1.677 9.805 4.164z"/><path d="M432.614 111.666c-5.037 3.298-10.22 5.781-15.759 6.372-2.794.298-3.549.157-9.605-3.856-6.08-4.028-6.578-2.64-9.217-2.907 4.332-3.63 9.762-6.566 17.073-7.62 3.964-.57 5.71 1.262 9.34 4.188 3.571 2.879 5.126 3.592 8.168 3.823z"/><path d="M400.619 118.192c3.416 2.123 5.064 3.482 8.7 3.161 4.463-.393 6.548-2.365 7.319-3.29-3.323.49-5.68-1.488-9.556-4.163-3.835-2.647-6.365-2.958-9-2.702-3.86.376-6.088 2.174-7.65 3.878 3.802-.904 6.745.978 10.187 3.116z"/><path d="M409.043 121.222c-4.665 3.807-9.56 6.818-15.007 7.985-2.747.588-3.513.527-9.955-2.831-6.468-3.37-6.818-1.938-9.47-1.928 3.928-4.063 9.022-7.55 16.183-9.362 3.882-.982 5.81.657 9.725 3.188 3.854 2.49 5.475 3.036 8.524 2.948z"/><path d="M377.905 131.057c3.62 1.755 5.4 2.933 8.983 2.235 4.398-.858 6.265-3.037 6.935-4.038-3.253.834-5.805-.886-9.939-3.141-4.09-2.231-6.639-2.277-9.232-1.747-3.8.777-5.828 2.799-7.204 4.656 3.687-1.296 6.81.268 10.457 2.035z"/><path d="M386.6 133.19c-4.242 4.273-8.795 7.78-14.09 9.51-2.67.872-3.439.89-10.197-1.775-6.784-2.677-6.983-1.215-9.62-.928 3.483-4.45 8.184-8.452 15.116-11.002 3.758-1.383 5.847.046 10.006 2.153 4.092 2.074 5.762 2.448 8.785 2.042z"/><path d="M356.66 146.226c3.784 1.366 5.678 2.352 9.168 1.283 4.284-1.313 5.913-3.675 6.475-4.74-3.148 1.169-5.865-.275-10.213-2.085-4.301-1.792-6.84-1.57-9.364-.772-3.698 1.17-5.504 3.392-6.677 5.383 3.53-1.675 6.8-.446 10.612.93z"/><path d="M365.53 147.438c-3.77 4.693-7.933 8.656-13.018 10.93-2.565 1.147-3.327 1.246-10.326-.699-7.027-1.953-7.072-.478-9.665.083 2.999-4.79 7.256-9.261 13.883-12.522 3.594-1.768 5.82-.565 10.177 1.096 4.286 1.634 5.986 1.832 8.95 1.112z"/><path d="M337.118 163.532c3.905.964 5.893 1.746 9.251.318 4.124-1.753 5.497-4.273 5.945-5.392-3.01 1.493-5.863.341-10.375-1.005-4.465-1.332-6.968-.847-9.394.21-3.555 1.55-5.119 3.95-6.078 6.053 3.336-2.035 6.717-1.154 10.651-.184z"/><path d="M346.066 163.81c-3.26 5.062-6.985 9.439-11.804 12.231-2.431 1.409-3.179 1.587-10.343.384-7.193-1.207-7.084.264-9.603 1.093 2.481-5.077 6.248-9.968 12.498-13.904 3.389-2.134 5.729-1.17 10.235.026 4.434 1.177 6.145 1.196 9.017.17z"/><path d="M319.492 182.786c3.984.55 6.043 1.12 9.234-.65 3.917-2.175 5.02-4.825 5.348-5.984-2.837 1.799-5.795.952-10.424.084-4.58-.858-7.017-.114-9.32 1.192-3.374 1.913-4.678 4.462-5.412 6.654 3.106-2.372 6.56-1.85 10.574-1.296z"/><path d="M328.42 182.128c-2.713 5.374-5.96 10.116-10.461 13.397-2.27 1.655-2.996 1.91-10.247 1.464-7.28-.45-7.017 1.002-9.436 2.09 1.937-5.309 5.172-10.567 10.977-15.135 3.147-2.476 5.574-1.762 10.181-1.043 4.533.707 6.237.547 8.986-.773z"/><path d="M303.975 203.777c4.02.13 6.126.483 9.115-1.612 3.669-2.573 4.488-5.323 4.693-6.51-2.633 2.086-5.663 1.552-10.357 1.173-4.645-.374-6.991.62-9.145 2.16-3.155 2.255-4.186 4.927-4.687 7.183 2.84-2.684 6.33-2.525 10.38-2.394z"/><path d="M312.785 202.19c-2.136 5.628-4.87 10.683-9.004 14.417-2.085 1.883-2.779 2.213-10.037 2.526-7.286.315-6.873 1.73-9.166 3.066 1.372-5.483 4.039-11.05 9.335-16.2 2.87-2.792 5.36-2.335 10.016-2.102 4.582.23 6.26-.107 8.856-1.708z"/><path d="M290.736 226.275c4.012-.29 6.144-.16 8.897-2.556 3.38-2.942 3.907-5.763 3.987-6.965-2.4 2.35-5.47 2.136-10.178 2.25-4.658.113-6.887 1.348-8.868 3.103-2.903 2.573-3.648 5.338-3.91 7.634 2.544-2.966 6.03-3.173 10.072-3.466z"/><path d="M299.333 223.775c-1.537 5.821-3.727 11.135-7.448 15.28-1.876 2.09-2.532 2.491-9.718 3.562-7.214 1.074-6.655 2.44-8.795 4.006.79-5.596 2.862-11.411 7.59-17.086 2.563-3.077 5.086-2.883 9.742-3.138 4.58-.25 6.214-.76 8.629-2.624z"/><path d="M279.923 250.034c3.96-.708 6.093-.802 8.58-3.473 3.054-3.278 3.284-6.14 3.238-7.343-2.142 2.588-5.217 2.696-9.888 3.301-4.62.6-6.709 2.06-8.495 4.014-2.618 2.862-3.07 5.69-3.091 8.001 2.22-3.216 5.667-3.787 9.656-4.5z"/><path d="M288.21 246.649c-.92 5.95-2.542 11.463-5.809 15.974-1.648 2.276-2.258 2.743-9.292 4.558-7.062 1.823-6.364 3.122-8.329 4.904.202-5.647 1.653-11.648 5.763-17.786 2.227-3.327 4.757-3.399 9.36-4.138 4.53-.728 6.1-1.407 8.308-3.512z"/><path d="M271.651 274.793c3.864-1.119 5.976-1.435 8.171-4.35 2.695-3.58 2.624-6.45 2.452-7.642-1.86 2.797-4.906 3.226-9.488 4.317-4.533 1.078-6.457 2.75-8.03 4.88-2.303 3.12-2.458 5.979-2.237 8.28 1.872-3.431 5.24-4.359 9.132-5.485z"/><path d="M279.54 270.56c-.293 6.013-1.33 11.666-4.108 16.494-1.4 2.435-1.959 2.964-8.765 5.504-6.833 2.551-6.002 3.77-7.77 5.748-.39-5.638.427-11.757 3.872-18.29 1.867-3.543 4.375-3.878 8.877-5.095 4.428-1.198 5.92-2.037 7.894-4.361z"/><path d="M266.014 300.28c3.725-1.516 5.793-2.05 7.67-5.18 2.306-3.842 1.936-6.688 1.64-7.856-1.556 2.976-4.542 3.721-8.984 5.285-4.395 1.546-6.134 3.41-7.475 5.692-1.966 3.344-1.82 6.204-1.36 8.469 1.503-3.608 4.755-4.882 8.509-6.41z"/><path d="M273.417 295.246c.337 6.011-.104 11.742-2.362 16.833-1.138 2.569-1.638 3.152-8.141 6.39-6.53 3.252-5.576 4.378-7.127 6.53-.977-5.567-.805-11.738 1.938-18.596 1.488-3.718 3.947-4.314 8.296-5.995 4.28-1.653 5.675-2.644 7.396-5.162z"/><path d="M263.07 326.218c3.548-1.897 5.548-2.646 7.088-5.954 1.892-4.062 1.226-6.854.81-7.984-1.237 3.122-4.128 4.175-8.383 6.195-4.21 1.997-5.744 4.032-6.84 6.442-1.604 3.53-1.161 6.36-.467 8.564 1.118-3.744 4.22-5.352 7.793-7.263z"/><path d="M269.907 320.437c.964 5.943 1.124 11.688-.589 16.988-.864 2.674-1.3 3.306-7.429 7.207-6.153 3.915-5.087 4.935-6.405 7.237-1.554-5.433-2.027-11.588-.016-18.696 1.09-3.853 3.474-4.703 7.624-6.829 4.083-2.092 5.367-3.222 6.815-5.907z"/><path d="M262.855 352.32c3.33-2.257 5.24-3.21 6.427-6.662 1.456-4.237.502-6.944-.03-8.025-.904 3.235-3.669 4.585-7.69 7.038-3.977 2.426-5.29 4.61-6.128 7.122-1.227 3.679-.49 6.446.43 8.566.721-3.84 3.638-5.764 6.991-8.038z"/><path d="M269.05 345.857c1.58 5.81 2.34 11.507 1.19 16.957-.58 2.749-.947 3.424-6.635 7.943-5.71 4.538-4.544 5.44-5.614 7.868-2.113-5.242-3.227-11.313-1.97-18.592.682-3.946 2.964-5.04 6.868-7.589 3.842-2.507 5.001-3.766 6.16-6.587z"/><path d="M265.37 378.303c3.074-2.593 4.875-3.74 5.694-7.297 1.006-4.367-.226-6.96-.868-7.978-.56 3.311-3.17 4.943-6.911 7.802-3.703 2.83-4.78 5.139-5.351 7.724-.836 3.787.186 6.462 1.324 8.474.315-3.895 3.014-6.112 6.112-8.725z"/><path d="M270.854 371.228c2.18 5.612 3.53 11.199 2.957 16.739-.29 2.794-.585 3.504-5.769 8.593-5.204 5.11-3.95 5.886-4.76 8.411-2.65-4.991-4.393-10.913-3.903-18.284.265-3.995 2.42-5.322 6.037-8.264 3.559-2.895 4.58-4.268 5.438-7.195z"/><path d="M270.586 403.88c2.787-2.9 4.458-4.23 4.9-7.852.544-4.448-.952-6.897-1.696-7.844-.212 3.352-2.636 5.247-6.059 8.482-3.386 3.201-4.217 5.61-4.514 8.24-.435 3.855.86 6.409 2.202 8.29-.093-3.906 2.36-6.394 5.167-9.315z"/><path d="M275.301 396.27c2.754 5.355 4.681 10.77 4.69 16.339.004 2.81-.215 3.546-4.839 9.15-4.642 5.625-3.313 6.265-3.855 8.862-3.157-4.687-5.51-10.395-5.793-17.776-.153-4.002 1.851-5.546 5.14-8.85 3.237-3.252 4.11-4.724 4.657-7.725z"/><path d="M278.447 428.773c2.469-3.176 3.992-4.674 4.053-8.323.076-4.48-1.668-6.76-2.507-7.623.14 3.356-2.073 5.494-5.139 9.07-3.033 3.536-3.607 6.02-3.628 8.666-.03 3.879 1.526 6.283 3.057 8.015-.502-3.876 1.677-6.606 4.164-9.805z"/><path d="M282.341 420.711c3.298 5.037 5.781 10.22 6.372 15.759.298 2.794.157 3.549-3.856 9.605-4.028 6.08-2.64 6.578-2.907 9.217-3.63-4.332-6.566-9.762-7.62-17.073-.57-3.964 1.262-5.71 4.188-9.34 2.879-3.571 3.592-5.126 3.823-8.168z"/><path d="M288.867 452.706c2.123-3.416 3.482-5.064 3.161-8.7-.393-4.463-2.365-6.548-3.29-7.32.49 3.324-1.488 5.681-4.163 9.557-2.647 3.835-2.958 6.365-2.702 9 .376 3.86 2.174 6.088 3.878 7.65-.904-3.802.978-6.745 3.116-10.187z"/><path d="M291.897 444.282c3.807 4.665 6.818 9.56 7.985 15.006.588 2.748.527 3.514-2.831 9.956-3.37 6.468-1.938 6.818-1.928 9.47-4.063-3.928-7.55-9.022-9.362-16.183-.982-3.882.657-5.81 3.188-9.725 2.49-3.854 3.036-5.475 2.948-8.524z"/><path d="M301.732 475.42c1.755-3.62 2.933-5.4 2.235-8.983-.858-4.398-3.037-6.265-4.038-6.935.834 3.253-.886 5.805-3.141 9.939-2.231 4.09-2.277 6.639-1.747 9.232.777 3.8 2.799 5.828 4.656 7.204-1.296-3.687.268-6.81 2.035-10.457z"/><path d="M303.865 466.725c4.273 4.242 7.78 8.795 9.51 14.09.872 2.67.89 3.439-1.775 10.197-2.677 6.784-1.215 6.983-.928 9.62-4.45-3.483-8.452-8.184-11.002-15.116-1.383-3.758.046-5.847 2.153-10.006 2.074-4.092 2.448-5.762 2.042-8.785z"/><path d="M316.9 496.664c1.367-3.783 2.353-5.677 1.284-9.167-1.313-4.284-3.675-5.913-4.74-6.475 1.17 3.148-.275 5.865-2.085 10.213-1.792 4.301-1.57 6.84-.772 9.364 1.17 3.698 3.392 5.504 5.383 6.677-1.675-3.53-.446-6.8.93-10.612z"/><path d="M318.113 487.794c4.693 3.772 8.656 7.934 10.93 13.019 1.147 2.565 1.246 3.327-.699 10.326-1.952 7.027-.478 7.072.083 9.665-4.79-2.999-9.26-7.256-12.522-13.883-1.768-3.594-.565-5.82 1.096-10.177 1.634-4.286 1.832-5.986 1.112-8.95z"/><path d="M334.207 516.207c.964-3.905 1.746-5.893.318-9.251-1.753-4.124-4.273-5.497-5.392-5.945 1.493 3.01.341 5.862-1.005 10.375-1.332 4.465-.847 6.968.21 9.394 1.55 3.555 3.95 5.119 6.053 6.078-2.035-3.336-1.154-6.717-.184-10.651z"/><path d="M334.486 507.259c5.061 3.26 9.438 6.985 12.23 11.804 1.409 2.431 1.587 3.179.384 10.343-1.207 7.193.264 7.084 1.093 9.603-5.077-2.481-9.968-6.248-13.904-12.498-2.134-3.389-1.17-5.729.026-10.235 1.177-4.434 1.196-6.145.17-9.017z"/><path d="M353.461 533.833c.55-3.984 1.12-6.043-.65-9.234-2.175-3.917-4.825-5.02-5.984-5.348 1.799 2.837.952 5.795.084 10.424-.858 4.58-.114 7.017 1.192 9.32 1.913 3.374 4.462 4.678 6.654 5.412-2.372-3.106-1.85-6.56-1.296-10.574z"/><path d="M352.803 524.905c5.374 2.713 10.116 5.96 13.397 10.461 1.655 2.27 1.91 2.996 1.464 10.247-.45 7.28 1.002 7.017 2.09 9.436-5.309-1.937-10.567-5.172-15.135-10.977-2.476-3.147-1.762-5.574-1.043-10.181.707-4.533.547-6.237-.773-8.986z"/><path d="M374.452 549.35c.13-4.02.483-6.126-1.612-9.115-2.573-3.669-5.323-4.488-6.51-4.693 2.086 2.633 1.552 5.663 1.173 10.357-.374 4.645.62 6.991 2.16 9.145 2.255 3.155 4.927 4.186 7.183 4.687-2.684-2.84-2.525-6.33-2.394-10.38z"/><path d="M372.864 540.54c5.629 2.136 10.684 4.87 14.418 9.004 1.883 2.085 2.213 2.779 2.526 10.037.315 7.286 1.73 6.873 3.066 9.165-5.483-1.37-11.05-4.038-16.2-9.334-2.792-2.87-2.335-5.36-2.102-10.016.23-4.582-.107-6.26-1.708-8.856z"/><path d="M396.95 562.588c-.29-4.011-.16-6.143-2.556-8.896-2.942-3.38-5.763-3.907-6.965-3.987 2.35 2.4 2.136 5.47 2.25 10.178.113 4.658 1.348 6.887 3.103 8.868 2.573 2.903 5.338 3.648 7.634 3.91-2.966-2.544-3.173-6.03-3.466-10.073z"/><path d="M394.45 553.992c5.821 1.537 11.135 3.727 15.28 7.448 2.09 1.876 2.491 2.532 3.562 9.718 1.074 7.214 2.44 6.655 4.006 8.795-5.596-.79-11.411-2.862-17.086-7.59-3.077-2.563-2.883-5.086-3.138-9.742-.25-4.58-.76-6.214-2.624-8.629z"/><path d="M420.709 573.402c-.708-3.96-.802-6.093-3.473-8.58-3.278-3.054-6.14-3.284-7.343-3.238 2.588 2.142 2.696 5.217 3.301 9.887.6 4.621 2.06 6.71 4.014 8.496 2.862 2.618 5.69 3.07 8.001 3.091-3.216-2.22-3.787-5.667-4.5-9.656z"/><path d="M417.324 565.114c5.95.92 11.463 2.543 15.974 5.81 2.276 1.648 2.743 2.258 4.558 9.292 1.823 7.062 3.122 6.364 4.904 8.329-5.647-.202-11.647-1.653-17.786-5.763-3.327-2.227-3.399-4.757-4.138-9.36-.728-4.53-1.407-6.1-3.512-8.308z"/><path d="M445.468 581.674c-1.119-3.864-1.435-5.976-4.35-8.171-3.58-2.695-6.45-2.624-7.642-2.452 2.797 1.86 3.226 4.906 4.317 9.488 1.078 4.532 2.75 6.457 4.88 8.03 3.12 2.303 5.979 2.458 8.28 2.237-3.431-1.872-4.359-5.24-5.485-9.132z"/><path d="M441.235 573.785c6.013.293 11.666 1.33 16.494 4.108 2.435 1.4 2.964 1.959 5.504 8.765 2.551 6.833 3.77 6.002 5.748 7.77-5.638.39-11.757-.427-18.29-3.872-3.543-1.867-3.878-4.375-5.095-8.877-1.198-4.428-2.037-5.92-4.361-7.894z"/><path d="M470.955 587.311c-1.516-3.725-2.05-5.793-5.18-7.67-3.842-2.306-6.688-1.936-7.856-1.64 2.976 1.556 3.721 4.542 5.285 8.984 1.546 4.395 3.41 6.134 5.692 7.475 3.344 1.966 6.204 1.82 8.469 1.36-3.608-1.503-4.882-4.755-6.41-8.509z"/><path d="M465.921 579.908c6.011-.337 11.742.104 16.833 2.362 2.569 1.138 3.152 1.638 6.39 8.141 3.252 6.53 4.378 5.576 6.53 7.127-5.567.977-11.738.805-18.596-1.938-3.718-1.488-4.314-3.947-5.995-8.296-1.653-4.28-2.644-5.675-5.162-7.396z"/><path d="M496.893 590.254c-1.897-3.547-2.646-5.547-5.954-7.087-4.062-1.892-6.854-1.226-7.984-.81 3.122 1.237 4.175 4.128 6.195 8.383 1.997 4.21 4.032 5.744 6.442 6.84 3.53 1.604 6.36 1.161 8.564.467-3.744-1.118-5.352-4.22-7.263-7.793z"/><path d="M491.112 583.418c5.943-.964 11.688-1.124 16.988.589 2.674.864 3.306 1.3 7.207 7.429 3.916 6.153 4.935 5.087 7.237 6.405-5.433 1.554-11.588 2.027-18.696.016-3.853-1.09-4.702-3.474-6.829-7.624-2.092-4.083-3.222-5.367-5.907-6.815z"/><path d="M522.996 590.47c-2.258-3.33-3.211-5.24-6.663-6.427-4.237-1.456-6.944-.502-8.025.03 3.235.904 4.585 3.669 7.038 7.69 2.426 3.977 4.61 5.29 7.122 6.128 3.679 1.227 6.446.49 8.566-.43-3.84-.721-5.764-3.638-8.038-6.991z"/><path d="M516.532 584.275c5.81-1.58 11.507-2.34 16.957-1.19 2.749.58 3.424.947 7.943 6.635 4.538 5.71 5.44 4.544 7.868 5.614-5.242 2.113-11.313 3.227-18.592 1.97-3.946-.682-5.04-2.964-7.589-6.868-2.507-3.842-3.766-5.001-6.587-6.16z"/><path d="M548.978 587.955c-2.593-3.074-3.74-4.875-7.297-5.694-4.367-1.006-6.96.226-7.978.868 3.311.56 4.943 3.17 7.802 6.911 2.83 3.703 5.139 4.78 7.724 5.351 3.787.836 6.462-.186 8.474-1.324-3.895-.315-6.112-3.014-8.725-6.112z"/><path d="M541.903 582.47c5.612-2.178 11.199-3.53 16.739-2.956 2.794.29 3.504.585 8.593 5.769 5.11 5.204 5.886 3.95 8.411 4.76-4.991 2.65-10.913 4.393-18.284 3.903-3.995-.265-5.322-2.42-8.264-6.037-2.895-3.559-4.268-4.58-7.195-5.438z"/><path d="M574.556 582.74c-2.9-2.788-4.23-4.459-7.853-4.902-4.448-.543-6.897.953-7.844 1.697 3.352.212 5.247 2.636 8.482 6.059 3.201 3.386 5.61 4.217 8.24 4.514 3.855.435 6.409-.86 8.29-2.202-3.906.093-6.394-2.36-9.315-5.167z"/><path d="M566.945 578.024c5.355-2.754 10.77-4.681 16.339-4.69 2.81-.004 3.546.215 9.15 4.839 5.625 4.642 6.265 3.313 8.862 3.855-4.687 3.157-10.395 5.51-17.776 5.793-4.002.153-5.546-1.851-8.85-5.14-3.252-3.237-4.724-4.11-7.725-4.657z"/><path d="M599.448 574.878c-3.176-2.469-4.674-3.992-8.323-4.053-4.48-.076-6.76 1.668-7.623 2.507 3.356-.14 5.494 2.073 9.07 5.139 3.536 3.033 6.02 3.607 8.666 3.628 3.879.03 6.283-1.526 8.015-3.057-3.876.502-6.606-1.677-9.805-4.164z"/><path d="M591.386 570.984c5.037-3.298 10.22-5.781 15.759-6.372 2.794-.298 3.549-.157 9.605 3.856 6.08 4.028 6.578 2.64 9.217 2.907-4.332 3.63-9.762 6.566-17.073 7.62-3.964.57-5.71-1.262-9.34-4.188-3.571-2.879-5.126-3.592-8.168-3.823z"/><path d="M623.381 564.458c-3.416-2.123-5.064-3.482-8.7-3.161-4.463.393-6.548 2.365-7.319 3.29 3.323-.49 5.68 1.488 9.556 4.163 3.835 2.647 6.365 2.958 9 2.702 3.86-.376 6.088-2.174 7.65-3.878-3.802.904-6.745-.978-10.187-3.116z"/><path d="M614.957 561.428c4.665-3.807 9.56-6.818 15.007-7.985 2.747-.588 3.513-.527 9.955 2.831 6.468 3.37 6.818 1.938 9.47 1.928-3.928 4.063-9.022 7.55-16.183 9.362-3.882.982-5.81-.657-9.725-3.188-3.854-2.49-5.475-3.036-8.524-2.948z"/><path d="M646.095 551.593c-3.62-1.755-5.4-2.933-8.983-2.235-4.398.858-6.265 3.037-6.935 4.038 3.253-.834 5.805.886 9.939 3.141 4.09 2.231 6.639 2.277 9.232 1.747 3.8-.777 5.828-2.799 7.204-4.656-3.687 1.296-6.81-.268-10.457-2.035z"/><path d="M637.4 549.46c4.242-4.273 8.795-7.78 14.09-9.51 2.67-.872 3.439-.89 10.197 1.775 6.784 2.677 6.983 1.215 9.62.928-3.483 4.45-8.184 8.452-15.116 11.002-3.758 1.383-5.847-.046-10.006-2.154-4.092-2.073-5.762-2.447-8.785-2.041z"/><path d="M667.34 536.424c-3.784-1.366-5.678-2.352-9.168-1.283-4.284 1.313-5.913 3.675-6.475 4.74 3.148-1.17 5.865.274 10.213 2.085 4.301 1.792 6.84 1.57 9.364.772 3.698-1.17 5.504-3.392 6.677-5.383-3.53 1.675-6.8.446-10.612-.931z"/><path d="M658.47 535.212c3.77-4.693 7.933-8.656 13.018-10.93 2.565-1.147 3.327-1.246 10.326.699 7.027 1.952 7.072.478 9.665-.083-2.999 4.79-7.256 9.26-13.883 12.522-3.594 1.768-5.82.565-10.177-1.096-4.286-1.634-5.986-1.832-8.95-1.112z"/><path d="M686.882 519.118c-3.905-.964-5.893-1.746-9.251-.318-4.124 1.753-5.497 4.273-5.945 5.392 3.01-1.493 5.863-.341 10.375 1.005 4.465 1.332 6.968.847 9.394-.21 3.555-1.55 5.119-3.95 6.078-6.053-3.336 2.035-6.717 1.154-10.651.184z"/><path d="M677.934 518.84c3.26-5.062 6.985-9.439 11.804-12.231 2.431-1.409 3.179-1.587 10.343-.384 7.193 1.207 7.084-.264 9.603-1.093-2.481 5.077-6.248 9.968-12.498 13.904-3.389 2.134-5.729 1.17-10.235-.026-4.434-1.177-6.145-1.196-9.017-.17z"/><path d="M704.508 499.864c-3.984-.55-6.043-1.12-9.234.65-3.917 2.175-5.02 4.825-5.348 5.984 2.837-1.799 5.795-.952 10.424-.084 4.58.858 7.017.114 9.32-1.192 3.374-1.913 4.678-4.462 5.412-6.654-3.106 2.372-6.56 1.85-10.574 1.296z"/><path d="M695.58 500.522c2.713-5.374 5.96-10.116 10.461-13.397 2.27-1.655 2.996-1.91 10.247-1.464 7.28.45 7.017-1.002 9.436-2.09-1.937 5.309-5.172 10.567-10.977 15.135-3.147 2.476-5.574 1.762-10.181 1.043-4.533-.707-6.237-.547-8.986.773z"/><path d="M720.025 478.873c-4.02-.13-6.126-.483-9.115 1.612-3.669 2.573-4.488 5.323-4.693 6.51 2.633-2.086 5.663-1.552 10.357-1.173 4.645.374 6.991-.62 9.145-2.16 3.155-2.255 4.186-4.927 4.687-7.183-2.84 2.683-6.33 2.525-10.38 2.394z"/><path d="M711.215 480.46c2.136-5.628 4.87-10.683 9.004-14.417 2.085-1.883 2.779-2.213 10.037-2.526 7.286-.315 6.873-1.73 9.166-3.066-1.372 5.483-4.039 11.05-9.335 16.2-2.87 2.792-5.36 2.335-10.016 2.102-4.582-.23-6.26.107-8.856 1.708z"/><path d="M733.264 456.375c-4.012.29-6.144.16-8.897 2.556-3.38 2.942-3.907 5.763-3.987 6.965 2.4-2.35 5.47-2.136 10.178-2.25 4.658-.113 6.887-1.348 8.868-3.103 2.903-2.573 3.648-5.338 3.91-7.634-2.544 2.966-6.03 3.173-10.072 3.466z"/><path d="M724.667 458.875c1.537-5.821 3.727-11.135 7.448-15.28 1.876-2.09 2.532-2.491 9.718-3.562 7.214-1.074 6.655-2.44 8.795-4.006-.79 5.596-2.862 11.411-7.59 17.086-2.563 3.077-5.086 2.883-9.742 3.138-4.58.25-6.214.76-8.629 2.624z"/><path d="M744.077 432.616c-3.96.708-6.093.802-8.58 3.473-3.054 3.278-3.284 6.14-3.238 7.343 2.142-2.588 5.217-2.696 9.888-3.301 4.62-.6 6.709-2.06 8.495-4.014 2.618-2.862 3.07-5.69 3.091-8.001-2.22 3.216-5.667 3.787-9.656 4.5z"/><path d="M735.79 436.001c.92-5.95 2.542-11.463 5.809-15.974 1.648-2.276 2.258-2.743 9.292-4.558 7.062-1.823 6.364-3.122 8.329-4.904-.202 5.647-1.653 11.647-5.763 17.786-2.227 3.327-4.757 3.399-9.36 4.138-4.53.728-6.1 1.407-8.308 3.512z"/><path d="M752.349 407.857c-3.864 1.119-5.976 1.435-8.171 4.35-2.695 3.58-2.624 6.45-2.452 7.642 1.86-2.797 4.906-3.226 9.488-4.317 4.533-1.078 6.457-2.75 8.03-4.88 2.303-3.12 2.458-5.979 2.237-8.28-1.872 3.431-5.24 4.359-9.132 5.485z"/><path d="M744.46 412.09c.293-6.013 1.33-11.666 4.108-16.494 1.4-2.435 1.959-2.964 8.765-5.504 6.833-2.551 6.002-3.77 7.77-5.748.39 5.638-.427 11.757-3.872 18.29-1.867 3.543-4.375 3.878-8.877 5.095-4.428 1.198-5.92 2.037-7.894 4.361z"/><path d="M757.986 382.37c-3.725 1.516-5.793 2.05-7.67 5.18-2.306 3.842-1.936 6.688-1.64 7.856 1.556-2.976 4.542-3.721 8.984-5.285 4.395-1.546 6.134-3.41 7.475-5.692 1.966-3.344 1.82-6.204 1.36-8.469-1.503 3.608-4.755 4.882-8.509 6.41z"/><path d="M750.583 387.404c-.337-6.011.104-11.742 2.362-16.833 1.138-2.569 1.638-3.153 8.141-6.39 6.53-3.252 5.576-4.378 7.127-6.53.977 5.567.805 11.738-1.938 18.596-1.488 3.718-3.947 4.314-8.296 5.995-4.28 1.653-5.675 2.644-7.396 5.162z"/><path d="M760.93 356.432c-3.548 1.897-5.548 2.646-7.088 5.954-1.892 4.062-1.226 6.854-.81 7.984 1.237-3.122 4.128-4.175 8.383-6.195 4.21-1.997 5.744-4.032 6.84-6.442 1.604-3.53 1.161-6.36.467-8.564-1.118 3.744-4.22 5.352-7.793 7.263z"/></g><path fill="#fff" stroke="#000" stroke-linecap="round" stroke-width="3.2" d="M746.162 341.325c0 129.324-104.838 234.162-234.162 234.162S277.838 470.649 277.838 341.325 382.676 107.163 512 107.163s234.162 104.838 234.162 234.162z"/><path fill="#2a7ae9" fill-rule="evenodd" d="M674.62 335.186H346.84l16.516-71.146 50.819-59.077 75.593-26.68 101.002 12.705 65.43 57.806 20.962 41.926-2.54 44.466z"/><path fill="#9b6633" fill-rule="evenodd" stroke="#000" stroke-width="3.2" d="m578.88 310.303 19.707 1.6 10.688-5.44 10.02-5.76 8.017 4.48 4.008 5.12 7.683 1.92 6.012 5.44 13.026 4.16 8.35 6.08 4.009 6.4h-91.186z"/><path fill="#f5dc0f" fill-rule="evenodd" stroke="#2a7ae9" stroke-width="2.56" d="m531.832 193.97-9.304-2.818-4.334 20.401 4.843 1.509zm22.335 19.564-5.442-7.015-15.683 13.928 3.097 4.208zm-9.845-11.58-7.499-5.279-10.45 18.134 4.049 3.017zM512 210.971l2.574.107 2.415-20.11-4.989-.16-4.989.16 2.415 20.11zm-19.832-17.001 9.304-2.818 4.334 20.401-4.843 1.509zm-12.49 7.984 7.499-5.279 10.45 18.134-4.049 3.017zm-9.845 11.58 5.442-7.015 15.683 13.928-3.097 4.208z"/><path fill="#9b6633" fill-rule="evenodd" stroke="#000" stroke-width="3.2" d="m436.483 313.607-7.24-8.599-5.658-4.978-10.182-.905-5.883-5.43-5.657-4.073-2.942-5.205-3.394-.226-3.168 5.657-4.751 7.015-5.883 6.335-7.015 4.526-6.562-4.526-13.138-10.256-9.282 28.334-2.609 39.139 13.699 53.816 19.243 30.985 22.18 19.896 52.51-20.222 1.958-123.288z"/><path fill-rule="evenodd" d="m376.372 307.348 2.75 6.146 4.376 5.738 1.469 6.116 1.664 4.86 1.529-5.25 4.086-7.165 4.413-5.544-1.132-10.182 2.263-12.219-.226 10.635 1.584 6.336-1.358 8.824-6.336 7.241-2.85 8.609-4.63-.802-1.53-6.368-3.774-7.696-6.68-9.334zm35.241 4.632 1.141 10.437-4.403 7.176-2.283 9.459-6.686 8.48 3.424-9.948 3.262-5.219 1.957-8.48 2.772-3.425zm8.317 19.896-7.502 4.403-4.566 7.502-2.936 9.785 3.914-5.056 1.468-6.034 4.403-3.75zm-22.016 32.616 4.892-10.763-1.467 7.99 1.793 8.644zm-29.191-21.69-2.12-9.132.652-6.523-4.566-7.013 2.283 8.97-.652 8.154z"/><path fill="#008d38" fill-rule="evenodd" stroke="#000" stroke-width="2.56" d="M364.32 413.09c1.045-8.477 3.478-16.203 11.415-22.995 5.396-4.617 7.601-11.724-1.305-19.732-5.661-5.091-7.944-8.096-7.99-14.188-.077-9.955 9.36-11.866 14.84-16.145 3.192-2.492 4.5-5.35 3.914-8.97 9.997 3.771 7.671 12.614 4.403 14.84-5.17 3.522-7.362 13.08 3.588 16.961 16.378 5.806 15.804 19.921 9.295 29.844-4.23 6.448-1.426 16.635 8.317 20.222 14.099 5.19 24.872 14.133 29.68 22.178l74.7 39.14v33.92l-53.01-4.24-54.794-31.311-34.9-32.616z"/><path fill="#64a6dc" fill-rule="evenodd" d="M673.35 335.186H512v168.338l67.97-15.881 48.278-34.303 32.397-47.643 11.434-45.737z"/><path fill="#5e9bcc" fill-rule="evenodd" d="m578.88 351.829 19.707-1.065 10.688 3.621 10.02 3.835 8.017-2.982 4.008-3.41 7.683-1.278 6.012-3.621 13.026-2.77 8.35-4.048 4.009-4.261h-91.186z"/><path fill="#04441d" fill-rule="evenodd" d="M377.321 396.456q9.177-2.285 18.355 0c-6.119 1.008-12.237.948-18.355 0"/><path fill="#04481f" fill-rule="evenodd" d="M382.866 388.954q9.177-2.283 18.354 0c-6.118 1.008-12.236.948-18.354 0"/><path fill="#044c20" fill-rule="evenodd" d="M382.05 382.268q7.873-2.283 15.746 0c-5.249 1.008-10.497.948-15.746 0"/><path fill="#054f22" fill-rule="evenodd" d="M385.475 375.581q7.873-2.283 15.745 0c-5.248 1.009-10.497.949-15.745 0"/><path fill="#055324" fill-rule="evenodd" d="M376.995 369.71q7.873-2.283 15.745 0c-5.248 1.009-10.497.949-15.745 0"/><path fill="#055725" fill-rule="evenodd" d="M376.506 363.513q5.997-2.283 11.994 0c-3.998 1.009-7.996.949-11.994 0"/><path fill="#055b27" fill-rule="evenodd" d="M369.656 357.806q5.998-2.283 11.995 0c-3.998 1.008-7.997.948-11.995 0"/><path fill="#065e29" fill-rule="evenodd" d="M373.407 352.587q5.019-2.283 10.038 0c-3.346 1.008-6.692.949-10.038 0"/><path fill="#04401b" fill-rule="evenodd" d="M370.146 404.61q9.177-2.285 18.354 0c-6.118 1.008-12.236.948-18.354 0"/><path fill="#033d1a" fill-rule="evenodd" d="M378.626 411.43q11.134-2.878 22.268 0c-7.423 1.272-14.846 1.196-22.268 0"/><path fill="#033918" fill-rule="evenodd" d="M372.266 419.946q16.026-3.276 32.053 0c-10.685 1.447-21.369 1.36-32.053 0"/><path fill="#033517" fill-rule="evenodd" d="M390.367 427.873q19.615-3.474 39.23 0c-13.077 1.534-26.153 1.443-39.23 0"/><path fill="#033115" fill-rule="evenodd" d="M379.278 439.026q16.027-3.276 32.053 0c-10.684 1.447-21.369 1.361-32.053 0"/><path fill="#022e13" fill-rule="evenodd" d="M402.924 447.904q23.284-4.071 46.568 0c-15.523 1.797-31.045 1.69-46.568 0"/><path fill="#022a12" fill-rule="evenodd" d="M404.555 461.8q28.584-4.465 57.168 0c-19.056 1.973-38.112 1.856-57.168 0"/><path fill="#022610" fill-rule="evenodd" d="M427.223 477.818q29.073-4.865 58.146 0c-19.382 2.148-38.764 2.02-58.146 0"/><path fill="#f5dc0f" stroke="#2a7ae9" stroke-linecap="round" stroke-width="2.56" d="M540.182 239.09c0 15.564-12.618 28.182-28.182 28.182s-28.182-12.618-28.182-28.182 12.618-28.181 28.182-28.181 28.182 12.617 28.182 28.181z"/><path fill="#f5dc0f" fill-rule="evenodd" stroke="#000" stroke-linecap="round" stroke-linejoin="round" stroke-width="3.84" d="M452.44 210.718c-4.137 0-7.544 3.342-7.52 7.48.004.723.157 1.431.36 2.12-.067.004-.132-.005-.2 0-1.633-3.106-5.048-4.691-8.88-3.48-11.036 3.486-17.174 12.13-20.56 22.8-4.15 13.079-2.574 22.39.44 30.2 1.177 3.048 3.847 5.4 7.28 5.4.69 0 1.364-.106 2-.28.012.013.028.026.04.04-2.37 1.257-4 3.736-4 6.6 0 4.137 3.383 7.48 7.52 7.48 1.26 0 2.437-.29 3.48-.84 2.336 2.167 4.386 4.405 6 7 2.074 3.333 1.701 7.907-.12 11.56-1.26 2.526-3.477 4.515-6.08 6.12-3.684 2.27-5.648 6.554-.44 10.08 5.26 3.56 8.03 8.1 7 15.36-3.696.46-6.56 3.579-6.56 7.4 0 3.783 2.797 6.928 6.44 7.44a8 8 0 0 0-.72-.04c-2.91 0-4.955 1.254-6.72 4.08-4.98 7.97-8.998 16.106-11.12 25.28-2.78 12.02-3.082 24.44-.4 36.96 2.472 11.538 7.55 23.355 17.28 33.76 7.733 8.267 19.06 17.653 31.04 18.32 2.56.142 5.081-1.133 6.64-3.12l.16.04a7.4 7.4 0 0 0-1.04 3.8c0 4.137 3.383 7.52 7.52 7.52a7.51 7.51 0 0 0 6.64-4c1.533.1 3.044.191 4.6.28 1.483.084 2.985.24 4.48.56.064 2.07.682 3.73 1.68 4.92 2.743 3.269 7.126 3.58 10.2 1.44 1.873-1.304 3.1-3.556 3.12-6 .02 2.444 1.247 4.696 3.12 6 3.074 2.14 7.457 1.829 10.2-1.44.998-1.19 1.616-2.85 1.68-4.92 1.495-.32 2.997-.476 4.48-.56 1.556-.089 3.067-.18 4.6-.28a7.51 7.51 0 0 0 6.64 4c4.137 0 7.52-3.383 7.52-7.52a7.4 7.4 0 0 0-1.04-3.8l.16-.04c1.559 1.987 4.08 3.262 6.64 3.12 11.98-.667 23.307-10.053 31.04-18.32 9.73-10.405 14.808-22.222 17.28-33.76 2.682-12.52 2.38-24.94-.4-36.96-2.122-9.174-6.14-17.31-11.12-25.28-1.765-2.826-3.81-4.08-6.72-4.08-.245 0-.481.017-.72.04 3.643-.512 6.44-3.657 6.44-7.44 0-3.821-2.864-6.94-6.56-7.4-1.03-7.26 1.74-11.8 7-15.36 5.208-3.526 3.244-7.81-.44-10.08-2.603-1.605-4.82-3.594-6.08-6.12-1.821-3.653-2.194-8.227-.12-11.56 1.614-2.595 3.664-4.833 6-7 1.043.55 2.22.84 3.48.84 4.137 0 7.52-3.343 7.52-7.48 0-2.864-1.63-5.343-4-6.6.012-.014.028-.027.04-.04.636.174 1.31.28 2 .28 3.433 0 6.103-2.352 7.28-5.4 3.014-7.81 4.59-17.121.44-30.2-3.386-10.67-9.524-19.314-20.56-22.8-3.832-1.211-7.247.374-8.88 3.48-.068-.005-.133.004-.2 0 .203-.689.356-1.397.36-2.12.024-4.138-3.383-7.48-7.52-7.48a7.46 7.46 0 0 0-7.36 6.2c-2.477.753-5.06 1.742-7.88 3-4.139 1.976-8.242 4.025-12.28 6.2-2.315 1.246-3.84 3.746-3.84 6.56 0 .34.034.669.08 1-.137.056-.299.103-.44.16a7.54 7.54 0 0 0-6.04-3.04 7.6 7.6 0 0 0-1.96.28c-6.431 1.729-10.217 5.6-19.84 5.6-9.479 0-13.409-3.871-19.84-5.6a7.6 7.6 0 0 0-1.96-.28 7.54 7.54 0 0 0-6.04 3.04c-.141-.057-.303-.104-.44-.16.046-.331.08-.66.08-1 0-2.814-1.525-5.314-3.84-6.56-4.038-2.175-8.141-4.224-12.28-6.2-2.82-1.258-5.403-2.247-7.88-3a7.46 7.46 0 0 0-7.36-6.2m-13.52 142.52c.066.007.133-.005.2 0-.005.01.005.029 0 .04-.066-.01-.134-.032-.2-.04m145.96 0c.067-.005.134.007.2 0-.066.009-.135.03-.2.04-.005-.011.005-.03 0-.04"/><path fill="#f5dc0f" fill-rule="evenodd" stroke="#000" stroke-width="2.56" d="M587.8 216.838c11.036 3.486 17.174 12.13 20.56 22.8 4.15 13.079 2.576 22.39-.438 30.2-1.177 3.049-3.849 5.4-7.282 5.4-4.137 0-7.52-3.343-7.52-7.48 0-4.022 3.346-7.544 7.282-7.44.969-5.226.21-10.472-1.282-15.68-1.999-6.98-4.79-12.44-8.76-15.04a7.46 7.46 0 0 1-4.92 1.84c-4.137 0-7.52-3.343-7.52-7.48.338-5.369 4.744-8.743 9.88-7.12z"/><path fill="#f5dc0f" fill-rule="evenodd" stroke="#000" stroke-width="2.56" d="M571.56 210.718c4.137 0 7.544 3.342 7.52 7.48-.02 3.552-2.478 6.966-6.998 7.52-3.607.443-7.107 1.475-11.299 3.359-1.706.766-3.632 1.716-5.663 2.754.39 4.966-3.105 8.176-7.358 8.367-4.03.18-7.562-3.383-7.562-7.52 0-2.814 1.525-5.314 3.84-6.56 4.038-2.175 8.141-4.224 12.28-6.2 2.82-1.258 5.403-2.247 7.88-3a7.46 7.46 0 0 1 7.36-6.2zm-133.64 142.44c-2.91 0-4.955 1.234-6.72 4.06-4.98 7.97-8.998 16.126-11.12 25.3-2.78 12.02-3.082 24.44-.4 36.96 2.472 11.538 7.55 23.355 17.28 33.76 7.733 8.267 19.06 17.653 31.04 18.32 4.129.23 8.2-3.263 8.2-7.4a7.47 7.47 0 0 0-7.48-7.48 7.48 7.48 0 0 0-5.48 2.36c-8.766-3.755-14.357-7.898-18-12.2-8.229-9.72-13.725-19.746-15.6-30.44-1.977-11.28-1.6-22.424 1.2-33.72 1.295-5.224 3.53-9.985 6.08-14.6.328.044.66.08 1 .08 4.137 0 7.48-3.383 7.48-7.52a7.47 7.47 0 0 0-7.48-7.48z"/><path fill="#fff" d="M434.8 222.918c-5.09 2.437-9.786 6.795-12.76 14.2-7.062 17.579-3.86 31.101 4.92 39.48 5.67 5.41 16.345 12.83 17.6 20.48 1.422 8.668-2.717 16.421-10.76 20.92 11.379 7.864 11.663 18.116 8.16 28.4H512v-107c-11.754 0-25.62-4.071-31.4-7.16-8.345-4.46-13.952-7.424-19.04-9.32-8.757-2.694-17.581-4.27-26.76 0"/><path fill="#cf142b" d="M421.6 238.358c-2.11 5.578-3.222 10.74-3.4 15.44H512v-14.4c-3.64 0-7.457-.407-11.2-1.04z"/><path fill="#00247d" d="M418.2 253.798c-.223 5.886.973 11.055 3.24 15.44H512v-15.44z"/><path fill="#cf142b" d="M436 284.678c4.125 3.857 7.852 8.082 8.56 12.4a21 21 0 0 1 .28 3.04H512v-15.44z"/><path fill="#00247d" d="M444.84 300.118c.098 6.04-2.587 11.446-7.4 15.4H512v-15.4z"/><path fill="#cf142b" d="M443.4 330.958c1.18 4.922.351 10.18-1.44 15.44H512v-15.44z"/><path fill="#fff" d="M512 346.398v123.48h30.64c12.29-2.057 24.356-7.514 31.72-12.24 8.678-5.57 16.441-17.382 20.52-25.88 9.041-18.838 7.533-47.35-2.16-64.12-3.782-6.544-8.183-13.911-10.68-21.24z"/><path fill="#cf142b" d="M512 361.838v15.44h85c-1.174-3.494-2.603-6.74-4.28-9.64-1.075-1.86-2.198-3.828-3.32-5.8z"/><path fill="#00247d" d="M512 377.278v15.44h88.32c-.611-5.407-1.711-10.653-3.32-15.44z"/><path fill="#cf142b" d="M512 408.158v15.44h85.96c1.438-4.871 2.345-10.11 2.72-15.44z"/><path fill="#00247d" d="M512 423.598v15.4h78.92c1.536-2.528 2.884-5 3.96-7.24 1.228-2.559 2.235-5.298 3.08-8.16z"/><path fill="#cf142b" d="M512 454.438v22.56c7.248 0 14.966-5.964 23.08-6.28 14.7-.574 30.404-7.384 39.28-13.08 1.419-.911 2.802-1.997 4.16-3.2z"/><path fill="#f5dc0f" fill-rule="evenodd" stroke="#000" stroke-width="2.56" d="M436.2 216.838c-11.036 3.486-17.174 12.13-20.56 22.8-4.15 13.079-2.576 22.39.438 30.2 1.177 3.049 3.849 5.4 7.282 5.4 4.137 0 7.52-3.343 7.52-7.48 0-4.022-3.346-7.544-7.282-7.44-.969-5.226-.21-10.472 1.282-15.68 1.999-6.98 4.79-12.44 8.76-15.04a7.46 7.46 0 0 0 4.92 1.84c4.137 0 7.52-3.343 7.52-7.48-.338-5.369-4.744-8.743-9.88-7.12z"/><path fill="#f5dc0f" fill-rule="evenodd" stroke="#000" stroke-width="2.56" d="M452.44 210.718c-4.137 0-7.544 3.342-7.52 7.48.02 3.552 2.478 6.966 6.998 7.52 3.607.443 7.107 1.475 11.299 3.359 1.706.766 3.632 1.716 5.663 2.754-.39 4.966 3.104 8.176 7.358 8.367 4.03.18 7.562-3.383 7.562-7.52 0-2.814-1.525-5.314-3.84-6.56-4.038-2.175-8.141-4.224-12.28-6.2-2.82-1.258-5.403-2.247-7.88-3a7.46 7.46 0 0 0-7.36-6.2zm133.64 142.44c2.91 0 4.955 1.234 6.72 4.06 4.98 7.97 8.998 16.126 11.12 25.3 2.78 12.02 3.082 24.44.4 36.96-2.472 11.538-7.55 23.355-17.28 33.76-7.733 8.267-19.06 17.653-31.04 18.32-4.129.23-8.2-3.263-8.2-7.4a7.47 7.47 0 0 1 7.48-7.48c2.158 0 4.112.898 5.48 2.36 8.766-3.755 14.357-7.898 18-12.2 8.229-9.72 13.725-19.746 15.6-30.44 1.977-11.28 1.6-22.424-1.2-33.72-1.295-5.224-3.53-9.985-6.08-14.6-.328.044-.66.08-1 .08-4.137 0-7.48-3.383-7.48-7.52a7.47 7.47 0 0 1 7.48-7.48z"/><path fill="none" stroke="#000" stroke-width="2.56" d="M441.88 346.337h140.257M512 241.566v234.022"/><path fill="#008d38" fill-rule="evenodd" stroke="#000" stroke-width="2.56" d="M489.856 315.517v37.852c0 8.452 6.137 11.941 11.036 14.042L512 372.173l11.108-4.762c4.899-2.1 11.036-5.59 11.036-14.042v-37.852z"/><path fill="#f5dc0f" d="m512 323.729 4.062 12.501h13.145l-10.634 7.727 4.062 12.501L512 348.733l-10.634 7.725 4.061-12.5-10.634-7.728h13.145z"/><path stroke="#000" stroke-linecap="round" stroke-width="2.56" d="M548.518 262.82h4.48v63.84c-.41.916-4.171.876-4.48 0z"/><path fill="#fff" stroke="#000" stroke-linecap="round" stroke-linejoin="round" stroke-width="2.56" d="M558.598 258.98a7.84 7.84 0 1 1-15.68 0 7.84 7.84 0 0 1 15.68 0"/><path stroke="#000" stroke-linecap="round" stroke-width="2.56" d="M469.774 375.957h4.48v63.84c-.41.916-4.17.876-4.48 0z"/><path fill="#fff" stroke="#000" stroke-linecap="round" stroke-linejoin="round" stroke-width="2.56" d="M479.854 372.117a7.84 7.84 0 1 1-15.68 0 7.84 7.84 0 0 1 15.68 0"/><path fill="#f5dc0f" stroke="#000" stroke-linecap="round" stroke-width="3.2" d="M512 152.998c-103.953 0-188.32 84.367-188.32 188.32s84.367 188.32 188.32 188.32 188.32-84.368 188.32-188.32c0-103.953-84.367-188.32-188.32-188.32zm0 36.32c83.904 0 152 68.096 152 152s-68.096 152-152 152-152-68.096-152-152 68.096-152 152-152z"/><path fill="#cf142b" d="M512 159.038c-100.624 0-182.28 81.655-182.28 182.28 0 100.624 81.656 182.28 182.28 182.28s182.28-81.656 182.28-182.28c0-100.625-81.656-182.28-182.28-182.28m0 24.28c87.23 0 158.04 70.77 158.04 158S599.23 499.358 512 499.358s-158.04-70.81-158.04-158.04 70.81-158 158.04-158"/><path fill="#fff" d="M516.09 171.165a4.09 4.09 0 1 1-8.18 0 4.09 4.09 0 0 1 8.18 0m-21.36.829a4.09 4.09 0 1 1-8.114 1.025 4.09 4.09 0 0 1 8.115-1.025zm-21.086 3.5a4.09 4.09 0 1 1-7.922 2.034 4.09 4.09 0 0 1 7.922-2.034m-20.482 6.115a4.09 4.09 0 1 1-7.604 3.01 4.09 4.09 0 0 1 7.604-3.01m-19.553 8.634a4.09 4.09 0 1 1-7.168 3.94 4.09 4.09 0 0 1 7.168-3.94m-18.318 11.016a4.09 4.09 0 1 1-6.617 4.808 4.09 4.09 0 0 1 6.617-4.808m-16.792 13.225a4.09 4.09 0 1 1-5.963 5.6 4.09 4.09 0 0 1 5.963-5.6m-15.003 15.226a4.09 4.09 0 1 1-5.213 6.302 4.09 4.09 0 0 1 5.213-6.302m-12.976 16.986a4.09 4.09 0 1 1-4.382 6.906 4.09 4.09 0 0 1 4.383-6.906zm-10.744 18.478a4.09 4.09 0 1 1-3.482 7.4 4.09 4.09 0 0 1 3.482-7.4m-8.344 19.679a4.09 4.09 0 1 1-2.527 7.78 4.09 4.09 0 0 1 2.527-7.78m-5.812 20.57a4.09 4.09 0 1 1-1.532 8.034 4.09 4.09 0 0 1 1.532-8.034m-3.187 21.137a4.09 4.09 0 1 1-.514 8.162 4.09 4.09 0 0 1 .514-8.163zM529.27 171.994a4.09 4.09 0 1 0 8.114 1.025 4.09 4.09 0 0 0-8.115-1.025zm21.086 3.5a4.09 4.09 0 1 0 7.922 2.034 4.09 4.09 0 0 0-7.922-2.034m20.482 6.115a4.09 4.09 0 1 0 7.604 3.01 4.09 4.09 0 0 0-7.604-3.01m19.553 8.634a4.09 4.09 0 1 0 7.168 3.94 4.09 4.09 0 0 0-7.168-3.94m18.318 11.016a4.09 4.09 0 1 0 6.617 4.808 4.09 4.09 0 0 0-6.617-4.808m16.792 13.225a4.09 4.09 0 1 0 5.963 5.6 4.09 4.09 0 0 0-5.963-5.6m15.003 15.226a4.09 4.09 0 1 0 5.213 6.302 4.09 4.09 0 0 0-5.213-6.302m12.976 16.986a4.09 4.09 0 1 0 4.382 6.906 4.09 4.09 0 0 0-4.383-6.906zm10.744 18.478a4.09 4.09 0 1 0 3.483 7.4 4.09 4.09 0 0 0-3.483-7.4m8.344 19.679a4.09 4.09 0 1 0 2.527 7.78 4.09 4.09 0 0 0-2.527-7.78m5.812 20.57a4.09 4.09 0 1 0 1.532 8.034 4.09 4.09 0 0 0-1.532-8.034m3.187 21.137a4.09 4.09 0 1 0 .514 8.162 4.09 4.09 0 0 0-.514-8.163zM507.91 511.485a4.09 4.09 0 1 1 8.18 0 4.09 4.09 0 0 1-8.18 0m21.36-.829a4.09 4.09 0 1 1 8.114-1.026 4.09 4.09 0 0 1-8.115 1.026zm21.086-3.5a4.09 4.09 0 1 1 7.922-2.034 4.09 4.09 0 0 1-7.922 2.034m20.482-6.115a4.09 4.09 0 1 1 7.604-3.01 4.09 4.09 0 0 1-7.604 3.01m19.553-8.634a4.09 4.09 0 1 1 7.168-3.94 4.09 4.09 0 0 1-7.168 3.94m18.318-11.016a4.09 4.09 0 1 1 6.617-4.808 4.09 4.09 0 0 1-6.617 4.808m16.792-13.225a4.09 4.09 0 1 1 5.963-5.6 4.09 4.09 0 0 1-5.963 5.6m15.003-15.226a4.09 4.09 0 1 1 5.213-6.302 4.09 4.09 0 0 1-5.213 6.302m12.976-16.986a4.09 4.09 0 1 1 4.382-6.906 4.09 4.09 0 0 1-4.383 6.906zm10.744-18.478a4.09 4.09 0 1 1 3.483-7.4 4.09 4.09 0 0 1-3.483 7.4m8.344-19.679a4.09 4.09 0 1 1 2.527-7.78 4.09 4.09 0 0 1-2.527 7.78m5.812-20.57a4.09 4.09 0 1 1 1.532-8.035 4.09 4.09 0 0 1-1.532 8.035m3.187-21.137a4.09 4.09 0 1 1 .514-8.162 4.09 4.09 0 0 1-.514 8.163zM494.73 510.656a4.09 4.09 0 1 0-8.114-1.026 4.09 4.09 0 0 0 8.115 1.026zm-21.086-3.5a4.09 4.09 0 1 0-7.922-2.034 4.09 4.09 0 0 0 7.922 2.034m-20.482-6.115a4.09 4.09 0 1 0-7.604-3.01 4.09 4.09 0 0 0 7.604 3.01m-19.553-8.634a4.09 4.09 0 1 0-7.168-3.94 4.09 4.09 0 0 0 7.168 3.94m-18.318-11.016a4.09 4.09 0 1 0-6.617-4.808 4.09 4.09 0 0 0 6.617 4.808m-16.792-13.225a4.09 4.09 0 1 0-5.963-5.6 4.09 4.09 0 0 0 5.963 5.6m-15.003-15.226a4.09 4.09 0 1 0-5.213-6.302 4.09 4.09 0 0 0 5.213 6.302m-12.976-16.986a4.09 4.09 0 1 0-4.382-6.906 4.09 4.09 0 0 0 4.383 6.906zm-10.744-18.478a4.09 4.09 0 1 0-3.482-7.4 4.09 4.09 0 0 0 3.482 7.4m-8.344-19.679a4.09 4.09 0 1 0-2.527-7.78 4.09 4.09 0 0 0 2.527 7.78m-5.812-20.57a4.09 4.09 0 1 0-1.532-8.035 4.09 4.09 0 0 0 1.532 8.035m-3.187-21.137a4.09 4.09 0 1 0-.514-8.162 4.09 4.09 0 0 0 .514 8.163z"/><path d="M305.712 315.406q4.5.963 6.804 4.057 2.303 3.096 1.986 7.725-.378 5.538-4.229 8.686-3.85 3.149-9.749 2.745-6.138-.42-9.555-4.125t-3.02-9.5q.315-4.597 2.932-7.338t6.828-2.866l-.415 6.07q-1.848.321-2.85 1.502-1.003 1.18-1.141 3.204-.186 2.71 1.85 4.433 2.036 1.725 5.757 1.979 3.703.253 5.855-1.098 2.15-1.352 2.336-4.061.149-2.178-.824-3.563-.975-1.385-2.975-1.848zm9.793-3.765-24.964-4.21 1.074-6.373 24.965 4.21zm3.31-16.834-19.532-5.068-1.822 7.02-4.974-1.29 5.27-20.313 4.975 1.29-1.822 7.021 19.532 5.068zm6.687-21.981-8.897-3.442-17.872 2.466 2.623-6.78 11.203-.66-7.848-8.012 2.642-6.829 11.528 13.932 8.896 3.442zm6.93-37.535 2.878-4.726-8.923-2.134zm-13.496-7.514 3.684-6.048 26.271 5.535-3.62 5.945-4.768-1.092-4.399 7.222 3.213 3.647-3.495 5.74zm31.771-2.918-19.688-15.916 4.409-5.454 9.473 1.514a117 117 0 0 1 8.825 1.742 264 264 0 0 1-4.314-3.222 163 163 0 0 1-3.478-2.723l-5.039-4.074 3.933-4.865 19.689 15.916-4.398 5.44-9.78-1.518q-1.725-.27-3.839-.65a291 291 0 0 1-4.533-.859q2.044 1.41 3.755 2.682a95 95 0 0 1 2.995 2.31l5.934 4.798zm18.695-29.461 2.567-2.413q2.192-2.06 2-4.31-.19-2.249-2.78-5.004-2.602-2.768-4.829-3.092-2.228-.325-4.419 1.735l-2.568 2.413zm-1.11 8.33-17.338-18.448 7.878-7.403q4.096-3.85 8.524-3.517 4.427.33 8.63 4.803 4.342 4.621 4.236 9.038t-4.666 8.701l-7.264 6.827zm42.81-44.191q1.881 4.2.744 7.886t-5.06 6.166q-4.692 2.966-9.507 1.718t-7.973-6.246q-3.287-5.202-2.315-10.147.973-4.944 5.883-8.048 3.894-2.46 7.651-1.968t6.347 3.817l-5.144 3.25q-1.35-1.3-2.895-1.413-1.545-.111-3.26.972-2.295 1.45-2.484 4.112-.19 2.66 1.804 5.813 1.983 3.139 4.344 4.076 2.361.938 4.657-.513 1.845-1.166 2.388-2.77.542-1.602-.266-3.492zm8.411-8.327q1.587 3.526 3.868 4.762t4.961.028q2.696-1.213 3.299-3.747t-.985-6.06q-1.58-3.51-3.88-4.746t-4.996-.022q-2.68 1.207-3.267 3.733t1 6.052m-6.003 2.703q-2.532-5.627-.893-10.295c1.639-4.668 3.416-5.468 6.969-7.067q5.344-2.406 9.961-.545 4.617 1.86 7.143 7.471t.858 10.301-7.012 7.096q-5.328 2.4-9.91.532t-7.116-7.493m25.276-24.538 6.12-1.792 4.443 15.176q.735 2.507 1.994 3.293 1.26.786 3.454.144 2.16-.633 2.79-1.972.627-1.34-.106-3.847l-4.444-15.175 6.186-1.811 4.226 14.433q.894 3.051.831 5.04a7.36 7.36 0 0 1-1.064 3.643 9.9 9.9 0 0 1-2.768 2.932q-1.715 1.21-4.106 1.91-2.392.701-4.488.607a9.9 9.9 0 0 1-3.913-.977 7.55 7.55 0 0 1-2.901-2.508q-1.144-1.644-2.028-4.663zm32.698 17.143-3.8-25.03 6.933-1.052 5.973 7.507a118 118 0 0 1 5.34 7.238 264 264 0 0 1-1.011-5.287q-.444-2.472-.731-4.357l-.972-6.407 6.185-.939 3.8 25.03-6.917 1.05-6.195-7.716q-1.095-1.365-2.396-3.07a292 292 0 0 1-2.768-3.691q.558 2.418.963 4.513t.653 3.725l1.145 7.545zm32.306-3.752-.514-20.171-7.25.184-.131-5.137 20.98-.534.13 5.137-7.251.185.513 20.171zm22.972.376.866-9.5-7.28-16.507 7.24.66 3.712 10.59 5.549-9.746 7.291.665-10.23 14.91-.866 9.5zm37.224-6.724q-1.063 3.718-.118 6.134.946 2.415 3.772 3.223 2.842.812 4.937-.734t3.159-5.265q1.058-3.7.098-6.13-.96-2.428-3.802-3.24-2.826-.808-4.904.743-2.08 1.55-3.142 5.27zm-6.33-1.809q1.697-5.933 5.961-8.44 4.265-2.509 9.884-.903 5.635 1.611 7.962 6.012 2.325 4.401.635 10.317c-1.69 5.916-3.124 6.752-5.992 8.423q-4.3 2.507-9.935.896-5.619-1.605-7.915-5.989-2.295-4.382-.6-10.316m25.048 20.892 9.989-23.263 16.693 7.168-2.075 4.833-10.77-4.625-2.07 4.817 9.35 4.014-2.068 4.817-9.35-4.014-3.777 8.796zm29.62 14.04 13.944-21.132 5.437 3.587-4.95 7.503 7.402 4.884 4.95-7.503 5.438 3.588-13.943 21.132-5.437-3.588 5.878-8.909-7.403-4.884-5.878 8.91-5.437-3.588zm35.192 9.565q-2.562 2.897-2.749 5.484t2.015 4.533q2.215 1.958 4.772 1.466 2.557-.494 5.118-3.39 2.55-2.886 2.73-5.49t-2.035-4.563q-2.202-1.946-4.746-1.442t-5.105 3.402m-4.933-4.36q4.087-4.623 9.016-5.049t9.308 3.444q4.392 3.882 4.595 8.855.204 4.973-3.872 9.585-4.074 4.61-9.035 5.02-4.962.408-9.353-3.472-4.38-3.87-4.562-8.815t3.903-9.568m13.661 29.504 19.274-16.415 4.547 5.338-3.235 9.032a119 119 0 0 1-1.624 4.295 115 115 0 0 1-1.715 4.057 264 264 0 0 1 3.962-3.645q1.866-1.68 3.318-2.916l4.933-4.202 4.057 4.763-19.275 16.416-4.535-5.326 3.295-9.331q.584-1.65 1.348-3.654.764-2.006 1.679-4.297a129 129 0 0 1-3.328 3.196 95 95 0 0 1-2.823 2.517l-5.81 4.948zm31.203 19.09q-3.27 2.065-4.175 4.496t.665 4.916q1.578 2.499 4.17 2.743 2.593.243 5.863-1.821 3.256-2.055 4.158-4.505.903-2.451-.675-4.95-1.569-2.486-4.153-2.714-2.583-.229-5.853 1.836zm-3.515-5.566q5.218-3.294 10.07-2.322 4.85.972 7.97 5.913 3.13 4.956 1.932 9.788-1.199 4.83-6.401 8.116-5.203 3.285-10.08 2.289-4.877-.997-8.006-5.953-3.12-4.94-1.911-9.739 1.209-4.798 6.426-8.092m4.805 32.379 22.967-10.654 2.734 5.893-17.993 8.347 5.157 11.117-4.973 2.307zm33.079 12.035 1.962 6.068-15.046 4.864q-2.486.804-3.236 2.086t-.048 3.456q.693 2.142 2.05 2.734 1.355.591 3.841-.213l15.046-4.865 1.983 6.133-14.31 4.627q-3.025.978-5.015.97a7.36 7.36 0 0 1-3.67-.962 9.9 9.9 0 0 1-3.01-2.685q-1.256-1.68-2.023-4.051-.767-2.37-.731-4.469a9.9 9.9 0 0 1 .867-3.938 7.55 7.55 0 0 1 2.426-2.97q1.612-1.19 4.604-2.158zm-16.317 33.372 24.819-5 1.283 6.369-19.444 3.917 2.42 12.013-5.374 1.083zm29.412 19.463.48 6.359-15.767 1.19q-2.606.196-3.637 1.265-1.03 1.07-.859 3.348.17 2.245 1.349 3.14 1.179.892 3.784.696l15.768-1.19.485 6.427-14.997 1.132q-3.17.239-5.102-.236a7.36 7.36 0 0 1-3.342-1.799 9.9 9.9 0 0 1-2.293-3.317q-.825-1.929-1.013-4.413t.34-4.516a9.9 9.9 0 0 1 1.769-3.624 7.55 7.55 0 0 1 3.057-2.316q1.845-.777 4.982-1.014zM348.132 481.804l4.28 4.516q-1.524 1.539-1.488 3.163.035 1.625 1.631 3.308 1.36 1.435 2.579 1.771 1.219.337 2.08-.479.435-.414.602-.926a1.7 1.7 0 0 0 .021-1.014q-.21-.772-1.516-3.324-1.305-2.55-2.057-4.444-1.095-2.728-.778-4.981t2.037-3.884q2.632-2.496 6.06-1.99 3.426.505 6.63 3.886 3.145 3.318 3.356 6.813t-2.572 6.131l-4.197-4.428q1.143-1.368 1.039-2.702t-1.452-2.756q-1.077-1.135-2.218-1.403-1.142-.267-1.865.418-1.222 1.16.896 5.568.38.8.588 1.22.033.086.115.246 2.175 4.568 2.304 6.104a6.7 6.7 0 0 1-.426 2.961q-.54 1.39-1.74 2.525-2.743 2.6-6.264 1.948-3.52-.654-7.115-4.446-3.393-3.58-3.526-7.006t2.996-6.795m18.357 29.827 12.892-15.522-5.58-4.634 3.284-3.954 16.144 13.409-3.284 3.953-5.58-4.634-12.892 15.522zm27.564 8.425 4.656 2.992 2.348-8.87zm7.837-13.31 5.957 3.828-6.165 26.13-5.857-3.762 1.207-4.74-7.114-4.572-3.723 3.124-5.654-3.632zm10.23 35.145 8.748-18.183-6.536-3.145 2.228-4.631 18.911 9.099-2.228 4.63-6.536-3.144-8.748 18.183zm18.79 8.505 8.178-23.96 18.202 6.211-1.677 4.913-12.07-4.12-1.443 4.23 11.029 3.764-1.638 4.798-11.028-3.764-1.749 5.124 12.46 4.253-1.67 4.896zm50.678.22q-.442 3.843.886 6.07 1.327 2.229 4.246 2.565 2.937.337 4.752-1.53c1.815-1.867 1.962-3.149 2.256-5.71q.44-3.825-.903-6.064-1.344-2.238-4.28-2.576-2.92-.336-4.718 1.534c-1.798 1.87-1.945 3.15-2.239 5.711m-6.54-.75q.704-6.131 4.503-9.302 3.798-3.17 9.604-2.504 5.823.67 8.836 4.631 3.015 3.963 2.311 10.075-.702 6.114-4.535 9.289t-9.657 2.506q-5.805-.666-8.786-4.616t-2.276-10.08zm31.791 15.557-.338-25.315 18.166-.242.07 5.259-11.72.156.07 5.242 10.173-.136.07 5.242-10.174.136.128 9.572zm43.19-3.035-5.489-24.715 6.36-1.413 1.948 8.776 8.658-1.923-1.949-8.775 6.36-1.412 5.488 24.715-6.36 1.412-2.313-10.42-8.658 1.923 2.314 10.42zm33.382-19.126 5.192-1.917-5.669-7.214zm-5.91-14.27 6.642-2.453 17.154 20.654-6.53 2.41-3.058-3.817-7.933 2.93.253 4.853-6.304 2.328zm33.586 13.512-18.276-18.84 5.707-3.14 11.763 14.028-5.695-17.368 6.053-3.332 11.582 14.127-5.544-17.45 5.707-3.141 6.095 25.544-5.542 3.05-11.923-14.214 5.63 17.678zm28.333-29.089 4.4-3.356-7.537-5.233 3.137 8.59zm-9.84-11.906 5.63-4.295 22.462 14.709-5.535 4.221-4.044-2.751-6.724 5.129 1.667 4.565-5.343 4.076zm32.927 5.719-17.284-18.5 4.722-4.411 17.284 18.499zm11.31-11.014-18.535-17.245 4.402-4.732 18.535 17.246z" font-family="Swis721 Hv BT" font-size="27.5" font-weight="400" style="text-align:center;line-height:125%;-inkscape-font-specification:Swis721 Hv BT" text-anchor="middle"/><path fill="#f5dc0f" d="m696.567 411.655 8.55 6.889-3.909 10.26 9.194-6.002 8.55 6.89-2.867-10.6 9.194-6.003-10.966-.549-2.869-10.599-3.91 10.26zm-369.134 0-8.55 6.889 3.91 10.26-9.195-6.002-8.55 6.89 2.867-10.6-9.194-6.003 10.966-.549 2.869-10.599 3.91 10.26z"/><g fill="#f5dc0f" fill-rule="evenodd" stroke="#000" stroke-width="2.56"><path d="M754.093 362.213c-.964-5.943-1.124-11.688.589-16.988.864-2.674 1.3-3.306 7.429-7.207 6.153-3.916 5.087-4.935 6.405-7.237 1.554 5.433 2.027 11.588.016 18.696-1.09 3.853-3.474 4.702-7.624 6.829-4.083 2.092-5.367 3.222-6.815 5.907z"/><path d="M761.145 330.33c-3.33 2.257-5.24 3.21-6.427 6.661-1.456 4.238-.502 6.945.03 8.026.904-3.235 3.669-4.585 7.69-7.038 3.977-2.426 5.29-4.61 6.128-7.122 1.227-3.679.49-6.446-.43-8.566-.721 3.84-3.638 5.764-6.991 8.038z"/><path d="M754.95 336.793c-1.58-5.81-2.34-11.507-1.19-16.957.58-2.749.947-3.424 6.635-7.943 5.71-4.538 4.544-5.44 5.614-7.868 2.113 5.242 3.227 11.313 1.97 18.592-.682 3.946-2.964 5.04-6.868 7.589-3.842 2.507-5.001 3.766-6.16 6.587z"/><path d="M758.63 304.347c-3.074 2.593-4.875 3.74-5.694 7.297-1.006 4.367.226 6.959.868 7.978.56-3.311 3.17-4.943 6.911-7.802 3.703-2.83 4.78-5.139 5.351-7.724.836-3.787-.186-6.462-1.324-8.474-.315 3.895-3.014 6.112-6.112 8.725z"/><path d="M753.146 311.422c-2.18-5.612-3.53-11.199-2.957-16.739.29-2.794.585-3.504 5.769-8.593 5.204-5.11 3.95-5.886 4.76-8.411 2.65 4.991 4.393 10.913 3.903 18.284-.265 3.995-2.42 5.322-6.037 8.264-3.559 2.895-4.58 4.268-5.438 7.195z"/><path d="M753.414 278.77c-2.787 2.9-4.458 4.23-4.9 7.852-.544 4.448.952 6.897 1.696 7.844.212-3.352 2.636-5.247 6.059-8.482 3.386-3.201 4.217-5.61 4.514-8.24.435-3.855-.86-6.409-2.202-8.29.093 3.906-2.36 6.394-5.167 9.315z"/><path d="M748.699 286.38c-2.754-5.355-4.681-10.77-4.69-16.339-.004-2.81.215-3.546 4.839-9.15 4.642-5.625 3.313-6.266 3.855-8.862 3.157 4.687 5.51 10.395 5.793 17.776.153 4.002-1.851 5.546-5.14 8.85-3.237 3.252-4.11 4.724-4.657 7.725z"/><path d="M745.553 253.877c-2.469 3.176-3.992 4.673-4.053 8.323-.076 4.48 1.668 6.76 2.507 7.623-.14-3.356 2.073-5.494 5.139-9.07 3.033-3.536 3.607-6.02 3.628-8.666.03-3.879-1.526-6.283-3.057-8.015.502 3.876-1.677 6.606-4.164 9.805z"/><path d="M741.659 261.939c-3.298-5.037-5.781-10.22-6.372-15.759-.298-2.794-.157-3.549 3.856-9.605 4.028-6.08 2.64-6.578 2.907-9.217 3.63 4.332 6.566 9.762 7.62 17.073.57 3.964-1.262 5.71-4.188 9.34-2.879 3.571-3.592 5.126-3.823 8.168z"/><path d="M735.133 229.944c-2.123 3.416-3.482 5.064-3.161 8.7.393 4.463 2.365 6.548 3.29 7.319-.49-3.323 1.488-5.68 4.163-9.556 2.647-3.835 2.958-6.365 2.702-9-.376-3.86-2.174-6.088-3.878-7.65.904 3.802-.978 6.745-3.116 10.187z"/><path d="M732.103 238.368c-3.807-4.665-6.818-9.56-7.985-15.007-.588-2.747-.527-3.513 2.831-9.955 3.37-6.468 1.938-6.818 1.928-9.47 4.063 3.928 7.55 9.022 9.362 16.183.982 3.882-.657 5.81-3.188 9.725-2.49 3.854-3.036 5.475-2.948 8.524z"/><path d="M722.268 207.23c-1.755 3.62-2.933 5.4-2.235 8.983.858 4.398 3.037 6.265 4.038 6.935-.834-3.253.886-5.805 3.141-9.939 2.231-4.09 2.277-6.639 1.747-9.232-.777-3.8-2.799-5.828-4.656-7.204 1.296 3.687-.268 6.81-2.035 10.457z"/><path d="M720.135 215.925c-4.273-4.242-7.78-8.795-9.51-14.09-.872-2.67-.89-3.439 1.775-10.197 2.677-6.784 1.215-6.983.928-9.62 4.45 3.483 8.452 8.184 11.002 15.116 1.383 3.758-.046 5.847-2.153 10.006-2.074 4.092-2.448 5.762-2.042 8.785z"/><path d="M707.1 185.986c-1.367 3.783-2.353 5.677-1.284 9.167 1.313 4.284 3.675 5.913 4.74 6.475-1.17-3.148.275-5.865 2.085-10.213 1.792-4.301 1.57-6.84.772-9.364-1.17-3.698-3.392-5.504-5.383-6.677 1.675 3.53.446 6.8-.93 10.612z"/><path d="M705.887 194.856c-4.693-3.772-8.656-7.934-10.93-13.019-1.147-2.565-1.246-3.327.699-10.326 1.952-7.028.478-7.072-.083-9.665 4.79 2.999 9.26 7.256 12.522 13.883 1.768 3.594.565 5.82-1.096 10.177-1.634 4.286-1.832 5.986-1.112 8.95z"/><path d="M689.793 166.443c-.964 3.905-1.746 5.893-.318 9.251 1.753 4.124 4.273 5.497 5.392 5.944-1.493-3.008-.341-5.862 1.005-10.374 1.332-4.465.847-6.968-.21-9.394-1.55-3.555-3.95-5.119-6.053-6.078 2.035 3.336 1.154 6.717.184 10.651z"/><path d="M689.514 175.391c-5.061-3.26-9.438-6.985-12.23-11.804-1.409-2.431-1.587-3.179-.384-10.343 1.207-7.193-.264-7.084-1.093-9.603 5.077 2.481 9.968 6.248 13.904 12.498 2.134 3.389 1.17 5.729-.026 10.235-1.177 4.434-1.196 6.145-.17 9.017z"/><path d="M670.539 148.817c-.55 3.984-1.12 6.043.65 9.234 2.175 3.917 4.825 5.02 5.984 5.347-1.799-2.836-.952-5.794-.084-10.423.858-4.58.114-7.017-1.192-9.32-1.913-3.374-4.462-4.678-6.654-5.412 2.372 3.106 1.85 6.56 1.296 10.574z"/><path d="M671.197 157.745c-5.374-2.713-10.116-5.96-13.397-10.461-1.655-2.27-1.91-2.996-1.464-10.247.45-7.28-1.002-7.017-2.09-9.436 5.309 1.937 10.567 5.172 15.135 10.977 2.476 3.147 1.762 5.574 1.043 10.181-.707 4.533-.547 6.237.773 8.986z"/><path d="M649.548 133.3c-.13 4.02-.483 6.126 1.612 9.115 2.573 3.669 5.323 4.488 6.51 4.693-2.086-2.633-1.552-5.663-1.173-10.357.374-4.645-.62-6.991-2.16-9.145-2.255-3.155-4.927-4.186-7.183-4.687 2.684 2.84 2.525 6.33 2.394 10.38z"/><path d="M651.136 142.11c-5.629-2.137-10.684-4.87-14.418-9.004-1.883-2.085-2.213-2.779-2.526-10.037-.315-7.286-1.73-6.873-3.066-9.166 5.483 1.372 11.05 4.039 16.2 9.335 2.792 2.87 2.335 5.36 2.102 10.016-.23 4.582.107 6.26 1.708 8.856z"/><path d="M627.05 120.061c.29 4.012.16 6.144 2.556 8.897 2.942 3.38 5.763 3.907 6.965 3.987-2.35-2.4-2.136-5.47-2.25-10.178-.113-4.658-1.348-6.887-3.103-8.868-2.573-2.903-5.338-3.648-7.634-3.91 2.966 2.544 3.173 6.03 3.466 10.072z"/><path d="M629.55 128.658c-5.821-1.537-11.135-3.727-15.28-7.448-2.09-1.876-2.491-2.532-3.562-9.718-1.074-7.214-2.44-6.655-4.006-8.795 5.596.79 11.411 2.862 17.086 7.59 3.077 2.563 2.883 5.086 3.138 9.742.25 4.58.76 6.214 2.624 8.629z"/><path d="M603.291 109.248c.708 3.959.802 6.093 3.473 8.58 3.278 3.054 6.14 3.284 7.343 3.238-2.588-2.142-2.696-5.217-3.301-9.888-.6-4.62-2.06-6.709-4.014-8.495-2.862-2.618-5.69-3.07-8.001-3.091 3.216 2.22 3.787 5.667 4.5 9.656z"/><path d="M606.676 117.536c-5.95-.92-11.463-2.543-15.974-5.81-2.276-1.648-2.743-2.258-4.558-9.292-1.823-7.063-3.122-6.364-4.904-8.329 5.647.202 11.647 1.653 17.786 5.762 3.327 2.228 3.399 4.758 4.138 9.361.728 4.53 1.407 6.1 3.512 8.308z"/><path d="M578.532 100.976c1.119 3.864 1.435 5.976 4.35 8.171 3.58 2.695 6.45 2.624 7.642 2.452-2.797-1.86-3.226-4.906-4.317-9.488-1.078-4.533-2.75-6.457-4.88-8.03-3.12-2.303-5.979-2.458-8.28-2.237 3.431 1.872 4.359 5.24 5.485 9.132z"/><path d="M582.765 108.865c-6.013-.293-11.666-1.33-16.494-4.108-2.435-1.4-2.964-1.959-5.504-8.765-2.551-6.833-3.77-6.002-5.748-7.77 5.638-.39 11.757.426 18.29 3.872 3.543 1.867 3.878 4.375 5.095 8.877 1.198 4.428 2.037 5.92 4.361 7.894z"/><path d="M553.045 95.339c1.516 3.725 2.05 5.793 5.18 7.67 3.842 2.306 6.688 1.936 7.856 1.64-2.976-1.557-3.721-4.542-5.285-8.984-1.546-4.395-3.41-6.134-5.692-7.475-3.344-1.966-6.204-1.82-8.469-1.36 3.608 1.503 4.882 4.755 6.41 8.509z"/><path d="M558.079 102.742c-6.011.337-11.742-.104-16.833-2.362-2.569-1.138-3.152-1.638-6.39-8.141-3.252-6.53-4.378-5.576-6.53-7.127 5.567-.977 11.738-.805 18.596 1.938 3.718 1.488 4.314 3.947 5.995 8.296 1.653 4.28 2.644 5.675 5.162 7.396z"/><path d="M527.107 92.396c1.897 3.547 2.646 5.547 5.954 7.087 4.062 1.892 6.854 1.226 7.984.81-3.122-1.237-4.175-4.128-6.195-8.383-1.997-4.21-4.032-5.744-6.442-6.84-3.53-1.604-6.36-1.161-8.564-.467 3.744 1.118 5.352 4.22 7.263 7.793z"/><path d="M532.888 99.232c-5.943.964-11.688 1.124-16.988-.589-2.674-.864-3.306-1.3-7.207-7.429-3.916-6.153-4.935-5.087-7.237-6.405 5.433-1.554 11.588-2.027 18.696-.016 3.853 1.09 4.702 3.474 6.829 7.624 2.092 4.083 3.222 5.367 5.907 6.815z"/><path d="M501.004 92.18c2.258 3.33 3.211 5.24 6.663 6.427 4.237 1.456 6.944.502 8.025-.03-3.235-.904-4.585-3.669-7.038-7.69-2.426-3.977-4.61-5.29-7.122-6.128-3.679-1.227-6.446-.49-8.566.43 3.84.721 5.764 3.638 8.038 6.991z"/><path d="M507.468 98.375c-5.81 1.58-11.507 2.34-16.957 1.19-2.749-.58-3.424-.947-7.943-6.635-4.538-5.71-5.44-4.544-7.868-5.614 5.242-2.113 11.313-3.227 18.592-1.97 3.946.682 5.04 2.964 7.589 6.868 2.507 3.842 3.766 5.001 6.587 6.16z"/><path d="M475.022 94.695c2.593 3.074 3.74 4.875 7.297 5.694 4.367 1.006 6.96-.226 7.978-.868-3.311-.56-4.943-3.17-7.802-6.911-2.83-3.703-5.139-4.78-7.724-5.351-3.787-.836-6.462.186-8.474 1.323 3.895.316 6.112 3.015 8.725 6.113z"/><path d="M482.097 100.18c-5.612 2.178-11.199 3.53-16.739 2.956-2.794-.29-3.504-.585-8.593-5.769-5.11-5.204-5.886-3.95-8.411-4.76 4.991-2.65 10.913-4.393 18.284-3.903 3.995.265 5.322 2.42 8.264 6.037 2.895 3.559 4.268 4.58 7.195 5.438z"/><path d="M449.444 99.91c2.9 2.788 4.23 4.459 7.853 4.902 4.448.543 6.897-.953 7.844-1.697-3.352-.212-5.247-2.636-8.482-6.059-3.201-3.386-5.61-4.217-8.24-4.514-3.855-.435-6.409.86-8.29 2.202 3.906-.094 6.394 2.36 9.315 5.167z"/><path d="M457.055 104.626c-5.355 2.754-10.77 4.681-16.339 4.69-2.81.004-3.546-.215-9.15-4.839-5.625-4.642-6.265-3.313-8.862-3.855 4.687-3.157 10.395-5.51 17.776-5.793 4.002-.153 5.546 1.851 8.85 5.14 3.252 3.237 4.724 4.11 7.725 4.657z"/><path d="M424.552 107.772c3.176 2.469 4.674 3.992 8.323 4.053 4.48.076 6.76-1.668 7.623-2.507-3.356.14-5.494-2.073-9.07-5.139-3.536-3.033-6.02-3.607-8.666-3.628-3.879-.03-6.283 1.526-8.015 3.057 3.876-.502 6.606 1.677 9.805 4.164z"/><path d="M432.614 111.666c-5.037 3.298-10.22 5.781-15.759 6.372-2.794.298-3.549.157-9.605-3.856-6.08-4.028-6.578-2.64-9.217-2.907 4.332-3.63 9.762-6.566 17.073-7.62 3.964-.57 5.71 1.262 9.34 4.188 3.571 2.879 5.126 3.592 8.168 3.823z"/><path d="M400.619 118.192c3.416 2.123 5.064 3.482 8.7 3.161 4.463-.393 6.548-2.365 7.319-3.29-3.323.49-5.68-1.488-9.556-4.163-3.835-2.647-6.365-2.958-9-2.702-3.86.376-6.088 2.174-7.65 3.878 3.802-.904 6.745.978 10.187 3.116z"/><path d="M409.043 121.222c-4.665 3.807-9.56 6.818-15.007 7.985-2.747.588-3.513.527-9.955-2.831-6.468-3.37-6.818-1.938-9.47-1.928 3.928-4.063 9.022-7.55 16.183-9.362 3.882-.982 5.81.657 9.725 3.188 3.854 2.49 5.475 3.036 8.524 2.948z"/><path d="M377.905 131.057c3.62 1.755 5.4 2.933 8.983 2.235 4.398-.858 6.265-3.037 6.935-4.038-3.253.834-5.805-.886-9.939-3.141-4.09-2.231-6.639-2.277-9.232-1.747-3.8.777-5.828 2.799-7.204 4.656 3.687-1.296 6.81.268 10.457 2.035z"/><path d="M386.6 133.19c-4.242 4.273-8.795 7.78-14.09 9.51-2.67.872-3.439.89-10.197-1.775-6.784-2.677-6.983-1.215-9.62-.928 3.483-4.45 8.184-8.452 15.116-11.002 3.758-1.383 5.847.046 10.006 2.153 4.092 2.074 5.762 2.448 8.785 2.042z"/><path d="M356.66 146.226c3.784 1.366 5.678 2.352 9.168 1.283 4.284-1.313 5.913-3.675 6.475-4.74-3.148 1.169-5.865-.275-10.213-2.085-4.301-1.792-6.84-1.57-9.364-.772-3.698 1.17-5.504 3.392-6.677 5.383 3.53-1.675 6.8-.446 10.612.93z"/><path d="M365.53 147.438c-3.77 4.693-7.933 8.656-13.018 10.93-2.565 1.147-3.327 1.246-10.326-.699-7.027-1.953-7.072-.478-9.665.083 2.999-4.79 7.256-9.261 13.883-12.522 3.594-1.768 5.82-.565 10.177 1.096 4.286 1.634 5.986 1.832 8.95 1.112z"/><path d="M337.118 163.532c3.905.964 5.893 1.746 9.251.318 4.124-1.753 5.497-4.273 5.945-5.392-3.01 1.493-5.863.341-10.375-1.005-4.465-1.332-6.968-.847-9.394.21-3.555 1.55-5.119 3.95-6.078 6.053 3.336-2.035 6.717-1.154 10.651-.184z"/><path d="M346.066 163.81c-3.26 5.062-6.985 9.439-11.804 12.231-2.431 1.409-3.179 1.587-10.343.384-7.193-1.207-7.084.264-9.603 1.093 2.481-5.077 6.248-9.968 12.498-13.904 3.389-2.134 5.729-1.17 10.235.026 4.434 1.177 6.145 1.196 9.017.17z"/><path d="M319.492 182.786c3.984.55 6.043 1.12 9.234-.65 3.917-2.175 5.02-4.825 5.348-5.984-2.837 1.799-5.795.952-10.424.084-4.58-.858-7.017-.114-9.32 1.192-3.374 1.913-4.678 4.462-5.412 6.654 3.106-2.372 6.56-1.85 10.574-1.296z"/><path d="M328.42 182.128c-2.713 5.374-5.96 10.116-10.461 13.397-2.27 1.655-2.996 1.91-10.247 1.464-7.28-.45-7.017 1.002-9.436 2.09 1.937-5.309 5.172-10.567 10.977-15.135 3.147-2.476 5.574-1.762 10.181-1.043 4.533.707 6.237.547 8.986-.773z"/><path d="M303.975 203.777c4.02.13 6.126.483 9.115-1.612 3.669-2.573 4.488-5.323 4.693-6.51-2.633 2.086-5.663 1.552-10.357 1.173-4.645-.374-6.991.62-9.145 2.16-3.155 2.255-4.186 4.927-4.687 7.183 2.84-2.684 6.33-2.525 10.38-2.394z"/><path d="M312.785 202.19c-2.136 5.628-4.87 10.683-9.004 14.417-2.085 1.883-2.779 2.213-10.037 2.526-7.286.315-6.873 1.73-9.166 3.066 1.372-5.483 4.039-11.05 9.335-16.2 2.87-2.792 5.36-2.335 10.016-2.102 4.582.23 6.26-.107 8.856-1.708z"/><path d="M290.736 226.275c4.012-.29 6.144-.16 8.897-2.556 3.38-2.942 3.907-5.763 3.987-6.965-2.4 2.35-5.47 2.136-10.178 2.25-4.658.113-6.887 1.348-8.868 3.103-2.903 2.573-3.648 5.338-3.91 7.634 2.544-2.966 6.03-3.173 10.072-3.466z"/><path d="M299.333 223.775c-1.537 5.821-3.727 11.135-7.448 15.28-1.876 2.09-2.532 2.491-9.718 3.562-7.214 1.074-6.655 2.44-8.795 4.006.79-5.596 2.862-11.411 7.59-17.086 2.563-3.077 5.086-2.883 9.742-3.138 4.58-.25 6.214-.76 8.629-2.624z"/><path d="M279.923 250.034c3.96-.708 6.093-.802 8.58-3.473 3.054-3.278 3.284-6.14 3.238-7.343-2.142 2.588-5.217 2.696-9.888 3.301-4.62.6-6.709 2.06-8.495 4.014-2.618 2.862-3.07 5.69-3.091 8.001 2.22-3.216 5.667-3.787 9.656-4.5z"/><path d="M288.21 246.649c-.92 5.95-2.542 11.463-5.809 15.974-1.648 2.276-2.258 2.743-9.292 4.558-7.062 1.823-6.364 3.122-8.329 4.904.202-5.647 1.653-11.648 5.763-17.786 2.227-3.327 4.757-3.399 9.36-4.138 4.53-.728 6.1-1.407 8.308-3.512z"/><path d="M271.651 274.793c3.864-1.119 5.976-1.435 8.171-4.35 2.695-3.58 2.624-6.45 2.452-7.642-1.86 2.797-4.906 3.226-9.488 4.317-4.533 1.078-6.457 2.75-8.03 4.88-2.303 3.12-2.458 5.979-2.237 8.28 1.872-3.431 5.24-4.359 9.132-5.485z"/><path d="M279.54 270.56c-.293 6.013-1.33 11.666-4.108 16.494-1.4 2.435-1.959 2.964-8.765 5.504-6.833 2.551-6.002 3.77-7.77 5.748-.39-5.638.427-11.757 3.872-18.29 1.867-3.543 4.375-3.878 8.877-5.095 4.428-1.198 5.92-2.037 7.894-4.361z"/><path d="M266.014 300.28c3.725-1.516 5.793-2.05 7.67-5.18 2.306-3.842 1.936-6.688 1.64-7.856-1.556 2.976-4.542 3.721-8.984 5.285-4.395 1.546-6.134 3.41-7.475 5.692-1.966 3.344-1.82 6.204-1.36 8.469 1.503-3.608 4.755-4.882 8.509-6.41z"/><path d="M273.417 295.246c.337 6.011-.104 11.742-2.362 16.833-1.138 2.569-1.638 3.152-8.141 6.39-6.53 3.252-5.576 4.378-7.127 6.53-.977-5.567-.805-11.738 1.938-18.596 1.488-3.718 3.947-4.314 8.296-5.995 4.28-1.653 5.675-2.644 7.396-5.162z"/><path d="M263.07 326.218c3.548-1.897 5.548-2.646 7.088-5.954 1.892-4.062 1.226-6.854.81-7.984-1.237 3.122-4.128 4.175-8.383 6.195-4.21 1.997-5.744 4.032-6.84 6.442-1.604 3.53-1.161 6.36-.467 8.564 1.118-3.744 4.22-5.352 7.793-7.263z"/><path d="M269.907 320.437c.964 5.943 1.124 11.688-.589 16.988-.864 2.674-1.3 3.306-7.429 7.207-6.153 3.915-5.087 4.935-6.405 7.237-1.554-5.433-2.027-11.588-.016-18.696 1.09-3.853 3.474-4.703 7.624-6.829 4.083-2.092 5.367-3.222 6.815-5.907z"/><path d="M262.855 352.32c3.33-2.257 5.24-3.21 6.427-6.662 1.456-4.237.502-6.944-.03-8.025-.904 3.235-3.669 4.585-7.69 7.038-3.977 2.426-5.29 4.61-6.128 7.122-1.227 3.679-.49 6.446.43 8.566.721-3.84 3.638-5.764 6.991-8.038z"/><path d="M269.05 345.857c1.58 5.81 2.34 11.507 1.19 16.957-.58 2.749-.947 3.424-6.635 7.943-5.71 4.538-4.544 5.44-5.614 7.868-2.113-5.242-3.227-11.313-1.97-18.592.682-3.946 2.964-5.04 6.868-7.589 3.842-2.507 5.001-3.766 6.16-6.587z"/><path d="M265.37 378.303c3.074-2.593 4.875-3.74 5.694-7.297 1.006-4.367-.226-6.96-.868-7.978-.56 3.311-3.17 4.943-6.911 7.802-3.703 2.83-4.78 5.139-5.351 7.724-.836 3.787.186 6.462 1.324 8.474.315-3.895 3.014-6.112 6.112-8.725z"/><path d="M270.854 371.228c2.18 5.612 3.53 11.199 2.957 16.739-.29 2.794-.585 3.504-5.769 8.593-5.204 5.11-3.95 5.886-4.76 8.411-2.65-4.991-4.393-10.913-3.903-18.284.265-3.995 2.42-5.322 6.037-8.264 3.559-2.895 4.58-4.268 5.438-7.195z"/><path d="M270.586 403.88c2.787-2.9 4.458-4.23 4.9-7.852.544-4.448-.952-6.897-1.696-7.844-.212 3.352-2.636 5.247-6.059 8.482-3.386 3.201-4.217 5.61-4.514 8.24-.435 3.855.86 6.409 2.202 8.29-.093-3.906 2.36-6.394 5.167-9.315z"/><path d="M275.301 396.27c2.754 5.355 4.681 10.77 4.69 16.339.004 2.81-.215 3.546-4.839 9.15-4.642 5.625-3.313 6.265-3.855 8.862-3.157-4.687-5.51-10.395-5.793-17.776-.153-4.002 1.851-5.546 5.14-8.85 3.237-3.252 4.11-4.724 4.657-7.725z"/><path d="M278.447 428.773c2.469-3.176 3.992-4.674 4.053-8.323.076-4.48-1.668-6.76-2.507-7.623.14 3.356-2.073 5.494-5.139 9.07-3.033 3.536-3.607 6.02-3.628 8.666-.03 3.879 1.526 6.283 3.057 8.015-.502-3.876 1.677-6.606 4.164-9.805z"/><path d="M282.341 420.711c3.298 5.037 5.781 10.22 6.372 15.759.298 2.794.157 3.549-3.856 9.605-4.028 6.08-2.64 6.578-2.907 9.217-3.63-4.332-6.566-9.762-7.62-17.073-.57-3.964 1.262-5.71 4.188-9.34 2.879-3.571 3.592-5.126 3.823-8.168z"/><path d="M288.867 452.706c2.123-3.416 3.482-5.064 3.161-8.7-.393-4.463-2.365-6.548-3.29-7.32.49 3.324-1.488 5.681-4.163 9.557-2.647 3.835-2.958 6.365-2.702 9 .376 3.86 2.174 6.088 3.878 7.65-.904-3.802.978-6.745 3.116-10.187z"/><path d="M291.897 444.282c3.807 4.665 6.818 9.56 7.985 15.006.588 2.748.527 3.514-2.831 9.956-3.37 6.468-1.938 6.818-1.928 9.47-4.063-3.928-7.55-9.022-9.362-16.183-.982-3.882.657-5.81 3.188-9.725 2.49-3.854 3.036-5.475 2.948-8.524z"/><path d="M301.732 475.42c1.755-3.62 2.933-5.4 2.235-8.983-.858-4.398-3.037-6.265-4.038-6.935.834 3.253-.886 5.805-3.141 9.939-2.231 4.09-2.277 6.639-1.747 9.232.777 3.8 2.799 5.828 4.656 7.204-1.296-3.687.268-6.81 2.035-10.457z"/><path d="M303.865 466.725c4.273 4.242 7.78 8.795 9.51 14.09.872 2.67.89 3.439-1.775 10.197-2.677 6.784-1.215 6.983-.928 9.62-4.45-3.483-8.452-8.184-11.002-15.116-1.383-3.758.046-5.847 2.153-10.006 2.074-4.092 2.448-5.762 2.042-8.785z"/><path d="M316.9 496.664c1.367-3.783 2.353-5.677 1.284-9.167-1.313-4.284-3.675-5.913-4.74-6.475 1.17 3.148-.275 5.865-2.085 10.213-1.792 4.301-1.57 6.84-.772 9.364 1.17 3.698 3.392 5.504 5.383 6.677-1.675-3.53-.446-6.8.93-10.612z"/><path d="M318.113 487.794c4.693 3.772 8.656 7.934 10.93 13.019 1.147 2.565 1.246 3.327-.699 10.326-1.952 7.027-.478 7.072.083 9.665-4.79-2.999-9.26-7.256-12.522-13.883-1.768-3.594-.565-5.82 1.096-10.177 1.634-4.286 1.832-5.986 1.112-8.95z"/><path d="M334.207 516.207c.964-3.905 1.746-5.893.318-9.251-1.753-4.124-4.273-5.497-5.392-5.945 1.493 3.01.341 5.862-1.005 10.375-1.332 4.465-.847 6.968.21 9.394 1.55 3.555 3.95 5.119 6.053 6.078-2.035-3.336-1.154-6.717-.184-10.651z"/><path d="M334.486 507.259c5.061 3.26 9.438 6.985 12.23 11.804 1.409 2.431 1.587 3.179.384 10.343-1.207 7.193.264 7.084 1.093 9.603-5.077-2.481-9.968-6.248-13.904-12.498-2.134-3.389-1.17-5.729.026-10.235 1.177-4.434 1.196-6.145.17-9.017z"/><path d="M353.461 533.833c.55-3.984 1.12-6.043-.65-9.234-2.175-3.917-4.825-5.02-5.984-5.348 1.799 2.837.952 5.795.084 10.424-.858 4.58-.114 7.017 1.192 9.32 1.913 3.374 4.462 4.678 6.654 5.412-2.372-3.106-1.85-6.56-1.296-10.574z"/><path d="M352.803 524.905c5.374 2.713 10.116 5.96 13.397 10.461 1.655 2.27 1.91 2.996 1.464 10.247-.45 7.28 1.002 7.017 2.09 9.436-5.309-1.937-10.567-5.172-15.135-10.977-2.476-3.147-1.762-5.574-1.043-10.181.707-4.533.547-6.237-.773-8.986z"/><path d="M374.452 549.35c.13-4.02.483-6.126-1.612-9.115-2.573-3.669-5.323-4.488-6.51-4.693 2.086 2.633 1.552 5.663 1.173 10.357-.374 4.645.62 6.991 2.16 9.145 2.255 3.155 4.927 4.186 7.183 4.687-2.684-2.84-2.525-6.33-2.394-10.38z"/><path d="M372.864 540.54c5.629 2.136 10.684 4.87 14.418 9.004 1.883 2.085 2.213 2.779 2.526 10.037.315 7.286 1.73 6.873 3.066 9.165-5.483-1.37-11.05-4.038-16.2-9.334-2.792-2.87-2.335-5.36-2.102-10.016.23-4.582-.107-6.26-1.708-8.856z"/><path d="M396.95 562.588c-.29-4.011-.16-6.143-2.556-8.896-2.942-3.38-5.763-3.907-6.965-3.987 2.35 2.4 2.136 5.47 2.25 10.178.113 4.658 1.348 6.887 3.103 8.868 2.573 2.903 5.338 3.648 7.634 3.91-2.966-2.544-3.173-6.03-3.466-10.073z"/><path d="M394.45 553.992c5.821 1.537 11.135 3.727 15.28 7.448 2.09 1.876 2.491 2.532 3.562 9.718 1.074 7.214 2.44 6.655 4.006 8.795-5.596-.79-11.411-2.862-17.086-7.59-3.077-2.563-2.883-5.086-3.138-9.742-.25-4.58-.76-6.214-2.624-8.629z"/><path d="M420.709 573.402c-.708-3.96-.802-6.093-3.473-8.58-3.278-3.054-6.14-3.284-7.343-3.238 2.588 2.142 2.696 5.217 3.301 9.887.6 4.621 2.06 6.71 4.014 8.496 2.862 2.618 5.69 3.07 8.001 3.091-3.216-2.22-3.787-5.667-4.5-9.656z"/><path d="M417.324 565.114c5.95.92 11.463 2.543 15.974 5.81 2.276 1.648 2.743 2.258 4.558 9.292 1.823 7.062 3.122 6.364 4.904 8.329-5.647-.202-11.647-1.653-17.786-5.763-3.327-2.227-3.399-4.757-4.138-9.36-.728-4.53-1.407-6.1-3.512-8.308z"/><path d="M445.468 581.674c-1.119-3.864-1.435-5.976-4.35-8.171-3.58-2.695-6.45-2.624-7.642-2.452 2.797 1.86 3.226 4.906 4.317 9.488 1.078 4.532 2.75 6.457 4.88 8.03 3.12 2.303 5.979 2.458 8.28 2.237-3.431-1.872-4.359-5.24-5.485-9.132z"/><path d="M441.235 573.785c6.013.293 11.666 1.33 16.494 4.108 2.435 1.4 2.964 1.959 5.504 8.765 2.551 6.833 3.77 6.002 5.748 7.77-5.638.39-11.757-.427-18.29-3.872-3.543-1.867-3.878-4.375-5.095-8.877-1.198-4.428-2.037-5.92-4.361-7.894z"/><path d="M470.955 587.311c-1.516-3.725-2.05-5.793-5.18-7.67-3.842-2.306-6.688-1.936-7.856-1.64 2.976 1.556 3.721 4.542 5.285 8.984 1.546 4.395 3.41 6.134 5.692 7.475 3.344 1.966 6.204 1.82 8.469 1.36-3.608-1.503-4.882-4.755-6.41-8.509z"/><path d="M465.921 579.908c6.011-.337 11.742.104 16.833 2.362 2.569 1.138 3.152 1.638 6.39 8.141 3.252 6.53 4.378 5.576 6.53 7.127-5.567.977-11.738.805-18.596-1.938-3.718-1.488-4.314-3.947-5.995-8.296-1.653-4.28-2.644-5.675-5.162-7.396z"/><path d="M496.893 590.254c-1.897-3.547-2.646-5.547-5.954-7.087-4.062-1.892-6.854-1.226-7.984-.81 3.122 1.237 4.175 4.128 6.195 8.383 1.997 4.21 4.032 5.744 6.442 6.84 3.53 1.604 6.36 1.161 8.564.467-3.744-1.118-5.352-4.22-7.263-7.793z"/><path d="M491.112 583.418c5.943-.964 11.688-1.124 16.988.589 2.674.864 3.306 1.3 7.207 7.429 3.916 6.153 4.935 5.087 7.237 6.405-5.433 1.554-11.588 2.027-18.696.016-3.853-1.09-4.702-3.474-6.829-7.624-2.092-4.083-3.222-5.367-5.907-6.815z"/><path d="M522.996 590.47c-2.258-3.33-3.211-5.24-6.663-6.427-4.237-1.456-6.944-.502-8.025.03 3.235.904 4.585 3.669 7.038 7.69 2.426 3.977 4.61 5.29 7.122 6.128 3.679 1.227 6.446.49 8.566-.43-3.84-.721-5.764-3.638-8.038-6.991z"/><path d="M516.532 584.275c5.81-1.58 11.507-2.34 16.957-1.19 2.749.58 3.424.947 7.943 6.635 4.538 5.71 5.44 4.544 7.868 5.614-5.242 2.113-11.313 3.227-18.592 1.97-3.946-.682-5.04-2.964-7.589-6.868-2.507-3.842-3.766-5.001-6.587-6.16z"/><path d="M548.978 587.955c-2.593-3.074-3.74-4.875-7.297-5.694-4.367-1.006-6.96.226-7.978.868 3.311.56 4.943 3.17 7.802 6.911 2.83 3.703 5.139 4.78 7.724 5.351 3.787.836 6.462-.186 8.474-1.324-3.895-.315-6.112-3.014-8.725-6.112z"/><path d="M541.903 582.47c5.612-2.178 11.199-3.53 16.739-2.956 2.794.29 3.504.585 8.593 5.769 5.11 5.204 5.886 3.95 8.411 4.76-4.991 2.65-10.913 4.393-18.284 3.903-3.995-.265-5.322-2.42-8.264-6.037-2.895-3.559-4.268-4.58-7.195-5.438z"/><path d="M574.556 582.74c-2.9-2.788-4.23-4.459-7.853-4.902-4.448-.543-6.897.953-7.844 1.697 3.352.212 5.247 2.636 8.482 6.059 3.201 3.386 5.61 4.217 8.24 4.514 3.855.435 6.409-.86 8.29-2.202-3.906.093-6.394-2.36-9.315-5.167z"/><path d="M566.945 578.024c5.355-2.754 10.77-4.681 16.339-4.69 2.81-.004 3.546.215 9.15 4.839 5.625 4.642 6.265 3.313 8.862 3.855-4.687 3.157-10.395 5.51-17.776 5.793-4.002.153-5.546-1.851-8.85-5.14-3.252-3.237-4.724-4.11-7.725-4.657z"/><path d="M599.448 574.878c-3.176-2.469-4.674-3.992-8.323-4.053-4.48-.076-6.76 1.668-7.623 2.507 3.356-.14 5.494 2.073 9.07 5.139 3.536 3.033 6.02 3.607 8.666 3.628 3.879.03 6.283-1.526 8.015-3.057-3.876.502-6.606-1.677-9.805-4.164z"/><path d="M591.386 570.984c5.037-3.298 10.22-5.781 15.759-6.372 2.794-.298 3.549-.157 9.605 3.856 6.08 4.028 6.578 2.64 9.217 2.907-4.332 3.63-9.762 6.566-17.073 7.62-3.964.57-5.71-1.262-9.34-4.188-3.571-2.879-5.126-3.592-8.168-3.823z"/><path d="M623.381 564.458c-3.416-2.123-5.064-3.482-8.7-3.161-4.463.393-6.548 2.365-7.319 3.29 3.323-.49 5.68 1.488 9.556 4.163 3.835 2.647 6.365 2.958 9 2.702 3.86-.376 6.088-2.174 7.65-3.878-3.802.904-6.745-.978-10.187-3.116z"/><path d="M614.957 561.428c4.665-3.807 9.56-6.818 15.007-7.985 2.747-.588 3.513-.527 9.955 2.831 6.468 3.37 6.818 1.938 9.47 1.928-3.928 4.063-9.022 7.55-16.183 9.362-3.882.982-5.81-.657-9.725-3.188-3.854-2.49-5.475-3.036-8.524-2.948z"/><path d="M646.095 551.593c-3.62-1.755-5.4-2.933-8.983-2.235-4.398.858-6.265 3.037-6.935 4.038 3.253-.834 5.805.886 9.939 3.141 4.09 2.231 6.639 2.277 9.232 1.747 3.8-.777 5.828-2.799 7.204-4.656-3.687 1.296-6.81-.268-10.457-2.035z"/><path d="M637.4 549.46c4.242-4.273 8.795-7.78 14.09-9.51 2.67-.872 3.439-.89 10.197 1.775 6.784 2.677 6.983 1.215 9.62.928-3.483 4.45-8.184 8.452-15.116 11.002-3.758 1.383-5.847-.046-10.006-2.154-4.092-2.073-5.762-2.447-8.785-2.041z"/><path d="M667.34 536.424c-3.784-1.366-5.678-2.352-9.168-1.283-4.284 1.313-5.913 3.675-6.475 4.74 3.148-1.17 5.865.274 10.213 2.085 4.301 1.792 6.84 1.57 9.364.772 3.698-1.17 5.504-3.392 6.677-5.383-3.53 1.675-6.8.446-10.612-.931z"/><path d="M658.47 535.212c3.77-4.693 7.933-8.656 13.018-10.93 2.565-1.147 3.327-1.246 10.326.699 7.027 1.952 7.072.478 9.665-.083-2.999 4.79-7.256 9.26-13.883 12.522-3.594 1.768-5.82.565-10.177-1.096-4.286-1.634-5.986-1.832-8.95-1.112z"/><path d="M686.882 519.118c-3.905-.964-5.893-1.746-9.251-.318-4.124 1.753-5.497 4.273-5.945 5.392 3.01-1.493 5.863-.341 10.375 1.005 4.465 1.332 6.968.847 9.394-.21 3.555-1.55 5.119-3.95 6.078-6.053-3.336 2.035-6.717 1.154-10.651.184z"/><path d="M677.934 518.84c3.26-5.062 6.985-9.439 11.804-12.231 2.431-1.409 3.179-1.587 10.343-.384 7.193 1.207 7.084-.264 9.603-1.093-2.481 5.077-6.248 9.968-12.498 13.904-3.389 2.134-5.729 1.17-10.235-.026-4.434-1.177-6.145-1.196-9.017-.17z"/><path d="M704.508 499.864c-3.984-.55-6.043-1.12-9.234.65-3.917 2.175-5.02 4.825-5.348 5.984 2.837-1.799 5.795-.952 10.424-.084 4.58.858 7.017.114 9.32-1.192 3.374-1.913 4.678-4.462 5.412-6.654-3.106 2.372-6.56 1.85-10.574 1.296z"/><path d="M695.58 500.522c2.713-5.374 5.96-10.116 10.461-13.397 2.27-1.655 2.996-1.91 10.247-1.464 7.28.45 7.017-1.002 9.436-2.09-1.937 5.309-5.172 10.567-10.977 15.135-3.147 2.476-5.574 1.762-10.181 1.043-4.533-.707-6.237-.547-8.986.773z"/><path d="M720.025 478.873c-4.02-.13-6.126-.483-9.115 1.612-3.669 2.573-4.488 5.323-4.693 6.51 2.633-2.086 5.663-1.552 10.357-1.173 4.645.374 6.991-.62 9.145-2.16 3.155-2.255 4.186-4.927 4.687-7.183-2.84 2.683-6.33 2.525-10.38 2.394z"/><path d="M711.215 480.46c2.136-5.628 4.87-10.683 9.004-14.417 2.085-1.883 2.779-2.213 10.037-2.526 7.286-.315 6.873-1.73 9.166-3.066-1.372 5.483-4.039 11.05-9.335 16.2-2.87 2.792-5.36 2.335-10.016 2.102-4.582-.23-6.26.107-8.856 1.708z"/><path d="M733.264 456.375c-4.012.29-6.144.16-8.897 2.556-3.38 2.942-3.907 5.763-3.987 6.965 2.4-2.35 5.47-2.136 10.178-2.25 4.658-.113 6.887-1.348 8.868-3.103 2.903-2.573 3.648-5.338 3.91-7.634-2.544 2.966-6.03 3.173-10.072 3.466z"/><path d="M724.667 458.875c1.537-5.821 3.727-11.135 7.448-15.28 1.876-2.09 2.532-2.491 9.718-3.562 7.214-1.074 6.655-2.44 8.795-4.006-.79 5.596-2.862 11.411-7.59 17.086-2.563 3.077-5.086 2.883-9.742 3.138-4.58.25-6.214.76-8.629 2.624z"/><path d="M744.077 432.616c-3.96.708-6.093.802-8.58 3.473-3.054 3.278-3.284 6.14-3.238 7.343 2.142-2.588 5.217-2.696 9.888-3.301 4.62-.6 6.709-2.06 8.495-4.014 2.618-2.862 3.07-5.69 3.091-8.001-2.22 3.216-5.667 3.787-9.656 4.5z"/><path d="M735.79 436.001c.92-5.95 2.542-11.463 5.809-15.974 1.648-2.276 2.258-2.743 9.292-4.558 7.062-1.823 6.364-3.122 8.329-4.904-.202 5.647-1.653 11.647-5.763 17.786-2.227 3.327-4.757 3.399-9.36 4.138-4.53.728-6.1 1.407-8.308 3.512z"/><path d="M752.349 407.857c-3.864 1.119-5.976 1.435-8.171 4.35-2.695 3.58-2.624 6.45-2.452 7.642 1.86-2.797 4.906-3.226 9.488-4.317 4.533-1.078 6.457-2.75 8.03-4.88 2.303-3.12 2.458-5.979 2.237-8.28-1.872 3.431-5.24 4.359-9.132 5.485z"/><path d="M744.46 412.09c.293-6.013 1.33-11.666 4.108-16.494 1.4-2.435 1.959-2.964 8.765-5.504 6.833-2.551 6.002-3.77 7.77-5.748.39 5.638-.427 11.757-3.872 18.29-1.867 3.543-4.375 3.878-8.877 5.095-4.428 1.198-5.92 2.037-7.894 4.361z"/><path d="M757.986 382.37c-3.725 1.516-5.793 2.05-7.67 5.18-2.306 3.842-1.936 6.688-1.64 7.856 1.556-2.976 4.542-3.721 8.984-5.285 4.395-1.546 6.134-3.41 7.475-5.692 1.966-3.344 1.82-6.204 1.36-8.469-1.503 3.608-4.755 4.882-8.509 6.41z"/><path d="M750.583 387.404c-.337-6.011.104-11.742 2.362-16.833 1.138-2.569 1.638-3.153 8.141-6.39 6.53-3.252 5.576-4.378 7.127-6.53.977 5.567.805 11.738-1.938 18.596-1.488 3.718-3.947 4.314-8.296 5.995-4.28 1.653-5.675 2.644-7.396 5.162z"/><path d="M760.93 356.432c-3.548 1.897-5.548 2.646-7.088 5.954-1.892 4.062-1.226 6.854-.81 7.984 1.237-3.122 4.128-4.175 8.383-6.195 4.21-1.997 5.744-4.032 6.84-6.442 1.604-3.53 1.161-6.36.467-8.564-1.118 3.744-4.22 5.352-7.793 7.263z"/></g><path fill="#f5dc0f" fill-rule="evenodd" stroke="#000" stroke-width="2.56" d="M428.92 274.118c-4.137 0-7.52 3.342-7.52 7.48 0 4.137 3.383 7.48 7.52 7.48 1.26 0 2.437-.29 3.48-.84 2.336 2.167 4.386 4.405 6 7 2.074 3.333 1.701 7.907-.12 11.56-1.26 2.526-3.477 4.515-6.08 6.12-3.684 2.27-5.648 6.554-.44 10.08 5.26 3.56 8.03 8.1 7 15.36-3.696.46-6.56 3.579-6.56 7.4 0 4.137 3.343 7.52 7.48 7.52 3.33 0 6.096-2.22 7.145-5.2 2.089-5.937 2.795-12.224 1.315-18.12-1.206-4.806-3.52-8.546-6.34-11.64 2.998-2.912 5.749-6.543 7-11 2.556-9.106.747-15.382-4-20.96-3.334-3.918-7.049-6.838-10.52-10-1.444-1.316-3.252-2.24-5.36-2.24zm166.16 0c4.137 0 7.52 3.342 7.52 7.48 0 4.137-3.383 7.48-7.52 7.48-1.26 0-2.437-.29-3.48-.84-2.336 2.167-4.386 4.405-6 7-2.074 3.333-1.701 7.907.12 11.56 1.26 2.526 3.477 4.515 6.08 6.12 3.684 2.27 5.648 6.554.44 10.08-5.26 3.56-8.03 8.1-7 15.36 3.696.46 6.56 3.579 6.56 7.4 0 4.137-3.343 7.52-7.48 7.52-3.33 0-6.096-2.22-7.145-5.2-2.089-5.937-2.795-12.224-1.315-18.12 1.206-4.806 3.52-8.546 6.34-11.64-2.998-2.912-5.749-6.543-7-11-2.556-9.106-.747-15.382 4-20.96 3.334-3.918 7.049-6.838 10.52-10 1.444-1.316 3.252-2.24 5.36-2.24zM512 246.822c8.342 0 10.662-2.967 15.8-4.064 1.366 1.84 3.534 3.04 6 3.04 4.137 0 7.52-3.343 7.52-7.48s-3.383-7.52-7.52-7.52a7.6 7.6 0 0 0-1.96.28c-6.431 1.729-10.217 5.584-19.84 5.584-9.479 0-13.409-3.855-19.84-5.584a7.6 7.6 0 0 0-1.96-.28c-4.137 0-7.52 3.382-7.52 7.52 0 4.137 3.383 7.48 7.52 7.48 2.466 0 4.634-1.2 6-3.04 5.138 1.097 7.602 4.064 15.8 4.064zm30.72 217.976c4.137-.006 7.52 3.342 7.52 7.48 0 4.137-3.383 7.52-7.52 7.52a7.51 7.51 0 0 1-6.64-4c-1.533.1-3.044.191-4.6.28-1.483.084-2.985.24-4.48.56-.064 2.07-.663 3.74-1.66 4.93-2.743 3.27-7.158 3.575-10.232 1.435-1.904-1.325-3.127-3.634-3.108-6.125.023-2.988 1.509-5.106 3.92-6.6 3.774-2.339 8.091-3.397 12.44-4.12 4.879-.813 9.702-1.354 14.36-1.36z"/><path fill="#f5dc0f" fill-rule="evenodd" stroke="#000" stroke-width="2.56" d="M481.28 464.798c-4.137-.006-7.52 3.342-7.52 7.48 0 4.137 3.383 7.52 7.52 7.52a7.51 7.51 0 0 0 6.64-4c1.533.1 3.044.191 4.6.28 1.483.084 2.985.24 4.48.56.064 2.07.663 3.74 1.66 4.93 2.743 3.27 7.158 3.575 10.232 1.435 1.904-1.325 3.127-3.634 3.108-6.125-.023-2.988-1.509-5.106-3.92-6.6-3.774-2.339-8.091-3.397-12.44-4.12-4.879-.813-9.702-1.354-14.36-1.36z"/><path fill="#5e9bcc" fill-rule="evenodd" d="m641.881 368.998-28.283 2.56-1.878 4.28 7.941 2.88 7.98-1.56v1.16h1.878v-1.52l1.956-.36v2.44h1.84v-2.8l8.84-1.68c2.808-1.218 3.866-2.423 4.85-3.64-1.281-1.6-3.245-1.585-5.124-1.76"/><path fill-rule="evenodd" stroke="#000" stroke-linecap="round" stroke-linejoin="round" stroke-width="2.56" d="M632.565 361.708c-.31 0-.56.14-.56.28v2.68l-2.64.28v-1.16c0-.14-.25-.28-.56-.28s-.56.14-.56.28c0 .014-.005.027 0 .04v1.28l-4.64.56v1.2l-6.12.76v.84l-5.2.64v.04l1.6 2.68 6.16 1.76 18.92-2.76c1.916-.28 4.028-.98 4.76-1.64 1.094-.987 1.305-2.324 1.72-3.48.051-.032.111-.09.16-.12-.042-.002-.078.002-.12 0h-.04a47.4 47.4 0 0 0-7.28.24l.04-.68-5.08-.64v-2.52c0-.14-.25-.28-.56-.28"/><g stroke="#000" stroke-linecap="round" stroke-linejoin="round" stroke-width=".64"><path fill="#333" fill-rule="evenodd" d="M631.996 362.136v2.502l-2.63.31v-1.152h-1.12v1.287l-4.663.556v1.2l-6.117.762v.858l-5.171.652 6.999 1.827 20.44-2.836c2.571-.357 4.614-1.756 5.863-2.527a47 47 0 0 0-7.444.247l.032-.683-5.069-.636v-2.367z"/><path fill-rule="evenodd" d="m612.293 369.143 7.002 1.798 20.438-2.839c2.571-.357 4.618-1.753 5.74-2.554-.454 1.188-.624 2.597-1.766 3.627-.732.66-2.815 1.359-4.73 1.64l-18.925 2.775-6.182-1.766z"/><path fill-rule="evenodd" d="m622.512 369.553 15.644-2.081V365.2l-9.525 1.135v1.199l-6.119.757z"/><path d="M632.56 361.706c-.31 0-.564.115-.564.254 0 .14.254.255.564.255.102 0 .188-.019.27-.04v2.955l.294-.182v-2.964h-.008c.002-.008.008-.015.008-.024 0-.14-.253-.254-.564-.254m-3.75 1.796c-.31 0-.563.114-.563.254s.253.247.564.247q.153 0 .278-.032v1.612l.286-.174v-1.653c0-.14-.253-.254-.564-.254z"/></g></svg>