<svg xmlns="http://www.w3.org/2000/svg" width="900" height="600"><path fill="#fff" d="M300.556 1.133h300v600h-300z"/><path fill="#eb2d2e" d="M.556 1.133h300v600h-300z"/><path fill="navy" d="M600.556 1.133h300v600h-300z"/><path d="M334.046 436.903h2.982q2.565 0 3.46.239a3.8 3.8 0 0 1 2.098 1.383q.813 1.046.814 2.63 0 1.593-.794 2.63-.795 1.035-2.188 1.393-1.018.26-3.807.26h-1.069v7.418h-1.496zm1.496 1.551v5.423l2.534.032q1.537 0 2.25-.298.712-.298 1.12-.965.407-.667.407-1.492a2.77 2.77 0 0 0-.407-1.469 2.3 2.3 0 0 0-1.074-.949q-.667-.282-2.184-.282zm10.932-1.551h2.982q2.495 0 3.38.217a3.83 3.83 0 0 1 2.167 1.394q.835 1.068.835 2.63 0 1.3-.575 2.288a3.66 3.66 0 0 1-1.644 1.491q-1.068.504-2.952.515l5.385 7.418h-1.853l-5.374-7.418h-.855v7.418h-1.496zm1.496 1.562v5.422l2.575.022q1.497 0 2.214-.303a2.34 2.34 0 0 0 1.12-.971q.402-.667.402-1.491 0-.803-.407-1.459a2.3 2.3 0 0 0-1.07-.938q-.66-.282-2.198-.282zm18.22-1.963q3.4 0 5.69 2.418t2.29 5.954q0 3.504-2.285 5.944t-5.573 2.44q-3.33 0-5.619-2.43-2.29-2.429-2.29-5.878 0-2.298 1.043-4.262 1.044-1.962 2.845-3.074a7.3 7.3 0 0 1 3.899-1.112m.07 1.562q-1.658 0-3.144.921a6.44 6.44 0 0 0-2.321 2.484q-.834 1.562-.835 3.481 0 2.842 1.848 4.8 1.847 1.957 4.453 1.957 1.74 0 3.221-.9a6.26 6.26 0 0 0 2.311-2.462q.83-1.562.83-3.47 0-1.899-.83-3.433a6.4 6.4 0 0 0-2.336-2.457q-1.507-.921-3.196-.921zm25.356 1.518-1.16 1.171q-1.253-1.312-2.744-1.99-1.49-.678-2.906-.678-1.761 0-3.354.922a6.47 6.47 0 0 0-2.468 2.5 6.8 6.8 0 0 0-.875 3.335q0 1.8.906 3.422a6.63 6.63 0 0 0 2.504 2.548 6.85 6.85 0 0 0 3.501.927q2.31 0 3.909-1.388 1.597-1.387 1.893-3.6h-4.774v-1.54h6.453q-.02 3.698-2.06 5.872-2.042 2.175-5.462 2.175-4.152 0-6.575-3.015-1.863-2.32-1.863-5.369a8.64 8.64 0 0 1 1.07-4.218q1.068-1.953 2.93-3.053 1.863-1.101 4.214-1.101a8.9 8.9 0 0 1 3.583.732q1.68.731 3.278 2.348m3.837-2.679h2.982q2.495 0 3.38.217a3.83 3.83 0 0 1 2.168 1.394q.834 1.068.834 2.63 0 1.3-.575 2.288a3.66 3.66 0 0 1-1.644 1.491q-1.068.504-2.951.515l5.384 7.418h-1.852l-5.375-7.418h-.855v7.418h-1.496zm1.496 1.562v5.422l2.576.022q1.496 0 2.213-.303a2.34 2.34 0 0 0 1.12-.971q.402-.667.402-1.491 0-.803-.407-1.459a2.3 2.3 0 0 0-1.069-.938q-.661-.282-2.198-.282zm11.095-1.562h8.58v1.573h-7.084v4.989h7.023v1.561h-7.023v6.258h7.023v1.572h-8.519zm9.639 12.982 1.272-.813q1.343 2.635 3.105 2.635.753 0 1.415-.374.661-.375 1.007-1.003.346-.63.346-1.334 0-.803-.508-1.573-.704-1.063-2.565-2.56-1.874-1.506-2.331-2.18-.794-1.127-.794-2.44 0-1.04.468-1.897a3.45 3.45 0 0 1 1.318-1.35 3.6 3.6 0 0 1 1.847-.494q1.059 0 1.98.558.921.56 1.95 2.056l-1.222.987q-.844-1.194-1.44-1.573a2.37 2.37 0 0 0-1.298-.38q-.906 0-1.481.586-.575.585-.575 1.442 0 .521.203 1.009t.743 1.063q.296.303 1.934 1.594 1.944 1.53 2.667 2.722.723 1.194.723 2.397 0 1.736-1.237 3.015-1.236 1.28-3.008 1.28a4.22 4.22 0 0 1-2.473-.776q-1.11-.775-2.046-2.597m10.382 0 1.273-.813q1.343 2.635 3.104 2.635.753 0 1.415-.374.66-.375 1.008-1.003.345-.63.346-1.334 0-.803-.51-1.573-.702-1.063-2.564-2.56-1.874-1.506-2.331-2.18-.794-1.127-.794-2.44 0-1.04.468-1.897a3.45 3.45 0 0 1 1.318-1.35 3.6 3.6 0 0 1 1.848-.494 3.76 3.76 0 0 1 1.98.558q.92.56 1.949 2.056l-1.222.987q-.844-1.194-1.44-1.573a2.37 2.37 0 0 0-1.298-.38q-.906 0-1.48.586-.576.585-.576 1.442 0 .521.204 1.009t.743 1.063q.295.303 1.933 1.594 1.945 1.53 2.667 2.722.723 1.194.723 2.397 0 1.736-1.237 3.015t-3.007 1.28a4.22 4.22 0 0 1-2.474-.776q-1.11-.775-2.046-2.597m32.051-13.26h2.982q2.565 0 3.46.239a3.8 3.8 0 0 1 2.097 1.383q.815 1.046.815 2.63 0 1.593-.794 2.63t-2.189 1.393q-1.017.26-3.806.26h-1.07v7.419h-1.495zm1.496 1.551v5.423l2.534.032q1.537 0 2.25-.298.712-.298 1.12-.965a2.8 2.8 0 0 0 .407-1.491q0-.803-.408-1.47a2.3 2.3 0 0 0-1.073-.949q-.667-.282-2.184-.282zm10.932-1.551h2.982q2.493 0 3.38.217a3.83 3.83 0 0 1 2.167 1.394q.835 1.068.835 2.63 0 1.3-.575 2.288a3.66 3.66 0 0 1-1.644 1.491q-1.068.504-2.952.515l5.385 7.419h-1.853l-5.374-7.419h-.855v7.419h-1.496zm1.496 1.562v5.423l2.575.021q1.497 0 2.214-.303a2.34 2.34 0 0 0 1.12-.971q.402-.667.402-1.491 0-.803-.408-1.459a2.3 2.3 0 0 0-1.068-.938q-.662-.282-2.199-.282zm18.22-1.963q3.4 0 5.69 2.418t2.29 5.954q0 3.504-2.286 5.944-2.284 2.44-5.572 2.44-3.33 0-5.619-2.43-2.29-2.429-2.29-5.878 0-2.298 1.043-4.262 1.044-1.962 2.845-3.074a7.3 7.3 0 0 1 3.899-1.112m.07 1.562q-1.658 0-3.144.922a6.44 6.44 0 0 0-2.321 2.483q-.835 1.562-.835 3.481 0 2.842 1.848 4.8 1.847 1.956 4.453 1.957 1.74 0 3.221-.9a6.26 6.26 0 0 0 2.31-2.462q.83-1.562.83-3.47 0-1.899-.83-3.433a6.4 6.4 0 0 0-2.335-2.456q-1.507-.922-3.196-.922zm9.365 11.821 1.272-.813q1.343 2.634 3.105 2.635.753 0 1.415-.374.661-.375 1.007-1.003.346-.63.346-1.334 0-.803-.508-1.573-.703-1.062-2.565-2.56-1.874-1.506-2.331-2.18-.794-1.127-.794-2.44 0-1.04.468-1.897a3.45 3.45 0 0 1 1.318-1.35 3.6 3.6 0 0 1 1.847-.494q1.059 0 1.98.558.921.56 1.95 2.056l-1.222.987q-.845-1.194-1.44-1.573a2.37 2.37 0 0 0-1.298-.38q-.906 0-1.481.586-.575.585-.575 1.442 0 .522.203 1.01.204.487.743 1.062.296.303 1.934 1.594 1.944 1.53 2.667 2.722.723 1.194.723 2.397 0 1.735-1.237 3.015-1.236 1.28-3.008 1.28a4.22 4.22 0 0 1-2.473-.776q-1.11-.775-2.046-2.597m11.919-12.982h2.983q2.565 0 3.46.239a3.8 3.8 0 0 1 2.097 1.383q.814 1.046.814 2.63 0 1.593-.794 2.63-.793 1.036-2.188 1.393-1.018.26-3.807.26h-1.069v7.419h-1.496zm1.496 1.551v5.423l2.535.032q1.537 0 2.25-.298.712-.298 1.119-.965a2.8 2.8 0 0 0 .407-1.491 2.77 2.77 0 0 0-.407-1.47 2.3 2.3 0 0 0-1.074-.949q-.666-.282-2.183-.282zm10.861-1.551h8.58v1.573h-7.084v4.989h7.023v1.561h-7.023v6.258h7.023v1.573h-8.519zm11.268 0h2.982q2.493 0 3.38.217a3.83 3.83 0 0 1 2.167 1.394q.835 1.068.835 2.63 0 1.3-.575 2.288a3.66 3.66 0 0 1-1.644 1.491q-1.069.504-2.952.515l5.385 7.419h-1.853l-5.374-7.419h-.855v7.419h-1.496zm1.496 1.562v5.423l2.575.021q1.497 0 2.214-.303a2.34 2.34 0 0 0 1.12-.971q.402-.667.402-1.491 0-.803-.408-1.459a2.3 2.3 0 0 0-1.068-.938q-.662-.282-2.199-.282zm10.871-1.562h1.496v15.954h-1.496zm3.45 1.551v-1.55h8.214v1.55h-3.338v14.403h-1.527v-14.403zm9.181-1.551h1.73l3.828 6.572 3.766-6.572h1.73l-4.743 8.33v7.624h-1.476v-7.625z" font-family="Century Gothic" font-size="21.518" font-weight="400" style="text-align:start;line-height:125%;-inkscape-font-specification:Century Gothic"/><g fill-rule="evenodd"><path d="M447.09 450.747h1.169v2.15h-1.17v-2.15zm.051-14.273h1.17v2.261h-1.17z"/><path d="m450.832 447.467-1.2-.195q-.375 2.337-1.891 2.337-.82 0-1.42-.694-.6-.693-.6-1.797 0-1.039.551-1.671.552-.633 1.355-.633.341 0 .844.162l-.138-1.281-.187.016q-.885 0-1.436-.544-.55-.543-.551-1.452 0-.835.462-1.343a1.47 1.47 0 0 1 1.128-.507q.69 0 1.164.532.474.53.604 1.61l1.193-.26q-.227-1.524-1.022-2.303a2.65 2.65 0 0 0-1.923-.78q-1.184 0-2.012.877-.827.876-.827 2.207 0 .811.353 1.436.352.624.985.981-.584.162-.965.536-.381.373-.617.997a3.9 3.9 0 0 0-.235 1.396q0 1.638.965 2.681.966 1.043 2.313 1.043 1.248 0 2.117-.909t.99-2.442"/></g><path fill="navy" d="m377.78 247.537-3.402 3.246q-3.472-3.662-7.812-3.662-3.663 0-6.171 2.5t-2.509 6.162q0 2.552 1.112 4.53 1.11 1.98 3.142 3.108 2.03 1.129 4.513 1.129 2.118 0 3.871-.79 1.755-.79 3.854-2.873l3.298 3.437q-2.829 2.76-5.346 3.828-2.518 1.067-5.746 1.067-5.956 0-9.748-3.775-3.793-3.777-3.793-9.678 0-3.82 1.727-6.788t4.948-4.774a13.95 13.95 0 0 1 6.935-1.805q3.16 0 6.085 1.336a14.55 14.55 0 0 1 5.043 3.802zm4.236-4.496h4.861v20.901h7.083v4.635h-11.944zm15.641 0h13.94v4.757h-9.114v4.617h9.114v4.67h-9.114v6.718h9.114v4.774h-13.94zm16.509 0h5l6.423 18.14 6.51-18.14h5l-9.201 25.536h-4.687zm26.89 0h13.94v4.757h-9.114v4.617h9.114v4.67h-9.114v6.718h9.114v4.774h-13.94zm18.454 0h4.86v20.901h7.083v4.635h-11.944zm23.4 0h4.93l9.826 25.536h-5.052l-1.996-5.26h-10.416l-2.083 5.26h-5.052zm2.5 6.77-3.403 8.767h6.788zm16.057-6.77h4.653l10.954 16.804v-16.804h4.86v25.536h-4.67l-10.936-16.752v16.752h-4.86zm26.318 0h5.763q5.572 0 8.28 1.38 2.709 1.38 4.462 4.488 1.753 3.107 1.753 7.256 0 2.951-.98 5.425-.982 2.473-2.709 4.105t-3.74 2.257q-2.015.625-6.98.625h-5.85zm4.843 4.687v16.092h2.257q3.333 0 4.834-.763 1.502-.764 2.457-2.57t.954-4.444q0-4.062-2.274-6.301-2.048-2.014-6.579-2.014z" font-family="Century Gothic" font-size="35.552" font-weight="700" style="text-align:start;line-height:125%;-inkscape-font-specification:Century Gothic Bold"/><path fill="none" stroke="#eb2d2e" stroke-width="6" d="M355.048 277.358h192.214c-.708 62.045-27.475 112.066-96.857 142.642-82.295-33.506-98.841-85.29-95.357-142.642z"/><path fill="none" stroke="navy" stroke-width="6" d="m451.067 234.583-96.45.107.382-19.921c-.207-6.666 1.27-16.681 8.911-18.633 25.35-6.207 24.73-10.94 31.175-16.971 31.937 19.515 40.837 14.991 55.982 16.985 27.811.253 36.994-8.975 52.005-17.005 8.025 7.611 13.043 13.211 35.152 16.176 6.959 1.408 9.136 12.702 8.911 19.428l.382 19.922z"/><path fill="#eb2d2e" fill-rule="evenodd" d="M443.312 391.673c-.917-.05-3.436 2.048-5.153 3.071-1.034.636-2.043 3.566.68 6.398 2.447 2.443 6.563 4.187 4.174 8.653l-1.107 2.92-1.022-2.33-3.498.527 2.749-2.583c2.188-2.4-1.662-4.921-3.34-6.266-6.141-4.611-4.11-6.784-.925-8.604l6.333-2.948c.177-.242 1.68-.903.032-1.406-5.336-1.628-6.411-2.3-8.528-3.752-3.578-2.849-3.15-6.618-1.066-9.006 4.104-3.115 5.919-3.035 9.061-2.145 4.94 2.233 6.061 7.074 7.77 12.217 1.709-4.94 2.83-9.781 7.77-12.014 3.143-.89 4.958-.97 9.06 2.144 2.085 2.389 2.513 6.158-1.065 9.006-2.116 1.453-3.192 2.124-8.528 3.753-1.647.502-.144 1.164.032 1.406l6.333 2.948c3.185 1.82 5.217 3.992-.925 8.603-1.678 1.345-5.528 3.867-3.34 6.267l2.749 2.583-3.498-.528-1.022 2.331-1.107-2.92c-2.388-4.467 1.728-6.21 4.174-8.654 2.723-2.831 1.715-5.761.68-6.397-1.717-1.024-4.235-3.121-5.153-3.071-4.088.59-8.227.534-12.32-.203m8.734-5.046c1.162-.042 2.381.188 3.67.751 2.915-.54 5.735-1.269 7.256-3.216 2.856-3.93 2.081-5.86.4-7.184-1.555-1.071-3.11-1.435-4.664-.322-4.08 2.897-4.88 6.547-6.662 9.971m-5.147-.202c-1.163-.043-2.382.187-3.67.75-2.915-.54-5.735-1.268-7.256-3.216-2.856-3.93-2.082-5.86-.4-7.183 1.555-1.072 3.11-1.435 4.664-.322 4.08 2.896 4.88 6.546 6.662 9.971"/><path fill="#048204" d="M459.946 380.094a47.2 47.2 0 0 1 9.284-5.624c-2.312 1.95-5.17 4.203-8.737 5.904l-15.437 15.863-.443-.124 14.957-15.572zm13.229 2.556c-4.095.175-9.258.058-14.177-1.431.008-4.875.552-9.16 1.157-12.074.463 2.613.786 5.6-.076 11.054 4.802.499 9.184 1.42 13.096 2.45zm-6.485-5.564c5.19-4.486 9.308-2.415 13.776-2.477-4.57 1.746-9.09 5.572-13.776 2.477m-2.498-1.74c1.87-5.11 5.385-5.568 8.366-7.539-2.442 3.092-4.099 7.49-8.366 7.54zm6.213-2.181c3.567-3.945 6.976-2.917 10.436-3.507-3.366 1.845-6.48 5.222-10.436 3.507m11.241-3.686c3.687-4.813 7.506-3.932 11.283-4.904-3.596 2.398-6.818 6.522-11.283 4.904m-3.525-.962c1.868-5.112 5.383-5.57 8.363-7.543-2.44 3.093-4.096 7.493-8.363 7.543m-9.046-74.974c-5.077.797-7.19-2.242-10.269-4.033 3.72.735 8.113.092 10.269 4.033m15.837 71.678c1.838-5.79 6.156-5.846 9.666-7.768-2.737 3.321-4.377 8.298-9.666 7.768m9.258-4.999c2.414-6.188 5.667-6.95 8.647-9.477-2.648 3.825-4.769 9.154-8.647 9.477m-4.068-2.48c.282-6.066 3.588-7.552 5.91-10.529-1.454 4.039-1.742 9.273-5.91 10.53zm11.467-10.092c-1.055-7.318 1.65-9.791 3.13-13.841-.457 5.138.412 11.463-3.13 13.841m-4.714 4.94c-1.258-6.27 1.377-8.503 2.745-12.05-.314 4.448.73 9.87-2.745 12.05m-.23-6.79c-2.77-5.688-.784-8.589-.346-12.397.801 4.377 3.154 9.307.347 12.398zm3.973-5.707c-4.29-5.316-2.455-10.623-2.613-15.932 1.727 5.106 5.389 9.75 2.613 15.932m-3.83-10.491c-5.254-3.089-5.107-6.68-6.717-10.109 2.937 3.166 7.451 5.871 6.718 10.109zm6.457.95c-3.996-5.167-3.11-8.601-3.814-12.599 1.93 4.288 5.352 8.777 3.814 12.599m-4.436-7.56c-6.27-2.216-7.103-5.197-9.704-7.93 3.899 2.43 9.3 4.377 9.704 7.93m.158-6.27c-5.33-3.088-5.621-7.783-7.551-11.955 3.15 3.598 7.736 6.318 7.55 11.956zm-6.868-1.86c-5.832-1.49-6.58-4.994-8.981-7.843 3.616 2.22 8.639 3.549 8.981 7.843m-1.24-6.097c-5.692-.565-6.748-5.044-9.312-8.249 3.657 2.075 8.563 2.624 9.312 8.249m-9.197-6.164c-5.222.325-6.749-3.551-9.478-6.06 3.574 1.331 8.084 1.106 9.478 6.06m1.586-2.448c-4.806-2.159-5.374-5.033-7.32-7.674 2.96 2.355 7.098 4.25 7.32 7.674m-5.92-3.121c-5.66-.462-6.962-4.037-9.682-6.6 3.735 1.663 8.619 2.11 9.683 6.6zm-4.766-5.776c-5.182-.589-6.499-3.167-9.073-5.098 3.468 1.345 7.941 1.887 9.073 5.098m-7.087-2.592c-4.91 1.596-7.422-1.074-10.715-2.356 3.78.136 8.036-1.198 10.715 2.356m-26.686 91.02a47.2 47.2 0 0 0-9.284-5.624c2.312 1.95 5.17 4.202 8.737 5.904l16.222 16.298.355-.298-15.653-15.833zm-13.229 2.555c5.11-.028 9.176-.021 14.092-1.51-.009-4.875.014-8.48-.592-11.395-.463 2.614-1.266 5-.404 10.455-4.802.498-9.184 1.42-13.096 2.45m6.485-5.563c-5.19-4.487-9.308-2.416-13.775-2.478 4.57 1.746 9.088 5.573 13.775 2.478m2.498-1.74c-1.87-5.111-5.385-5.568-8.366-7.54 2.442 3.092 4.099 7.491 8.366 7.54m-6.213-2.182c-3.567-3.945-6.976-2.917-10.436-3.507 3.367 1.846 6.48 5.222 10.436 3.507m-11.241-3.685c-3.686-4.814-7.506-3.933-11.283-4.905 3.596 2.398 6.818 6.523 11.283 4.905m3.526-.963c-1.869-5.112-5.384-5.57-8.364-7.542 2.44 3.092 4.096 7.492 8.364 7.542m9.045-74.974c5.077.798 7.19-2.242 10.269-4.033-3.72.735-8.113.092-10.269 4.033m-15.837 71.679c-1.838-5.79-6.156-5.847-9.666-7.769 2.737 3.322 4.378 8.299 9.666 7.769m-9.258-5c-2.414-6.188-5.667-6.95-8.647-9.476 2.649 3.824 4.769 9.153 8.647 9.477zm4.068-2.48c-.282-6.065-3.588-7.552-5.91-10.528 1.454 4.038 1.742 9.272 5.91 10.529zm-11.467-10.092c1.056-7.318-1.65-9.79-3.13-13.84.457 5.138-.412 11.462 3.13 13.84m4.714 4.941c1.258-6.271-1.377-8.504-2.745-12.05.314 4.447-.73 9.869 2.745 12.05m.23-6.79c2.77-5.689.784-8.59.346-12.397-.801 4.377-3.154 9.306-.347 12.397zm-3.973-5.708c4.29-5.315 2.455-10.622 2.613-15.932-1.727 5.106-5.389 9.75-2.613 15.932m3.83-10.49c5.254-3.09 5.107-6.681 6.717-10.11-2.937 3.167-7.451 5.872-6.718 10.11zm-6.457.95c3.996-5.168 3.111-8.602 3.814-12.6-1.93 4.289-5.352 8.778-3.814 12.6m4.436-7.56c6.27-2.217 7.103-5.198 9.704-7.93-3.899 2.43-9.3 4.377-9.704 7.93m-.157-6.27c5.33-3.089 5.62-7.783 7.55-11.955-3.15 3.597-7.736 6.318-7.55 11.955m6.867-1.86c5.832-1.49 6.58-4.995 8.981-7.844-3.616 2.22-8.639 3.55-8.981 7.843zm1.24-6.098c5.692-.565 6.748-5.043 9.312-8.248-3.657 2.074-8.563 2.623-9.312 8.248m9.197-6.164c5.222.326 6.749-3.55 9.478-6.06-3.574 1.332-8.084 1.106-9.478 6.06m-1.586-2.448c4.806-2.158 5.374-5.033 7.32-7.674-2.96 2.355-7.098 4.25-7.32 7.674m5.92-3.12c5.66-.462 6.962-4.038 9.682-6.6-3.735 1.662-8.619 2.11-9.683 6.6zm4.766-5.776c5.182-.59 6.499-3.168 9.073-5.099-3.468 1.345-7.941 1.888-9.073 5.099m7.087-2.592c4.91 1.595 7.423-1.075 10.715-2.356-3.78.135-8.036-1.199-10.715 2.356"/><path fill="#eb2d2e" d="M420.062 346.27v-.48q1.283-.197 1.773-.767t.49-2.37v-12.809q0-.873-.098-1.122-.099-.25-.455-.25-.142 0-.659.108-1.335.267-2.227.285v-.428q2.477-.695 6.895-4.062h.517v18.279q0 1.692.41 2.28.409.588 1.78.856v.48zm16.622.553 8.98-18.03h-8.98q-1.016 0-1.523.463-.509.464-1.167 2.05h-.517l1.764-7.145h.463q.054.464.214.615t.552.151h12.08l-7.305 21.896zm15.108 0v-.481q3.688-.606 5.941-3.474 2.255-2.869 2.646-7.358-2.512 1.193-4.56 1.193-2.406 0-4.036-1.656-1.63-1.657-1.63-4.098 0-2.798 2.066-4.65 2.067-1.853 5.167-1.853 3.456 0 5.612 2.343t2.156 6.084q0 3.6-1.818 6.895-1.816 3.296-4.872 5.175t-6.672 1.88m2.334-16.711q0 2.156.935 3.447.936 1.292 2.503 1.292 1.604 0 3.029-1.212a10 10 0 0 0 .142-1.639q0-2.958-.962-4.703t-2.583-1.746q-1.265 0-2.165 1.336t-.9 3.225zm26.135-5.666v.481q-3.795.588-6.12 3.635t-2.467 7.197q2.46-1.194 4.525-1.193 2.424 0 4.062 1.648 1.64 1.647 1.64 4.07 0 2.815-2.067 4.677t-5.202 1.862q-3.439 0-5.586-2.343-2.146-2.343-2.146-6.084t1.799-6.957a13.64 13.64 0 0 1 4.926-5.104q3.127-1.89 6.636-1.889m-2.333 16.676q0-1.96-.945-3.35-.944-1.39-2.53-1.39-1.62 0-3.028 1.248-.107.606-.107 1.639 0 2.958.962 4.703.961 1.746 2.548 1.746 1.282 0 2.19-1.345.91-1.345.91-3.251" font-family="Perpetua" font-size="33.984" font-weight="700" style="text-align:start;line-height:125%;-inkscape-font-specification:Perpetua Bold"/><path fill="#eb2d2e" d="m445.332 386.61 8.279.135.517.068-2.941 5.343-1.018.078-1.35.023-.36.005-3.69-5.585z"/><g fill="navy"><path d="m458.163 225.169 32.884-13.114 1.177-2.695 19.73-9.177 1.509 3.154-19.164 8.634-2.759.665-32.899 13.243z"/><path d="m512.495 224.74-30.325-12.432-1.177-2.694-19.73-9.178-1.569 2.612 19.405 9.297 2.337.424 30.581 12.681z"/><path d="m482.392 226.115 7.9-.047.113-12.74 1.975-3.444.15-7.254-12.282.008.048 7.697c.73 1.056.952 1.1 2.2 3.19z"/><path fill-rule="evenodd" d="M484.437 224.173c-1.218 2.14-3.807 1.804-7.76.546-3.37-1.072-4.428-4.682-2.83-7.75 1.598-3.07 2.665-2.552 1.191.278s-.71 5.26 2.295 6.53c2.77 1.17 5.034 1.888 6.508-.72-2.157 2.908 3.062-4.658.596 1.116"/><path d="m483.092 212.79.872.455-6.944 11.75c-1.177.589-1.376.287-.908-.622zm-9.387 2.7 2.702 1.579.15-3.464zm18.738-8.912c2.359-5.535-.282-6.019-.832-3.919l.597.011c.22-.317.813-.686.203 2.666zm-2.095 14.122-.06 1.493c-.457 2.23 1.068 4.459-1.373 6.688-.469 1.197-1.339 2.057.358 1.553 3.577-5.375.816-6.35 1.075-9.734m-4.567-17.999c-.824-1.306-1.965-2.252-4.363-.063h.884c.84-.791 2.077-1.05 2.847.02"/><path d="m480.085 225.654 2.819.957c5.314.4 10.712-.29 13.465-1.178 8.744-2.94 14.493 1.013 10.954-.967-4.452-1.869-8.055.019-11.583-.196-3.148 1.735-6.231 1.51-9.42 1.508-3.78.096-2.41-.12-5.681-.532z"/></g><path fill="navy" fill-rule="evenodd" d="M414.027 210.726c0 7.516-6.092 13.608-13.607 13.608-7.516 0-13.608-6.092-13.608-13.608 0-7.515 6.092-13.607 13.608-13.607 7.515 0 13.607 6.092 13.607 13.607"/><path fill="navy" fill-rule="evenodd" d="M398.965 195.315h1.935v1.885h-1.935zm4.015.163 1.877.468-.456 1.83-1.878-.469.456-1.829zm3.992 1.221 1.685.951-.927 1.641-1.685-.951zm3.545 2.296 1.377 1.36-1.325 1.34-1.376-1.36zm2.603 3.092.99 1.662-1.62.965-.99-1.662zm1.924 3.603.514 1.865-1.817.501-.514-1.865zm.806 3.905-.038 1.934-1.884-.036.037-1.934 1.884.036zm-.243 3.885-.511 1.867-1.818-.498.51-1.866 1.819.498zm-1.219 3.79-.903 1.712-1.667-.88.902-1.71zm-17.629-21.612.594 1.841-1.794.58-.594-1.842zm-3.76 1.512 1.039 1.632-1.59 1.012-1.04-1.632 1.59-1.012zm-3.249 2.314 1.416 1.317-1.284 1.38-1.416-1.317 1.283-1.38zm-2.457 2.931 1.706.913-.89 1.662-1.705-.913zm-1.577 3.456 1.873.482-.47 1.826-1.873-.482zm-.774 4.044 1.934-.038.036 1.885-1.934.037zm.345 4.255 1.859-.536.522 1.811-1.859.536-.522-1.81zm1.411 3.814 1.638-1.03 1.003 1.597-1.638 1.03zm5.745 1h15.241v9.387l-7.357.6-3.453-.05-2.559-.65-1.796-.37-.076-8.918z"/><path fill="#fff" d="m401.666 229.376-3.06-.12v-12.509c.497-7.075-3.737-6.84-6.896-7.216l-.278-2.703 16.929.12v5.497c-4.069-.344-6.988-.685-6.79 4.302zm-8.736-24.295 2.585-1.924 2.22 3.533-1.492-.006c-1.316-.87-1.843-1.29-3.313-1.602zm13.328-.168-2.695-1.768-1.855 3.58 1.36-.001c1.261-.947 1.74-1.412 3.19-1.811"/><path fill="#fff" d="m404.92 217.693 2.154-2.397-3.779-2.302-.444.397c.745 1.39 1.893 2.81 2.068 4.302zm-9.165-.517-2.155-2.396 3.779-2.303.444.398c-.745 1.39-1.893 2.808-2.068 4.3z"/><path fill="navy" d="M418.447 229.872c3.675 1.543-7.756-1.759-7.966-1.75l-.632.024-8.223 1.12c-4.388.154-6.239-.556-8.511-1.29 0 0-11.713 4.295-8.792 1.809 3.676-1.544 6.398-2.168 9.31-2.345 2.545 1.708 5.214 1.541 7.884 1.35l8.135-.989c2.924.171 5.119.527 8.795 2.07z"/><path fill="navy" fill-rule="evenodd" d="m398.464 214.979 7.651 4.7c-.767 1.65-1.256 2.673-2.99 4.869l-7.652-4.7c.416-2.041 1.327-3.936 2.99-4.87z"/><path fill="navy" d="m408.476 228.193 1.505-7.838-.594.404-1.001 5.073-1.054-.39-.039.659 1.036.462-.308 1.637.31-.007z"/><path fill="navy" fill-rule="evenodd" d="m412.25 220.551-1.263 1.465-1.427-1.231 1.263-1.465zm-2.72 2.657-1.688.946-.922-1.645 1.688-.945zm-20.457-1.906 1.339-1.397 1.36 1.305-1.338 1.396z"/></svg>