<svg xmlns="http://www.w3.org/2000/svg" id="svg2" width="538" height="358"><defs id="defs5"><style id="style2165">.fil6{fill:#005a9f}.fil11{fill:#00923f}.fil3{fill:#1f1a17}.fil4{fill:#75c5f0}.fil1{fill:#da251d}.fil0{fill:#fff}.fil12,.fil2{fill:#fcdb00}.fil12{fill-rule:nonzero}</style></defs><g id="Layer_x0020_1" transform="matrix(91.20828 0 0 92.05255 -106.02 -373.616)"><g id="_147907256"><path id="_148103640" fill="#fff" d="M2.618 4.025H5.61v3.937H2.618z" class="fil0"/><path id="_148102824" fill="#da251d" d="M5.61 4.025h1.457v3.937H5.61z" class="fil1"/><path id="_148102008" fill="#fcdb00" d="M1.161 4.025h1.457v3.937H1.161z" class="fil2"/><g id="g2173"><circle id="_148101192" cx="4.123" cy="6.048" r="1.142" fill="none" class="fil3"/><circle id="_148100224" cx="4.123" cy="6.048" r="1.138" fill="#75c5f0" class="fil4"/><g id="g2177"><path id="_148062608" fill="#0a0b0c" d="m3.803 5.85-.007.012-.003.006-.004.006-.003.006-.003.006-.003.006-.004.006-.003.005-.003.006-.004.006-.003.006-.003.006-.003.006-.004.005-.003.006-.003.006-.004.006-.003.006-.003.006-.003.005-.004.006-.003.006-.003.006-.004.006-.003.006-.003.005-.003.006-.004.006-.003.006-.003.006-.004.006-.008.015.014.009.005.003.004.003.005.004.005.004.004.004.004.004.004.005.004.004.004.005.003.004.003.005.003.006.003.005.002.005.002.006.002.006.001.006.001.006v.006l.001.007v.013l-.002.008-.001.007-.002.008-.003.008-.003.008-.004.008-.004.009-.005.009-.006.01-.004.01-.005.011-.003.011-.004.011-.003.012-.003.011-.002.012-.002.012-.002.012-.001.012-.001.012-.001.012v.049l.002.013.002.012.002.012.002.012.003.012.003.011.004.012.004.01.005.012.005.01.006.011.006.01.007.01.007.01.008.009.008.008.005.005.006.005.005.004.005.004.005.004.006.003.005.004.005.002.006.003.005.002.005.002.006.002.005.002.005.001.006.002h.005l.006.001.005.001h.006l.005.001H3.9l.006.001h.1l.007.001h.006l.006.001.006.001.006.001.006.002.005.001.006.002.005.002.005.002.005.002.004.003.004.003.004.003.004.003.004.004.003.004.003.005.003.004.003.006.002.006.002.006.002.007.01.055h.004l.01-.055.003-.007.002-.006.002-.006.003-.006.002-.004.004-.005.003-.004.004-.004.003-.003.004-.003.005-.003.004-.003.005-.002.005-.002.005-.002.006-.002.005-.001.006-.002h.006l.006-.002h.006l.006-.001h.014l.007-.001h.109l.005-.001h.006l.005-.002h.006l.005-.001.005-.002.006-.001.005-.002.006-.002.005-.002.005-.002.006-.003.005-.002.005-.004.006-.003.005-.004.005-.004.005-.004.006-.005.005-.005.008-.008.008-.01.007-.009.007-.01.006-.01.006-.01.005-.011.005-.011.004-.011.004-.012.003-.011.003-.012.002-.012.002-.012.002-.012.001-.013v-.012l.001-.012v-.037l-.002-.012-.001-.012-.002-.012-.002-.012-.003-.012-.002-.011-.003-.012-.004-.01-.004-.012-.004-.01-.004-.011-.006-.01-.005-.009-.004-.009-.004-.008-.003-.008-.003-.008-.002-.008-.001-.007-.001-.008v-.007l-.001-.006v-.013l.002-.006.001-.006.002-.006.002-.006.002-.005.003-.005.003-.006.003-.005.003-.004.004-.005.004-.004.004-.005.004-.004.004-.004.005-.004.004-.004.005-.003.005-.003.014-.01-.009-.014-.003-.006-.003-.006-.003-.006-.004-.006-.003-.006-.003-.005-.004-.006-.003-.006-.003-.006-.003-.006-.004-.006-.003-.005-.003-.006-.004-.006-.003-.006-.003-.006-.003-.006-.004-.005-.003-.006-.003-.006-.004-.006-.003-.006-.003-.006-.003-.005-.004-.006-.003-.006-.003-.006-.004-.006-.003-.006-.003-.006-.007-.013-.03.007-.02.005-.02.004-.02.004-.02.004-.02.003-.02.003-.016.003v-.008h.002l.002-.001h.002l.004-.002.003-.001.004-.001.003-.001.004-.002h.003l.004-.002.003-.001.004-.002.003-.001.004-.001.003-.002.004-.001.003-.001.003-.002.004-.001.003-.002.003-.001.004-.002.003-.001.003-.002.004-.001.003-.002.003-.002.003-.001.004-.002.003-.002.003-.001.003-.002.003-.002.003-.002.003-.001.004-.002.003-.002h.004l.003-.002h.004l.003-.002h.011l.003-.001h.062l.003-.001h.003l.003-.001h.002l.003-.001h.003l.002-.002h.002l.003-.001.002-.001.002-.001.002-.002h.002l.002-.002.002-.002.002-.001.002-.002v-.001h.013l.005-.001.005-.001.005-.002.004-.001.004-.002.004-.002.003-.002.003-.002.003-.003.002-.003.002-.004.001-.002h.007l.005-.001h.005l.005-.002h.005l.005-.002.004-.002.004-.002.004-.002.004-.003.003-.003.003-.003.002-.004.002-.004.003-.001.005-.001.005-.002.005-.002.004-.002.004-.002.003-.002.004-.002.002-.003.003-.003.002-.003.002-.003v-.004l.001-.004.005-.002h.005l.004-.002.005-.002.004-.002.005-.002.003-.002.004-.003.003-.003.003-.003.003-.004.002-.004.002-.004v-.004h.005l.005-.001.004-.002.004-.002.004-.002.004-.002.003-.003.003-.003.003-.003.003-.003.002-.003.002-.003.002-.004.001-.003.001-.004.001-.003V5.63l.001-.003V5.62l-.001-.003-.002-.003-.001-.003-.003-.003-.003-.002-.003-.001-.003-.002h-.017l-.013.005-.011.003-.012.003-.012.003-.012.002-.012.002-.012.002-.012.002H4.63l-.012.002-.011.001h-.012l-.012.002H4.56l-.011.001h-.011l-.011.001h-.011l-.01.001h-.011l-.01.001-.01.001h-.01l-.009.002-.01.001-.008.001-.008.002-.008.002-.008.002-.007.002-.01.004-.005.008-.005.007-.005.007-.004.006-.005.007-.005.006-.005.007-.005.006-.005.006-.005.006-.005.006-.005.005-.005.006-.005.005-.005.006-.005.005-.006.005-.003.003.003-.003.005-.005.005-.006.004-.005.004-.005.004-.005.004-.005.004-.005.004-.005.003-.005.004-.005.003-.005.003-.005.003-.006.003-.005.003-.005.003-.005.002-.005.003-.005.003-.005.002-.006v-.015l-.003-.004-.004-.003-.004-.001-.004-.001h-.01l-.005.001-.005.002-.005.001-.006.002-.006.002-.005.002h-.012l-.004.001h-.01l-.003.001h-.031l-.003.001H4.24l-.003.001h-.011l-.003.001h-.019l-.004.002-.004.003-.003.003-.003.003-.001.004-.002.004v.009l.002.004.002.004.003.004.004.003.004.002.003.002.002.003v.002l.001.001v.001l-.001.001-.002.001h-.011l-.003-.003-.003-.002-.002-.002-.003-.002-.002-.003-.002-.002-.001-.003-.002-.002-.001-.003-.002-.002v-.003l-.002-.003-.001-.003-.001-.003-.001-.003-.002-.006-.003-.005-.005-.005-.004-.004-.006-.003-.005-.002-.006-.002h-.019l-.006.002-.005.002-.006.003-.005.004-.005.005-.002.002-.004.002h-.003l-.003.002-.003.002-.003.001-.003.002-.002.002-.002.002-.002.003-.002.002-.001.003-.001.003-.001.003-.001.003-.003.018.014-.01h.002l.001-.001h.006l.001.001.001.002v.005h-.001l-.001.002h-.001l-.001.002h-.033l-.003-.001h-.002v-.002h-.001v-.004l.003-.003.003-.002.004-.002.003-.003.004-.004.002-.004.001-.004v-.013l-.002-.004-.003-.003-.003-.003-.004-.003-.004-.001-.005-.001h-.028l-.003-.001h-.017l-.004-.001h-.031L3.95 5.64h-.012l-.004-.001h-.006l-.003-.001h-.003l-.005-.002-.006-.002-.006-.002-.005-.001-.005-.002H3.89l-.005-.001h-.009l-.004.002-.004.003-.003.004v.015l.002.006.003.005.003.005.002.005.003.005.003.005.003.005.003.006.003.005.003.005.004.005.003.005.004.005.004.005.004.005.004.005.004.005.004.005.005.006.005.005.003.003-.003-.003-.006-.005-.005-.005-.005-.006-.005-.005-.005-.006-.005-.005-.005-.006-.005-.006-.005-.006-.005-.006-.005-.007-.005-.006-.005-.007-.005-.006-.004-.007-.005-.007-.006-.008-.009-.004-.007-.002-.008-.002-.008-.002-.008-.002-.009-.001-.009-.001-.01-.001-.009-.001h-.01l-.01-.001h-.01l-.01-.001h-.012l-.01-.001h-.012l-.011-.001h-.012l-.011-.001-.012-.001H3.64l-.011-.002-.012-.001-.012-.001-.012-.002-.012-.002-.012-.002-.012-.002-.012-.003-.012-.003-.011-.003-.013-.004-.004-.001H3.49l-.003.002-.003.001-.003.002-.003.003-.001.003-.002.003v.003l-.001.004v.01l.002.003v.004l.002.003.002.004.002.003.002.003.003.003.003.003.003.003.003.003.004.002.004.002.004.002.004.002h.005l.004.001.001.004.002.004.002.004.003.004.003.003.003.003.004.003.003.002.005.002.004.002.005.002.004.001.005.001.005.001v.005l.001.004.002.003.002.003.002.003.003.003.004.002.003.002.004.002.004.002.005.002.005.002.005.001h.002v.001l.003.004.002.004.003.003.003.003.004.003.004.002.004.002.004.002.005.001.005.001.005.001h.005l.005.001h.006l.002.003.002.004.002.003.003.003.003.002.003.002.004.002.004.002.004.001.005.002h.005l.005.001h.005l.005.001h.003l.002.003.002.001.002.002.002.001.002.001.002.002h.002l.002.002h.003l.002.001.002.001h.003l.003.001.002.001h.006l.002.001h.006l.003.001h.065l.004.001.003.001.004.001.003.001.004.001.003.002.004.002.003.001.003.002.003.002.003.002.003.001.003.002.004.002.003.001.003.002.003.002.004.001.003.002.003.001.004.002.003.001.003.002.004.001.003.002.003.001.004.001.003.002.004.001.003.001.004.002h.003l.004.002.003.001.004.002h.003l.004.002.003.001.004.001h.002l.001.001h.002v.01h-.004l-.019-.003-.02-.003-.019-.003-.02-.004-.02-.004-.02-.004-.02-.005zm.369.04-.016.001h-.003l.007-.005h.012v.005zm-.078.002h-.011l-.01-.001v-.005h.013zm.085-.488-.003-.002-.008-.004h-.002l-.003-.002-.003-.001-.002-.001-.003-.001h-.003l-.003-.002h-.04v.123h-.038l-.002.002-.002.001-.002.002v.002l-.001.002v.004h-.016l-.003.002h-.002l-.002.002-.002.002v.003l-.001.002v.004l.001.002.002.002.002.002h.002v.028l-.002.001-.002.002-.002.002v.002l-.001.003v.003l.001.003-.002.002-.005.004-.003.003c-.01.004-.01.01-.011.018v.007l.002.003.002.003.003.003.002.002h.004l.003.001h.02l.005-.001h.004l.005-.001.004-.001h.004l.004-.002.004-.001.004-.001.003-.001.004-.002.004-.001.005-.002.004-.002.003-.001.003-.001.002-.001h.002l.002-.001h.008l.002.002h.003l.003.002.004.002.005.002.005.002.004.002.004.001.004.002h.004l.003.002h.004l.004.001h.008l.004.001h.021l.004-.001.003-.002.002-.003.002-.003.001-.003.001-.003c.001-.015-.003-.015-.014-.025l-.005-.004-.001-.001-.001-.001.001-.003v-.006l-.001-.002-.002-.002-.002-.002-.002-.001v-.027l.002-.001.002-.002.002-.002.001-.002v-.006l-.001-.003-.002-.002V5.53l-.002-.001-.002-.001H4.18V5.52l-.002-.002-.002-.002-.001-.001-.002-.001-.003-.001h-.037v-.021l.002-.001h.002l.002-.001h.009l.003.001.002.001.002.002h.003l.002.002.002.002.003.002.003.002.003.002.004.002.003.002h.004l.004.002h.003l.004.001h.003l.004.001h.007l.004-.001.004-.001.003-.001.004-.001.007-.004v-.008l-.001-.002V5.49l-.001-.002v-.007l-.001-.002v-.036l.001-.002v-.005h.001v-.004l.002-.008h-.01l-.003-.001h-.002l-.003-.002H4.21l-.002-.002h-.003L4.2 5.416l-.003-.002-.003-.001-.003-.002-.003-.002-.003-.002-.003-.002zh-.001z"/><path id="_148061408" fill="#fcdb00" d="M4.12 5.964a.248.248 0 1 0 0 .496.248.248 0 0 0 0-.496m0 .02a.228.228 0 1 0 0 .457.228.228 0 0 0 0-.457" class="fil2"/><g id="g2181"><path id="_148060336" fill="#da251d" d="M4.421 6.627a.2.2 0 0 0 .034-.026c.087-.084.087-.244.04-.348a.17.17 0 0 1-.03-.097H4.42v.471z" class="fil1"/><path id="_148059520" fill="#fff" d="M4.375 6.644a.1.1 0 0 0 .043-.014v-.474h-.043z" class="fil0"/><path id="_148058704" fill="#da251d" d="M4.31 6.647q.033 0 .06-.003v-.41a.25.25 0 0 1-.06.143zm.06-.456v-.035h-.005z" class="fil1"/><path id="_148160480" fill="#fff" d="M4.264 6.647h.043V6.38a.3.3 0 0 1-.043.038v.228z" class="fil0"/><path id="_148159664" fill="#da251d" d="M4.2 6.651a.3.3 0 0 1 .06-.004v-.225a.3.3 0 0 1-.06.03v.2z" class="fil1"/><path id="_148158848" fill="#fff" d="M4.153 6.67a.1.1 0 0 1 .043-.018v-.2l-.043.01z" class="fil0"/><path id="_148158032" fill="#da251d" d="M4.09 6.674a.1.1 0 0 1 .028.052h.003a.1.1 0 0 1 .028-.052v-.211a.3.3 0 0 1-.06 0v.211z" class="fil1"/><path id="_148157216" fill="#fff" d="M4.043 6.652a.1.1 0 0 1 .043.019v-.209l-.043-.01z" class="fil0"/><path id="_148155856" fill="#da251d" d="M3.979 6.647q.03-.001.06.004v-.2a.3.3 0 0 1-.06-.03z" class="fil1"/><path id="_148154784" fill="#fff" d="M3.932 6.647h.042v-.228a.3.3 0 0 1-.042-.038z" class="fil0"/><path id="_148153696" fill="#da251d" d="M3.868 6.644a.4.4 0 0 0 .06.003v-.27a.25.25 0 0 1-.06-.143zm.005-.488h-.005v.035z" class="fil1"/><path id="_148152880" fill="#fff" d="M3.821 6.63a.1.1 0 0 0 .043.014v-.488h-.043z" class="fil0"/><path id="_148144344" fill="#da251d" d="M3.774 6.156a.17.17 0 0 1-.031.097c-.046.104-.046.264.04.348q.018.018.034.026v-.47h-.043z" class="fil1"/><path id="_148146512" fill="#005a9f" d="m3.809 5.862-.105.187a.14.14 0 0 1 .07.1h.101a.252.252 0 0 1 .489 0h.101a.14.14 0 0 1 .07-.1l-.105-.187a1.3 1.3 0 0 1-.284.04l.011.036-.034-.025-.034.025.011-.035a1.3 1.3 0 0 1-.291-.04z" class="fil6"/></g><g id="g2197"><path id="_148138104" fill="#005a9f" d="m3.902 6.27.014.038-.002-.008v-.005l-.001-.006v-.005l.001-.006.002-.004.002-.005zm.017.043a.224.224 0 0 0 .418-.044h-.02v.002l-.004.024-.007.003h-.004L4.3 6.3h-.004l-.005.003h-.002l-.002.001h-.002l-.001.001-.002.007v.002l-.002.004v.004l-.004.013-.001.003-.003.003-.002.003-.003.002-.002.002-.002.002-.002.002-.002.002-.003.005H4.04l-.009-.003-.007-.002-.007-.003-.006-.003-.006-.003L4 6.34l-.005-.003-.004-.004-.004-.004-.004-.005-.004-.004-.003-.005-.003-.005-.002-.005-.003-.006-.003-.007h-.002l-.003.001h-.002l-.003.001H3.95l-.003.002h-.002l-.003.002H3.94l-.003.002-.003.001-.002.001-.003.002-.002.001-.002.002zm.33-.044v.003zm-.23 0H4.01l.001.001.003.006.003.006.001.005h.023v-.005L4.04 6.28l-.004-.002-.004-.003-.004-.002-.004-.002-.004-.002zm.194.018-.001-.002-.002-.005v-.005l-.001.003v.008zm-.101 0H4.11l-.004-.002-.003-.002-.004-.002-.003-.001-.005-.002v.001l.002.005v.003z" class="fil6"/><path id="_148137112" fill="#75c5f0" d="M4.12 5.988a.224.224 0 0 0-.219.277h.02l.003-.003.003-.004.004-.003.005-.002.004-.003.005-.002h.004l-.033-.054.013-.007.036.058h.005l-.006-.002.002-.007v-.004l.001-.004.002-.003V6.22l.002-.004.001-.004.002-.003.002-.004.001-.004.002-.004.002-.003.002-.004.002-.004.002-.004.002-.003.003-.004.002-.003.002-.004L4 6.166v-.004l.003-.003.002-.004.003-.003.003-.003.002-.003.003-.003.003-.003.003-.003.002-.003.003-.003.004-.003.004-.002h.005v-.031h-.009l-.033.003q-.017-.005-.008-.015l.003-.003.002-.002L4 6.076l.003-.001.003-.001.003-.001.004-.001.003-.001h.004l.003-.001h.003l.003-.001.003-.001h.002l.002-.001h.002l.002-.002.002-.002.001-.001.001-.002.001-.002v-.002l.002-.002.001-.002.001-.003.002-.002.003-.002.003-.002.003-.002h.004l.005-.001h.008l.002-.001h.002l.001-.001h.001v-.002l.001-.002v-.009l.001-.002.001-.003.002-.003.001-.003.002-.002.003-.002h.002l.003-.002h.012l.003.001h.003l.003.002h.003l.003.002h.003l.016.007h.014v.07h.031l.005.001h.01l.006.001h.005l.005.001h.005l.005.001.006.001h.005l.005.001.005.001.013.002-.008.012-.005.007-.003.006-.004.007-.004.007-.003.007-.003.007-.003.007-.003.007-.002.007-.003.007-.001.005v-.002l.003-.006.002-.006.003-.007.002-.006.003-.006.003-.008.004-.001h.014l.002.001.001.001.002.001.002.001.002.001.002.002.001.001.004.004-.002.007-.002.005-.001.005-.002.005-.001.005-.001.005-.002.005v.005l-.002.005-.001.005-.001.005-.001.005-.001.005-.001.005-.001.005-.001.005v.005l-.002.004v.005l-.001.005v.005l-.001.004h.001l.001-.002.006-.018.002-.007h.064l-.001.009-.003.018h.018a.225.225 0 0 0-.218-.277zm-.113.277h.004l-.003-.002-.003-.001zm.092-.118v.003l-.002.004v.002l-.002.003v.003l-.002.003v.003l-.001.003v.002l-.001.001-.002.005v.007l-.001.003-.001.003v.004l-.001.003v.007l-.001.003v.039l.001.002v-.002l-.001-.005v-.005l-.001-.005v-.041l.002-.005V6.18l.002-.005.001-.005.001-.005.002-.005.002-.005.002-.005.003-.01.002.001v.004H4.1zm-.037-.018.004.002.004.001.004.002.004.001.005.002.006.001.004.001H4.09l-.002-.002h-.002l-.002-.001-.002-.001h-.001l-.002-.002h-.002l-.004-.002-.001-.004v-.013l.002-.003V6.11l.002-.003.002-.002.001-.002.002-.003.002-.002.002-.002.002-.002.004-.004h.046v-.04h-.003v.001h-.002l-.004.001-.003.002h-.002l-.003.002-.002.002-.002.001-.002.002-.002.002-.002.002-.002.001-.003.002-.003.001-.003.002h-.008l-.005.001H4.08l-.002.001h-.002l-.002.002h-.001l-.002.002-.001.001-.002.002-.002.001-.001.002-.002.002-.003.002v.042z" class="fil4"/></g><path id="_148138920" fill="#fff" d="M4.034 6.132c.017-.006.026.004.06.012a.22.22 0 0 0 .005.168 1 1 0 0 0-.13-.072.2.2 0 0 1 .065-.108m.223-.03a.34.34 0 0 0-.049.242.5.5 0 0 0-.113-.07l-.001-.006v.001l.003.002h.013l.003-.002.003-.001.001-.002h.001l.001-.002.001-.001.001-.002V6.26l.001-.002h.004l.002-.001v-.001h.002l.001-.002.003-.002.002-.003.001-.002.001-.003v-.009l-.002-.003h-.002l-.001-.002h-.001l-.002-.001h-.002l-.001-.001.008-.043.002-.008h.016v.004l.001.001v.002l.002.001v.001l.003.002.003.002h.012l.003-.001.003-.002.001-.001.001-.001.001-.001.001-.002.002-.002.002-.001h.003l.001-.002h.002l.001-.001.002-.001.002-.003.003-.002.001-.003v-.003l.001-.003v-.003l-.001-.003-.002-.002-.001-.001-.001-.001-.002-.001-.002-.001h-.002l-.001-.002v-.003H4.19l-.001-.002v-.001l-.003-.002-.003-.001-.003-.001h-.008l-.003.002-.003.002h-.002v.002l-.002.001v.002l-.002.001v.002h-.017l.001-.007h.003l.002-.001h.002l.001-.002h.002l.002-.002.002-.002.002-.003.002-.002v-.003l.001-.003V6.12l-.001-.003-.002-.002-.001-.001-.001-.001-.001-.001h-.001l-.002-.001h-.001v-.004l-.001-.002v-.001l-.001-.001-.001-.002-.003-.002-.002-.001-.003-.001h-.01L4.13 6.1l-.003.002-.001.001-.001.001-.002.002-.001.002-.001.002v.001h-.003l-.001.001h-.002l-.001.002h-.001l-.002.001-.002.002-.002.003-.002.003v.012l.002.002.001.001.002.001.002.002h.003l-.001.008h-.01l.004-.009-.03-.012q-.004-.017.017-.034a1 1 0 0 1 .163.008zm-.168.128q0-.028.006-.053h.012l-.002.01-.008.04-.002.001h-.003l-.001.002zm.154-.083q.013-.003.025.009a.6.6 0 0 0-.027.16c-.051-.037-.026-.102.002-.169m-.322.159c-.023-.06.083-.085.095-.01q-.056-.02-.095.01" class="fil0"/><path id="_148128968" fill="#67422d" d="M4.262 6.243h.056l-.008.048-.03.011-.01.034c-.005.009-.01.01-.016.018h-.215c-.042-.011-.058-.031-.07-.061h.019l.004.001h.003l.003.002H4l.003.001.004.001.003.001.01.004-.002-.012h.026v-.007l.003.001.004.003.004.002.001.001.003.002.004.002.004.003.004.002.004.003.004.002.004.003.004.002.004.003.016.01-.007-.018-.002-.005-.002-.005-.001-.004h.025l.004.003.003.002.004.002.003.002.004.002.003.002.004.002.003.002.004.002.003.002.004.003.003.002.004.002.003.003.004.002.003.002.004.003.003.002.004.003.004.003.003.002.004.003.003.003.012.009-.002-.02-.001-.007v-.033l-.001-.003h.006l.001.003.003.005.003.004.004.005.003.004.005.004.012.009V6.29l.016-.048zm-.309.003-.03-.05.004-.003.033.052h-.005zm.092-.12V6.09h.012v.037h-.001l-.003-.001h-.004l-.003-.001zm.098-.037v-.064h.011v.064z"/><g id="g2203"><path id="_148128632" fill="#fcdb00" d="m4.03 6.092.011-.002-.01.002zm.022-.005c.015-.006.016-.02.035-.02.025 0 .022-.014.045-.02l.006-.001v-.018c-.014 0-.023.001-.03.017q-.01.013-.023.013c-.01.001-.019.002-.024.017q-.003.008-.014.012z" class="fil2"/><path id="_148131888" fill="#da251d" d="M4.13 6.019c-.014-.006-.033-.011-.038 0-.007.013.003.025-.018.025-.03 0-.02.018-.035.026-.01.005-.036.005-.044.015.022 0 .049-.004.055-.018.006-.015.015-.016.025-.018q.013.002.021-.012c.009-.017.018-.018.034-.018" class="fil1"/><path id="_148131576" fill="#e77817" d="m4.138 6.023-.004-.002c-.017 0-.028 0-.036.017q-.01.013-.023.013c-.009.001-.018.002-.023.017-.007.015-.036.018-.058.019l-.001.005q.014-.002.025 0l.023-.005h.002q.012-.004.016-.013c.006-.015.016-.016.025-.018q.014.002.022-.012c.008-.016.017-.018.032-.018z"/></g><path id="_148129768" fill="#da251d" d="M4.095 6.175h.015l-.002.01-.01.045-.01.003.003.023v.001l.003.009c.004.005.014.005.02 0l.007-.01.009-.003q.01-.01.004-.02a.01.01 0 0 0-.01-.003l.009-.045.002-.01h.021a.01.01 0 0 0 .002.01q.01.007.02 0l.007-.008.01-.004q.012-.009.004-.019l-.009-.003-.003-.008q-.008-.009-.02 0l-.006.009H4.14l.002-.013.012-.003q.011-.01.004-.02l-.008-.003a.01.01 0 0 0-.002-.01q-.01-.006-.02 0l-.007.01-.01.004q-.01.009-.003.019a.01.01 0 0 0 .01.003l-.003.013h-.012z" class="fil1"/><path id="_148125856" fill="#522628" d="M4.052 5.547h.139v.031h-.14zm0-.003h.138q.007 0 .008-.005 0-.006-.008-.005h-.138q-.007 0-.008.005 0 .006.008.005m0 .047h.138q.007 0 .008-.005 0-.006-.008-.005h-.138q-.007 0-.008.005 0 .006.008.005m-.017.04A.2.2 0 0 0 4.1 5.62c.023-.01.02-.01.042 0a.1.1 0 0 0 .065.013q.009-.001.01-.013-.001-.012-.01-.013h-.173q-.01.001-.01.013t.01.013zm.013-.037h.147l.012.01h-.172zm.068-.197h.01v.12h-.01zm-.04.134h.091a.005.005 0 0 0 .005-.006l-.005-.005h-.092l-.005.005q0 .005.005.006zm.002.176-.035-.001c-.014 0-.016-.015-.003-.023.022-.01.012-.04-.011-.032-.035-.005-.074-.002-.108-.007-.032-.011-.06-.018-.047.011a.4.4 0 0 0 .143.16c-.068-.023-.123-.085-.173-.159-.069-.03-.211-.004-.337-.046-.044-.01-.027.058.02.06.003.021.023.031.051.036q-.005.024.04.034.012.029.058.027.008.026.053.026c.011.017.042.019.076.018a.1.1 0 0 1 .06.009.5.5 0 0 0 .115.048l.002-.002.002-.002.002-.002.001-.001h.002l.003-.002.003-.002h.003l.004-.001h.022l.004.001h.004l.004.001h.004l.004.001h.004l.005.002.003.002.003.001.003.003.002.002.002.003.002.003.001.004h.008l-.01-.006h.043l.013-.04.013.04h.042l-.01.007h.008v-.001l.001-.004.002-.003.002-.003.002-.002.003-.003.003-.001.003-.002.004-.002h.012l.004-.001h.004l.004-.001h.004l.004-.001h.019l.003.001.003.002.003.001.001.001.002.001.002.002.002.002.001.002a.5.5 0 0 0 .115-.049.1.1 0 0 1 .062-.008c.034 0 .065-.001.076-.018q.045 0 .053-.026.046.002.058-.027.045-.01.04-.034c.028-.005.048-.015.05-.037.048 0 .065-.07.021-.059-.126.042-.269.016-.337.046-.05.074-.105.136-.173.16a.4.4 0 0 0 .143-.16c.012-.03-.015-.023-.047-.012-.034.005-.073.002-.108.007-.023-.008-.033.023-.011.032.013.008.011.022-.003.023h-.01a.07.07 0 0 1-.031-.044c-.008-.03-.053-.03-.069-.005q-.026.006-.03.028c.012-.01.03-.002.022.015z"/><path id="_148125040" fill="#fff" d="M3.991 5.864c.012-.008.037-.002.057 0 .018.005.023.023.015.044-.012-.01-.006-.018-.02-.024q.003.009-.01.018-.01-.013-.012-.021 0 .01-.01.02l-.013-.022a.03.03 0 0 1-.009.02c-.013-.02-.007-.031.002-.035m.263 0c-.012-.008-.037-.002-.057 0-.018.005-.023.023-.015.044.012-.01.006-.018.02-.024q-.003.009.01.018.01-.013.012-.021 0 .01.01.02l.013-.022q-.002.01.009.02c.013-.02.007-.031-.002-.035" class="fil0"/><path id="_148123752" fill="#fff" d="M4.078 5.713c.006.016.073.037.101-.012a.1.1 0 0 1-.025-.044c-.011-.021-.04-.018-.056 0q-.024.008-.03.02c.025-.006.035.023.01.036m.016-.053q.006.012-.002.022a.03.03 0 0 0 .002-.022m.018.001q-.004 0-.003.003l.004.002q.003 0 .003-.003z" class="fil0"/><path id="_148122936" fill="#da251d" d="M4.222 5.43c-.016 0-.033-.012-.049-.022l-.001.01c.012.012.027.012.042.012z" class="fil1"/><path id="_148122120" fill="#fff" d="m4.22 5.44.002-.009h-.008c-.015 0-.03 0-.042-.012v.009c.012.012.027.012.042.012z" class="fil0"/><path id="_148121304" fill="#da251d" d="M4.22 5.45v-.01h-.006c-.015.001-.03.001-.042-.011l.002.01c.011.011.026.01.04.01h.005z" class="fil1"/><path id="_148120136" fill="#da251d" d="M4.13 5.481v.006c.014-.007.027 0 .041.01a.05.05 0 0 0 .051.004V5.5h-.008c-.015 0-.03 0-.042-.012q-.014-.011-.035-.008z" class="fil1"/><path id="_148118888" fill="#fff" d="M4.13 5.472v.008l.007-.001a.04.04 0 0 1 .035.008c.012.012.027.012.042.012h.008l-.002-.01h-.006c-.015.001-.03.001-.042-.011q-.015-.011-.035-.008z" class="fil0"/><path id="_148117640" fill="#da251d" d="M4.13 5.462v.008l.007-.001q.02-.004.035.008c.012.012.027.012.042.012h.006V5.48h-.006c-.015 0-.03 0-.042-.012q-.015-.011-.035-.008z" class="fil1"/><path id="_148116392" fill="#fff" d="M4.13 5.452v.009l.007-.002q.02-.003.035.008c.012.013.027.012.042.012h.005V5.47h-.005c-.015 0-.03 0-.042-.012q-.015-.011-.035-.008z" class="fil0"/><path id="_148115144" fill="#da251d" d="M4.13 5.442v.009l.007-.002q.02-.004.035.008c.012.013.027.012.042.012h.005V5.46h-.005c-.015 0-.03.001-.042-.012q-.015-.012-.035-.008z" class="fil1"/><path id="_148113880" fill="#fff" d="M4.13 5.437v.004l.007-.002q.02-.004.035.009c.012.012.027.012.042.011h.005v-.008h-.005c-.014 0-.028 0-.04-.01v.002l-.019-.005c-.009-.003-.018-.007-.025-.001" class="fil0"/><path id="_148112456" fill="#28166f" d="M4.13 5.4v.034c.007-.004.017 0 .026.003l.017.004a.1.1 0 0 1-.002-.033c-.014-.008-.028-.014-.041-.008"/><path id="_148221144" fill="#fff" d="M4.135 5.4v.002h.003l-.002.001v.002-.001l-.002.001v-.002h-.001.001l.001-.002zm.03.031v.002h.002l-.001.001v.002l-.001-.001h-.002v-.002h.001v-.002zm-.008-.002.001.001h.002l-.002.002.001.001h-.003v-.001l-.001-.002h.002zm-.007-.003v.002h.002-.001v.002h-.003v-.002h.001v-.002zm-.007-.002v.001h.003l-.002.001v.002h-.002v-.002h-.001.002zm-.008 0v.001h.003l-.002.001v.002h-.002v-.002h-.001.001zm.03 0v.001h.002l-.001.001v.002l-.001-.001h-.002v-.002h.001zm-.008-.003.001.001h.002l-.002.002.001.001h-.003v-.001l-.001-.002h.002zm-.007-.003v.002h.002-.001v.002h-.003V5.42h.001zm-.007-.002v.001h.003l-.002.001v.002h-.002v-.002h-.001.002zm-.008 0v.001h.003l-.002.001v.002h-.002v-.002h-.001.001zm.03 0v.002h.002l-.001.001v.002l-.001-.001-.002.001v-.002h.001zm-.008-.002.001.002h.002-.002l.001.002h-.003v-.001l-.001-.001h.002zM4.15 5.41v.002h.002-.001v.002h-.003v-.002h.001V5.41zm-.007-.002v.002h.003-.002v.002h-.002v-.001l-.001-.001h.002zm-.008 0v.002h.003-.002v.002h-.002v-.001l-.001-.001h.001zm.03 0h.002l-.001.002v.002l-.001-.001h-.002V5.41h.001zm-.008-.003.001.001h.002l-.002.001.001.002h-.003v-.002h-.001.002zm-.007-.003v.001h.002l-.001.002v.001h-.003v-.003h.001zM4.143 5.4v.001h.003l-.002.001v.002-.001l-.002.001v-.002h-.001.002z" class="fil0"/><path id="_148219944" fill="#fff" d="M4.158 5.595h.012q.006 0 .007.004 0 .005-.007.004h-.012q-.006 0-.007-.004 0-.005.007-.004" class="fil0"/><path id="_148218744" fill="#fff" d="M4.095 5.551q.005 0 .005.006v.014l-.005.005a.005.005 0 0 1-.006-.005v-.014q0-.005.006-.006" class="fil0"/><path id="_148217544" fill="#fff" d="M4.121 5.551q.005 0 .006.006v.014a.005.005 0 0 1-.006.005l-.005-.005v-.014q0-.005.005-.006" class="fil0"/><path id="_148216728" fill="#fff" d="M4.147 5.551q.005 0 .006.006v.014a.005.005 0 0 1-.006.005l-.005-.005v-.014q0-.005.005-.006" class="fil0"/><path id="_148215912" fill="#fff" d="M4.174 5.551q.005 0 .005.006v.014l-.005.005a.005.005 0 0 1-.006-.005v-.014q0-.005.006-.006" class="fil0"/><path id="_148215096" fill="#fff" d="M4.069 5.551q.005 0 .005.006v.014l-.005.005a.005.005 0 0 1-.006-.005v-.014q0-.005.006-.006" class="fil0"/><path id="_148214280" fill="#fff" d="M4.07 5.595h.012q.006 0 .007.004 0 .005-.007.004H4.07q-.006 0-.007-.004 0-.005.007-.004" class="fil0"/><path id="_148212808" fill="#fcdb00" d="m4.123 5.847.01.03h.032l-.026.019.01.03-.026-.019-.026.02.01-.031-.026-.019h.032z" class="fil2"/></g><path id="_148058272" fill="none" d="M3.096 6.202 3.12 6.2h.009l.004.002h.004l.004.002.003.002.003.003.002.002.003.003.001.003.002.003.002.003.001.003.001.003.001.004.001.003.001.004.001.003.001.004.001.004.001.003.001.004.002.003v.004l.002.003.002.004.002.003.002.003.003.003.002.003.01.01-.005-.008-.003-.005-.003-.005-.003-.005-.001-.004-.002-.005V6.26l-.001-.004V6.24l.002-.003v-.004l.002-.003.001-.003.001-.003.002-.002.001-.003.001-.003.001-.002.001-.003V6.21l.001-.003v-.014l-.002-.003-.001-.003-.013-.02.021.013.004.003.003.003.003.003.003.003.002.004.002.003v.003l.001.004v.017l-.001.004-.001.003-.001.003-.002.004v.003l-.002.004-.001.004-.001.003-.001.004-.001.003v.004l-.001.004v.003l-.001.004v.008l.001.004.006.025-.006-.009-.023-.008-.006-.002-.005-.003-.005-.003-.004-.002-.003-.003-.004-.003-.002-.004-.003-.003-.002-.003-.001-.003-.002-.004v-.003l-.002-.003v-.007l-.001-.003v-.003l-.001-.003v-.003l-.001-.002-.001-.003v-.003l-.002-.002v-.002l-.002-.002-.002-.002-.002-.002-.002-.002-.002-.002-.003-.002-.021-.01zm1.191.691-.006.023-.002.005-.002.004-.002.004-.002.003-.003.003-.002.003-.003.002-.003.001-.004.002h-.003l-.003.002h-.048l-.003.001-.004.001h-.004l-.003.002-.004.001-.004.002-.012.007.009-.003.006-.002.005-.001h.005l.005-.001h.014l.003.001.004.002.003.001.004.002.003.002.002.002.003.002.002.002.003.002.002.002.002.002.003.002.002.001.002.002.002.001.003.002h.002l.002.001.003.001h.012l.022-.007-.018.016-.004.003-.004.003-.004.002L4.265 7l-.004.001h-.004l-.003.001h-.007L4.243 7H4.24l-.003-.001-.003-.002-.003-.002-.003-.002-.003-.002-.003-.002-.003-.002-.003-.002-.003-.002-.003-.002-.004-.002-.003-.002-.003-.002-.004-.002-.003-.001-.004-.001-.003-.001-.004-.001h-.004l-.026-.002.01-.004.015-.02.004-.004.004-.004.004-.004.003-.003.004-.003.004-.002.004-.002.004-.001h.003l.004-.002h.017l.003.001h.006l.003.001h.016l.002-.001.002-.002.003-.001.002-.002.003-.003.015-.017zm-.06-.053.005.023v.005l.001.005v.008l-.001.004-.001.003-.002.003-.002.003-.002.003-.002.003-.003.002-.003.002-.003.002-.003.002-.003.002-.003.001-.003.002-.004.002-.003.001-.003.002-.004.002-.003.002-.003.002-.003.002-.003.002-.003.002-.003.003-.002.003-.003.003-.002.003-.014.022.004-.028.001-.006.002-.006.002-.005.001-.004.003-.004.002-.004.002-.004.003-.002.003-.003.003-.002.003-.002.003-.002.003-.002.003-.001.003-.001.003-.001.003-.002h.002l.003-.002h.003l.002-.002.002-.001.003-.002.002-.001.001-.002.002-.002.002-.002.001-.003.001-.002.001-.004zm-.049.283-.017-.017-.004-.003-.002-.004-.003-.003-.002-.004v-.004l-.002-.003V7.07l.002-.004v-.003l.002-.003.002-.003.001-.004.002-.003.002-.003.002-.003.002-.003.002-.004.001-.003.002-.003.002-.004.001-.003.001-.004.002-.003v-.004l.001-.003v-.03l-.011-.01.026.008.006.003.005.002.005.003.004.003.004.002.003.003L4.22 7l.002.003.002.003.002.003.001.004.001.003.001.003v.003l.002.003v.007l.001.003v.002l.001.003v.003l.002.002v.003l.002.002.001.002.002.002.002.002.002.002.002.002.003.001.022.01h-.038l-.004-.002-.004-.002-.003-.001-.003-.003-.002-.002-.002-.003-.002-.003-.002-.003-.002-.003-.001-.003-.001-.003-.001-.004-.002-.003V7.03l-.002-.003v-.004L4.2 7.021v-.004l-.002-.004-.001-.003-.002-.004-.001-.003L4.192 7l-.002-.003-.002-.004-.003-.003-.002-.002-.005-.005.009.02.002.005.002.006.002.005v.009l.001.005v.008l-.002.003-.001.004-.001.003-.002.003-.002.003-.001.003-.002.003-.002.002-.002.003-.002.002-.001.003-.002.002-.001.002-.002.003v.002l-.001.002-.001.003v.011l.001.003zm.231-.265-.001.024-.001.005-.001.005-.002.004-.001.003-.002.004-.002.003-.003.002-.003.003-.003.001-.003.002-.003.001-.003.002h-.003l-.004.001-.003.001h-.004l-.004.001-.003.001h-.004l-.004.001H4.35l-.004.002h-.004l-.003.002h-.004l-.003.002-.004.002-.003.001-.003.003-.004.002-.01.01.008-.006.005-.002.005-.003.005-.002.005-.001.005-.001h.02l.003.002.003.001.003.002.003.001.003.002.003.001.003.002.002.001.003.002.002.001.003.001.002.001.002.001h.003l.002.001h.008l.004-.001.003-.002.02-.01-.014.02-.004.003-.003.003-.003.003-.004.002-.003.002H4.4l-.003.002h-.014L4.38 6.97h-.004l-.003-.002-.003-.001-.004-.002-.003-.001-.003-.002-.004-.001-.003-.002-.004-.001-.003-.002h-.004l-.003-.002-.004-.001h-.004l-.003-.001h-.012l-.025.003.009-.006.01-.022.003-.005.003-.005.003-.004.004-.004.003-.003.003-.003.004-.002.003-.002.004-.002.003-.001.004-.001.003-.001h.003l.004-.001h.015l.003-.001h.002l.003-.001h.002l.003-.002h.002l.002-.002.002-.002.003-.002.002-.002.002-.003zm-.07-.04.01.021.003.005v.004l.002.004v.012l-.002.003-.001.004-.002.003-.002.003-.002.002-.002.003-.003.003-.002.002-.003.002-.003.002-.003.003-.003.002-.003.002-.003.003-.003.002-.002.002-.003.003-.003.002-.002.003-.003.003-.002.003-.002.003-.002.004-.002.003-.009.024-.001-.028v-.012l.001-.005.001-.005.001-.004.002-.004.002-.004.002-.003.002-.004.003-.002.002-.003.003-.002.002-.002.003-.002.003-.002.003-.002.002-.001.003-.002.002-.001.002-.002.003-.001.002-.002.002-.002.001-.002.002-.002.001-.002.001-.002.001-.003v-.003l.001-.004zm.006.286-.02-.013-.004-.003-.004-.003-.002-.003-.003-.003-.002-.003-.001-.004-.002-.003v-.017l.001-.004.001-.003.001-.004.001-.003.001-.004.002-.003v-.004l.002-.003.001-.004.001-.003.001-.004.001-.004v-.003l.001-.004v-.015l-.005-.022-.013-.008.027.004.006.001.006.002.005.002.004.001.005.003.003.002.004.002.003.003.002.003.002.003.002.003.002.003.002.003.001.003.001.003.001.003.001.003.001.003.002.002v.003l.002.002.001.003.001.002.002.002.002.002.002.001.002.002.002.001.003.002h.004l.022.006-.024.005-.004.001H4.38l-.004-.002-.003-.002-.003-.002-.002-.002-.003-.002-.002-.003-.002-.003-.002-.003-.002-.003-.002-.003-.001-.003-.002-.003-.002-.004-.001-.003L4.348 7l-.002-.004-.002-.003-.002-.003-.002-.003-.002-.003-.002-.003-.003-.003-.002-.003-.003-.002-.004-.002-.005-.004.012.017.004.006.003.005.002.004.002.005.001.004v.005l.001.004v.011l-.001.004-.001.003-.001.003-.001.003-.002.003-.001.003-.001.003-.002.003v.002l-.002.003v.003l-.002.002v.016l.002.003.001.003zm.187-.304.003.024v.014l-.001.004-.002.004-.001.003-.002.003-.002.003-.003.002-.002.002-.003.002-.003.002-.003.002-.004.001-.003.002-.003.001-.004.001-.003.002-.004.001-.003.001-.003.002-.004.001-.003.002-.004.002-.003.002-.003.002-.003.002-.003.002-.003.003-.002.003-.009.011.007-.006.005-.004.004-.003.005-.003.004-.002.004-.002.005-.002h.004l.004-.001h.014l.003.001.004.001.003.001h.003l.003.002h.002l.003.002h.003l.003.001h.005l.002.001h.005l.003-.001.003-.001.002-.002.003-.002.018-.014-.01.022-.003.004-.002.004-.003.003-.003.003-.003.002-.003.002-.003.002h-.004l-.003.002h-.017l-.004-.002h-.004l-.003-.001h-.004l-.003-.002h-.004l-.004-.001H4.49l-.004-.001h-.023l-.003.002-.025.008.008-.007.006-.024.002-.006.002-.005.002-.005.002-.004.003-.004.002-.004.003-.003.003-.002.003-.003.003-.002.004-.001.003-.002h.003l.003-.002h.003l.003-.002h.003l.003-.001.003-.001h.003l.002-.002h.003l.002-.002.002-.001.002-.002.002-.002.002-.002.001-.002.002-.003.001-.003zm-.077-.026.014.02.003.004.002.004.002.004v.004l.002.004v.007l-.001.004-.001.003-.001.003-.002.003-.002.003-.002.003-.002.003-.002.003-.002.003-.003.002-.002.003-.002.003-.003.003-.002.003-.002.003-.003.003-.002.003-.002.003-.001.003-.002.004-.001.003-.002.004v.004l-.004.025-.007-.027-.002-.006V6.86l.001-.004.002-.004.001-.003.002-.003.002-.003.002-.003.002-.003.003-.002.002-.002.002-.003.002-.002.003-.002.002-.002.002-.002.001-.002.002-.002.001-.002.002-.002v-.002l.002-.003v-.012zm.037.27-.004-.003-.003-.002-.003-.003-.003-.002-.002-.003-.002-.004-.001-.003-.001-.003v-.004l-.001-.003v-.021l.001-.004v-.004l.001-.003v-.004l.001-.004v-.019l-.001-.003-.002-.004v-.004l-.01-.02-.015-.005.028-.002h.012l.006.001.004.001.005.001.004.002.004.002.003.002.003.002.003.002.003.003.002.002.002.003.002.003.002.002.002.003.001.003.002.002.001.003.002.002.002.002.001.002.002.002.002.002.002.001.002.001.003.001.003.001h.003l.003.001h.023l-.022.01-.004.003h-.005l-.004.002h-.011l-.004-.001-.003-.002-.003-.001-.003-.002-.003-.002-.003-.003-.002-.002-.003-.003-.002-.002-.002-.003-.002-.003-.003-.003-.002-.003-.002-.003-.003-.003-.002-.002-.003-.003-.002-.003-.003-.002-.003-.003-.003-.002-.003-.002-.004-.002-.003-.001-.006-.002.015.014.005.004.003.004.004.005.002.004.003.004.001.004.002.004v.004l.001.003v.018l-.002.003V7l-.001.003v.003l-.001.003v.003l-.001.002v.013l.002.002v.003l.003.003.002.002.016.017-.023-.008zm.146-.327.008.023.002.005v.02l-.002.003-.002.004-.001.003-.003.002-.002.003-.003.002-.002.002-.003.002-.003.003-.003.002-.003.001-.003.002-.004.002-.003.002-.003.003-.003.002-.003.002-.003.002-.003.003-.002.002-.003.003-.002.003-.002.003-.002.004-.006.012.005-.007.004-.005.004-.004.003-.004.004-.003.004-.002.004-.003.004-.001.003-.002h.004l.004-.001h.026l.003.001h.015l.003-.002.002-.001.003-.002.002-.002.003-.002.015-.018-.006.024-.002.004-.002.005-.002.003-.002.004-.003.003-.002.002-.003.002-.003.002-.004.001-.003.002h-.007l-.003.001h-.037l-.004.001h-.003l-.004.001-.004.001-.003.001-.004.002-.003.002-.022.013.006-.009V6.82l.001-.006.001-.006.001-.005.002-.005.002-.004.002-.004.002-.004.002-.003.003-.003.002-.002.003-.003.003-.002.003-.001.003-.002.003-.002.002-.001.003-.001.003-.002.002-.001.003-.001.002-.002.002-.001.002-.002.002-.001.002-.002.001-.002.002-.003v-.002l.002-.003V6.74zm-.08-.01.018.016.004.004.003.003.002.004.002.004.001.003.001.004v.014l-.001.003-.001.003-.002.004-.001.003-.002.003-.001.003-.002.003-.002.004-.002.003-.002.003-.001.004-.002.003-.002.003-.001.004-.001.003-.001.004-.001.004v.003l-.001.004v.03l-.012-.025-.002-.006-.002-.006-.001-.005-.001-.005v-.004l-.001-.005V6.79l.002-.003v-.004l.002-.003.002-.003.001-.003.002-.003.002-.003.002-.002.001-.003.002-.002.002-.003.001-.002.002-.003V6.75l.002-.002v-.003l.001-.002v-.011l-.001-.004zm.119.262-.024-.004-.005-.001-.004-.002-.004-.001-.004-.002-.003-.003-.003-.002-.002-.003-.002-.003-.002-.003-.001-.003-.001-.003-.001-.004v-.003l-.001-.004v-.007l-.001-.004v-.011l-.001-.003v-.004l-.001-.004v-.004l-.002-.003v-.004l-.002-.003-.002-.004-.001-.003-.002-.004-.013-.017-.016-.003.027-.007.006-.001.006-.001h.019l.004.001.004.002.004.001.003.002.003.002.003.002.002.002.003.003.002.002.002.002.002.002.002.003.002.002.002.002.002.001.003.002.002.001.002.002h.002l.003.001.002.001h.01l.023-.004-.02.014-.004.003-.004.002-.004.002h-.004l-.004.002h-.007l-.004-.001-.003-.001-.003-.001-.003-.002-.003-.002-.003-.001-.003-.003-.003-.002-.003-.002-.003-.002-.002-.003-.003-.002-.003-.003-.003-.002-.003-.002-.003-.002-.003-.002-.003-.002-.004-.002-.003-.002-.004-.001-.003-.001-.004-.001h-.006l.018.01.005.003.004.004.004.003.004.004.003.003.002.004.002.004.002.003.001.004.001.003.001.004v.034l.001.002v.003l.002.002v.002l.002.003.002.002.002.002.003.002zm.075-.34.009.022.002.005v.004l.001.004v.012l-.001.003-.002.004-.002.003-.002.003-.002.002-.002.003-.003.002-.002.002-.003.003-.003.002-.003.002-.003.002-.003.002-.003.003-.003.002-.003.002-.003.003-.002.002-.003.003-.003.003-.002.003-.002.003-.002.003-.002.004-.005.013.005-.008.003-.005.004-.004.003-.004.004-.004.004-.003.003-.002.004-.002.004-.002.003-.001h.004l.003-.002h.039l.002-.001.003-.002h.002l.002-.003.003-.002.002-.002.014-.019-.005.024v.005l-.002.004-.002.004-.002.003-.003.003-.002.003-.003.002-.003.002-.003.002-.003.001-.003.001-.004.001h-.003l-.004.001h-.011l-.003.001h-.012l-.003.001h-.004l-.004.001-.003.001-.004.001-.004.001-.003.002-.004.001-.003.002-.021.015.006-.01-.001-.023v-.012l.001-.006.002-.004.001-.005.002-.004.002-.004.002-.003.002-.003.003-.003.002-.002.003-.002.003-.002.002-.002.003-.002.003-.002.003-.001.002-.002.003-.001.002-.002.002-.001.002-.002.002-.001.002-.002.001-.002.002-.002.001-.003.001-.003v-.003l.001-.003zm-.081-.005.019.015.004.003.003.004.002.003.002.004.002.003.001.004v.003l.001.004v.01l-.002.003v.004l-.002.003-.002.003-.001.004-.002.003-.001.003-.002.004-.001.003-.002.003-.001.004-.002.003v.004l-.002.004v.003l-.001.004v.012l.002.025-.014-.024-.003-.006-.002-.005-.002-.005v-.005l-.002-.004v-.017l.002-.003v-.004l.002-.003.001-.003.002-.003.002-.003.001-.002.002-.003.001-.003.002-.002.001-.003.001-.002.001-.002.001-.003v-.002l.001-.003v-.008l-.001-.003-.001-.003zm.136.253-.024-.002-.005-.001-.005-.001-.004-.002-.003-.001-.004-.002-.003-.003-.002-.002-.002-.003-.002-.003-.002-.003-.001-.003-.001-.004-.001-.003v-.003l-.001-.004v-.004l-.001-.003v-.004l-.001-.004-.001-.003v-.004l-.001-.004-.001-.003-.001-.004-.001-.003-.001-.004-.002-.003-.002-.004-.002-.003-.002-.003-.014-.017-.015-.001.026-.01.006-.001.006-.001.005-.001h.018l.004.002h.003l.004.003.003.001.003.002.002.002.003.002.003.002.002.002.002.003.002.002.003.002.002.001.002.002.002.001.002.002h.003l.002.002h.015l.022-.006-.019.016-.004.003-.003.002-.004.002-.004.002h-.004l-.003.001h-.008l-.003-.001-.003-.001-.004-.001-.003-.002-.003-.002-.003-.001-.003-.002-.003-.003-.003-.002-.003-.002-.003-.002-.003-.002-.003-.002-.003-.002-.003-.002-.003-.002-.004-.002-.003-.002h-.004l-.003-.002H4.73l-.004-.001H4.72l.019.009.005.003.005.003.004.003.004.003.003.004.003.003.002.004.002.003.002.004v.003l.002.004v.006l.001.004v.018l.001.003v.002l.001.003.001.002.001.002.001.003.002.002.002.002.002.002.003.002.02.012zm.021-.354.014.02.003.003.002.005.002.003v.004l.002.004v.007l-.001.004-.001.003-.001.004-.002.003-.002.003-.001.003-.003.002-.002.003-.002.003-.002.003-.003.003-.002.003-.003.002-.002.003-.002.003-.002.003-.003.003-.001.004-.002.003-.002.003-.001.004-.001.004-.001.004-.002.013.003-.008.002-.006.002-.005.003-.005.003-.004.002-.004.003-.003.004-.003.003-.002.003-.002.003-.002.003-.001.004-.001.003-.001.003-.001h.003l.004-.001h.003l.002-.001.003-.001h.003l.003-.001.002-.001.003-.001.002-.001.002-.002.002-.001.002-.002.002-.002.001-.003.002-.003.01-.021v.038l-.002.003-.002.004-.002.003-.002.003-.002.003-.003.002-.003.002-.003.002-.003.001-.003.002h-.003l-.004.002-.003.001-.004.001-.003.001-.004.001-.003.001-.004.001-.003.002-.004.001-.003.001-.004.002-.003.002-.003.002-.003.002-.003.003-.003.002-.017.02.003-.01-.006-.024-.001-.006-.001-.006V6.61l.001-.004L4.8 6.6l.001-.003.002-.004.002-.003.002-.002.002-.003.003-.002.002-.003.002-.002.002-.002.003-.002.002-.002.002-.002.001-.002.002-.002.002-.002v-.003l.002-.002v-.002l.001-.003v-.008zm-.08.014.023.01.004.002.004.003.003.003.003.003.002.003.002.003.002.003v.003l.002.004v.017l-.001.004-.001.003v.004l-.001.004-.001.003-.001.004v.003l-.001.004v.004l-.001.004v.015l.001.003.001.004.01.024-.02-.02-.004-.005-.004-.004-.002-.005-.003-.004-.002-.004-.001-.004-.001-.005V6.62l-.001-.004v-.011l.001-.003.001-.004.001-.003.001-.003.001-.003.001-.002v-.003l.002-.003v-.008l.001-.002v-.005l-.001-.003-.002-.003-.001-.002-.002-.003zm.191.215-.024.003h-.013l-.004-.001-.004-.001-.003-.002-.003-.002-.003-.002-.003-.002-.002-.003-.002-.003-.002-.003-.001-.003-.002-.003-.001-.003-.002-.004-.001-.003-.001-.004-.002-.003-.001-.004-.002-.003-.001-.004L4.86 6.7l-.001-.003-.002-.003-.002-.004-.003-.003-.002-.002-.003-.003-.003-.003-.017-.013-.016.002.024-.015.005-.003.005-.002.005-.002.005-.002h.005l.004-.001h.016l.003.002.003.001.003.001.003.002.003.001.003.002.003.001.002.002.003.001.002.001.003.001.002.001.003.001h.005l.002.001h.006l.003-.002.003-.001.02-.01-.014.019-.003.003-.003.004-.003.002-.004.003-.003.001-.004.002h-.003l-.004.001h-.01L4.9 6.68l-.004-.001-.003-.001-.004-.002-.003-.001-.003-.001-.004-.002-.003-.001-.004-.002-.003-.001-.004-.001-.003-.002h-.004l-.003-.002H4.83l.02.005.007.002.005.002.005.002.004.003.004.002.004.003.003.003.003.003.002.003.002.003.002.003.001.003.001.003.001.003.001.003.001.003v.003l.002.003v.003l.001.003.001.002.001.003.001.002.002.002.001.002.002.002.002.002.002.001.003.002.003.001.022.008zm-.024-.35.014.02.003.004.002.004.002.004v.004l.001.004v.011l-.001.003-.002.003-.001.003-.002.003-.002.003-.002.003-.002.003-.002.003-.003.003-.002.002-.003.003-.002.003-.002.003-.003.003-.002.003-.002.003-.002.003-.002.004-.001.003-.001.004-.002.003v.004l-.003.014.003-.009.003-.005.002-.006.003-.004.002-.004.003-.004.003-.003.003-.003.003-.002.004-.003.003-.001.003-.002h.003l.004-.002h.003l.003-.001h.003l.003-.001h.003l.003-.001.003-.001h.002l.003-.002h.002l.003-.002.002-.001.002-.002.002-.002.001-.002.002-.002.002-.003.009-.022.001.024v.01l-.001.004-.001.004-.002.004-.002.003-.002.003-.002.002-.003.003-.003.002-.003.001-.003.002-.003.001-.004.001-.003.002h-.003l-.004.002h-.003l-.004.002h-.004l-.003.002-.004.001-.003.002-.004.001-.003.002-.003.001-.004.002-.003.003-.003.002-.002.003-.018.019.004-.01-.006-.024-.002-.006v-.005l-.001-.006v-.009l.001-.005.001-.004.001-.003.002-.004.002-.003.002-.003.002-.003.002-.002.002-.003.003-.002.002-.002.002-.003.002-.002.002-.002.002-.002.002-.002.002-.002.001-.002.001-.002.001-.002.001-.003v-.002l.001-.003v-.007zm-.08.014.022.01.005.003.003.003.004.002.002.003.003.003.002.003.001.004.001.003.001.003v.021l-.001.004-.001.003v.004l-.002.004v.003l-.001.004V6.5l-.001.004v.018l.001.004.001.004.009.024-.02-.02-.003-.005-.004-.005-.003-.004-.002-.005-.002-.004-.001-.004-.001-.004-.001-.004v-.014l.001-.004.001-.003v-.003l.002-.003v-.003l.002-.003v-.003l.001-.002v-.003l.001-.003v-.012l-.002-.003-.001-.003-.002-.003zm.191.215-.024.004h-.014l-.004-.002h-.003l-.004-.002-.003-.002-.002-.002-.003-.003-.002-.003-.002-.002-.002-.003-.002-.003-.001-.004-.002-.003-.001-.003-.001-.004-.002-.003-.001-.004-.001-.003-.002-.004-.001-.003-.002-.003-.002-.004-.002-.003-.002-.003-.002-.003-.002-.003-.003-.003-.003-.002-.018-.013-.015.002.024-.015.005-.003.005-.002.005-.002.005-.002.004-.001h.02l.004.001.003.002h.003l.003.002.003.002.003.001.002.002.003.001.003.002h.002l.003.002H5l.003.002h.013l.003-.001.003-.002.02-.01-.014.02-.003.003-.003.003-.004.003-.003.002-.004.002-.003.001-.003.001h-.018l-.003-.002H4.98l-.003-.002-.003-.001-.004-.002-.003-.001-.003-.002-.004-.001-.003-.002h-.004l-.003-.002-.004-.001h-.004l-.003-.002h-.016l-.006.001.02.005.006.002.006.002.005.002.004.002.004.003.003.002.004.003.002.003.003.003.002.003.001.003.002.004v.003l.002.003v.003l.002.003v.003l.001.003.001.003.001.002v.003l.002.002.001.003.001.002.002.002.002.002.002.001.002.002.003.002h.003zm-.08-.36.019.015.004.003.003.004.002.003.002.004.002.003.001.004v.003l.001.004v.007l-.001.003-.001.003-.001.004-.002.003-.001.003-.002.004-.001.003-.002.003-.001.004-.002.003-.001.003-.002.004-.001.003-.001.004-.002.003v.004l-.001.004v.011l.001.014v-.009l.001-.006.001-.005.002-.006.001-.004.002-.005.002-.003.002-.004.003-.003.002-.003.003-.002.003-.003.003-.002.003-.001.003-.002.003-.001.003-.002.002-.001.003-.001.003-.001.002-.002.003-.001.002-.002.002-.001.002-.002.001-.002.002-.002.001-.002.001-.003.002-.003v-.003l.004-.023.007.023.001.005.001.005v.012l-.002.003v.004l-.003.003-.002.003-.002.002-.002.003-.003.002-.003.002-.003.002-.003.002-.003.002-.003.002-.003.002L5 6.373l-.003.002-.003.002-.004.002-.003.002-.003.002-.002.003-.003.002-.003.003-.002.003-.003.003-.002.003-.011.023v-.01l-.012-.021-.002-.006-.003-.005-.001-.005-.002-.005V6.35l.001-.004.001-.003.002-.003.001-.003.002-.003.001-.003.002-.003.001-.002.002-.003.002-.002v-.003l.002-.002.001-.003.001-.002v-.002l.001-.003v-.008l-.001-.003-.001-.003zm-.073.033.024.005H4.9l.005.002.004.002.003.002.003.003.003.002.002.003.002.003.002.003v.003l.002.003v.004l.001.003v.004l.001.003v.015l.001.004v.007l.001.004v.004l.002.003v.004l.002.004.001.003.002.004.002.003.015.021-.024-.015-.005-.003-.005-.004-.004-.003-.003-.004-.003-.004-.003-.003-.002-.004-.001-.004-.001-.003-.001-.004v-.003l-.001-.004v-.033L4.9 6.332V6.33l-.002-.003-.001-.002-.002-.002-.002-.003-.003-.002zm.239.16-.023.01h-.004l-.005.002h-.016l-.003-.001-.003-.002-.003-.002-.003-.002-.003-.002-.002-.002-.003-.003-.002-.002-.002-.003-.002-.003-.003-.003-.002-.003-.002-.003-.002-.003-.002-.003-.003-.003-.002-.003-.003-.003-.002-.002-.003-.003-.003-.002-.003-.002-.004-.002-.003-.002-.02-.008-.015.006.02-.02.004-.005.004-.004L5 6.383l.004-.002.004-.003.004-.001.004-.002h.004l.004-.001h.014l.003.001.003.001h.003l.003.002h.006l.003.002h.015l.002-.002h.003l.003-.003.003-.002.017-.015-.01.022-.001.005-.003.004-.002.003-.003.003-.003.003-.003.002-.003.002-.003.001h-.004l-.003.002h-.019l-.003-.001h-.004l-.003-.001H5.03l-.004-.001H5.02L5.016 6.4h-.015l-.004.001-.003.001-.004.002-.006.002h.033l.005.001.005.001.005.002.004.002.003.002.004.002.003.002.002.003.003.002.002.003.002.003.002.002.001.003.002.003.002.003.001.002.002.003.001.002.002.002.001.002.002.002.002.002.002.002.002.001.002.001.003.001h.003l.004.001.023.002zm-.135-.326L5 6.149l.004.003.003.003.003.003.003.003.002.003.002.003.001.004.001.003v.003l.001.004v.01l-.001.004-.001.003-.001.004-.001.003-.001.004-.001.003-.001.004v.004l-.002.003v.008l-.001.003v.016l.001.003.004.014v-.009l-.001-.006v-.016l.002-.005.001-.004.002-.004.002-.003.002-.004.002-.002.002-.003.003-.003.002-.002.003-.002.002-.002.003-.002.003-.001.002-.002.002-.002.003-.002.002-.001.002-.002.001-.002.002-.002.001-.002.001-.002.001-.003.001-.003v-.03l.011.022.002.004.002.005v.004l.001.004v.011l-.002.003-.001.003-.002.003-.002.003-.002.003-.002.003-.003.002-.002.003-.003.002-.003.003-.003.002-.002.003-.003.002-.003.003-.003.002-.002.003-.003.003-.002.003-.002.003-.002.003-.002.003-.002.004-.001.003-.008.025v-.01L5 6.256l-.003-.004-.003-.005-.003-.005-.002-.004-.002-.005-.001-.004v-.004l-.001-.004V6.21l.001-.003.001-.004.001-.003.001-.003.001-.003.002-.003V6.19l.002-.003v-.003l.001-.002.001-.003v-.014l-.001-.002-.002-.003-.001-.003-.014-.02zm-.066.046h.029l.005.001.004.001.004.002.003.001.003.002.003.003.003.002.002.003.002.003.001.003.002.003v.004l.002.003v.003l.002.004v.003l.001.004.001.004.001.003.001.004.001.004.001.003.002.004.001.003.002.003.001.004.002.003.003.003.002.003.019.018-.027-.01-.005-.003-.005-.002-.005-.003-.004-.003-.003-.003-.003-.003-.003-.004-.002-.003-.002-.003-.002-.004v-.003l-.002-.003v-.004l-.001-.003v-.003l-.001-.003v-.006l-.001-.003v-.003l-.001-.002-.001-.003v-.002l-.002-.003-.001-.002-.002-.002L4.94 6.2l-.003-.002-.002-.002-.003-.002-.02-.01zm.264.114-.02.013-.005.002-.004.002-.004.002h-.004l-.004.001h-.007l-.003-.001-.004-.001-.003-.002-.003-.002-.003-.001-.002-.003-.003-.002-.003-.002L5.1 6.3h-.002l-.003-.003-.003-.002-.002-.003-.003-.002-.003-.003-.003-.002-.003-.002-.003-.003-.003-.002-.003-.001-.004-.002-.004-.001-.003-.001-.022-.005-.013.009.015-.024.004-.005.004-.004.003-.004.004-.003.004-.003.003-.003.004-.002.004-.001.003-.001.004-.001h.003l.004-.001h.035l.002-.001.003-.001.002-.002.002-.001.003-.003.002-.002.014-.019-.005.024v.005l-.002.004-.002.004-.002.004-.003.003-.002.002-.003.003-.003.002-.003.001-.003.001-.004.001-.003.001h-.004l-.003.001h-.015l-.003.001h-.012l-.003.001h-.004l-.004.001-.003.001-.004.002h-.004l-.003.003-.003.002-.006.003.021-.004.006-.001h.021l.004.001.004.001.004.002.003.002.003.002.003.002.003.002.002.002.002.003.003.002.002.003.002.002.002.002.001.003.002.002.002.002.002.001.002.002.002.001.003.001.002.001.003.001h.009l.023-.002zm-1.122.826-.006-.023-.001-.005v-.017l.002-.003.001-.004.002-.003.002-.002.003-.003.002-.002.003-.002.003-.003.003-.001.003-.002.003-.002.003-.002.004-.001.003-.002.003-.002.003-.002.004-.002.003-.002.003-.002.003-.002.003-.002.003-.003.002-.003.003-.003.002-.003.013-.022-.004.027v.007l-.002.005-.002.005-.001.005-.003.004-.002.004-.002.003-.003.003-.003.003-.002.002-.003.002-.003.002-.003.002-.003.001-.003.001-.003.002h-.003l-.003.002h-.003l-.002.002-.003.001-.002.002-.002.001-.002.002-.002.001-.001.002-.002.003-.001.002-.001.003-.001.003zm.043-.284.018.016.004.004.002.003.003.004.002.004.001.003.001.004v.014l-.001.003-.001.003-.002.004-.001.003-.002.003-.001.003-.002.004-.002.003-.002.003-.002.003-.001.004-.002.003-.002.003-.001.004-.001.003-.001.004-.001.004v.003l-.001.004v.026l.012.01-.026-.008-.006-.003-.005-.002-.005-.002-.004-.003-.004-.003-.003-.003-.003-.003-.002-.003-.002-.003-.002-.004-.002-.003V6.95l-.002-.003v-.004l-.001-.003v-.003l-.001-.003-.001-.003v-.003l-.001-.002-.001-.003V6.92l-.002-.003-.001-.002-.001-.002-.002-.002-.002-.002-.002-.002-.003-.002-.003-.001-.021-.01h.038l.004.002.003.001.003.002.003.002.003.003.002.002.002.003.002.003.002.003.001.003.001.004.001.003.002.004v.003l.002.004v.003l.002.004.001.003.001.004.002.003.001.004.002.003.002.003.002.004.002.003.002.003.003.002.005.004-.01-.018-.002-.006-.002-.005-.001-.006-.001-.004v-.005l-.001-.004v-.009l.002-.003v-.004l.002-.003.002-.003.001-.003.002-.003.002-.003.002-.002.001-.003.002-.002.002-.003.001-.002.002-.002v-.003l.002-.002v-.003l.001-.002v-.011l-.001-.004zm-.095.13.003-.002.004-.002.004-.002.004-.001h.017l.003.002.004.001.003.002.003.002.003.002.003.002.003.002.003.002.003.002.003.002.003.002.004.002.003.002.003.001.004.002.003.001.004.002h.003l.004.001H4.1l.026.002-.01.003-.014.02-.004.005-.004.004-.004.004-.004.003-.003.003-.004.002-.004.002-.004.001-.003.001-.004.001H4.04l-.003-.001h-.019l-.002.002-.002.001-.003.002-.002.002-.003.002-.015.018.006-.024L4 7.044v-.005l.002-.003.003-.004.002-.003.003-.002.003-.002.003-.002.003-.002h.003l.004-.001.003-.001h.037l.004-.001h.003l.004-.001h.004l.003-.002.004-.001.003-.001.004-.002.012-.008-.008.004-.006.002-.006.001-.005.001H4.06l-.004-.002-.003-.001-.003-.002-.003-.002-.003-.002L4.04 7l-.002-.002-.003-.002-.002-.002-.002-.002-.003-.002-.002-.001-.002-.002-.002-.001-.003-.001-.002-.001-.002-.001h-.003l-.002-.001h-.006L4 6.983l-.022.007.018-.017L4 6.97zm-.116.1v-.01l.001-.004.002-.003.001-.004.002-.003.002-.003.002-.002.003-.003.003-.002.003-.002.003-.001.003-.002.003-.002.003-.001.004-.001.003-.002.004-.001.003-.002.003-.001.004-.002.003-.002.003-.002.004-.002.003-.002.003-.002.002-.003.003-.002L3.961 7l.014-.021-.005.027-.002.006-.002.005-.002.005-.002.005-.002.004-.003.003-.003.003-.003.003-.003.003-.003.002-.003.001-.003.002-.003.001-.003.001-.003.002h-.003l-.003.001-.003.001-.003.001-.002.001-.003.001-.002.001-.003.001-.002.002-.002.001-.001.002-.002.002-.002.003-.001.002-.001.004-.007.022-.004-.024v-.005zm.073-.251.016.018.003.003.003.004.002.004.002.004v.003l.001.004v.011l-.001.003-.001.003-.002.003-.001.004-.002.003-.002.003-.002.003-.002.003-.002.003-.002.003-.002.003-.002.003-.002.003-.002.004-.002.003-.001.003-.002.004-.001.003-.001.004v.004l-.001.004-.001.022.01.011-.025-.01-.006-.004-.005-.002-.004-.003-.004-.003-.003-.004-.003-.003-.003-.003-.002-.003-.002-.004-.001-.003-.001-.004-.001-.003L3.9 6.92v-.004l-.001-.003v-.006l-.001-.003v-.006l-.001-.002v-.003l-.002-.002v-.003l-.002-.002-.001-.002-.002-.002-.002-.002-.003-.002-.002-.002-.021-.01h.029l.005.001.004.001.004.002.003.002.003.002.003.002.002.003.002.003.002.003.002.003v.003l.002.003v.004l.002.003v.004l.001.003.001.004v.004l.002.003v.004l.001.004.002.003v.004l.002.003.002.004.001.003.002.003.003.003.002.003.004.005-.007-.02-.002-.006-.002-.005v-.005l-.001-.005v-.013l.001-.004.002-.004.001-.003.002-.004.001-.003.002-.002.002-.003.002-.003.002-.002.002-.002.002-.003.002-.002.002-.002.001-.002.002-.003.001-.002.001-.002v-.003l.001-.002v-.012zm-.13.139.02-.015.003-.003.004-.002.004-.002.004-.001h.004l.004-.001h.007l.003.001.003.002.003.001.004.002.002.002.003.002.003.002.003.002.003.002.003.003.003.002.003.002.003.003.003.002.003.002.003.002.003.002.004.001.003.002.004.001.003.001.004.001.026.003-.01.003-.017.02-.005.004-.004.004-.004.003-.004.003-.004.003-.004.002-.004.001-.004.001H3.91l-.004.001h-.013L3.89 7.02l-.003-.001h-.003l-.003-.001h-.003l-.003-.001H3.86l-.003.002-.002.001-.003.002-.002.002-.017.016.008-.022.002-.005.002-.004.002-.004.003-.003L3.853 7l.003-.003.003-.002.003-.001.003-.001.004-.001H3.9l.004.001h.026l.003-.002h.004l.004-.002.012-.006-.008.002-.006.001-.006.001-.005.001h-.014l-.004-.002-.004-.001-.004-.001-.003-.002-.003-.002-.003-.002-.002-.002-.003-.002-.002-.003-.002-.002-.003-.002-.002-.002-.002-.002-.002-.002-.002-.002-.002-.001-.002-.002-.002-.001-.003-.001h-.002l-.003-.001h-.008zm-.114.081.003-.024V7.01l.002-.004.001-.004.002-.004.002-.003.002-.003.003-.003.002-.002.003-.002.003-.001.004-.002h.003l.003-.002h.004l.003-.001h.004l.003-.001h.004l.004-.001h.003l.004-.001.004-.001.003-.001h.004l.004-.002.003-.001.004-.002.003-.002.003-.002.004-.002.02-.016-.013.025-.003.005-.004.005-.003.004-.003.004-.003.003-.004.003-.003.002L3.788 7l-.003.002H3.78l-.003.002h-.004l-.003.001h-.016l-.003.001h-.005l-.003.001h-.002l-.003.002h-.002l-.002.002-.002.001-.002.002-.002.003-.002.003-.013.02zm.137-.253.011.022.002.004.002.005v.004l.001.004v.011l-.002.003-.001.003-.002.003-.002.003-.002.003-.002.003-.003.002-.002.003-.003.002-.003.003-.003.002-.002.002-.003.003-.003.002-.003.003-.002.003-.003.002-.002.003-.002.003-.002.004-.002.003-.002.003-.001.004-.007.021.008.014-.022-.017-.005-.004-.004-.004-.004-.004-.003-.004-.002-.004-.002-.004-.002-.004-.001-.004-.001-.003V6.88l-.001-.004v-.013l.001-.003v-.003l.001-.003V6.85l.001-.003v-.012l-.002-.002V6.83l-.002-.002-.002-.003-.003-.002-.017-.016.024.007.004.002.004.002.004.002.003.002.003.003.003.003.002.003.001.003.001.003.001.003.001.004v.051l.001.004.001.003.001.004.002.004.001.003.003.006-.002-.021v-.022l.002-.005.001-.004.002-.004.001-.003.003-.004.002-.003.002-.002.003-.003.002-.002.003-.002.002-.002.003-.002.002-.002.003-.001.002-.002.002-.002.003-.002.001-.001.002-.002.002-.002.001-.002.001-.003.001-.002v-.003l.001-.003zm-.161.102.022-.01.005-.001.004-.001.005-.001h.011l.004.002.003.001.003.002.003.002.002.002.003.002.002.003.003.003.002.002.002.003.002.003.003.003.002.003.002.003.002.003.003.003.002.003.003.003.002.002.003.003.003.002.003.002.004.002.003.002.024.01h-.01l-.02.014-.006.003-.005.003-.005.002-.004.002H3.77l-.004.002H3.75l-.003-.001-.004-.002H3.74l-.003-.002-.003-.001-.003-.002-.002-.001-.003-.001-.003-.002h-.002l-.003-.002h-.002l-.003-.001H3.7l-.003.001-.003.002-.02.011.014-.02.003-.004.003-.003.003-.003.003-.002.003-.002.004-.002h.003l.004-.001h.014l.003.001.003.001.004.001.003.002h.004l.003.002.004.001.003.002h.004l.003.002.004.001h.004l.003.002h.019l.014-.003h-.021l-.005-.001-.005-.001-.004-.002-.004-.001-.004-.002-.004-.003-.003-.002-.002-.002-.003-.003-.002-.003-.002-.002-.002-.003-.002-.003-.001-.003-.002-.002-.001-.003-.002-.002-.001-.003-.002-.002-.001-.002-.002-.002-.002-.002-.002-.001-.002-.001-.003-.002H3.72l-.003-.001h-.004zm-.124.084.005-.023v-.005l.002-.005.002-.003.002-.004.003-.003.002-.003.003-.002.003-.002.003-.002h.003l.003-.002h.004l.003-.001h.004l.003-.001h.011l.004-.001h.011l.004-.001.004-.001h.003l.004-.002.003-.001.004-.001.003-.002.004-.002.02-.015-.014.024-.003.005-.004.005-.003.004-.004.003-.004.003-.003.002-.004.002-.004.002-.003.001-.004.001h-.003l-.004.001h-.033l-.002.001h-.002l-.003.002-.002.001-.002.002-.003.002-.002.003zm.16-.24.008.023.002.005.001.004v.005l.001.004v.007l-.002.004-.001.003-.002.003-.002.003-.002.002-.003.003-.002.002-.003.003-.003.002-.003.002-.003.002-.003.002-.003.003-.003.002-.003.002-.003.002-.002.003-.003.002-.003.003-.002.003-.003.003-.002.003-.002.003-.001.004-.009.02.007.014-.02-.019-.005-.004-.004-.004-.003-.005-.003-.004-.002-.004-.002-.004-.001-.004v-.004l-.001-.004v-.017l.001-.003.001-.003.001-.003v-.003l.001-.003v-.003l.001-.002v-.013l-.001-.003-.002-.002-.001-.003-.002-.003-.016-.017.023.01.004.001.004.003.003.002.004.003.002.003.002.003.002.003.001.003.001.003.001.004v.021l-.001.004v.003l-.001.004v.004l-.001.003v.026l.002.004.001.004.003.006v-.039l.002-.004.001-.005.002-.004.002-.004.002-.003.003-.003.002-.003.003-.002.002-.002.003-.002.003-.002.003-.002.002-.001.003-.002.003-.001.002-.002.002-.001.003-.002.002-.002.002-.001.001-.002.002-.002.001-.002.001-.003.001-.003.001-.003v-.003l.002-.023zm-.17.087.023-.007.005-.001h.004l.004-.001H3.6l.004.002h.003l.003.003.003.002.003.002.002.002.003.003.002.003.002.002.002.003.002.004.002.003.002.003.001.003.002.003.002.003.003.003.002.004.002.002.002.003.003.003.003.003.003.002.003.002.003.002.023.012h-.01l-.022.011-.005.003-.005.002-.005.002-.005.001-.005.001h-.016l-.004-.001-.003-.001-.003-.002-.003-.001-.003-.002-.003-.001-.003-.002-.002-.001-.003-.002-.003-.001-.002-.002-.002-.001-.003-.001-.002-.001H3.57l-.002-.001H3.56l-.003.001-.004.001-.02.01.015-.019.003-.003.003-.003.004-.003.003-.002.004-.002h.003l.004-.002h.01l.004.001.003.001.003.001.004.002.003.001.003.001.004.002.003.002.003.001.004.002.003.001.004.002.003.001.004.001.003.001.004.001h.004l.003.001h.008l.014-.001h-.009l-.006-.001-.006-.001-.005-.002-.005-.001-.004-.002-.004-.002-.003-.002-.003-.003-.003-.003-.003-.002-.002-.003-.002-.003-.002-.003-.001-.003-.002-.003-.001-.003-.001-.002-.002-.003v-.003L3.6 6.84l-.002-.003v-.002l-.002-.002-.002-.002-.002-.001-.002-.002-.002-.001-.003-.001-.003-.001-.003-.001zm-.133.044.008-.022.002-.005.003-.004.002-.003.003-.004.002-.002.003-.002.004-.002.003-.002h.003l.003-.002h.025l.004.001h.004l.003.001h.026l.004-.001.004-.001.004-.002.023-.01-.019.02-.004.005-.004.004-.004.003-.005.003-.004.002-.004.002-.004.001-.003.001H3.5l-.004.001h-.014l-.003-.002h-.006l-.003-.002h-.005l-.003-.001h-.01l-.003.001-.002.001-.003.001-.002.002-.003.002zm.197-.21.005.024v.005l.001.005v.008l-.001.004-.001.003-.002.003-.002.003-.002.003-.003.003-.002.002-.003.002-.003.002-.003.002-.003.001-.003.002-.004.002-.003.001-.003.002-.004.002-.003.001-.003.002-.003.002-.004.002-.003.002-.003.003-.002.002-.003.003-.002.003-.003.003-.011.019.004.015-.018-.022-.003-.005-.003-.005-.002-.005-.002-.004-.002-.005V6.74l-.001-.004V6.72l.001-.004.001-.003.001-.003.002-.003v-.003l.002-.003.001-.002.002-.003v-.003l.001-.002.001-.003v-.005l.001-.002v-.006l-.002-.002V6.67l-.002-.003-.013-.02.02.013.005.002.003.003.003.003.003.004.002.003.002.003v.004l.002.003v.014l-.001.003v.004l-.002.003v.004l-.002.003-.001.004-.001.003-.001.004-.001.003-.001.004-.001.004v.003l-.001.004v.019l.002.006.003-.02.001-.007.001-.005.002-.005.002-.005.002-.004.003-.004.002-.003.003-.003.003-.003.003-.002.003-.002.003-.002.003-.001.003-.001.003-.002h.003l.002-.002h.003l.003-.002.003-.001.002-.001.002-.001.003-.002.002-.001.001-.002.002-.002.002-.002.001-.003.001-.003.001-.003zm-.182.058.024-.004h.014l.004.001.004.001.003.002.003.002.003.002.002.002.003.003.002.003.001.003.002.003.002.003.001.003.001.004.002.003.001.004.002.003.001.004.001.003.002.003.002.004.001.003.002.003.002.003.003.003.002.003.003.003.003.003.02.015-.01-.002-.023.008-.006.002-.005.001h-.005L3.5 6.81h-.014l-.003-.001-.004-.002-.003-.001-.004-.002-.002-.002-.003-.002-.003-.002-.002-.002-.003-.002-.002-.002-.002-.002-.003-.002-.002-.001-.002-.002-.002-.001-.002-.002H3.44l-.002-.002h-.015l-.022.007.018-.017.004-.003.004-.002.004-.002.003-.001.004-.002h.015l.004.002.003.001.003.001.003.002.003.002.003.002.003.002.003.002.006.004.003.002.004.002.003.002.003.002.003.002.004.002.003.001.004.001.003.001.004.001h.004l.014.002-.009-.002-.006-.002-.005-.002-.005-.002-.004-.003-.004-.002-.004-.003-.003-.003-.003-.003-.002-.003-.002-.003-.002-.003-.001-.003-.001-.003-.001-.003-.001-.003-.001-.003-.001-.003v-.003l-.002-.003v-.003l-.001-.002-.002-.003V6.73l-.002-.002-.002-.002-.001-.002-.002-.002-.003-.001-.003-.002-.003-.001zm-.137.029.013-.021.003-.004.003-.004.003-.003.003-.002.003-.002.003-.002h.004l.003-.002h.014l.004.001.003.001.003.001.004.001.003.001.004.001.003.002h.004l.004.002h.003l.004.002h.003l.004.001h.019l.025-.006-.022.016-.005.004-.005.003-.005.002-.005.002-.004.001-.004.001-.004.001h-.012l-.003-.001-.004-.001-.003-.001-.003-.001-.003-.001-.003-.002-.003-.001-.003-.001-.002-.001-.003-.001-.002-.001-.003-.001H3.34l-.003-.001H3.33l-.002.001-.003.002-.003.001zm.235-.166v.033l-.001.004-.002.004-.001.004-.002.003-.002.003-.003.002-.003.003-.003.001-.003.002-.003.002-.003.001-.003.001-.004.001-.003.001-.004.001-.003.001-.004.001-.004.001-.003.001-.004.001-.003.001-.004.002-.003.001-.004.002-.003.002-.003.002-.003.003-.003.002-.015.016v.016l-.011-.025-.003-.006-.002-.006-.001-.005-.001-.005v-.02l.002-.004.001-.003.002-.003.001-.003.002-.003.002-.003.002-.002.002-.003.001-.002.002-.003.002-.002v-.002l.002-.003.001-.002v-.003l.001-.002v-.011l-.001-.004-.008-.021.017.016.004.004.003.003.002.004.002.004.001.003.001.004v.014l-.001.003-.001.003-.001.004-.002.003-.002.003-.001.003-.002.004-.002.003-.002.003-.001.003-.002.004-.002.003-.001.003-.002.004-.001.003-.001.004-.001.004v.003l-.001.004v.01l.007-.02.002-.005.003-.005.003-.005.003-.004.002-.004.004-.003.003-.002.003-.003.003-.002.003-.001.004-.002h.003l.003-.002h.004l.003-.001h.003l.003-.001h.006l.003-.001.002-.001h.003l.002-.002h.002l.003-.002.002-.002.002-.002.001-.002.002-.002.002-.003zm-.19.019.025.001.005.001.004.001.004.001.004.002.003.002.003.002.003.003.002.002.002.003.002.003.001.003.001.004.001.003.001.003.001.004v.003l.001.004.001.004v.003l.001.004.001.004v.003l.002.004v.004l.002.003.001.004.002.003.002.003.002.004.002.003.018.019-.01-.005-.024.004h-.027L3.378 6.7l-.004-.001-.004-.002-.003-.002-.003-.002-.003-.003-.002-.002-.002-.002-.003-.003-.002-.002-.002-.003-.001-.002-.002-.003-.002-.002-.002-.002-.002-.002-.002-.002-.001-.002-.003-.001-.002-.002h-.002l-.003-.002H3.32l-.023.001.02-.012.005-.002.005-.002.004-.001h.004l.004-.001h.007l.003.002.003.001.004.002.002.002.003.002.003.002.003.002.002.003.003.002.002.003.003.003.002.002.003.003.002.003.003.002.003.003.003.002.003.003.003.002.003.002.004.001.003.002.004.001.013.004-.008-.004-.005-.003-.005-.003-.005-.003L3.4 6.68l-.004-.003-.003-.004-.002-.003-.002-.003-.002-.004-.001-.003-.001-.004-.001-.003V6.65l-.001-.004v-.012L3.38 6.63v-.006l-.001-.002-.001-.003-.001-.002-.001-.002-.001-.002-.002-.002-.002-.003-.003-.002-.002-.002zm-.23-.147.018-.016.004-.003.003-.003.004-.002.004-.001.004-.001h.003l.004-.001h.007l.003.002.003.001.004.001.003.002.003.002.003.002.003.002.003.002.003.002.003.002.003.002.003.002.003.002.004.002.003.002.003.001.004.002h.003l.004.002h.004l.004.001.025.001-.026.01-.006.002-.005.002h-.005l-.005.001H3.2l-.003-.002h-.004l-.003-.002-.004-.002-.003-.002-.002-.002-.003-.002-.003-.002-.002-.002-.002-.002-.003-.002-.002-.002-.002-.001-.002-.002-.002-.001-.003-.002h-.002l-.002-.001H3.15l-.003-.001h-.009zm.271-.093-.006.023-.001.005-.002.004-.002.004-.002.003-.003.003-.003.002-.003.003-.003.001-.003.002h-.003l-.004.001-.003.001h-.044l-.004.001-.004.001-.003.001-.004.001-.003.002-.004.001-.019.012-.004.015-.004-.028-.001-.006v-.016l.001-.005.001-.004.001-.004.002-.003.002-.004.002-.003.002-.003.003-.002.002-.003.003-.002.002-.002.002-.002.003-.002.002-.002.002-.002.003-.001.002-.002.001-.002.002-.002.001-.002.002-.002v-.003l.001-.002.001-.003V6.32l-.002-.023.013.02.002.005.002.005.001.004v.004l.001.003v.008l-.001.003-.002.003-.001.004-.002.002-.002.003-.002.003-.002.003-.003.002-.002.003-.003.003-.003.002-.002.003-.003.002-.003.003-.002.003-.003.003-.002.003-.002.003-.002.003-.002.003-.002.003-.001.004-.001.004-.002.006.012-.017.004-.005.004-.004.004-.004.004-.003.004-.003.004-.002.003-.002h.004l.004-.002h.007l.004-.001h.009l.004.001h.006l.003.001h.015l.003-.002h.002l.002-.002.003-.002.002-.003zM3.2 6.318l.023.008.005.002.004.003.003.002.003.003.003.002.002.003.002.003.002.004v.003l.001.003v.004l.001.003v.018l-.001.004v.004l-.001.003v.026l.001.004.001.004.002.004.01.023-.007-.007-.024-.004h-.006l-.006-.002-.005-.002-.004-.002-.005-.002-.003-.002-.004-.003-.003-.002-.002-.003-.003-.003-.002-.003-.001-.003-.002-.003-.001-.003-.001-.003-.002-.003v-.003l-.002-.003v-.002l-.002-.003-.001-.002-.001-.003-.002-.002-.001-.002-.002-.002-.002-.001-.002-.002-.003-.001-.003-.002h-.003l-.023-.006.024-.005.005-.001h.016l.004.002.003.002.003.002.003.002.002.002.003.003.002.003.002.002.002.003.001.004.002.003.002.003.001.003.002.004.002.003.002.003.001.004.002.003.003.003.002.003.002.003.003.003.002.002.003.003.004.002.012.007-.007-.006-.005-.004-.003-.004-.004-.004-.003-.005-.002-.004-.002-.004-.001-.004L3.22 6.4v-.004l-.001-.004v-.014l.002-.003V6.37l.002-.003v-.008l.001-.003v-.007l-.001-.003-.001-.002-.002-.003-.001-.002-.002-.003-.017-.017zm-.113-.057.005-.002.004-.001.004-.001h.011l.003.002h.003l.003.002.003.002.003.002.003.003.003.002.002.002.003.003.002.003.005.005.003.003.003.002.002.003.003.003.003.002.003.002.003.002.003.002.004.002.003.001.004.002.025.006-.028.004-.006.001h-.016l-.005-.001-.004-.001-.004-.002-.003-.002-.004-.001-.003-.003-.002-.002-.003-.002-.002-.003L3.12 6.3l-.002-.003-.002-.002-.001-.003-.002-.002-.002-.002-.002-.003-.002-.002-.002-.001-.001-.002-.003-.002H3.1l-.002-.002h-.003l-.002-.001h-.03l.02-.011.005-.002zm.26-.021-.01.022-.003.004-.003.004-.003.003-.003.003-.003.002-.003.002-.003.001-.004.001-.003.001h-.017l-.004-.001-.004-.001-.003-.001h-.004l-.003-.002H3.27l-.004-.001-.003-.001h-.004l-.004-.001h-.019l-.003.002-.021.007-.007.014.001-.028v-.006l.002-.006v-.005l.002-.005.002-.004.002-.004.002-.004.002-.003.003-.003.003-.002.002-.003.003-.002.003-.002.003-.001.003-.002.003-.001.002-.002h.003l.003-.002.002-.002.002-.001.003-.002.002-.001.001-.002.002-.002.002-.002V6.2l.002-.003.001-.003V6.19l.004-.023.008.023v.004l.002.005v.012l-.001.004-.002.003-.001.003-.002.003-.002.003-.003.002-.002.003-.003.002-.003.002-.003.002-.003.002-.003.002-.003.002-.003.002-.003.002-.003.002-.003.002-.003.003-.003.002-.003.003-.003.002-.002.003-.003.003-.002.003-.002.004-.003.005.016-.014.005-.004.005-.003.004-.003.005-.002.004-.002.004-.001.004-.001h.019l.003.001.003.001.003.001.003.001.003.001.003.001.003.001h.002l.003.002h.015l.003-.002.003-.001.003-.002zm-.19-.463.032.062.068-.01-.049.048.031.062-.061-.032-.05.05.012-.07-.062-.031.069-.01zm1.931 0 .011.069.069.01-.062.032.011.068-.049-.049-.061.032.03-.062-.048-.048.068.01zm-.945-.744.07.006.027-.064.015.068.069.006-.06.036.016.067-.052-.045-.06.035.027-.064zm.216.025.066.02.04-.055.001.069.066.02-.066.023v.069l-.04-.056-.066.022.04-.056-.04-.056zm.2.068.06.035.051-.046-.015.068.06.035-.07.006-.014.068-.028-.064-.069.007.052-.046zm.179.12.05.047.061-.033-.029.062.05.047-.068-.008-.03.063-.012-.068-.07-.008.061-.034zm.151.15.04.057.067-.021-.041.055.04.057-.066-.022-.04.055v-.069l-.066-.022.066-.02zm.122.179.029.063.068-.008-.05.047.027.063-.06-.035-.05.047.013-.068-.06-.034.069-.008zm.11.417-.002.07.065.024-.067.018-.003.07-.038-.058-.067.018.043-.054-.038-.057.065.024.043-.055zm-1.018-.96-.053.046.028.064-.06-.035-.052.045.016-.067-.06-.036.069-.006.015-.068.028.064.069-.006zm-.216.026-.042.056.04.056-.065-.022-.041.056v-.07l-.065-.021.066-.021v-.07l.04.057zm-.2.068-.027.063.051.046-.068-.007-.028.064-.015-.068-.069-.006.06-.035-.015-.068.052.046.06-.035zm-.18.12-.012.068.06.034-.069.008-.013.068-.03-.063-.068.008.05-.047-.028-.062.06.033zm-.15.15v.07l.066.02-.066.022v.07l-.04-.056-.066.022.04-.057-.04-.055.065.02zm-.122.179.014.067.069.008-.06.034.014.068-.051-.047-.06.035.028-.063-.051-.047.068.008zm-.11.417.042.055.065-.024-.038.057.043.054-.067-.018-.038.057-.003-.069-.067-.018.065-.024z" class="fil3"/><path id="_148057232" fill="#00923f" d="M3.185 6.181c.049.028-.003.063.01.109-.045-.057.017-.07-.01-.109" class="fil11"/><path id="_148056192" fill="#00923f" d="M3.272 6.186c.02.053-.043.046-.062.09.001-.072.058-.042.062-.09" class="fil11"/><path id="_148055152" fill="#00923f" d="M3.335 6.255c-.024.051-.063.002-.108.019.053-.05.07.011.108-.019" class="fil11"/><path id="_148054112" fill="#00923f" d="M3.08 6.27c.048-.03.054.032.1.042-.07.013-.052-.048-.1-.043z" class="fil11"/><path id="_148053072" fill="#00923f" d="M3.153 6.367c.054-.015.042.047.084.07-.072-.008-.037-.061-.084-.07" class="fil11"/><path id="_148052032" fill="#00923f" d="M3.217 6.329c.053.017.01.062.032.104-.056-.046.002-.071-.032-.104" class="fil11"/><path id="_148050992" fill="#00923f" d="M3.302 6.316c.031.047-.031.054-.04.1-.015-.07.046-.053.04-.1" class="fil11"/><path id="_148049952" fill="#00923f" d="M3.378 6.37c-.012.055-.06.015-.1.04.04-.059.07-.003.1-.04" class="fil11"/><path id="_148048912" fill="#00923f" d="M3.133 6.437c.04-.04.059.02.107.02-.067.028-.062-.035-.107-.02" class="fil11"/><path id="_148047872" fill="#00923f" d="M3.315 6.653c.047-.03.053.033.1.044-.071.012-.053-.049-.1-.044" class="fil11"/><path id="_148046832" fill="#00923f" d="M3.365 6.599c.056.001.027.056.06.09-.066-.028-.017-.069-.06-.09" class="fil11"/><path id="_148045792" fill="#00923f" d="M3.444 6.562c.042.037-.016.06-.012.109-.033-.064.03-.065.012-.109" class="fil11"/><path id="_148044752" fill="#00923f" d="M3.532 6.593c.003.056-.054.031-.086.067.023-.068.068-.023.086-.067" class="fil11"/><path id="_148043712" fill="#00923f" d="M3.315 6.726c.028-.05.062.003.108-.01-.056.045-.069-.017-.108.01" class="fil11"/><path id="_148042672" fill="#00923f" d="M3.42 6.776c.04-.038.058.022.106.022-.067.027-.061-.036-.107-.022z" class="fil11"/><path id="_148041632" fill="#00923f" d="M3.458 6.712c.055-.01.037.05.077.078-.071-.015-.031-.065-.077-.078" class="fil11"/><path id="_148040592" fill="#00923f" d="M3.527 6.66c.05.028-.003.063.011.11-.046-.057.017-.07-.01-.11z" class="fil11"/><path id="_148039552" fill="#00923f" d="M3.62 6.673c.014.054-.047.042-.07.084.008-.072.06-.037.07-.084" class="fil11"/><path id="_148038512" fill="#00923f" d="M3.434 6.847c.017-.053.062-.01.104-.031-.046.055-.071-.003-.104.031" class="fil11"/><path id="_148037440" fill="#00923f" d="M3.548 6.887c.034-.045.061.011.109.004-.062.038-.067-.026-.11-.004z" class="fil11"/><path id="_148036400" fill="#00923f" d="M3.575 6.818c.053-.02.045.043.089.063-.072-.002-.041-.058-.089-.063" class="fil11"/><path id="_148035360" fill="#00923f" d="M3.635 6.755c.053.02.008.062.029.106-.054-.048.005-.072-.029-.106" class="fil11"/><path id="_148034320" fill="#00923f" d="M3.728 6.752c.024.051-.039.049-.055.094-.004-.072.054-.046.055-.094" class="fil11"/><path id="_148033248" fill="#00923f" d="M3.574 6.954c.008-.055.06-.019.098-.048-.036.062-.071.009-.098.048" class="fil11"/><path id="_148032208" fill="#00923f" d="M3.688 6.956c.03-.048.063.006.11-.006-.059.043-.07-.02-.11.006" class="fil11"/><path id="_148031168" fill="#00923f" d="M3.71 6.885c.05-.024.048.039.093.055-.072.004-.046-.055-.094-.055z" class="fil11"/><path id="_148030128" fill="#00923f" d="M3.763 6.817c.055.014.014.061.039.102-.059-.042-.002-.071-.039-.102" class="fil11"/><path id="_148029056" fill="#00923f" d="M3.856 6.805c.028.049-.035.052-.047.099-.01-.072.05-.051.047-.099" class="fil11"/><path id="_148028016" fill="#00923f" d="M3.72 7.02c.004-.055.058-.024.094-.056-.03.065-.07.015-.093.057z" class="fil11"/><path id="_148026976" fill="#00923f" d="M3.844 7.024c.016-.054.061-.01.104-.033-.046.056-.072-.002-.104.033" class="fil11"/><path id="_148025936" fill="#00923f" d="M3.846 6.95c.043-.036.057.025.105.029-.069.022-.059-.041-.105-.03z" class="fil11"/><path id="_148024864" fill="#00923f" d="M3.881 6.87c.056 0 .028.056.063.09-.067-.027-.02-.07-.063-.09" class="fil11"/><path id="_148023824" fill="#00923f" d="M3.968 6.836c.039.04-.02.059-.02.107-.029-.067.035-.062.02-.107" class="fil11"/><path id="_148022784" fill="#00923f" d="M3.891 7.078c-.01-.055.05-.038.076-.078-.013.07-.064.032-.076.078" class="fil11"/><path id="_148021744" fill="#00923f" d="M4 7.054c.012-.055.06-.015.1-.042-.04.06-.07.005-.1.042" class="fil11"/><path id="_148020672" fill="#00923f" d="M3.996 6.98c.04-.04.06.02.107.02-.066.028-.062-.035-.107-.02" class="fil11"/><path id="_148019632" fill="#00923f" d="M4.024 6.898c.056-.005.033.053.07.084-.069-.02-.025-.067-.07-.084" class="fil11"/><path id="_148018592" fill="#00923f" d="M4.107 6.856c.043.037-.015.06-.01.109-.034-.064.03-.065.01-.109" class="fil11"/><path id="_148017552" fill="#00923f" d="M4.052 7.104c-.015-.053.046-.042.069-.085-.007.072-.06.038-.069.085" class="fil11"/><path id="_148016512" fill="#00923f" d="M5.065 6.165c.028.05-.035.052-.047.099-.01-.072.05-.051.047-.099" class="fil11"/><path id="_148015472" fill="#00923f" d="M5.137 6.213c-.009.056-.06.019-.098.047.037-.062.07-.008.098-.047" class="fil11"/><path id="_148014432" fill="#00923f" d="M5.157 6.305c-.046.032-.055-.03-.103-.039.07-.016.056.046.103.039" class="fil11"/><path id="_148013392" fill="#00923f" d="M4.93 6.189c.056-.002.03.055.065.087-.068-.025-.021-.068-.065-.087" class="fil11"/><path id="_148012352" fill="#00923f" d="M4.992 6.15c.05.026 0 .063.015.109-.048-.054.014-.07-.015-.108z" class="fil11"/><path id="_148011312" fill="#00923f" d="M5.027 6.314c.019.053-.043.045-.063.088.003-.072.058-.04.063-.088" class="fil11"/><path id="_148010272" fill="#00923f" d="M5.09 6.374c-.02.053-.063.007-.106.028.048-.054.072.005.106-.028" class="fil11"/><path id="_148009232" fill="#00923f" d="M5.092 6.467c-.05.023-.048-.04-.093-.056.072-.003.046.055.093.056" class="fil11"/><path id="_148008192" fill="#00923f" d="M4.89 6.312c.056.009.02.06.049.098-.063-.037-.009-.071-.048-.098z" class="fil11"/><path id="_148007152" fill="#00923f" d="M4.958 6.286c.045.034-.011.062-.004.11-.038-.063.026-.067.004-.11" class="fil11"/><path id="_148006112" fill="#00923f" d="M4.982 6.465c.005.056-.053.032-.084.07.022-.07.067-.026.085-.07z" class="fil11"/><path id="_148005072" fill="#00923f" d="M5.027 6.538c-.031.047-.061-.008-.109.001.06-.04.068.023.11 0z" class="fil11"/><path id="_148004032" fill="#00923f" d="M5.007 6.63c-.056.009-.037-.051-.077-.078.07.015.03.064.077.077z" class="fil11"/><path id="_148002992" fill="#00923f" d="M4.85 6.428c.052.023.004.063.022.107-.05-.05.01-.07-.021-.107z" class="fil11"/><path id="_148001952" fill="#00923f" d="M4.923 6.42c.034.045-.027.057-.033.105-.02-.07.043-.058.033-.105" class="fil11"/><path id="_148000912" fill="#00923f" d="M4.896 6.585c.004.056-.054.032-.084.07.02-.07.067-.026.084-.07" class="fil11"/><path id="_147999872" fill="#00923f" d="M4.94 6.659c-.03.046-.061-.009-.108 0 .06-.04.067.024.109 0z" class="fil11"/><path id="_147998832" fill="#00923f" d="M4.92 6.75c-.055.01-.037-.05-.077-.078.071.015.031.065.077.078" class="fil11"/><path id="_147997792" fill="#00923f" d="M4.764 6.549c.052.022.003.062.022.107-.051-.051.01-.071-.022-.107" class="fil11"/><path id="_147996752" fill="#00923f" d="M4.836 6.54c.035.045-.027.057-.032.105-.02-.07.042-.058.032-.104z" class="fil11"/><path id="_147995712" fill="#00923f" d="M4.803 6.705c-.008.056-.06.02-.098.048.037-.062.071-.009.098-.048" class="fil11"/><path id="_147994672" fill="#00923f" d="M4.83 6.787c-.042.038-.059-.022-.107-.024.068-.025.06.038.107.024" class="fil11"/><path id="_147993632" fill="#00923f" d="M4.788 6.871c-.056-.004-.024-.058-.056-.093.065.03.015.07.056.093" class="fil11"/><path id="_147992592" fill="#00923f" d="M4.683 6.64c.045.033-.011.06-.004.108-.037-.061.026-.066.004-.109z" class="fil11"/><path id="_147991552" fill="#00923f" d="M4.755 6.648c.023.051-.04.049-.055.094-.004-.072.054-.046.055-.094" class="fil11"/><path id="_147990512" fill="#00923f" d="M4.685 6.797c-.013.055-.061.015-.101.041.04-.06.071-.004.1-.041z" class="fil11"/><path id="_147989472" fill="#00923f" d="M4.706 6.88c-.045.036-.057-.026-.105-.031.07-.02.058.042.105.032z" class="fil11"/><path id="_147988432" fill="#00923f" d="M4.659 6.961c-.056-.007-.02-.059-.05-.097.063.036.01.071.05.097" class="fil11"/><path id="_147987392" fill="#00923f" d="M4.57 6.723c.042.037-.016.06-.012.109-.033-.064.03-.065.011-.109z" class="fil11"/><path id="_147986352" fill="#00923f" d="M4.64 6.737c.02.052-.042.046-.061.09.001-.073.057-.043.061-.09" class="fil11"/><path id="_147985312" fill="#00923f" d="M4.561 6.887c-.023.052-.062.003-.107.02.052-.05.07.011.107-.02" class="fil11"/><path id="_147984272" fill="#00923f" d="M4.565 6.974c-.05.025-.05-.038-.096-.052.072-.007.048.053.096.052" class="fil11"/><path id="_147983232" fill="#00923f" d="M4.503 7.043c-.053-.018-.008-.062-.03-.105.055.048-.004.072.03.105" class="fil11"/><path id="_147982192" fill="#00923f" d="M4.463 6.792c.034.045-.027.057-.032.105-.02-.07.042-.058.032-.105" class="fil11"/><path id="_147981152" fill="#00923f" d="M4.53 6.82c.009.055-.05.036-.078.076.015-.07.064-.03.078-.076" class="fil11"/><path id="_147980112" fill="#00923f" d="M4.42 6.95c-.032.045-.061-.01-.109-.002.061-.04.067.024.11.001z" class="fil11"/><path id="_147979072" fill="#00923f" d="M4.407 7.035c-.055.015-.042-.047-.084-.07.072.008.037.061.084.07" class="fil11"/><path id="_147978032" fill="#00923f" d="M4.332 7.09c-.049-.028.004-.062-.008-.108.044.057-.019.069.008.108" class="fil11"/><path id="_147976992" fill="#00923f" d="M4.344 6.836c.024.05-.038.05-.053.096-.006-.072.053-.048.053-.096" class="fil11"/><path id="_147975952" fill="#00923f" d="M4.404 6.877c-.003.056-.058.025-.093.058.03-.066.07-.016.093-.058" class="fil11"/><path id="_147974912" fill="#00923f" d="M4.281 6.985c-.04.038-.059-.022-.107-.022.067-.027.062.036.107.022" class="fil11"/><path id="_147973888" fill="#00923f" d="M4.251 7.066c-.056.004-.032-.054-.069-.085.07.022.025.068.07.085z" class="fil11"/><path id="_147969120" fill="#00923f" d="M4.167 7.107c-.042-.038.017-.06.013-.109.033.065-.031.065-.013.109" class="fil11"/><path id="_147966680" fill="#00923f" d="M4.227 6.86c.015.053-.047.041-.07.083.008-.072.061-.037.07-.084z" class="fil11"/><path id="_147966472" fill="#00923f" d="M4.278 6.91c-.013.055-.06.015-.102.04.042-.059.072-.003.102-.04" class="fil11"/><path id="_147965656" fill="#00923f" d="M3.115 6.205c.056-.003.031.055.067.086-.068-.023-.023-.068-.067-.086" class="fil11"/><path id="_147967496" fill="#fcdb00" d="m3.16 5.791.026.053.059-.009-.042.041.026.053-.052-.027-.042.041.01-.058-.053-.027.058-.009zm1.926 0-.026.053L5 5.835l.042.041-.026.053.052-.027.042.041-.01-.058.053-.027-.059-.009-.009-.058zm-.93-.753.045.04-.023.053.05-.03.044.039-.013-.058.05-.03-.058-.005-.013-.057-.023.054-.058-.006zm.215.028.035.048-.034.047.056-.018.034.047v-.059l.056-.018-.056-.018v-.059l-.035.048zm.197.07.024.054-.044.04.058-.006.024.054.012-.058.059-.005-.05-.03.012-.058-.044.04-.05-.03zm.177.123.011.057-.051.029.058.007.012.058.024-.054.059.007-.043-.04.024-.053-.05.029zm.149.15v.06l-.057.018.056.018v.059l.035-.047.055.018-.034-.048.035-.047-.056.018-.034-.048zm.119.18L5 5.646l-.059.007.051.029-.012.058.044-.04.05.03-.023-.054.043-.04-.058.006zm.104.417-.037.046-.055-.02.033.048-.037.047.057-.016.032.049.003-.06.056-.015-.055-.02zm-1.028-.968-.044.04.023.053-.05-.03-.044.039.013-.058-.051-.03.059-.005.013-.057.023.054zm-.214.028-.035.048.034.047-.056-.018-.034.047v-.059l-.056-.018.056-.018v-.059l.035.048zm-.197.07-.024.054.044.04-.058-.006-.024.054-.012-.058-.059-.005.05-.03-.012-.058.044.04.05-.03zM3.5 5.26l-.011.057.051.029-.058.007-.012.058-.024-.054-.059.007.043-.04-.025-.053.052.029zm-.149.15v.06l.057.018-.056.018v.059l-.035-.047-.055.018.034-.048-.035-.047.056.018zm-.119.18.012.057.059.007-.051.029.012.058-.044-.04-.05.03.023-.054-.043-.04.058.006zm-.104.417.037.046.055-.02-.033.048.037.047-.057-.016-.032.049-.003-.06-.056-.015.055-.02z" class="fil2"/><path id="_147963672" fill="none" d="m3.423 6.452.003.025v.009l-.001.004-.001.004-.002.004-.001.003-.002.003-.003.003-.002.002-.003.002-.003.002-.003.002-.003.001-.003.002-.004.001-.003.001-.004.002h-.003l-.004.002-.003.001-.004.001-.003.002-.004.001-.003.002-.003.002-.003.002-.004.002-.003.002-.002.003-.003.003-.014.017.002.015-.014-.024-.003-.006-.002-.005-.002-.005-.001-.005-.001-.004V6.51l.001-.003.001-.004.001-.003.002-.003.001-.003.002-.003.002-.002.001-.003.002-.003.001-.002.002-.003v-.002l.002-.002v-.003l.001-.002v-.003l.001-.002v-.006l-.001-.003-.002-.003-.01-.021.02.015.003.003.003.004.003.003.002.004.002.003v.004l.001.003v.015l-.001.003-.001.004-.002.003-.001.003-.002.004-.001.003-.002.003-.001.004-.002.003-.001.003-.002.004-.001.003-.001.004-.001.004-.001.003v.004l-.001.004v.014l.006-.02.002-.006.002-.006.003-.004.002-.005.003-.003.003-.004.003-.003.003-.002.003-.003.003-.001.003-.002.004-.001.003-.001.003-.001.003-.001h.003l.003-.001.003-.001h.003l.003-.002h.002L3.4 6.49l.002-.001.002-.002.002-.001.002-.002.002-.002.002-.002.002-.003.001-.003zm-.223.182.012-.021.002-.005.003-.003.003-.003.003-.003.003-.002.003-.002.004-.002h.003l.003-.001h.018l.003.001.004.001.003.001.004.001.004.001h.003l.004.002h.004l.003.001h.008l.003.001h.008l.004-.001h.004l.024-.009-.021.019-.005.004-.005.003-.004.002-.005.003-.004.001-.004.002h-.004l-.004.001h-.011l-.004-.001-.003-.001-.003-.001-.003-.001-.003-.001-.003-.001-.003-.001-.003-.001-.002-.001h-.003l-.003-.001h-.012l-.003.001-.003.002-.003.001zm-.01-.08.02-.013.004-.003.004-.002.004-.001.004-.001h.015l.003.001.003.002.004.001.002.002.003.002.003.003.003.002.003.002.002.003.003.002.003.003.002.002.003.003.003.002.003.003.003.002.003.002.003.002.004.002.003.001.004.001.004.001.014.003-.009-.003-.006-.003-.005-.002-.004-.003-.004-.003-.004-.003-.003-.003-.003-.003-.002-.004-.002-.003-.001-.003-.002-.004v-.003l-.001-.003-.001-.004v-.003l-.001-.003v-.006l-.001-.003v-.003l-.001-.002-.001-.003-.001-.002-.001-.002-.001-.003-.002-.002-.002-.002-.002-.002-.002-.001-.003-.002-.021-.01h.033l.005.002h.003l.004.003.003.002.003.002.002.002.002.003.002.003.002.003.001.003.002.004v.003l.002.003v.004l.002.003v.004l.001.004.001.003.001.004.001.003.002.004v.004l.002.003.002.003.002.004.002.003.002.003.003.003.018.018-.01-.004-.023.005-.007.001h-.005l-.006.001H3.28l-.004-.002H3.27l-.004-.002-.004-.002-.003-.002-.003-.002-.002-.002-.003-.003-.002-.002-.002-.002-.002-.003-.002-.002-.002-.002-.002-.002-.002-.002-.002-.002-.002-.002-.002-.002H3.23l-.003-.002-.002-.001h-.003L3.22 6.55h-.006l-.023.003z" class="fil3"/><path id="_147941816" fill="#00923f" d="M3.42 6.472c.008.056-.051.035-.08.073.018-.07.066-.028.08-.073m-.207.147c.025-.05.063 0 .108-.017-.053.049-.07-.012-.108.017m-.005-.072c.046-.033.056.03.103.037-.07.017-.056-.045-.103-.037m.047-.058c.056-.002.03.055.066.087-.068-.024-.022-.068-.066-.087m.076-.042c.045.034-.011.062-.004.11-.038-.062.026-.067.004-.11" class="fil11"/><path id="_147943032" fill="none" d="M3.71 5.47v-.002l-.025-.031v.002a.04.04 0 0 0 .026.031zm-.023-.056.004-.023a.1.1 0 0 0 .033-.017l.008.004-.003.021-.022.01.044.054q.014-.014.016-.035l.011.001q.001.017-.004.033a.06.06 0 0 1-.023.027.05.05 0 0 1-.047.005.05.05 0 0 1-.032-.036.1.1 0 0 1 .005-.046zm.054.055-.02-.023c.006.008.003.018.002.027q.009.001.018-.004m.064-.107.033.05a.1.1 0 0 0-.014.027.1.1 0 0 0-.034.007l-.006-.004c.002-.006.002-.007-.002-.012l-.022-.035a.1.1 0 0 0 .014-.027q.015 0 .031-.006m-.021.027.02.03.01-.002-.02-.03zm.05-.063.003.01.028.053h.005l.002-.005.01.006-.01.023h-.026l-.003-.007q.002-.004 0-.008l-.026-.05v-.002l-.006-.008-.01-.003v-.009h.015q.006-.013.017-.019l.005.008q-.004.006-.004.01zm.105.033.003-.004.01.005-.014.023q-.01 0-.017-.009l-.012.021c-.011-.003-.019-.005-.024-.018l-.013-.032v-.001H3.87l-.003.004-.01-.006.014-.025.022.006.01-.02.024.008-.005.01q.006.02.016.038zm-.044-.032-.003.006.01.026.007.012.006-.01-.013-.031zm.051-.013-.003.004-.009-.007.016-.022q.01.003.016.01l.014-.018q.01.004.017.012l.013-.02.014.008.005-.008.01.006c-.002.003-.007.008-.006.013a.2.2 0 0 0 .01.04l.003-.005.008.005q.004-.002.004-.006-.001-.03-.005-.057 0-.008-.007-.013l-.005-.003.005-.01q.008.002.014.006l.02-.01.003.009c-.007.005-.008.006-.008.015l.002.016.016-.016.014.01.004.014.005.045a.1.1 0 0 0-.025.019.1.1 0 0 0-.036-.012l-.017.017q-.013-.004-.018-.017l-.01-.04h-.003l-.005.007.009.034.009.006-.015.018-.019-.008-.013.016-.022-.01.006-.009zm.039.037.003-.006-.008-.032-.003-.007h-.001l-.006.007.009.035zm.1-.065-.007.007.004.03.01.003c-.001-.007-.001-.036-.006-.04zm.101.04.004-.003.007.009-.021.016q-.01-.005-.013-.015l-.019.014q-.015-.008-.015-.026v-.036l-.004.003-.007-.01.023-.017.017.014.017-.014.02.017-.009.007c0 .012-.004.028 0 .04zm-.028-.047-.005.005q-.002.018-.001.035 0 .004.002.006l.008-.006v-.035zm.042.067q-.008.001-.008-.007 0-.005.006-.008l.008-.007.007-.006-.012-.01.005-.031a.04.04 0 0 0 .025-.012c.005.004.018.015.025.011a.01.01 0 0 1 0-.013c.007-.007.016 0 .015.008q-.001.01-.01.017l-.012.01.013.01-.006.036a.04.04 0 0 0-.027.008c-.01-.008-.016-.01-.029-.006m.026-.047.004.003.008-.008-.01-.005zm.01.03v-.01l-.003-.004-.01.01q.007 0 .012.004zm.027.012.02-.012.012.017a.05.05 0 0 1-.031.026l-.005-.01q.012-.006.01-.01l-.006-.01zm.206-.016a.05.05 0 0 1-.002.04.07.07 0 0 1-.034.025.1.1 0 0 1-.054.003.05.05 0 0 1-.03-.033q-.005-.035.022-.059a.4.4 0 0 0 .062-.01.1.1 0 0 1 .036.034m-.097.025c.008-.01.012-.025.017-.037a.03.03 0 0 0-.015.016.03.03 0 0 0-.002.021m.142.015-.008.012.022-.003q.009.018-.002.033l-.017.027c-.007.01-.013.016-.028.017q-.015.001-.03-.002l-.006-.001.002-.011.023.002q.01 0 .014-.009l.007-.01c.002-.005.013-.017.016-.026l.001-.006-.01.001-.018.03.002.01-.024.003-.008-.023.01-.003.033-.053c.005-.008.006-.01.001-.018l.008-.005.01.013a.04.04 0 0 1 .02.004l-.001.009q-.012-.002-.017.009m.066.018.017.013-.027.01-.005-.004.005.022-.01.002-.025.032h.005v.011h-.027c-.004-.012-.004-.016.005-.028l.023-.03v-.01h.022l-.002-.002zm.044.081-.038.045a.1.1 0 0 0-.03-.006.1.1 0 0 0-.016-.03l.002-.008q.007.001.011-.004l.028-.032q.013.006.03.006a.1.1 0 0 0 .013.029m-.055.014.005.009.023-.027-.004-.01z" class="fil3"/><path id="_147942696" fill="#fcdb00" d="M3.712 5.467q.002.003.002.007a.04.04 0 0 1-.028-.023q-.005-.01-.005-.023l.013.016zm-.018-.074-.003.012.032.039.022.026-.026.006c.002-.01.005-.02 0-.029l-.028-.041-.002.01-.01-.001-.005.02v.022a.05.05 0 0 0 .025.031.05.05 0 0 0 .039.004l.012-.005a.1.1 0 0 0 .022-.026l.003-.015v-.014H3.77a.06.06 0 0 1-.02.035l-.046-.056-.002-.003.024-.01.003-.018-.005-.003a.1.1 0 0 1-.03.016m.011.098" class="fil12"/><path id="_147940640" fill="#fcdb00" d="m3.834 5.412-.03-.046-.028.005-.013.024.022.033c.004.006.004.007.002.013l.004.002.015-.006.016-.001.005-.013zm-.055-.024.013-.003h.003l.023.034-.016.003z" class="fil12"/><path id="_147917536" fill="#fcdb00" d="M3.832 5.332c-.002-.007-.002-.01.003-.017l-.003-.004a.03.03 0 0 0-.013.016v.002h-.015v.004c.008.002.01.003.015.011v.002q.015.025.027.05l.001.006-.001.004.001.003.023.001.009-.019-.006-.003-.002.005-.007-.002-.03-.054z" class="fil12"/><path id="_147916720" fill="#fcdb00" d="m3.92 5.321.005.013q.004.014.012.026l.002.004.004-.006.005.003-.011.02a.02.02 0 0 1-.016-.012l-.013.023c-.01-.003-.016-.005-.02-.016l-.017-.038-.004.006-.005-.003.012-.021.019.006-.004.007.008.02.013.022.008-.013-.014-.034-.008-.004.01-.017.018.006zm-.033.055" class="fil12"/><path id="_147917672" fill="#fcdb00" d="m4.057 5.285.004.041q0 .005-.004.007l-.002.003-.008-.006-.002.003-.003.004-.002-.005a.2.2 0 0 1-.01-.04q.001-.008.005-.012l-.005-.003-.005.008-.014-.008-.014.021-.002-.004q-.006-.006-.015-.01l-.011.017-.003.004-.002-.004q-.006-.006-.013-.01l-.013.02.005.003.004-.006.002.004q.007.02.01.04v.001l-.004.008.017.008.012-.015-.007-.005-.01-.037.008-.01.002.001h.001l.004.006.01.037-.005.008.017.007.012-.015-.008-.005L4 5.306l.007-.011.007.003.01.04.006.01.009.005.015-.016h.002a.1.1 0 0 1 .035.01l.023-.016-.005-.047-.003-.009-.011-.008-.02.018-.002-.025q0-.009.008-.013l-.002-.005-.018.01-.012-.005-.003.005q.006.002.009.009l.003.024zm.029-.002q.005.002.006.014l.003.033-.016-.005-.003-.033z" class="fil12"/><path id="_147920664" fill="#fcdb00" d="M4.132 5.321V5.28l-.005.003-.002.001-.003-.005.019-.015.015.013-.006.005v.014q-.002.012-.001.024 0 .006.005.008l.011-.008v-.037l-.005-.006.015-.012.015.013-.007.005v.014a.1.1 0 0 0 .001.033l.005-.004.004.005-.017.013q-.01-.005-.011-.016l-.02.016q-.012-.008-.013-.023" class="fil12"/><path id="_147920560" fill="#fcdb00" d="m4.282 5.332-.015.01.003.004.002.005q.002.008-.01.012l.003.005.015-.007.012-.015z" class="fil12"/><path id="_147926984" fill="#fcdb00" d="M4.264 5.264q-.003-.002-.006.001-.003.008.002.012l-.003.002c-.009.004-.02-.005-.026-.01a.04.04 0 0 1-.023.01l-.004.028.013.01-.017.016-.006.006q0 .005.006.004.016-.005.03.006a.04.04 0 0 1 .024-.008l.005-.031-.014-.01.015-.014.006-.007q.006-.009-.002-.015m-.041.036.002-.015.018.007-.013.013zm.014.033-.02-.007.015-.015.008.006z" class="fil12"/><path id="_147920880" fill="#fcdb00" d="m4.62 5.464-.012-.026-.026-.006c-.008.01-.02.03-.033.035l-.005.001v.004a.1.1 0 0 1 .014.028l.027.005.036-.041zm-.054.013.027-.031.007.014-.027.032z" class="fil12"/><path id="_147918432" fill="#f8c300" d="M4.536 5.452c-.001.002-.005.008-.001.008h.002v.006h-.022l-.001-.01q0-.006.006-.013l.024-.03v-.01h.019l.004.019-.01.001-.013.018zm.055-.057-.01-.008-.015.012.004.003.02-.007z"/><path id="_147914464" fill="#fcdb00" d="m4.509 5.43.015-.025.005-.014q0-.005-.003-.014l-.025.003c.005-.008.01-.02.018-.025l.01-.002v-.004l-.017-.004q-.003 0-.004-.004l-.006-.008-.004.003.002.008q0 .005-.004.01l-.034.055-.009.002.007.018.019-.002-.002-.008.02-.032.013-.002a.01.01 0 0 1 0 .009l-.014.022-.007.01a.03.03 0 0 1-.01.013l-.008.002-.021-.001v.006l.018.003q.016.001.03-.005z" class="fil12"/><path id="_147913648" fill="#fcdb00" d="M298.313 113.75c-1.815.398-3.645.745-5.5.875-1.381 1.388-2.346 3.034-1.875 5.063.294.949.819 1.741 1.562 2.312.15.116.314.219.469.313.864.52 1.832.653 2.844.562 1.373-.122 2.907-.667 4.062-1.438 1.25-.834 1.941-2.149 1.719-3.687-.273-1.907-1.73-3.107-3.281-4m-1.688.969c.17.083.33.167.5.25l-2.719 6.5c-.75-.46-1.173-.888-1.594-1.594l1.407-.563c.241-.126.415-.282.562-.468.868-1.103 1.316-2.87 1.844-4.125m-1.844.25-.25.562c-.106.252-.357.95-.469 1.25-.272.737-.58 1.461-1 2.094l-.406.563c-.216-.699-.348-1.32-.187-2.063.16-.74.54-1.372 1.156-1.844.334-.255.77-.407 1.156-.562m2.875.281c.866.574 1.69 1.224 2.094 2.219.183.453-.14.6-.563.562-.674-.059-1.244-.255-1.687-.781a4 4 0 0 1-.438-.656zm-.875 2.063c.41.52.751.778 1.375 1.03.662.274 1.152.284 1.844.157-.11.688-.332 1.208-.688 1.813-.399-.623-.782-1.121-1.5-1.407-.589-.236-1.057-.193-1.656-.094l.188-.437zm.156 2.03c.974.008 1.5.665 1.938 1.438-.76.63-1.588 1.083-2.594 1.125-.468.02-.9-.097-1.344-.219l.875-2.062c.364-.177.716-.285 1.125-.281z" transform="matrix(.01096 0 0 .01086 1.162 4.059)"/><path id="_147912016" fill="none" d="M4.447 5.337a.05.05 0 0 0-.019-.022l-.005.01.008.01c.004.002.017.005.016.002" class="fil4"/><path id="_147910640" fill="none" d="m4.436 5.37-.008-.009a.02.02 0 0 0-.02 0l-.008.018a.04.04 0 0 0 .036-.009" class="fil4"/><path id="_147909264" fill="none" d="M4.43 5.346q-.008-.002-.013-.007l-.003.007q.008-.001.015.002a.03.03 0 0 1 .015.012l.004-.01a.03.03 0 0 1-.018-.004" class="fil4"/></g></g></g></svg>