<svg xmlns="http://www.w3.org/2000/svg" xmlns:xlink="http://www.w3.org/1999/xlink" viewBox="0 0 650 500"><path fill="#da121a" d="M0 0h650v500H0z"/><path fill="#fff" d="M0 250h325v250H0zM325 0h325v250H325z"/><g transform="translate(-895.63 -1494.677)"><g id="a" stroke-width=".944"><path fill="#742c64" stroke="#192e2e" d="M1028.313 1831.837c-4.273-5.944-13.292-9.988-10.79-18.644-1.175 0-.709-8.434-1-9.212l-5.23-3.106.335 5.549-8.237-1.78-.106 8.216-2.224 2.775 2.78 5.715c.112-.056.112 1.72 3.783 1.609 0 0-.668 1.8 1.78 5.128-.802 6.373 4.12 9.173 6.785 13.738 2.935-3.601 4.946-7.514 12.124-9.988z"/><path fill="#742c64" stroke="#192e2e" d="M1063.518 1784.588c-3.616-2.98-11.661 2.029-6.136 3.768-1.16 1.097-.627 2.196 0 3.295l8.338 4.551c-1.202 1.845-.871 3.816 1.572 5.964-1.028 2.976-3.116 2.246-5.82-.628h-4.876c-3.553 1.675-2.476 3.35-.944 5.023-3.442 3.603-.582 7.102 3.932 2.354l2.99 2.825c-.553 6.172-15.93 8.931-10.068.785-9.034-3.149-8.042 3.851-4.377 9.388-4.795.568-14.593 2.847-8.207-4.837-10.689 1.093-10.128 9.072-2.517 13.026-7.407 1.46-15.033 1.178-21.236 12.243-6.37 5.63-9.203-.052-8.135 1.664 1.777 2.855 5.551 9.482 10.704 1.68-1.699 18.944-7.714 19.166-8.33 17.859-.642-1.36 2.27 10.446 8.826-1.681 4.453 12.698-1.008 10.817-2.286 11.35-1.37.574 2.464 6.763 9.603-1.523l5.348-7.064c-7.078 6.78-10.71 23.503-22.038 19.489l-3.304 1.57 1.274 4.21 5.664 2.197c-5.239-.98-7.969.043-6.922 4.08 2.48 4.601 6.762 10.11 6.607 1.1-.093 5.848 2.739 7.11 5.505 8.474 3.77.827 3.494-5.55.944-5.65-.099-3.458.971-5.825 4.09-6.277 3.12 3.59 3.83-.562 5.034-2.982 4.27.45 3.933-.966 4.72-5.022l8.336-2.668c6.104 9.743 17.369 9.923 29.259 8.945 3.277 1.465 4.03 2.93 3.775 4.395-19.767 7.888-13.259-10.69-39.955 5.963-.892.256-1.784.627-2.674-.784-1.094 2.065-2.193 3.842 1.416 6.277 1.298 3.978.468 7.27-4.877 9.104 3.616 6.742 6.658 4.62 9.439-1.57.82 4.583 4.464 9.824-.63 13.026 2.39 1.899 4.783 3.313 6.764.314l-.088 4.615c-13.14 10.241-13.252-5.866-15.888-2.668-.784 1.757-.972 4.366-3.373 3.703-5.473 3.182 2.596 4.943 4.248 7.377l-6.45-4.238-3.46.157c.49 1.445.987 2.889-.158 3.923.213 2.876-.213 6.07 5.664 6.122 2.116 1.498 4.181 3.018 4.247 5.335 8.837-.673 7.895-3.785 10.696-5.963 1.358 7.162 4.442-3.489 6.688-5.6 1.38.584 1.697 3.113 1.024 4.93 3.933-5.484 9.285-12.16 11.124-18.491-1.746-1.331-2.514-2.79-3.42-5.794-3.774-11.67 6.853-13.916 20.134-16.792-6.365 5.088-15.805 15.845-9.91 24.326.46 2.955 1.262 6.103-1.654 7.148 3.355 2.315 4.927-1.773 5.733-4.264 1.981 3.313 8.863 8.64 8.148 12.753.859.856 6.293-1.959 4.247-6.906 4.206-.814 6.06-1.84 12.318-4.023 5.586.961 12.98 17.457-.162 11.77-1.774-1.47-3.895-2.017-6.922-.156.583 1.174.6 2.897-.156 4.708-.124 4.865 7.107-.709 8.651-.47-11.666 3.803-4.993 1.577-3.618 8.161 2.995 4.35 4.992-1.825 12.113-5.964l-2.203 2.04.315 7.847c9.838.625 8.478-9.514 11.844-14.345.763-1.095 2.5-1.797 3.405-2.574-5.064-.34-9.592-7.822-5.367-11.36-3.13-2.811-9.626-5.253-5.997-9.562-5.117-4.403-4.224-6.164-12.899-.629-3.232-2.133-7.589-4.494-4.986-7.672 7.346-5.273 7.782-11.123 10.382-16.792 44.776-16.226-23.45-65.35 6.536-68.471.597 5.05-.528 10.216 1.487 15.266 3.568 1.376 5.984 2.035 7.236 5.337l2.501 6.435c-.139-3.677 2.009-8.168-.316-11.031-2.617-3.223-2.062-5.691-2.051-7.938 1.666-4.014-.258-5.739-.65-7.607-6.744-7.638-9.656-6.005-12.46-4.844-9.921 4.106-10.257 16.615-3.461 26.505 14.294 20.804 20.712 38.693.096 40.24-5.814-7.54-20.998-7.594-24.716-36.426.378-3.498 2.752-3.51 4.72-4.237l2.831-2.196c-7.859-4.83 1.943-19.625 8.809-11.3-.337-5.86-.796-15.54 2.342-20.54.675-1.344 2.516.814 3.898 1.592-1.947-2.13-2.794-15.39 4.456-10.716 2.549-.702 2.257-3.303 1.784-2.473-1.206 2.12-5.024-.602-5.311-7.92-2.837-5.868-8.173-12.374-12.203-15.502-3.49-.485-6.734-2.192-11.012 1.255h-3.46l-1.416 1.099c-.264-1.515-2.39-1.545-4.72-1.412z"/><path fill="none" stroke="#192e2e" d="M1003.39 1812.657c3.697 1.37 6.392 3.596 8.126 6.64m-.11-12.873c-.138 2.515-1.645 5.03 1.112 7.546m62.106-28.112s3.177 3.296 3.46 8.632"/><path fill="#e7e7e7" stroke="#192e2e" d="M1075.092 1787.183s-7.098 5.72 2.497 5.876c1.19-2.244-2.497-5.876-2.497-5.876z"/><path fill="none" stroke="#192e2e" d="M1058.421 1786.642c.404 2.511 2.556 3.14 2.675 3.14m25.64 10.673s4.275 3.037 1.758 7.117M1069.807 1797c.191 1.941 3.228 5.446 5.76 6.435m-8.494 25.582c-3.026 5.982 1.088 5.062 3.246 4.29 1.482-.531 1.264 7.144-7.65 4.343-3.895-2.778-2.47-7.71-.236-10.28"/><path fill="none" stroke="#192e2e" d="M1062.354 1837.336c-.685 8.559-4.654 19.512-13.528 11.143 8.417 1.007 4.25-10.122 5.275-16.35 0 0-3.433 11.134-11.567 10.071-6.772-.883-3.858-7.703-3.933-7.689 0 0 5.99 3.816 7.55-.628 1.73-4.923 5.035-9.26 5.035-9.26m24.77 5.622c.962 3.122.78 5.685-1.803 7.405m-43.731 6.905s-5.103 9.08-.541 11.121m14.069-3.587s-.787 8.16 1.572 8.475c2.36.313-6.607 2.668-6.764-9.416m71.732-7.064c.87 1.204.464 3.318 0 3.61m-35.595 48.732c2.862 2.706.013 4.574-.78 5.205m-2.48-52.838c.06 1.907-.092 3.895 3.304 4.551"/><path fill="#da121a" stroke="#192e2e" d="M1060.938 1800.61s-2.832-4.55-10.854-.627c-8.023 3.923-10.39-1.883-10.39-4.552 0-2.667 4.098-3.295 4.098-3.295s-1.73 6.749 6.45 4.708 11.326 1.256 11.326 1.256l2.367 5.089-2.997-2.578z"/><path fill="#192e2e" stroke="#192e2e" d="M1076.535 1788.561c-.172.095-3.417 2.903 1.099 2.534"/><path fill="none" stroke="#192e2e" d="M1040.485 1883.13c7.546-3.08 8.975-8.187 7.096-14.055m-32.727 34.787 4.448 1.774m5.785 28.828c2.123.286 3.118-1.307 4.005-3.08m-10.234 6.658c.689 1.062 2.12 1.754.444 3.996m67.184 3.994c1.768 1.208 2.058 2.839.89 4.883m1.834 2.923c3.638 1.69 2.727 3.38 2.8 5.068m11.015-.915c2.6-.106 3.388 1.143 4.373 2.247"/><path fill="#fcdd09" stroke="#192e2e" d="m1098.849 1788.556-2.61.203s-2.561 1.812-1.257 3.767c1.293 1.94 2.18 1.271 2.963.173.638-.896.757-2.324.757-2.324l5.403 1.052-2.36 4.238c-1.251-.194-2.204-.903-2.697-.609.134.02-3.594.406-2.18 1.818 1.416 1.412 6.377.433 6.377.433l2.072 4.509c0-.629-7.214-2.765-8.753-1.634-.16-2.243-10.483-15.45-12.421-16.326l1.465-8.437 3.247 3.54c0 .022-1.054 1.226-1.883 1.893-.875.701-1.112 2.26.056 2.603 1 .293 2.196.365 2.65-.182.763-.918.623-2.766.623-2.766l3.644-1.008.315 4.238-2.831.785s-.83 1.097.314 2.668c1.253 1.719 2.702 1.39 3.122.448.388-.872.496-2.174.496-2.174s3.302-.73 3.93-1.2c-.024.812-.649 4.5-.442 4.292z"/><path fill="#da121a" stroke="#192e2e" d="M1007.256 1885.988c-.25-.223-2.595.535-3.463 1.749-.394.553 1.246 1.092 3.776 2.069 1.16-1.977 1.369-2.4-.312-3.818zm-.472 9.532-1.812 4.58s4.065.365 4.692.358c1.282-.013-1.136-5.967-2.879-4.938zm8.283 8.347.02 4.55 3.598-2.823c-.581-2.452-2.09-2.115-3.618-1.728zm10.225 30.604s3.755-1.01 3.776-3.296c.03-3.515.662 1.28-3.183-.802-3.44-1.862-.751 4.424-.593 4.098zm-6.565 7.734c1.854-1.146.859-2.61.978-3.95-2.09.708-4.172 1.42-4.582 3.388 1.255.406 2.553.976 3.604.562zm7.06 6.599c2.244 1.169 2.49 2.588 3.098 3.962l-4.248.784 1.15-4.747zm61.367-2.55c1.178.453 1.925 5.111 0 4.884-1.325-.157-3.115-.667-3.115-.667s2.447-5.548 3.115-4.217zm2.644 7.768c-.07-1.264 4.274 3.102 2.786 5.014-1.04 1.337-6.765-1.684-6.765-1.684zm12.34 3.552c0-.606 6.15 1.092 5.928 3.108-.15 1.342-5.824 2.037-5.824 2.037zm-90.002-151.381s2.2.78 3.869-2.44l-4.61-2.425zm-8.466 2.844c3.706.28 3.665-1.505 4.08-3.366l-4.565-.942zm-2.692 6.49-2.89 4.436 5.562.776c-.332-1.602.146-2.783-2.672-5.212z"/><path fill="none" stroke="#121f1f" d="M1082.891 1809.375c1.383 2.044.967 4.087 0 6.13 0 0-6.126 5.484.162 7.34 0 0-6.288 3.065-7.577-6.211 0 0-6.126 9.357-11.85 2.017 0 0 5.401-.323 5.723-5.162m-43.058 58.44s-1.276-9.562 2.432-9.885"/><path fill="#da121a" stroke="#000" d="M1025.256 1947.932s1.047-1.29 1.692-1.29"/></g><g id="b" stroke="#000" stroke-width=".944"><path fill="#fcdd09" d="m1042.908 1525.582 29.513.101 5.822 5.235v14.093l-3.212 2.416-.1 32.414h7.73l.3-16.711-2.107-3.12-.1-10.168 4.115-5.032 17.267.1 4.418 5.134.099 9.864-2.61 4.128-.1 20.434 11.244 5.94-.201 15.3-3.615 5.637v60.801l9.538 8.154.1 19.63-19.175 12.682h-88.04l-19.174-12.582v-19.73l8.935-7.147.402-61.606-3.414-5.603v-15.336l10.642-6.442.1-20.535-3.413-3.523-.201-9.663 4.718-5.537h17.868l4.519 5.033v10.368l-2.711 3.323.101 16.609 8.633-.101-.201-32.212-3.413-3.221-.301-13.087z"/><path fill="none" d="m1043.309 1712.111.2-32.614s13.251-21.543 28.51.2l.449 32.816m-77.646-32.01 18.972 7.751 29.615.1m77-7.775-18.947 7.603-29.312.202m-77.43-1.237 18.874 8.774 29.536.018m-48.563-2.42 18.881 10.677 29.388.142m-38.474-19.93-.284 6.975m-4.543-1.992-.141 6.975m9.51-2.99v7.973m-4.542-2.563-.141 7.403m-3.55-99.936 17.32-6.834 78.793-.142 18.03 6.407"/><path fill="none" d="m1004.078 1611.52 17.604-5.409 72.406.142 17.32 5.125m-107.614 10.107 17.604-3.7 72.831.141 17.037 3.702m-107.33 10.819 17.889-2.278h71.552l17.889 2.135m-107.863 9.254 18.238 1.476 71.854.03 18.338-1.507m-107.876 10.559 17.768 2.92 72.18.1 17.466-2.618m-107.615 10.268 18.472 4.026h71.274l17.87-4.428m-107.616 10.468 17.868 5.436 22.388.05m27.097-.252 22.465.083 18.4-6.324m-100.288-87.979 6.576-3.975m-9.989-20.184 3.714-3.523 17.67-.1 4.918 4.026m-23.29 10.167 3.915-3.02h12.448l4.518 3.121m-20.68 6.744 4.919-3.826 11.142.101 4.92 4.027m70.974 6.593-6.324-3.825m-54.21-54.308.2 15.1 2.61 4.027v34.83m26.704-54.057-.2 15.099-2.61 4.027v34.83"/><path fill="none" d="m1037.386 1544.709 5.32-3.927 29.414.302 5.923 4.028m-37.244 2.717 4.517-2.617 24.345.15 5.27 2.668m-34.132 8.96 4.617-2.92 23.993.302 5.421 2.819m-34.332 8.153 5.12-2.718 23.891.202 5.321 2.818m-33.931 8.557 4.116-2.417 24.696.202 4.818 2.819m29.143-10.822-4.618-3.12h-11.945l-4.016 3.523m20.68 6.443-3.915-3.02h-12.448l-4.518 3.12m20.68 6.744-4.919-3.824-11.142.1-4.619 3.121m37.916 109.47-19.275 9.463h-28.71m-.201 8.053h28.811l19.476-10.872m-9.538-8.758.1 6.443m-4.717 2.819.1 7.348m9.236-12.382.1 7.047m-4.92 2.92.227 7.398m-24.82-17.868-.1 7.65m-7.028.101v8.154m14.155-8.154v8.154m-7.128.2.1 8.356m-59.028-24.36v7.45m-6.926.1v8.355m15.258-8.255.1 8.456m-8.231-.101v8.053m-23.692-28.186 8.032-8.656m-4.618-1.611-.1-10.368m9.335 1.912v11.073m-4.216-11.576v-11.777m-4.818-.403.2-11.073m9.135 1.106-.1 11.175m-4.317-22.85-.1 10.971m-4.517-21.743-.101 11.677m9.135-13.086.101 11.676m-4.819-21.54v10.467m94.834 54.16-.1-10.47m-8.834 2.014v11.072m4.417-11.676.012-11.108m4.555-.519v-11.224m-9.123.705-.062 12.08m4.618-23.556.012 11.05m4.326-21.217.079 10.972m-9.135-13.086-.03 11.962m4.748-21.777v10.42m-75.203 68.808 6.39-9.824m47.417-.142 5.537 10.107m15.617-13.239 8.66 9.253m-71.553-17.937.041 11.816m18.072-11.715.059 3.174m18.456-3.132V1678m-6.814-23.062.141 11.248m-23.85-11.532-.143 11.816m11.5-23.916-.118 12.1m-23.307-12.1v11.815m36.178-23.916-.118 12.101m-.283-36.444-.017 11.53m-23.976-11.957-.017 12.1m12.042.343.042 11.616m-11.926.569v12.1m-11.783.285v12.1m48.269-11.959v12.386m-75.553-68.236v7.55m5.923-11.175v8.658m4.718-47.161.05 4.63m4.467-4.58v4.63m4.518-4.53v4.43m62.743-4.43v4.631m4.819-4.53v4.63m4.617-4.53v4.525"/><path fill="none" d="m1013.594 1712.312.401-23.958 8.032-10.267-.403-72.075-3.212-6.241-.012-20.027 10.248-.02-.028 9.78 3.695.07-.08-9.77 9.678.058.041 9.791h3.563l-.1-9.767 10.54.05v9.768h3.565l.05-9.847 9.779-.01-.043 9.854h3.566l-.045-9.934 10.383.115.051 9.769 3.439-.05-.084-9.811 10.649.071-.05 19-3.413 7.247-.1 72.025 7.63 9.865.3 24.511m-89.145-167.8v11.476l3.414 4.227.1 20.133"/><path fill="none" d="m1030.158 1544.608.1 11.677-2.308 4.328-.201 19.53"/><path fill="none" d="m1011.385 1563.432 4.619-3.12h11.946l4.015 3.523m70.603-18.572v11.475l-3.413 4.228-.1 20.132m-14.155-35.936-.1 11.676 2.309 4.33.2 19.528"/><path fill="none" d="m1081.096 1559.813 3.413-3.02 17.668-.1 4.517 3.422m-56.459-34.33-.065 6.24m6.992-6.324-.041 6.223m7.77-6.044v6.371m38.249 51.716.1 8.456m6.024-5.235-.101 7.55"/><path fill="#0f47af" d="m1054.6 1572.166-.091-14.343s2.524-6.538 5.914 0l.022 14.353zm-20.163 70.71-.126-20.615s3.464-9.399 8.113 0l.031 20.631zm38.668-.1-.125-20.617s3.42-9.398 8.014 0l.031 20.632zm-24.267 38.998s3.137-6.768 9.175-6.915c0 0 5.112-.173 8.647 6.62v30.942l-17.97-.074.148-30.572z"/></g><use xlink:href="#a" transform="translate(325 -250)"/><use xlink:href="#b" transform="translate(325 250)"/></g></svg>