<svg xmlns="http://www.w3.org/2000/svg" id="svg2" width="1000" height="500.095" fill-rule="evenodd" clip-rule="evenodd" image-rendering="optimizeQuality" shape-rendering="geometricPrecision" text-rendering="geometricPrecision" viewBox="0 0 210 297"><defs id="defs4"><style id="style6">.str1{stroke:#0a0b0c;stroke-width:.7056}.fil0{fill:#fff}.fil2{fill:#f7d417}</style></defs><g id="Warstwa_x0020_1" transform="translate(-103.647 -62.025)scale(1.48433)"><path id="path10" fill="#fff" stroke="#0a0b0c" stroke-width=".076" d="M-59.448 41.84v200l200.001-.001c32.813 0 62.019-15.947 80.271-40.483L340.552 41.839h-400z" class="fil0"/><path id="path12" fill="#d12421" d="M140.553 221.839c26.25 0 49.615-12.757 64.217-32.387L300.552 61.84h-360v160h200.001z"/><path id="path14" fill="#f7d417" stroke="#0a0b0c" stroke-width=".706" d="M.37 124.475c3.12-3.809 1.548-7.623 1.033-9.39 6.34.178 11.11 2.45 13.897 5.935 1.436 1.795 3.556 3.117 6.23 3.128 1.242.005 1.812.596.621 1.77-3.66 3.612-9.699 3.13-13.353 3.1l-.463-.276c-3.502-2.066-6.673-3.6-7.965-4.267z" class="fil2 str1"/><path id="path16" fill="#f7d417" stroke="#0a0b0c" stroke-width=".706" d="M-28.712 140.612c-3.381-3.769-3.862-10.213-2.18-14.562 4.006-10.363 22.713-11.404 32.28-11.04v.021c.498 1.744 2.133 5.597-1.018 9.443 4.459 2.304 31.271 14.903 16.982 24.208l-.02.07c-14.922-.422-27.77-1.642-39.571-1.318.196-4.873 5.705-6.276 12.274-6.134 7.506.163 15.768.494 18.352.456 3.012-.044 4.35-.362 4.414-1.268.16-2.297-3.778-5.132-7.949-5.122-7.018.017-14.09-1.06-20.663-1.444-4.572-.268-13.187 1.696-12.901 6.69z" class="fil2 str1"/><path id="path18" fill="none" stroke="#0a0b0c" stroke-width=".706" d="M.42 124.491c-4.232-1.418-9.312-2.003-15.68-.696" class="str1"/><path id="path20" fill="#0a0b0c" d="M6.96 115.953c-3.915 1.727-2.998 6.926.813 8.413 2.618 1.021 4.82.132 4.61-3.17-.113-1.756-.882-3.278-2.46-4.246-.771-.472-1.857-1.058-2.963-.997"/><path id="path22" fill="#f7d417" stroke="#0a0b0c" stroke-width=".706" d="M55.65 90.77c1.434 0 2.73.517 3.64 1.344.676-2.76 3.516-3.856 6.778-3.827 3.245.028 3.311.756 1.938 3.43L57.34 112.489l-52.13-2.335-8.957-23.217c-.712-1.845-.813-3.06 1.739-3.1 5.527-.087 6.838 1.867 7.095 4.987.863-.61 1.972-.976 3.18-.976 2.742 0 4.98 1.895 4.98 4.218s-2.238 4.218-4.98 4.218a5.7 5.7 0 0 1-1.846-.302c.997 2.018 2.961 3.186 5.295 3.73 2.503.583 7.738.706 10.222.184 2.483-.52 4.502-2.022 5.467-4.657a5.6 5.6 0 0 1-2.852.764c-2.743 0-4.98-1.895-4.98-4.218s2.237-4.218 4.98-4.218c1.265 0 2.422.403 3.302 1.065a3.8 3.8 0 0 1-.436-1.766c0-2.434 2.345-4.42 5.22-4.42s5.219 1.986 5.219 4.42c0 .868-.298 1.679-.812 2.363a5.7 5.7 0 0 1 2.27-.465c2.743 0 4.98 1.895 4.98 4.218s-2.237 4.218-4.98 4.218c-1.53 0-2.902-.59-3.817-1.514.469 2.871 2.445 4.402 4.91 5.181 2.959.935 8.347 1.29 11.289.704 1.764-.351 3.74-1.143 4.765-2.422a6 6 0 0 1-.812.056c-2.743 0-4.98-1.894-4.98-4.218s2.237-4.218 4.98-4.218z" class="fil2 str1"/><path id="path24" fill="#fff" stroke="#0a0b0c" stroke-width=".706" d="M1.403 115.084c6.34.179 11.11 2.451 13.897 5.935 1.436 1.796 3.556 3.117 6.23 3.128 1.242.005 1.812.596.621 1.771-3.66 3.611-9.699 3.13-13.353 3.099 8.492 5.084 18.52 13.175 8.554 19.665-2.787 10.55-14.169 13.28-23.035 13.837 3.728 9.938 18.08 8.738 24.608 2.02-9.277 23.202-30.091 26.32-46.72 26.782 13.092 12.562 41.974 8.745 52.072-11.639-1.593 4.038-1.55 14.721-.411 20.018.806 3.752 2.58 3.836 4.793 1.712 3.127-3.002 8.705-14.1 10.422-21.322.487 7.031 4.43 16.94 7.066 21.012 1.798 2.78 2.848 2.689 3.884-.941 2.341-8.201 1.549-19.555.25-27.467 4.198 9.83 13.067 22.434 18.418 26.956 2.607 2.202 4.939 2.746 4.504-2.095-1.057-11.754-9.415-25.047-15.527-34.904.428.378 14.848 16.135 21.996 20.194 4.487 2.548 4.193-.849 2.835-3.832C76.38 165.557 64 152.36 59.487 146.46c5.699 4.297 14.129 12.803 20.73 14.88 3.94 1.241 3.255-1.453 1.415-4.842-5.125-9.444-17.147-19.56-25.035-27.227 2.255 1.828 11.166 9.094 16.153 10.872 3.534 1.26 6.094-.878 3.54-4.801-4.747-7.289-11.458-14.483-16.136-18.799-2.517-2.322-4.764-3.649-6.45-4.203L6.03 110.154c-3.31.187-4.594 3.252-4.643 4.878l.015.05z" class="fil0 str1"/></g></svg>