<svg xmlns="http://www.w3.org/2000/svg" xmlns:xlink="http://www.w3.org/1999/xlink" width="600" height="300"><defs><path id="a" fill="#ff0" d="M15-4.88-9.27 14.26 0-15.76l9.27 30.02L-15-4.88z"/><path id="b" fill="#ff0" d="m-6-50 6-35 6 35H3V50l3 6v25L0 71l-6 10V56l3-6V-50z"/></defs><path fill="#2a6b11" d="M0 0h600v300H0z"/><use xlink:href="#a" x="50" y="210"/><use xlink:href="#a" x="110" y="120"/><use xlink:href="#a" x="170" y="70"/><use xlink:href="#a" x="235" y="40"/><use xlink:href="#a" x="300" y="30"/><use xlink:href="#a" x="365" y="40"/><use xlink:href="#a" x="430" y="70"/><use xlink:href="#a" x="490" y="120"/><use xlink:href="#a" x="550" y="210"/><use xlink:href="#a" x="225" y="95"/><use xlink:href="#a" x="300" y="95"/><use xlink:href="#a" x="375" y="95"/><use xlink:href="#b" x="300" y="200"/><use xlink:href="#b" transform="rotate(45 -91.421 462.132)"/><use xlink:href="#b" transform="rotate(-45 391.421 -262.132)"/></svg>