<svg xmlns="http://www.w3.org/2000/svg" width="800" height="421.05"><path fill="#c70f2e" d="M0-.001h800V421.05H0z"/><path fill="#fff" d="M213-.001h374V421.05H213z"/><path fill="#c70f2e" d="m400 94.267 26.103 80.327 84.463.004-68.33 49.648 26.098 80.33L400 254.932l-68.334 49.644 26.098-80.33-68.33-49.648 84.463-.004z"/><path fill="#a69439" fill-rule="evenodd" d="M400 171.281c-2.257 0-4.502.174-6.688.594l-2.343 7.688a32.1 32.1 0 0 0-9.531 4.593l-7.5-2.969c-1.691 1.447-3.218 3.11-4.625 4.875s-2.654 3.593-3.688 5.563l4.531 6.625a32.2 32.2 0 0 0-2.344 10.375l-7 4c.078 2.224.404 4.425.907 6.625.502 2.2 1.167 4.338 2.062 6.375l8.031.563a32.4 32.4 0 0 0 6.625 8.343l-1.218 7.938c1.787 1.326 3.716 2.427 5.75 3.406s4.13 1.805 6.281 2.375l5.438-5.906a32.4 32.4 0 0 0 10.625 0l5.437 5.906c2.151-.57 4.248-1.396 6.281-2.375 2.034-.98 3.963-2.08 5.75-3.406l-1.219-7.938a32.4 32.4 0 0 0 6.625-8.344l8.032-.562c.895-2.037 1.56-4.175 2.062-6.375.503-2.2.83-4.401.906-6.625l-7-4a32.2 32.2 0 0 0-2.343-10.375l4.531-6.625c-1.034-1.97-2.28-3.798-3.688-5.563-1.407-1.764-2.934-3.428-4.625-4.875l-7.5 2.97a32.1 32.1 0 0 0-9.53-4.595l-2.344-7.687c-2.186-.42-4.43-.594-6.688-.594"/><path fill="#a69439" d="M423.698 210.522a23.698 23.698 0 1 1-47.396 0 23.698 23.698 0 1 1 47.396 0"/><path fill-rule="evenodd" stroke="#000" stroke-width=".271" d="M381.084 207.455c-.182-.352-.042-.575.161-.774.15-.429.089-.98.934-1.007.491-.326.94-.295 1.314.35.445.188.902 1.006.32 1.43.113.59-.258 1.267-.729 1.008-.35.273-1.21.43-1.357-.38-.612-.035-.642-.325-.643-.627z"/><path fill="#a69439" stroke="#000" stroke-linecap="round" stroke-width=".271" d="M382.923 207.316a.372.372 0 1 1-.744 0 .372.372 0 1 1 .744 0zm1.139.204a.474.474 0 1 1-.949 0 .474.474 0 1 1 .949 0z"/><path fill="#a69439" fill-rule="evenodd" stroke="#000" stroke-width=".271" d="M379.581 208.352c.287-.432.69-.648 1.416-.41.303-.578 1.612-.862 2 .395.515-.645 1.222-.673 1.532-.158.337-.907 1.309-1.347 2.014-.931v3.424h-6.947z"/><path fill="#a69439" fill-rule="evenodd" stroke="#000" stroke-width=".271" d="m378.311 210.682 9.225.015c-.215-.897-1.15-1.244-2.044-.935-.224-.507-1.425-.724-1.956-.292-.554-.833-1.109-.651-1.663-.584-.22-.416-1.051-.584-1.577.146-.605-1.116-1.38-1.137-1.985-.76z"/><path fill="#a69439" fill-rule="evenodd" stroke="#000" stroke-linejoin="round" stroke-width=".271" d="m386.047 204.098.613-.934h1.49l.539.905zm10.231 1.795.715-.934h1.737l.628.905-3.08.03z"/><path fill="#a69439" stroke="#000" stroke-linecap="round" stroke-width=".271" d="M396.278 205.937h1.328v4.743h-1.328z"/><path fill="#a69439" stroke="#000" stroke-linecap="round" stroke-width=".271" d="M397.008 205.937h2.38v4.743h-2.38z"/><path fill="#a69439" fill-rule="evenodd" stroke="#000" stroke-width=".271" d="m398.263 206.856-.876.993v2.86h3.927v-3.867l-3.05.014z"/><path fill-rule="evenodd" stroke="#000" stroke-width=".271" d="M401.124 207.834h-1.774l-.897-.963h2.617zm-.029-2.824c.022-1.44.879-1.999 1.693-2.036.96-.044 1.495.657 1.474 2.087z"/><path fill="#a69439" fill-rule="evenodd" stroke="#000" stroke-width=".271" d="M402.89 210.636v-5.632c0-1.188-.497-1.646-.89-1.665-.424-.02-.905.73-.905 1.665v5.662z"/><path fill="#a69439" fill-rule="evenodd" stroke="#000" stroke-width=".271" d="M404.262 210.636v-5.632c0-1.188-.384-1.646-.688-1.665-.327-.02-.699.73-.699 1.665v5.662z"/><path fill="none" stroke="#000" stroke-width=".271" d="M404.218 205.09h-3.007m2.863-.788h-2.859m1.587 2.073h-.656m.613 1.225h-.57m2.058-1.225h-.656m.613 1.225h-.57"/><path d="M419.324 208.024h.424v1.824h-.424z"/><path fill-rule="evenodd" stroke="#000" stroke-width=".271" d="M408.31 210.667v-7.555l1.776-.454.536.392v7.596l-2.311.02z"/><path fill="#a69439" stroke="#000" stroke-linecap="round" stroke-width=".271" d="M404.058 199.281h2.51v11.443h-2.51z"/><path fill="none" stroke="#000" stroke-width=".271" d="M405.02 200.712v2.18m.497-1.503v3.76m.555-4.933v1.196"/><path fill-rule="evenodd" stroke="#000" stroke-width=".271" d="m406.1 198.8-.32-.482h-1.314l-.405.69-.003.288 2.48-.044.015-.423-.452-.03z"/><path fill="none" stroke="#000" stroke-width=".271" d="M405.02 204.915v2.181"/><path fill="#a69439" stroke="#000" stroke-linecap="round" stroke-linejoin="round" stroke-width=".271" d="M406.1 207.396h2.511v3.328h-2.51zm.351-.853h1.832l.328.846h-2.51z"/><path fill-rule="evenodd" d="m406.079 207.47-1.992 2.35v.875h2.029l-.037-3.226z"/><path fill="#a69439" stroke="#000" stroke-linecap="round" stroke-linejoin="round" stroke-width=".271" d="M402.525 209.389h1.832l.328 1.313h-2.51z"/><path fill="#a69439" fill-rule="evenodd" stroke="#000" stroke-width=".271" d="M415.194 210.739v-.763c-.264-.5-.567-.952-1.5-.62-.33-.881-.712-.728-1.084-.763v2.087z"/><path fill="#a69439" stroke="#000" stroke-linecap="round" stroke-width=".271" d="M410.437 206.91h2.29v3.798h-2.29z"/><path fill="#a69439" fill-rule="evenodd" stroke="#000" stroke-width=".271" d="m410.52 210.687-.022-2.662-.928-.93-1.074.909v2.704z"/><path fill-rule="evenodd" d="M406.762 210.728v-1.01l1.755-1.859v2.828z"/><path fill="#a69439" fill-rule="evenodd" stroke="#000" stroke-width=".271" d="M406.305 210.695c.193-.55 1.008-1.572 2.657-.788.811-.42 1.617-.87 2.656 0 .81-.059 1.72-.417 2.306.788z"/><path fill-rule="evenodd" d="M415.658 207.85v1.036h-.057l-.546.728v.673h-1.175v.538h6.22v-.538h-2.19v-.644l.568-.757h-.213v-1.037h-.316v1.037h-.056l-.547.728v.673h-.618v-.644l.567-.757h-.213v-1.037h-.316v1.037h-.056l-.547.728v.673h-.544v-.644l.567-.757h-.213v-1.037h-.315z"/><path fill="#a69439" fill-rule="evenodd" stroke="#000" stroke-width=".271" d="M421.616 208.564c-.466-.104-1.998.087-2.029.934-.391-.075-.999.252-1.036 1.066h3.123z"/><path fill-rule="evenodd" d="M415.75 207.148c.155-.604.22-1.741.115-2.408-.144-.906-.27-1.378-.308-2.233-.052-1.196.218-1.791.387-2.408-.075.747-.256 1.46-.125 2.306.15.973.377 1.929.353 3.006-.015.704-.266 1.173-.421 1.737zm1.124 0c.155-.527.22-1.518.114-2.099-.143-.79-.27-1.2-.307-1.946-.052-1.042.218-1.562.387-2.1-.075.652-.256 1.273-.125 2.01.15.849.377 1.682.353 2.621-.015.614-.267 1.023-.422 1.514m1.197 0c.155-.361.22-1.042.114-1.44-.144-.543-.27-.825-.307-1.337-.052-.715.218-1.072.387-1.44-.076.446-.256.873-.125 1.38.15.581.376 1.153.353 1.798-.015.421-.267.702-.422 1.04z"/><path fill="none" stroke="#000" stroke-width=".271" d="M399.781 207.732v1.708m.672-1.547v.963"/><path fill-rule="evenodd" stroke="#000" stroke-width=".271" d="M394.98 209.002h3.064l-.408-.628h-2.613z"/><path fill="#a69439" stroke="#000" stroke-linecap="round" stroke-width=".271" d="M394.731 209.06h3.299v1.606h-3.299z"/><path fill="#a69439" stroke="#000" stroke-linecap="round" stroke-width=".271" d="M396.512 209.848h3.838v.89h-3.838zm-10.436-5.75h2.598v6.587h-2.598z"/><path fill="none" stroke="#000" stroke-width=".271" d="M387.915 203.587v-1.678m.263 2.261v6.233m-.496-6.233v6.233"/><path fill="#a69439" fill-rule="evenodd" stroke="#000" stroke-width=".271" d="m390.396 210.672-9.224.015c.214-.894 1.15-1.24 2.043-.931.224-.506 1.426-.722 1.956-.291.555-.83 1.11-.65 1.664-.582.219-.415 1.05-.582 1.576.145.606-1.112 1.381-1.132 1.985-.757z"/><path fill="#a69439" stroke="#000" stroke-linecap="round" stroke-width=".271" d="M382.15 206.616a.474.474 0 1 1-.949 0 .474.474 0 1 1 .949 0zm1.27-.117a.372.372 0 1 1-.745 0 .372.372 0 1 1 .745 0z"/><path fill="#a69439" fill-rule="evenodd" stroke="#000" stroke-width=".271" d="M422.14 210.522h-44.272l-.364 2.794 3.5 9.409 5.616 6.345 6.2 3.501 11.524.948 8.898-5.032 6.126-6.856 3.063-7.877z"/><path fill-rule="evenodd" d="M377.139 216.525 400 210.522l-22.788 6.952zm2.663 6.273L400 210.522l-19.858 13.164zm4.341 5.252L400 210.522l-15.277 18.282zm5.66 3.795L400 210.522l-9.427 21.88zm6.507 2.023 3.69-23.346-2.793 23.66zm26.551-17.343L400 210.522l22.788 6.952zm-2.663 6.273L400 210.522l19.858 13.164zm-4.341 5.252L400 210.522l15.277 18.282zm-5.66 3.795L400 210.522l9.427 21.88zm-6.507 2.023L400 210.522l2.793 23.66z"/><path fill="#a69439" fill-rule="evenodd" stroke="#000" stroke-width=".271" d="M407.59 230.924c-.114-.908-.114-1.909-1.43-1.839-.628-1.07-1.495-1.448-2.745-.73-.171-.617-.626-.87-1.342-.788-.412-.736-.548-1.765-2.219-1.167-.298-.812-.713-1.473-1.78-1.285-.209-.82-1.478-1.316-2.307-.38l-5.78-2.539c-1.156-.414-1.653.114-1.722 1.255-.735-.461-1.748-.313-2.218.789-2.118-.538-1.992.428-2.569.992l3.357 3.386 5.78 3.065 5.546.847 5.955.029z"/><path fill="none" stroke="#000" stroke-linecap="round" stroke-width=".271" d="M395.592 226.05c.793-.699 1.826-.29 1.84.612 1.116-1.01 2.594-.308 2.743.467"/><path fill="none" stroke="#000" stroke-width=".271" d="M385.084 226.137c.422-.692.957-1.16 2.072-.467.394-1.73 2.738-1.804 3.24-.934"/><path fill="#a69439" fill-rule="evenodd" stroke="#000" stroke-width=".271" d="m389.63 212.246-.536 16.977h7.513l-.526-16.998-1.476.155h-3.344z"/><path fill-rule="evenodd" d="M392.302 204.687v5.688h3.638l.007-.414-.724-.302c-.021-.284.01-.567.038-.851.236-.287.116-.472 0-.658l.059-2.747-.968-.62z"/><path fill="#a69439" fill-rule="evenodd" d="M394.754 207.815c.112.062.112.041.148.157.03.094.015.222-.063.29-.114.124-.212.09-.405.077-.338-.001-.477.057-.434-.302a.3.3 0 0 1 .04-.15c.05-.133.16-.106.287-.142.155-.033.279.008.427.07m-.447 1.046c.1.01.202.015.299.045.06.03.134.051.163.117.014.074-.023.088-.028.163-.018.17-.237.11-.362.11a.4.4 0 0 1-.23-.052c-.092-.061-.12-.116-.084-.217.031-.102.138-.167.242-.166"/><path fill-rule="evenodd" d="m392.263 200.819-1.238.018c-.046.412-.208.678-.097 1.277.06.325-.287.437-.754.677-.351.18-.263.546-.194.793-.136.237-.227.59.02.639.307.06.572.256.348.967h2.012z"/><path fill="#a69439" fill-rule="evenodd" d="M391.195 203.578c.122 0 .227.03.234.192.01.227.065.29-.162.413-.197.106-.206.078-.393.003-.07-.03-.257-.078-.282-.158-.05-.164-.117-.181.026-.308a.5.5 0 0 1 .354-.135c.07.003.15-.007.223-.007"/><path fill="#a69439" fill-rule="evenodd" stroke="#000" stroke-width=".272" d="m395.494 200.207-.71.876-.148 1.752c.29.382.537.777.574 1.231a1.54 1.54 0 0 0 .685-.82c-.042-.413-.1-.813-.318-1.086.23-.191.384-.433.465-.667-.054-.531-.135-1.041-.548-1.286z"/><path fill-rule="evenodd" d="M400.528 192.258c-.63.174-1.13.024-1.508-.439l1.016-1.709c.206-.108.4-.134.554.088z"/><path fill="#a69439" fill-rule="evenodd" stroke="#000" stroke-width=".272" d="M395.178 205.663c.095-1.21.182-2.338.039-3.692.08-.28.192-.545.175-.874.033-.463.111-.903.35-1.263.053-.292.055-.583-.097-.875-.081-.641-.038-1.283-.02-1.924.233-.116.466-.266.7-.777.79-.415 1.168-.83 1.67-1.244.763-.563 1.166-1.127 1.575-1.69.513-.298.482-.849.486-1.147.238-.276.424-.748-.04-.563-.382.361-.908.528-.97 1.282-.486.418-1.168.67-1.458 1.186-.807.254-1.35.64-1.963.99-.955.102-1.194.475-1.593.622l-.195-.447c.305-.187.377-.55.447-.738a4 4 0 0 0-.738-1.496c-.383-.248-.849-.549-1.322-.311-.914.46-.875.806-.874 1.243 0 .437.472.639.737 1.296-.055.387-.131.76-.29 1.095-.418.057-.922.31-1.186 1.068-.142.412-.267.878-.447 1.322-.154.383-.35.77-.388 1.263-.046.585.096 1.06 1.166 1.458q.514.106.563-.564l-.505-.758c.159-.44.347-.88.408-1.321l.416.117c.058.132.12.353.234.563.143.265.29.526.158.855-.163.407-.49.916-.38 1.205-.237 1.097.082 1.5.388 1.71-.013.453-.103 1.004.04 1.613.356.034.792.067 1.301 0 .138.317.264.634.603.952.405.12.706-.023 1.01-.156z"/><path fill="none" stroke="#000" stroke-width=".218" d="M394.018 195.618c-.32 1.082-.723 2.064-1.744 3.146m2.134-3.261c-.086.948-.558 2.17-1.402 3.119"/><path fill-rule="evenodd" d="M392.573 192.686a.57.57 0 0 0-.302.08 1.52 1.52 0 0 0-.779.669c-.066.205-.126.414-.032.709l.464.618.206.46-.05.52c-.085.222-.165.461-.228.63-.252.04-.682.195-.859.504.398-.365 1.072-.18 1.299.138.293.414.55.692.797.783l.453-.81c-.405.1-.798-.083-1.054-.425a.8.8 0 0 1-.14-.437c.016-.934.186-1.555.452-1.758.15.194.354.202.59.103-.226-.112-.386-.43-.248-.676.14-.248.289-.453.695-.276l-.308-.453-.381-.244c-.2-.073-.396-.136-.575-.135m.017.16c.185 0 .382.072.463.251-.075.287-.836 1.013-1.276.977-.18-.014-.236-.146-.177-.47s.577-.667.813-.735a.7.7 0 0 1 .177-.022zm3.159 3.982c-.233.14-.479.196-.725.248.161.05.307.118.544.086l.18-.334z"/><path fill="none" stroke="#000" stroke-width=".218" d="M395.713 199.061c-.59-.613-1.147-.68-1.539-.577-.333.088-.603.227-.934.152-.358-.082-1.14.056-1.377.411m.017 2.515c.49-.154.545-.484.893-.687.275-.16.7-.314.99-.027.34.338.689 1.014 1.442 1.072"/><path fill-rule="evenodd" d="M393.838 197.371c-.058.265-.047.43.137.462.157-.185.459-.268.836-.233-.481.222-.893.9-.437.912-.461.242-.795.85-.584 1.429.098.27.06.55-.151.824-.216-.145-.431-.053-.646 0 .014-.288.041-.566.15-.838.117-.287.158-.614.042-.88l-.192-.439c.343-.34.593-.786.845-1.237m-1.464 7.471c-.026-1.06.377-1.467.715-1.452.87.303 1-.066 1.341-.243-1.108.018-1.452-.751-1.244-1.74-.092.447-.392.594-.116 1.584-.37.259-.953.058-1.108-.194l.204.457z"/><path fill="none" stroke="#000" stroke-width=".218" d="M393.575 204.896c-.136-.499-.083-1.027-.068-1.526"/><path fill-rule="evenodd" d="M391.124 197.88c.108-.222.188-.541.467-.522.298.02.193.185.22.37-.37-.342-.48.104-.687.152m2.604-1.518c-.199-.107-.374-1.078-.356-1.276.14.055.438.053.59-.147.091-.122.166-.167.186-.313l.063.01-.145.354-.258.248.178.413z"/><path fill="#a69439" stroke="#000" stroke-linecap="round" stroke-width=".272" d="m389.864 205.075 1.323-.175v5.455h-1.323z"/><path fill="#a69439" stroke="#000" stroke-linecap="round" stroke-width=".272" d="m391.16 204.9 1.645.146v5.31h-1.645z"/><path d="M389.052 209.833h6.577l.237.091c.319.123.458.448.479.663h-7.293z"/><path fill="#a69439" stroke="#000" stroke-linecap="round" stroke-width=".272" d="M389.462 210.535h6.84v1.654l-1.635.206h-3.581l-1.624-.185z"/><path fill="none" stroke="#000" stroke-width=".272" d="M394.684 210.535v1.86"/><path fill="none" stroke="#000" stroke-width=".271" d="m394.53 212.404.176 16.762"/><path fill-rule="evenodd" d="m389.63 212.235-.536 16.988h1.981l.186-16.843z"/><path stroke="#000" stroke-width=".271" d="M389.448 210.52h1.634v1.853l-1.634-.165z"/><path fill="#a69439" stroke="#000" stroke-width=".271" d="M390.075 220.328h5.371l2.11-.657v.963l-2.11.657h-5.37z"/><path stroke="#000" stroke-width=".271" d="m390.075 220.328-2.109-.657v.963l2.11.657v-.963z"/><path fill="none" stroke="#000" stroke-width=".271" d="M395.436 220.337v.95"/><path fill="#a69439" fill-rule="evenodd" stroke="#000" stroke-linejoin="round" stroke-width=".271" d="m389.39 219.504 1.78.423h3.43l1.678-.467v-.256l1.285.453-2.146.671h-5.356l-2.088-.671 1.445-.555-.029.402z"/><path fill="#a69439" fill-rule="evenodd" stroke="#000" stroke-width=".271" d="M391.82 217.81v2.187h.492v-1.694h1.078v1.693h.492v-2.186z"/><path fill-rule="evenodd" d="M391.535 213.32c.295-.005.504.088.388.496.456-.198.135-.907-.388-.496m1.488 1.707c.295-.005.505.088.389.496.456-.198.135-.906-.389-.496m-.927 1.786c.142-.258.328-.393.623-.089.056-.494-.718-.57-.623.09zm1.846.127c-.187.228-.394.327-.63-.025-.144.476.603.69.63.025m-1.781-2.554c-.187.228-.394.327-.63-.025-.144.475.604.69.63.025m1.693-1.372c-.187.228-.394.327-.63-.025-.144.475.604.69.63.025m-.361 2.807c.193.223.255.444-.132.616.444.224.783-.476.132-.616m-.803-2.116c.193.223.256.444-.132.616.444.223.783-.477.132-.616m-.849 1.629c.295-.005.505.088.389.496.456-.198.135-.907-.389-.496m-.377 1.553c.193.223.256.444-.132.615.444.224.783-.476.132-.615m2.711-2.471c-.187-.228-.394-.328-.63.025-.144-.476.604-.69.63-.025m1.169.597c.295-.005.505.088.389.496.456-.198.135-.907-.389-.496m.13-1.05c-.187.227-.394.327-.63-.026-.144.476.604.69.63.026m-.375 1.683c.192.223.255.444-.133.616.444.224.783-.476.133-.616m.011 1.614c.295-.005.505.089.39.496.455-.198.134-.906-.39-.495zm.641 1.549c-.187-.228-.393-.327-.629.025-.144-.476.603-.69.63-.025zm.088-5.59c-.187-.228-.394-.328-.63.025-.144-.476.604-.69.63-.025m-.231 11.222c-.295-.005-.504.089-.388.496-.456-.198-.135-.906.388-.496m-.13-1.05c.187.228.394.328.63-.025.144.476-.603.69-.63.025m.376 1.684c-.193.223-.256.444.132.615-.444.224-.783-.476-.132-.615m-.012 1.615c-.295-.006-.505.087-.389.495-.456-.198-.135-.906.389-.496zm-.729-4.043c.187-.227.394-.327.63.026.144-.476-.603-.69-.63-.026m-3.695-.366c.295-.005.504.088.389.496.455-.198.135-.906-.389-.496m1.43 1.825c.295-.005.505.088.389.496.456-.198.135-.907-.389-.496m-.869 1.669c.143-.258.328-.393.623-.09.056-.493-.718-.569-.623.09m1.846.127c-.187.227-.394.327-.63-.026-.144.476.604.69.63.026m-1.781-2.555c-.187.228-.394.328-.63-.025-.144.476.604.69.63.025m1.781-1.401c-.187.228-.394.328-.63-.025-.144.476.604.69.63.025m-.098 2.662c.192.223.255.444-.133.615.444.224.783-.476.133-.615m-1.153-1.942c.192.224.255.444-.133.616.444.224.783-.476.133-.616m-.85 1.629c.295-.005.505.089.389.496.456-.198.135-.906-.389-.496m-.376 1.553c.192.223.255.444-.133.616.444.224.783-.476.133-.616m2.71-2.471c-.187-.228-.393-.327-.629.025-.145-.475.603-.69.63-.025zm-1.397 3.055c.193.223.255.444-.132.616.444.224.783-.476.132-.616m1.485.711c-.187-.228-.394-.328-.63.025-.144-.476.604-.69.63-.025m-2.576.237c.143-.258.328-.393.624-.089.056-.494-.718-.57-.624.09z"/><path fill="#a69439" fill-rule="evenodd" stroke="#000" stroke-width=".271" d="M403.853 231.742c.24-1.322-.325-2.507-1.547-2.16.03-.362-.058-1.188-.992-.876-.108-.545-.433-.908-.847-.993-.7-.106-1.346.121-1.43.555-.242-.183-.632-.16-.934.029-.238-1.288-1.907-1.124-2.073.117-.196-.208-.643-.092-.7.175.01-.592-.543-.801-.993-.73-.075-1.128-1.235-1.242-1.81-.613-.27-.144-.832-.108-1.167.496-.205-.644-1.705-1.187-2.248-.613-.225-.508-2.05-.876-2.16 1.08l3.05 2.294 4.665 1.403 5.16.413z"/><path fill="none" stroke="#000" stroke-width=".271" d="M394.322 227.852c-.353.07-.577.389-.656.679-.968-.438-2.67.138-2.482 2.189m3.036.38c.01 0 .02 0 0 0z"/><path fill="none" stroke="#000" stroke-linecap="round" stroke-width=".271" d="M394.629 231.742c-.328-.99.487-2.339 2.364-1.577.483-.824 1.79-1.084 2.686-.087.602-.98 2.058-1.107 2.205.24"/><path fill-rule="evenodd" d="m399.716 198.453-.348.013.659.608-.852.036-.298-.426-.32.013.092.362-.262.005.208.19-.064.038.013.154q.157.03.336.06l.139.117h.261l-.002-.059c.39.049.836.08 1.319.075l.449.49h.282l.015-.521c.505-.045.663-.124.862-.175v-.205c-.385-.152-.808-.192-1.247-.187z"/><path fill="#a69439" stroke="#000" stroke-linecap="round" stroke-width=".985" d="M400.001 181.255c-16.155 0-29.268 13.112-29.268 29.268s13.113 29.268 29.268 29.268 29.266-13.113 29.266-29.268-13.11-29.268-29.266-29.268zm0 8.046c11.715 0 21.222 9.507 21.222 21.222 0 11.714-9.507 21.221-21.222 21.221-11.714 0-21.224-9.507-21.224-21.221s9.51-21.222 21.224-21.222z"/><path d="M380.62 191.286q.396-.4.926-.545a1.95 1.95 0 0 1 1.05-.002q.522.143.941.56.637.633.649 1.472.011.84-.602 1.455a1.98 1.98 0 0 1-1.954.535 2.13 2.13 0 0 1-.949-.57q-.645-.642-.655-1.47a1.93 1.93 0 0 1 .593-1.435zm.194.172a.9.9 0 0 0-.267.52q-.041.291.14.668.182.375.668.86.51.508.864.678t.653.122a.95.95 0 0 0 .53-.28q.34-.342.25-.84-.09-.495-.817-1.22-.51-.505-.852-.671-.343-.166-.642-.117a.95.95 0 0 0-.527.28m4.432-2.031.526-.378.17.236-.525.379 1.05 1.459q.06.084.117.094t.142-.052l.362-.26.146.204-1.48 1.065-.147-.204.212-.152q.097-.07.109-.132.012-.061-.046-.143l-1.05-1.458-.353.253-.17-.236.352-.254-.06-.083q-.296-.412-.365-.76a1.03 1.03 0 0 1 .055-.63 1.27 1.27 0 0 1 .44-.51q.294-.21.557-.184a.56.56 0 0 1 .417.24q.12.168.1.348a.38.38 0 0 1-.16.28.37.37 0 0 1-.278.071.34.34 0 0 1-.238-.146q-.093-.13-.03-.32.028-.094.003-.13-.022-.03-.07-.026a.3.3 0 0 0-.155.066.4.4 0 0 0-.154.213.5.5 0 0 0 0 .29q.068.227.214.43l.31.43zm2.46-1.526.565-.317.143.254-.565.317.88 1.568q.051.092.107.107.054.016.146-.036l.389-.218.123.22-1.591.892-.123-.219.228-.128q.104-.058.123-.118.018-.06-.03-.147l-.88-1.568-.38.213-.142-.254.38-.213-.051-.09q-.248-.442-.278-.795t.126-.62a1.27 1.27 0 0 1 .494-.457q.315-.177.574-.121a.56.56 0 0 1 .387.284q.102.181.06.358a.38.38 0 0 1-.19.26.37.37 0 0 1-.284.04.34.34 0 0 1-.22-.172q-.078-.138.005-.322.039-.09.018-.127-.018-.033-.066-.035a.3.3 0 0 0-.162.048.4.4 0 0 0-.176.195.5.5 0 0 0-.033.287q.042.234.165.453l.259.461zm1.68-2.426a.43.43 0 0 1 .335-.003.42.42 0 0 1 .241.237.42.42 0 0 1 .002.337.43.43 0 0 1-.235.24.43.43 0 0 1-.34.002.42.42 0 0 1-.24-.235.42.42 0 0 1-.002-.337.43.43 0 0 1 .238-.24zm-.071 1.613 1.014-.485.837 1.976a.17.17 0 0 0 .103.101q.07.022.173-.022l.157-.067.098.232-1.397.591-.098-.231.154-.065q.124-.053.151-.132.027-.078-.033-.22l-.57-1.347a.28.28 0 0 0-.157-.165.3.3 0 0 0-.232.016l-.104.044zm5.404-.143.229.04a1.37 1.37 0 0 1-.314.771q-.268.317-.723.442-.616.17-1.056-.071-.438-.242-.596-.811-.17-.615.131-1.123.3-.508.977-.695.486-.134.799-.009.312.125.388.404a.46.46 0 0 1-.024.353.4.4 0 0 1-.266.2.37.37 0 0 1-.281-.022.33.33 0 0 1-.162-.214.6.6 0 0 1 .023-.325q.024-.083.017-.111-.014-.052-.107-.072a.6.6 0 0 0-.317.018q-.344.094-.437.355-.126.345.036.931.161.585.431.767c.27.182.378.152.593.093a.8.8 0 0 0 .433-.303q.178-.232.226-.618m1.491-3.36a.43.43 0 0 1 .325.085q.147.11.172.291a.42.42 0 0 1-.086.327.43.43 0 0 1-.29.17.43.43 0 0 1-.327-.086.42.42 0 0 1-.171-.29.42.42 0 0 1 .085-.326.43.43 0 0 1 .292-.17zm-.486 1.54 1.105-.206.295 2.126a.17.17 0 0 0 .073.124q.061.04.174.024l.168-.023.035.248-1.503.209-.034-.249.166-.023q.134-.018.18-.087t.025-.222l-.202-1.449a.28.28 0 0 0-.108-.2.3.3 0 0 0-.228-.045l-.112.016zm5.711 1.866.114.194q-.165.113-.295.157a.9.9 0 0 1-.288.044.65.65 0 0 1-.375-.098q-.143-.1-.262-.37-.276.272-.494.371-.218.1-.493.1-.381 0-.594-.174a.55.55 0 0 1-.215-.445q0-.408.393-.654.315-.195 1.384-.392v-.364a.47.47 0 0 0-.145-.352.53.53 0 0 0-.383-.135.65.65 0 0 0-.324.079q-.094.051-.094.102 0 .027.035.081.076.121.076.24a.32.32 0 0 1-.1.245.38.38 0 0 1-.266.093.4.4 0 0 1-.286-.1.34.34 0 0 1-.109-.26q0-.262.282-.463.354-.249.88-.25.397 0 .704.123a.66.66 0 0 1 .32.273.9.9 0 0 1 .125.482l.002 1.282q0 .146.055.21a.18.18 0 0 0 .148.065q.078 0 .205-.084m-1.125-1.032q-.577.08-.78.243a.53.53 0 0 0-.203.431q0 .19.096.29a.35.35 0 0 0 .269.1.58.58 0 0 0 .443-.192q.177-.191.176-.524zm2.513-2.51 1.18.096-.47 3.561a.2.2 0 0 0 .04.16.26.26 0 0 0 .17.078l.158.02-.033.25-1.506-.2.032-.248.172.022q.118.015.183-.04.066-.055.083-.183l.387-2.925a.3.3 0 0 0-.047-.22.28.28 0 0 0-.194-.1l-.187-.025zm7.543 2.228.36-.244.18.068-.467 1.298-.227-.087q.034-.621-.187-1.022a1.16 1.16 0 0 0-.614-.549q-.336-.127-.616-.024a.6.6 0 0 0-.376.358.53.53 0 0 0-.022.309.7.7 0 0 0 .186.318q.152.159.58.432.5.319.672.488.272.27.345.574t-.059.65q-.196.516-.669.69-.57.208-1.203-.033a1.73 1.73 0 0 1-.91-.81l-.435.256-.185-.07.525-1.382.22.083q-.12 1.31.893 1.693.413.157.716.053a.64.64 0 0 0 .41-.388.58.58 0 0 0 .026-.373.74.74 0 0 0-.23-.337q-.1-.09-.521-.362-.567-.37-.775-.616a1.05 1.05 0 0 1-.253-.503 1.07 1.07 0 0 1 .072-.56q.193-.51.657-.702t1.04.027q.552.21.867.765m3.118 4.394-1.53-.898q-.261.463-.211.784a.65.65 0 0 0 .33.487.8.8 0 0 0 .444.11q.244-.005.606-.188l.108.204q-.403.233-.746.234a1.4 1.4 0 0 1-.71-.216q-.536-.315-.675-.834-.138-.52.16-1.03.3-.51.834-.656a1.27 1.27 0 0 1 1.017.138q.336.197.496.475.16.279.139.622-.022.342-.262.768m-1.406-1.108.728.428q.103.06.177.035t.154-.16q.158-.27.122-.49a.45.45 0 0 0-.228-.332.44.44 0 0 0-.463-.003q-.238.129-.49.522m4.062 4.38-.037.221a1.2 1.2 0 0 1-.328-.068.9.9 0 0 1-.248-.15.65.65 0 0 1-.227-.315q-.047-.166.036-.453-.386.035-.617-.029a1.2 1.2 0 0 1-.444-.24q-.293-.24-.345-.513a.55.55 0 0 1 .12-.479q.26-.315.72-.251.368.052 1.314.583l.233-.28a.47.47 0 0 0 .114-.363.53.53 0 0 0-.208-.35.65.65 0 0 0-.3-.145q-.105-.021-.138.018-.017.02-.024.085a.45.45 0 0 1-.095.233.32.32 0 0 1-.233.125.38.38 0 0 1-.265-.1.4.4 0 0 1-.156-.26.34.34 0 0 1 .083-.269q.166-.202.513-.175.43.035.836.37.305.254.463.545a.66.66 0 0 1 .072.415.9.9 0 0 1-.213.45l-.818.987q-.093.112-.093.197 0 .084.073.144.06.05.212.066zm-.206-1.513q-.495-.308-.755-.312a.53.53 0 0 0-.432.201q-.12.145-.111.285a.35.35 0 0 0 .142.25.58.58 0 0 0 .464.135q.259-.035.47-.29zm3.537-.321.846.828-2.64 2.436a.2.2 0 0 0-.07.15q0 .082.08.168l.108.117-.185.17-1.03-1.116.184-.17.118.126q.08.087.166.087t.181-.088l2.168-2a.3.3 0 0 0 .105-.2.28.28 0 0 0-.085-.2l-.128-.14zm-42.117 20.806.39 2.389q.092.555-.12.92a.83.83 0 0 1-.607.427.8.8 0 0 1-.628-.158q-.282-.216-.498-.702 0 .691-.213 1.018a.85.85 0 0 1-.601.39.92.92 0 0 1-.624-.106q-.2-.115-.394-.451a2.4 2.4 0 0 1-.275-.823l-.37-2.259.248-.04.06.362q.015.093.079.132a.28.28 0 0 0 .194.033l3.05-.5a.13.13 0 0 0 .101-.077q.033-.067.01-.208l-.05-.307zm-1.554 1.704.073.444q.075.459.3.624.223.166.665.093.384-.062.515-.278.132-.216.045-.746-.041-.253-.098-.313-.056-.06-.176-.041zm-.245.04-1.433.234a.27.27 0 0 0-.162.076.16.16 0 0 0-.037.14l.083.512q.062.376.302.556t.637.116q.415-.067.598-.333.182-.265.11-.702zm2.879 3.381a.43.43 0 0 1-.027.335.42.42 0 0 1-.257.219.42.42 0 0 1-.336-.028.43.43 0 0 1-.218-.256.43.43 0 0 1 .028-.338.42.42 0 0 1 .256-.218.42.42 0 0 1 .336.028.43.43 0 0 1 .218.258m-1.6-.213.393 1.053-2.042.658a.17.17 0 0 0-.11.093q-.03.067.006.175l.052.162-.238.077-.465-1.444.239-.077.05.16q.043.128.118.162t.223-.014l1.392-.448a.28.28 0 0 0 .179-.141.3.3 0 0 0 .004-.233l-.035-.108zm-.542 4.875-.228.105-.742-1.601.228-.106.092.199q.057.122.13.156.075.034.155-.003l1.357-.629q.165-.075.205-.185a.3.3 0 0 0-.021-.245l-.06-.13.215-.1.506.956-.747.346q.414-.087.714.032.3.12.423.387.105.227.045.416a.45.45 0 0 1-.25.277.42.42 0 0 1-.309.032.32.32 0 0 1-.205-.177.3.3 0 0 1-.006-.243.34.34 0 0 1 .186-.19.4.4 0 0 1 .179-.031.2.2 0 0 0 .076-.009q.034-.015.043-.04.008-.022-.007-.057-.041-.087-.193-.145-.234-.089-.622-.043a2.4 2.4 0 0 0-.73.205l-.495.23a.2.2 0 0 0-.11.107.2.2 0 0 0 .016.15zm3.711 5.815-.204.145-.88-1.239.205-.145.091.128q.083.116.163.13.08.015.176-.053l.896-.636q.249-.175.295-.363a.44.44 0 0 0-.083-.37.6.6 0 0 0-.249-.208.65.65 0 0 0-.355-.025.86.86 0 0 0-.364.143l-.808.573q-.08.055-.09.13a.2.2 0 0 0 .043.148l.12.17-.205.145-.897-1.266.204-.145.1.14q.081.116.147.128.084.016.175-.048l.929-.658q.222-.159.267-.356a.44.44 0 0 0-.075-.367.57.57 0 0 0-.242-.197.7.7 0 0 0-.349-.044.7.7 0 0 0-.319.106l-.808.573q-.123.087-.136.163-.015.1.062.207l.085.122-.204.145-.903-1.273.205-.145.103.145q.083.117.158.132.076.015.178-.059l1.24-.879a.3.3 0 0 0 .11-.126.25.25 0 0 0 .005-.154.8.8 0 0 0-.127-.221l.198-.14.649.816a3.5 3.5 0 0 1-.41.387q.418.02.663.14t.407.348a.8.8 0 0 1 .166.497.9.9 0 0 1-.206.505q.423.014.684.138.26.126.42.35.22.312.153.632-.07.321-.433.578l-.987.7q-.1.072-.113.148t.055.171zm3.94-1.436a.43.43 0 0 1 .128.31.42.42 0 0 1-.13.312.42.42 0 0 1-.311.128.43.43 0 0 1-.31-.129.43.43 0 0 1-.13-.313q0-.183.13-.311a.42.42 0 0 1 .311-.128q.183 0 .312.131m-1.522.537.829.76-1.52 1.514a.17.17 0 0 0-.056.133q.005.074.086.153l.12.12-.178.178-1.07-1.075.177-.177.118.118q.096.096.179.091.083-.004.192-.113l1.036-1.032a.28.28 0 0 0 .095-.207.3.3 0 0 0-.102-.21l-.08-.08zm3.034 5.574-.152.2-1.21-.92.152-.199.126.096q.102.077.19.063.09-.014.164-.113l.662-.873q.17-.224.159-.42a.42.42 0 0 0-.177-.322.57.57 0 0 0-.496-.11q-.27.06-.516.385l-.511.672q-.076.1-.064.19t.09.15l.153.116-.151.2-1.256-.954.152-.2.163.124q.095.072.183.057.087-.015.162-.113l.91-1.198a.26.26 0 0 0 .054-.217.34.34 0 0 0-.137-.2l-.086-.066.142-.187.873.591a4 4 0 0 1-.266.493q.357-.104.647-.071t.511.202q.3.228.323.56.02.33-.25.687l-.709.933q-.081.108-.068.193.014.085.12.166zm3.893-.438q.468-.19.749-.04.143.075.185.204a.32.32 0 0 1-.028.26.3.3 0 0 1-.164.152.25.25 0 0 1-.204-.017q-.14-.075-.123-.257.01-.11-.043-.139-.067-.034-.255.045.12.397-.033.685a.8.8 0 0 1-.336.342.93.93 0 0 1-.521.093 1.8 1.8 0 0 1-.674-.218l-.252-.14q-.285-.15-.415-.145-.133.003-.18.093a.14.14 0 0 0 .002.151q.055.098.24.194l.223.109q.365.168.533.257.555.293.69.566a.58.58 0 0 1-.014.551.74.74 0 0 1-.534.405q-.436.087-1.198-.316-.65-.342-.832-.632-.184-.288-.076-.491a.32.32 0 0 1 .23-.163q.162-.036.569.072a.8.8 0 0 1-.27-.35.44.44 0 0 1 .037-.36.5.5 0 0 1 .237-.231q.15-.068.428-.033a1 1 0 0 1-.18-.459.74.74 0 0 1 .087-.433.8.8 0 0 1 .337-.345.93.93 0 0 1 .529-.093q.31.025.673.216a1.9 1.9 0 0 1 .584.467zm-.708-.264q-.165-.087-.364.004-.2.092-.352.38-.148.28-.11.49a.4.4 0 0 0 .21.299.4.4 0 0 0 .366-.002q.2-.09.346-.366.148-.279.11-.498a.4.4 0 0 0-.206-.307m-.405 3.03q.075-.14-.05-.288-.083-.102-.452-.297-.669-.354-.91-.365-.24-.011-.313.125-.068.129.036.295t.525.389q.546.288.854.29.233-.003.31-.148zm3.007-3.452 1.15.32-.62 1.865q.365-.231.62-.276a1.06 1.06 0 0 1 .516.042q.358.12.475.4.131.323-.021.782l-.379 1.136q-.039.119-.003.191.036.074.137.107l.167.056-.08.238-1.446-.482.08-.238.155.052q.131.043.193.01a.26.26 0 0 0 .124-.158l.372-1.116a.58.58 0 0 0-.002-.426.44.44 0 0 0-.277-.25.56.56 0 0 0-.482.064q-.24.144-.357.493l-.296.888q-.04.115-.002.19.036.075.138.109l.174.058-.079.238-1.49-.496.08-.239.207.07q.11.036.186-.004a.25.25 0 0 0 .112-.15l.94-2.82a.26.26 0 0 0-.015-.219.32.32 0 0 0-.185-.14l-.171-.057zm6.09 5.276.082.21a1.2 1.2 0 0 1-.316.108.9.9 0 0 1-.29-.002.65.65 0 0 1-.356-.156q-.125-.12-.2-.408-.315.227-.546.29a1.2 1.2 0 0 1-.503.02q-.375-.06-.56-.266a.55.55 0 0 1-.14-.473q.063-.402.49-.584.343-.142 1.429-.167l.057-.36a.47.47 0 0 0-.087-.37.53.53 0 0 0-.357-.195.65.65 0 0 0-.332.027q-.1.036-.11.086a.2.2 0 0 0 .023.086q.056.131.037.249a.32.32 0 0 1-.137.226.38.38 0 0 1-.278.05.4.4 0 0 1-.267-.145.34.34 0 0 1-.066-.274q.04-.258.352-.412.388-.19.908-.107.39.06.676.232a.66.66 0 0 1 .273.32.9.9 0 0 1 .046.496l-.2 1.266q-.022.144.02.216a.18.18 0 0 0 .137.087q.078.013.216-.05zm-.947-1.197q-.582-.013-.81.117a.53.53 0 0 0-.268.394q-.03.186.05.301a.35.35 0 0 0 .25.142.58.58 0 0 0 .468-.12q.204-.162.256-.49zm7.177 1.244.009.25-1.519.053-.008-.251.156-.005q.143-.006.199-.064.056-.06.052-.177l-.038-1.098q-.01-.305-.14-.446a.44.44 0 0 0-.355-.134.6.6 0 0 0-.311.093.65.65 0 0 0-.216.283.86.86 0 0 0-.082.382l.035.99q.003.098.059.147a.2.2 0 0 0 .147.046l.208-.007.008.25-1.55.054-.01-.25.173-.007q.14-.004.188-.052.06-.062.056-.172l-.04-1.139q-.008-.271-.149-.418a.44.44 0 0 0-.348-.14.57.57 0 0 0-.297.094.7.7 0 0 0-.229.267.7.7 0 0 0-.087.325l.034.99q.005.15.06.203.076.067.208.063l.149-.005.008.25-1.559.054-.008-.25.178-.007q.142-.005.196-.06.053-.053.05-.18l-.053-1.519a.3.3 0 0 0-.045-.162.25.25 0 0 0-.126-.089.8.8 0 0 0-.254-.015l-.009-.243 1.04-.092q.068.256.097.555.248-.338.482-.477t.515-.148a.8.8 0 0 1 .505.135.9.9 0 0 1 .309.45q.245-.346.492-.495t.522-.159q.384-.012.613.22.229.234.245.68l.041 1.208q.004.125.061.176.058.053.174.048zm1.392.873-.118-.142q.29-.251.39-.46.102-.207.076-.34-.015-.08-.082-.066l-.048.017a.45.45 0 0 1-.457-.038.46.46 0 0 1-.121-.645.47.47 0 0 1 .307-.199.53.53 0 0 1 .438.113.7.7 0 0 1 .263.45q.061.317-.097.664t-.55.646zm4.325-6.598 2.824 2.66q.12.113.211.13.09.02.205-.03l.133-.06.102.23-1.712.76-.102-.229.16-.071q.19-.085.243-.158.053-.075.023-.143a.4.4 0 0 0-.086-.113l-.584-.55-1.361.606.004.368q.004.228.046.322a.36.36 0 0 0 .234.208.53.53 0 0 0 .367-.044l.116-.052.102.23-1.383.615-.102-.23.079-.034a.4.4 0 0 0 .197-.189.86.86 0 0 0 .087-.402l-.079-3.701zm.014 1.099.035 1.647 1.16-.516zm2.114-2.076.968-.681 1.918 3.037q.052.081.134.095t.18-.048l.135-.085.134.212-1.285.812-.134-.213.146-.092q.1-.063.116-.148.015-.084-.054-.194l-1.576-2.494q-.073-.117-.177-.139a.28.28 0 0 0-.213.047l-.16.101zm6.508-.242.211.077a1.2 1.2 0 0 1-.128.309.9.9 0 0 1-.193.217.65.65 0 0 1-.352.163q-.173.015-.439-.119-.038.386-.143.601a1.2 1.2 0 0 1-.318.391q-.293.243-.569.244a.55.55 0 0 1-.448-.207q-.26-.314-.113-.754.12-.352.818-1.183l-.232-.28a.47.47 0 0 0-.335-.18.53.53 0 0 0-.382.139.65.65 0 0 0-.2.267q-.04.1-.007.14.017.02.079.039.135.045.211.137a.32.32 0 0 1 .079.252.38.38 0 0 1-.146.242.4.4 0 0 1-.285.104.34.34 0 0 1-.25-.131q-.166-.202-.076-.537.115-.416.52-.752a1.9 1.9 0 0 1 .621-.354.66.66 0 0 1 .421.007.9.9 0 0 1 .402.293l.818.987q.093.112.176.128a.18.18 0 0 0 .155-.045.4.4 0 0 0 .105-.195m-1.524-.08q-.395.429-.448.684a.53.53 0 0 0 .118.462q.12.145.259.162a.35.35 0 0 0 .271-.093.58.58 0 0 0 .22-.431q.014-.261-.198-.516zm-.458-3.094.723-.91 1.406 1.234a1.3 1.3 0 0 1-.004-.562 1 1 0 0 1 .23-.432 1 1 0 0 1 .792-.355q.48.001.942.408.489.429.544.96a1.2 1.2 0 0 1-.312.953q-.194.22-.437.322a1.2 1.2 0 0 1-.535.085q.058.22.06.631l-.164.06a5 5 0 0 0-.69-.74l-1.752-1.538a.7.7 0 0 0-.247-.161.24.24 0 0 0-.163.006q-.051.023-.208.2zm2.43-.17a.46.46 0 0 0-.113.291.66.66 0 0 0 .1.362q.107.188.434.474.444.39.725.432t.441-.14q.166-.19.086-.5-.079-.31-.491-.671t-.715-.4q-.301-.036-.468.152zm4.722-3.262.225.007q.009.2-.025.334a.9.9 0 0 1-.116.266.65.65 0 0 1-.283.265q-.16.069-.454.025.085.378.052.615a1.2 1.2 0 0 1-.18.47q-.203.323-.464.41a.55.55 0 0 1-.49-.056q-.345-.218-.344-.681.004-.371.408-1.38l-.309-.193a.47.47 0 0 0-.374-.067.53.53 0 0 0-.32.252.65.65 0 0 0-.105.316q-.007.108.036.135.023.015.087.013a.45.45 0 0 1 .244.064.32.32 0 0 1 .154.214.38.38 0 0 1-.064.276.4.4 0 0 1-.238.189.34.34 0 0 1-.278-.048q-.22-.138-.24-.485-.021-.432.258-.877.211-.335.48-.53a.66.66 0 0 1 .402-.125.9.9 0 0 1 .474.152l1.085.682q.123.078.207.066a.18.18 0 0 0 .134-.09q.042-.067.038-.22zm-1.472.4q-.241.531-.212.79.03.26.256.402.16.101.297.073a.35.35 0 0 0 .229-.173.58.58 0 0 0 .074-.478q-.068-.251-.35-.428l-.294-.185zm3.959-6.111.234.09-.547 1.418-.234-.09.056-.146q.052-.135.02-.208-.033-.076-.143-.118l-1.025-.395q-.285-.11-.466-.045a.44.44 0 0 0-.261.274.6.6 0 0 0-.037.323q.03.151.176.31.147.157.32.224l.924.356q.09.035.158.003a.2.2 0 0 0 .1-.117l.075-.194.234.09-.558 1.448-.234-.09.062-.162q.05-.13.025-.192-.033-.08-.136-.12l-1.063-.41q-.254-.096-.444-.026a.44.44 0 0 0-.264.266.57.57 0 0 0-.03.31q.027.16.156.315a.7.7 0 0 0 .264.208l.924.356q.142.055.211.024a.28.28 0 0 0 .14-.166l.053-.139.234.09-.561 1.456-.234-.09.064-.167q.051-.133.022-.204-.03-.07-.148-.116l-1.417-.546a.3.3 0 0 0-.167-.023.25.25 0 0 0-.13.081.8.8 0 0 0-.115.228l-.226-.087.322-.992q.262.037.549.128-.214-.36-.25-.63a1.06 1.06 0 0 1 .065-.532.8.8 0 0 1 .322-.413.9.9 0 0 1 .535-.107q-.223-.36-.263-.647a1.1 1.1 0 0 1 .059-.543q.138-.357.441-.477.307-.12.722.04l1.128.436q.116.045.186.012.071-.032.112-.14zm.6-3.885.211-.078q.084.181.103.318a1 1 0 0 1-.007.29.65.65 0 0 1-.162.353q-.122.124-.411.194.22.318.28.55t.011.504q-.066.375-.275.554a.55.55 0 0 1-.476.133q-.402-.07-.575-.501-.137-.345-.143-1.431l-.359-.063a.47.47 0 0 0-.371.08.53.53 0 0 0-.2.354.65.65 0 0 0 .02.332q.034.102.085.11.026.006.086-.02a.45.45 0 0 1 .25-.032.32.32 0 0 1 .222.14q.075.115.046.28a.4.4 0 0 1-.15.264.34.34 0 0 1-.275.06q-.258-.046-.405-.358-.183-.391-.092-.91a1.9 1.9 0 0 1 .244-.672.66.66 0 0 1 .325-.267.9.9 0 0 1 .496-.038l1.263.222q.143.026.216-.016a.18.18 0 0 0 .09-.135q.013-.078-.047-.217m-1.212.927q-.024.582.102.811a.53.53 0 0 0 .389.275q.186.034.302-.044a.35.35 0 0 0 .146-.247.58.58 0 0 0-.112-.47q-.158-.208-.485-.265z" font-family="Century Schoolbook" font-size="67.319" font-weight="700" style="text-align:center;line-height:125%;-inkscape-font-specification:Century Schoolbook Bold" text-anchor="middle"/><path d="m422.954 196.066-.846 1.015.705 1.118-1.227-.49-.846 1.015.087-1.319-1.227-.49 1.281-.325.088-1.318.704 1.118zm-45.908 0 .846 1.015-.705 1.118 1.227-.49.846 1.015-.087-1.319 1.227-.49-1.281-.325-.088-1.318-.704 1.118z"/><path fill="#a69439" d="m400 77.043 1.28 3.939h4.142l-3.35 2.435 1.279 3.939L400 84.92l-3.351 2.435 1.28-3.94-3.351-2.434h4.142l1.28-3.94zm12.499.586.906 4.042 4.123.388-3.564 2.11.906 4.042-3.109-2.738-3.564 2.11 1.643-3.802-3.108-2.738 4.124.388zm12.389 1.754.523 4.11 4.07.772-3.746 1.767.522 4.109-2.838-3.017-3.746 1.767 1.992-3.632-2.838-3.016 4.069.772zm12.171 2.907.136 4.14 3.979 1.15-3.895 1.409.135 4.14-2.543-3.27-3.895 1.409 2.323-3.43-2.543-3.269 3.98 1.15zm11.844 4.034-.252 4.134 3.854 1.517-4.01 1.038-.252 4.134-2.226-3.492-4.01 1.037 2.634-3.196-2.226-3.493 3.854 1.517zm11.415 5.125-.638 4.092 3.695 1.872-4.09.658-.638 4.092-1.89-3.686-4.088.657 2.921-2.935-1.889-3.686 3.695 1.871zm10.885 6.171-1.018 4.015 3.503 2.21-4.133.271-1.019 4.015-1.536-3.847-4.133.272 3.184-2.65-1.535-3.846 3.503 2.209zm10.26 7.163-1.39 3.902 3.28 2.528-4.14-.116-1.39 3.901-1.169-3.973-4.14-.117 3.418-2.34-1.169-3.973 3.281 2.528zm9.543 8.093-1.75 3.754 3.03 2.825-4.11-.504-1.75 3.754-.792-4.065-4.111-.504 3.622-2.01-.791-4.065 3.03 2.824zm8.744 8.951-2.094 3.574 2.753 3.095-4.046-.886-2.094 3.574-.407-4.122-4.046-.886 3.794-1.662-.407-4.121 2.752 3.095zm7.867 9.73-2.419 3.362 2.45 3.34-3.945-1.261-2.419 3.362-.02-4.142-3.945-1.261 3.933-1.3-.019-4.141 2.45 3.34zm6.921 10.424-2.723 3.121 2.127 3.555-3.81-1.626-2.723 3.121.368-4.125-3.81-1.625 4.038-.925.369-4.126 2.127 3.554zm5.915 11.027-3.003 2.852 1.785 3.738-3.641-1.975-3.004 2.852.753-4.073-3.64-1.975 4.106-.542.753-4.073 1.785 3.738zm4.857 11.532-3.258 2.558 1.427 3.889-3.44-2.307-3.257 2.558 1.13-3.984-3.439-2.308 4.14-.155 1.13-3.985 1.427 3.889zm3.755 11.935-3.483 2.243 1.057 4.005-3.21-2.62-3.482 2.243 1.5-3.861-3.21-2.62 4.136.233 1.5-3.86 1.056 4.004zm2.621 12.235-3.677 1.907.677 4.086-2.95-2.908-3.677 1.907 1.854-3.704-2.95-2.908 4.096.619 1.854-3.704.677 4.086 4.096.62zm1.464 12.427-3.84 1.554.291 4.132-2.664-3.172-3.84 1.554 2.193-3.514-2.664-3.171 4.02 1 2.193-3.514.291 4.131zm.294 12.509-3.968 1.188-.098 4.14-2.355-3.406-3.968 1.187 2.512-3.293-2.356-3.407 3.909 1.372 2.512-3.293-.097 4.14zm-.879 12.482-4.062.811-.484 4.114-2.027-3.613-4.062.81 2.81-3.043-2.026-3.612 3.763 1.731 2.81-3.043-.485 4.113zm-2.044 12.345-4.12.427-.867 4.05-1.68-3.786-4.12.426 3.083-2.767-1.679-3.786 3.584 2.076 3.082-2.767-.867 4.05zm-3.191 12.099-4.142.04-1.242 3.95-1.318-3.927-4.141.04 3.327-2.467-1.316-3.927 3.373 2.403 3.328-2.466-1.242 3.951zm-4.31 11.748-4.127-.35-1.607 3.818-.944-4.033-4.127-.35 3.544-2.143-.943-4.033 3.134 2.708 3.544-2.144-1.607 3.818 3.134 2.708zm-5.39 11.291-4.077-.734-1.957 3.65-.562-4.103-4.077-.734 3.73-1.803-.562-4.103 2.867 2.99 3.729-1.803-1.958 3.65zm-6.425 10.738-3.99-1.113-2.29 3.451-.175-4.138-3.99-1.113 3.881-1.445-.174-4.138 2.574 3.245 3.881-1.445-2.29 3.45zm-7.401 10.088-3.868-1.48-2.604 3.22.213-4.136-3.868-1.481 4-1.076.213-4.136 2.26 3.472 3.999-1.076-2.604 3.222zm-8.314 9.352-3.712-1.837-2.895 2.963.6-4.098-3.712-1.837 4.083-.696.6-4.099 1.923 3.668 4.083-.696-2.894 2.964zm-9.153 8.531-3.524-2.176-3.159 2.68.98-4.025-3.523-2.176 4.13-.311.98-4.024 1.573 3.832 4.13-.31-3.159 2.678 1.572 3.833zm-9.912 7.638-3.304-2.497-3.396 2.372 1.353-3.915-3.305-2.497 4.141.077 1.354-3.914 1.206 3.962 4.141.078-3.395 2.371zm-10.583 6.676-3.056-2.796-3.603 2.043 1.713-3.77-3.056-2.796 4.116.465 1.714-3.77.83 4.057 4.116.465-3.603 2.043zm-11.162 5.655-2.781-3.07-3.778 1.697 2.059-3.593-2.781-3.07 4.054.848 2.06-3.593.446 4.118 4.054.848-3.778 1.697zm-11.642 4.585-2.482-3.316-3.92 1.335 2.386-3.385-2.481-3.316 3.957 1.224 2.387-3.385.059 4.142 3.956 1.224-3.92 1.335zm-12.02 3.475-2.16-3.534-4.03.962 2.694-3.146-2.16-3.534 3.825 1.589 2.693-3.147-.33 4.129 3.826 1.59-4.029.962zm-12.294 2.334-1.82-3.72-4.1.58 2.976-2.88-1.82-3.721 3.66 1.94 2.976-2.88-.715 4.08 3.66 1.94-4.102.581zm-12.457 1.173-1.464-3.875-4.137.194 3.233-2.59-1.464-3.874 3.462 2.274 3.233-2.589-1.093 3.995 3.461 2.275-4.137.195z"/><path fill="none" stroke="#a69439" stroke-width="1.6" d="M400 51.925V72.3m11.328-13.143-.984 13.444m22.902-10.182-2.931 13.158m24.141-6.739-4.816 12.591m24.865-3.153-6.598 11.756m25.059.501-8.24 10.67m24.719 4.145-9.704 9.357m23.851 7.699-10.963 7.844m22.476 11.09-11.988 6.164m20.622 14.244L530.98 166.1m18.33 17.095-13.257 2.448m15.644 19.582-13.472.493m12.627 21.651-13.4-1.475m9.339 23.259-13.042-3.41m5.854 24.371-12.407-5.272m2.242 24.963-11.507-7.022m-1.415 25.023-10.362-8.623m-5.044 24.551-8.997-10.04m-8.565 23.556-7.438-11.243m-11.903 22.057-5.723-12.206m-14.987 20.088-3.885-12.909M421.86 360.73l-1.964-13.337m3.196-293.778-2.967 20.158m25.566-15.123-5.87 19.51m27.496-11.24-8.647 18.45m28.838-7.118-11.242 16.993m29.568-2.842-13.596 15.174m29.667 1.493-15.661 13.034m29.133 5.797-17.392 10.615m27.979 9.976-18.752 7.97m26.228 13.944-19.712 5.154m23.918 17.614-20.253 2.229m21.099 20.909-20.361-.744m17.829 23.759-20.036-3.7m14.18 26.101-19.284-6.579m10.23 27.888-18.121-9.316m6.059 29.08-16.571-11.855m1.761 29.652-14.669-14.141m-2.575 29.593-12.453-16.127m-6.856 28.902-9.973-17.767m-10.992 27.596-7.279-19.03m-14.892 25.701-4.43-19.888m-18.477 23.26-1.488-20.32"/><path fill="#a69439" d="m387.501 77.629-.906 4.042-4.123.388 3.564 2.11-.905 4.042 3.108-2.738 3.564 2.11-1.643-3.802 3.108-2.738-4.124.388zm-12.389 1.754-.523 4.11-4.07.772 3.746 1.767-.522 4.109 2.838-3.017 3.746 1.767-1.992-3.632 2.838-3.016-4.069.772zm-12.171 2.907-.136 4.14-3.979 1.15 3.895 1.409-.135 4.14 2.543-3.27 3.895 1.409-2.323-3.43 2.543-3.269-3.98 1.15zm-11.844 4.034.252 4.134-3.854 1.517 4.01 1.038.252 4.134 2.226-3.492 4.01 1.037-2.634-3.196 2.226-3.493-3.854 1.517zm-11.415 5.125.638 4.092-3.695 1.872 4.09.658.638 4.092 1.89-3.686 4.089.657-2.922-2.935 1.889-3.686-3.695 1.871zm-10.885 6.171 1.018 4.015-3.503 2.21 4.133.271 1.019 4.015 1.536-3.847 4.133.272-3.184-2.65 1.535-3.846-3.503 2.209zm-10.26 7.163 1.39 3.902-3.28 2.528 4.14-.116 1.39 3.901 1.169-3.973 4.14-.117-3.418-2.34 1.169-3.973-3.281 2.528zm-9.543 8.093 1.75 3.754-3.03 2.825 4.11-.504 1.75 3.754.792-4.065 4.111-.504-3.622-2.01.791-4.065-3.03 2.824zm-8.744 8.951 2.094 3.574-2.753 3.095 4.046-.886 2.094 3.574.407-4.122 4.046-.886-3.794-1.662.407-4.121-2.752 3.095zm-7.867 9.73 2.419 3.362-2.45 3.34 3.945-1.261 2.419 3.362.02-4.142 3.945-1.261-3.933-1.3.019-4.141-2.45 3.34zm-6.921 10.424 2.723 3.121-2.127 3.555 3.81-1.626 2.723 3.121-.368-4.125 3.81-1.625-4.038-.925-.369-4.126-2.127 3.554zm-5.915 11.027 3.003 2.852-1.785 3.738 3.641-1.975 3.004 2.852-.753-4.073 3.64-1.975-4.106-.542-.753-4.073-1.785 3.738zm-4.857 11.532 3.258 2.558-1.427 3.889 3.44-2.307 3.257 2.558-1.13-3.984 3.439-2.308-4.14-.155-1.13-3.985-1.427 3.889zm-3.755 11.935 3.483 2.243-1.057 4.005 3.21-2.62 3.482 2.243-1.5-3.861 3.21-2.62-4.136.233-1.5-3.86-1.056 4.004zm-2.621 12.235 3.677 1.907-.676 4.086 2.949-2.908 3.677 1.907-1.854-3.704 2.95-2.908-4.096.619-1.854-3.704-.677 4.086-4.096.62zm-1.464 12.427 3.84 1.554-.291 4.132 2.664-3.172 3.84 1.554-2.193-3.514 2.664-3.171-4.02 1-2.193-3.514-.291 4.131zm-.294 12.509 3.969 1.188.097 4.14 2.355-3.406 3.968 1.187-2.512-3.293 2.356-3.407-3.909 1.372-2.512-3.293.097 4.14zm.879 12.482 4.062.811.484 4.114 2.027-3.613 4.062.81-2.81-3.043 2.026-3.612-3.763 1.731-2.81-3.043.485 4.113zm2.044 12.345 4.12.427.867 4.05 1.68-3.786 4.12.426-3.083-2.767 1.679-3.786-3.584 2.076-3.082-2.767.867 4.05zm3.191 12.099 4.142.04 1.242 3.95 1.318-3.927 4.141.04-3.327-2.467 1.316-3.927-3.373 2.403-3.328-2.466 1.242 3.951zm4.31 11.748 4.127-.35 1.607 3.818.944-4.033 4.127-.35-3.544-2.143.943-4.033-3.134 2.708-3.544-2.144 1.607 3.818-3.134 2.708zm5.39 11.291 4.077-.734 1.957 3.65.562-4.103 4.077-.734-3.73-1.803.562-4.103-2.867 2.99-3.729-1.803 1.958 3.65zm6.425 10.738 3.99-1.113 2.29 3.451.175-4.138 3.99-1.113-3.881-1.445.174-4.138-2.574 3.245-3.881-1.445 2.29 3.45zm7.401 10.088 3.868-1.48 2.604 3.22-.213-4.136 3.868-1.481-4-1.076-.213-4.136-2.26 3.472-3.999-1.076 2.604 3.222zm8.314 9.352 3.712-1.837 2.895 2.963-.6-4.098 3.712-1.837-4.083-.696-.6-4.099-1.923 3.668-4.083-.696 2.894 2.964zm9.153 8.531 3.524-2.176 3.159 2.68-.98-4.025 3.523-2.176-4.13-.311-.98-4.024-1.573 3.832-4.13-.31 3.159 2.678-1.572 3.833zm9.912 7.638 3.304-2.497 3.396 2.372-1.353-3.915 3.305-2.497-4.141.077-1.354-3.914-1.206 3.962-4.141.078 3.395 2.371zm10.583 6.676 3.056-2.796 3.603 2.043-1.713-3.77 3.056-2.796-4.116.465-1.714-3.77-.83 4.057-4.116.465 3.603 2.043zm11.162 5.655 2.781-3.07 3.778 1.697-2.059-3.593 2.781-3.07-4.054.848-2.06-3.593-.446 4.118-4.054.848 3.778 1.697zm11.642 4.585 2.482-3.316 3.92 1.335-2.386-3.385 2.481-3.316-3.957 1.224-2.387-3.385-.059 4.142-3.956 1.224 3.92 1.335zm12.02 3.475 2.16-3.534 4.03.962-2.694-3.146 2.16-3.534-3.825 1.589-2.693-3.147.33 4.129-3.826 1.59 4.029.962zm12.294 2.334 1.82-3.72 4.1.58-2.976-2.88 1.82-3.721-3.66 1.94-2.976-2.88.715 4.08-3.66 1.94 4.102.581zm12.457 1.173 1.464-3.875 4.137.194-3.233-2.59 1.464-3.874-3.462 2.274-3.233-2.589 1.094 3.995-3.462 2.275 4.137.195z"/><path fill="none" stroke="#a69439" stroke-width="1.6" d="m388.672 59.157.984 13.444m-22.902-10.182 2.931 13.158m-24.141-6.739 4.816 12.591m-24.865-3.153 6.598 11.756m-25.059.501 8.24 10.67m-24.719 4.145 9.704 9.357m-23.851 7.699 10.963 7.844m-22.476 11.09 11.988 6.164m-20.622 14.244 12.759 4.353m-18.33 17.096 13.257 2.448m-15.644 19.582 13.472.493m-12.627 21.651 13.4-1.475m-9.339 23.259 13.042-3.41m-5.854 24.371 12.407-5.272m-2.242 24.963 11.507-7.022m1.415 25.023 10.363-8.623m5.043 24.551 8.997-10.04m8.565 23.556 7.438-11.243m11.903 22.057 5.723-12.206m14.987 20.088 3.885-12.909m17.752 17.693 1.964-13.337M400 362.312v-13.48M376.908 53.615l2.967 20.158M354.309 58.65l5.87 19.51m-27.496-11.24 8.648 18.449m-28.839-7.117 11.242 16.993m-29.568-2.842 13.596 15.174m-29.667 1.493 15.661 13.034m-29.133 5.797 17.392 10.615m-27.979 9.976 18.752 7.97m-26.228 13.944 19.712 5.154m-23.918 17.614 20.253 2.229m-21.099 20.909 20.361-.744m-17.829 23.759 20.036-3.7m-14.18 26.101 19.284-6.579m-10.23 27.888 18.121-9.316m-6.059 29.08 16.571-11.855m-1.761 29.652 14.669-14.141m2.575 29.593 12.453-16.127m6.856 28.902 9.973-17.767m10.992 27.596 7.279-19.03m14.892 25.701 4.43-19.888m18.477 23.26 1.488-20.32"/></svg>