<svg xmlns="http://www.w3.org/2000/svg" width="800" height="533.33"><path fill="#c70f2e" fill-rule="evenodd" d="M246.041 533.33 553.96.002H800V533.33z"/><path fill="#666" fill-rule="evenodd" d="M246.041 533.33 553.96.002H0V533.33zm227.084-393.299L326.781 393.5c21.548 12.474 46.546 19.625 73.219 19.625 80.848 0 146.469-65.62 146.469-146.469 0-54.214-29.526-101.406-73.344-126.625"/><path fill="#c70f2e" fill-rule="evenodd" d="M400 120.563c-80.848 0-146.469 65.245-146.469 146.093 0 54.175 29.485 101.507 73.25 126.844l146.344-253.469c-21.526-12.388-46.492-19.469-73.125-19.469z"/><path fill="#fff" d="M485.363.012h137.179L314.637 533.32H177.458z"/><path fill="#002673" d="M503.951.012h100.003L296.05 533.32H196.046L503.95.012z"/><path fill="#fff" d="m260.124 484.522 5.497 16.916h17.786l-14.389 10.456 5.496 16.916-14.39-10.454-14.39 10.454 5.495-16.916-14.389-10.456h17.787zm27.714-48 5.497 16.916h17.786l-14.389 10.456 5.496 16.916-14.39-10.454-14.39 10.454 5.495-16.916-14.389-10.456h17.787zm27.714-48 5.497 16.916h17.786l-14.389 10.456 5.496 16.916-14.39-10.454-14.39 10.454 5.495-16.916-14.389-10.456h17.787zm27.714-48 5.497 16.916h17.786l-14.389 10.456 5.496 16.916-14.39-10.454-14.39 10.454 5.495-16.916-14.389-10.456h17.787zm27.714-48 5.497 16.916h17.786l-14.389 10.456 5.496 16.916-14.39-10.454-14.39 10.454 5.495-16.916-14.389-10.456h17.787zm27.714-48 5.497 16.916h17.786l-14.389 10.456 5.496 16.916-14.39-10.454-14.39 10.454 5.495-16.916-14.389-10.456h17.787zm27.714-48 5.497 16.916h17.786l-14.389 10.456 5.496 16.916-14.39-10.454-14.39 10.454 5.495-16.916-14.389-10.456h17.787zm27.714-48 5.497 16.916h17.786l-14.389 10.456 5.496 16.916-14.39-10.454-14.39 10.454 5.495-16.916-14.389-10.456h17.787zm27.714-48 5.497 16.916h17.786l-14.389 10.456 5.496 16.916-14.39-10.454-14.39 10.454 5.495-16.916-14.389-10.456h17.787zm27.714-48 5.497 16.916h17.786l-14.389 10.456 5.496 16.916-14.39-10.454-14.39 10.454 5.495-16.916-14.389-10.456h17.787zm27.714-48 5.497 16.916h17.786l-14.389 10.456 5.496 16.916-14.39-10.454-14.39 10.454 5.495-16.916-14.389-10.456h17.787z"/><path fill="#f5dc0f" fill-rule="evenodd" stroke="#000" d="M420.813 116.063c-5.889.124-11.872 1.32-15.032 4.593 5.885 3.277 18.194 11.921 26.781 11.406 4.218-.252 8.276-1.006 11.844-2.562 19.482 6.935 42.523 20.137 61.219 39.781 21.973 23.088 37.733 55.749 37.375 97.344-.716 83.286-64.214 136.316-132.813 142.688-17.2 2.716-32.205 14.74-44.062 26.875l7.688 8c9.964-11.717 20.777-26.035 36.906-28.907C482.044 408.656 548.258 353.01 549 266.687c.372-43.214-17.964-76.305-40.813-100.312-19.68-20.679-42.703-33.314-62.968-40.188-4.79-5.288-11.164-9.288-18.656-9.937a54 54 0 0 0-5.75-.188z"/><path fill="#f5dc0f" fill-rule="evenodd" stroke="#000" d="M421.523 407.965c.359-5.073 2.486-10.097 5.407-14.859 4.777-7.788 19.797-13.236 26.23-16.365 1.236 6.323-3.807 14.773-8.819 20.767-5.765 6.894-14.347 9.982-22.818 10.457zm34.299-9.722c-.907-5.003-.09-10.398 1.562-15.734 2.702-8.729 15.906-17.724 21.365-22.348 2.762 5.82-.033 15.256-3.406 22.304-3.88 8.106-11.43 13.222-19.521 15.778zm31.759-18.785c-2.131-4.561-2.709-9.932-2.474-15.457.383-9.038 10.754-20.98 14.814-26.785 4.112 4.876 3.817 14.613 2.367 22.211-1.669 8.74-7.607 15.543-14.707 20.03zm26.225-26.526c-3.24-3.853-5.188-8.892-6.392-14.288-1.97-8.83 4.954-23.05 7.372-29.708 5.235 3.644 7.472 13.126 8.038 20.84.652 8.874-3.322 16.982-9.018 23.156zm16.68-28.51c-3.995-2.981-7.013-7.396-9.395-12.325-3.896-8.064-.44-23.336.384-30.3 5.87 2.328 10.17 10.96 12.463 18.267 2.635 8.405.64 17.119-3.452 24.358zm10.401-35.157c-4.622-1.865-8.666-5.364-12.225-9.524-5.823-6.804-6.373-22.453-7.351-29.397 6.269.755 12.628 8.006 16.706 14.488 4.691 7.455 4.983 16.39 2.87 24.433zm.891-37.415c-4.897-.598-9.662-2.908-14.131-5.972-7.312-5.014-11.85-19.837-14.566-26.226 6.188-.886 14.128 4.418 19.69 9.57 6.396 5.926 8.966 14.395 9.007 22.628zm-7.512-36.519c-4.91.862-10.192.031-15.412-1.617-8.54-2.695-17.285-15.685-21.787-21.06 5.72-2.676 14.952.115 21.84 3.459 7.925 3.846 12.898 11.275 15.359 19.218zm-19.108-34.325c-4.437 2.044-9.651 2.576-15.01 2.318-8.767-.421-20.3-10.548-25.91-14.518 4.754-3.964 14.2-3.626 21.565-2.177 8.47 1.666 15.039 7.464 19.355 14.377zm-23.331-24.281c-3.874 2.975-8.842 4.648-14.125 5.583-8.643 1.53-22.13-5.793-28.48-8.424 3.758-4.917 13.045-6.678 20.548-6.895 8.629-.25 16.318 3.95 22.057 9.736zm-27.582-17.659c-3.262 3.57-7.814 6.062-12.802 7.888-8.16 2.988-22.574-1.815-29.219-3.279 2.811-5.444 11.559-8.768 18.834-10.28 8.368-1.738 16.59 1.025 23.187 5.671zM416.763 415.33c3.163 3.981 7.758 6.924 12.858 9.2 8.344 3.726 23.813-.269 30.89-1.324-2.555-5.914-11.491-10.035-19.014-12.147-8.652-2.43-17.478-.126-24.734 4.27zm34.047-7.951c4.002 3.139 9.154 4.935 14.644 5.966 8.98 1.687 23.1-5.79 29.738-8.458-3.857-5.16-13.506-7.094-21.313-7.403-8.98-.354-17.03 3.934-23.068 9.895zm31.69-15.837c4.577 2.096 9.952 2.632 15.475 2.355 9.035-.454 20.897-10.916 26.67-15.02-4.908-4.076-14.642-3.705-22.23-2.196-8.725 1.736-15.482 7.726-19.915 14.86zm27.071-22.922c4.942.96 10.293.217 15.595-1.352 8.674-2.567 17.74-15.527 22.386-20.875-5.728-2.806-15.103-.155-22.121 3.097-8.073 3.74-13.23 11.153-15.86 19.13zm21.664-29.862c4.977-.268 9.936-2.27 14.65-5.053 7.711-4.554 13.298-19.182 16.47-25.436-6.176-1.315-14.54 3.488-20.496 8.3-6.852 5.536-10.02 13.895-10.624 22.19zm13.656-34.317c4.76-1.478 9.078-4.633 12.967-8.486 6.363-6.302 8.198-21.853 9.744-28.693-6.31.237-13.244 6.94-17.842 13.065-5.287 7.044-6.313 15.924-4.869 24.114zm4.889-36.315c4.219-2.558 7.613-6.621 10.428-11.252 4.606-7.576 2.651-22.955 2.501-29.895-6.005 1.736-11.064 9.833-14.017 16.816-3.396 8.032-2.258 16.809 1.087 24.331zm-3.835-35.171c3.502-3.477 5.848-8.223 7.499-13.385 2.7-8.445-2.806-22.936-4.58-29.647-5.431 3.096-8.45 12.154-9.682 19.635-1.418 8.604 1.747 16.869 6.763 23.397zm-13.213-33.399c2.566-4.156 3.726-9.268 4.12-14.619.644-8.753-8.01-21.428-11.271-27.477-4.511 4.237-5.32 13.655-4.775 21.14.627 8.61 5.586 15.834 11.926 20.956zm-18.499-27.775c1.591-4.618 1.601-9.86.81-15.166-1.292-8.682-12.517-19.147-17.027-24.334-3.47 5.124-2.192 14.49-.017 21.674 2.501 8.262 8.925 14.22 16.234 17.826zm-21.94-20.812c.598-4.799-.463-9.878-2.313-14.858-3.025-8.146-16.037-15.99-21.464-20.094-2.316 5.673.835 14.484 4.41 20.999 4.11 7.493 11.55 11.952 19.367 13.953zm-25.054-15.401c.132-4.834-1.413-9.787-3.734-14.565-3.796-7.817-17.503-14.372-23.3-17.933-1.759 5.87 2.227 14.336 6.412 20.476 4.814 7.062 12.648 10.784 20.622 12.022z"/><path fill="#f5dc0f" fill-rule="evenodd" stroke="#000" d="M379.188 116.063c5.888.124 11.871 1.32 15.03 4.593-5.884 3.277-18.193 11.921-26.78 11.406-4.218-.252-8.276-1.006-11.844-2.562-19.482 6.935-42.523 20.137-61.219 39.781-21.973 23.088-37.733 55.749-37.375 97.344.716 83.286 64.214 136.316 132.813 142.688 17.2 2.716 32.205 14.74 44.062 26.875l-7.688 8c-9.964-11.717-20.777-26.035-36.906-28.907C317.956 408.656 251.742 353.01 251 266.687c-.372-43.214 17.964-76.305 40.813-100.312 19.68-20.679 42.703-33.314 62.968-40.188 4.79-5.288 11.164-9.288 18.656-9.937a54 54 0 0 1 5.75-.188z"/><path fill="#f5dc0f" fill-rule="evenodd" stroke="#000" d="M378.477 407.965c-.359-5.073-2.486-10.097-5.407-14.859-4.777-7.788-19.797-13.236-26.23-16.365-1.236 6.323 3.807 14.773 8.819 20.767 5.765 6.894 14.347 9.982 22.818 10.457zm-34.299-9.722c.907-5.003.09-10.398-1.562-15.734-2.702-8.729-15.906-17.724-21.365-22.348-2.762 5.82.033 15.256 3.406 22.304 3.88 8.106 11.43 13.222 19.521 15.778zm-31.759-18.785c2.131-4.561 2.709-9.932 2.474-15.457-.383-9.038-10.754-20.98-14.814-26.785-4.112 4.876-3.817 14.613-2.367 22.211 1.669 8.74 7.607 15.543 14.707 20.03zm-26.225-26.526c3.24-3.853 5.188-8.892 6.392-14.288 1.97-8.83-4.954-23.05-7.372-29.708-5.235 3.644-7.472 13.126-8.038 20.84-.652 8.874 3.322 16.982 9.018 23.156zm-16.68-28.51c3.995-2.981 7.013-7.396 9.395-12.325 3.896-8.064.44-23.336-.384-30.3-5.87 2.328-10.17 10.96-12.463 18.267-2.635 8.405-.64 17.119 3.452 24.358zm-10.401-35.157c4.622-1.865 8.666-5.364 12.225-9.524 5.823-6.804 6.373-22.453 7.351-29.397-6.269.755-12.628 8.006-16.706 14.488-4.691 7.455-4.983 16.39-2.87 24.433zm-.891-37.415c4.897-.598 9.662-2.908 14.131-5.972 7.312-5.014 11.85-19.837 14.566-26.226-6.188-.886-14.128 4.418-19.69 9.57-6.396 5.926-8.966 14.395-9.007 22.628zm7.512-36.519c4.91.862 10.192.031 15.412-1.617 8.54-2.695 17.285-15.685 21.787-21.06-5.72-2.676-14.952.115-21.84 3.459-7.925 3.846-12.898 11.275-15.359 19.218zm19.108-34.325c4.437 2.044 9.651 2.576 15.01 2.318 8.767-.421 20.3-10.548 25.91-14.518-4.754-3.964-14.2-3.626-21.565-2.177-8.47 1.666-15.039 7.464-19.355 14.377zm23.331-24.281c3.874 2.975 8.842 4.648 14.125 5.583 8.643 1.53 22.13-5.793 28.48-8.424-3.758-4.917-13.045-6.678-20.548-6.895-8.629-.25-16.318 3.95-22.057 9.736zm27.582-17.659c3.262 3.57 7.814 6.062 12.802 7.888 8.16 2.988 22.574-1.815 29.219-3.279-2.811-5.444-11.559-8.768-18.834-10.28-8.368-1.738-16.59 1.025-23.187 5.671zm47.482 276.264c-3.163 3.981-7.758 6.924-12.858 9.2-8.344 3.726-23.813-.269-30.89-1.324 2.555-5.914 11.491-10.035 19.014-12.147 8.652-2.43 17.478-.126 24.734 4.27zm-34.047-7.951c-4.002 3.139-9.154 4.935-14.644 5.966-8.98 1.687-23.1-5.79-29.738-8.458 3.857-5.16 13.506-7.094 21.313-7.403 8.98-.354 17.03 3.934 23.068 9.895zm-31.69-15.837c-4.577 2.096-9.952 2.632-15.475 2.355-9.035-.454-20.897-10.916-26.67-15.02 4.908-4.076 14.642-3.705 22.23-2.196 8.725 1.736 15.482 7.726 19.915 14.86zm-27.071-22.922c-4.942.96-10.293.217-15.595-1.352-8.674-2.567-17.74-15.527-22.386-20.875 5.728-2.806 15.103-.155 22.121 3.097 8.073 3.74 13.23 11.153 15.86 19.13zm-21.664-29.862c-4.977-.268-9.936-2.27-14.65-5.053-7.711-4.554-13.298-19.182-16.47-25.436 6.176-1.315 14.54 3.488 20.496 8.3 6.852 5.536 10.02 13.895 10.624 22.19zm-13.656-34.317c-4.76-1.478-9.078-4.633-12.967-8.486-6.363-6.302-8.198-21.853-9.744-28.693 6.31.237 13.244 6.94 17.842 13.065 5.287 7.044 6.313 15.924 4.869 24.114zm-4.889-36.315c-4.219-2.558-7.613-6.621-10.428-11.252-4.606-7.576-2.651-22.955-2.501-29.895 6.005 1.736 11.064 9.833 14.017 16.816 3.396 8.032 2.258 16.809-1.087 24.331zm3.835-35.171c-3.502-3.477-5.848-8.223-7.499-13.385-2.7-8.445 2.806-22.936 4.58-29.647 5.431 3.096 8.45 12.154 9.682 19.635 1.418 8.604-1.747 16.869-6.763 23.397zm13.213-33.399c-2.566-4.156-3.726-9.268-4.12-14.619-.644-8.753 8.01-21.428 11.271-27.477 4.511 4.237 5.32 13.655 4.775 21.14-.627 8.61-5.586 15.834-11.926 20.956zm18.499-27.775c-1.591-4.618-1.601-9.86-.81-15.166 1.292-8.682 12.517-19.147 17.027-24.334 3.47 5.124 2.192 14.49.017 21.674-2.501 8.262-8.925 14.22-16.234 17.826zm21.94-20.812c-.598-4.799.463-9.878 2.313-14.858 3.025-8.146 16.037-15.99 21.464-20.094 2.316 5.673-.835 14.484-4.41 20.999-4.11 7.493-11.55 11.952-19.367 13.953zm25.054-15.401c-.132-4.834 1.413-9.787 3.734-14.565 3.796-7.817 17.503-14.372 23.3-17.933 1.759 5.87-2.227 14.336-6.412 20.476-4.814 7.062-12.648 10.784-20.622 12.022z"/><path fill="#fff" d="m396.763 500.66 4.589-46.85h12.033l2.44 17.873q.545 4.076.914 7.814c.369 3.738.444 4.915.593 7.268q.578-6.192.98-9.77.4-3.578.657-5.312l3.016-17.873h11.905l3.947 46.85h-9.466l-.995-21.756-.096-2.31q-.417-8.536-.417-13.992l-6.097 38.058h-6.77l-5.745-38.315q0 4.782-.577 13.67l-.193 3.017-1.444 21.628zm61.066-8.343q3.594 0 5.375-3.755 1.78-3.755 1.781-11.295 0-7.605-1.781-11.36t-5.375-3.754c-3.595 0-4.182 1.246-5.359 3.738q-1.764 3.74-1.765 11.376 0 7.605 1.765 11.327 1.765 3.723 5.359 3.723m16.494-14.408q0 10.718-4.493 17.023-4.493 6.306-12 6.306-7.766 0-12.099-6.338-4.332-6.338-4.332-17.633 0-11.263 4.38-17.665t12.05-6.402q7.701 0 12.098 6.546 4.395 6.546 4.396 18.163m5.744 22.751v-46.85h9.466L499 479.032q.417 1.22 1.17 3.738.755 2.52 1.718 5.92-.738-4.972-1.091-9.129a92 92 0 0 1-.353-7.75V453.81h8.664v46.85h-8.664l-10.269-26.217q-.256-.578-1.348-4.781-.514-1.926-.802-3.017a89 89 0 0 1 .481 6.146q.16 3.417.16 8.166v19.703h-8.6zm40.85 0v-38.186h-7.156v-8.664h23.714v8.664h-7.156v38.186zm34.4-26.474h17.424q0 .354.032 1.075.032.723.032 1.075 0 11.745-4.316 18.323t-11.921 6.579q-7.413 0-11.745-6.434t-4.332-17.537q0-11.2 4.492-17.633 4.492-6.435 12.259-6.434 5.262 0 8.936 3.08t5.375 8.954l-8.407 3.882q-.546-3.497-2.07-5.23t-4.027-1.733q-3.754 0-5.503 3.642t-1.75 11.472q0 7.477 1.846 11.327 1.845 3.851 5.407 3.851 3.113 0 4.861-2.615 1.75-2.615 1.75-7.365h-8.344v-8.279zm38.185 18.13q3.594.001 5.375-3.754t1.781-11.295q0-7.605-1.78-11.36-1.782-3.754-5.376-3.754t-5.359 3.738q-1.764 3.74-1.764 11.376 0 7.605 1.764 11.327 1.765 3.723 5.36 3.723zm16.494-14.407q0 10.718-4.492 17.023-4.493 6.306-12.002 6.306-7.766 0-12.097-6.338-4.332-6.338-4.332-17.633 0-11.263 4.38-17.665t12.05-6.402q7.7 0 12.097 6.546 4.395 6.546 4.396 18.163m3.434 22.751 4.589-46.85h12.033l2.439 17.873q.545 4.076.914 7.814c.369 3.738.444 4.915.594 7.268q.577-6.192.979-9.77.4-3.579.658-5.312l3.016-17.873h11.905l3.947 46.85h-9.466l-.995-21.756-.096-2.31q-.418-8.536-.418-13.992l-6.096 38.058h-6.771l-5.744-38.315q0 4.782-.578 13.67l-.192 3.017-1.444 21.628zm46.208 0v-46.85h19.703v8.664h-10.654v9.466h9.66v8.6h-9.66v10.975h10.654v9.145zm35.106-26.538q.16 0 .53.032.368.032.529.032 3.048 0 4.589-1.7 1.54-1.701 1.54-5.006 0-3.37-1.412-4.91t-4.525-1.54q-.48 0-.738.016a6 6 0 0 0-.481.048zm-9.05 26.538v-46.85h9.724q8.022 0 11.632 3.144t3.61 10.044q0 5.007-1.845 8.039t-5.567 4.252l8.985 21.371h-9.852l-7.637-19.382v19.382zm34.625 0v-22.013l-10.846-24.837h9.851l3.08 8.471a79 79 0 0 1 1.573 4.54q.706 2.264 1.348 4.606a69 69 0 0 1 1.251-4.846q.675-2.246 1.38-4.043l3.402-8.728h9.145l-10.91 24.837v22.013zM160.04 99.426q-1.349.546-2.712.818-1.363.273-2.743.273-8.953 0-14.553-6.514t-5.6-17.072q0-10.974 5.472-17.713 5.471-6.739 14.296-6.739 1.635 0 3.08.273t2.76.85v8.76a15 15 0 0 0-2.615-.801 12.5 12.5 0 0 0-2.487-.257q-4.686 0-7.606 4.14t-2.92 10.974q0 6.578 3 10.654 3 4.074 7.718 4.075 1.188 0 2.423-.289 1.234-.288 2.487-.834zm6.193.513V53.09h9.53v46.85h-9.53zm21.724 0V61.753h-7.155V53.09h23.714v8.664h-7.156V99.94h-9.403zm25.608 0V77.926L202.719 53.09h9.85l3.081 8.472a79 79 0 0 1 1.573 4.54q.705 2.262 1.348 4.605a69 69 0 0 1 1.251-4.845q.675-2.247 1.38-4.044l3.401-8.728h9.146l-10.91 24.837V99.94h-9.274zm56.688-8.343q3.594 0 5.375-3.754 1.78-3.754 1.78-11.296 0-7.604-1.78-11.36-1.782-3.754-5.375-3.754t-5.36 3.739q-1.764 3.738-1.764 11.375 0 7.605 1.765 11.328t5.359 3.722m16.494-14.408q0 10.718-4.493 17.023-4.492 6.306-12.001 6.306-7.766 0-12.098-6.338c-4.332-6.338-4.332-10.102-4.332-17.633q0-11.263 4.38-17.665t12.05-6.402q7.702 0 12.097 6.547 4.397 6.546 4.397 18.162m5.744 22.751V53.09h20.216v8.664H301.54v9.723h10.204v8.632H301.54V99.94h-9.05z" font-family="Futura BdCn BT" font-size="65.719" font-weight="400" style="text-align:center;line-height:125%;-inkscape-font-specification:Futura BdCn BT" text-anchor="middle"/></svg>