<svg xmlns="http://www.w3.org/2000/svg" width="955.894" height="539.888"><path fill="#fff" d="M.955.955 838.28 46.807l116.66 116.658-53.255 53.254 53.255 53.255-53.255 53.195 53.255 53.254-116.66 116.658L.955 538.933z"/><path fill="#c70f2e" d="M498.873 269.974 728.07 40.777l-55.105-3.045-231.347 231.406 232.899 232.899 53.553-2.926z"/><path fill="#c70f2e" d="M615.113 269.974 838.28 46.807l-55.105-3.045-225.914 225.913 226.392 226.392 54.627-2.986zM.955 538.933V.955L44.18 3.343v533.202z"/><path fill="#002673" d="M130.748 531.888V299.885h674.517l-29.97-29.911 29.97-29.97H130.748V8.06L87.464 5.672v528.425z"/><path fill="#f5dc0f" d="m316.124 18.21 133.852 7.283v488.843l-133.852 7.343z"/><path fill="#c70f2e" d="m362.632 20.776-23.224-1.074v500.723l23.224-1.313zm40.836 2.269 23.225 1.194v491.35l-23.225 1.314z"/><path fill="#ffff40" d="m316.124 18.21-6.448-.419v504.246l6.448-.358zm133.852 7.283 6.448.418v488.066l-6.448.359z"/><path fill="#c70f2e" d="m918.341 126.867 36.598 36.598-26.628 26.627-36.597-36.597zm9.97 116.48 26.628 26.627-26.628 26.567-26.627-26.567zm0 106.449 26.628 26.627-36.598 36.598-26.627-26.628z"/><path fill="#006b2b" d="m891.714 153.495 36.597 36.597-26.627 26.627 26.627 26.628-26.627 26.627 26.627 26.567-26.627 26.628 26.627 26.627-36.597 36.597-116.42-116.42z"/><path fill="#fff" d="m109.136 257.675-2.806 8.478h-8.896l7.224 5.254-2.746 8.477 7.224-5.253 7.224 5.253-2.806-8.477 7.224-5.254h-8.896zm60.657 0-2.746 8.478h-8.955l7.224 5.254-2.747 8.477 7.224-5.253 7.224 5.253-2.746-8.477 7.224-5.254h-8.955zm60.717 0-2.805 8.478h-8.896l7.224 5.254-2.746 8.477 7.224-5.253 7.224 5.253-2.806-8.477 7.224-5.254h-8.896zm-121.374 55.523-2.806 8.538h-8.896l7.224 5.254-2.746 8.477 7.224-5.253 7.224 5.253-2.806-8.477 7.224-5.254h-8.896zm0 55.583-2.806 8.478h-8.896l7.224 5.254-2.746 8.537 7.224-5.254 7.224 5.254-2.806-8.537 7.224-5.254h-8.896zm0 55.583-2.806 8.478h-8.896l7.224 5.254-2.746 8.477 7.224-5.194 7.224 5.194-2.806-8.477 7.224-5.254h-8.896zm0 55.583-2.806 8.478h-8.896l7.224 5.253-2.746 8.478 7.224-5.254 7.224 5.254-2.806-8.478 7.224-5.253h-8.896zm0-277.855-2.806 8.478h-8.896l7.224 5.254-2.746 8.478 7.224-5.254 7.224 5.254-2.806-8.478 7.224-5.254h-8.896zm0-55.582-2.806 8.477h-8.896l7.224 5.254-2.746 8.537 7.224-5.253 7.224 5.253-2.806-8.537 7.224-5.254h-8.896l-2.746-8.478zm0-55.583-2.806 8.537h-8.896l7.224 5.194-2.746 8.538 7.224-5.254 7.224 5.254-2.806-8.538 7.224-5.194h-8.896zm0-55.583-2.806 8.537h-8.896l7.224 5.254-2.746 8.478 7.224-5.254 7.224 5.254-2.806-8.478 7.224-5.254h-8.896zm420.901 222.331-2.806 8.478h-8.895l7.224 5.254-2.747 8.477 7.224-5.253 7.224 5.253-2.806-8.477 7.224-5.254h-8.895zm68.001 0-2.806 8.478h-8.895l7.224 5.254-2.747 8.477 7.224-5.253 7.224 5.253-2.806-8.477 7.224-5.254h-8.896zm67.942 0-2.747 8.478h-8.896l7.224 5.254-2.806 8.477 7.224-5.253 7.224 5.253-2.746-8.477 7.224-5.254h-8.896zm68 0-2.746 8.478h-8.896l7.224 5.254-2.806 8.477 7.224-5.253 7.224 5.253-2.746-8.477 7.224-5.254h-8.896zm137.375-6.805-4.418 13.671H852.55l11.642 8.478-4.478 13.672 11.642-8.478 11.642 8.478-4.418-13.672 11.583-8.478h-14.329l-4.478-13.672z"/><path fill="none" stroke="#ccc" stroke-width="1.91" d="M.955.955 838.28 46.807l116.66 116.658-53.255 53.254 53.255 53.255-53.255 53.195 53.255 53.254-116.66 116.658L.955 538.933V.955"/><path fill="#fff" d="M488.73 269.944a105.68 105.68 0 1 1-211.36 0 105.68 105.68 0 1 1 211.36 0"/><path fill="#002673" fill-rule="evenodd" stroke="#fff" stroke-width=".537" d="M318.964 265.95c-1.627 1.998-5.41 3.232-9.118 3.506-.001.163-.008.324-.008.487 0 40.412 32.8 73.213 73.213 73.213s73.213-32.8 73.213-73.213c0-.16-.007-.319-.008-.478-3.725-.267-7.534-1.508-9.168-3.515-1.855 2.278-6.517 3.573-10.67 3.573-4.154 0-8.814-1.295-10.687-3.573-1.873 2.278-6.541 3.573-10.695 3.573s-8.815-1.295-10.67-3.573c-1.855 2.278-6.516 3.573-10.67 3.573s-8.815-1.295-10.67-3.573c-1.855 2.278-6.516 3.573-10.67 3.573s-8.815-1.295-10.67-3.573c-1.855 2.278-6.516 3.573-10.67 3.573s-8.814-1.295-10.687-3.573c-1.873 2.278-6.541 3.573-10.695 3.573s-8.815-1.295-10.67-3.573z"/><g stroke="#002673" stroke-width="5"><path fill="#fff" fill-rule="evenodd" stroke-width="1.342" d="m371.815 204.503 1.586-.211 7.714 67.21-2.536.317z"/><path fill="#fff" fill-rule="evenodd" stroke-width="1.342" d="M387.729 231.313c-8.668.398-15.974 1.58-23.282 3.458l.233 1.783c7.606-.768 14.813-1.742 23.204-3.578z"/><path fill="#fff" fill-rule="evenodd" stroke-width="1.342" d="M365.374 234.509c.22 3.512 5.122 5.645 7.877 2.752 1.487 2.199 5.726 1.455 6.548-.759 3.812 1.155 7.576-1.677 7.023-5.172-7.34.269-14.204 1.202-21.448 3.179zm36.878-24.089-1.585.21 6.081 60.555h2.475l-6.97-60.765zm-53.266 8.346-1.585.218 5.243 52.117 2.34-.076z"/><path fill="#002673" fill-rule="evenodd" stroke-width="1.342" d="M372.664 237.609c.995-.797 1.224-1.4 1.816-2.494-.33 1.141-.755 1.902-1.49 2.544zm6.941-.981c.477-1.181.416-1.82.331-3.064.271 1.157.31 2.058-.017 2.978z"/><path fill="#fff" fill-rule="evenodd" stroke-linecap="round" stroke-linejoin="round" stroke-width="1.342" d="M361.27 250.144c1.138 1.115 4.099 2.143 4.004.458s-.01-2.09.196-3.328c.072-1.305-.76-2.54-1.449-3.275-.688-.735-.3-1.882.048-2.823.428-1.157-.57-3.084-2.088-2.918.19-4.034-7.355-4.983-9.87-2.895-1.234-1.4-7.141-.57-7.428 1.25-.503-1.04-5 .134-4.228 1.61-1.536-.297-3.291 1.577-3.386 2.241-1.376-1.257-6.306.668-6.003 2.112.144.682.395.834.854 1.02-1.4.403.119 2.183 2.136 2.823 2.016.641 4.46.902 6.358-.07 1.898-.974 3.417-2.017 6.406-2.017 3.25-.167 4.318.972 6.406 1.043 2.088.072 3.274-.664 5.315-.332 2.04.332 2.135 1.258 2.159 1.78.023.522-.57 2.206.57 3.321"/><g fill="#002673" fill-rule="evenodd" stroke-width="1.342"><path d="m361.628 250.504-.314-3.557-.29 3.557zm.704.503-.314-3.556-.29 3.556zm2.483-.671-.314-3.556-.29 3.556zM332.997 244c.79.874 2.824.698 3.434-.026l.018.029c-.879 1.4-2.84 1.175-3.452-.003z"/><path d="M335.535 244.582c.79.874 2.825.698 3.434-.026l.018.029c-.878 1.4-2.839 1.175-3.452-.003zm2.864-1.72c.867.992 3.099.793 3.768-.028l.02.032c-.964 1.59-3.116 1.333-3.788-.004z"/><path d="M340.21 243.903c.868.991 3.1.792 3.768-.03l.02.033c-.964 1.59-3.115 1.333-3.787-.003zm-2.684 1.375c.868.992 3.1.792 3.768-.028l.02.032c-.964 1.589-3.115 1.333-3.788-.004zm-3.556.269c.76.992 2.714.792 3.3-.03l.018.033c-.845 1.59-2.73 1.333-3.318-.003zm8.006-3.498c.89.992 3.181.792 3.868-.029l.02.033c-.99 1.589-3.198 1.333-3.888-.004zm3.838.914c.89.992 3.181.792 3.868-.029l.02.033c-.99 1.589-3.198 1.333-3.888-.004zm3.188-.906c.89.992 3.18.792 3.868-.029l.02.033c-.99 1.589-3.198 1.333-3.888-.004z"/><path d="M349.673 243.528c.567.816 2.028.651 2.466-.023l.013.026c-.631 1.306-2.04 1.096-2.48-.003zm-6.208-.168c.568.816 2.029.652 2.466-.023l.013.027c-.63 1.305-2.038 1.095-2.479-.003z"/><path d="M351.988 243.295c.79.874 2.824.698 3.434-.025l.018.028c-.878 1.4-2.84 1.175-3.452-.003zm-7.55-4.129c.568.816 2.029.651 2.466-.023l.013.026c-.63 1.306-2.038 1.096-2.479-.003zm11.878.873c.568.815 2.029.65 2.466-.024l.013.027c-.63 1.306-2.039 1.095-2.479-.003z"/><path d="M354.437 242.258c.89.992 3.182.793 3.868-.028l.02.032c-.989 1.59-3.197 1.333-3.888-.004z"/><path d="M355.01 243.73c.568.815 2.028.65 2.466-.024l.013.027c-.63 1.306-2.039 1.095-2.479-.003z"/><path d="M357.288 243.397c.567.816 2.028.652 2.466-.023l.013.027c-.631 1.305-2.04 1.095-2.48-.004z"/></g><path fill="#fff" fill-rule="evenodd" stroke-width="1.342" d="M359.178 267.18v-6.04h1.41l-.202-11.542c1.297-.447 3.87-.492 5.302-.134l.603 10.804 1.208 2.08-.268 4.9zm-22.492-3.251 1.017 3.186 9.219.746v-3.457z"/><path fill="#fff" fill-rule="evenodd" stroke-width="1.342" d="m400.227 266.397-18.803.18v-1.695l-.805-.873h-.487V262.6h.9v-1.124h-16.418v4.832l-16.24-.403v3.825l51.47-.067z"/><path fill="#fff" stroke-linecap="round" stroke-width="1.342" d="M349.193 264.505h.813v3.457h-.813zm2.813.102h.813v3.457h-.813zm2.814.102h.813v3.457h-.814zm2.779.067h.813v3.457h-.813zm2.745 0h.813v3.457h-.813zm19.218.441h.813v3.457h-.813zm3.186 0h.813v3.457h-.813zm3.254.033h.813v3.458h-.813zm3.389-.135h.813v3.457h-.813zm3.186 0h.813v3.457h-.813zm3.253.035h.814v3.456h-.813z"/><path fill="#fff" fill-rule="evenodd" stroke-width="1.342" d="M399.525 264.98v3.287l21.496-1.855 2.495-2.937-12.84 1.047-11.15.458z"/><path fill="#fff" fill-rule="evenodd" stroke-linecap="round" stroke-width="1.342" d="M421.151 263.082c-9.862 1.152-25.92 1.643-42.705 1.552a.577.577 0 1 0-.008 1.149c16.811.091 32.879-.388 42.847-1.552a.579.579 0 0 0-.134-1.15zm-84.881.067a.577.577 0 0 0 .033 1.149c7.79.565 16.81.986 26.13 1.233a.579.579 0 0 0 .033-1.157c-9.305-.247-18.313-.662-26.079-1.225a.6.6 0 0 0-.117 0z"/><path fill="#fff" fill-rule="evenodd" stroke-width="1.342" d="m340.724 276.932-3.343-10.826c27.986 2.77 56.083 1.789 83.65.288-1.538 5.93-5.548 9.112-10.383 11.691z"/><path fill="#fff" stroke-linecap="round" stroke-width="5.001" d="M82.174 525.234h6.658v6.222h-6.658z" transform="matrix(.26833 .00717 0 .26843 343.626 126.717)"/><path fill="#fff" stroke-linecap="round" d="M102.412 526.377h6.657v6.222h-6.657z" transform="matrix(.2684 .00359 0 .26843 343.626 126.717)"/><path fill="#fff" stroke-linecap="round" stroke-width="1.342" d="M376.474 268.388h1.786v1.67h-1.786zm5.321-.021h1.787v1.67h-1.787zm5.207-.055v1.67l1.787-.048v-1.67z"/><path fill="#fff" fill-rule="evenodd" stroke-width="1.342" d="M382.666 209.603c-6.896.316-12.708 1.256-18.522 2.751l.186 1.419c6.05-.612 11.784-1.387 18.458-2.847zm29.157 7.079c-6.895.317-12.708 1.257-18.521 2.752l.186 1.418c6.05-.61 11.783-1.386 18.458-2.847zm6.126 18.388c-9.098.419-16.766 1.659-24.436 3.63l.245 1.873c7.982-.807 15.546-1.83 24.353-3.757l-.162-1.745zm-61.443-11.668c-5.672.26-10.453 1.034-15.236 2.263l.153 1.167c4.977-.503 9.693-1.14 15.184-2.342z"/><path fill="#fff" fill-rule="evenodd" stroke-width="1.342" d="M342.083 225.457c4.518-1.192 9.691-1.88 13.807-2.014.162 2.623-1.672 4.424-4.043 4.144-.722 1.572-3.523 2.019-5.268.671-1.275.822-4.278.453-4.496-2.801z"/><path fill="#002673" fill-rule="evenodd" stroke-width="1.342" d="M346.002 228.384c1.107-.383 1.242-1.155 1.447-1.896.136.945-.392 1.526-.809 1.88zm5.637-.648c.322-.643.293-1.256.148-2.01.423.786.274 1.482.142 2.002z"/><path fill="#fff" fill-rule="evenodd" stroke-width="1.342" d="M394.53 238.416c.495 3.897 5.252 6.128 8.758 3.685 2.815 2.452 7.612 1.152 8.73-1.091 4.695.998 5.667-4.372 4.814-5.974-7.386.522-14.963 1.244-22.302 3.38z"/><path fill="#002673" fill-rule="evenodd" stroke-width="1.342" d="M403.038 242.115c1.012-.774 1.285-1.355 1.845-2.468-.356 1.134-.782 1.928-1.531 2.554zm8.742-.925c.5-1.04.49-1.574.344-2.586.414.86.368 1.695-.061 2.59l-.284-.005z"/><path fill="#fff" fill-rule="evenodd" stroke-width="1.342" d="M394.107 219.199c.727 3.12 3.702 4.026 5.906 2.45 1.824 1.391 5.442.57 6.173-.772 2.148.782 4.765-.38 4.799-4.195-5.895.37-11.185.973-16.878 2.517z"/><path fill="#002673" fill-rule="evenodd" stroke-width="1.342" d="M399.64 221.743c.918-.647.965-1.319 1.163-2.255.092.903-.091 1.727-.856 2.356zm6.29-.73c.578-.803.533-1.305.55-2.262.261.87.136 1.624-.253 2.244z"/><path fill="#fff" fill-rule="evenodd" stroke-width="1.342" d="m414.654 263.643 25.518-5.01.544 1.631-19.381 4.777c-3.962.971-6.603-.466-6.68-1.398zm-32.778-54.05c-4.227-.067-10.82.345-16.86 2.56-.267 1.96 1.704 5.181 6.194 3.28.512.7 4.486.72 5.694-1.09 3.039.918 5.826-2.515 4.972-4.75z"/><path fill="#002673" fill-rule="evenodd" stroke-width="1.342" d="M370.73 215.484c.995-.553 1.26-1.436 1.467-2.576.122 1.362-.489 2.114-.863 2.627l-.604-.05zm5.914-1.024c.626-.812.807-1.536.888-2.6.169 1.102.09 1.617-.611 2.651l-.277-.05z"/></g><path fill="none" stroke="#002673" stroke-width=".537" d="M348.684 225.706c.448 14.197-2.99 31.832-7.174 42.592m6.875-40.799c-.449 12.105-6.128 28.395-10.312 37.213m35.718-51.262c-.448 17.486-4.334 41.398-19.13 55.297"/><path fill="#fff" fill-rule="evenodd" stroke="#002673" stroke-width=".268" d="m371.815 204.503 1.585-.212 7.714 67.21-2.536.317z"/><path fill="#fff" fill-rule="evenodd" stroke="#002673" stroke-width=".268" d="M387.729 231.312c-8.668.398-15.975 1.58-23.282 3.459l.233 1.783c7.605-.769 14.813-1.743 23.203-3.579z"/><path fill="none" stroke="#002673" stroke-width=".537" d="M401.827 219.403c1.057 15.851-7.503 40.897-15.534 50.196"/><path fill="#fff" fill-rule="evenodd" stroke="#002673" stroke-width=".268" d="M365.373 234.509c.22 3.512 5.122 5.645 7.877 2.752 1.487 2.198 5.726 1.455 6.549-.76 3.812 1.155 7.576-1.676 7.022-5.172-7.339.27-14.203 1.202-21.448 3.18zm36.879-24.089-1.586.209 6.082 60.555h2.475l-6.971-60.765zm-53.266 8.346-1.585.218 5.242 52.116 2.34-.075-5.997-52.26z"/><path fill="#002673" fill-rule="evenodd" d="M372.664 237.608c.994-.796 1.224-1.4 1.816-2.494-.33 1.142-.756 1.902-1.491 2.544z"/><path fill="none" stroke="#002673" stroke-width=".537" d="M373.928 214.12c5.707 20.5 17.12 42.481 27.37 54"/><path fill="#002673" fill-rule="evenodd" d="M379.605 236.628c.476-1.182.416-1.82.331-3.064.271 1.157.309 2.058-.017 2.978z"/><path fill="none" stroke="#002673" stroke-width=".537" d="M349.281 226.602c2.093 17.336 9.864 31.235 16.888 43.34"/><path fill="#fff" fill-rule="evenodd" stroke="#002673" stroke-linecap="round" stroke-linejoin="round" stroke-width=".268" d="M361.269 250.144c1.139 1.115 4.1 2.142 4.005.458-.095-1.685-.01-2.091.196-3.329.071-1.305-.761-2.539-1.45-3.274-.687-.736-.3-1.883.048-2.824.429-1.156-.569-3.084-2.087-2.918.19-4.033-7.355-4.982-9.87-2.894-1.234-1.4-7.142-.57-7.428 1.25-.504-1.04-5 .134-4.228 1.61-1.536-.298-3.292 1.576-3.387 2.24-1.376-1.257-6.306.669-6.002 2.112.143.682.395.835.854 1.02-1.4.404.119 2.183 2.135 2.824 2.017.64 4.46.901 6.359-.071 1.898-.973 3.416-2.017 6.406-2.017 3.25-.166 4.318.973 6.406 1.044s3.274-.664 5.314-.332 2.136 1.257 2.16 1.78c.023.521-.57 2.206.569 3.32z"/><g fill="#002673" fill-rule="evenodd"><path d="m361.627 250.504-.314-3.557-.29 3.557zm.705.503-.314-3.557-.29 3.557zm2.483-.671-.314-3.557-.29 3.557zM332.996 244c.79.873 2.825.697 3.434-.026l.018.029c-.878 1.4-2.839 1.174-3.452-.004z"/><path d="M335.535 244.581c.79.874 2.824.698 3.434-.025l.018.028c-.879 1.4-2.84 1.175-3.452-.003m2.863-1.719c.868.992 3.1.792 3.768-.029l.02.033c-.964 1.589-3.115 1.332-3.788-.004"/><path d="M340.21 243.902c.867.992 3.1.792 3.768-.029l.02.033c-.964 1.589-3.115 1.333-3.788-.004m-2.684 1.376c.867.992 3.099.792 3.768-.029l.02.032c-.964 1.59-3.116 1.333-3.788-.003m-3.556.268c.759.992 2.714.792 3.3-.029l.017.033c-.844 1.589-2.729 1.333-3.318-.004zm8.006-3.498c.89.992 3.18.793 3.868-.028l.02.032c-.99 1.59-3.198 1.333-3.888-.004m3.838.915c.89.991 3.18.792 3.867-.03l.02.033c-.989 1.59-3.197 1.333-3.887-.003m3.187-.906c.89.992 3.181.792 3.868-.03l.02.033c-.989 1.59-3.197 1.333-3.888-.003"/><path d="M349.672 243.528c.568.815 2.029.65 2.466-.024l.013.027c-.63 1.306-2.039 1.095-2.479-.003m-6.207-.168c.568.815 2.028.651 2.466-.024l.013.027c-.63 1.306-2.039 1.095-2.479-.003"/><path d="M351.988 243.295c.79.874 2.824.698 3.433-.026l.019.029c-.879 1.4-2.84 1.174-3.452-.003m-7.55-4.129c.568.815 2.028.651 2.466-.024l.013.027c-.63 1.306-2.039 1.095-2.479-.003m11.878.872c.567.815 2.028.651 2.466-.023l.013.026c-.631 1.306-2.039 1.096-2.48-.003z"/><path d="M354.437 242.258c.89.992 3.181.792 3.868-.029l.02.033c-.99 1.589-3.198 1.333-3.888-.004"/><path d="M355.01 243.73c.567.814 2.028.65 2.466-.024l.013.026c-.631 1.306-2.04 1.096-2.48-.003z"/><path d="M357.287 243.397c.568.815 2.029.651 2.466-.024l.013.027c-.63 1.306-2.039 1.095-2.479-.003"/></g><path fill="#fff" fill-rule="evenodd" stroke="#002673" stroke-width=".268" d="M359.178 267.18v-6.04h1.409l-.201-11.542c1.297-.448 3.87-.492 5.301-.135l.604 10.805 1.208 2.08-.268 4.899zm-22.493-3.251 1.017 3.186 9.22.745v-3.457z"/><path fill="none" stroke="#002673" stroke-width=".537" d="M373.294 214.436c3.065 18.916 11.942 43.644 20.819 55.903"/><path fill="#fff" fill-rule="evenodd" stroke="#002673" stroke-width=".268" d="m400.227 266.396-18.803.18v-1.695l-.806-.872h-.486v-1.41h.9v-1.123h-16.419v4.831l-16.24-.402v3.825l51.471-.067z"/><path fill="#fff" stroke="#002673" stroke-linecap="round" stroke-width=".268" d="M349.192 264.505h.814v3.457h-.814zm2.813.101h.814v3.458h-.814zm2.814.102h.813v3.457h-.813zm2.779.068h.813v3.457h-.813zm2.746 0h.813v3.457h-.813zm19.217.441h.814v3.457h-.814zm3.186 0h.814v3.457h-.814zm3.254.033h.813v3.457h-.813zm3.389-.135h.814v3.457h-.813zm3.187 0h.813v3.457h-.813zm3.253.034h.814v3.457h-.814z"/><path fill="#fff" fill-rule="evenodd" stroke="#002673" stroke-width=".268" d="M399.525 264.98v3.287l21.496-1.856 2.494-2.937-12.839 1.048-11.151.457z"/><path fill="#fff" fill-rule="evenodd" stroke="#002673" stroke-linecap="round" stroke-width=".268" d="M421.15 263.081c-9.862 1.152-25.919 1.643-42.704 1.552a.577.577 0 1 0-.009 1.15c16.812.09 32.88-.388 42.848-1.553a.579.579 0 0 0-.134-1.149zm-84.88.067a.577.577 0 0 0 .033 1.15c7.79.565 16.81.985 26.13 1.233a.579.579 0 0 0 .033-1.158c-9.305-.247-18.313-.661-26.08-1.225a.6.6 0 0 0-.117 0z"/><path fill="#fff" fill-rule="evenodd" stroke="#002673" stroke-width=".268" d="m340.723 276.931-3.343-10.825c27.986 2.769 56.084 1.788 83.65.288-1.538 5.929-5.548 9.112-10.382 11.69z"/><path fill="#fff" stroke="#002673" stroke-linecap="round" d="M302.815 452.418h6.658v6.222h-6.658z" transform="matrix(.26833 .00717 0 .26843 284.42 144.68)"/><path fill="#fff" stroke="#002673" stroke-linecap="round" d="M322.994 456.509h6.657v6.222h-6.657z" transform="matrix(.2684 .00359 0 .26843 284.42 144.68)"/><path fill="#fff" stroke="#002673" stroke-linecap="round" stroke-width=".268" d="M376.473 268.387h1.787v1.67h-1.787zm5.322-.021h1.786v1.67h-1.786zm5.207-.054v1.669l1.787-.048v-1.67z"/><path fill="#fff" fill-rule="evenodd" stroke="#002673" stroke-width=".268" d="M382.665 209.602c-6.895.317-12.708 1.257-18.521 2.751l.185 1.42c6.05-.612 11.784-1.387 18.459-2.848zm29.158 7.08c-6.895.317-12.708 1.257-18.522 2.751l.186 1.419c6.05-.611 11.784-1.387 18.459-2.847zm6.125 18.388c-9.097.418-16.766 1.658-24.436 3.63l.245 1.872c7.982-.807 15.547-1.83 24.353-3.756zm-61.442-11.669c-5.673.26-10.454 1.034-15.236 2.263l.153 1.167c4.976-.502 9.693-1.14 15.184-2.342z"/><path fill="#fff" fill-rule="evenodd" stroke="#002673" stroke-width=".268" d="M342.082 225.456c4.519-1.191 9.692-1.879 13.808-2.013.162 2.623-1.673 4.423-4.044 4.144-.721 1.571-3.523 2.018-5.268.67-1.275.823-4.278.454-4.496-2.8z"/><path fill="#002673" fill-rule="evenodd" d="M346.001 228.384c1.108-.384 1.243-1.155 1.448-1.896.136.944-.393 1.525-.81 1.88zm5.637-.649c.323-.642.293-1.255.149-2.01.423.786.273 1.482.141 2.002z"/><path fill="#fff" fill-rule="evenodd" stroke="#002673" stroke-width=".268" d="M394.53 238.415c.495 3.898 5.252 6.129 8.757 3.686 2.816 2.451 7.613 1.151 8.731-1.092 4.695.998 5.667-4.371 4.814-5.974-7.387.522-14.963 1.245-22.302 3.38z"/><path fill="#002673" fill-rule="evenodd" d="M403.037 242.115c1.012-.774 1.285-1.355 1.846-2.468-.356 1.133-.782 1.928-1.532 2.554zm8.742-.926c.5-1.039.49-1.573.345-2.585.414.86.368 1.694-.062 2.59z"/><path fill="none" stroke="#002673" stroke-width=".537" d="M402.038 220.777c3.805 14.055 10.99 27.476 22.826 41.636m-21.452-41.425c8.454 17.014 18.176 28.533 34.979 38.36m-35.93-38.783c5.495 15.852 17.437 31.703 28.85 40.791"/><path fill="#fff" fill-rule="evenodd" stroke="#002673" stroke-width=".268" d="M394.107 219.198c.727 3.12 3.702 4.027 5.905 2.45 1.825 1.392 5.443.57 6.174-.772 2.147.783 4.765-.38 4.798-4.194-5.894.369-11.184.973-16.877 2.516z"/><path fill="#002673" fill-rule="evenodd" d="M399.639 221.742c.919-.647.966-1.318 1.163-2.255.092.903-.09 1.727-.855 2.356l-.308-.1zm6.29-.729c.578-.803.534-1.306.55-2.262.262.87.137 1.624-.252 2.243z"/><path fill="#fff" fill-rule="evenodd" stroke="#002673" stroke-width=".268" d="m414.654 263.643 25.518-5.01.544 1.63-19.382 4.778c-3.961.971-6.603-.466-6.68-1.398zm-32.778-54.051c-4.228-.067-10.82.346-16.86 2.56-.267 1.96 1.703 5.182 6.194 3.281.511.7 4.485.72 5.694-1.091 3.038.919 5.826-2.515 4.972-4.75z"/><path fill="#002673" fill-rule="evenodd" d="M370.73 215.484c.995-.553 1.26-1.436 1.466-2.577.122 1.362-.488 2.115-.862 2.627zm5.914-1.024c.626-.813.806-1.536.887-2.601.17 1.102.091 1.617-.61 2.652z"/><path fill="#002673" fill-rule="evenodd" stroke="#fff" stroke-width=".537" d="M309.863 271.914c1.046 39.502 33.435 71.242 73.188 71.242 39.13 0 71.13-30.75 73.121-69.388-2.285 1.428-5.833 2.214-9.076 2.214-4.154 0-8.814-1.286-10.687-3.565-1.873 2.279-6.541 3.565-10.695 3.565s-8.815-1.286-10.67-3.565c-1.855 2.279-6.516 3.565-10.67 3.565s-8.815-1.286-10.67-3.565c-1.855 2.279-6.516 3.565-10.67 3.565s-8.815-1.286-10.67-3.565c-1.855 2.279-6.516 3.565-10.67 3.565s-8.813-1.286-10.687-3.565c-1.873 2.279-6.54 3.565-10.695 3.565-4.154 0-8.815-1.286-10.67-3.565-1.854 2.279-6.516 3.565-10.67 3.565-4.362 0-7.99-2.197-9.11-4.068z"/><path fill="#002673" fill-rule="evenodd" stroke="#fff" stroke-width=".537" d="M318.964 278.876c-1.475 1.813-4.727 2.997-8.086 3.406 5.872 34.543 35.966 60.874 72.173 60.874s66.301-26.331 72.173-60.874c-3.376-.404-6.654-1.585-8.136-3.406-1.855 2.279-6.517 3.565-10.67 3.565-4.154 0-8.814-1.286-10.687-3.565-1.873 2.279-6.541 3.565-10.695 3.565s-8.815-1.286-10.67-3.565c-1.855 2.279-6.516 3.565-10.67 3.565s-8.815-1.286-10.67-3.565c-1.855 2.279-6.516 3.565-10.67 3.565s-8.815-1.286-10.67-3.565c-1.855 2.279-6.516 3.565-10.67 3.565s-8.814-1.286-10.687-3.565c-1.873 2.279-6.541 3.565-10.695 3.565s-8.815-1.286-10.67-3.565z"/><path fill="#002673" fill-rule="evenodd" stroke="#fff" stroke-width=".537" d="M329.642 285.344c-1.854 2.278-6.516 3.565-10.67 3.565-3.996 0-6.804-1.502-7.423-3.188 7.223 32.836 36.507 57.435 71.502 57.435 34.287 0 63.087-23.616 71.032-55.455-2.084.783-4.618 1.208-6.987 1.208-4.154 0-8.814-1.287-10.687-3.565-1.873 2.278-6.541 3.565-10.695 3.565s-8.815-1.287-10.67-3.565c-1.855 2.278-6.516 3.565-10.67 3.565s-8.815-1.287-10.67-3.565c-1.855 2.278-6.516 3.565-10.67 3.565s-8.815-1.287-10.67-3.565c-1.855 2.278-6.516 3.565-10.67 3.565s-8.813-1.287-10.687-3.565c-1.873 2.278-6.54 3.565-10.695 3.565-4.154 0-8.815-1.287-10.67-3.565z"/><path fill="#fff" d="M309.697 294.688h146.238v26.552H309.697z"/><path fill="#002673" d="M336.097 315.063v-14.199h4.536l2.216 9.193 2.215-9.193h4.536v14.199h-2.877l.063-12.594-3.013 12.594h-1.848l-3.014-12.594.074 12.594zm19.393-5.698h2.562l-1.291-5.956-1.27 5.956zm-4.326 5.698 3.644-14.199h4.042l3.675 14.199h-3.244l-.798-3.568h-3.465l-.777 3.568zm12.642-4.988h3.014v.913q0 1.309.372 1.784.374.474 1.287.475.955 0 1.454-.425.499-.423.499-1.253 0-.637-.347-1.093-.346-.456-1.501-1.176l-1.544-.958q-1.995-1.218-2.536-2.01-.54-.793-.54-1.992 0-1.788 1.207-2.803t3.329-1.014q2.247 0 3.444 1.079c1.197 1.079 1.197 1.752 1.197 3.098q0 .203-.006.313a3 3 0 0 1-.015.194h-2.856v-.378q0-1.153-.43-1.65-.431-.498-1.418-.498-.724 0-1.14.373-.414.374-.414 1.037 0 .894 1.858 1.983a.1.1 0 0 1 .032.018l1.659.987q1.774 1.032 2.404 1.95.63.916.63 2.337 0 1.935-1.26 2.987-1.26 1.05-3.601 1.051-2.436 0-3.628-1.106t-1.192-3.375q0-.24.042-.793zm18.532-.074h2.93q0 .092.01.272t.01.281q0 2.462-1.18 3.656-1.182 1.194-3.618 1.194-1.155 0-1.984-.263a3.7 3.7 0 0 1-1.428-.816q-.819-.737-1.155-2.028t-.336-4.5q0-2.193.2-3.49.199-1.295.619-1.93.651-.978 1.617-1.416t2.467-.438q2.457 0 3.576 1.125 1.118 1.125 1.128 3.614h-2.919v-.341q0-1.152-.425-1.72-.425-.566-1.297-.566-1.08 0-1.475.783-.394.784-.394 4.334 0 3.836.384 4.665.383.83 1.464.83 1.008 0 1.407-.65.4-.65.4-2.402zm8.127-2.037q0 3.503.467 4.411.468.909 1.728.908 1.238 0 1.695-.89.457-.889.457-4.43c0-3.541-.154-3.841-.462-4.443q-.462-.904-1.711-.904t-1.712.904-.462 4.444m-3.076 0q0-2.26.241-3.61.242-1.35.756-2.033.705-.967 1.68-1.383.977-.415 2.573-.415c1.596 0 1.921.138 2.572.415q.977.416 1.69 1.383.516.701.751 2.047.237 1.346.237 3.596 0 2.24-.242 3.59-.242 1.351-.745 2.052-.714.969-1.69 1.383-.978.415-2.573.415-1.596 0-2.573-.415-.975-.414-1.68-1.383-.515-.682-.756-2.033-.24-1.35-.241-3.61zm15.266 7.099v-11.857h-3.464v-2.342h9.943v2.342h-3.465v11.857zm10.374 0v-11.857h-3.465v-2.342h9.944v2.342h-3.465v11.857zm8.075 0v-14.199h8.305v2.36h-5.313v3.283h4.945v2.25h-4.945v3.909h5.439v2.397z" font-family="Swis721 Cn BT" font-size="75.068" font-weight="700" style="text-align:center;line-height:125%;-inkscape-font-specification:Swis721 Cn BT Bold" text-anchor="middle"/><path fill="#002673" d="M383.05 169.023c-55.706 0-100.92 45.213-100.92 100.92s45.214 100.92 100.92 100.92c55.708 0 100.921-45.213 100.921-100.92s-45.213-100.92-100.92-100.92zm0 31.884c38.108 0 69.037 30.929 69.037 69.036s-30.929 69.036-69.036 69.036-69.036-30.929-69.036-69.036 30.929-69.036 69.036-69.036z"/><path fill="#fff" d="M384.972 174.87c-42.301-.826-81.62 26.938-93.505 69.505a10.067 10.067 0 1 0 19.386 5.41c11.156-39.958 52.397-63.197 92.355-52.04 26.424 7.377 44.664 25.617 52.041 52.04a10.067 10.067 0 1 0 19.386-5.41c-9.114-32.643-33.374-56.902-66.016-66.016a94.7 94.7 0 0 0-23.647-3.49zm-83.967 107.605a10.064 10.064 0 0 0-9.538 13.035c9.114 32.643 33.374 56.903 66.016 66.017a94.7 94.7 0 0 0 23.647 3.49c42.301.824 81.62-26.94 93.505-69.506 1.082-3.5.173-7.309-2.366-9.95a10.063 10.063 0 0 0-17.02 4.539c-11.156 39.958-52.397 63.198-92.355 52.041-26.424-7.377-44.664-25.617-52.041-52.041a10.07 10.07 0 0 0-7.173-7.29 10 10 0 0 0-2.675-.335"/><path fill="none" d="M304.504 257.046a79.598 79.598 0 0 1 157.058-.205" style="text-align:center;-inkscape-font-specification:Swis721 Md BT" text-anchor="middle"/><path fill="#fff" d="m298.023 262.952 1.595 4.797 5.055.034-4.07 3 1.53 4.818-4.11-2.944-4.11 2.944 1.53-4.819-4.07-2.999 5.055-.034zm170.03 0 1.594 4.797 5.055.034-4.07 3 1.53 4.818-4.11-2.944-4.11 2.944 1.53-4.819-4.07-2.999 5.056-.034z"/><path fill="#002673" d="m301.558 238.225-.567 1.75q-1.009-.166-1.769.366-.76.534-1.13 1.676-.495 1.526.269 2.696t2.651 1.782q1.902.615 3.268.124 1.366-.492 1.844-1.968.38-1.17-.064-2.158-.443-.987-1.55-1.441l.562-1.736q1.787.65 2.525 2.308.736 1.658.102 3.617-.738 2.279-2.66 3.106-1.923.828-4.54-.02-2.647-.858-3.699-2.67-1.05-1.809-.283-4.182.624-1.924 1.966-2.787 1.343-.864 3.075-.463m-1.693-4.722.768-1.706 10.21 4.596-.767 1.706zm2.12-4.728 4.337-7.6 1.427.814-1.704 2.985 8.3 4.736-.92 1.611-8.3-4.736-1.714 3.004zm5.57-9.535 1.392-1.845 5.714.885-2.471-5.18 1.296-1.717 3.088 7.15 3.531 2.667-1.126 1.492-3.465-2.615zm16.949-16.933q-1.236 1.07-1.194 2.525.043 1.456 1.366 2.985 1.317 1.524 2.754 1.779t2.673-.814q1.23-1.064 1.185-2.523-.045-1.458-1.363-2.982-1.322-1.53-2.754-1.784-1.431-.255-2.667.814m-1.06-1.224q1.887-1.632 4.005-1.378 2.119.253 3.914 2.33 1.796 2.075 1.74 4.208t-1.94 3.764q-1.893 1.635-4.009 1.385-2.115-.25-3.916-2.332-1.8-2.08-1.742-4.211.057-2.13 1.949-3.766zm7.817-5.78 6.435-4.118.885 1.383-4.892 3.131 1.62 2.529 4.289-2.746.873 1.364-4.29 2.746 2.66 4.155-1.543.988-6.037-9.431zm14.116-8.085 8.126-3.245.609 1.525-3.191 1.274 3.544 8.874-1.722.688-3.545-8.874-3.212 1.283zm15.92-3.496-.423 5.117 3.228-.816zm-1.472-1.573 2.034-.514 6.732 9.848-1.93.488-1.683-2.562-4.223 1.068-.241 3.048-1.887.477zm9.77-2.18 2.695-.239 3.472 8.682 1.927-9.161 2.695-.24.99 11.154-1.763.157-.819-9.215-1.945 9.46-1.818.162-3.544-8.974.818 9.216-1.718.152zm17.527.863-.243 3.526 2.411.166q1.13.078 1.64-.298.51-.377.574-1.31.063-.917-.385-1.379t-1.48-.532zm-1.747-1.744 4.254.293q1.032.072 1.522.2.49.13.87.376.737.463 1.079 1.26.34.796.267 1.873-.06.888-.436 1.567a3 3 0 0 1-1.028 1.099 2.8 2.8 0 0 1-1.024.379q-.578.097-1.58.028l-2.533-.174-.302 4.398-1.858-.128zm15.827 3.813-2.61 4.421 3.26.672zm-.64-2.057 2.056.423 1.768 11.798-1.951-.402-.398-3.04-4.266-.879-1.546 2.64-1.906-.394zm6.34 11.07 1.8.56-.59 1.901q-.286.923-.927 1.36-.64.438-1.578.355l.238-.77q.45.045.819-.24a1.5 1.5 0 0 0 .523-.776l.02-.09a2 2 0 0 1 .04-.155l-.922-.285zm14.068-4.688 6.848 3.387-.728 1.472-5.206-2.575-1.331 2.691 4.565 2.258-.718 1.452-4.565-2.259-2.188 4.423-1.642-.813zm10.105 5.335 1.554 1.026-5.239 7.929 4.611 3.046-.934 1.415-6.165-4.074zm11.912 10.566q-1.219-1.09-2.657-.86-1.438.228-2.785 1.737-1.343 1.501-1.412 2.96-.068 1.456 1.15 2.546 1.213 1.084 2.654.852 1.44-.231 2.783-1.734 1.347-1.508 1.416-2.96.07-1.452-1.149-2.54zm1.079-1.207q1.86 1.66 1.88 3.795.02 2.133-1.809 4.18-1.83 2.046-3.951 2.265t-3.982-1.443q-1.864-1.666-1.887-3.797-.024-2.13 1.81-4.183t3.954-2.268 3.985 1.45zm6.796 9.547-2.672 2.172 1.682 2.07q.738.909 1.378 1.045.64.137 1.354-.443.696-.566.695-1.206t-.725-1.532zm.066-2.414 3.044 3.746a9 9 0 0 1 .352.469q.935 1.15.821 2.325-.113 1.175-1.24 2.09-.738.6-1.526.701a2.35 2.35 0 0 1-1.503-.306q.26.67.08 1.202-.179.533-.977 1.25l-1.183 1.088-.011.01q-.786.696-.7 1.165l-.253.206-1.313-1.616a1.9 1.9 0 0 1 .286-.473q.192-.24.68-.676l1-.89q.8-.729.83-1.258.031-.528-.559-1.254l-.225-.278-1.553-1.911-3.575 2.905-1.165-1.434zm7.727 10.169 1.016 1.57-9.401 6.083-1.016-1.57zm2.82 7.744-7.115 3.567 1.025 2.045q.746 1.488 1.99 1.746 1.242.256 3.111-.68 1.699-.852 2.228-2.001t-.155-2.516zm.6-2.35 1.938 3.867q1.104 2.202.41 3.931-.693 1.73-3.174 2.973-2.426 1.216-4.337.66t-3.049-2.825l-1.799-3.588zm5.203 16.662-5.135-.048 1.05 3.16zm1.46-1.583.662 1.991-9.33 7.434-.628-1.89 2.433-1.866-1.374-4.133-3.058-.018-.613-1.846z" font-family="Swis721 Md BT" font-size="58" font-weight="400" style="text-align:start;line-height:125%;-inkscape-font-specification:Swis721 Md BT"/><path fill="none" stroke="#e6e6e6" stroke-linecap="round" stroke-linejoin="round" stroke-width=".266" d="M293.93 285.51c6.697 38.34 35.152 66.816 73.485 73.542 49.187 8.63 96.112-24.285 104.743-73.473"/><path fill="#002673" d="M306.085 294.048q-.476-1.564-1.823-2.115-1.349-.552-3.282.037-1.928.586-2.743 1.796-.816 1.21-.34 2.774.473 1.556 1.824 2.106t3.28-.036q1.934-.589 2.747-1.794t.337-2.768m1.55-.472q.725 2.385-.365 4.22-1.091 1.834-3.717 2.632-2.625.8-4.552-.116-1.928-.915-2.654-3.301-.728-2.393.36-4.225 1.086-1.833 3.72-2.634 2.631-.801 4.556.115 1.923.916 2.652 3.31zm1.525 9.609-3.114 1.469 1.138 2.413q.5 1.059 1.088 1.344t1.42-.106q.811-.383.964-1.005.151-.623-.338-1.66zm.642-2.329 2.06 4.366a9 9 0 0 1 .228.54q.633 1.34.242 2.453-.392 1.114-1.705 1.733-.859.405-1.65.316a2.35 2.35 0 0 1-1.385-.658q.092.713-.21 1.188-.3.474-1.248.98l-1.408.773-.014.006q-.93.49-.957.965l-.296.14-.889-1.885a2 2 0 0 1 .392-.39q.245-.187.822-.493l1.184-.626q.951-.516 1.107-1.022.156-.507-.243-1.352l-.152-.323-1.051-2.228-4.167 1.965-.788-1.67zm7.338 19.8-1.027-1.535q.709-.73.756-1.664t-.578-1.868q-.935-1.395-2.376-1.547-1.44-.15-3.122.974-1.648 1.104-2.076 2.515-.428 1.41.474 2.757.765 1.143 1.949 1.38 1.183.237 2.4-.514l-1.704-2.545 1.282-.859 2.66 3.973-5.022 3.363-.685-1.024 1.002-1.045a4.1 4.1 0 0 1-1.903-.547q-.855-.498-1.477-1.427-1.29-1.926-.742-4.026.546-2.1 2.739-3.568 2.236-1.497 4.377-1.183t3.49 2.33q1.124 1.68 1.016 3.28t-1.433 2.78m5.785 4.308-4.711 2.043 2.243 2.46zm.692-2.04 1.413 1.55-5.503 10.584-1.342-1.471 1.464-2.693-2.935-3.22-2.8 1.228-1.312-1.438zm5.312 5.591 1.53 1.25-1.262 9.788 5.3-6.488 1.396 1.14-7.085 8.672-1.519-1.241 1.239-9.806-5.3 6.487-1.384-1.13zm9.629 7.382 1.571 1.014-6.071 9.41-1.571-1.015zm3.922 2.544 7.48 3.839-.749 1.46-9.345 4.092 5.695 2.922-.753 1.468-7.717-3.96.712-1.387 9.464-4.158-5.526-2.835.74-1.44zm9.314 4.589 7.552 2.722-.557 1.545-5.828-2.101-.992 2.753 5.377 1.939-.53 1.473-5.379-1.939-1.147 3.183 6.022 2.17-.57 1.581-7.745-2.792zm11.412 5.358-1.682 7.78 2.237.483q1.626.351 2.606-.456t1.421-2.85q.402-1.857-.162-2.99t-2.058-1.456zm-1.455-1.94 4.227.914q2.408.52 3.32 2.144.913 1.625.327 4.337-.573 2.653-2.204 3.793t-4.113.605l-3.923-.848zm21.08 2.788 1.869.035-.148 8.019q-.034 1.8-.862 2.622-.83.82-2.562.789-1.771-.033-2.576-.91-.805-.879-.77-2.764l.01-.547 1.794.033-.013.715q-.018.928.354 1.39.372.463 1.147.478.874.015 1.232-.422.357-.44.383-1.822zm4.59.001 1.858-.207.77 6.921q.16 1.443.856 2.062t1.995.474q1.308-.145 1.854-.906.546-.76.387-2.196l-.77-6.92 1.859-.207.781 7.026q.235 2.115-.785 3.392-1.021 1.275-3.137 1.511-2.167.24-3.406-.75t-1.481-3.173zm11.562-1.558 1.808-.448 2.282 9.225 5.365-1.328.407 1.646-7.173 1.775zm7.663-1.886 2.158-.825 4.375 3.78.653-5.702 2.01-.768-1.175 7.7 1.58 4.133-1.748.668-1.55-4.055zm18.366-8.242 1.15-.715 5.747 9.245-1.479.92-4.01-6.45-2.168 1.348-.667-1.071q1.233-.767 1.558-1.52.325-.751-.131-1.757m5.683-3.43 4.66-3.715.953 1.195-3.685 2.938 1.325 2.248q.112-.496.406-.936a3.7 3.7 0 0 1 .783-.828q1.267-1.01 2.673-.843t2.44 1.463q1.028 1.29.815 2.796-.213 1.507-1.587 2.602-1.242.99-2.561.939-1.32-.052-2.308-1.12l1.367-1.09q.538.552 1.225.578t1.322-.48q.774-.616.853-1.443.08-.828-.565-1.636-.635-.795-1.453-.902t-1.597.515q-.44.35-.65.8t-.191.998l-1.247.936zm13.122.191 1.359-1.307 1.38 1.435q.67.696.744 1.469t-.452 1.553l-.559-.58q.255-.372.185-.833a1.5 1.5 0 0 0-.427-.834l-.069-.06a2 2 0 0 1-.116-.11l-.696.67zm3.041-16.79.81-1.085 8.721 6.515-1.041 1.395-6.085-4.545-1.528 2.046-1.011-.755q.87-1.163.897-1.982t-.763-1.59zm10.256-4.875q-.464.802-.291 1.517.171.713.936 1.154.75.433 1.46.223.708-.21 1.16-.993.475-.824.304-1.545-.172-.722-.962-1.178-.738-.426-1.44-.204-.703.222-1.167 1.026m.361-2.223a2.57 2.57 0 0 1 1.517-.582q.833-.038 1.656.438 1.37.79 1.653 2.147t-.613 2.91q-.867 1.503-2.17 1.913-1.303.412-2.673-.38-.823-.474-1.197-1.195-.375-.72-.266-1.623-.642.428-1.275.453t-1.299-.358q-1.165-.672-1.374-1.877t.6-2.607q.78-1.35 1.934-1.763 1.155-.413 2.288.24.666.385.967.95.302.563.252 1.334m-4.193.012q-.395.685-.28 1.29.115.607.715.953.632.365 1.217.171t.989-.89q.402-.699.279-1.314t-.736-.969-1.195-.15-.989.909m8.328-6.77q-.365.852-.11 1.54t1.066 1.035q.797.342 1.476.05.68-.293 1.035-1.124.375-.874.119-1.57-.255-.697-1.094-1.056-.783-.336-1.455-.032t-1.037 1.156zm.096-2.25a2.56 2.56 0 0 1 1.437-.758q.822-.135 1.696.239 1.453.622 1.895 1.937t-.264 2.963q-.683 1.593-1.928 2.155-1.245.563-2.7-.06-.873-.374-1.33-1.046-.456-.67-.456-1.58-.586.501-1.212.6-.626.1-1.332-.202-1.236-.53-1.587-1.7-.35-1.173.288-2.66.614-1.433 1.712-1.98t2.3-.032q.705.303 1.072.828.366.525.409 1.295zm-4.163.507q-.31.727-.125 1.315.187.589.823.861.67.287 1.229.026.558-.261.876-1.002.317-.74.122-1.337-.195-.596-.845-.874t-1.205-.008-.875 1.019m1.06-5.693 2.134-7.24 1.393.41q1.417 2.344 3.283 3.96t4.291 2.608l-.533 1.809a14.3 14.3 0 0 1-4.106-2.538q-1.834-1.615-3.322-3.988l-1.602 5.433z" font-family="Swis721 Md BT" font-size="58" font-weight="400" style="text-align:start;line-height:125%;-inkscape-font-specification:Swis721 Md BT"/></svg>