<svg xmlns="http://www.w3.org/2000/svg" width="800" height="480"><path fill="#fff" d="M0 0h800v480H0z"/><path fill="#c70f2e" fill-rule="evenodd" d="M333.328 240 400 0h400v240z"/><path fill="#002673" fill-rule="evenodd" d="M266.672 480H800V240H333.328z"/><path fill="#f5dc0f" fill-rule="evenodd" stroke="#000" stroke-width="3" d="M432.285 338.961c-16.627 16.627-55.782 20.152-98.968 20.152s-82.34-3.525-98.96-20.146c-16.622-16.622-20.147-55.776-20.147-98.962s3.525-82.339 20.153-98.966c16.629-16.627 55.782-20.152 98.968-20.152s82.34 3.525 98.961 20.146c16.622 16.622 20.146 55.776 20.146 98.962s-3.526 82.339-20.153 98.966z" transform="matrix(.99491 0 0 .99492 1.082 1.22)"/><path fill="none" stroke="#000" stroke-width="1.5" d="M409.048 164.288c13.796 13.796 12.74 56.951 12.74 75.712 0 18.76 1.162 61.813-12.74 75.716s-56.954 12.736-75.714 12.736-61.78 1.166-75.683-12.736S244.883 258.76 244.883 240s-1.135-61.81 12.768-75.712c13.902-13.903 56.953-12.74 75.714-12.74s61.886-1.057 75.683 12.74z" transform="matrix(.99491 0 0 .99492 1.082 1.22)"/><path d="m291.02 145.698-.117.132q-1.359.188-4.203.72-2.912.546-4.18.85l-.14-.073-.135-.722.116-.131q1.377-.324 1.573-.404.378-.159.389-.48.034-.796-.439-3.32l-1.342-7.17-2.127 5.415q-.183.451-1.213 3.301l-1.696 4.709-.912.17a81 81 0 0 0-2.54-2.96l-2.495-2.793-4.648-5.113 1.378 7.36q.473 2.525.793 3.255.125.296.536.306.212.005 1.612-.192l.156.08.135.722-.118.12a73 73 0 0 0-6.056 1.134l-.154-.07-.135-.72.116-.132q1.377-.323 1.572-.404.38-.159.39-.48.033-.796-.439-3.32l-1.05-5.611q-.473-2.525-.793-3.255-.126-.294-.536-.306-.212-.003-1.612.192l-.156-.08-.135-.721.118-.121a84 84 0 0 0 3.591-.607 58 58 0 0 0 2.887-.606q.6.722 1.704 2.03l1.145 1.3 5.648 6.244 1.466-3.678 2.238-6.029q.39-1.072.727-2.288a63 63 0 0 0 2.08-.323q2.667-.5 4.07-.828l.154.07.137.732-.118.12q-1.375.324-1.572.405-.379.158-.39.479-.034.797.44 3.32l1.05 5.611q.472 2.524.792 3.255.126.296.536.306.214.004 1.612-.192l.156.08.133.711zm14.946-4.148q-.238 1.587-.155 3.57l-.133.114-10.06.358q-2.517.105-3.552.214l-.142-.102-.013-.302.064-.132q1.002-.55 1.08-.682.115-.21.091-1.44l-.06-2.417-.23-5.466q-.107-2.565-.32-3.335-.082-.31-.487-.379-.21-.034-1.623-.04l-.143-.102-.03-.733.134-.103q1.4.006 4.318-.116a1355 1355 0 0 0 9.888-.48l.156.079-.13 1.204q-.06.576-.084.976l-.054 1.006-.134.125-.802.034-.143-.102q-.075-1.465-.291-1.662-.159-.144-1.497-.175a37 37 0 0 0-2.349.013 40 40 0 0 0-2.43.177q-.105 1.14-.021 3.144l.094 2.232a38 38 0 0 0 1.772-.02l1.812-.088q1.272-.064 1.432-.222.213-.204.23-1.468l.133-.113.857-.036.143.102q-.004 1.21.038 2.212.045 1.09.155 2.38l-.134.103-.927.04-.142-.103q-.053-1.24-.284-1.462-.23-.223-1.354-.251a28 28 0 0 0-1.8.022q-1.01.042-1.88.133l.138 3.288q.06 1.412.185 2.735l1.881-.079q4.04-.17 4.942-.456a.47.47 0 0 0 .216-.128q.131-.157.236-.658l.275-1.35.134-.125.843-.035zm28.235 3.12-.138.109q-1.37-.066-4.264-.065-2.964 0-4.264.065l-.125-.097v-.734l.138-.108q1.413-.065 1.62-.108.402-.086.47-.4.18-.776.18-3.344v-7.295l-3.086 4.932q-.264.41-1.8 3.02l-2.534 4.317h-.927a81 81 0 0 0-1.953-3.377l-1.938-3.205-3.627-5.88v7.488q0 2.568.18 3.345.07.312.47.399.208.043 1.62.108l.139.108v.734l-.139.097a73 73 0 0 0-6.16 0l-.139-.097v-.734l.139-.108q1.41-.065 1.62-.108.4-.086.47-.4.18-.776.18-3.344v-5.708q0-2.568-.18-3.345-.07-.313-.47-.4-.21-.042-1.62-.108l-.139-.107v-.734l.139-.097q1.44.064 3.64.064 1.69 0 2.95-.064a368 368 0 0 0 1.301 2.309l.886 1.489 4.403 7.175 2.118-3.345 3.309-5.513q.581-.983 1.135-2.115a63 63 0 0 0 2.104.064q2.714 0 4.154-.064l.138.097v.744l-.138.097q-1.413.066-1.62.108-.402.087-.47.4-.18.777-.18 3.345v5.708q0 2.568.18 3.345.068.312.47.399.207.043 1.62.108l.138.108v.723zm17.583-11.804q0 2.222-1.945 3.47-1.945 1.245-4.396 1.245a9.6 9.6 0 0 1-1.675-.15q-.125-.292-.485-.777l.291-.238q.582.15 1.066.151 1.398 0 2.243-.771.844-.772.844-2.164 0-3.01-3.475-3.01-.415 0-1.66.13-.125.258-.125 3.528v5.708q0 2.568.18 3.345.07.312.47.399.125.021 1.897.108l.152.119v.712l-.138.108a136 136 0 0 0-4.541-.065q-2.977 0-4.264.065l-.139-.097v-.723l.152-.12q1.4-.063 1.606-.107.402-.086.471-.4.18-.776.18-3.344v-5.708q0-2.568-.18-3.345-.07-.313-.47-.4-.208-.042-1.62-.108l-.139-.118v-.712l.152-.108q1.357.064 4.168.064 1.163 0 3.35-.032a345 345 0 0 1 2.52-.032q3.793 0 4.929 1.5.58.776.581 1.877m23.196 12.908-.144.101q-1.366-.13-4.256-.266-2.96-.141-4.262-.138l-.134-.104.035-.732.157-.101q1.413.002 1.623-.031.405-.067.49-.376.216-.768.338-3.333l.123-2.598q-.703-.087-4.478-.266-3.485-.165-4.594-.164l-.123 2.597q-.122 2.565.02 3.35.055.315.452.421.206.053 1.613.185l.133.114-.034.722-.13.102q-1.38-.13-4.256-.267-2.973-.141-4.262-.137l-.134-.104.035-.733.143-.101q1.414.002 1.623-.031.405-.067.49-.377.216-.767.338-3.332l.27-5.702q.123-2.565-.02-3.35-.055-.315-.452-.42-.206-.054-1.613-.185l-.133-.115.035-.733.143-.09q1.324.127 4.256.267 3 .142 4.262.137l.12.103-.035.744-.143.09q-1.413-.001-1.623.031-.405.067-.49.377-.215.767-.338 3.332l-.084 1.779q1.462.123 4.035.245 4.039.192 5.037.185l.084-1.778q.121-2.565-.02-3.35-.056-.315-.452-.42-.206-.054-1.613-.185l-.147-.115.035-.733.143-.09q1.338.128 4.256.266 3.014.143 4.262.138l.134.103-.035.744-.13.091q-1.44-.003-1.636.03-.405.067-.49.377-.216.767-.338 3.333l-.27 5.701q-.123 2.565.02 3.35.055.315.452.421.205.053 1.613.185l.133.114zm10.205 1.393-.136.093q-1.368-.226-4.242-.562-2.86-.335-4.243-.431l-.11-.122.083-.718.15-.091q1.41.1 1.622.081.409-.039.514-.342.27-.75.567-3.301l.664-5.67q.3-2.55.21-3.343-.032-.319-.421-.451-.201-.067-1.596-.296l-.125-.123.085-.729.149-.08q1.312.22 4.228.56 2.901.34 4.229.43l.126.112-.085.73-.15.09q-1.41-.1-1.622-.08-.409.038-.514.341-.269.75-.568 3.301l-.663 5.67q-.3 2.55-.21 3.343.032.32.42.451.202.067 1.597.296l.125.123zm16.078-1.398q-.476 1.716-2.091 2.68-1.413.851-3.344.923-1.77.07-4.026-.553a16.3 16.3 0 0 1-5.222-2.518l-.097-.273q.705-1.093 1.313-3.298l.162-.067.854.236.092.137-.066.24q-.161.58-.266 1.583.296.798 1.406 1.62a7.7 7.7 0 0 0 2.557 1.244q2.643.73 4.053-.425.725-.594.943-1.385.369-1.332-.902-2.298-.63-.476-2.152-1.099-3.446-1.41-4.388-2.365-1.425-1.447-.858-3.495.59-2.133 2.781-2.892 2.316-.793 5.786.166 3.122.863 4.829 2.174l.024.275q-.663 1.149-1.209 2.868l-.176.063-.84-.232-.105-.14q.305-1.26.315-1.66-.28-.603-1.211-1.23a7.7 7.7 0 0 0-2.184-.985q-1.79-.495-3.034-.043-1.166.427-1.47 1.53-.331 1.196.62 2.064.62.562 3.211 1.637.271.108 1.504.64a10 10 0 0 1 1.371.703q1.238.767 1.695 1.767.49 1.087.125 2.408M233.195 281.084q1.765-.23 3.281.885 1.334.972 2.15 2.722.753 1.605 1.055 3.926a16.3 16.3 0 0 1-.291 5.79l-.214.195q-1.281-.225-3.549.071l-.125-.123-.114-.879.09-.137.247-.032q.6-.078 1.562-.371.621-.584.946-1.924.34-1.4.153-2.84-.354-2.72-1.966-3.57-.829-.436-1.643-.33-1.37.178-1.767 1.723-.194.766-.176 2.41.039 3.723-.474 4.963-.78 1.875-2.887 2.149-2.194.285-3.746-1.44-1.63-1.826-2.095-5.395-.418-3.213.127-5.294l.245-.13q1.315.165 3.112 0l.126.137.113.865-.09.151q-1.278.208-1.65.355-.448.49-.664 1.594a7.7 7.7 0 0 0-.058 2.395q.24 1.84 1.139 2.811.847.909 1.981.762 1.23-.16 1.66-1.375.278-.79.261-3.594-.005-.293.005-1.634a10 10 0 0 1 .116-1.537q.226-1.44.97-2.249.81-.873 2.17-1.05m4.144-24.158.112.135q-.03 1.373.048 4.265.077 2.962.177 4.26l-.094.142-.733.02-.112-.15q-.102-1.41-.15-1.617-.097-.399-.412-.46-.781-.159-3.349-.091l-2.6.068q-.034.708.065 4.486.092 3.487.175 4.593l2.6-.068q2.567-.068 3.339-.268.31-.077.387-.482.037-.209.065-1.622l.104-.14.723-.02.11.122q-.027 1.386.048 4.264.08 2.976.178 4.261l-.094.141-.733.02-.112-.136q-.102-1.41-.15-1.617-.097-.399-.412-.46-.78-.159-3.348-.091l-5.707.15q-2.567.068-3.339.268-.31.078-.386.481-.038.21-.065 1.623l-.105.14-.733.02-.1-.136q.029-1.33-.049-4.264-.078-3.003-.177-4.261l.094-.127.744-.02.101.136q.102 1.41.15 1.616.097.4.412.46.781.16 3.349.092l1.78-.047q.015-1.468-.053-4.042-.107-4.042-.187-5.037l-1.78.047q-2.567.068-3.339.268-.31.078-.387.481-.037.21-.065 1.623l-.104.155-.733.019-.1-.136q.028-1.344-.048-4.264-.08-3.018-.178-4.261l.094-.141.744-.02.1.122q.104 1.438.151 1.63.097.4.412.46.78.16 3.348.092l5.706-.15q2.568-.068 3.34-.269.31-.077.386-.48.038-.21.065-1.623l.105-.141.722-.02zm-3.27-16.848q1.575.305 3.561.305l.108.138-.065 10.065q0 2.52.065 3.558l-.108.139h-.302l-.13-.07q-.507-1.024-.636-1.107-.205-.125-1.435-.152l-2.417-.042h-5.471q-2.568 0-3.345.18-.313.07-.4.47-.042.21-.107 1.62l-.108.14h-.734l-.097-.14q.065-1.398.065-4.319 0-2.603-.065-9.899l.086-.152 1.198.18q.572.083.971.124l1.004.097.118.139v.803l-.107.138q-1.468.014-1.673.222-.15.151-.237 1.488-.087 1.335-.087 2.347 0 1.204.076 2.436 1.133.153 3.14.153h2.233q.054-1.094.054-1.772l-.01-1.814q-.012-1.275-.162-1.44-.195-.222-1.457-.29l-.108-.14v-.858l.108-.138a49 49 0 0 0 2.212.055q1.09 0 2.385-.055l.097.138v.928l-.108.138q-1.24 0-1.473.222-.232.221-.308 1.343a28 28 0 0 0-.053 1.8q0 1.01.053 1.883h3.292q1.413 0 2.74-.07v-1.882q0-4.044-.248-4.957a.47.47 0 0 0-.119-.221q-.15-.139-.647-.263l-1.338-.333-.119-.138v-.845zm0-17.168q1.575.305 3.561.305l.108.138-.065 10.066q0 2.52.065 3.558l-.108.138h-.302l-.13-.069q-.507-1.024-.636-1.108-.195-.124-1.435-.152l-2.417-.041h-5.471q-2.568 0-3.345.18-.313.07-.4.47-.042.209-.107 1.62l-.108.139h-.734l-.097-.139q.065-1.425.065-4.181 0-2.852-.065-4.333l.097-.139h.745l.097.139q.065 1.41.108 1.62.085.4.399.47.777.18 3.345.18h6.453q1.413 0 2.74-.07v-1.882q0-4.043-.248-4.956a.47.47 0 0 0-.119-.222q-.15-.138-.647-.263l-1.338-.332-.119-.139v-.844zm-.898-17.883c-2.28-.057-3.577 1.809-3.802 5.607-.111-.723-.205-1.376-.37-1.99a6 6 0 0 0-.68-1.577c-.658-1.042-1.521-1.539-2.542-1.564-.626-.016-1.202.145-1.695.558-.933.78-1.442 2.49-1.507 5.063-.014.563 0 1.228.01 2.041a96 96 0 0 1-.026 3.42c-.05 2.003-.103 3.437-.166 4.258l.117.123.72.018.122-.117c.067-.94.069-1.48.1-1.618.065-.267.223-.429.433-.47.52-.107 1.651-.138 3.363-.096l5.458.137 2.398.12c.826.039 1.309.07 1.436.155.085.058.31.465.632 1.156l.118.063.3.008.123-.117c-.027-.647-.02-1.58.009-2.76l.142-3.298c.016-.36.02-.826.035-1.38.043-1.743-.152-3.157-.614-4.276-.936-2.267-2.31-3.419-4.114-3.464m.195 4.206c1.064.027 1.906.413 2.493 1.083.616.717.917 1.731.885 3.023-.017.683-.1 1.18-.159 1.556-.519.024-1.022.035-1.56.021l-4.98-.124c-.009-.471-.037-.892-.028-1.261.073-2.907 1.191-4.352 3.349-4.298m-7.153.422c.547.013 1.013.2 1.488.517.82.547 1.218 1.66 1.177 3.33-.016.637-.012 1.048-.032 1.26l-2.999-.075a44 44 0 0 1-2.097-.112c-.046-.49-.033-1.1-.016-1.801.054-2.122.89-3.159 2.479-3.12zm-1.06-25.11q2.112 2.39 5.229 5.287 1.758 1.633 2.27 1.833.273.108.799.156l1.064.097q3.148.287 3.526.07a.5.5 0 0 0 .222-.299q.106-.338.294-1.683l.12-.128.72.066.095.147q-.189 1.36-.451 4.241-.27 2.95-.323 4.253l-.108.115-.73-.067-.095-.147q.059-1.358.014-1.709a.5.5 0 0 0-.164-.335q-.332-.28-3.48-.567l-1.269-.115q-.408-.038-3.464 1.867-3.113 1.94-4.274 3.155-.563.588-.653.803-.09.214-.164 1.027l-.132.141-.602-.054-.106-.15q-.21-3.41-.337-4.381.334-.693.815-1.219 1-1.09 4.262-2.781l2.98-1.55q-.946-.906-3.822-3.476l-1.999-1.725a141 141 0 0 0-.916-.765l.183-2.013.12-.128zm202.683 11.435-1.173-.492q-1.612-2.737-2.073-6.322-.92-7.169 2.766-10.321 1.706-1.461 3.878-1.74 3.51-.45 5.981 2.275 2.544 2.786 3.225 8.087a23.2 23.2 0 0 1-.109 6.7l-.137.199q-1.538-.278-3.531-.133l-.123-.11-.104-.81.1-.153q1.29-.207 1.779-.381 1.288-1.91.873-5.151-.43-3.338-2.32-5.02-1.891-1.684-4.717-1.322-3.821.49-5.431 4.131-.861 1.94-.473 4.96a13.9 13.9 0 0 0 1.791 5.228zm6.31 1.902c-2.465.108-4.332 1.09-5.637 2.949s-1.91 4.37-1.772 7.524c.146 3.339 1.01 5.893 2.56 7.756 1.597 1.916 3.714 2.84 6.366 2.724 2.343-.102 4.136-1.123 5.394-2.998 1.237-1.847 1.79-4.361 1.65-7.58-.098-2.25-.477-4.141-1.148-5.655-1.478-3.325-3.957-4.871-7.413-4.72m.845 4.227c1.222-.053 2.321.097 3.326.515 1.958.81 2.996 2.59 3.116 5.329.09 2.075-.473 3.689-1.652 4.817-1.178 1.127-2.82 1.744-4.904 1.836-1.337.058-2.536-.13-3.628-.562-2.059-.816-3.115-2.576-3.23-5.204-.095-2.167.484-3.796 1.766-4.942 1.24-1.107 2.986-1.692 5.206-1.789m7.133 38.98-.108-.139q0-1.634-.68-1.841-.378-.111-1.64-.166a66 66 0 0 0-2.709-.042h-3.323q-3.204 0-4.575-1.62-1.813-2.145-1.813-6.119 0-3.627.939-5.663.798-1.717 2.266-2.242.939-.333 4.899-.333h2.784q2.568 0 3.345-.18.312-.07.399-.47.043-.208.108-1.62l.108-.139h.723l.107.139q-.064 1.329-.064 4.264 0 2.99.064 4.25l-.107.139h-.723l-.108-.139q-.065-1.411-.108-1.62-.086-.4-.4-.47-.776-.18-3.344-.18h-2.223q-4.08 0-4.996.47-1.813.942-1.813 4.638 0 2.424.928 3.78.443.637.896.886.454.25 1.402.388.885.124 1.792.124h2.244q2.827 0 3.863-.027.97-.028 1.262-.166.216-.111.335-.485.098-.318.162-1.703l.108-.138h.723l.107.138a46 46 0 0 0-.064 2.478q0 .955.064 3.67l-.107.138zm-.282 23.497-.107-.153q-.05-1.414-.09-1.621-.083-.403-.395-.475-.775-.189-3.343-.215l-4.38-.046q-4.845-.05-6.314.114l-.096-.18q.222-1.563.316-2.365 3.286-3.675 11.98-12.544l-7.057-.073q-2.567-.027-3.347.145-.313.067-.404.466-.045.208-.125 1.62l-.109.136-.734-.007-.095-.14a73 73 0 0 0 .064-6.16l.099-.138.733.008.107.14q.05 1.412.09 1.62.083.403.395.475.775.189 3.343.215l5.708.06q2.568.027 3.346-.145.314-.066.404-.467.045-.207.125-1.619l.11-.137.733.008.096.14a61 61 0 0 0-.058 5.607q-5.232 4.929-11.225 11.595l6.312.066q2.568.027 3.346-.145.314-.066.405-.467.045-.207.124-1.618l.11-.137.733.007.096.14a71 71 0 0 0-.095 2.948 71 71 0 0 0 .03 3.212l-.098.138zm-.648 19.228a9 9 0 0 0-1.636-.29l-1.796-.147-.098-.145.058-.87.107-.146q1.383.022 1.625-.044.442-.137.565-.85.05-.274.206-2.595l.123-1.851q-.375-.053-2.991-.228l-6.115-.408q-2.562-.17-3.35-.043-.316.048-.43.443-.056.204-.215 1.61l-.117.13-.721-.048-.099-.145q.156-1.365.349-4.25.197-2.957.22-4.26l.104-.118.733.05.098.145q-.03 1.413 0 1.623.06.405.367.496.763.232 3.325.403l6.116.408q2.659.176 2.995.158l.132-1.975q.165-2.474.074-2.895-.05-.226-.14-.315-.165-.136-.676-.253a10 10 0 0 0-1.165-.203l-.099-.145.058-.87.118-.145 1.843.095a10 10 0 0 0 1.615-.059l.1.132q-.162.807-.504 5.933l-.374 5.594q-.315 4.725-.288 5.947zm-3.538 20.655q-1.894-2.565-4.744-5.726-1.608-1.782-2.1-2.025-.262-.132-.783-.226l-1.05-.19q-3.112-.563-3.507-.38a.5.5 0 0 0-.247.278q-.136.328-.441 1.651l-.131.117-.711-.128-.082-.156q.308-1.337.822-4.184.527-2.916.695-4.208l.117-.106.722.131.082.155q-.177 1.347-.165 1.701a.5.5 0 0 0 .135.348q.306.309 3.417.87l1.253.227q.404.073 3.614-1.555 3.271-1.66 4.536-2.768.612-.537.72-.742.109-.206.254-1.01l.144-.128.595.107.092.157q-.09 3.417-.049 4.395-.393.66-.919 1.143-1.09.998-4.49 2.396l-3.105 1.282q.864.985 3.503 3.798l1.84 1.894q.305.309.845.843l-.36 1.989-.13.117zm-170.719 25.669q-.54.612-.972 1.347l-.914 1.553-.174.025-.759-.43-.084-.16q.622-1.236.667-1.483.07-.458-.52-.879-.225-.165-2.247-1.313l-1.613-.917q-.21.315-1.506 2.595l-3.027 5.329q-1.268 2.232-1.496 2.997-.094.306.212.58.16.14 1.355.894l.067.162-.357.629-.174.025q-1.16-.733-3.675-2.163-2.577-1.463-3.74-2.05l-.06-.146.362-.638.174-.025q1.26.641 1.462.706.39.123.606-.114.54-.587 1.809-2.82l3.027-5.329q1.317-2.317 1.446-2.629l-1.721-.978q-2.155-1.224-2.575-1.326-.225-.052-.345-.01-.194.09-.521.498-.368.45-.69.961l-.173.026-.759-.43-.079-.17.888-1.618q.37-.682.65-1.48l.16-.032q.658.497 5.124 3.034l4.875 2.77q4.117 2.34 5.23 2.847zm14.625 14.762q-.627 1.476-1.042 3.418l-.158.077-9.83-2.165q-2.464-.525-3.493-.68l-.112-.134.063-.295.094-.112q1.108-.282 1.216-.392.165-.174.449-1.371l.545-2.355 1.142-5.35q.537-2.512.523-3.31-.003-.32-.377-.488-.194-.085-1.562-.444l-.113-.134.153-.718.156-.066q1.354.356 4.21.965 2.547.543 9.695 2.003l.131.117-.426 1.133q-.2.543-.325.924l-.304.961-.16.088-.785-.168-.113-.135q.293-1.437.132-1.681-.117-.18-1.406-.543a37 37 0 0 0-2.277-.575 40 40 0 0 0-2.398-.435q-.385 1.077-.805 3.04l-.466 2.184q1.059.28 1.722.423l1.776.368q1.248.255 1.442.142.257-.143.588-1.364l.158-.077.84.18.112.134q-.306 1.17-.516 2.152-.228 1.065-.443 2.344l-.156.066-.907-.194-.113-.134q.26-1.214.09-1.487-.167-.273-1.248-.581a28 28 0 0 0-1.75-.429 31 31 0 0 0-1.852-.34l-.687 3.218q-.296 1.383-.504 2.695l1.841.393q3.954.845 4.899.792a.47.47 0 0 0 .241-.07q.167-.118.393-.578l.604-1.239.16-.087.826.176zm25.395-9.09-.158.098q-1.414-.02-1.624.01-.405.06-.494.37-.227.765-.383 3.327l-.266 4.373q-.294 4.836-.203 6.312l-.186.086q-1.549-.3-2.345-.435-3.507-3.467-11.925-12.595l-.429 7.044q-.156 2.564-.023 3.35.05.315.445.427.206.056 1.61.206l.132.116-.044.732-.144.089a73 73 0 0 0-6.15-.374l-.132-.105.044-.733.145-.1q1.413.022 1.624-.008.405-.063.494-.37.226-.765.382-3.328l.347-5.698q.156-2.563.023-3.35-.05-.315-.445-.427-.205-.056-1.61-.206l-.132-.116.044-.732.145-.089a61 61 0 0 0 5.597.34q4.659 5.473 11.016 11.795l.383-6.301q.156-2.564.024-3.35-.05-.315-.446-.427-.204-.056-1.61-.206l-.132-.116.045-.733.144-.088a71 71 0 0 0 2.94.244 72 72 0 0 0 3.21.13l.132.105zm23.672.174-.152.108q-1.411.065-1.62.108-.4.085-.47.4-.18.776-.18 3.344v4.381q0 4.845.18 6.312l-.18.097a112 112 0 0 0-2.368-.29q-3.71-3.248-12.668-11.849v7.057q0 2.568.18 3.345.07.313.47.4.21.042 1.62.107l.14.108v.734l-.14.097a73 73 0 0 0-6.16 0l-.139-.097v-.734l.139-.108q1.411-.065 1.62-.108.4-.086.47-.399.18-.777.18-3.345v-5.708q0-2.568-.18-3.345-.07-.313-.47-.4-.208-.042-1.62-.107l-.139-.108v-.734l.139-.097a61 61 0 0 0 5.607 0q4.984 5.18 11.713 11.103v-6.312q0-2.568-.18-3.345-.07-.313-.471-.4-.208-.042-1.62-.107l-.138-.108v-.734l.138-.097a71 71 0 0 0 2.949.065q1.785 0 3.212-.065l.138.097zm17.07 10.79q-.303 1.576-.304 3.561l-.138.108-10.065-.065q-2.52 0-3.558.065l-.139-.108v-.302l.07-.13q1.024-.507 1.107-.636.125-.205.152-1.435l.042-2.417v-5.47q0-2.57-.18-3.346-.07-.313-.47-.4-.21-.042-1.62-.107l-.14-.108v-.734l.14-.097q1.397.065 4.319.065 2.603 0 9.899-.065l.152.086-.18 1.198q-.083.572-.125.971l-.096 1.004-.139.119h-.803l-.138-.108q-.014-1.468-.222-1.673-.152-.15-1.488-.237a37 37 0 0 0-2.347-.087q-1.204 0-2.437.076-.152 1.133-.152 3.14v2.234q1.094.054 1.772.054l1.814-.011q1.275-.01 1.44-.162.22-.195.29-1.457l.139-.108h.858l.139.108a49 49 0 0 0-.056 2.212q0 1.09.056 2.385l-.139.097h-.927l-.139-.108q0-1.24-.221-1.473-.222-.231-1.343-.307a28 28 0 0 0-1.8-.054q-1.01 0-1.883.054v3.29q0 1.415.07 2.741h1.882q4.043 0 4.957-.248a.47.47 0 0 0 .221-.118q.139-.151.263-.648l.333-1.338.138-.119h.845l.152.108zm17.57-1.898q.11 1.778-1.105 3.215-1.06 1.265-2.862 1.96-1.651.642-3.988.787a16.3 16.3 0 0 1-5.757-.683l-.18-.227q.31-1.262.17-3.545l.131-.117.885-.054.13.1.016.248q.038.603.264 1.583.54.66 1.856 1.075a7.7 7.7 0 0 0 2.823.345q2.736-.17 3.694-1.72.492-.797.442-1.617-.085-1.378-1.6-1.88-.75-.245-2.393-.338-3.717-.214-4.92-.81-1.816-.904-1.947-3.026-.137-2.208 1.69-3.64 1.932-1.502 5.525-1.724 3.233-.2 5.273.485l.112.253q-.252 1.302-.21 3.105l-.146.117-.87.054-.145-.1q-.12-1.29-.242-1.671-.46-.48-1.545-.77a7.7 7.7 0 0 0-2.386-.22q-1.851.114-2.882.945-.964.785-.894 1.926.075 1.239 1.26 1.75.768.33 3.567.503.292.015 1.63.116a10 10 0 0 1 1.526.22q1.42.322 2.177 1.12.817.868.901 2.235m17.411-1.187q.152 1.774-1.03 3.239-1.03 1.29-2.815 2.026-1.637.68-3.968.88a16.3 16.3 0 0 1-5.772-.549l-.185-.222q.28-1.27.087-3.549l.128-.119.883-.075.134.097.02.247q.052.603.302 1.577.555.646 1.88 1.031a7.7 7.7 0 0 0 2.83.28q2.732-.233 3.654-1.806.473-.81.403-1.626-.117-1.377-1.643-1.842-.756-.228-2.4-.283-3.72-.128-4.937-.695-1.838-.862-2.018-2.98-.187-2.204 1.605-3.678 1.896-1.548 5.483-1.853 3.228-.275 5.283.363l.119.25q-.223 1.307-.139 3.109l-.142.12-.87.074-.146-.096q-.152-1.287-.281-1.665-.471-.469-1.563-.734a7.7 7.7 0 0 0-2.39-.164q-1.85.157-2.86 1.012-.945.806-.848 1.946.105 1.236 1.3 1.72.776.312 3.578.42.293.008 1.633.078a10 10 0 0 1 1.53.184q1.428.29 2.203 1.068.836.85.952 2.215m19.225-3.358q.117 1.601.635 3.517l-.106.14-9.733 2.565q-2.431.657-3.418.991l-.161-.068-.08-.291.034-.144q.856-.756.903-.903.067-.231-.228-1.425l-.59-2.344-1.428-5.282q-.67-2.478-1.047-3.182-.148-.283-.559-.262-.21.012-1.591.318l-.162-.068-.192-.708.109-.13q1.366-.301 4.186-1.065 2.513-.68 9.54-2.646l.169.044.139 1.203q.069.574.133.97l.168.994-.102.15-.776.21-.161-.068q-.397-1.412-.65-1.556-.187-.106-1.5.159a37 37 0 0 0-2.287.529 40 40 0 0 0-2.333.709q.149 1.134.673 3.07l.583 2.157a38 38 0 0 0 1.724-.41l1.748-.484q1.227-.343 1.348-.532.164-.246-.1-1.482l.106-.14.829-.225.161.068q.263 1.182.524 2.15a57 57 0 0 0 .676 2.288l-.108.13-.896.242-.161-.068q-.324-1.199-.599-1.364t-1.376.053a28 28 0 0 0-1.752.418q-.975.264-1.803.543l.859 3.177q.368 1.365.782 2.628l1.817-.491q3.903-1.056 4.72-1.533a.47.47 0 0 0 .183-.173q.094-.181.085-.693l-.028-1.379.102-.15.815-.22zm18.361-9.484q.526 1.517 1.521 3.235l-.066.162-8.742 4.988q-2.181 1.263-3.047 1.84l-.174-.025-.151-.261-.005-.147q.633-.953.64-1.106.005-.24-.588-1.318l-1.175-2.113-2.742-4.734q-1.287-2.222-1.832-2.804-.216-.236-.607-.11-.202.067-1.456.718l-.174-.024-.367-.635.07-.153q1.244-.645 3.771-2.109 2.253-1.304 8.534-5.016l.175-.002.445 1.127q.214.536.378.903l.42.917-.061.172-.695.402-.174-.024q-.747-1.263-1.03-1.336-.207-.054-1.406.54-1.2.596-2.074 1.101a40 40 0 0 0-2.071 1.287q.435 1.057 1.441 2.793l1.12 1.933a37 37 0 0 0 1.56-.841l1.564-.918q1.098-.649 1.165-.862.095-.28-.478-1.406l.066-.163.742-.43.174.024a49 49 0 0 0 1.06 1.942q.548.943 1.244 2.036l-.071.153-.803.465-.174-.024q-.621-1.074-.93-1.163-.308-.09-1.316.406-.757.377-1.585.856-.875.505-1.602.99l1.65 2.848q.708 1.223 1.433 2.337l1.63-.944q3.497-2.026 4.164-2.698a.47.47 0 0 0 .132-.214q.044-.2-.097-.692l-.383-1.324.06-.172.731-.424z" font-family="Bitstream Vera Sans" font-size="13.038" font-weight="400" style="text-align:center;line-height:125%" text-anchor="middle"/><g fill-rule="evenodd"><path d="M314.938 167.294c-1.15.894-.329 1.33 0 1.92 1.812 3.26 2.57 6.247.9 8.82-.49.753-.619 1.212 0 1.8h7.56c.618-.588.488-1.047 0-1.8-1.671-2.573-.733-5.56 1.08-8.82.328-.59 1.15-1.026 0-1.92zm.9 14.22v2.58h7.74v-2.58zm.96 4.5v46.618c3.33.31 5.003.24 10.86.24l23.818.06c2.078-2.026 5.376-4.231 8.34-5.04h-37.199v-1.26h10.8v-2.58h2.52v2.58h48.958v-2.46h-44.098v-4.14h-12.24v4.14h-5.94v-38.158h-5.82zm10.26 25.019v2.76h15.119v-2.76h-15.12zm1.5 4.32v2.82h4.919v-2.82h-4.92zm7.319 0v2.82h4.92v-2.82zm34.799 12.54c2.977.811 6.327 3.056 8.22 4.98l6 .06v-5.04zm-5.4 1.32c-4.796 0-8.814 1.817-12 4.8h-25.619c-18.254 0-36.892-1.39-46.918-3.48l-.06 3.84c10.63 2.215 28.514 3.6 46.978 3.6h22.62a13 13 0 0 0-.78 1.56h-1.56v3.84h.48a27 27 0 0 0-.24 1.98h-.24v3.719h.42c.081.528.163 1.048.3 1.56h-28.68c-25.355 0-48.409-.92-64.197-6 1.046 4.118 3.888 7.91 9.06 11.22h86.096c3.176 4.638 8.157 7.68 14.34 7.68s11.085-3.043 14.28-7.68h24.839c1.956-1.554 3.03-3.174 3.3-5.22h-25.8l.3-1.56h1.26v-3.72h-1.08l-.24-1.98h1.32v-3.84h-2.46l-.78-1.56h25.44v-3.96h-28.44c-3.203-2.978-7.147-4.8-11.939-4.8zm-84.177 6.84v4.8c1.673.223 3.527.4 5.46.6v-4.56c-1.917-.273-3.78-.538-5.46-.84m7.5 1.08v4.56c1.667.157 3.532.34 5.34.48v-4.32c-1.865-.2-3.617-.494-5.34-.72m7.38.9v4.26c1.823.128 3.534.251 5.46.36v-4.14a291 291 0 0 1-5.46-.48m7.439.6v4.08c1.769.09 3.573.167 5.4.24v-3.96a339 339 0 0 1-5.4-.36m7.44.48v3.96c1.792.062 3.516.075 5.34.12v-3.84c-1.811-.063-3.562-.151-5.34-.24m7.44.3v3.84c1.802.035 3.589.044 5.4.06v-3.84c-1.819-.023-3.595-.01-5.4-.06m7.38.12v3.84h5.4v-3.84h-3.42c-.66 0-1.32.003-1.98 0m7.439 0v3.84h5.46v-3.84zm7.44 0v3.84h5.4v-3.84zm44.878 0v3.84h5.4v-3.84zm7.44 0v3.84h5.4v-3.84zm7.44 0v3.84h5.34v-3.84zm-119.216 3.3v4.799c1.777.168 3.613.288 5.46.42v-4.62c-1.925-.198-3.779-.378-5.46-.6zm7.5.78v4.619c1.77.114 3.513.214 5.34.3v-4.5c-1.805-.14-3.67-.261-5.34-.42zm7.38.66v4.319c1.803.075 3.61.127 5.46.18v-4.14a367 367 0 0 1-5.46-.36zm7.439.42v4.199c1.786.044 3.578.033 5.4.06v-4.02c-1.818-.074-3.638-.147-5.4-.24zm7.44.36v3.959c1.763.02 3.548.052 5.34.06v-3.9c-1.82-.045-3.55-.055-5.34-.12zm7.44.18v3.839h5.4v-3.78c-1.82-.016-3.59-.023-5.4-.06zm7.38.12v3.719h5.4v-3.72h-3.42c-.663 0-1.318.003-1.98 0zm7.439 0v3.719h5.46v-3.72zm7.44 0v3.719h5.4v-3.72zm44.878 0v3.719h5.4v-3.72zm7.44 0v3.719h5.4v-3.72zm7.44 0v3.719h5.34v-3.72zm-46.139 10.499h22.14c-2.788 3.133-6.438 5.1-11.04 5.1s-8.33-1.967-11.1-5.1"/><path stroke="#000" stroke-width=".131" d="m392.688 342.25-1.25.219-.094 1.406-.938.344-1-1.031-1.094.656.375 1.375-.75.594-1.28-.594-.813.969.844 1.156-.5.844-1.407-.157-.437 1.219 1.187.781-.187.969-1.375.344v1.281l1.375.344.187.969-1.187.78.437 1.22 1.406-.157.47.875-.813 1.125.812.969 1.281-.594.75.625-.375 1.344 1.094.656.969-1 .938.344.125 1.375 1.25.219.562-1.281h1l.563 1.28 1.25-.218.125-1.375.937-.344.969 1 1.094-.656-.375-1.344.75-.625 1.28.594.813-.969-.812-1.125.469-.875 1.406.156.437-1.218-1.187-.781.187-.97 1.375-.343v-1.281l-1.375-.344-.187-.969 1.187-.781-.437-1.219-1.406.156-.5-.843.843-1.156-.812-.97-1.281.594-.75-.593.375-1.375-1.094-.656-1 1.03-.938-.343-.094-1.406-1.25-.219-.562 1.313h-1zm1.062 2.406c4.042 0 7.313 3.302 7.313 7.344a7.31 7.31 0 0 1-7.313 7.313 7.31 7.31 0 0 1-7.313-7.313c0-4.042 3.271-7.344 7.313-7.344zm0 .875c-3.56 0-6.437 2.91-6.437 6.47a6.43 6.43 0 0 0 6.437 6.437 6.43 6.43 0 0 0 6.437-6.438c0-3.56-2.877-6.469-6.437-6.469zm0 1.738c2.6 0 4.699 2.132 4.699 4.731 0 2.6-2.1 4.7-4.699 4.7-2.6 0-4.699-2.1-4.699-4.7s2.1-4.73 4.699-4.73zm0 .762a3.985 3.985 0 0 0-3.968 3.968c0 2.18 1.79 3.939 3.968 3.939s3.968-1.76 3.968-3.939a3.985 3.985 0 0 0-3.968-3.968zm0 .955a3.016 3.016 0 0 1 3.013 3.013c0 1.663-1.35 2.984-3.013 2.984s-3.013-1.321-3.013-2.984a3.016 3.016 0 0 1 3.013-3.013z" transform="matrix(1.91994 0 0 1.91995 -391.959 -476.61)"/><path d="M286.259 176.354c-.83 6.41.107 8.986-.84 12.6-2.78-1.035-5.32-.655-7.98-4.92.916 4.15 4.667 4.27 7.86 6.9v7.92c-3.998-1.579-7.6-1.225-11.22-3 2.172 2.097 7.098 2.656 11.22 4.92v7.439c-3.625-.662-5.907-.311-9.18-1.5 2.031 1.688 5.104 1.438 9.18 3.06v12.9h-2.145v-7.02c-.095-4.324-3.753-4.395-6.975-4.74-2.913-.312-4.958-3.065-3.06-5.82 1.464-2.126 3.744-1.762 5.28-.78 1.038.664 2.488.167 2.94-.48.62-.887-.34-1.782-1.32-2.34-1.167-.663-2.133-.96-3.48-.96-1.33 0-3.333-.31-4.38-1.32-.638-.616-2.878-2.988-.78-5.7 1.244-1.607 4.699-1.38 6.367.32 1.009 1.029 2.921.938 3.23.392.585-1.038.179-2.243-.957-3.172-2.234-1.826-4.458-2.67-5.58-5.34-.586-1.393.119-3.296 1.2-4.08 1.367-.99 4.307-1.264 5.22 1.5.431 1.307 1.155 2.169 1.98 1.44.757-.669.37-2.285 0-3.36-.822-2.382-1.082-3.41-.72-5.34.463-2.47 2.653-3.12 4.14-3.12s3.676.65 4.14 3.12c.361 1.93.101 2.958-.72 5.34-.371 1.075-.758 2.691 0 3.36.824.729 1.548-.133 1.98-1.44.913-2.764 3.852-2.49 5.22-1.5 1.08.784 1.785 2.687 1.2 4.08-1.123 2.67-3.346 3.514-5.58 5.34-1.137.93-1.543 2.134-.958 3.172.309.546 2.221.637 3.23-.391 1.669-1.7 5.123-1.928 6.367-.32 2.098 2.71-.142 5.083-.78 5.7-1.047 1.01-3.05 1.319-4.38 1.32-1.346 0-2.312.296-3.48.96-.98.557-1.94 1.452-1.32 2.34.452.646 1.902 1.143 2.94.48 1.537-.983 3.816-1.347 5.28.78 1.898 2.754-.147 5.507-3.06 5.819-3.222.345-6.88.416-6.975 4.74v7.02h-2.144v-12.9c4.075-1.622 7.148-1.372 9.18-3.06-3.274 1.189-5.556.838-9.18 1.5v-7.44c4.121-2.263 9.047-2.822 11.22-4.92-3.621 1.776-7.223 1.422-11.22 3v-7.92c3.192-2.63 6.943-2.75 7.86-6.9-2.66 4.266-5.2 3.886-7.98 4.92-.948-3.613-.01-6.188-.84-12.6zm24.299 82.798c-5.474 2.75-4.573 7.123-4.14 11.64-3.66-4.919-8.164-3.94-11.04-1.92 3.835 2.404 4.447 5.898 6.24 9.06 1.177 2.074 2.97 3.87 7.2 4.26v2.28h-37.619v3.779h37.619v2.28c-4.23.39-6.023 2.185-7.2 4.26-1.793 3.16-2.405 6.655-6.24 9.06 2.876 2.02 7.38 2.998 11.04-1.92-.433 4.516-1.334 8.89 4.14 11.64 5.474-2.75 4.572-7.124 4.14-11.64 3.66 4.918 8.163 3.94 11.04 1.92-3.836-2.405-4.447-5.9-6.24-9.06-1.178-2.075-2.97-3.87-7.2-4.26v-2.28h33.599c.57 6.83 4.233 12.725 10.2 13.32 2.267 1.094 5.328 1.881 7.379 1.98 2.437.117 4.85-.31 7.02-1.02 4.34-1.42 8.144-4.274 8.34-8.34.147-3.08-.332-5.673-2.64-7.8 1.9-2.33 3.01-4.555 2.64-7.86-.454-4.047-4-6.92-8.34-8.34-2.17-.71-4.583-1.137-7.02-1.02-2.051.099-5.112.886-7.38 1.98-5.948.594-9.612 6.506-10.2 13.32h-33.598v-2.28c4.23-.39 6.022-2.185 7.2-4.26 1.793-3.16 2.404-6.654 6.24-9.06-2.877-2.02-7.38-2.998-11.04 1.92.432-4.516 1.334-8.89-4.14-11.64zm0 8.94c.77 2.039.83 4.7.84 9.48 2.13-.097 3.787-4.573 7.26-4.98-3.56 2.099-3.334 6.84-8.1 6.84-4.767 0-4.54-4.741-8.1-6.84 3.472.407 5.13 4.883 7.26 4.98.01-4.78.069-7.441.84-9.48m53.038 4.14c2.07-.122 4.153.175 6 .78 3.694 1.207 6.275 3.655 6.36 5.82.113 2.918-.666 4.633-3 6.36l-1.26 1.199 1.26 1.14c2.008 1.848 3.34 3.305 3 6.36-.24 2.154-2.666 4.612-6.36 5.82-3.576 1.169-7.968 1.108-11.64-.6-2.14-2.678-5.098-5.254-4.98-9.42 2.419-.457 8.276-.46 11.04-3.3-2.764-2.84-8.621-2.903-11.04-3.36-.117-4.166 2.84-6.742 4.98-9.42 1.775-.826 3.703-1.266 5.64-1.38zm-53.038 21.059c4.766 0 4.54 4.74 8.1 6.84-3.473-.408-5.13-4.884-7.26-4.98-.01 4.78-.07 7.44-.84 9.48-.771-2.04-.83-4.7-.84-9.48-2.13.096-3.788 4.572-7.26 4.98 3.56-2.1 3.333-6.84 8.1-6.84"/></g></svg>