<svg xmlns="http://www.w3.org/2000/svg" xmlns:xlink="http://www.w3.org/1999/xlink" width="600.51" height="531.59"><g transform="translate(.5 .202)"><path fill="#ff0" stroke="#000" stroke-width="1.004" d="M.002.299h599.51v530.59H.002z"/><path stroke="#000" stroke-width="1.004" d="M299.81 1.5h.1zm.03.094L29.16 530.884h541.4z"/><g id="a" fill="#ff0030"><path d="M137.815 135.167c13.528-2.712 27.583-14.709 27.243-30.026-.31-6.302-2.245-4.571-2.76-9.348 1.311-11.44-11.068-18.29-17.94-21.659-3.865-.404-5.875 1.192-12.297.797 4.374 1.98 7.515 3.57 7.378 5.155l-3.638-.395s-2.164 2.76 9.378 4.76c-3.624 3.587-5.74 3.57-9.836 2.777-5.33-1.585 14.574 6.92.835 16.727-.42 7.819 12.412-1.29 14.944 12.12 1.166 5.72-7.707 13.694-13.307 19.092"/><path d="M149.278 118.372c-.422 3.723-11.476 16.264-19.677 20.231-8.603 2.777-19.674-3.967-21.31-7.935-2.22-4.807-2.58-12.536-.412-15.702.72-1.213 8.59-10.386 13.12-11.076 11.045-1.688 9.014.99 13.521.399 0 2.378.823 4.164 2.464 4.957 1.636.793 3.684 0 7.58 1.191 1.23.394 5.29 2.845 4.714 7.935m5.797 10.407c-5.674 14.979-28.044 23.916-40.868 22.3 6.667-6.452 11.885-4.91 22.318-13.885 4.058-.562 14.035-4.096 18.55-8.415m-11.013-56.947c1.449-1.403-.287-3.647-3.766-5.33s-5.51-1.122-6.959-1.122c-7.536-2.104-3.041-1.964-10.578-6.593-1.594 1.029-7.97 5.284-10.287 7.714-.193 19.262 5.021 19.262 5.797 32.54 1.64-2.43 1.542-8.505 3.188-14.585 3.282 4.58 5.99 4.674 8.984 8.415 0-2.245 1.157-2.245 1.74-3.368.385 1.778 4.25 4.117 6.375 7.575 1.255-5.283-7.635-9.165-6.667-12.344 2.61-.094 5.797 1.5 9.276.562-9.276-2.897-6.088-3.835-8.697-6.453 1.448-.278 1.74-.493 3.684-.278-3.77-2.245-7.553-3.282-7.45-4.769 0-2 .77-3.928 1.156-5.892.583 1.776 1.53 3.248 2.665 4.536.977 1.244 5.866 1.326 6.509.794 1.55-1.52.394-2.992-1.924-5.61 3.766 1.122 5.214 5.61 6.954 4.208"/><path d="M137.54 99.323c-.578 1.401-2.609 2.524-4.348 3.085-1.157-1.684-11.881-1.123-11.594-1.123 1.161-3.226 1.74-6.73.87-12.763 1.74 1.405 5.942 4.07 9.13 9.679.87-1.684 0-2.807.87-5.048 1.208 2.151 4.734 4.02 5.073 6.17m-.436 49.092c-.579 12.999-8.115 19.824-9.272 19.357-2.948.137-3.865-2.806-13.188-2.948 4.25-3.273 10.532-10.47 11.594-12.904 2.172-.326 5.214-.373 10.866-3.505m49.148 7.969c.633-3.86-.993-5.583-9.246-6.5-6.985-2.099-5.513-2.707-9.86-2.939-5.13-.291-7.328 4.979-29.224 7.897-.103 2.446-1.307 5.205-4.306 9.001 7.288-1.512 10.997-4.46 15-5.582 1.883-.137 1.108 3.282 2.992 4.267.869-1.872-.29-6.015 1.158-6.341l8.069-2.468c.68 3.655-1.021 5.827-2.846 9.79 4.477-.411 5.698-4.13 5.217-10.017 3.865.356 6.16.081 6.039.48 1.208.792 6.135 8.085 5.217 9.674 2.27-.578 3.045-1.662 3.142-3.954.193-.982-2.616-2.888-4.74-6.114 4.664-.51 8.805 1.002 13.388 2.806m-62.388-4.096c-12.09 15.54-20.068 16.83-23.44 21.885-1.273 2.027-2.896 3.59-3.818 3.903-2.664.133-6.353.065-7.99-.197-2.052-2.647.206-4.498.613-6.546.068-3.308-1.504-4.829-.819-7.537 1.911 1.256 3.826 2.91 6.761 2.575-.407-3.17-3.072-2.973-2.46-6.148-2.39-2.776-1.79-4.28-1.927-5.471 13.869 1.645 19.049-2.233 21.637-1.95 1.928.193 6.68.669 11.443-.514m-22.373 24.156c6.654 15.981 13.068 21.992 16.692 25.566 1.813 1.765 8.15.158 11.406.342 6.032.296 5.784 3.192 6.272 5.399-3.428-.399-4.362-2.314-6.692-2.245-3.214.441-4.855.287-7.28.428-1.786-.505-2.66-.325-3.989-.492.103 1.623 5.288 4.194 7.931 6.29 1.375 2.154.24 4.035-.437 4.652-1.457-1.148-1.718-1.045-3.303-1.577-.065-3.757-3.59-3.873-6.076-7.125-3.076 1.796-5.518.442-7.365-1.058-1.546.831-3.046 5.257-7.215 8.222-1.122-1.79-.647-2.382-.655-3.518 2.42-1.542 4.918-4.091 6.276-7.497 1.179-5.052-1.28-7.837-2.566-9.572-2.51 2.455-3.629 3.398-7.524 2.562 3.287-1.752 5.048-2.515 5.823-4.546-1.444-1.88-5.3-6.452-10.883-11.606 2.665-.442 5.202-.266 6.389-.917 1.276-.532 2.198-2.215 3.196-3.308M142.37 61.522c-.471-1.462-2.828-2.785-5.617-4.388-.968.942-1.062 1.603-1.88 2.264 2.596.662 4.9 1.463 7.497 2.124m-.48.911c-2.707-.748-5.411-1.215-7.827-2.103-1.063 1.121-1.689 2.384-3.042 3.225.964.28 1.64.561 2.755.842.287 0 1.156-.28 1.302-1.403 2.97.211 6.521-.28 6.812-.56m-12.318.42c1.401-1.027 4.25-4.674 5.36-6.45-1.546-.842-3.959-2.946-5.65-3.928-5.22-2.432-4.637.327-8.116.28-5.458.047-8.162 5.845-8.406 11.362 1.838-1.03 3.093-2.338 6.667-4.63 1.302-.84 3.187-2.945 4.781-1.822 1.208 1.309 3.72 2.758 5.364 5.189"/><path d="M136.307 55.631c1.74.7 3.046.841 3.77.28.87-.982 1.448-1.683 1.74-4.348-.917-3.413-3.287-5.704-6.089-9.678-.578-.467-1.885 1.309-3.479 2.244.437-2.968.146-3.834-.578-4.98-1.016-1.73-3.188-5.001-3.62-4.488-.969 1.66.094 5.284-1.016 5.12-2.198.07-1.932-6.872-6.594-8.205-1.114-.328 1.11 6.078-.291 6.171-3.188.561-3.912-6.452-6.954-5.47-2.515.164-5.75 6.359-5.797 8.065-.051 3.974 2.074 7.949 3.912 8.697 3.308 1.776 6.182 2.992 10.797 2.244-.386-2.805 5.167-1.496 6.084-.842 1.5.702 1.984 1.122 3.333 1.964.583-.608 1.161-2.618 1.74-1.824.145 2.525 1.015 3.787 3.042 5.05m-7.952 85.526c-2.597 1.191-9.006 4.974-15.557 3.993 1.092.926 1.898 1.431 2.99 2.357-3.402 3.727-6.272 3.393-10.493 5.038-5.32 1.328-13.898.638-15.274.793.437-3.646-.745-2.64.026-12.952 1.86 3.787 1.996 7.609 6.637 9.571.407-1.058.24-1.975-.078-4.014 1.779 1.19 2.541 4.344 8.955 4.413-.874-2.134-1.74-3.843-3.77-5.836 1.855-1.79 6.465.065 11.362-2.849-5.445.313-9.443-.356-12.858-.887.138-1.85-.017-2.999.699-4.713 2.926 2.22 5.415 1.217 9.139.352 10.685 5.574 13.98 4.558 18.222 4.734m-19.653-6.208c-2.318-2.618-2.897-5.236-3.766-8.137-1.307 2.014-3.188 5.986-3.334 7.717 1.303.608 3.48 2.056 7.1.42"/><path d="M116.384 103.95c-8.167 6.127-10.24 10.005-10.87 11.924-1.063 3.273-.968 5.986-.87 8.136-2.656 2.944-5.313 8.415-5.942 11.92-.964 8.697 3.577 11.22 4.057 12.626-2.027-.377-4.927-3.556-7.536-5.33-.193 1.401.197 2.802.29 4.208-1.4-.891-4.54-8.51-5.072-10.24-2.802-1.076-2.802 13.136-2.026 18.093-.193 1.123 2.802 6.17 4.057 8.698-1.641-.236-4.443-2.995-6.667-6.594 0 2.433-.291 4.863-.87 5.613-1.16-1.873-.372-8.158-2.896-7.858 1.2 9.653-.39 13.093-1.594 22.022-1.208-2.665-.39-13.466-1.885-18.093-1.062-.095-4.443 4.863-6.667 5.608 2.126-4.349 5.99-6.73 6.376-12.202-.579-.887-4.345 4.113-6.954 5.75-1.547 1.032-2.802.377-3.77-.279 4.01-.84 10.338-8.976 11.16-11.782 3.09-9.092 3.317-17.387 17.182-30.257 8.547-7.935 11.174-10.605 20.497-11.963m-23.26 11.843c4.862-5.682.788-21.226-3.69-31.341-3.012-6.539-13.35-19.119-34.019-21.029-14.773-1.081-27.519 5.525-34.43 13.488 1.393-.399 2.708-.977 4.096 0-1.358.411-16.345 13.008-6.967 27.373-2-10 5.635-20.54 13.938-23.8 10.955-4.773 24.152-3.719 36.067 1.191 8.376 3.903 20.703 14.61 21.727 25.784-3.89-8.393-9.838-14.837-12.297-16.662 5.163 9.691 4.687 11.17 4.919 12.695 3.183 4.16 7.87 7.28 10.655 12.3"/><path d="M72.013 65.804c-6.486-6.215-37.982-21.555-43.65-33.324C30 46.63 42.707 52.448 44.348 54.696c-4.58.992-14.074-3.57-21.11-5.356 5.33 5.686 15.575 11.77 18.853 13.489 13.937-3.108 22.956.131 29.922 2.975m8.402 36.698c-3.569-20.583-25.064-22.61-28.363-23.128.955 3.368 3.805 6.513 5.617 8.051-13.663.248-16.864 4.117-24.387 11.11 12.09-6.877 19.683-7.241 27.018-7.258 4.096 6.414 10.895 5.008 20.115 11.225"/><path d="M49.721 79.263c.579.561 3.188 5.891 4.636 7.014-2.318 0-3.62.283-4.781.561-1.496-2.57-2.995-5.141-5.36-7.434 1.546-.325 3.671-.372 5.505-.141m9.563 13.188c.724 1.122 1.453 1.82 2.177 2.665-1.885 0-5.664.124-7.391-.283-.407-1.337-.677-1.26-1.161-1.962 1.255-.189 3.526-.373 6.375-.42m32.404 24.73c-3.483-6.217-16.658-19.088-30.947-20.232-5.887-.44-23.976-1.786-31.354 8.527 10.043-6.941 27.052-5.356 34.837-.596 11.89 1.457 20.086 10.844 24.186 15.87 1.093-1.324 1.367-1.851 3.278-3.57"/><path d="m87.588 121.542-2.455 3.574c-1.097-.93-14.486-16.53-33.407-10.514 3.14-3.175 5.056-4.366 7.378-4.366-.274-.793-3.007-1.586-8.607-1.586 18.513-6.812 30.874 6.217 37.09 12.892"/><path d="M57.875 104.486c-1.71-1.787-16.534-2.776-20.699-.994-10.523 2.845-21.457 12.806-23.363 26.384-4.443 30.694 9.426 42.978 7.378 74.58 5.462-10.446 5.6-17.716 4.507-26.975 5.463 4.297 9.289 8.2 11.067 16.465 3.346-14.216-8.106-20.351-12.502-32.93-4.756-13.604-2.635-26.629-.412-33.522 4.2-13.012 13.664-23.141 34.024-23.008"/><path d="M54.593 110.236c-2.832 1.19-4.29 3.492-6.676 6.756-4.785 4.666-10.115 9.658-10.745 15.857-.926 9.769 1.718 16.221 5.947 19.64 4.576 3.368 9.837 4.893 20.287 1.984-5.874 4.824-8.23 4.837-12.704 4.957-4.507.133-11.89-1.585-19.88-10.514-1.23 9.525 7.785 13.886 7.378 13.886-.411.399-13.937-.792-13.937-22.613 0-19.174 13.252-32.001 26.234-33.72-5.673 2.049-6.011 4.893-5.947 6.941 3.076-3.569 6.56-3.174 10.043-3.174"/><path d="M84.104 126.105c-5.462-5.42-14.284-10.004-21.31-10.71-15.464-1.518-26.372 16.529-23.981 24.99 1.23-2.908 2.46-4.627 4.1-4.76-7.035 12.366 4.302 18.051 7.584 18.45-2.19-2.777-2.734-10.313-1.23-12.695 2.866 2.643 4.096 5.291 7.785 5.158-3.826-2.648-2.73-3.702-4.096-5.557 2.048.399 5.326 3.574 11.067 3.574-4.375-1.984-3.42-8.728-3.282-10.712 2.322.793 2.185 3.57 4.512 5.951-.686-2.909-.138-3.44 0-5.158 2.185 3.835 5.188 4.494 6.555 3.569-2.185-1.585-1.47-5.519-.407-6.345 2.49-1.95 6.555-1.192 9.014 1.585.823-2.314 2.46-5.42 3.69-7.34m-14.139 41.659c-6.08-.467-9.7-1.723-14.143-6.547-9.014.527-14.344-.531-22.133-6.35.274 2.644 5.878 7.67 8.2 8.334-1.504.925-3.008 1.85-4.511 1.186 2.052 4.1 3.281 8.201 3.689 18.252 1.64-2.776 2.257-7.339 1.435-13.29 3.282 1.191 3.076 12.1 3.076 12.1 1.093-3.437 1.367-2.511.818-9.127 4.234 4.893 6.012 12.168 6.56 25.789 4.987-6.877 1.774-20.896.613-25.789 2.459 2.781 12.913 8.53 17.832 3.372-4.1-.394-10.249-3.17-13.12-7.935 5.4 1.191 9.157 1.988 11.684.005"/><path d="M80.008 135.034c-2.19 12.957-7.857 14.85-15.372 16.11 7.523-4.576 11.096-10.347 12.707-14.327-2.185.462-2.733-.66-5.124-1.191-.137-1.453.343-2.91 1.641-2.974 3.278-.133 4.302.926 6.148 2.382"/><path fill="#ff0" d="M129.134 54.79c.917.584.917 2.242.146 2.945-.921.84-2.318.094-1.74-.702.678-.981-.094-2.384 1.594-2.244"/></g><use xlink:href="#a" transform="matrix(-1 0 0 1 598.794 .855)"/><g stroke="#000" stroke-width=".81"><g fill="#ff0"><path d="M344.19 333.59c-2.6-7.04-4.98-14.25-3.04-22.43l5.6 2.59c-4.2-6.32-5.73-14.75-4.18-22.22 1.72.93 5.17 4.1 8.49 5.84-3.94-8.63-1.86-17.25-2.15-25.88l-1.3-5.6 4.44-.13c-6.98-8.21-5.56-21.16-13.36-27.16l4.18-5.48c.91-1.73-.26-3.45-.86-5.18-2.11-4.97-6.29-6.12-9.91-8.06l-4.75 2.03-5.6 5.6c-10.12-2.34-14.36-2.17-18.97-2.15l-5.6 3.02-3.02 3.88-.86 3.88-13.36 6.46c-.5 1.37-1.4 2.87.43 3.45 1.49.68 2.93 1.42 3.57 3.22-.82 1.8-1.31 3.61-.98 5.41.21 1.94.4 3.89 1.74 5.55 15.28-3.85 10.2-5.47 16.04-5.66 3.33.14 4.54.42 6.03 2.16l.88 3.43c-2.48-.38-4.97-.12-7.45-1.6-4.62-.4-8.15 1.75-11.64 3.88-14.6 9.14-44.33-.21-17.66-13.2-18.82-1.27-29.25 24.26-5.67 26.81 10.65.79 12.68-2.68 21.83-5.87 2.68.68 1.98 5.19 3.22 5.37.65 1.67 2.25 2.49 3.7 3.35 4.9-.19 8.8.26 9.67 2.08.84 1.35.33 2.04-.43 2.59-1.51 2.47-3.65 4.3-6.37 5.55-3.14.55-6.29.12-9.43-.1-5.57-3.25-8.01-6.51-10.4-9.76-.15 3.77-.1 8.4 1.32 10.6-4.96-.09-9.54 1.15-13.69 3.9-8.14 4.91-16.16 12.61-23.15 19.43-5.38 2.54-10.59 5.82-16.74 4.87-10.97-5.5-5.21-11.4-3.44-15.09-4.04.22-5.69 3.82-7.31 8.47-.26 3.94-.18 7.34 1.98 10.88 4.49 4.02 7.46 3.8 10.35 4.34 6.97-.32 13.39-1.46 19.55-2.99-4.4 2.52-5.83 3.86-6.22 5.58 15.49 2.4 21.56-3.15 32.33-4.75-2.24 3.24-5.78 6.66-5.42 9.52 18.12.98 32.14-7.44 37.9-8.91-2.37 2.57-4.56 5.1-2.15 6.47 7.85.17 17.76-6.78 19.88-8.77 6.56 3.05 13.43 7.98 21.98 10.78z"/><path d="M262.18 291.24c-13.37-9.52-22.49-21.03-26.08-35.14.72-2.16 2.15-3.88 4.31-5.18l.21-3.01c-1.76-1.11-3.25-2.5-3.88-4.75-.73-3.44-2.93-6.15-4.74-9.05-2.38-2.22-4.65-2.13-6.46-2.37.52 3.52-.04 7.04-.65 10.56-.65 2.94-1.72 5.32-3.23 7.11l3.66 5.18.54 2.37-5.39-.22c-1.13-.73-.94-1.79-.97-2.8l1.08-4.09c-.01-1.76-1.25-2.9-2.37-4.1l-3.45-.22c-3.39-5.04-8.76-3.83-13.79-3.66-.4.75-1.12 1.18-.43 3.02l4.74 4.74.21 7.33c1.49 1.42 3.28 2.59 6.47 2.59 1.96 3.5.82 4.31-1.51 4.09-2.2-.4-2.34-2.44-3.23-3.88-2.31-.91-3.43-.87-4.31-.64l-3.45 3.88c-3.01.36-5.04 1-6.9 2.8.34 2.21 2.15 2.57 3.56 3.45 1.58-.03 2.9.69 4.2 1.51.53 1.24 1.49 2.38 2.59 3.34 2.53-.8 4.93-1.32 6.89-.97 1.85.59 2.1 1.42.22 2.59-3.87-.14-4.97 1.1-6.04 2.37.58 2.3.58 4.17 0 5.6-2.01 3.92-4.02 5.69-6.03 7.98 3.14.17 6.2.19 9.05-.21 1.45-.71 2.93-1.34 4.1-2.59h4.31c.93-1.28 1.87-2.83 2.8-4.96 1.7-.21 3.23-1 6.03 2.37-.17 3.54-.9 6.89-1.94 10.13 2.67.79 4.8-.83 6.9-2.58.86 3.93.21 6.49-.21 9.91 3.16-1.94 5.31-2.58 6.46-1.94l2.37 10.14c8.54-4.9 15.83-15.24 24.36-20.7z"/><path d="M334.18 334.21c-3.07-3.72-7.08-6.25-11.28-8.54-8.71 7.06-19.09 10.75-29.5 11.26 1.43-1.83 3.82-3.44 4.13-6.38-10.43 4.36-22.2 7.16-35.5 6.92.38-2.84 1.85-5.69 3.35-8.53-7.44 2.01-15.12 3.93-29.04 3.13-6.72 5.26-13.47 10.49-28.04 10.98-1.29-.32-.67-1.6-.31-2.74 1.84-.97 3.05-3.2 4.34-5.28-1.26-1.71-2.58-3.36-4.97-3.94-.9-2.91-2.72-5.83-5.05-8.74-1.56-.96-2.69-.47-4.25-.32-.09 3.35-.26 6.7.48 10.04-2.04 1.01-3.72 1.7-4.35 3.84 1.43 2.02 2.92 4.01 5.48 5.18.3 1.41.86 2.93-.21 3.79-2.34 1.21-4.68 1.4-7.01.3-.16-3.28 2.15-7.43-2.44-9.14-5.61-.78-10.81-.33-15.85.61-1.11.02-1.89.69-2.72 1.26-.7.8-.8 1.6-.63 2.4 2.56.53 5.11 1.09 6.83 3.31.93 2.38.22 3.61.03 5.71l2.63 1.19 3.61-.15c3.31 1.83 1.75 3.66.31 5.49-3.05-.72-5.1-1.43-7.01-2.14.42 2.83-.22 4.38-1.22 5.49-3.46 1.21-6.91 1.44-10.37 1.22.7 3.68 4.78 5.95 8.84 8.23 2.57.96 4.37.76 5.79 0 3.39-.17 5.95.26 7.32 1.53.28-1.94.17-3.87 1.52-5.8 1.66-.92 2.88-.49 3.97.31.17 3.19-2.27 4.89-3.97 7.01.09 2.35.39 4.53 2.75 5.18-.96 3.61-1.37 7.03-.61 10.06 5.75-.95 9.94-4.15 13.1-8.84 2.36-1.72 5.01-3.29 4.88-6.4-2.28-1.04-4.75-2.06-3.96-3.66 3.74-3.92 7.76-5.15 12.08-4.2 1.06 3.83-1.8 5.03-3.05 7.32 2.16-.27 3.98-.77 4.99-1.9 3.3-3.85 6.82-7.33 10.97-9.76 1.23.37 1.72 1.23 1.22 2.75l-5.88 5.54c3.56 1.09 6.21-1.12 9.21-2.82 4.07-6.45 7.54-10.29 9.88-9.56 1.92 4.16 6.88 6.68 12.5 8.85l-3.46-7.5c2.75-5.97 11.75-6.74 17.68-10.06 2.66 5.95 7.92 10.72 13.71 15.24 10.39 5.66 28.05 12.13 29.26 16.77-17.12.35-32.72-6.44-49.07-9.75-13.3-1.55-17.7 2.77-21.03 5.18-5.86 7.94-5.53 14.84-8.23 22.26-2.54 1.54-5.08 1.35-7.62.91-6.45-3.86-6.19-8.61-5.56-13.61-4.24 1.36-6.94 6.57-6.7 13.72.38 4.81 3.28 7.7 7.39 9.65 5.96 2.7 11.64 3.49 16.45-1.53 3.65 2.85 6.3 6.4 7.93 10.67-1 12.64-15.16 18.86-18.9 20.43-1.27-2.13-.34-4.27 0-6.4-.08-2.55-.91-4.73-2.13-6.71l-5.79-.3c-2.87-5.08-7.71-2.67-11.89-2.75 1.46 2 3.62 3.4 4.05 6.42-.52 3-2.37 3.77-3.66 5.49 4.23 4.1 6.4 6.35 7.77 7.87.72 2.74-.74 2.42-1.67 2.68-1.87 1.4-4.88-2.84-7.32-4.27-2.04-.16-4.08.73-6.13 2.29-7.53.5-9.01 5.36-11.63 9.4 3.54.11 7.11-.53 9.84.67 2.59 2.36 5.1 4.7 4.88 6.22 2.6.27 4.55-.91 6-3.23 3.26-.32 4.16.42 4.27 1.53-4.07 2.02-7.2 4.09-6.7 6.4l2.74 3.96c-1.06 2.95-.98 5.9-.61 8.84 1.01 2.72 1.7 2.51 2.44 2.75 3.3-4.87 4.4-5.71 6.09-7.62 5.71-1.41 6.63-5.58 4.88-11.28 1.48-3.28 4.11-2.81 6.71-2.44.24 3.15-.2 6.31-1.38 9.47 1.42 1.85 2.17 1.93 4.17 2.34-.5 3.58-1.02 6.82.45 10.12 6.29-.85 6.09-6.03 8.53-9.45 1.87-1.98 2.05-5.19 1.9-7.46l-3.92-6.24c2.27-4.86 7.11-5.76 13.11-4.88-1.45 2.54-.42 5.08-.31 7.62 3.3 2.9 6.44 6.64 9.45 10.98.7-2.1 1.88-3.82 1.52-6.71-2.7-3.24-5.25-6.43-4.57-8.54.21-4.87 2.79-4.98 4.57-6.71-.87 3.15-.55 6.31 0 9.46.14 2.54 1.55 4.38 4.27 5.48 5.69-1.52 8.69.32 12.19 1.53-.29-2.56-2.3-4.73-5.18-6.71-4.83-1.7-3.71-4.51-4.27-7.01-.38-3.54.53-4.06.92-5.79 2.27 2.22 2.35 6.2 3.35 9.45 5.85 3.2 8.83 3.54 12.19 4.27 1.01-.82 1.03-1.97.31-3.36-2.32-1.71-4.91-2.76-6.71-5.79-2.26-3.42-1.08-4.95-.3-6.71 4.87-1.72 10.01-3.18 10.45-6.29 3.06-3.77 4.2-8.45 4.57-13.42-1.66-5.19-4.12-8.84-8.93-8.03.92 3.25 2.51 6.5 1.83 9.75.85 4.72-1.8 5.58-3.66 7.32.26-1.94.28-3.83-.61-5.49-4.32-6.7-9.47-13.23-8.83-21.04 1.71-4.27 5.14-4.52 8.53-4.87l19.18-.54c6.02-3.55 11.28-4.07 16.77-5.49-6.03 10.93-13.5 21.69-15.22 33.16.33 6.3 1.27 11.89 3.04 16.47 3.22 5.39 1.79 7.69 1.83 10.97-2.83 1.34-7.39-.42-11.58-1.52-.98 4.21 3.29 6.26 7.01 8.53 6.18-.12 7.73-1.17 9.75-2.13 3.77-3.3 4.52-8.11 4.88-13.11 9.45 1.34 18.47.84 27.92.18-.36 9.04-8.42 18.09-13.72 27.13-1.87.46-3.37.43-3.53-1.39l.91-2.14c.4-1.64-.18-2.89-1.22-3.96-6.24-.5-12.38-1.37-19.18.05-1.33 1.28-2.52 2.55-2.44 3.82 3.79 1.86 6.45 3.72 8.52 5.58.41 1.72.85 3.39 1.83 4.27l6.4.91c.7 1.73 1.05 3.46.61 5.19-2.74-.02-5.16-.98-7.62-1.83-1.41 1.67-3.39 3.26-1.22 5.48-2.85 1.91-3.69 3.57-4.27 5.19-.85 3.76-.57 6.85 0 9.75.27 2.14 1.65 2.61 3.05 3.05 3.41-3.94 6.44-7.32 7.01-7.01 2.37-2.68 3.95-1.82 5.79-2.13.97-2.99 1.1-7.31 3.35-8.24 1.2.15 2.62-.15 2.44 2.75-2.47 2.03-2.8 4.06-3.66 6.1 3.33 2.57 5.66 5.03 6.4 7.31 4.2 2.95 7.94 4.52 11.28 4.88-.98-3.75-1.3-7.27-3.05-11.28 2.4-1.31 1.88-2.99 2.14-4.57-.45-1.44-.94-2.88-3.36-4.88-1.39.45-1.54-1.26-1.82-2.74 2.97-2.16 4.52-.91 6.09.3.8 1.38.98 2.56.92 3.66-.99 1.42-.4 2.84.3 4.27 2.11.38 4.49-.06 5.79 2.74-.59 4.04-.14 6.71 2.14 7.01 1.91-.93 3.19-2.82 3.96-5.48 1.3-5.19 1.64-10.7 1.22-16.47-1.8-1.68-3.77-3.03-6.71-2.44-1.48-1.72-.71-3.12 1.83-4.27 3.99-.69 5.53-2.79 7.62-4.57 1.93 1.63 4.72 7.42 6.65 6.39 3.66.15 4.4 3.34 5.19 3.66l-.26-7.31c-3.58-2.65-6.44-5.8-5.48-11.58l6.7 7.01c4.63.37 4.68 3.91 5.79 6.71 2.12-.75 2.96-3.04 3.66-5.49-3.36-4.67-6.54-9.4-7.92-14.63-1.19-4.82 1.27-4.38 2.43-5.8.87 5.74 3.28 9.61 7.01 11.89 4.15 1.22 7.98 1.65 10.98 0 4.76-4.88 9.2-9.95 9.45-17.38-7.1 4.96-15.35 17.58-19.51 3.05-.65-3.81.49-7.11 1.83-10.36.39-4.62-.18-9.43-1.22-14.33 2.7.03 4.88 1.62 7.01 3.35.96 2.18 1.5 4.79 2.2 7.23 1.09-3.27 2.32-6.48 1.46-10.58-3.36-6.77-8.49-10.1-16.16-8.54-9.77 2.14-17.71 5.65-27.61 8.52-4.67-3.3-3.44-9.45-1.34-16.14 9.58-.93 15.7-5.51 20.42-11.59 2.12-6.83 2.85-14.29 3.82-22.85-2.24-7.63-3.75-15.25-8.7-22.88-4.75-10.33-4.24-16.78-3.66-23.18 3.48-14.84 10.55-25.33 17.99-35.36 2.88-6.26 5.93-12.35 5.18-21.96-3.79-8.33-12.93-21.55-9.04-23.49.73-3.42 2.98-2.27 5.08-2.12 3.99.05 6.19 2.98 8.84 5.19.57-3.47-3.2-8.14-5.92-12.99-2.24-3.3-5.68-4.88-9.93-5.31-6.59 1.14-7.86 6.26-10.06 10.67-3.08-1.86-6.8-2.82-11.89-1.83-2.67-.14-4.23-2.86-6.1-4.87-.22 4.62.64 9.07 2.14 13.41.74 2.93 1.6 5.8 4.87 7.32l3.66 1.22c-1.31 2.24-4.06 3.52-3.05 7.32 2.37 3.21 4.21 6.58 4.58 10.36-.19 3.17-1.44 5.28-2.75 7.32 3.05.1 6.01.1 7.93-1.22 2.39-.95 3.25-3.13 4.26-5.18-.3-4.98-1.29-9.96 0-14.94 2.7-.54 4.21.7 5.19 2.74 4.3 8.75 2 14.4 1.83 21.04-5.5 13.62-13.6 27.24-20.43 40.86-1.93 5.76-.52 10.96.92 16.16 5.35 10.18 6.46 17.95 7.92 25.91 2.9 7.44.83 14.47.61 21.65.04 2.58-1.08 4.34-3.05 5.49-2.5 1.91-5.47 3.2-8.83 3.96-.61-3.76-.62-7.52-3.97-11.28-9.92-12.39-23.07-25.01-21.33-36.59-.02-5.56-.93-11.42.61-16.46z"/><path d="M285.45 399.79c.1 8.5 10.93 6.27 19.4 4.42-.63 4.36 1.6 5.49 8.08 3.02l7.33-13.69c-4.93 1.31-9.42 1.31-16.49 5.28-6.1.7-11.93.3-18.32.97z"/></g><path fill="#ff0030" d="m301.62 261.38-6.47-.43c-6.32 3.29-12.41 6.53-19.83 7.11-11.76.52-24.56-6.84-10.56-16.71-20.16 7.85-12.73 24.93 8.62 22.43 13.81-5.79 18.83-8.27 28.24-12.4zm-74.57-17.14c2.37-.8 4.74-.86 7.11-.22v-2.04c-1.62-3.56-3.81-6.26-6.58-8.09.22 3.55.38 7.08-.53 10.35zm-15.2 1.94c-1.57 1.96-3.43 2.46-5.28 3.02-.75-2.05-2.09-3.81-3.99-5.28 1.64-.37 3.3-.69 5.5-.22 1.38.45 2.93.41 3.77 2.48zm-12.5 18.54c-.67 1.13-.97 2.18-.21 3.02-1.41.04-2.81.23-4.21-1.4.76-1.43 2.53-1.61 4.42-1.62zm6.57 19.84c1.13 1.26 2.54 2.33 4.53 3.01-1.32.9-2.61 1.88-4.2 1.94-1.27.5-2.76.11-4.31-.53 2.06-1.11 3.04-2.76 3.98-4.42zm-5.4 39.59c-.74 2.08-.67 4.16.61 6.25 1.74.88 2.9.06 4.27-.16-1.02-2.33-2.25-4.56-4.88-6.09zm-26.21 14.33c2.34-1.26 4.67-2.22 7.01-1.07.05 1.5.02 2.96-1.52 3.66-1.57-1.9-3.52-2.29-5.49-2.59zm-3.96 23.47c2.14 1.87 4.43 3.49 7.77 3.36.01-1.27.13-2.54-1.83-3.81zm24.23 14.94c.06 2.5-1 4.43-1.68 6.56 3.21-1.41 6.23-3.14 8.23-6.56-2.18.63-4.37.98-6.55 0zm18.74 44.37c-.45 2 1.24 3.57 2.75 5.18l2.74-3.81c-1.23-1.45-3.03-1.96-5.49-1.37zm-11.27 22.1c-2.87.18-5.41 1.35-7.47 3.96 3-.04 5.53.55 7.31 2.14.62-1.89 1.14-3.81.16-6.1zm11.12 23.17c-1.13 2.7-.59 5.39-.15 8.08 1.61-1.67 3.29-3.24 4.11-6.1-1.32.27-2.64-.63-3.96-1.98zm23.17 1.07c.82.54 2.27.47 4.72-.61-.43 3.16-2.39 5.56-4.42 7.93-.44-2.44-2.08-4.88-.3-7.32zm85.34-1.22c-3.67-.63-6.58.25-9.45 1.22 3.73 1.27 4.51 2.54 5.94 3.81 2.51-1.41 2.99-3.22 3.51-5.03zm-4.57 25.92c-1.27 3.39-1.68 6.61-.92 9.6 2.15-1.74 3.89-3.7 4.42-6.25-.2-1.12-1.69-2.24-3.5-3.35zm21.94 10.06c1.34-1.84 3.04-2.58 5.19-1.98 1.06 2.59 1.96 5.12 1.82 7.31-2.84-.76-4.97-2.96-7.01-5.33zm17.83-7.01.96-1.36c.54 0 1.71-1.24 2.7-1.54.16 2.92-.16 5.51-1.22 7.62-.81.29-1.62-2.79-2.44-4.72z"/><path fill="red" d="M297.91 239.84c1.05-2.08 9.67-1.52 9.6-1.22 2.54.84 2.73 2.61 3.2 4.27l.3 1.98-1.06-1.22c-.92.87-2.17.89-3.36 1.07l-1.37.15c-1.68-1.22-2.51-2.93-3.2-4.72-1.8 0-2.84-.18-4.11-.31z"/><path fill="#fcef3c" d="M305.5 264.18c-3.79-.13-7.79-.15-13.26 2.81.97.89 2 2.3 3.23 2.15h3.56c4.03-1.18 5.88-2.91 6.47-4.96z"/></g></g></svg>