<svg xmlns="http://www.w3.org/2000/svg" xmlns:xlink="http://www.w3.org/1999/xlink" width="600" height="600" viewBox="0 0 1024 1024"><path fill="#ff0" stroke="#000" stroke-width="12" d="M6 6h1012v1012H6z"/><path stroke="#000" stroke-width="6" d="M0 512h1024M512 0v1024"/><g id="e"><path id="a" d="M396.08 42.736c-.82 0-1.68.02-2.56.059-10.943.312-14.089 1.153-24.113 6.311-9.184 4.749-15.203 10.26-22.022 20.264-6.214 9.087-10.552 20.967-11.783 32.105-1.915 17.547-5.002 33.278-8.031 40.84-1.837 4.631-6.78 11.431-9.634 13.268-1.074.704-1.895 1.544-1.758 1.915.293.88 4.592 1.603 7.308 1.212 3.771-.547 9.653-3.068 13.835-5.882 3.068-2.071 3.771-2.032 3.283.235-1.25 5.979-1.544 8.695-1.7 16.043-.196 9.574.547 13.249 4.26 20.674 2.071 4.162 6.311 9.868 6.878 9.281.137-.136-.137-1.68-.567-3.458-1.817-7.133-2.071-10.845-1.172-17.137 1.583-11.294 4.338-19.345 10.513-30.503 1.407-2.58 3.263-6.058 4.084-7.719.84-1.66 2.52-4.71 3.713-6.78 3.42-5.863 3.673-4.964 3.282 12.154-.156 7.816-.566 15.32-.86 16.688-.292 1.367-.41 2.598-.273 2.735.39.391 2.697-2.599 5.159-6.683 4.201-6.956 8.383-17.196 9.125-22.276.235-1.504.645-3.36.938-4.103.43-1.153.547-11.548.235-19.287-.078-1.876-.04-1.935 1.856-1.778 2.052.175 10.357-1.349 11.294-2.072.313-.234 1.348-.684 2.325-1.016 3.185-1.074 10.65-6.898 10.65-8.324 0-.332-.645-.625-1.407-.625-3.536 0-8.128-3.596-9.086-7.133-.313-1.172-.41-3.517-.215-5.178.508-4.377 3.498-7.62 8.715-9.477 9.536-3.42 16.981 0 21.69 9.946 1.974 4.162 2.071 4.69 2.032 9.634-.097 10.865-2.599 16.336-14.85 32.359-1.818 2.384-4.046 5.432-4.964 6.8-.899 1.367-1.798 2.618-1.974 2.755-.175.156-1.915 2.638-3.869 5.53a960 960 0 0 1-7.66 11.138c-11.821 16.864-15.456 25.5-19.364 45.94-1.251 6.605-1.31 10.59-.235 16.727 2.638 14.949 10.337 27.396 30.093 48.617 8.97 9.633 15.574 18.642 19.19 26.184 1.64 3.42 1.875 4.396 1.894 8.46.02 5.082-.449 6.098-4.162 9.107-2.833 2.286-6.077 2.501-11.509.762-6.8-2.17-11.216-4.944-16.746-10.552-2.735-2.755-5.92-6.37-7.054-8.05-3.126-4.573-11.49-17.294-13.288-20.265-2.208-3.615-3.595-5.823-6.722-10.61-1.485-2.287-2.794-4.358-2.912-4.632-.273-.606-9.516-14.929-11.197-17.313-3.4-4.807-4.416-6.155-9.457-12.565-5.472-6.937-19.6-21.67-25.227-26.302-6.449-5.295-14.147-9.946-27.22-16.414-7.465-3.693-13.561-6.995-13.542-7.347 0-.39 1.387-.664 3.79-.743 4.007-.097 8.286-1.739 10.944-4.181 1.23-1.114 1.309-1.134 3.322-.176 4.26 2.032 10.337 1.68 12.526-.743.899-.996.82-1.074-1.525-2.11-3.79-1.68-5.08-3.947-5.08-8.891v-4.104l2.755-.644c3.44-.802 7.797-3.479 9.829-6.038 1.817-2.326 3.654-6.175 3.674-7.739 0-.879-.294-.703-1.622.9-1.779 2.168-5.804 4.337-8.032 4.337-2.677 0-6.33-2.755-6.33-4.787 0-.371 1.152-.82 2.618-1.036 4.162-.605 7.23-2.716 8.09-5.55.332-1.074.175-1.152-2.345-.898-5.96.567-6.742-1.27-6.84-15.73l-.078-10.767 1.33-1.075c.742-.606 2.48-1.66 3.888-2.364 3.028-1.544 5.764-4.534 7.269-7.914 1.25-2.814 2.071-11.646 1.074-11.646-.312 0-.742.547-.957 1.231-.684 2.286-3.478 6.194-5.14 7.171-2.325 1.388-4.884 1.231-7.053-.43-1.017-.781-1.857-1.758-1.857-2.168s.84-1.466 1.876-2.326c5.96-4.904 9.653-16.727 8.09-25.89-.723-4.3-2.599-10.494-3.674-12.214-.058-.097-1.954.938-4.22 2.326s-5.843 3.185-7.934 4.005c-3.596 1.427-4.26 1.505-13.151 1.505-5.159 0-14.46-.176-20.693-.371-6.214-.215-13.503-.157-16.18.117-5.667.567-7.113 1.329-13.112 7.074-2.13 2.032-5.022 4.377-6.448 5.197-3.166 1.837-8.247 3.185-11.861 3.185-1.505 0-4.319.294-6.273.665-3.967.723-4.846 1.602-4.084 4.103.274.88.801 2.99 1.172 4.69.684 3.087.665 3.146-.996 5.237-2.364 3.01-2.736 4.826-3.107 15.496-.137 3.713-.04 6.878.234 7.035.254.156 1.505-.098 2.756-.606 2.892-1.153 7.093-.723 9.457.957.938.665 2.423 2.326 3.303 3.693 1.348 2.13 1.582 3.088 1.582 6.253 0 2.052-.351 4.788-.781 6.097-.43 1.29-.958 3.166-1.153 4.143-.196.996-1.466 3.283-2.794 5.1-4.26 5.784-11.53 9.36-19.111 9.38H195.3l-2.033-3.166c-2.462-3.908-4.768-6.43-7.66-8.325-1.954-1.29-2.735-1.465-6.624-1.406-7.816.078-13.346 3.165-16.004 8.91-1.309 2.833-1.446 3.693-1.27 8.129l.176 4.963-2.11-.078c-2.423-.078-5.042-2.286-9.966-8.48-8.403-10.533-11.861-18.017-13.913-30.328-.997-5.862-.977-5.53-.313-8.558 1.036-4.886 3.224-8.364 8.285-13.346 5.745-5.628 6.43-7.21 4.417-10.278-.704-1.075-1.896-2.267-2.658-2.638-.977-.489-1.602-.801-1.954-1.173l-12.1-7.626-3.64-.313c-3.42-.273-3.713-.195-5.14 1.231-1.289 1.29-1.523 1.974-1.523 4.514 0 1.642-.254 3.459-.567 4.045-.782 1.446-2.54 1.368-3.556-.195-.919-1.388-1.27-5.862-.567-6.996.254-.41.527-1.954.606-3.38.215-3.596-1.251-5.159-5.335-5.687l-17.098.155c-.703-.058-1.27.098-2.404.548-2.169 1.29-3.458 3.028-3.927 5.354-.254 1.25.195 2.638 1.915 5.901 1.23 2.325 2.266 4.67 2.266 5.178 0 1.388-1.66 2.95-3.107 2.95-1.309 0-1.915-.663-4.65-5.119-2.072-3.341-3.87-4.103-6.664-2.833-5.393 3.166-8.343 8.578-10.689 14.577-1.133 3.224-1.055 4.299.606 7.62 2.013 4.046 3.557 4.73 9.77 4.358 5.726-.312 6.996.372 6.996 3.713 0 1.505-.371 2.188-1.856 3.302-2.052 1.583-4.397 1.896-9.224 1.192-2.813-.39-3.204-.332-4.69.938-1.406 1.212-1.582 1.72-1.504 4.182l.078 2.814c1.7 4.65-6.37 3.517 5.08 13.932.763.508 2.385 1.074 3.616 1.27 2.403.39 2.814.137 8.344-4.827 4.748-4.26 9.047-1.739 8.773 5.14-.273 6.311-4.2 9.809-12.389 10.923-2.755.37-5.256.527-5.569.332-.332-.196-.586-.098-.586.234 0 .84 4.631 3.674 8.246 5.042 2.482.938 3.87 1.114 7.27.88 2.325-.138 4.728-.568 5.373-.9 1.993-1.074 2.443-.234 2.071 3.81-.39 4.32-1.368 6.977-3.185 8.618-3.01 2.755-5.256 3.01-11.08 1.348-2.052-.586-3.732-.938-3.732-.781 0 .136.371.957.801 1.797 1.329 2.58 4.416 4.846 8.403 6.136 2.07.684 3.986 1.427 4.26 1.7.292.274-.274 1.153-1.368 2.13-2.384 2.11-5.022 2.189-9.614.293-4.143-1.72-4.338-1.72-3.909.137.196.84.47 2.481.606 3.673.293 2.56 2.013 6.078 3.987 8.168 4.67 4.944 15.28 5.413 23.097.997 1.621-.918 3.204-1.661 3.517-1.661.957 0 .606 4.338-.528 6.566-.586 1.172-2.13 3.028-3.42 4.123l-2.325 1.993h2.736c3.517-.02 11.588-1.74 16.57-3.537 4.514-1.641 4.944-1.7 5.335-.684.39 1.036-4.221 18.896-5.706 22.061-.704 1.466-2.384 3.908-3.771 5.393-2.248 2.423-2.892 2.775-5.706 3.225-2.345.37-3.85.312-5.706-.255-3.146-.937-4.416-2.07-5.843-5.197-.938-2.052-1.074-3.088-.762-6.234.235-2.345.157-3.752-.176-3.752-.918 0-4.455 4.514-5.803 7.426-3.049 6.546-3.166 12.037-.41 18.114 2.598 5.745 8.52 9.946 16.081 11.412 2.814.547 4.612.567 8.481.058 10.278-1.387 17.235-5.021 21.553-11.294 1.74-2.54 2.501-3.165 4.885-3.927 4.788-1.544 10.298-4.924 14.968-9.204 1.74-1.583 3.049-1.309 3.049.645 0 .997 3.282 8.285 4.553 10.122.605.899.175 1.485-3.81 5.296-2.482 2.364-6.566 5.881-9.107 7.816-5.569 4.28-17.196 12.076-17.997 12.076-.332 0-.918.312-1.329.684-1.113 1.016-2.54 1.836-6.233 3.634-7.152 3.459-11.412 4.612-17.606 4.71-3.537.058-4.182-.079-5.999-1.466-2.228-1.7-2.443-2.736-1.211-5.726 1.25-2.99 1.074-5.823-.45-7.269-2.052-1.915-4.494-2.403-7.171-1.407-5.179 2.58-11.216.06-17.801 6.097-4.221 2.97-4.71 5.94-1.759 10.396 2.11 3.205 2.325 5.823.567 7.582-1.134 1.114-1.388 1.153-3.83.488-1.446-.39-2.736-.879-2.892-1.094-.938-1.31-3.713-2.853-5.08-2.853-3.323 0-5.433 2.013-6.781 6.488-1.603 9.907.214 12.486 1.25 16.512.293 1.954 2.6 4.025 4.514 4.025 2.17 0 3.341-.625 7.328-3.947 4.514-3.752 7.425-3.693 8.402.176.86 3.42-3.243 7.054-9.242 8.129-3.303.605-5.374 1.446-6.058 2.481-.235.332-.41 1.524-.43 2.658.88 5.041 5.686 8.05 8.617 12.193l2.99 2.775c3.459 3.107 6.644 3.85 9.477 2.188 2.853-1.68 4.084-4.455 4.495-10.278.508-6.8.742-7.68 2.599-9.712 1.23-1.348 1.817-1.64 2.5-1.25.763.43.939 1.524.997 6.233.04 5.452.137 5.882 1.837 8.637 3.576 4.436 13.698 3.83 20.46-.371 3.477-2.247 4.591-4.28 4.65-8.578.039-2.619-.254-3.948-1.153-5.491-1.837-3.107-1.602-3.83 1.602-4.983l2.814-.997 1.466 1.446c1.387 1.388 1.426 1.7 1.27 6.312-.137 3.576.058 5.452.762 7.171.801 2.033 3.029 4.514 4.045 4.514.176 0 .254-1.485.156-3.322-.215-3.927 1.016-6.936 5.784-13.932 1.622-2.364 3.087-4.963 3.263-5.784.606-2.774.743-2.95 2.267-2.774 1.016.117 1.856.762 2.58 2.012 1.035 1.779 1.035 1.974.117 7.21-.9 5.14-.821 8.481.254 10.514.312.586.82-.02 1.856-2.208 1.857-3.928 3.146-6 5.823-9.4 2.345-2.95 3.889-7.112 3.889-10.453 0-2.931.957-5.276 2.462-5.96 2.677-1.212 3.302 2.188 2.267 12.369-.489 4.65-.078 9.594.8 9.594.274 0 .9-.938 1.388-2.071.47-1.133 1.954-3.83 3.322-6.019 4.064-6.526 8.05-16.453 7.62-18.993-.136-.723.314-2.93 1.017-4.904.957-2.775 1.524-3.615 2.462-3.752 2.11-.313 3.107 2.032 2.716 6.37-.645 7.074-.625 9.106.078 10.747l.684 1.661 1.72-3.244c.938-1.778 2.442-4.553 3.302-6.194 1.407-2.638 1.602-3.556 1.602-7.836 0-3.654.196-5.06.86-5.706 1.173-1.172 1.72-1.094 2.697.41.645.978.703 1.7.273 3.166-.293 1.056-.8 3.498-1.113 5.472-.489 2.95-.43 3.966.332 5.92.488 1.31 1.075 2.365 1.329 2.365.234 0 .605-1.016.8-2.286.196-1.25 1.623-4.905 3.166-8.13 2.208-4.572 2.853-6.506 2.931-8.89.176-4.67.235-4.963 1.114-4.963 1.544 0 2.091 2.169 1.7 6.663-.332 3.674-.215 4.65.801 7.035.665 1.524 1.661 3.204 2.248 3.732 1.016.918 1.055.86 1.074-1.485.02-2.501.802-4.983 3.752-11.94 1.818-4.279 2.638-8.05 3.127-14.205.273-3.557 1.074-5.237 2.481-5.237.176 0 .763.313 1.27.684.724.527.997 1.856 1.232 5.647.273 4.963.684 7.855 1.211 8.754.156.274 1.25-1.465 2.443-3.85 1.172-2.383 3.126-6.213 4.357-8.5 2.697-5.06 4.006-11.548 3.46-16.98l-.372-3.557 1.524.371c.84.215 2.794.997 4.358 1.759 6.858 3.341 10.65 4.631 14.186 4.846 2.481.156 5.158.82 8.539 2.189 2.716 1.094 7.288 2.618 10.18 3.4 6.605 1.778 9.966 3.439 14.402 7.093 3.654 3.01 9.301 9.184 9.301 10.161 0 .313-2.599.664-6.194.84-3.42.157-7.543.567-9.184.88-8.716 1.66-18.544 6.233-25.422 11.783-6.86 5.549-10.005 8.539-16.277 15.554-7.113 7.972-9.185 9.653-13.327 10.747-1.27.332-8.344.84-15.73 1.113-8.07.313-14.597.84-16.434 1.31-4.163 1.074-8.403 2.56-9.243 3.243-.371.313-1.7 1.095-2.931 1.759-3.264 1.759-8.872 6.956-12.994 12.076-1.974 2.481-6.253 7.328-9.497 10.767-9.184 9.829-14.304 13.209-20.713 13.717-4.514.371-8.754-.88-11.724-3.42l-2.306-1.954-1.27 2.071c-1.075 1.72-1.29 2.834-1.29 6.527 0 4.006.176 4.729 1.681 7.152 2.071 3.38 6.722 5.999 11.646 6.565 9.223 1.075 23.195-3.224 30.679-9.438 2.11-1.739 2.95-1.622 4.025.508 1.857 3.694 3.713 5.51 7.21 7.152 2.717 1.27 3.557 1.954 3.811 3.088 1.31 5.764 2.13 7.25 5.843 10.493l2.013 1.758-1.33 4.827c-.722 2.638-2.012 5.784-2.872 7.015-2.208 3.165-7.972 7.25-11.646 8.305-1.7.469-3.85 1.094-4.807 1.387-2.814.84-11.978 1.29-13.209.625-.977-.527-1.074-.957-.762-4.064.391-3.967-.078-6.312-1.7-8.383-1.29-1.622-4.338-2.599-7.015-2.247-5.862.996-10.415 4.28-13.268 7.953l-1.993 2.403c-2.032 2.462-2.423 4.377-1.25 5.902.37.469 2.168 1.68 4.005 2.657 3.713 1.954 5.51 4.299 4.963 6.429-.43 1.7-1.504 2.267-5.276 2.736-2.696.332-3.36.195-6.213-1.31-4.065-2.15-6.195-2.52-8.93-1.563-1.661.586-2.482 1.329-3.44 3.146-.703 1.31-1.27 3.068-1.27 3.908-.469 6.077 1.31 14.792 2.755 18.134 1.153 2.286 2.482 2.99 5.394 2.873 2.384-.078 3.79-.84 6.82-3.791 2.012-1.935 2.872-2.404 4.122-2.267 2.189.254 2.97 2.482 1.76 5.042-.724 1.485-1.603 2.15-4.378 3.263-3.967 1.583-5.335 3.283-5.393 6.683-.04 1.231.45 3.029 1.153 4.26 1.524 3.146 6.859 7.327 13.874 8.578 4.787.782 8.773-3.537 9.438-10.259.313-3.244.606-4.025 1.798-4.983 1.66-1.309 3.224-1.055 4.748.723.762.899.997 1.954.918 4.494-.195 6-.078 6.625 1.72 8.462 3.048 2.833 13.659-1.036 17.899-4.104 1.876-1.23 3.556-4.162 3.556-6.233 0-.977-.742-3.635-1.66-5.921-1.994-5.003-2.052-6.273-.313-8.285 1.114-1.27 1.543-1.446 2.345-.938 1.934 1.153 3.556 5.022 3.966 9.399.333 3.439.645 4.396 1.68 5.237 1.818 1.485 3.05 1.367 2.502-.215-.723-2.072-.528-6.038.45-9.497.527-1.817.957-4.924.957-6.937 0-3.478.723-6.82 1.68-7.894.254-.274.802.351 1.212 1.368.606 1.465.664 3.048.254 7.405-.547 6.058-.059 9.106 1.778 11.373 1.29 1.583 2.11.977 1.231-.938-.566-1.25-.352-2.032 1.935-6.643 2.5-5.08 2.599-5.413 2.833-11.275.137-3.322.41-6.058.625-6.058s.821.938 1.368 2.071c.704 1.427 1.095 3.791 1.27 7.582.215 4.963.41 5.706 1.759 7.406 2.423 3.068 2.755 2.814 2.404-1.817-.274-3.654-.137-4.495 1.074-7.074 2.892-6.175 4.807-11.43 5.433-14.988 1.016-5.843 1.875-4.397 1.973 3.283.098 7.25.977 10.357 3.752 13.13 1.876 1.877 2.618 1.857 2.13-.077-.919-3.576-.41-6.937 1.72-11.451 3.243-6.8 4.806-11.236 5.354-15.164 1.133-7.934 1.055-7.7 2.5-8.05 4.456-1.134 8.11.155 9.146 3.223.39 1.212.039 2.287-2.228 6.39-4.103 7.425-4.494 8.95-3.4 12.916.684 2.423 1.055 2.56 2.169.743.45-.723 3.693-4.26 7.19-7.856 10.885-11.177 13.445-15.457 12.644-21.22-.586-4.358-3.185-8.13-11.1-16.18-7.385-7.524-9.554-10.318-11.704-15.145-6.077-13.542 2.482-22.237 23.097-23.507 3.615-.234 8.461-.097 11.978.274 6.956.742 15.203.899 18.505.352l2.345-.41 1.094 2.598c1.036 2.423 4.631 14.401 6.35 21.202.411 1.68 1.427 5.647 2.228 8.832 1.857 7.348 2.248 12.643 1.056 14.93-1.056 2.012-3.85 3.81-5.94 3.81-3.362.02-7.895-3.967-9.654-8.5-.586-1.505-1.29-2.814-1.543-2.892-.274-.098-1.056.684-1.76 1.72-2.09 3.067-1.543 9.77 1.271 15.202 1.231 2.384 4.963 6.37 7.699 8.246 5.96 4.065 14.87 5.179 22.354 2.775 3.537-1.133 4.612-1.817 7.484-4.67 1.837-1.837 3.713-3.947 4.182-4.69l.84-1.348 4.084 1.895c3.244 1.505 4.944 1.935 8.227 2.091 4.181.215 6.37-.43 11.49-3.42.957-.566 1.797-.625 3.204-.234 2.834.782 7.484-.41 11.724-2.97 1.993-1.231 4.084-2.599 4.612-3.068 1.329-1.172 2.09-.332 3.693 4.006 1.895 5.139 1.641 12.27-.723 19.716-2.638 8.344-7.015 14.48-13.21 18.622-3.086 2.09-3.692 2.286-6.076 2.052-3.342-.313-5.257-2.052-6.957-6.332-2.247-5.627-2.813-6.702-4.044-7.562-1.798-1.27-4.612-1.016-7.582.645l-3.146 1.72c-4.67 4.924-12.545 10.396-13.581 16.746-.274 1.113-.02 1.876 1.016 3.107 1.172 1.387 1.934 1.72 4.826 2.032 1.896.215 3.87.625 4.397.899 2.814 1.485 2.228 4.982-1.094 6.37-1.798.762-2.736.782-7.367.176-2.912-.391-5.901-.567-6.663-.372-2.267.567-4.3 2.502-4.319 4.124-.176 6.585 3.361 14.46 6.37 20.518 1.388 2.755 2.892 3.85 5.296 3.85 1.329 0 2.872-1.525 7.757-7.798 3.635-4.63 6.117-6.468 7.875-5.784 1.466.567.977 3.322-1.074 6.038-3.557 4.651-3.87 6.84-1.27 9.38 4.318 4.045 12.622 7.601 18.328 7.582 3.146-.118 5.784-1.583 6.8-3.713.763-1.602.802-2.54.215-7.386-.703-6.058-.234-7.797 2.228-8.442 2.58-.664 4.299 1.954 4.299 6.585 0 4.788 1.075 8.07 3.38 10.2 2.15 2.11 16.492-3.302 18.642-5.158 3.44-3.205 4.163-7.094 2.248-11.978-.606-1.544-1.114-3.049-1.114-3.342 0-.312 1.075-1.036 2.403-1.602 1.544-.665 2.853-1.74 3.674-3.068 1.172-1.895 1.231-2.345.782-7.074-.743-8.11-.606-11.177.586-12.486 2.56-2.833 5.452.059 6.057 6.058.45 4.494 1.798 8.05 3.694 9.633 1.524 1.29 3.595 1.935 3.087.977-1.817-3.556-2.188-5.06-1.934-7.953.156-1.72.781-4.084 1.367-5.236.587-1.173 1.798-3.537 2.677-5.276.88-1.74 1.779-3.166 1.994-3.166.644-.02 1.387 1.778 1.817 4.377.215 1.368.586 2.853.801 3.322 3.087 6.605 4.983 8.832 7.504 8.832 1.602 0 1.621.176.195-3.42-1.544-3.868-1.524-7.073.059-11.743 1.621-4.788 1.797-12.526.351-15.926-2.012-4.71-.273-6.527 2.502-2.6 1.074 1.505 1.758 3.538 2.344 6.938.47 2.638 1.33 5.862 1.896 7.171 1.114 2.482 3.283 4.377 4.67 4.065.723-.176.723-.47.02-2.404-.958-2.657-1.056-8.832-.176-11.06.351-.899.625-3.537.625-5.882.02-4.064-.117-4.553-3.029-10.474-3.556-7.23-4.103-9.868-2.814-13.249 1.583-4.123 3.948-5.217 7.406-3.439 2.853 1.485 3.948 4.592 4.436 12.721.528 8.364 1.68 12.232 4.67 15.398 1.075 1.134 2.072 1.915 2.247 1.74.157-.157.04-1.564-.293-3.108-.84-3.908-.762-9.555.176-11.724.41-.996 1.603-4.533 2.619-7.875 1.426-4.728 1.836-7.034 1.836-10.493 0-4.045-.156-4.69-1.817-7.445-2.58-4.22-5.49-6.155-11.412-7.484-5.217-1.172-10.513-.957-14.167.547-1.72.704-3.341 1.134-3.595.958-.235-.176-1.603-1.74-3.03-3.44-4.18-4.963-7.6-6.975-13.15-7.757-4.592-.664-4.729-.742-7.426-3.498-5.12-5.256-12.467-8.285-23.41-9.692-2.598-.332-5.276-.82-5.96-1.094-1.172-.45-1.191-.567-.468-2.286 2.423-5.589 3.712-9.478 4.494-13.66.938-5.119 1.114-15.514.312-20.4-.273-1.68-.39-3.165-.254-3.302.333-.332 4.436 4.104 8.911 9.634 10.591 13.092 18.818 21.299 24.992 24.953 7.66 4.533 14.362 6.526 31.558 9.477 11.001 1.895 13.913 2.912 15.906 5.628 1.915 2.599 2.501 5.158 3.205 13.718.762 9.438 1.543 11.685 4.63 13.503 3.323 1.954 3.733 1.817 2.795-.86-1.446-4.123-1.524-8.598-.274-16.512 2.052-12.994 1.466-19.208-2.325-23.976-2.09-2.658-2.892-3.283-7.25-5.823-1.856-1.075-3.36-2.228-3.36-2.56s1.328-2.052 2.97-3.83c7.464-8.09 10.708-15.593 11.353-26.282.664-10.669-4.475-23.39-15.36-37.87-4.943-6.585-5.256-7.445-4.494-12.701.723-4.983 1.622-6.78 4.866-9.77 5.843-5.394 12.565-4.3 16.922 2.774 1.27 2.033 1.68.938 1.075-2.892-1.212-7.64-3.85-11.509-9.692-14.245-2.795-1.309-3.908-1.504-8.207-1.485-4.202.02-5.452.274-8.266 1.544-6.136 2.814-9.927 7.953-11.998 16.258-.684 2.775-1.407 5.042-1.622 5.061-.606 0-3.107-5.276-4.084-8.617-1.895-6.527-.664-18.114 2.443-23.097 3.38-5.433 7.542-9.009 13.053-11.177 3.38-1.33 4.592-1.485 9.653-1.466 6.35.04 8.852.723 12.994 3.517 1.348.9 2.442 1.407 2.442 1.134 0-1.642-3.771-6.351-6.878-8.56-11.998-8.558-26.575-7.542-40.82 2.893-4.162 3.068-6.331 4.318-6.331 3.693 0-1.27 6.78-7.718 15.398-14.577a252 252 0 0 0 4.396-3.595c1.095-.938 3.83-3.166 6.077-4.964 10.708-8.617 22.413-21.475 27.083-29.78 6.019-10.708 10.396-24.133 12.154-37.225.567-4.338.176-11.02-.664-11.02-.273 0-.488.331-.488.722 0 1.954-6.586 17.04-10.396 23.82-1.036 1.818-5.765 8.676-8.383 12.135-5.667 7.484-17.547 19.345-23.468 23.45-.645.449-2.501 1.817-4.143 3.048-3.595 2.716-11.197 6.565-11.998 6.077-.352-.235.196-1.759 1.427-4.065 2.051-3.771 6.937-12.408 7.894-13.893 14.675-23.253 22.784-42.93 23.546-57.039.528-9.77-1.602-19.795-5.784-27.318-2.892-5.158-11.294-13.424-17.235-16.942-10.239-6.038-17.235-7.933-29.682-7.796zM123.14 82.657v.43c-.04-.078-.04-.235 0-.43m3.244 360.43c.02-.02.097 0 .176.02l.508 1.25c-.059-.078-.098-.137-.137-.195-.45-.704-.645-1.036-.547-1.075"/><g fill="#fff"><g id="c"><path d="M229.948 139.697c-1.191-.06-.742 8.363 1.134 17.02.918 4.357 1.66 8.206 1.622 8.559-.04.332-.04 1.114-.02 1.7.137 1.992 1.192.038 1.524-2.795.234-1.954-.176-5.139-1.387-11.12-.957-4.61-1.72-9.183-1.739-10.18 0-.996-.234-2.167-.508-2.618-.234-.39-.45-.566-.626-.566m6.68 84.185a1.2 1.2 0 0 0-.43.059c-1.015.332-.84 2.188.274 2.89 1.369.841 8.442.314 10.611-.82 2.403-1.23 1.7-1.68-2.364-1.465-1.876.078-4.397-.059-5.608-.333-.92-.215-1.896-.331-2.482-.331m27.79 9.615c-.508.059-.782.312-.782.762 0 1.153 4.182 3.44 8.032 4.396 3.79.939 7.738.704 12.936-.82 1.974-.567 5.94-1.367 8.812-1.798 5.002-.743 5.179-.82 3.596-1.465-2.11-.88-9.555-.412-12.955.8-4.065 1.447-10.649 1.211-14.753-.488-2.423-1.016-4.025-1.465-4.885-1.387zm-43.618 9.315c-1.7 0-1.623.469.412 2.168 1.289 1.095 1.757 2.013 1.991 3.908.372 3.244.567 3.85 1.33 3.85.449 0 .567-1.114.41-3.557-.254-3.985-1.797-6.37-4.143-6.37M95.783 257.039c-.371-.038-1.72.82-3.243 2.071-2.17 1.779-4.026 2.795-6.038 3.264-2.756.665-2.835.722-1.544 1.29 2.5 1.074 5.295.782 7.113-.723 1.934-1.642 4.103-4.963 3.829-5.843q-.029-.06-.117-.059m110.534.134a3.5 3.5 0 0 0-1.016.234c-.763.294-.645.567.683 1.622 1.485 1.192 1.603 1.583 1.838 6.097.214 4.22.351 4.709 1.055 4.006.566-.548.82-2.033.84-4.632.019-4.924-1.173-7.503-3.4-7.327m-10.238 7.158c-.469-.02-.84.156-1.075.528-.175.293.137.782.743 1.094 1.856.997 2.5 4.084 1.485 7.21-.47 1.466-.878 2.95-.878 3.264 0 1.192 1.112.547 1.992-1.153.489-.956 1.016-3.126 1.172-4.827.215-2.579.078-3.321-.938-4.59-.742-.959-1.72-1.487-2.5-1.526m-11.66 5.058a3 3 0 0 0-.586.137c-.685.273-.411.762 1.23 2.345l2.073 2.012-.294 4.006c-.175 2.189-.175 4.143 0 4.318.586.587 1.23-.293 1.836-2.54 1.232-4.611-1.367-10.532-4.26-10.278m.078 93.249c-.04 0-.04.02-.06.02-.624.624 2.756 5.53 4.73 6.858 1.955 1.328 3.595 1.603 4.142.723.177-.274-.233-.82-.918-1.172-.704-.352-2.677-2.013-4.416-3.713-1.622-1.583-3.127-2.756-3.478-2.716m188.51-312.242c-.587-.019-1.955.743-4.632 2.501-6.469 4.26-13.894 11.451-17.762 17.216-4.24 6.291-9.75 19.287-9.75 22.94 0 .685-.178 1.387-.373 1.583s-.41 1.056-.508 1.895c-.078.84-.547 3.635-1.035 6.214-.508 2.58-.92 5.062-.938 5.511-.078 2.501-1.72 12.252-2.697 15.964-.606 2.365-1.232 4.769-1.348 5.336-.84 3.712-2.189 7.835-3.654 11.332-.938 2.228-1.837 4.67-2.013 5.413l-.293 1.388 1.192-1.466c.664-.8 1.875-3.048 2.755-4.964 4.514-10.063 6.976-18.7 8.09-28.314 1.056-9.028 3.81-22.55 5.49-27.025 1.994-5.295 5.55-12.135 8.423-16.16 3.264-4.591 11.998-13.736 15.144-15.867 1.29-.898 2.442-1.797 2.56-2.032.098-.214.527-.411.957-.411s.781-.254.781-.546c0-.313-.116-.49-.39-.51zm-63.26 4.377c-.489 0-.879.333-.879.743 0 1.134-4.67 5.236-6.448 5.667-2.072.489-2.462.722-2.09 1.328.546.88 2.656.587 5.197-.723 2.637-1.329 4.181-3.126 4.748-5.51.274-1.172.156-1.505-.528-1.505m68.728 6.058c-.684 0-6.39 5.57-8.343 8.11-4.046 5.315-6.507 15.672-5.96 25.246.233 4.085.899 7.602 2.56 13.522 5.295 18.819 6.35 24.621 6.233 34.333-.059 3.616.098 4.827.625 4.827.43 0 1.016-1.289 1.426-3.126.88-3.968.801-9.282-.274-16.415-.82-5.628-1.348-7.777-4.571-18.252-4.496-14.595-4.358-26.086.449-35.563 1.524-3.009 5.51-8.714 7.113-10.142 1.133-1.036 1.582-2.54.742-2.54m-134.143 3.283c-.02 0-.02.02-.02.02-.117.097-.606.977-1.134 2.148-1.445 3.05-1.034 6.586 1.076 9.712 1.837 2.697 7.562 7.074 12.604 9.615 7.679 3.888 10.434 6.292 12.427 10.903.685 1.602 1.448 2.912 1.662 2.932.234 0 .41-.939.41-2.072-.039-5.14-3.83-9.36-12.467-13.873-6.37-3.342-10.142-6.058-12.565-9.068-1.505-1.875-1.72-2.579-1.817-6.077-.078-2.168-.137-4.063-.156-4.22zm62.27.645c-.294 0-.763.175-1.388.527-1.72.919-4.416 4.67-4.944 6.898-.214.879-.527 1.856-.703 2.15-.41.742-.723 6.409-.39 7.288.35.918 1.387.918 1.641.02.097-.371.45-2.13.782-3.928.624-3.322 2.052-6.742 4.357-10.454 1.056-1.681 1.27-2.501.645-2.501m-196.224 3.849c-.665 0-1.895.254-3.596.84-1.856.625-3.635.82-6.018.606l-3.4-.312 1.31 1.073c1.874 1.525 7.191 1.447 10.062-.155 2.307-1.31 2.756-2.052 1.642-2.052m-17.274 1.055c-.489.02-1.075.528-1.29 1.328-.215.9.234 2.521 1.31 4.826.918 1.935 1.817 4.046 2.032 4.73.567 1.895 1.329 1.485 1.134-.645-.098-1.036-.704-3.381-1.35-5.237-.644-1.837-1.152-3.732-1.152-4.182 0-.586-.312-.86-.684-.82"/><path d="M389.302 69.956c-.43.02-1.036.137-1.798.371-3.127.957-7.192 4.925-9.145 8.91-4.162 8.462-1.7 24.016 4.377 27.592 2.735 1.603 7.758 2.56 7.758 1.485 0-.274-.684-.743-1.525-1.036-4.71-1.7-8.539-6.722-9.359-12.29-.606-4.162-.49-9.731.292-12.428.938-3.263 5.453-9.048 8.286-10.61 2.11-1.154 2.384-2.033 1.114-1.994M422.17 73.2c-.098.02-.156.039-.196.078-.176.176.175.586.781.899.587.332 2.717 2.227 4.691 4.24 4.005 4.045 5.1 6.487 6.136 13.855.956 6.721.273 11.96-2.58 19.852-1.603 4.418-5.824 11.16-13.62 21.77-5.413 7.405-13.365 18.74-14.362 20.497-.372.645-2.13 3.498-3.909 6.313-10.805 17.059-16.414 31.187-18.016 45.354-1.856 16.375 5.139 30.132 28.96 56.883 11.665 13.112 14.87 17.41 18.74 25.09 3.3 6.546 4.377 14.069 2.735 19.248-.625 2.032.88 1.211 2.09-1.134 1.232-2.364 1.447-8.833.431-12.565-.918-3.4-5.002-11.568-7.894-15.75-1.545-2.227-5.843-7.307-13.68-16.18-15.612-17.665-22.705-27.864-26.75-38.475-3.44-9.027-1.954-24.446 3.772-38.808 3.672-9.243 12.467-24.015 24.093-40.547a277 277 0 0 0 3.81-5.53c.82-1.211 2.383-3.32 3.478-4.69 3.028-3.712 9.184-12.993 10.923-16.471 6.995-13.914 6.565-29.038-1.094-38.71-1.506-1.876-7.27-5.335-8.54-5.218zm-296.476.919a1 1 0 0 0-.293.059c-.762.137-1.094.878-1.367 3.204-.216 1.661-.548 3.713-.763 4.553a4.6 4.6 0 0 0-.137.723v.43c.06.196.235.176.567.059.45-.177 1.075-.86 1.387-1.525.333-.684.763-2.657.957-4.435.294-2.56.274-3.088-.35-3.068"/><path d="M123.139 83.088c-.04-.078-.04-.234 0-.43-.04.196-.04.352 0 .43m90.236-7.367c-.43-.04-1.094.195-1.837.742-.8.586-.937 1.192-.684 2.814.176 1.133.665 2.443 1.056 2.93.605.743.761.47 1.055-1.856-.723-3.399.253-2.54.742-3.673.254-.586.078-.918-.332-.957m-81.833.547c-.82 0-.02 1.68 1.544 3.165 2.677 2.6 8.676 5.041 8.676 3.557 0-.235-.918-.86-2.071-1.368-1.134-.508-3.381-1.915-4.964-3.127-1.602-1.211-3.028-2.227-3.185-2.227m-50.765 3.34c-.762-.02-2.207 1.838-7.093 8.384-1.075 1.445-1.954 2.735-1.954 2.892 0 .762 1.328.077 3.301-1.7 1.193-1.094 2.717-2.892 3.382-4.006s1.7-2.54 2.286-3.205c.586-.664.898-1.465.703-1.797-.215-.313-.371-.547-.625-.567m163.877 1.663c-.155.02-.332.059-.508.136-1.582.606-2.09 8.637-.722 11.256 2.54 4.904 8.48 6.43 16.843 4.339 1.349-.334 2.54-.88 2.657-1.232.156-.49-1.134-.586-4.982-.351-5.882.35-10.22-.723-11.646-2.893-1.603-2.442-2.052-5.51-1.173-8.07.743-2.15.567-3.302-.469-3.185m-30.356 4.357c-.352.039-.918.351-1.681.997-3.458 2.95-5.217 7.836-5.217 14.558-.02 5.745.527 6.839 2.657 5.491.626-.39.567-.938-.176-3.147-1.445-4.259.235-11.157 3.869-15.906.997-1.328 1.095-2.052.548-1.993"/><path d="M256.948 87.895c-1.016.077-1.778.8-2.54 2.15-1.876 3.263-1.7 3.868 1.192 3.868 1.367 0 3.713-.254 5.256-.586 3.517-.743 3.576-1.701.196-3.83-1.798-1.153-3.088-1.7-4.104-1.602m140.613 5.55c-.392-.04-.508.703-.313 2.207.41 3.01 2.716 5.433 5.158 5.433.978 0 1.935-.215 2.092-.469.155-.254-.567-.84-1.603-1.33-1.114-.546-2.462-1.894-3.341-3.4-.919-1.581-1.602-2.383-1.993-2.441m-154.563.116c-.88 0-3.615 2.716-3.615 3.693 0 .782.47.665 2.54-.605 1.895-1.173 2.365-2.345 1.232-3.049-.04-.039-.098-.039-.157-.039m73.019 1.66q-.528.06-1.583.587c-1.934 1.017-3.79 1.095-5.882.293-2.17-.82-2.423-.098-.548 1.505 1.31 1.153 1.995 1.349 3.79 1.094 1.33-.176 2.757-.84 3.597-1.68 1.192-1.192 1.368-1.876.626-1.798m-245.055.646c-.215.039-.332.273-.332.742 0 1.328 2.482 4.396 4.084 5.042 1.543.625 3.634.645 3.634.04 0-.274-1.113-1.135-2.462-1.935-1.348-.783-2.794-1.876-3.184-2.423-.723-1.017-1.368-1.525-1.74-1.467zm286.427.567c-1.056-.06-3.46 8.128-4.71 16.238-.508 3.186-1.29 7.407-1.738 9.38-.45 1.954-.9 4.201-1.016 4.963-.216 1.446-1.934 7.563-4.339 15.417-.781 2.56-1.426 5.179-1.426 5.824s-.176 1.348-.391 1.544c-.196.214-.43.82-.508 1.348a69 69 0 0 1-.45 2.599 62 62 0 0 0-.527 3.947 1702 1702 0 0 1-.86 7.464c-.527 4.3-.469 6.254.254 11.138.918 6.174 1.25 7.523 1.856 7.523.216 0 .372-4.533.392-10.082 0-13.092.938-18.72 4.181-25.051 1.29-2.521 3.302-5.844 4.435-7.348 1.153-1.525 2.091-2.873 2.091-3.029 0-.879-1.738.04-3.576 1.934-1.191 1.212-2.227 2.111-2.325 1.993-.117-.097.45-2.246 1.25-4.787 2.248-7.093 2.874-9.75 4.104-17.704.626-4.045 1.368-8.343 1.661-9.555 1.505-6.566 2.364-13.327 1.74-13.718-.04-.02-.06-.038-.098-.038M86.69 103.293c-.645 0-.626.214.136 1.036 1.036 1.153 1.329 3.557.684 5.451-.508 1.466 0 1.583 1.387.313 1.505-1.329 1.388-4.826-.194-5.94-.685-.469-1.583-.86-2.013-.86m214.164 2.344c-.176.02-.274.294-.274.8 0 1.057 1.818 6.801 2.481 7.896.43.684 1.389.722 1.389.059 0-.275-.49-2.111-1.114-4.084-.86-2.794-1.993-4.749-2.482-4.67m-45.763 4.398c-1.426.41.02 9.32 3.986 24.698.196.763.273 2.19.196 3.166-.196 2.403.8 2.287 1.622-.195.84-2.54.39-6-1.798-13.425-.938-3.204-2.09-7.757-2.579-10.102-.489-2.365-1.115-4.24-1.427-4.142M71.884 114.53c-.333-.06-.665.508-.86 1.66-.313 1.934.488 4.924 2.286 8.52.567 1.114 1.192 3.03 1.427 4.221.215 1.212.625 2.638.918 3.186.625 1.152 3.244 1.308 3.244.194 0-.41-.352-1.035-.8-1.406-.43-.371-1.077-2.033-1.428-3.694-.332-1.66-1.328-4.357-2.209-6.018-.859-1.641-1.66-3.79-1.778-4.768-.136-1.212-.468-1.836-.8-1.895m153.628 2.07c-.214-.038-.273 1.016-.371 3.869-.371 10.357-3.088 16.317-9.77 21.358-1.955 1.485-3.38 2.834-3.205 3.01.469.488 3.401-1.114 6.175-3.362 3.85-3.107 5.06-4.612 6.898-8.402 1.524-3.205 1.7-4.124 1.7-8.54 0-3.165-.293-5.646-.82-6.819-.294-.684-.49-1.095-.607-1.114m19.386 1.72c-.351 0-.547.957-.528 2.99 0 3.79.293 5.022 3.205 13.463 1.192 3.497 2.364 7.837 2.578 9.633.49 4.104.86 4.769 1.525 2.736.352-1.055.333-2.912-.058-5.491-.333-2.13-1.29-6.116-2.11-8.852-.822-2.734-1.993-7.054-2.658-9.614-.8-3.204-1.505-4.846-1.954-4.865m225.124.235c-.273 0-1.426 1.837-2.696 4.28-5.687 11.06-20.166 28.587-29.682 35.935-2.13 1.641-5.12 3.966-6.625 5.197-3.458 2.756-10.747 7.172-14.206 8.578-5.353 2.17-1.523 2.346 4.456.177 4.67-1.68 6.995-3.146 14.402-9.087.469-.39 2.715-2.169 5.002-3.986 4.572-3.635 10.923-10.103 15.163-15.437a315 315 0 0 1 3.948-4.925c4.065-4.865 11.196-19.227 10.278-20.712 0 0-.02-.02-.039-.02zm-233.439 8.03c-.37.098-.528 1.114-.528 3.518 0 3.38 1.212 8.5 4.436 18.72.294.937.529 2.794.529 4.142.019 1.348.175 3.03.37 3.733.665 2.5 1.27-.078 1.27-5.432 0-5.296-.585-8.148-3.478-17.372-.761-2.423-1.465-5.002-1.563-5.726-.097-.742-.489-1.446-.86-1.582-.078-.02-.117-.02-.176 0m65.56 5.394c-.664 0-.567 2.619.137 3.928 1.27 2.364 5.51 3.732 7.6 2.461.92-.586.235-1.426-1.152-1.426-1.504 0-4.59-2.11-5.451-3.732-.371-.684-.88-1.231-1.134-1.231m-165.1 2.325c-.547.078-.879.957-1.348 3.302-.665 3.283-1.817 5.96-4.084 9.4-1.134 1.72-.88 1.895 1.036.645 1.212-.782 2.423-2.462 4.572-6.312 1.153-2.033 1.211-6.8.078-7.015a.6.6 0 0 0-.254-.02m-39.682.977c-.47 0-.82.508-.82 1.192 0 1.915-2.287 5.94-4.535 7.953-2.852 2.579-2.599 3.303.548 1.66 2.267-1.17 3.79-3.086 4.768-5.998 1.093-3.302 1.113-4.807.039-4.807m76.208.547c-1.466 0-5.315 3.342-6.468 5.59-1.759 3.457-2.247 12.857-.606 11.84.255-.155.626-1.602.782-3.204.41-3.83 2.17-7.817 4.846-11.021 2.384-2.814 2.56-3.205 1.446-3.205m-32.457 4.514a1.4 1.4 0 0 0-.372.117c-.273.177-.606 2.404-.742 4.964-.137 2.579-.49 5.002-.8 5.393-.842 1.094-1.33 2.657-.823 2.657.256 0 .841-.429 1.31-.957 1.23-1.407 3.185-7.054 3.185-9.184 0-1.623-.9-3.049-1.758-2.99m159.475 5.414c-.293 0-.547.469-.547 1.016 0 4.807 5.12 8.44 9.536 6.761.743-.273 1.504-.92 1.68-1.387.273-.723-.058-.86-1.72-.783-1.134.06-2.734-.097-3.576-.332-1.485-.43-4.806-3.693-4.806-4.729a.564.564 0 0 0-.567-.546M146.27 147.61c-.547.098-1.25 1.426-1.876 3.81-.957 3.693-2.813 7.23-5.002 9.634-.996 1.094-1.016 1.25-.215 1.25.508 0 1.954-1.015 3.185-2.267 2.794-2.774 5.042-7.62 4.807-10.355-.117-1.466-.469-2.131-.899-2.072m76.331 1.622c-.8-.06-1.485 2.95-1.153 5.256.508 3.362.567 3.615 2.462 9.477.919 2.873 1.681 6.292 1.681 7.581 0 2.58.878 3.147 1.426.9.547-2.111-.155-7.055-1.72-12.349-.762-2.58-1.523-6-1.719-7.603-.196-1.6-.567-3.047-.82-3.203-.06-.04-.118-.04-.157-.06m-120.337 3.145c-.567 0-.743.333-.508 1.075.41 1.27-1.036 7.192-2.443 9.926-1.388 2.736-3.693 4.886-5.393 5.1-.782.078-1.525.47-1.662.86-.33 1.017 2.972.86 4.808-.214 1.993-1.173 4.846-5.609 5.901-9.146.996-3.36.606-7.6-.703-7.6m49.286.665c-.567.039-1.036 1.075-1.72 3.752-.703 2.755-1.7 4.807-3.419 7.114-1.348 1.777-2.443 3.379-2.443 3.574 0 .763 3.264-1.387 4.71-3.086 3.458-4.104 5.256-10.924 2.99-11.354zm63.326 3.321c-.156.04-.352.294-.626.665-1.387 1.875-.918 4.572 1.76 10.102 1.406 2.912 2.696 6.37 2.833 7.68.311 2.774.977 3.088 1.504.722.469-2.13-.02-4.396-1.954-8.812-.84-1.973-1.837-4.827-2.208-6.35-.722-3.127-.938-4.104-1.31-4.007m82.033 3.48c-.098 0-.215.058-.333.175-.469.47-.449 1.153.078 2.697 1.369 4.006 2.521 5.647 4.749 6.761 2.325 1.153 5.258 1.465 5.258.567 0-.293-.959-1.036-2.131-1.623-2.501-1.289-5.414-4.455-6.527-7.111-.45-1.075-.762-1.505-1.094-1.466m-96.217.934c-.039 0-.059.02-.098.02-.233.078-.37.586-.35 1.583.018 3.654 1.054 6.155 4.903 11.997 2.169 3.264 4.691 7.778 5.647 10.025 1.623 3.869 1.68 4.319 1.407 9.594-.175 3.088-.683 6.625-1.211 8.012-.508 1.368-1.309 3.967-1.798 5.784-.469 1.817-.957 3.42-1.075 3.557-.116.137-1.328-1.036-2.696-2.579-2.931-3.361-6.897-5.433-11.412-5.941-2.656-.293-3.614-.137-6.058.978-6.467 2.989-9.242 7.132-9.379 14.088-.117 6.82 1.856 10.962 7.563 15.847 1.68 1.408 2.911 2.815 2.755 3.068-.49.782-8.364.587-10.357-.253-3.36-1.407-7.366-7.094-9.515-13.542-1.31-3.85-2.697-4.983-3.283-2.658-.723 2.872 3.087 10.864 7.386 15.437 3.458 3.713 5.569 4.592 11.431 4.749 2.189.058 3.615-.334 6.35-1.72 1.935-.997 3.577-2.17 3.674-2.618.078-.528-.722-1.192-2.247-1.818-3.302-1.348-8.109-5.764-9.673-8.89-1.582-3.186-2.13-8.208-1.192-11.138 2.228-6.937 10.142-10.415 16.805-7.386 2.677 1.211 6.742 5.51 9.008 9.515.821 1.427 1.72 2.54 2.012 2.443.275-.098.841-2.012 1.212-4.28.39-2.246 1.349-6.33 2.17-9.067 2.384-8.07 2.56-9.144 2.267-14.323-.352-6.312-1.856-10.063-7.329-18.232-2.247-3.341-4.553-7.425-5.138-9.067-.723-2.07-1.369-3.165-1.779-3.185m70.406 1.023c-.214 0-.293.196-.293.547 0 1.173 3.81 6.468 5.53 7.7 3.89 2.754 9.106 4.201 10.982 3.028 1.094-.684.586-1.388-.997-1.388-2.54 0-8.109-3.263-11.509-6.721-2.149-2.189-3.244-3.146-3.713-3.166m-109 .7c-.136 0-.293.04-.488.078-5.198.978-13.97 6.43-18.778 11.666-5.354 5.843-9.556 14.636-11.802 24.739-.47 2.11-1.075 4.475-1.349 5.237s-1.036 3.244-1.7 5.51c-2.15 7.367-4.143 12.154-6.507 15.575-2.306 3.38-1.036 3.575 1.817.273 1.114-1.29 3.088-4.455 4.357-7.014 2.326-4.71 3.01-6.762 6.723-20.147 3.126-11.275 6.311-17.351 12.604-23.996 3.731-3.946 7.152-6.683 12.037-9.555 3.244-1.895 4.005-2.462 3.087-2.365zm21.987 2.713c-.37.136-.625.722-.566 1.289.155 1.348-1.368 10.376-2.15 12.896-1.349 4.319-6.487 13.737-8.109 14.89-.528.372-5.139 8.148-6 10.104-.8 1.778-.917 7.543-.175 7.543.274 0 .938-1.31 1.465-2.893 1.31-3.967 3.264-7.425 8.247-14.772 4.943-7.27 6.136-9.81 7.21-15.34 1.017-5.217 1.056-14.069.078-13.717"/><path d="M194.734 167.759c-.332 0-.371 1.016-.391 4.045-.019 3.243-.351 5.51-1.212 7.816-1.133 3.146-1.581 7.485-.82 8.246.508.508.391.801 2.403-6.097 1.954-6.74 2.131-12.056.47-13.717-.176-.176-.332-.293-.45-.293m63.86.622a1 1 0 0 0-.196.098c-.84.8.391 5.432 2.11 7.992 3.205 4.769 7.014 6.214 11.158 4.26 1.016-.49 2.15-1.23 2.481-1.64.548-.645.06-.723-2.872-.45-3.068.272-3.731.155-5.432-.978-1.7-1.153-6.038-6.84-6.742-8.851-.116-.294-.312-.45-.508-.43m-156.342 2.29c-.41 0-1.289.977-2.618 2.913-1.134 1.64-3.4 3.907-5.041 5.04-4.769 3.283-3.362 4.28 1.817 1.31 3.107-1.779 5.413-4.69 5.98-7.563.234-1.153.195-1.72-.138-1.7m65.771 4.458c-1.289.195-8.285 6.956-10.805 10.61-4.593 6.644-7.425 16.18-9.4 31.713-.86 6.742-1.035 7.641-1.934 9.791-1.427 3.44-.664 4.025 1.486 1.094 2.383-3.224 3.009-5.139 3.535-10.727.45-4.866 2.326-14.578 3.616-18.76 1.349-4.337 4.24-10.317 6.136-12.604 1.759-2.13 7.581-10.552 7.581-10.962 0-.136-.078-.175-.215-.155m-86.312 5.935c-.04.02-.06.04-.06.098 0 1.66 3.382 6 5.922 7.601 2.579 1.623 4.553 2.13 4.553 1.193 0-.274-.978-1.134-2.189-1.934-1.191-.802-3.557-2.835-5.236-4.536-1.466-1.483-2.717-2.48-2.99-2.422m160.053 5.803c-.059-.02-.116-.02-.136.02-.49.489 1.191 3.068 2.774 4.24 1.993 1.484 5.609 1.778 11.764.957 6.547-.879 9.731-.43 12.057 1.661 2.033 1.817 2.619 1.075 1.231-1.603s-3.654-3.536-8.246-3.126c-12.583 1.114-12.702 1.114-16.121-.722-1.504-.821-2.893-1.407-3.322-1.427zm-128.03.31c-.37 0-.644.705-.644 2.033 0 1.134-.332 3.38-.742 4.963-.626 2.384-.626 2.873-.02 2.873.41 0 1.074-.684 1.505-1.525 1.075-2.13 1.485-5.49.899-7.054-.352-.878-.704-1.308-.997-1.29m107.122.223c-.196.078-.235.567-.235 1.68 0 2.13-1.348 7.212-3.557 13.484-3.243 9.145-3.751 15.945-1.543 20.713 1.759 3.79 2.912 5.765 3.4 5.765.254 0 .625-1.271.821-2.795.762-5.667 2.931-10.142 7.21-14.87 4.807-5.336 6.605-8.5 7.445-13.151.626-3.48.313-8.051-.527-7.543-.235.155-.547 1.485-.684 2.93-.136 1.467-.919 4.417-1.74 6.567-1.289 3.379-2.188 4.63-6.467 8.929-3.01 3.049-5.394 6-6.058 7.524-.605 1.367-1.348 2.364-1.641 2.189-.293-.177-.508-1.818-.508-3.635 0-2.462.645-5.335 2.56-11.138 2.852-8.657 3.674-15.066 2.11-16.375-.274-.216-.45-.314-.586-.274m217.788 4.258c-5.316-.098-12.037 2.325-17.567 6.35-3.635 2.658-9.145 7.973-10.532 10.182-2.13 3.399-1.623 3.575 1.7.586 4.709-4.222 10.571-8.833 12.995-10.22 4.16-2.423 12.25-4.67 17.643-4.944 2.815-.137 2.931-.196 1.759-.88-.704-.39-2.931-.86-4.963-1.036-.352-.018-.684-.038-1.036-.038zm-177.805 13.127c-1.896 0-3.713.196-4.417.567-1.954 1.036-11.529 1.29-14.147.351-2.873-.996-3.127-.233-.704 2.072 2.247 2.149 5.96 2.442 11.96.898 7.601-1.954 11.627-1.367 14.947 2.17 2.307 2.442 3.342 2.149 2.15-.626-.938-2.207-2.794-4.045-4.963-4.865-.978-.371-2.951-.567-4.826-.567m-163.733 16.45c-.117-.02-.294.235-.508.626-.508.898-.8 3.185-.84 6.624-.04 4.865.077 5.51 1.758 8.93 1.856 3.772 5.061 7.054 6.878 7.054.763 0 .45-.665-1.445-2.99-3.479-4.28-4.846-8.226-5.257-15.203-.215-3.693-.293-5.002-.586-5.04m353.098 1.723c-4.084 0-7.327 1.583-11.001 5.373-2.815 2.874-4.632 6.547-6.234 12.565-.664 2.56-.567 2.874-.293 4.084 1.173-.742 1.778-2.599 2.17-3.635 3.262-9.026 8.812-14.732 16.16-16.686 3.282-.88 2.91-1.7-.802-1.7m-180.728 4.48c-.078-.02-.176 0-.313.02-.567.057-1.66.37-3.87.996-4.083 1.133-7.444 1.152-13.913.097-2.56-.41-4.142-.43-5.178-.038-2.09.8-1.212 1.367 3.928 2.617 5.1 1.252 7.855 1.407 11.236.626 2.813-.645 8.343-3.243 8.343-3.908 0-.234 0-.39-.233-.411zm12.316 13.238c-1.25.098-.782 1.153 1.27 2.208 7.874 4.026 11.392 4.573 17.528 2.678 5.276-1.642 5.217-1.603 4.591-2.228-.37-.371-2.52-.352-6.565.078-5.959.645-6.058.645-10.16-.86-2.268-.84-4.77-1.641-5.57-1.798-.313-.039-.586-.078-.821-.078zm-111.423.567c-.06 0-.098 0-.156.02-.841.117-2.247 1.25-4.827 3.713-7.406 6.976-8.403 7.796-15.34 12.37-6.8 4.473-14.108 8.284-23.038 11.997-2.481 1.035-4.533 2.071-4.533 2.326-.02.233.43.312.957.155.528-.136 3.694-1.074 7.035-2.031 9.38-2.756 12.916-4.378 20.4-9.36 9.634-6.43 21.007-16.689 20.362-18.388-.195-.49-.469-.782-.86-.8zm123.516 7.826c-.293.02-.469.116-.469.293 0 .606 5.355 4.709 8.481 6.487 2.463 1.407 6.82 1.759 9.419.782 2.345-.899 1.601-1.523-2.052-1.759-3.362-.214-4.749-.742-10.318-3.908-2.09-1.173-4.161-1.915-5.06-1.895m-6.524 12.794c-6.35 0-7.309.155-12.096 1.797-10.826 3.752-17.333 8.306-30.386 21.164-4.71 4.65-8.91 8.89-9.302 9.418-1.133 1.485.156 1.172 2.228-.528 1.016-.84 1.974-1.66 2.13-1.817.625-.665 12.038-10.825 13.014-11.588a282 282 0 0 0 3.342-2.619c4.943-3.868 10.532-5.04 14.5-3.028 2.97 1.523 3.986 3.36 4.396 7.992.02.234.293.43.585.43.314 0 .567-1.427.567-3.185 0-4.924-2.54-8.09-7.171-8.97l-1.935-.37 1.544-.626c3.322-1.368 7.64-.097 9.751 2.873 1.426 1.993 2.268 5.451 1.915 7.933-.391 2.834.06 3.01 1.153.43 2.09-5.06.098-10.396-4.983-13.21l-1.66-.919 3.184.216c5.374.351 7.797 3.771 7.68 10.805-.04 3.03.078 3.42.742 2.736.43-.43 1.016-1.993 1.29-3.478.84-4.592-1.153-9.126-5.198-11.764-.957-.644-.84-.683 1.134-.489 3.596.373 6.115 1.74 7.737 4.183 1.27 1.915 1.505 2.852 1.505 6.116 0 4.163.49 4.865 1.445 2.11 1.409-4.025.295-10.102-2.11-11.606-.624-.392-1.133-.88-1.133-1.095 0-.43 3.381-.04 5.589.645 1.76.566 2.267.195 1.564-1.094-.979-1.857-3.81-2.482-11.021-2.462m13.75.8c-.412 0-.49.371-.235.977.235.528.722 2.345 1.094 4.045.9 4.124.293 7.778-2.853 16.747-4.064 11.607-5.12 15.633-5.882 22.354-1.367 11.9-.625 19.014 3.343 32.536a440 440 0 0 1 1.816 6.35c.254.9 1.231 4.006 2.17 6.898 2.423 7.406 2.676 8.482 3.341 14.05.371 3.244.411 5.92.059 7.72-.92 4.864.508 4.768 1.934-.138 1.68-5.745.47-12.271-5.921-32.007-2.911-9.067-3.81-14.226-4.182-24.093-.429-11.803.255-16.062 4.65-28.96 3.519-10.26 3.674-10.982 3.695-15.984.018-4.24-.216-5.745-1.192-7.875-.665-1.426-1.485-2.618-1.837-2.618zM79.31 263.82c-.9-.059-.313 2.619 1.25 5.687.9 1.797 1.642 3.966 1.642 4.826 0 1.914 1.622 2.228 1.739.332.215-3.01-.293-4.73-2.188-7.68-1.134-1.739-2.209-3.165-2.443-3.165m-14.15 14.962c-1.192.214-1.426 3.126-.626 7.6.548 2.972.528 3.968-.156 5.844-.86 2.403-.664 5.178.39 5.178.353 0 .959-1.172 1.349-2.618.879-3.127.978-6.723.371-12.154-.371-3.243-.606-3.986-1.328-3.85m100.83 3.757c-.352 0-.743.059-1.153.116-1.29.235-1.29.235.195.86 2.775 1.153 3.4 2.913 2.99 8.286-.196 2.638-.489 5.471-.684 6.312-.45 2.012.624 1.973 1.7-.078 1.153-2.248 1.934-7.7 1.465-10.279-.684-3.693-2.013-5.257-4.514-5.217m-16.908 7.136a.92.92 0 0 0-.585.273c-.196.196-.118.684.175 1.075 2.365 3.224 2.657 3.927 2.697 6.585.019 1.564-.176 3.908-.43 5.179-.586 3.029.449 3.184 1.7.293 1.29-2.99 1.212-8.774-.137-11.06-.84-1.407-2.424-2.423-3.42-2.345m-67.994.7a2.1 2.1 0 0 0-.762.098c-1.504.371-1.973 1.426-.625 1.426.957 0 2.775 2.521 3.264 4.553.644 2.697 1.601 1.759 1.308-1.29-.292-3.028-1.465-4.768-3.185-4.787m294.908 7.38c-.585-.02-.683.529.098 1.017.274.176 1.934 2.227 3.693 4.573 6.272 8.422 15.613 18.33 21.728 23.02 5.258 4.044 16.005 10.18 19.893 11.353 4.71 1.426 7.914 1.934 13.6 2.09 3.635.098 4.553-.038 4.553-.664 0-.528-.86-.88-2.618-1.075-6.566-.743-15.398-3.205-20.108-5.628-11.371-5.822-19.149-12.115-28.606-23.175-2.931-3.419-10.279-10.63-11.51-11.293-.273-.138-.527-.216-.722-.216zm-245.354.357c-.078.02-.156.059-.235.077-.86.334-.86.45.098 1.485.704.782 1.075 2.21 1.212 4.808.233 4.494.508 5.471 1.27 4.69.311-.313.723-2.424.878-4.651.294-3.85.216-4.143-1.112-5.373-.783-.723-1.526-1.095-2.111-1.036m76.053 4.357c-2.795.059-7.74.547-11.88 1.27-10.924 1.915-18.35 7.348-30.133 22.003-5.647 7.054-9.634 11.37-14.362 15.515-1.623 1.406-1.623 1.445-.274 1.094.743-.215 2.247-.939 3.342-1.642 2.462-1.602 8.539-7.854 13.893-14.343 2.247-2.734 6.214-7.111 8.832-9.75 3.986-4.045 5.57-5.217 9.908-7.328 4.924-2.403 13.053-4.69 19.872-5.607 1.445-.196 2.795-.606 2.99-.9.097-.175-.333-.293-1.154-.312a9 9 0 0 0-1.036 0zm-106.243 6.447c-.918.215-.43 8.539.722 10.297l.938 1.408 6.723-.254c3.693-.136 7.425-.43 8.246-.644.84-.196 1.524-.704 1.524-1.095 0-1.036-5.217-1.583-10.767-1.134l-4.573.371-.567-1.797c-.311-1.016-.722-2.873-.918-4.143-.195-1.27-.704-2.599-1.114-2.95-.078-.059-.155-.078-.214-.059m-31.068 1.267a.33.33 0 0 0-.196.06c-.8.82.665 2.794 3.322 4.493 1.935 1.23 3.497 2.853 4.709 4.827 3.518 5.784 5.843 7.132 8.735 5.12 1.76-1.251 1.622-2.678-.234-2.21-1.974.49-3.712-.76-6.019-4.357-2.09-3.263-3.713-4.768-6.43-5.842-.995-.391-2.246-1.075-2.774-1.524-.41-.333-.84-.567-1.113-.567m112.278 24.944c-.02 0-.02 0-.039.02-.175.175.117 1.778.664 3.557 1.368 4.551 4.475 8.01 9.224 10.297 5.921 2.833 8.109 2.911 15.788.508 1.29-.391 1.29-.391.43 1.308-1.036 1.974-3.479 3.87-6.937 5.375-3.927 1.7-11.919 1.485-16.453-.43-4.104-1.74-8.305-5.12-10.649-8.54-.94-1.348-1.974-2.345-2.326-2.227-3.107 1.035 4.357 9.418 11.588 13.034 2.97 1.485 7.25 2.247 11.763 2.09 3.929-.136 5.258-.45 8.345-1.934 2.032-.977 4.376-2.56 5.216-3.557 1.838-2.168 4.026-6.859 4.455-9.496.353-2.169-.253-2.481-1.7-.878-.527.565-2.481 1.718-4.356 2.558-4.769 2.15-9.282 2.091-14.206-.195-4.534-2.09-6.625-4.084-8.794-8.364-.899-1.778-1.758-3.106-2.012-3.125zm268.042 5.857c-2.501 0-2.346.626.489 1.955 1.426.664 3.126 2.13 4.376 3.79 2.19 2.931 2.501 4.3 3.79 15.77.685 6.136.802 6.605 1.681 6.605.353 0 .49-3.185.372-8.988-.156-8.775-.215-9.087-1.837-12.272-1.974-3.87-5.842-6.858-8.871-6.858zm-324.965.49c-.606-.02-1.172 1.407-1.172 4.377 0 3.166.958 5.569 3.185 7.953 1.27 1.367 2.873 2.032 2.873 1.212 0-.177-.645-1.173-1.467-2.229-1.191-1.563-1.504-2.677-1.72-6.038-.214-3.44-.995-5.275-1.7-5.275zm95.339 4.668c-.333.06-.645.606-.84 1.66-.39 2.013.175 4.241 2.13 8.58.625 1.387 1.074 2.93.996 3.439s.117 1.074.43 1.27c.996.625.645 3.77-.782 6.819-.762 1.623-3.107 4.846-5.198 7.172-3.81 4.26-5.569 7.347-5.569 9.848 0 1.74.9 1.173 1.877-1.192.43-1.016 2.833-4.046 5.314-6.722 8.559-9.223 9.263-11.938 5.393-21.319-1.27-3.087-2.442-6.467-2.617-7.503-.235-1.445-.704-2.15-1.134-2.052m96.394 1c-.293.078-.391 1.094-.136 3.03.82 6.819 5.55 13.815 11.157 16.55 2.795 1.388 3.752 1.564 8.404 1.545 5.822-.02 8.772-.704 11.762-2.717l2.012-1.367v1.582c0 2.95-2.128 8.579-4.141 10.923-2.913 3.4-4.69 4.143-10.885 4.435-5.432.256-6.37.645-4.162 1.818 3.479 1.876 8.56 1.915 12.623.098 5.374-2.423 8.364-7.406 9.243-15.456.449-4.104.253-11.138-.312-11.705-.157-.156-.665.352-1.154 1.094-3.283 5.139-8.344 7.719-15.084 7.719-8.07 0-13.992-4.651-17.138-13.463-1.016-2.815-1.779-4.202-2.188-4.084zm84.49 26.1c-1.505 0-1.348 4.612.254 7.172 5.667 9.106 5.51 11.392-1.602 22.08-2.326 3.518-4.905 10.69-4.358 12.116.234.606 1.056-.587 2.618-3.694 1.252-2.52 3.89-6.8 5.825-9.516 3.927-5.491 4.904-7.738 4.943-11.217.039-2.833-.743-4.826-4.006-10.2-1.368-2.247-2.56-4.67-2.657-5.393-.118-.742-.567-1.348-1.017-1.348m32.602 1.534c-.86.059-1.68.371-2.853 1.036l-2.326 1.29 3.947.312c2.678.215 4.417.683 5.453 1.426 2.188 1.583 3.928 5.452 4.3 9.575.175 1.974.428 3.89.546 4.28.41 1.289 1.23.684 1.504-1.115.157-.977.216-3.458.118-5.49-.255-6.312-3.4-10.082-9.243-11.177a7.5 7.5 0 0 0-1.056-.137zm-241.297.556a.57.57 0 0 0-.313.116c-.313.177-.567.802-.567 1.349 0 2.286-4.924 10.865-8.012 13.932-2.99 2.99-7.58 5.687-10.825 6.331-.86.176-1.563.528-1.563.782 0 1.016 4.513.43 7.445-.957 5.92-2.814 12.857-11.236 14.09-17.098.566-2.736.448-4.475-.255-4.455m91.303 2.178c-.411.137.156 2.189 1.817 5.628 2.424 4.944 6.234 8.755 10.553 10.532 4.24 1.74 7.64 1.74 11.529.02 1.68-.742 3.048-1.623 3.048-1.934 0-.372-1.876-.587-5.061-.587-7.211 0-10.826-1.134-14.616-4.592-1.661-1.544-3.772-4.104-4.69-5.705-1.367-2.443-2.268-3.48-2.579-3.362zm90.37 2.557c-.312.117-.176 1.407.645 3.967.938 2.833 1.172 4.904 1.152 10.16 0 7.328-.508 9.38-3.888 16.18-2.032 4.085-8.245 11.569-11.236 13.523-1.641 1.056-2.052 2.032-.879 2.012.391 0 1.934-.742 3.48-1.62 5.45-3.109 11.254-11.003 13.618-18.506 1.74-5.472 1.7-16.199-.059-20.713-1.23-3.205-2.325-4.944-2.774-5.002h-.06zm-227.158 3.735c-.45 0-2.346 1.172-4.417 2.716-2.286 1.72-4.553 2.99-5.315 2.99-1.349 0-1.72.546-.937 1.348.82.84 4.708-.176 6.624-1.72 2.482-2.012 4.748-4.943 4.103-5.334zm90.57.233c-.8 0-1.29.156-1.29.508 0 .313.351.567.743.567.41 0 1.72.84 2.892 1.875 2.032 1.76 2.148 2.052 2.13 4.847-.02 2.325-.43 3.712-1.798 6.136-.978 1.72-1.76 3.243-1.76 3.4 0 .84 1.232.059 2.463-1.583 5.51-7.21 5.452-13.659-.156-15.222-1.29-.351-2.404-.528-3.223-.528zm-105.543 7.737c-.313.02-.645.489-.88 1.407-.449 1.856.234 2.99 2.62 4.182 2.09 1.034 3.243 1.23 3.243.508 0-.665-2.579-3.4-3.224-3.4-.274 0-.665-.606-.86-1.368-.216-.9-.567-1.35-.9-1.33m83.4 5.369c-.391.038-.645.214-.645.644 0 .294.234.547.547.547s1.056.802 1.661 1.799c.84 1.367 1.095 2.774 1.095 6.058 0 .429 0 .917.019 1.269-.04 1.485-.176 2.97-.371 3.752-.176.781-.195.84-.195.918 0 .293.233.548.547.548a.545.545 0 0 0 .508-.392c.351-.879.508-1.778.996-3.3s.821-7.388.177-8.912c-.645-1.563-3.127-3.01-4.339-2.931m-76.064 3.701c-.391.02-.411.665.176 1.797.978 1.877.978 2.228 0 4.104-.664 1.29-.684 1.524-.04 1.524.431 0 1.154-.547 1.624-1.23 1.171-1.66 1.073-3.303-.295-5.042-.625-.8-1.153-1.173-1.465-1.153m284.526.89c-1.134 0-2.032.332-2.032 1.015 0 .45.547.9 1.23.997 1.975.274 4.417 2.99 5.08 5.647.334 1.348.86 2.892 1.174 3.44.313.527.41 1.21.215 1.504-.176.293-.06.547.273.547.313 0 .606-.312.626-.703.332-4.143-1.31-9.927-3.243-11.452-.86-.683-2.19-.996-3.323-.996m-222.212 6.624c-1.056.02-1.29.957-.214 2.012 1.23 1.252 2.833 6.02 2.833 8.462 0 2.149.957 1.973 1.583-.293.996-3.615-.88-9.263-3.343-10.044a2.9 2.9 0 0 0-.859-.137m-83.367.556c-.254.02-.645.273-1.191.781-1.271 1.153-1.271 3.42.018 9.322.353 1.523.47 4.202.274 5.959-.43 3.753.43 6.448 2.033 6.448.567 0 1.035-.117 1.035-.273s-.311-.743-.664-1.329c-.508-.8-.489-1.72.078-4.045.84-3.517.626-5.53-1.075-10.063-1.016-2.716-1.114-3.595-.625-4.924.49-1.29.508-1.915.117-1.876m219.322 2.657c-.918 0-.332 1.23 2.189 4.533 2.833 3.732 3.868 3.4 1.836-.586-1.055-2.032-2.99-3.947-4.025-3.947m-146.259 2.267c-.547.02-1.016.294-1.407.782-.586.683-.49.821.606.821 1.74 0 2.696 1.64 3.049 5.158.429 4.514.722 5.569 1.387 4.905.351-.352.508-2.384.371-5.08-.176-4.026-.333-4.613-1.564-5.55-.937-.722-1.738-1.075-2.442-1.036m143.236.5c-.43.078-1.153.88-2.13 2.326-.84 1.29-2.736 3.419-4.202 4.748-1.465 1.31-2.52 2.618-2.364 2.873.371.605 2.657-.235 4.807-1.779 1.523-1.075 4.26-5.881 4.28-7.484 0-.508-.137-.723-.391-.684m78.743 2.235c-.528 0-.998.136-1.31.449-.39.39-.117.742.9 1.133 1.953.743 2.578 2.501 3.223 9.419.626 6.643.742 7.171 1.583 7.171.45 0 .567-2.168.43-7.425-.156-6.469-.332-7.602-1.348-8.95-.82-1.134-2.306-1.797-3.48-1.797zm-232.139 6.68c-.37.039-.722.215-1.056.547-.488.489-.253 1.075.997 2.482.9 1.036 1.642 2.325 1.642 2.872s.156 1.153.351 1.368c.88.86 1.29.195 1.29-2.051 0-2.99-1.66-5.374-3.224-5.218m217.355 1.567c-.977.04-1.798.294-2.012.82-.216.606.078.822 1.094.822 2.227 0 4.474 2.677 4.904 5.842.469 3.48.665 4.084 1.367 4.084.314 0 .567-1.31.567-3.048 0-2.99-.898-5.588-2.638-7.563-.606-.683-2.05-1.016-3.282-.956zm-262.884 1.734c-.351-.039-.351.665-.117 2.248.234 1.602.097 2.852-.469 3.927-.469.88-.84 1.68-.84 1.797 0 .587 1.23.078 2.207-.898 1.367-1.348 1.505-5.042.235-6.311-.49-.49-.82-.743-1.016-.763m186.142.078a1.1 1.1 0 0 0-.665.137c-.84.528-.567 2.384.508 3.46.587.585 2.268 1.19 3.928 1.425 3.635.47 6.097 2.62 6.097 5.296 0 2.715 1.348 1.7 1.523-1.173.138-2.07-.058-2.657-1.386-3.946-1.016-.958-2.599-1.682-4.475-2.034-3.38-.645-3.946-.917-3.946-1.914 0-.625-.842-1.192-1.584-1.25M132.03 437.023c-.234.02-.508.078-.84.137-1.818.351-3.752 1.758-3.752 2.697 0 .644 3.83-.02 4.807-.84.39-.313.703-.939.703-1.388 0-.489-.233-.665-.918-.606m24.699 1.523c-.117-.02-.215.02-.312.117-.196.177-.078 1.427.214 2.757.313 1.328.704 3.594.88 5.02.468 3.948 1.231 4.436 4.924 3.146 1.66-.586 4.455-1.074 6.194-1.074 2.54 0 3.537-.274 4.847-1.33 2.032-1.62 1.563-2.304-.997-1.464-1.25.41-2.638.469-4.064.137-1.564-.353-2.892-.255-4.73.332-1.406.45-2.911.684-3.341.527-.45-.176-.918-1.485-1.134-3.068-.311-2.305-1.66-4.943-2.481-5.1m-30.179 4.558.508 1.23v.02c.606.743 2.111 1.837 3.576 2.54 1.563.782 3.654 2.19 4.65 3.108 1.427 1.348 3.499 2.812 4.105 2.911.039.019.722-.216 1.504-.508 1.837-.704 1.798-1.466-.078-1.934-.84-.216-2.657-1.447-4.045-2.737-1.857-1.738-3.302-2.54-5.53-3.048-1.642-.39-3.48-.978-4.084-1.289a14 14 0 0 0-.606-.293m188.265.544a5 5 0 0 0-1.075.117c-2.032.411-3.223 1.27-3.223 2.345 0 1.016.233.957 2.774-.489 2.13-1.211 2.677-1.993 1.524-1.973m-2.679 6.114c-.567-.02-.43.626.47 1.895 1.348 1.895 2.872 6.291 2.892 8.324.018.82.489 2.54 1.074 3.83 1.23 2.716 2.501 3.01 5.021 1.212 1.838-1.289 2.131-2.404.528-1.896-1.973.626-3.204-.625-3.888-3.908-1.075-5.1-2.482-7.738-4.865-8.988-.567-.313-.958-.47-1.232-.47m26.533 3.157c-.371.02-.567.332-.293.977 1.095 2.54.86 3.927-1.368 8.363-2.99 5.94-2.618 7.093 2.56 8.246 2.657.586 3.693-.176 1.993-1.465-.684-.508-1.778-1.329-2.462-1.818l-1.231-.878 1.583-3.226c1.7-3.458 2.031-6.838.918-8.948-.45-.841-1.212-1.29-1.701-1.251zm26.733 3.3c-.489-.038-.547.607-.02 1.896.43 1.016 1.154 4.319 1.603 7.309.625 4.318 1.056 5.627 2.012 6.409 1.486 1.191 1.154 1.211 4.26-.411 1.427-.742 4.104-1.523 5.92-1.719 3.245-.352 5.61-1.153 5.063-1.68-.783-.8-7.935-.684-10.103.155-3.224 1.212-3.868.802-4.319-2.657-.567-4.512-1.231-6.547-2.56-7.973-.84-.878-1.466-1.308-1.856-1.328m-18.018 16.641c-.528 0-.86.098-1.094.312-.45.45-.04.92 1.523 1.74 2.698 1.426 4.73 1.465 5.941.137.977-1.075.371-2.15-.781-1.426-.334.194-1.838.038-3.342-.334-.997-.272-1.72-.409-2.247-.429"/></g></g><g fill="red"><g id="b" stroke="#000" stroke-width="1.969"><path stroke-width="2.189" d="M126.551 448.105c-2.11 8.93-2.775 16.394 4.533 22.256.098-5.999 1.33-11.06 4.905-17.43-2.384-2.345-6.077-4.631-9.438-4.827zm208.251 24.109c-.02 8.13-.684 17.235 13.795 25.247-2.52-8.012-3.908-14.48-3.107-21.025-3.36-2.755-7.523-4.084-10.689-4.22zm33.158 17.907c2.168-4.22 3.145-9.653 2.383-14.792 4.377-3.302 9.517-3.947 12.917-3.166-.86 7.855-3.244 13.737-15.301 17.959zm-37.305-76.208c-8.324-4.612-14.244-7.894-20.751-5.764 3.85 4.748 7.836 8.812 11.001 16.746 5.296-3.126 9.067-6.76 9.75-10.982zm-158.33 36.415c-1.954 9.32-9.184 15.867-18.446 17.938 3.42-5.53 5.823-9.829 6.038-14.968 3.4-1.837 7.757-3.322 12.408-2.97zM59.69 74.274c7.055-.918 12.214 2.423 17.646 5.276-1.857 4.026-4.573 7.27-7.895 10.318-2.11-6.351-5.373-11.1-9.75-15.593zm53.556 340.806c-7.387 2.95-13.406 8.246-17.294 15.32 6.214-1.173 12.565-2.228 18.779-2.775.801-3.85 1.72-7.992-1.485-12.545zm-21.02-158.141c-4.142-7.348-9.203-11.686-17.547-11.158 3.088 4.846 5.765 8.402 6.448 14.46 4.24 4.104 10.064-.45 11.1-3.302zm50.665 125.295c-6.253-6.918-13.777-9.986-21.983-9.106 4.123 5.08 8.793 9.848 12.194 15.652 6.194-2.463 7.366-4.436 9.79-6.547zM141.235 60.83c3.087 4.476 3.009 11.549 1.29 18.427-1.779 2.56-11.47-4.924-10.142-6.468 3.322-3.497 6.175-7.816 8.852-11.959zm-49.387-9.848c8.07.918 13.64 8.012 17.118 15.496-3.517 2.404-8.011 2.95-13.365.684.254-6.741-2.052-10.63-3.752-16.18zm-22.231 70.366c-5.295-.215-10.044-1.662-14.421-5.374-.391 12.31 9.106 17.704 17.039 16.747.195-3.283-.45-6.976-2.619-11.373zM61.88 282.66c-7.679 2.052-18.27 5.335-19.892 12.682 7.093-1.563 13.639-1.505 19.952-.254 1.602-3.596 1.192-7.66-.059-12.428zm1.246 52.466c-3.01-9.184-.372-14.695 3.107-21.163 2.716 1.348 5.862 4.103 8.07 7.718-4.455 4.026-8.188 8.305-11.177 13.445zm52.532-12.906c-1.798 4.67-5.022 11.236-19.501 13.992 2.911-3.889 5.06-7.523 5.784-11.783 4.63-1.72 10.473-2.657 13.717-2.208zm193.055 126.318c-6.858 6.331-14.831 12.994-14.128 22.432 5.51-6.057 12.35-8.109 19.248-9.223-.215-5.803-2.208-9.594-5.12-13.21z"/><path stroke-width="2.756" d="M202.026 133.99c-10.415-10.141-29.955-9.106-37.674-18.856-2.716-3.557-3.967-6.996-4.397-10.18-2.52-17.94 27.572-24.974 26.673-4.104-.234 3.302-2.188 5.92-3.615 8.773 8.05 6 16.278 11.783 19.013 24.368z"/></g></g><path id="d" fill="#fff" d="M232.63 65.962c-5.942-4.553-19.531-4.694-20.621-18.072-.387-4.817 3.762-9.616 14.819-6.838-6.68-7.331-17.843-.88-17.245 6.996.598 7.999 4.008 14.327 23.047 17.913zm-47.77-44.283c1.3-1.424 2.69-3.762 3.797-5.344.475 1.353-.932 4.64-1.635 5.819-.369.896-1.547 1.054-2.074.457-.317-.422-.299-.633-.088-.932m-33.8-7.225c.088-2.725-.65-5.063-1.46-7.383 2.163 1.37 3.605 3.656 4.326 6.908.369 1.125-2.936 1.899-2.866.475m-25.25 17.667c-.95-2.162-2.356-4.237-3.762-6.311 2.408.211 3.955 2.408 5.432 4.887.826 1.46-1.002 2.584-1.67 1.424m.21 41.277c-3.322.44-8.772-2.531-8.966-5.397 2.303 1.23 5.397 2.531 8.474 3.147.914.299 1.353 2.11.492 2.25m14.6 114.252c-1.424-3.34-2.9-5.485-5.168-6.364 1.037 2.426 1.845 5.08 2.496 7.77.21.686 3.604.194 2.672-1.406m-23.23 27.26c-3.217.14-6.258 1.09-8.632 1.863 1.16-3.058 4.571-3.181 7.402-4.008 1.335-.386 2.795 2.215 1.23 2.145m5.63 27.15c-1.758 1.758-3.13 5.485-1.74 9.106.668-2.268 1.74-4.87 3.533-7.084.44-.528-1.107-2.62-1.793-2.022m30.97 13c1.02-2.04 2.11-3.797 2.778-6.364.246-.756 2.25-.474 2.18.3-.37 3.48-2.339 5.888-4.958 6.064m31.84 45.85c-2.461-4.149-5.221-6.24-8.28-6.17 2.409 2.848 5.15 5.414 5.766 7.787.334 1.266 3.217-.105 2.514-1.617m-22.41 31.61c-3.13.703-5.907 3.2-7.418 6.258 2.76-1.336 5.52-2.936 8.28-3.99 1.001-.405.439-2.479-.862-2.268m15.5 39.32c.51-2.514.545-5.133 1.688-8.473.597-1.618-2.374-1.776-2.497-.3-.105 2.356-.861 7.138.809 8.773m27.64.09c.686-1.863 1.793-4.131 2.408-6.944.159-.914 2.55-1.371 2.497-.65-.352 3.568-2.356 6.205-4.905 7.594m148.49-39.99c-2.285-4.553-5.274-5.643-8.034-6.381 2.32 2.619 4.747 5.238 5.766 8.438.44 1.142 2.655-.985 2.268-2.057m-13.78 33.77c-2.496.984-4.764 2.918-7.085 4.676.352-2.602 2.391-5.362 6.153-6.891 1.073-.44 1.793 1.969.932 2.215m27.95 18.48c.264 3.621 1.178 8.174 2.04 12.517-4.044-5.256-4.114-8.579-4.712-12.165 0-.95 2.584-1.213 2.672-.352m28.93 8.28c1.582-2.004 3.41-4.483 3.024-7.858-.106-.826-2.356-.563-2.356.281-.035 2.303.018 5.028-.668 7.577" transform="translate(-70.195 49.2)scale(1.11156)"/></g><g id="f" transform="translate(501.76)"><use xlink:href="#a" fill="red" stroke="#000" stroke-width="3.3"/><use xlink:href="#b" fill="#00f"/><use xlink:href="#c"/><use xlink:href="#d"/></g><use xlink:href="#e" x="501.76" y="501.76"/><use xlink:href="#f" x="-501.76" y="501.76"/></svg>