<svg xmlns="http://www.w3.org/2000/svg" xmlns:xlink="http://www.w3.org/1999/xlink" width="1000" height="600"><path d="M0 0h1000v600H0z" style="opacity:1;fill:#004a9c;fill-opacity:1;fill-rule:evenodd;stroke:none;stroke-width:3;stroke-linecap:square;stroke-linejoin:bevel;stroke-miterlimit:4;stroke-dasharray:none;stroke-dashoffset:.99999998;stroke-opacity:1"/><path d="M0 172.5h1000v255H0z" style="opacity:1;fill:#fff;fill-opacity:1;fill-rule:evenodd;stroke:none;stroke-width:3;stroke-linecap:square;stroke-linejoin:bevel;stroke-miterlimit:4;stroke-dasharray:none;stroke-dashoffset:.99999998;stroke-opacity:1"/><path d="M356.5 187.5c12.742-9.436 28.384-22.79 60.553-27.214C486.76 150.7 638.325 161.312 672.5 183c-104.844-14-137.127-5.386-166 5.5-38.674-4.69-77.477-9.33-150-1" style="fill:#ffce18;fill-opacity:1;fill-rule:evenodd;stroke:none;stroke-width:1px;stroke-linecap:butt;stroke-linejoin:miter;stroke-opacity:1"/><path d="M528.5 193c118.039-38.157 294.949 49.014 306 67-22.398-11.736-45.348-22.644-73-26.5L789 245c-4.36.118-22.747-5.453-48.901-9.609-44.514-1.904-78.479-11.146-98.028-18.832C586.761 194.814 531.467 193.58 528.5 193M423 207.25c22.353-25.376 51.547-13.719 66.75-3.25-2.323.194-18.204-6.351-26.75.25-7.684 5.935-10.9 5.841-14.667 2.525-7.553-6.651-18.169 2.128-25.333.475m-8 22.25c-89.816-54.352-183.176-4.962-186 75.5 18.264-34.921 47.855-52.094 106-36 11.692-25.951 43.093-36.11 80-39.5m-66 50c41.862-38.696 104.242-32.515 149.99-7.938C577.958 313.985 661.52 424.16 667.5 465.5c-18.528-25.472-63.641-80.332-85-83-6.267-.783 37.798 32.798 46.5 43.5-21.512-12-62.64-28.623-91.5-40.5-36.64-15.078-53.743-25.832-91-59.5-33.23-30.03-67.729-44.434-97.5-46.5" style="fill:#ffce18;fill-opacity:1;fill-rule:evenodd;stroke:none;stroke-width:1px;stroke-linecap:butt;stroke-linejoin:miter;stroke-opacity:1"/><path id="a" d="m200.5 231.989 10.107 31.1 32.701.002-26.455 19.222 10.104 31.102-26.457-19.22-26.457 19.22 10.104-31.102-26.455-19.222 32.701-.001z" style="opacity:1;fill:#004a9c;fill-opacity:1;fill-rule:evenodd;stroke:none;stroke-width:3;stroke-linecap:square;stroke-linejoin:bevel;stroke-miterlimit:4;stroke-dasharray:none;stroke-dashoffset:.99999998;stroke-opacity:1" transform="translate(14.285 19.357)scale(.92875)"/><use xlink:href="#a" width="1000" height="600" style="fill:#004a9c;fill-opacity:1" transform="translate(189.5 108)"/><use xlink:href="#a" width="1000" height="600" style="fill:#004a9c;fill-opacity:1" transform="translate(126.333 72)"/><use xlink:href="#a" width="1000" height="600" style="fill:#004a9c;fill-opacity:1" transform="translate(63.167 36)"/><path d="m283.02 489.06-.253.228q-2.59.153-2.971.254-.737.203-.863.94-.33 1.853-.33 7.87v18.891q0 5.105-1.092 7.947-1.245 3.25-4.47 6.069-3.528 3.097-6.753 3.097-1.066 0-2.082-.38.127-1.905.127-4.698l.584-.355q2.057 1.853 3.63 1.853 2.185 0 2.438-2.31.33-2.997.33-8.988v-21.125q0-6.018-.33-7.872-.126-.736-.863-.939-.177-.05-3.555-.254l-.254-.254v-1.726l.254-.229q3.505.152 8.38.152 5.534 0 7.82-.152l.253.229zm321.116 37.203-.228.254q-5.637-.153-6.805-.153-4.672 0-8.683.153l-.229-.254v-1.6l.254-.28 2.209-.126q1.395-.076 1.396-.99 0-.534-.71-2.387l-2.057-5.358q-3.504-.05-7.16-.05-1.98 0-5.89.05l-1.118 3.098q-1.27 3.53-1.27 4.418 0 .965 1.194 1.143.66.1 2.59.203l.253.254v1.625l-.253.254q-4.698-.153-6.043-.153-1.041 0-5.155.153l-.254-.229v-1.65l.28-.254q2.615-.153 3.199-1.041.609-.89 4.494-10.588l6.627-16.58q.736-1.93 2.234-5.815h3.606l13.457 31.662q.788 1.803 1.422 2.032.837.304 2.412.304l.228.28zm-16.097-13.66-5.434-13.305-5.205 13.305q2.082.076 5.408.076 3.225 0 5.23-.076m-269.451 1.38q0 6.487-3.78 10.178-3.674 3.585-10.037 3.586-6.012 0-9.44-3.375-3.427-3.393-3.427-9.422 0-8.455 6.451-11.707 2.935-1.476 7.225-1.476 6.135 0 9.545 3.216 3.462 3.27 3.463 9m-5.414.914q0-5.097-2.057-8.085-2.04-3.006-5.994-3.006-5.221 0-6.926 4.693-.879 2.408-.879 5.397 0 5.43 2.004 8.578 2.074 3.252 6.205 3.252 5.01 0 6.733-4.94.914-2.619.914-5.889m44.927 12.006-.175.176q-1.74-.105-5.415-.105-3.76 0-5.414.105l-.175-.158v-1.195l.193-.176q1.792-.106 2.057-.176.51-.14.597-.65.23-1.265.229-5.45v-4.236q-.897-.087-5.696-.088-4.43 0-5.835.088v4.236q0 4.184.228 5.45.088.51.598.65.263.07 2.056.176l.176.176v1.177l-.158.176q-1.758-.105-5.414-.105-3.78 0-5.414.105l-.176-.158v-1.195l.176-.176q1.792-.106 2.056-.176.51-.14.598-.65.229-1.265.229-5.45v-9.298q0-4.185-.229-5.45-.088-.51-.598-.65-.262-.07-2.056-.176l-.176-.176v-1.195l.176-.158q1.688.105 5.414.105 3.815 0 5.414-.105l.158.158v1.213l-.176.158q-1.792.106-2.056.176-.51.14-.598.65-.228 1.266-.228 5.45v2.9q1.863.088 5.132.088 5.133 0 6.399-.088v-2.9q0-4.184-.229-5.45-.088-.51-.597-.65-.264-.07-2.057-.176l-.193-.176v-1.195l.175-.158q1.706.105 5.414.105 3.832 0 5.415-.105l.175.158v1.213l-.158.158q-1.828.106-2.074.176-.51.14-.598.65-.228 1.265-.228 5.45v9.298q0 4.184.228 5.45.088.51.598.65.264.07 2.057.176l.175.176zm38.953-23.379-.193.176q-1.792.106-2.057.176-.51.14-.597.65-.23 1.265-.229 5.45v7.136q0 7.893.229 10.284l-.229.158a112 112 0 0 0-3.006-.475q-4.71-5.29-16.084-19.3v11.495q0 4.184.229 5.45.088.51.598.65.262.07 2.056.176l.176.176v1.195l-.176.158a73 73 0 0 0-7.822 0l-.176-.158v-1.195l.176-.176q1.792-.106 2.057-.176.51-.14.597-.65.23-1.266.229-5.45v-9.298q0-4.184-.229-5.45-.088-.51-.597-.65-.264-.07-2.057-.176l-.176-.176v-1.195l.176-.158q1.67.105 3.182.105 2.373 0 3.937-.105 6.329 8.437 14.871 18.088v-10.283q0-4.184-.228-5.45-.088-.51-.598-.65-.264-.07-2.057-.176l-.175-.176v-1.195l.175-.158q1.969.105 3.745.105 2.266 0 4.078-.105l.175.158zm30.27 15.329q0 2.9-1.652 5.115-1.442 1.95-3.78 2.9-2.144.88-5.115.88-3.69 0-7.242-1.688l-.211-.387q.492-2.022.492-5.748l.176-.176h1.125l.158.176v.404q0 .984.211 2.602.633 1.125 2.268 1.933a7.9 7.9 0 0 0 3.55.844q3.48 0 4.817-2.426.685-1.248.685-2.584 0-2.25-1.88-3.217-.933-.475-3.006-.79-4.695-.722-6.17-1.811-2.233-1.653-2.233-5.115 0-3.605 2.426-5.748 2.567-2.25 7.137-2.25 4.113 0 6.644 1.318l.123.422q-.42 2.091-.51 5.027l-.193.176h-1.107l-.176-.176q-.053-2.109-.176-2.742-.545-.826-1.898-1.406a7.8 7.8 0 0 0-3.006-.598q-2.356 0-3.727 1.248-1.283 1.178-1.283 3.041 0 2.022 1.46 2.97.948.616 4.482 1.179a96 96 0 0 1 2.056.351q1.038.176 1.916.51 1.776.668 2.672 2.039.967 1.494.967 3.727m34.172-16.577a18 18 0 0 0-.229 2.69l-.035 2.935-.176.176h-1.107l-.193-.158q-.088-2.25-.194-2.637-.21-.703-1.125-.826-.351-.053-3.304-.053h-2.356q-.035.616-.035 4.887v9.984q0 4.184.228 5.45.088.51.598.65.264.07 2.057.176l.176.176v1.177l-.176.176q-1.74-.105-5.414-.105-3.762 0-5.414.105l-.159-.158v-1.195l.176-.176q1.793-.106 2.057-.176.51-.14.597-.65.23-1.266.229-5.45v-9.984q0-4.341-.053-4.887h-2.513q-3.147 0-3.674.194-.282.105-.387.263-.158.282-.264 1.125a20 20 0 0 0-.158 1.916l-.176.176h-1.107l-.193-.176-.036-3.005a21 21 0 0 0-.21-2.62l.158-.175q1.036.175 7.558.175h7.12q6.011 0 7.558-.175zm38.056 11.707q0 6.487-3.779 10.178-3.675 3.586-10.037 3.586-6.012 0-9.44-3.375-3.427-3.392-3.427-9.422 0-8.455 6.451-11.707 2.935-1.476 7.225-1.476 6.135 0 9.545 3.216 3.462 3.27 3.462 9m-5.414.914q0-5.097-2.056-8.085-2.04-3.006-5.994-3.006-5.221 0-6.926 4.693-.88 2.408-.88 5.397 0 5.43 2.005 8.578 2.074 3.252 6.205 3.252 5.01 0 6.732-4.94.914-2.619.914-5.889m44.896-11.373-.193.176q-1.793.106-2.057.176-.51.14-.598.65-.228 1.266-.228 5.45v7.136q0 7.893.228 10.284l-.228.158a112 112 0 0 0-3.006-.475q-4.71-5.29-16.084-19.3v11.495q0 4.184.228 5.45.088.51.598.65.264.07 2.057.176l.176.176v1.195l-.176.158a73 73 0 0 0-7.823 0l-.175-.158v-1.195l.175-.176q1.793-.106 2.057-.176.51-.14.598-.65.228-1.265.228-5.45v-9.298q0-4.185-.228-5.45-.088-.51-.598-.65-.264-.07-2.057-.176l-.175-.176v-1.195l.175-.158q1.67.105 3.182.105 2.373 0 3.938-.105 6.327 8.437 14.87 18.088v-10.283q0-4.185-.228-5.45-.088-.51-.597-.65-.264-.07-2.057-.176l-.176-.176v-1.195l.176-.158q1.968.105 3.744.105 2.268 0 4.078-.105l.176.158zm96.451-1.248a18 18 0 0 0-.228 2.69l-.036 2.935-.175.176h-1.108l-.193-.158q-.088-2.25-.193-2.637-.212-.703-1.125-.826-.352-.053-3.305-.053h-2.356q-.035.616-.035 4.887v9.984q0 4.184.229 5.45.088.51.597.65.264.07 2.057.176l.176.176v1.177l-.176.176q-1.74-.105-5.414-.105-3.762 0-5.414.105l-.158-.158v-1.195l.175-.176q1.793-.106 2.057-.176.51-.14.598-.65.228-1.265.228-5.45v-9.984q0-4.341-.052-4.887h-2.514q-3.146 0-3.674.194-.28.105-.387.263-.158.282-.263 1.125a20 20 0 0 0-.159 1.916l-.175.176h-1.108l-.193-.176-.035-3.005a21 21 0 0 0-.211-2.62l.158-.175q1.036.175 7.559.175h7.119q6.012 0 7.558-.175zm38.057 11.707q0 6.487-3.78 10.178-3.673 3.585-10.037 3.586-6.01 0-9.44-3.375-3.427-3.392-3.427-9.422 0-8.455 6.451-11.707 2.936-1.476 7.225-1.476 6.135 0 9.545 3.216 3.462 3.27 3.463 9m-5.414.914q0-5.097-2.057-8.085-2.04-3.006-5.994-3.006-5.221 0-6.926 4.693-.879 2.408-.879 5.397 0 5.43 2.004 8.578 2.074 3.252 6.205 3.252 5.01 0 6.733-4.94.914-2.619.914-5.889m36.545 6.206q-.387 2.566-.387 5.8l-.176.176-12.78-.105q-3.198 0-4.517.105l-.176-.176v-.492l.088-.21q1.301-.827 1.407-1.038.158-.316.193-2.338l.053-3.937v-8.912q0-4.185-.229-5.45-.088-.51-.597-.65-.264-.07-2.057-.176l-.176-.176v-1.195l.176-.158q1.81.105 5.308.105 3.622 0 5.502-.105l.176.158v1.213l-.176.158q-1.792.106-2.056.176-.51.14-.598.65-.228 1.266-.228 5.45v10.511q0 2.303.087 4.465h2.391q5.133 0 6.293-.404a.57.57 0 0 0 .281-.194q.176-.246.334-1.054l.422-2.18.176-.193h1.072zm30.814 0q-.387 2.566-.387 5.8l-.175.176-12.78-.105q-3.199 0-4.517.105l-.176-.176v-.492l.088-.21q1.3-.827 1.406-1.038.159-.316.193-2.338l.053-3.937v-8.912q0-4.185-.228-5.45-.088-.51-.598-.65-.264-.07-2.057-.176l-.175-.176v-1.195l.175-.158q1.81.105 5.309.105 3.621 0 5.502-.105l.176.158v1.213l-.176.158q-1.793.106-2.057.176-.51.14-.597.65-.23 1.266-.229 5.45v10.511q0 2.303.088 4.465h2.39q5.133 0 6.294-.404a.57.57 0 0 0 .28-.194q.177-.246.335-1.054l.422-2.18.175-.193h1.073z" style="font-size:52px;font-style:normal;font-variant:normal;font-weight:700;font-stretch:normal;text-align:center;line-height:100%;writing-mode:lr-tb;text-anchor:middle;fill:#ffce18;fill-opacity:1;stroke:none;stroke-width:1px;stroke-linecap:butt;stroke-linejoin:miter;stroke-opacity:1;font-family:Palatino Linotype"/></svg>