<svg xmlns="http://www.w3.org/2000/svg" width="900" height="600"><path d="M0 0h900v600H0z" style="fill:#fff;fill-opacity:1;fill-rule:evenodd;stroke:none;stroke-width:2;stroke-linecap:square;stroke-linejoin:bevel;stroke-miterlimit:4;stroke-dasharray:none;stroke-dashoffset:.99999998;stroke-opacity:1"/><path d="M0 300h900v300H0z" style="fill:#bf0a30;fill-opacity:1;fill-rule:evenodd;stroke:none;stroke-width:2;stroke-linecap:square;stroke-linejoin:bevel;stroke-miterlimit:4;stroke-dasharray:none;stroke-dashoffset:.99999998;stroke-opacity:1"/><path d="M0 600h285s97.17-301.325 95-299.908L285 0H0z" style="fill:#002868;fill-opacity:1;stroke:none"/><path d="M100.912 116.644a40.49 40.239 0 1 1-80.982 0 40.49 40.239 0 1 1 80.982 0" style="fill:#f3e529;fill-opacity:1;stroke:none;stroke-width:.375;stroke-linecap:butt;stroke-linejoin:bevel;stroke-miterlimit:4;stroke-dasharray:none;stroke-opacity:1" transform="matrix(2.7784 0 0 2.23666 -19.374 39.106)"/><path d="M124.13 252.22c3.915 3.354 6.992 8.107 6.992 10.344 0 2.516 3.076 4.473 6.992 5.032s9.789 2.237 13.425 3.914c4.755 2.517 6.992 2.517 9.51 0 1.957-1.957 6.992-3.355 11.467-3.355 7.551 0 8.11.84 6.992 8.108-.839 6.151.56 9.227 6.713 14.259 4.195 3.355 7.831 8.108 7.831 10.345 0 3.075-1.678 2.236-5.314-2.237-4.755-5.871-5.035-5.871-4.755-1.118.28 3.075 2.238 8.946 4.475 13.14 2.797 6.15 3.077 8.387 0 12.022-3.636 4.473-18.18 6.15-15.662 1.678.839-1.398-3.636-2.237-10.35-1.678-7.271.28-14.823-1.118-20.137-4.194-4.475-2.796-13.145-5.87-19.019-6.71-5.873-1.118-11.467-3.914-12.306-6.15-.84-1.958-3.077-3.915-5.314-3.915s-11.188-5.591-19.858-12.301c-8.67-6.99-17.062-11.743-18.18-10.904-3.077 1.677-3.636 1.398 14.823 14.818 8.111 6.15 16.222 11.183 18.18 11.183s5.314 2.237 7.272 4.753c4.755 6.43 26.291 15.936 44.191 19.57 3.916.84 16.782 6.431 28.809 12.303 12.026 5.87 22.934 10.903 23.773 10.903 1.12 0 2.238-9.785 2.518-21.528.559-17.334-.28-23.205-4.755-30.474-3.077-4.753-7.552-9.506-9.51-10.345-2.517-1.118-3.356-3.914-2.517-7.269 2.517-9.785-1.398-19.57-8.67-21.528-3.636-.839-11.188.56-16.782 2.796l-10.348 4.473-15.104-11.183c-15.942-11.742-27.13-15.377-15.383-4.753z" style="fill:#002868;fill-opacity:1;stroke:none"/><path d="M-70.346 242.563h6.642l2.394 12.65 3.49-12.65h6.626l3.506 12.65 2.394-12.65h6.61l-4.988 22.642h-6.858l-3.969-14.255-3.954 14.255h-6.857z" style="font-size:31.63138008px;font-style:normal;font-variant:normal;font-weight:900;font-stretch:normal;text-align:start;line-height:125%;writing-mode:lr-tb;text-anchor:start;fill:#002868;fill-opacity:1;stroke:none;stroke-width:1px;stroke-linecap:butt;stroke-linejoin:miter;stroke-opacity:1;font-family:Arial Black;-inkscape-font-specification:Arial Black Heavy" transform="rotate(-32.617)"/><path d="M107.015 249.485h-7.97l-1.096 3.737h-7.151l8.51-22.642h7.63l8.51 22.642h-7.321zm-1.467-4.896-2.502-8.14-2.487 8.14z" style="font-size:31.63137245px;font-style:normal;font-variant:normal;font-weight:900;font-stretch:normal;text-align:start;line-height:125%;writing-mode:lr-tb;text-anchor:start;fill:#002868;fill-opacity:1;stroke:none;stroke-width:1px;stroke-linecap:butt;stroke-linejoin:miter;stroke-opacity:1;font-family:Arial Black;-inkscape-font-specification:Arial Black Heavy" transform="rotate(-6.552)"/><path d="M195.993 185.648h6.997v8.557l7.336-8.557h9.298l-8.248 8.541 8.618 14.101h-8.618l-4.772-9.313-3.614 3.784v5.53h-6.997z" style="font-size:31.63138008px;font-style:normal;font-variant:normal;font-weight:900;font-stretch:normal;text-align:start;line-height:125%;writing-mode:lr-tb;text-anchor:start;fill:#002868;fill-opacity:1;stroke:none;stroke-width:1px;stroke-linecap:butt;stroke-linejoin:miter;stroke-opacity:1;font-family:Arial Black;-inkscape-font-specification:Arial Black Heavy" transform="rotate(10.025)"/><path d="M298.973 69.27h18.75v4.834h-11.738v3.599h10.889v4.618h-10.889v4.463h12.078v5.128h-19.09z" style="font-size:31.63136864px;font-style:normal;font-variant:normal;font-weight:900;font-stretch:normal;text-align:start;line-height:125%;writing-mode:lr-tb;text-anchor:start;fill:#002868;fill-opacity:1;stroke:none;stroke-width:1px;stroke-linecap:butt;stroke-linejoin:miter;stroke-opacity:1;font-family:Arial Black;-inkscape-font-specification:Arial Black Heavy" transform="rotate(35.352)"/><path d="M288.335 155.613h7.012v22.643h-7.012z" style="font-size:31.63135719px;font-style:normal;font-variant:normal;font-weight:900;font-stretch:normal;text-align:start;line-height:125%;writing-mode:lr-tb;text-anchor:start;fill:#002868;fill-opacity:1;stroke:none;stroke-width:1px;stroke-linecap:butt;stroke-linejoin:miter;stroke-opacity:1;font-family:Arial Black;-inkscape-font-specification:Arial Black Heavy" transform="rotate(49.288)"/><path d="m266.595 233.738 6.657-.417q.216 1.622.88 2.471 1.08 1.374 3.09 1.375 1.497 0 2.308-.703t.811-1.63q0-.88-.772-1.575-.773-.694-3.583-1.313-4.603-1.035-6.564-2.749-1.977-1.714-1.977-4.371 0-1.745 1.011-3.297 1.012-1.553 3.043-2.44 2.031-.89 5.568-.889 4.34 0 6.618 1.614t2.71 5.136l-6.594.386q-.262-1.53-1.105-2.224-.841-.695-2.324-.695-1.22 0-1.838.517-.618.518-.618 1.259 0 .54.51.973.495.447 2.347.834 4.589.989 6.572 2 1.984 1.011 2.889 2.51.903 1.499.903 3.351 0 2.177-1.205 4.016-1.204 1.838-3.367 2.788-2.162.95-5.452.95-5.776 0-8-2.224t-2.518-5.653" style="font-size:31.63136864px;font-style:normal;font-variant:normal;font-weight:900;font-stretch:normal;text-align:start;line-height:125%;writing-mode:lr-tb;text-anchor:start;fill:#002868;fill-opacity:1;stroke:none;stroke-width:1px;stroke-linecap:butt;stroke-linejoin:miter;stroke-opacity:1;font-family:Arial Black;-inkscape-font-specification:Arial Black Heavy" transform="rotate(37.072)"/><path d="M205.81 307.373h6.996v17.067h10.92v5.576h-17.917v-22.643z" style="font-size:31.63138008px;font-style:normal;font-variant:normal;font-weight:900;font-stretch:normal;text-align:start;line-height:125%;writing-mode:lr-tb;text-anchor:start;fill:#002868;fill-opacity:1;stroke:none;stroke-width:1px;stroke-linecap:butt;stroke-linejoin:miter;stroke-opacity:1;font-family:Arial Black;-inkscape-font-specification:Arial Black Heavy" transform="rotate(16.7)"/><path d="M153.936 379.29h-7.97l-1.096 3.737h-7.152l8.51-22.642h7.63l8.51 22.642h-7.32zm-1.468-4.896-2.502-8.14-2.486 8.14z" style="font-size:31.63138008px;font-style:normal;font-variant:normal;font-weight:900;font-stretch:normal;text-align:start;line-height:125%;writing-mode:lr-tb;text-anchor:start;fill:#002868;fill-opacity:1;stroke:none;stroke-width:1px;stroke-linecap:butt;stroke-linejoin:miter;stroke-opacity:1;font-family:Arial Black;-inkscape-font-specification:Arial Black Heavy" transform="rotate(.216)"/><path d="M60.386 393.534h6.533l8.526 12.526v-12.526h6.595v22.642h-6.595l-8.48-12.433v12.433h-6.579z" style="font-size:31.63139343px;font-style:normal;font-variant:normal;font-weight:900;font-stretch:normal;text-align:start;line-height:125%;writing-mode:lr-tb;text-anchor:start;fill:#002868;fill-opacity:1;stroke:none;stroke-width:1px;stroke-linecap:butt;stroke-linejoin:miter;stroke-opacity:1;font-family:Arial Black;-inkscape-font-specification:Arial Black Heavy" transform="rotate(-17.166)"/><path d="M-49.896 396.624h10.394q3.074 0 4.966.834t3.127 2.394q1.236 1.56 1.792 3.63t.556 4.386q0 3.63-.826 5.63-.827 2-2.294 3.351t-3.15 1.8q-2.302.617-4.17.617h-10.395zm6.996 5.128v12.371h1.715q2.193 0 3.12-.486.926-.487 1.451-1.7.525-1.212.525-3.93 0-3.6-1.173-4.927-1.174-1.328-3.892-1.328z" style="font-size:31.63138008px;font-style:normal;font-variant:normal;font-weight:900;font-stretch:normal;text-align:start;line-height:125%;writing-mode:lr-tb;text-anchor:start;fill:#002868;fill-opacity:1;stroke:none;stroke-width:1px;stroke-linecap:butt;stroke-linejoin:miter;stroke-opacity:1;font-family:Arial Black;-inkscape-font-specification:Arial Black Heavy" transform="rotate(-38.855)"/><path d="m149.999 108.61 8.038 24.172 25.472.175-20.504 15.114 7.704 24.28L150 157.52l-20.71 14.83 7.704-24.28-20.504-15.113 25.472-.175L150 108.611z" style="fill:#f3e529;fill-opacity:1;fill-rule:evenodd;stroke:none;stroke-width:2;stroke-linecap:square;stroke-linejoin:bevel;stroke-miterlimit:4;stroke-dasharray:none;stroke-dashoffset:.99999998;stroke-opacity:1" transform="translate(40.86 46.811)scale(.7176)"/><path d="m149.999 108.61 8.038 24.172 25.472.175-20.504 15.114 7.704 24.28L150 157.52l-20.71 14.83 7.704-24.28-20.504-15.113 25.472-.175L150 108.611z" style="fill:#f3e529;fill-opacity:1;fill-rule:evenodd;stroke:none;stroke-width:2;stroke-linecap:square;stroke-linejoin:bevel;stroke-miterlimit:4;stroke-dasharray:none;stroke-dashoffset:.99999998;stroke-opacity:1" transform="translate(40.86 346.811)scale(.7176)"/><path d="m149.999 108.61 8.038 24.172 25.472.175-20.504 15.114 7.704 24.28L150 157.52l-20.71 14.83 7.704-24.28-20.504-15.113 25.472-.175L150 108.611z" style="fill:#f3e529;fill-opacity:1;fill-rule:evenodd;stroke:none;stroke-width:2;stroke-linecap:square;stroke-linejoin:bevel;stroke-miterlimit:4;stroke-dasharray:none;stroke-dashoffset:.99999998;stroke-opacity:1" transform="translate(214.61 196.811)scale(.7176)"/></svg>