<svg xmlns="http://www.w3.org/2000/svg" xmlns:xlink="http://www.w3.org/1999/xlink" width="429" height="260"><path fill="red" d="M0 0h429v260H0z"/><use xlink:href="#a" width="100%" height="100%" x="-120" transform="matrix(.95 0 0 .95 -15.259 6.62)"/><g id="a"><path fill="#fcc917" stroke="#000" stroke-miterlimit="10" stroke-width=".95" d="m180.91 109.98 4.433-3.166s1.583-5.621 5.463-5.621 10.291 2.612 10.291 6.57v9.5s.713 4.988 7.68 5.7c6.966.713 27.787 2.376 27.787 2.376L221.047 136.5l26.759 12.034-15.675 2.296 5.304 12.034s-23.67-14.41-24.304-14.488c.079 2.454.079 6.016.079 6.016l-6.254-4.275-4.038 6.175-2.137-14.012s-1.188.554-1.109 1.504c.08.95 1.188 8.55 1.188 8.55l-5.463-5.225-3.325 3.087-.079-7.283 3.722-.159s-12.984-9.025-13.618-14.725c-.612-5.508-.291-3.563 0-5.541.29-1.96 3.168-5.7 3.325-6.096.159-.397.555-1.188-.237-2.138s-4.275-4.275-4.275-4.275z"/><path fill="#fcc917" stroke="#000" stroke-linecap="square" stroke-miterlimit="10" stroke-width=".95" d="M191.835 120.43s-9.104 8.833 15.437 17.259c7.005 2.404 25.74-.702 32.3-1.347 0 0-31.92-9.61-37.295-16.56"/><path d="M199.435 122.488c3.793 2.062 7.448 4.242 11.204 6.223a79 79 0 0 0 5.701 2.786c1.945.822 3.919 1.572 6.052 1.916-2.167.253-4.374-.224-6.44-.873-2.081-.659-4.062-1.569-5.98-2.571a53 53 0 0 1-5.516-3.401c-1.763-1.242-3.466-2.574-5.021-4.08m-2.296 1.187a99 99 0 0 0 4.645 3.63c1.58 1.138 3.184 2.23 4.861 3.184 3.34 1.941 6.909 3.4 10.839 4.032-1.981.27-4.03.055-5.98-.462-1.96-.51-3.822-1.34-5.571-2.337a29 29 0 0 1-4.848-3.558c-1.478-1.345-2.847-2.819-3.946-4.489m-2.93 1.821a60 60 0 0 0 4.212 3.665c1.453 1.131 2.944 2.198 4.52 3.113a31 31 0 0 0 4.915 2.374c1.711.642 3.494 1.106 5.355 1.458-1.88.243-3.823.077-5.685-.396-1.869-.462-3.65-1.244-5.309-2.21a23.7 23.7 0 0 1-4.528-3.508c-1.353-1.342-2.577-2.824-3.48-4.496m19 19.366 17.26.822-17.26.822.822-.798.05 2.696-1.9-.056.207-2.689.065-.833zm-28.895-34.328c.631-.378 1.335-.38 1.996-.196.325.108.65.266.912.516.264.241.475.573.495.946a12 12 0 0 0-.884-.314l-.804-.24c-.54-.18-1.093-.34-1.715-.712m10.43-2.83s-3.088-1.089-6.294-.693c1.425-1.148 3.562-3.167 6.294.693"/></g><use xlink:href="#a" width="100%" height="100%" x="120" transform="matrix(.95 0 0 .95 36.741 6.62)"/><g transform="translate(-2)"><use xlink:href="#a" width="100%" height="100%" x="-60" y="75" transform="matrix(.95 0 0 .95 -.259 -23.63)"/><use xlink:href="#a" width="100%" height="100%" x="60" y="75" transform="matrix(.95 0 0 .95 31.741 -23.63)"/></g><use xlink:href="#a" width="100%" height="100%" y="150" transform="matrix(.95 0 0 .95 10.741 -53.88)"/><path fill="#fff" fill-rule="evenodd" d="M2.148 67.734s-.91.012-2.148.047v13.031c1.224-.048 2.161-.075 2.18-.076.053.001 7.357.11 12.345 1.06 14.558 2.775 28.71 7.781 43.725 10.528 6.887 1.26 14.695 1.281 14.695 1.281l.07.002.07-.002s7.81-.02 14.696-1.28c15.015-2.748 29.168-7.754 43.725-10.528 4.989-.95 12.292-1.06 12.346-1.06.056 0 7.356.11 12.343 1.06 14.558 2.774 28.71 7.78 43.725 10.527 6.887 1.26 14.697 1.281 14.697 1.281l.069.002.07-.002s7.81-.02 14.697-1.28c15.015-2.748 29.167-7.754 43.725-10.528 4.987-.95 12.287-1.06 12.343-1.06.057 0 7.357.11 12.344 1.06 14.558 2.774 28.712 7.78 43.727 10.527 6.887 1.26 14.695 1.281 14.695 1.281l.07.002.07-.002s7.81-.02 14.696-1.28c15.014-2.748 29.167-7.754 43.725-10.528 4.987-.95 12.287-1.06 12.343-1.06.016 0 .774.02 1.809.058V67.768c-1.05-.027-1.775-.034-1.775-.034h-.065s-7.803-.032-14.746 1.291c-15.804 3.012-30.006 8.02-43.63 10.512-5.039.922-12.308 1.064-12.427 1.067-.118-.003-7.387-.145-12.425-1.067-13.626-2.493-27.827-7.5-43.631-10.512-6.943-1.323-14.746-1.29-14.746-1.29h-.067s-7.801-.033-14.744 1.29c-15.804 3.012-30.006 8.02-43.63 10.512-5.04.922-12.313 1.064-12.428 1.067-.119-.003-7.388-.145-12.426-1.067-13.625-2.493-27.827-7.5-43.631-10.512-6.943-1.323-14.746-1.29-14.746-1.29h-.065s-7.803-.033-14.746 1.29c-15.804 3.012-30.005 8.02-43.63 10.512-5.039.922-12.308 1.064-12.426 1.067-.119-.003-7.388-.145-12.426-1.067-13.625-2.493-27.827-7.5-43.631-10.512-6.943-1.323-14.746-1.29-14.746-1.29z" color="#000" font-family="sans-serif" font-weight="400" overflow="visible" style="line-height:normal;text-indent:0;text-align:start;text-decoration-line:none;text-decoration-style:solid;text-decoration-color:#000;text-transform:none;block-progression:tb;isolation:auto;mix-blend-mode:normal"/><path fill="#fcc917" fill-rule="evenodd" stroke="#000" stroke-width=".95" d="m180.983 57.73-1.048-11.516c4.743-6.51 23.545-8.099 34.565-8.706 11.02.607 29.822 2.197 34.565 8.706l-1.048 11.516z"/><g stroke="#000" transform="translate(-.378)"><path fill-rule="evenodd" d="m215.018 19.663-1.837-2.82h3.148z"/><path fill="#fcc917" stroke-width=".95" d="M220.102 15.17c2.137.05 3.87 1.733 3.871 3.87a3.87 3.87 0 0 1-3.87 3.874 3.87 3.87 0 0 1-2.548-.963c.772 6.38 2.37 10.7 6.033 13.717a3.94 3.94 0 0 1 1.223 2.837 3.87 3.87 0 0 1-3.871 3.873 5.5 5.5 0 0 1-2.645-.689c.29.781.516 1.428.516 2.19 0 2.137-1.734 3.87-3.933 3.87s-3.933-1.733-3.933-3.87c0-.762.225-1.409.515-2.19a5.5 5.5 0 0 1-2.644.69 3.87 3.87 0 0 1-3.871-3.874c0-1.072.447-2.096 1.222-2.837 3.663-3.017 5.262-7.338 6.034-13.717-.705.618-1.61.96-2.547.963a3.87 3.87 0 0 1-3.871-3.873c0-2.138 1.734-3.821 3.87-3.871 2.27-.054 3.23 1.62 5.225 4.197 1.996-2.578 2.955-4.25 5.224-4.197z"/><circle cx="214.878" cy="13.715" r="3.582" fill="#fcc917" stroke-width=".95"/><circle cx="214.878" cy="13.715" r="1.769" fill="none" stroke-width=".7"/><g fill="none" stroke-width=".5" transform="translate(-.035)"><circle cx="208.913" cy="38.558" r="1.333"/><circle cx="220.913" cy="38.558" r="1.333"/></g><circle cx="214.878" cy="43.93" r="1.333" fill="none" stroke-width=".5"/></g><g transform="translate(-.365)"><path fill-rule="evenodd" d="M258.338 21.42c-3.812 3.943-3.735 9.727-4.777 14.982l-1.652-14.45z"/><path fill="#fcc917" stroke="#000" stroke-width=".95" d="M248.675 53.072c-2.155-.438-3.509-2.48-3.084-4.576.152-.746.5-1.336.94-2.043a5.5 5.5 0 0 1-2.728.15 3.87 3.87 0 0 1-3.023-4.566 3.94 3.94 0 0 1 1.762-2.538c4.19-2.228 6.617-6.144 8.642-12.243a3.87 3.87 0 0 1-2.688.437 3.87 3.87 0 0 1-3.023-4.565c.426-2.095 2.46-3.4 4.564-3.024 4.056 1.618 4.126 7.357 3.994 11.162-.125 3.584-1.766 18.618-5.356 21.806z"/><circle cx="254.263" cy="-31.492" r="3.582" fill="#fcc917" stroke="#000" stroke-width=".95" transform="rotate(11.474)"/><circle cx="254.263" cy="-31.492" r="1.769" fill="none" stroke="#000" stroke-width=".7" transform="rotate(11.474)"/><circle cx="248.263" cy="-6.649" r="1.333" fill="none" stroke="#000" stroke-width=".5" transform="rotate(11.474)"/><circle cx="254.263" cy="-1.277" r="1.333" fill="none" stroke="#000" stroke-width=".5" transform="rotate(11.474)"/></g><g transform="matrix(-1 0 0 1 429.365 0)"><path fill-rule="evenodd" d="M258.338 21.42c-3.812 3.943-3.735 9.727-4.777 14.982l-1.652-14.45z"/><path fill="#fcc917" stroke="#000" stroke-width=".95" d="M248.675 53.072c-2.155-.438-3.509-2.48-3.084-4.576.152-.746.5-1.336.94-2.043a5.5 5.5 0 0 1-2.728.15 3.87 3.87 0 0 1-3.023-4.566 3.94 3.94 0 0 1 1.762-2.538c4.19-2.228 6.617-6.144 8.642-12.243a3.87 3.87 0 0 1-2.688.437 3.87 3.87 0 0 1-3.023-4.565c.426-2.095 2.46-3.4 4.564-3.024 4.056 1.618 4.126 7.357 3.994 11.162-.125 3.584-1.766 18.618-5.356 21.806z"/><circle cx="254.263" cy="-31.492" r="3.582" fill="#fcc917" stroke="#000" stroke-width=".95" transform="rotate(11.474)"/><circle cx="254.263" cy="-31.492" r="1.769" fill="none" stroke="#000" stroke-width=".7" transform="rotate(11.474)"/><circle cx="248.263" cy="-6.649" r="1.333" fill="none" stroke="#000" stroke-width=".5" transform="rotate(11.474)"/><circle cx="254.263" cy="-1.277" r="1.333" fill="none" stroke="#000" stroke-width=".5" transform="rotate(11.474)"/></g><ellipse cx="214.5" cy="57.245" fill="#fcc917" stroke="#000" stroke-width=".5" rx="32.787" ry="6.998"/><path d="M214.5 50.246a32.787 6.998 0 0 0-32.787 7 32.787 6.998 0 0 0 7.172 4.365 27.227 5.944 0 0 1-1.612-1.996 27.227 5.944 0 0 1 27.227-5.943 27.227 5.944 0 0 1 27.227 5.943 27.227 5.944 0 0 1-1.598 1.985 32.787 6.998 0 0 0 7.158-4.354 32.787 6.998 0 0 0-32.787-7"/><path fill="#fcc917" stroke="#000" stroke-width=".95" d="M214.499 49.424a33.63 7.82 0 0 0-33.629 7.82 33.63 7.82 0 0 0 33.629 7.822 33.63 7.82 0 0 0 33.63-7.822 33.63 7.82 0 0 0-33.63-7.82zm0 2.54a29.72 5.28 0 0 1 29.72 5.28 29.72 5.28 0 0 1-29.72 5.28 29.72 5.28 0 0 1-29.719-5.28 29.72 5.28 0 0 1 29.719-5.28z"/></svg>