<svg xmlns="http://www.w3.org/2000/svg" width="650" height="390"><path d="M0 0h650v390H0z" style="fill:#000;fill-opacity:1;stroke:none"/><path d="M0 0h325v390H0z" style="fill:#ffc627;fill-opacity:1;stroke:none"/><path d="M235.7-660h150v760h-150z" style="fill:#fff;fill-opacity:1;stroke:none" transform="rotate(-59.036 738.196 -55.621)"/><path d="m314-614-13.781 45.938 8.531.218L314-554l5.25-13.844 8.531-.218z" style="fill:#000;stroke:none" transform="rotate(-59.036 739.231 -52.359)scale(1 .99875)"/><path d="M320-629.5a4.5 4.5 0 1 1-9 0 4.5 4.5 0 0 1 9 0" style="fill:#000;fill-opacity:1;stroke:none" transform="rotate(-59.036 739.981 -51.035)scale(1 .99875)"/><g style="fill:#000"><path d="M320-629.5a4.5 4.5 0 1 1-9 0 4.5 4.5 0 0 1 9 0" style="fill:#000;fill-opacity:1;stroke:none" transform="rotate(-59.036 758.718 -50.855)scale(1 .99875)"/><path d="M320-629.5a4.5 4.5 0 1 1-9 0 4.5 4.5 0 0 1 9 0" style="fill:#000;fill-opacity:1;stroke:none" transform="rotate(-59.036 749.469 -67.192)scale(1 .99875)"/></g><path d="m314-614-13.781 45.938 8.531.218L314-554l5.25-13.844 8.531-.218z" style="fill:#000;stroke:none" transform="rotate(-59.036 858.591 -75.915)scale(1 .99875)"/><path d="M320-629.5a4.5 4.5 0 1 1-9 0 4.5 4.5 0 0 1 9 0" style="fill:#000;fill-opacity:1;stroke:none" transform="rotate(-59.036 859.34 -74.59)scale(1 .99875)"/><g style="fill:#000"><path d="M320-629.5a4.5 4.5 0 1 1-9 0 4.5 4.5 0 0 1 9 0" style="fill:#000;fill-opacity:1;stroke:none" transform="rotate(-59.036 878.077 -74.411)scale(1 .99875)"/><path d="M320-629.5a4.5 4.5 0 1 1-9 0 4.5 4.5 0 0 1 9 0" style="fill:#000;fill-opacity:1;stroke:none" transform="rotate(-59.036 868.827 -90.748)scale(1 .99875)"/></g><path d="m314-614-13.781 45.938 8.531.218L314-554l5.25-13.844 8.531-.218z" style="fill:#000;stroke:none" transform="rotate(-59.036 820.842 -142.588)scale(1 .99875)"/><path d="M320-629.5a4.5 4.5 0 1 1-9 0 4.5 4.5 0 0 1 9 0" style="fill:#000;fill-opacity:1;stroke:none" transform="rotate(-59.036 821.592 -141.264)scale(1 .99875)"/><g style="fill:#000"><path d="M320-629.5a4.5 4.5 0 1 1-9 0 4.5 4.5 0 0 1 9 0" style="fill:#000;fill-opacity:1;stroke:none" transform="rotate(-59.036 840.327 -141.085)scale(1 .99875)"/><path d="M320-629.5a4.5 4.5 0 1 1-9 0 4.5 4.5 0 0 1 9 0" style="fill:#000;fill-opacity:1;stroke:none" transform="rotate(-59.036 831.077 -157.423)scale(1 .99875)"/></g><path d="m314-614-13.781 45.938 8.531.218L314-554l5.25-13.844 8.531-.218z" style="fill:#000;stroke:none" transform="rotate(-59.036 940.2 -166.145)scale(1 .99875)"/><path d="M320-629.5a4.5 4.5 0 1 1-9 0 4.5 4.5 0 0 1 9 0" style="fill:#000;fill-opacity:1;stroke:none" transform="rotate(-59.036 940.95 -164.82)scale(1 .99875)"/><g style="fill:#000"><path d="M320-629.5a4.5 4.5 0 1 1-9 0 4.5 4.5 0 0 1 9 0" style="fill:#000;fill-opacity:1;stroke:none" transform="rotate(-59.036 959.687 -164.64)scale(1 .99875)"/><path d="M320-629.5a4.5 4.5 0 1 1-9 0 4.5 4.5 0 0 1 9 0" style="fill:#000;fill-opacity:1;stroke:none" transform="rotate(-59.036 950.437 -180.977)scale(1 .99875)"/></g><path d="m314-614-13.781 45.938 8.531.218L314-554l5.25-13.844 8.531-.218z" style="fill:#000;stroke:none" transform="rotate(-59.036 1059.56 -189.7)scale(1 .99875)"/><path d="M320-629.5a4.5 4.5 0 1 1-9 0 4.5 4.5 0 0 1 9 0" style="fill:#000;fill-opacity:1;stroke:none" transform="rotate(-59.036 1060.314 -188.38)scale(1 .99875)"/><g style="fill:#000"><path d="M320-629.5a4.5 4.5 0 1 1-9 0 4.5 4.5 0 0 1 9 0" style="fill:#000;fill-opacity:1;stroke:none" transform="rotate(-59.036 1079.047 -188.198)scale(1 .99875)"/><path d="M320-629.5a4.5 4.5 0 1 1-9 0 4.5 4.5 0 0 1 9 0" style="fill:#000;fill-opacity:1;stroke:none" transform="rotate(-59.036 1069.801 -204.54)scale(1 .99875)"/></g><path d="m314-614-13.781 45.938 8.531.218L314-554l5.25-13.844 8.531-.218z" style="fill:#000;stroke:none" transform="rotate(-59.036 1021.81 -256.374)scale(1 .99875)"/><path d="M320-629.5a4.5 4.5 0 1 1-9 0 4.5 4.5 0 0 1 9 0" style="fill:#000;fill-opacity:1;stroke:none" transform="rotate(-59.036 1022.56 -255.05)scale(1 .99875)"/><g style="fill:#000"><path d="M320-629.5a4.5 4.5 0 1 1-9 0 4.5 4.5 0 0 1 9 0" style="fill:#000;fill-opacity:1;stroke:none" transform="rotate(-59.036 1041.297 -254.87)scale(1 .99875)"/><path d="M320-629.5a4.5 4.5 0 1 1-9 0 4.5 4.5 0 0 1 9 0" style="fill:#000;fill-opacity:1;stroke:none" transform="rotate(-59.036 1032.046 -271.207)scale(1 .99875)"/></g><path d="m314-614-13.781 45.938 8.531.218L314-554l5.25-13.844 8.531-.218z" style="fill:#000;stroke:none" transform="rotate(-59.036 1141.17 -279.93)scale(1 .99875)"/><path d="M320-629.5a4.5 4.5 0 1 1-9 0 4.5 4.5 0 0 1 9 0" style="fill:#000;fill-opacity:1;stroke:none" transform="rotate(-59.036 1141.92 -278.604)scale(1 .99875)"/><g style="fill:#000"><path d="M320-629.5a4.5 4.5 0 1 1-9 0 4.5 4.5 0 0 1 9 0" style="fill:#000;fill-opacity:1;stroke:none" transform="rotate(-59.036 1160.656 -278.426)scale(1 .99875)"/><path d="M320-629.5a4.5 4.5 0 1 1-9 0 4.5 4.5 0 0 1 9 0" style="fill:#000;fill-opacity:1;stroke:none" transform="rotate(-59.036 1151.406 -294.763)scale(1 .99875)"/></g><path d="m314-614-13.781 45.938 8.531.218L314-554l5.25-13.844 8.531-.218z" style="fill:#000;stroke:none" transform="rotate(-59.036 1260.528 -303.486)scale(1 .99875)"/><path d="M320-629.5a4.5 4.5 0 1 1-9 0 4.5 4.5 0 0 1 9 0" style="fill:#000;fill-opacity:1;stroke:none" transform="rotate(-59.036 1261.278 -302.16)scale(1 .99875)"/><g style="fill:#000"><path d="M320-629.5a4.5 4.5 0 1 1-9 0 4.5 4.5 0 0 1 9 0" style="fill:#000;fill-opacity:1;stroke:none" transform="matrix(.5145 -.8575 .85642 .51386 880.4 950.99)"/><path d="M320-629.5a4.5 4.5 0 1 1-9 0 4.5 4.5 0 0 1 9 0" style="fill:#000;fill-opacity:1;stroke:none" transform="rotate(-59.036 1270.765 -318.319)scale(1 .99875)"/></g><path d="m314-614-13.781 45.938 8.531.218L314-554l5.25-13.844 8.531-.218z" style="fill:#000;stroke:none" transform="rotate(-59.036 1222.778 -370.16)scale(1 .99875)"/><path d="M320-629.5a4.5 4.5 0 1 1-9 0 4.5 4.5 0 0 1 9 0" style="fill:#000;fill-opacity:1;stroke:none" transform="rotate(-59.036 1223.534 -368.84)scale(1 .99875)"/><g style="fill:#000"><path d="M320-629.5a4.5 4.5 0 1 1-9 0 4.5 4.5 0 0 1 9 0" style="fill:#000;fill-opacity:1;stroke:none" transform="rotate(-59.036 1242.266 -368.656)scale(1 .99875)"/><path d="M320-629.5a4.5 4.5 0 1 1-9 0 4.5 4.5 0 0 1 9 0" style="fill:#000;fill-opacity:1;stroke:none" transform="rotate(-59.036 1233.021 -385)scale(1 .99875)"/></g></svg>