<svg xmlns="http://www.w3.org/2000/svg" xmlns:xlink="http://www.w3.org/1999/xlink" width="429" height="260"><path fill="#fcc917" d="M0 0h429v260H0z"/><path fill="#00f" d="M0 86h429v174H0z"/><use xlink:href="#a" width="100%" height="100%" x="-120" transform="matrix(.95 0 0 .95 -15.259 6.62)"/><g id="a"><path fill="#fcc917" stroke="#000" stroke-miterlimit="10" stroke-width=".95" d="m180.91 109.98 4.433-3.166s1.583-5.621 5.463-5.621 10.291 2.612 10.291 6.57v9.5s.713 4.988 7.68 5.7c6.966.713 27.787 2.376 27.787 2.376L221.047 136.5l26.759 12.034-15.675 2.296 5.304 12.034s-23.67-14.41-24.304-14.488c.079 2.454.079 6.016.079 6.016l-6.254-4.275-4.038 6.175-2.137-14.012s-1.188.554-1.109 1.504c.08.95 1.188 8.55 1.188 8.55l-5.463-5.225-3.325 3.087-.079-7.283 3.722-.159s-12.984-9.025-13.618-14.725c-.612-5.508-.291-3.563 0-5.541.29-1.96 3.168-5.7 3.325-6.096.159-.397.555-1.188-.237-2.138s-4.275-4.275-4.275-4.275z"/><path fill="#fcc917" stroke="#000" stroke-linecap="square" stroke-miterlimit="10" stroke-width=".95" d="M191.835 120.43s-9.104 8.833 15.437 17.259c7.005 2.404 25.74-.702 32.3-1.347 0 0-31.92-9.61-37.295-16.56"/><path d="M199.435 122.488c3.793 2.062 7.448 4.242 11.204 6.223a79 79 0 0 0 5.701 2.786c1.945.822 3.919 1.572 6.052 1.916-2.167.253-4.374-.224-6.44-.873-2.081-.659-4.062-1.569-5.98-2.571a53 53 0 0 1-5.516-3.401c-1.763-1.242-3.466-2.574-5.021-4.08m-2.296 1.187a99 99 0 0 0 4.645 3.63c1.58 1.138 3.184 2.23 4.861 3.184 3.34 1.941 6.909 3.4 10.839 4.032-1.981.27-4.03.055-5.98-.462-1.96-.51-3.822-1.34-5.571-2.337a29 29 0 0 1-4.848-3.558c-1.478-1.345-2.847-2.819-3.946-4.489m-2.93 1.821a60 60 0 0 0 4.212 3.665c1.453 1.131 2.944 2.198 4.52 3.113a31 31 0 0 0 4.915 2.374c1.711.642 3.494 1.106 5.355 1.458-1.88.243-3.823.077-5.685-.396-1.869-.462-3.65-1.244-5.309-2.21a23.7 23.7 0 0 1-4.528-3.508c-1.353-1.342-2.577-2.824-3.48-4.496m19 19.366 17.26.822-17.26.822.822-.798.05 2.696-1.9-.056.207-2.689.065-.833zm-28.895-34.328c.631-.378 1.335-.38 1.996-.196.325.108.65.266.912.516.264.241.475.573.495.946a12 12 0 0 0-.884-.314l-.804-.24c-.54-.18-1.093-.34-1.715-.712m10.43-2.83s-3.088-1.089-6.294-.693c1.425-1.148 3.562-3.167 6.294.693"/></g><use xlink:href="#a" width="100%" height="100%" x="120" transform="matrix(.95 0 0 .95 36.741 6.62)"/><g transform="translate(-2)"><use xlink:href="#a" width="100%" height="100%" x="-60" y="75" transform="matrix(.95 0 0 .95 -.259 -23.63)"/><use xlink:href="#a" width="100%" height="100%" x="60" y="75" transform="matrix(.95 0 0 .95 31.741 -23.63)"/></g><use xlink:href="#a" width="100%" height="100%" y="150" transform="matrix(.95 0 0 .95 10.741 -53.88)"/></svg>