<svg xmlns="http://www.w3.org/2000/svg" xmlns:xlink="http://www.w3.org/1999/xlink" width="350" height="200"><defs><linearGradient id="b" x1="679.979" x2="943.519" y1="455.693" y2="455.693" gradientTransform="translate(-512.774 -40)" gradientUnits="userSpaceOnUse"><stop offset=".006" style="stop-color:#bebfc0"/><stop offset=".548" style="stop-color:#fff"/><stop offset="1" style="stop-color:#bebfc0"/></linearGradient><linearGradient id="a" x1="796.497" x2="823.378" y1="400.659" y2="400.659" gradientTransform="translate(-515.247 -39.356)" gradientUnits="userSpaceOnUse"><stop offset=".023" style="stop-color:#fce900"/><stop offset=".254" style="stop-color:#ffed00"/><stop offset=".531" style="stop-color:#fdc800"/><stop offset=".712" style="stop-color:#ffed00"/><stop offset=".961" style="stop-color:#fce900"/></linearGradient><linearGradient xlink:href="#a" id="c" x1="796.497" x2="823.378" y1="400.659" y2="400.659" gradientTransform="translate(-332.122 63.475)scale(.7751)" gradientUnits="userSpaceOnUse"/><linearGradient xlink:href="#b" id="d" x1="679.979" x2="943.519" y1="455.693" y2="455.693" gradientTransform="translate(-330.205 62.976)scale(.7751)" gradientUnits="userSpaceOnUse"/></defs><g style="fill:#fff"><path d="M-65-70.495v200h-350v-200z" style="fill:#fff;fill-rule:evenodd;stroke:none;stroke-width:1px;stroke-linecap:butt;stroke-linejoin:miter;stroke-opacity:1" transform="translate(415 70.495)"/></g><path d="M299.32 229.285H149.75V564.98h.02c.431 17.318 14.263 31.27 31.435 31.708v.02h108.796l8.97 9.382 9.14-9.381h108.632v-.021c17.171-.439 31.004-14.39 31.436-31.708h.02V229.285z" style="fill:#e6e6e6" transform="matrix(.4 0 0 .4 54.773 -63.094)"/><path d="M234.053 28.31h-119.69v134.588c.185 7.11 5.84 12.813 12.884 12.993l43.394.009 3.718 3.888 3.79-3.888h43.321c7.051-.189 12.707-5.893 12.885-12.994l.008-134.596zm-59.828.62h59.518v133.968c-.177 6.763-5.568 12.202-12.28 12.373l-43.576.009-3.523 3.616-3.458-3.616h-43.651c-6.705-.18-12.096-5.619-12.264-12.39l-.008-133.96z"/><path d="M299.302 238.62H157.143v319.062h.02c.41 16.46 13.556 29.72 29.877 30.138v.02h103.407l8.525 8.914 8.687-8.915h103.25v-.019c16.321-.418 29.467-13.677 29.877-30.138h.02V238.62z" style="fill:#f2f2f2" transform="matrix(.4 0 0 .4 54.773 -63.094)"/><path d="M231.095 32.044H117.32V159.98c.176 6.765 5.558 12.194 12.261 12.365l41.238.008 3.54 3.702 3.608-3.702h41.17c6.71-.18 12.092-5.608 12.26-12.365l.008-127.943h-.31zm-56.863.62h56.553V159.98c-.168 6.42-5.284 11.582-11.656 11.745l-41.423.008-3.342 3.43-3.28-3.43H129.59c-6.364-.17-11.48-5.333-11.64-11.76l-.009-127.308h56.292z"/><path d="M202.203 287.58v248.246c0 4.944 3.96 8.953 8.847 8.953H386.9c4.886 0 8.847-4.009 8.847-8.953V287.58z" style="fill:#b8cbda;fill-opacity:1" transform="matrix(.4 0 0 .4 54.773 -63.094)"/><path d="M312.858 440.655c.11-2.607-2.39-9.452-1.696-13.578.697-4.144-2.743-5.716-4.231-6.036-1.173-.252-5.744 4.077-7.63 5.925l-.57-12.255c1.99-4.203 7.732-13.981 10.25 6.908 1.28-.399 1.145-9.408.233-13.495a16.5 16.5 0 0 0-.645-2.207c.709-2.697.491-10.605-.275-14.536-.911-4.68-2.566-6.545-3.958-6.91-1.016-.268-4.764 3.968-6.716 6.277l-.613-13.226-1.22.406-.055 13.347c-.99-1.989-3.973-5.397-12.548-3.59-4.415 2.298-3.863 17.944-2.438 17.887s2.699-13.44 7.223-12.641c5.417.956 7.311 6.067 7.723 7.425l-.03 7.238c-1.337-2.033-3.986-5.026-7.192-3.241-4.652 2.589-14.118 16.549-13.009 17.48 11.007-13.483 17.783-9.012 20.168-6.5l-.042 9.956c-3.387-4.85-12.167-14.52-18.906 3.455-.672 6.51-2.367 11.565-2.44 13.822-.07 2.218 8.99-32.03 21.298-5.909l-.03 7.032c-3.348-2.277-10.109-6.68-11.916-6.408-2.432.366-5.32 2.231-6.912 6.91s-1.827 14.994.406 15.45c4.625-25.163 15.487-11.454 18.386-7.212l-.091 21.44h6.098l-1.088-23.446c2.711-4.22 7.359-8.148 9.603 9.285 1.37-.398 1.223-9.409.25-13.496s-2.744-5.716-4.231-6.035c-.891-.192-3.75 2.268-5.9 4.271l-.469-10.138c1.742-3.66 7.129-15.276 13.213 6.345zm-14.88-42.136c2.044-4.789 7.199-14.168 9.774 5.687-.79-1.3-1.688-1.934-2.498-2.119-1.04-.239-4.94 3.64-6.85 5.62z" style="fill:green;stroke:#000;stroke-width:.38754585;stroke-miterlimit:4;stroke-dasharray:none;stroke-opacity:1" transform="matrix(.4 0 0 .4 54.773 -63.094)"/><path d="M296.456 376.825c1.604-.507 2.698-2.764 4.108-3.764 2.14-1.52 3.331-.278 5.406.448-3.464-.05-6.846.15-8.773 3.549 1.033-1.088 3.699-.709 5-.363 1.63.433 2.631 1.356 3.267 2.989-.873-2.45-6.041-2.814-8.266-2.864 2.454 1.301 2.596 4.667 3.276 7 .088-1.693-1.452-3.015-2.114-4.448-.306-.662-.486-1.513-1.073-2.008-1.722 1.963-1.178 5.958-1.938 8.075.138-1.44-.8-3.027-.388-4.604.264-1.01 1.268-1.717 1.331-2.745-2.74 1.087-3.233 3.677-4.791 6.031.014-1.374-.335-2.454.511-3.691.837-1.224 2.308-1.63 3.58-2.112-3.89-1.88-6.086.264-7.729 3.602.245-2.405.568-5.038 3.495-5.093 1.676-.032 3.738.748 5.006 1.501-1.668-1.642-3.516-2.248-5.723-2.854-2.43-.669-3.676-.191-5.134 1.723 1.68-5.443 7.83-2.572 10.37.176.011-1.365-2.322-6.133-4.09-5.785-1.987.39-2.805 3.797-3.225 5.343.124-1.444-.345-2.295.592-3.564.748-1.014 1.678-1.39 2.875-1.515 3.059-.321 1.944 2.318 3.188 3.957-.067-4.443-.859-8.742-.284-13.2.003 2.558-.028 5.118 0 7.678.018 1.52-.03 3.891.652 5.156 1.06-2.43 2.075-6.24 5.43-4.395-1.284.44-1.971-.066-2.9 1.454-.616 1.007-.641 2.263-1.215 3.314.193-1.134 1.247-2.617 2.622-1.895-1.007.81-3.072 1.194-2.65 3.045" style="fill:url(#c)" transform="matrix(.4 0 0 .4 54.773 -63.094)"/><path d="M172.707 81.949c-.06.467-.083.934-.083 1.397 0 .586.043 1.163.083 1.735l.001.109c.003.359.013.79.067 1.184l.02.388a5 5 0 0 0-.195-.347c-.084-.39-.197-.738-.7-.795-.149-.095-.291-.143-.42-.118a.9.9 0 0 0-.432.235c-.26.102-.47.256-.645.492-.082.11-.121.21-.159.31-.045.007-.092.005-.136.015-.566.128-.96.539-1.17 1.218l.068.035c.374-.49.713-.723 1.15-.769q0 .084.004.17l-.002.466.076.013.026-.094c.043-.16.095-.353.16-.556.182.01.371.033.599.095.76.21 1.403.432 1.991.903-.506-.244-1.149-.448-1.695-.437-1.227.023-1.343 1.159-1.436 2.072l.073.021c.776-1.576 1.69-2.022 2.947-1.459l-.096.036c-.47.171-.957.348-1.258.787-.194.284-.235.551-.235.822q.002.15.011.303l.017.512.067-.116.457-.807c.328-.631.65-1.222 1.353-1.542l.008.004a1.4 1.4 0 0 1-.238.493c-.107.156-.217.318-.266.506a1.4 1.4 0 0 0-.044.356c0 .244.054.485.106.721.05.227.097.444.097.652q0 .06-.005.119l.075.016c.116-.323.156-.75.2-1.2.067-.703.148-1.491.542-1.976.142.14.225.333.299.526l.092.227.352.576c.118.173.238.35.33.533l.161.664.076-.009.002-.057c0-.223-.068-.429-.166-.626-.17-.775-.382-1.627-1.062-2.067l.01-.007c.927.03 2.811.205 3.137 1.113v.003l.073-.027v-.001c-.26-.668-.67-1.044-1.333-1.22-.489-.129-1.356-.247-1.848.014.77-1.138 2.019-1.23 3.346-1.211l.014-.075-.507-.21c-.563-.251-1.007-.45-1.69.035-.13.092-.254.213-.374.343l-.004-.002a.6.6 0 0 0-.567-.018.8.8 0 0 0-.236.188l.003-.008c.065-.241.127-.47.253-.675.25-.409.448-.437.722-.475l.518-.112-.095-.049c-.367-.201-.683-.25-.966-.15-.552.196-.85.927-1.112 1.572l-.11.263a2.3 2.3 0 0 1-.157-.607l-.052-.98c-.007-.102-.008-.207-.015-.309l-.003-2.016.002-1.114-.077-.005zm-.005 1.397.003-.053v.123zm-1.207 2.232a.4.4 0 0 1 .192.023c-.036.002-.069.002-.107.006-.107.012-.2.032-.293.054a.8.8 0 0 1 .208-.083m-1.03.697q.187-.253.44-.392c-.15.18-.272.4-.374.636-.067-.001-.131.005-.197.01.035-.082.064-.162.131-.254m-.339.355c.025-.006.052-.004.077-.008a1.3 1.3 0 0 0-.044.34c-.4.04-.727.238-1.056.617.213-.515.551-.842 1.023-.95zm.374-.039q-.074.18-.133.36a2 2 0 0 0-.13.001 1.2 1.2 0 0 1 .055-.34c.07-.008.136-.021.208-.021m-.157.433q-.06.19-.106.36l.001-.18-.005-.176q.054-.003.11-.004m.974.651c.593-.011 1.304.237 1.817.51l-.062.035-.046-.022c-1.641-.793-2.493.216-3.047 1.275.094-.872.264-1.778 1.338-1.798m1.725-.577.148-.357c.257-.63.548-1.343 1.066-1.527.234-.083.497-.044.796.098l-.289.063c-.285.04-.51.071-.778.511-.132.215-.198.46-.262.696l-.057.193a1.3 1.3 0 0 0-.173.45l.027.01a.6.6 0 0 0-.061.269l.004.037c-.04.02-.079.046-.12.059l.023.074c.037-.012.071-.036.107-.052.004.027.003.05.01.079l.075-.018c-.008-.034-.008-.065-.012-.097q.153-.081.294-.203-.076.102-.146.214l-.043-.002-.02.073.01.007-.025.035.062.046c.009-.01.022-.015.032-.024.6.373.829 1.084.99 1.781a9 9 0 0 0-.205-.31l-.345-.565-.09-.221c-.083-.218-.17-.444-.349-.595l-.03-.025-.024.029c-.438.499-.517 1.328-.587 2.06-.033.34-.074.65-.137.925a4 4 0 0 0-.077-.52 3.3 3.3 0 0 1-.104-.706q-.001-.168.041-.336c.046-.175.152-.33.255-.482.106-.154.198-.319.243-.5l.006.003.048-.06-.03-.025c.002-.015.011-.026.012-.041l.004-.061-.057.022c-.013.005-.02.014-.033.02-.648-.593-1.354-.834-2.203-1.067a3 3 0 0 0-.594-.094q.06-.18.134-.361c.872.035 1.903.615 2.516 1.278l.066.072v-.102c0-.195-.11-.54-.278-.904l-.006-.111c.029.092.054.19.095.265l.038.071zm1.024-.607a.5.5 0 0 1 .42-.004l-.302.186c-.192.105-.39.221-.532.376a3 3 0 0 0 .086-.24.84.84 0 0 1 .328-.318m-2.667 3.684a5 5 0 0 1-.011-.302c0-.261.04-.508.221-.774.286-.418.762-.591 1.22-.758l.084-.031c-.539.347-.83.867-1.12 1.423l-.386.682zm4.242-2.553c.479.127.82.363 1.067.746-.6-.56-1.878-.723-2.802-.763.475-.217 1.275-.106 1.735.017m-1.42-.88.26-.16q-.083.092-.164.185c-.243.288-.495.575-.779.737.001-.392.347-.58.683-.763zm.156.075c.205-.243.417-.494.644-.655.647-.46 1.074-.269 1.614-.027l.326.135c-1-.005-1.947.077-2.672.648zm-2.789-1.132c.113-.012.195-.002.28.005.035.023.068.038.104.068.194.16.386.414.557.692l.005.022c.054.255.116.545.294.78l.077.101-.01-.187c.097.234.158.44.177.592-.624-.638-1.607-1.18-2.462-1.227.124-.285.28-.546.477-.726.147-.057.308-.1.501-.12m.458.037c.25.076.361.257.427.496a2.7 2.7 0 0 0-.427-.496m.625.977q.073.135.136.27l.004.08a1.7 1.7 0 0 1-.14-.35"/><path d="M297.72 472.122c-2.684-.002-5.288-.214-7.154 1.865-2.261 2.516-1.443 3.491-5.167 3.698-3.051.17-6.03-.097-8.956.89-2.767.932-4.592 2.99-6.807 4.666-2.608 1.973-5.515 3.63-8.018 5.795-2 1.73-2.9 3.958-4.798 5.904-2.383 2.439-5.442 6.148-8.333 7.773-3.21 1.804-8.506 2.87-12.206 3.909-2.761.774-5.782.035-8.187 1.726-2.432 1.709-4.443 4.506-6.566 6.6-4.67 4.606-11.038 10.271-17.728 11.182-.747 1.358-1.664 2.528-2.078 4.124-.486 1.88-.37 1.449.11 3.284.704 2.67-2.656 11.36.506 11.189 5.094-.278 187.047.274 193.836-.042.832-2.403-.119-5.192-.241-7.693-.208-4.236-.413-4.462-3.625-7.078-1.645-1.34-2.978-3.504-4.429-5.061-2.13-2.29-4.218-4.176-6.022-6.684-5.37-7.476-14.152-9.168-22.607-12.881-5.087-2.234-9.872-4.57-14.259-7.79-3.052-2.244-5.48-5.33-8.544-7.518-2.973-2.123-6.735-2.744-9.866-4.499-3.643-2.043-6.971-4.647-10.684-6.62-2.76-1.468-5.686-2.78-8.626-4.028-2.57-1.09-7.006-4.234-9.552-2.711" style="fill:#814115;fill-opacity:1;stroke:#000;stroke-width:.38754585;stroke-miterlimit:4;stroke-dasharray:none;stroke-opacity:1" transform="matrix(.4 0 0 .4 54.773 -63.094)"/><path d="M203.171 538.657c.353 2.919 3.147 4.712 6.114 4.7 4.664-.021 5.39-3.14 7.318-6.37 1.23-2.065 3.231-4.876 5.5-5.853 2.582-1.112 6.188-.638 6.176-4.589 1.416.845 2.653 1.794 4.643 2.13 1.28-2.906-2.424-6.6 1.234-8.192 2.069-.9 4.502 1.085 6.565.51.995-.277 1.201-1.27 2.057-1.621 1.913-.788 4.784-.028 6.677-.922 1.182-.556 2.362-1.764 3.221-2.769.906-1.055 1.73-3.492 2.842-4.108 2.092-1.158 10.068 2.804 10.274.068-2.41-.148-7.363-4.675-3.069-5.61-.138-3.14 6.669-2.522 9.15-3.035.488-1.7-.187-5.542-.733-7.074 1.14-.077 3.111.339 4.178-.058 1.22-.454.962-1.337 2-1.939 2.901-1.683 3.76-.82 3.835-4.962.045-2.48.311-5.818 2.432-7.53 2.313-1.867 5.494-1.45 6.209 1.312 2.15 8.316-5.278 12.052-9.137 17.592-1.298 1.863-.985 2.471-3.194 3.534-1.508.723-3.334.772-4.787 1.589-1.378.773-4.596 2.835-5.37 3.995-1.228 1.84-.23 4.121-.914 6.286-.732 2.312-2.554 3.486-4.72 4.48-3.062 1.406-7.691 2.663-10.331 4.708-1.905 1.476-3.53 3.611-5.614 5.154-2.48 1.839-6.787 3.248-8.8 5.318-.57.586-.94 2.184-1.572 2.979-.788.988-1.906 1.298-2.32 2.547-1.105 3.334 1.699 2.54 4.102 2.423 2.683-.131 5.225.189 7.812.552 5.008.702 11.43.919 16.423.834 2.025-.034 5.138-.927 5.02-3.379-.179-3.7-4.422-2.054-6.655-2.466-.302-2.946 3.515-4.254 5.883-4.376 1.37-.072 3.159-.014 4.401.607 1.313.655 1.898 2.237 3.28 2.407 1.195-3.514-1.158-5.592.96-8.745 2.73-4.058 7.44-6.265 9.386-10.339 2.057-4.308 4.212-7.044 8.318-9.546.701-.427 3.107-1.66 2.576-2.835-.427-.94-3.712-.66-4.712-1.414-.189-2.61 4.96-2.39 5.812-5.192.785-2.581-.271-6.06 2.57-7.956 1.586-1.058 6.39-.257 4.115-2.87-2.026-2.327-5.762-.255-5.855-4.64-.08-3.702 1.964-3.987 4.95-4.418 2.517-.364 6.491-1.364 4.294-4.14-2.062-2.606-9.584-3.873-12.615-2.493-2.026.922-2.62 3.21-4.359 4.217-2.234 1.294-5.112.41-7.595.754-4.754.657-7.598 4.086-11.263 6.84-1.657 1.242-3.768 1.646-5.44 2.82-2.105 1.48-3.858 3.81-5.78 5.476-2.238 1.94-3.147 3.637-4.788 6.066-1.611 2.383-3.769 3.103-6.47 3.927-4.947 1.512-10.518 2.051-15.27 3.811-4.721 1.748-9.658 6.383-12.895 10.201-3.669 4.33-8.546 5.387-12.739 9.185-1.842 1.668-2.957 3.275-3.335 5.496-.344 2.011-1.183 7.585.283 8.855" style="fill:#520" transform="matrix(.4 0 0 .4 54.773 -63.094)"/><path d="M307.06 498.27c5.847-2.038 7.811 5.63 12.102 7.464 2.44 1.043 3.66.012 5.226 1.994 1.148 1.455 1.238 3.568 1.69 5.287.516 1.961.892 8.316 4.19 8.086 4.81-.336.292-6.647-1.165-8.087 2.24-1.923 4.622.668 5.41 2.551 1.366 3.255.907 3.349 4.514 4.676 1.476.543 3.226.565 3.213 2.725-.017 2.227-2.42 1.652-4.584 1.73-2.834.103-6.596.978-9.37.23-3.584-.963-5.902-4.734-6.588-8.011-.74-3.547-1.534-6.397-4.167-9.186-2.643-2.798-5.886-3.644-9.282-5.077-1.912-.807-3.475-2.25-1.756-4.382m-32.57 43.119c2.054-7.105 11.885-1.23 16.72-3.318 1.131-.488 3.959-3.514 4.797-4.464 1.205-1.366 1.637-4.098 3.61-4.727 2.079 3.476.081 6.908-2.484 9.219-3.145 2.83-4.889 1.766-8.497 2.992-.793.268-1.082 1.113-1.892 1.472-1.144.509-2.825.89-4.087 1.057-3.095.411-5.409-.688-8.117-1.445-.07-.35-.066-.7-.05-1.064m30.023.557c-.04-2.96 2.285-4.473 2.831-7.072.519-2.462-.726-5.306 1.174-7.365 6.771 1.997-2.561 8.949 1.588 11.376 2.6 1.52 7.75.557 10.625.557 3.226 0 6.338-1.132 9.29-1.083.584 2.08-2.448 2.93-3.797 3.798-.932.599-.382.899-1.898 1.458-1.126.414-3.027.21-4.245.278-5.069.28-10.464.224-15.531-.042-.043-.475-.154-1.152-.037-1.628" style="fill:#520;fill-opacity:1" transform="matrix(.4 0 0 .4 54.773 -63.094)"/><path d="M197.228 282.346v258.35c0 5.147 4.164 9.318 9.3 9.318H391.42c5.137 0 9.301-4.172 9.301-9.318v-258.35zm198.518 126.796v126.683c0 4.945-3.96 8.954-8.846 8.954H211.05c-4.887 0-8.848-4.009-8.848-8.954V287.582h193.544z" style="fill:url(#d)" transform="matrix(.4 0 0 .4 54.773 -63.094)"/><path d="M215.061 49.535h-81.707v103.65a4.04 4.04 0 0 0 4.03 4.037h73.957a4.04 4.04 0 0 0 4.03-4.037V49.535zm-.31.62v103.03a3.42 3.42 0 0 1-3.41 3.417h-73.957a3.42 3.42 0 0 1-3.41-3.417V50.155z"/><path d="M213.071 51.629h-77.727v99.607c0 2.146 1.726 3.892 3.849 3.892h70.34c2.122 0 3.848-1.746 3.848-3.892V51.63zm-.31.62v98.987c0 1.804-1.448 3.272-3.228 3.272h-70.34c-1.78 0-3.23-1.467-3.23-3.272V52.25z"/><path d="m298.975 269.912 4.604 9.516 10.474 1.438-7.629 7.32 1.869 10.405-9.318-4.993-9.319 4.993 1.869-10.405-7.629-7.32 10.474-1.438z" style="fill:#ffdb00;fill-opacity:1;stroke:#000;stroke-opacity:1" transform="translate(81.67 -25.502)scale(.31004)"/><path d="M374.09 324.502c-12.037 7.718-39.566 15.265-75.115 15.286-35.551-.02-63.079-7.567-75.116-15.286l-13.527 17.81c12.175 9.065 39.993 18.129 88.643 17.685 48.65.444 76.467-8.62 88.642-17.684l-13.526-17.811z" style="fill:#f2f2f2;fill-opacity:1;stroke:#000;stroke-width:.77509171;stroke-miterlimit:4;stroke-dasharray:none;stroke-opacity:1" transform="matrix(.4 0 0 .4 54.773 -63.094)"/><g transform="translate(81.67 -25.502)scale(.31004)"><circle cx="317.479" cy="214.932" r="4.11" style="fill:#1a171b"/><circle cx="389.342" cy="214.932" r="4.11" style="fill:#1a171b"/><path d="M206.653 230.771v.938h-13.188v-.938h.845q1.108 0 1.768-.559.501-.372.766-1.277.185-.637.185-3.352v-23.625q0-2.766-.198-3.458t-.831-1.211-1.688-.519h-.845v-.938h13.188v.938h-.838q-1.075 0-1.756.559-.471.372-.759 1.277-.21.639-.21 3.352v23.625q0 2.767.223 3.459.223.691.838 1.21c.615.519.965.519 1.664.519zm10.422-32.875v14.563h.539q2.452 0 3.559-2.136 1.105-2.136 1.402-6.302h.625v18.75h-.625q-.243-3.061-.971-5.014c-.728-1.953-1.052-2.177-1.698-2.626q-.97-.673-2.831-.673v10.113q0 2.967.186 3.628.186.662.678 1.085.491.424 1.581.424h1.515q3.56 0 5.714-2.316 2.152-2.317 3.082-7.074h.683l-1.139 11.391H207.45v-.938h.845q1.107 0 1.768-.559.502-.372.766-1.277.185-.637.185-3.352v-23.625q0-2.447-.079-3.006-.185-.931-.687-1.437-.713-.745-1.952-.745h-.845v-.938h21.25v10.5h-.625q-.535-3.839-1.537-5.512a6 6 0 0 0-2.793-2.456q-1.07-.47-3.982-.47h-2.689zm23.709-2.063 12.438 22.149v-15.337q0-3.243-.656-4.387-.894-1.54-2.969-1.488v-.938h8.313v.938q-1.604.292-2.156.758-.552.465-.854 1.516t-.302 3.602v29.875h-.635l-17.053-30.018v22.955q0 3.123 1.004 4.218t2.317 1.095h.616v.938h-9.063v-.938q2.1-.027 2.925-1.228t.825-4.085v-25.374l-.512-.9q-.82-1.448-1.427-1.903t-1.771-.51v-.938zm27.56 2.063v14.563h.539q2.452 0 3.559-2.136 1.105-2.136 1.402-6.302h.625v18.75h-.625q-.243-3.061-.971-5.014c-.728-1.953-1.052-2.177-1.698-2.626q-.97-.673-2.831-.673v10.113q0 2.967.186 3.628.186.662.678 1.085.491.424 1.581.424h1.515q3.56 0 5.714-2.316 2.152-2.317 3.082-7.074h.683l-1.139 11.391H258.72v-.938h.845q1.107 0 1.768-.559.502-.372.766-1.277.185-.637.185-3.352v-23.625q0-2.447-.079-3.006-.185-.931-.687-1.437-.713-.745-1.952-.745h-.845v-.938h21.25v10.5h-.625q-.535-3.839-1.537-5.512a6 6 0 0 0-2.793-2.456q-1.07-.47-3.982-.47h-2.69zm32.137-2.875.188 11.938h-.75q-.557-4.481-2.672-7.209-2.117-2.728-4.576-2.729-1.906 0-3.017 1.438t-1.11 3.313q0 1.188.369 2.111.552 1.241 1.737 2.454.869.871 4.029 3.089 4.423 3.089 6.001 5.837 1.55 2.748 1.551 6.29 0 4.493-2.479 7.73t-6.296 3.237a7.3 7.3 0 0 1-2.28-.347q-1.06-.346-2.677-1.308-.903-.533-1.485-.533-.477 0-1.021.54t-.888 1.647h-.625v-13.5h.625q.846 5.668 3.189 8.646t5.043 2.979q2.092 0 3.336-1.609 1.244-1.61 1.244-3.748 0-1.267-.475-2.455-.474-1.186-1.435-2.256t-3.437-2.785q-3.425-2.402-4.929-4.092a12.2 12.2 0 0 1-2.303-3.778q-.798-2.087-.798-4.598 0-4.28 2.215-7.292 2.216-3.012 5.592-3.012 1.214 0 2.373.419.87.315 2.136 1.167t1.768.852q.474 0 .751-.419.277-.418.541-2.019h.565zm52.357 24.062-.938 12.625h-22.438v-.938h.845q1.107 0 1.768-.559.502-.372.739-1.277.211-.637.211-3.352v-23.625q0-2.766-.198-3.458t-.831-1.211-1.688-.519h-.845v-.938h13.563v.938h-1.133q-1.133 0-1.807.559-.486.372-.782 1.277-.217.639-.216 3.352v22.878q0 2.754.224 3.509.222.754.881 1.125.473.238 2.235.238h2.104q1.997 0 3.339-1.009t2.314-3.188 1.841-6.429h.812zm8.084.5 3.902-12.272 3.779 12.272zm9.652 6.396q.53 1.757.556 1.997.105.507.105.984 0 .8-.396 1.225-.609.586-2.088.586h-.502v.938h12.263v-.938q-1.163-.132-1.797-.956-.846-1.088-2.141-5.285l-9.155-29.384h-.345l-9.092 28.592q-1.269 4.113-2.154 5.428t-2.232 1.605v.938h8.403v-.938q-1.982-.213-2.483-.638-.846-.718-.846-2.233 0-1.143.528-2.897l1.106-3.481h8.896zm56.617-30.146v9.688h-.625q-.59-3.35-1.328-4.814t-2.025-2.336q-.724-.475-2.521-.475h-1.875v27.688q0 2.767.221 3.459.222.691.832 1.21c.61.519.967.519 1.678.519h.832v.938h-13.188v-.938h.838q1.1 0 1.756-.559.497-.372.759-1.277.21-.637.21-3.352v-27.688h-1.875q-2.615 0-3.8 1.53-1.644 2.137-2.075 6.095h-.625v-9.688z" style="fill:#1a171b"/><path d="M456.259 213.857q1.971 2.276 1.383 4.569t-3.669 4.963q-2.127 1.844-3.934 2.43c-1.807.586-2.255.41-3.152.058q-1.346-.53-3.041-2.485l-.692-.798 11.808-10.233zm-13.45 11.202-7.028 16.893 5.207 6.008.756-.655q-.6-.813-.486-1.928.108-.759 1.097-3.195l5.228-12.563q2.142 1.222 4.211 1.108 3.271-.176 6.264-2.771 2.455-2.127 3.404-4.719.951-2.592.234-4.789-.717-2.198-3.732-5.677l-7.712-8.898-.708.614q1.157 1.335 1.238 2.116a2.35 2.35 0 0 1-.321 1.466q-.403.687-2.599 2.59l-17.664 15.31q-2.197 1.904-2.923 2.196-.727.293-1.488.12-.762-.173-1.937-1.529l-.708.614 8.555 9.871.708-.614q-1.15-1.326-1.233-2.109a2.35 2.35 0 0 1 .316-1.471q.401-.687 2.599-2.591l7.651-6.631z" style="fill:#1a171b"/></g><g transform="translate(81.67 -25.502)scale(.31004)"><circle cx="456.315" cy="403.274" r="4.11" style="fill:#1a171b"/><circle cx="453.575" cy="488.904" r="4.11" style="fill:#1a171b"/><circle cx="456.315" cy="591.355" r="4.11" style="fill:#1a171b"/><path d="m447.925 248.746 12.272 3.902-12.272 3.779zm-6.396 9.652q-1.757.53-1.997.556-.507.105-.984.105-.8 0-1.225-.396-.586-.609-.586-2.088v-.502h-.937v12.263h.938q.132-1.163.956-1.797 1.088-.846 5.285-2.141l29.384-9.155v-.345l-28.592-9.092q-4.114-1.269-5.428-2.154t-1.605-2.232h-.938v8.403h.938q.212-1.982.638-2.483.718-.846 2.233-.846 1.143 0 2.897.528l3.481 1.106v8.896zm28.146 19.594q.027 2.724-.771 3.954t-2.325 1.892q-1.528.66-3.918.661-2.392 0-3.933-.675-1.542-.674-2.392-1.938t-.85-3.925zm-11.66 11.439q2.028 1.318 4.624 1.318 2.465 0 4.65-1.045t3.286-2.857q1.099-1.812 1.1-6.15v-12.142h-.938q0 1.767-.455 2.41a2.36 2.36 0 0 1-1.217.897q-.762.254-3.703.255h-23.25q-2.941 0-3.69-.255t-1.217-.897q-.469-.643-.468-2.41h-.937v12.869q0 5.403 3.196 8.209 2.642 2.303 6.685 2.304 3.83 0 6.234-2.091 1.69-1.456 2.88-5.055 1.192 3.321 3.22 4.64m-5.309-7.162q-.809 1.435-2.798 2.271-1.99.835-4.492.835-2.188 0-3.967-.678-1.78-.679-2.714-1.954-.936-1.277-.936-2.766 0-1.01.719-1.528c.719-.518 1.189-.519 2.131-.519l1.308.003 11.53.025q.026 2.874-.781 4.311m-4.781 17.791 12.272 3.902-12.272 3.779zm-6.396 9.652q-1.758.53-1.997.556-.507.105-.984.105-.8 0-1.225-.396-.586-.609-.586-2.088v-.502h-.937v12.263h.938q.132-1.163.956-1.797 1.089-.846 5.285-2.141l29.384-9.155v-.345l-28.592-9.092q-4.114-1.269-5.428-2.154t-1.605-2.232h-.938v8.403h.938q.212-1.982.638-2.483.718-.846 2.233-.846 1.143 0 2.897.528l3.481 1.106v8.896zm29.208 14.771h.938v13.5h-.938v-.818q0-1.108-.559-1.794-.372-.45-1.277-.739-.639-.211-3.352-.211h-17.57q-5.16 0-7.502-.726a8.24 8.24 0 0 1-3.916-2.571q-1.574-1.846-1.574-4.457 0-3.192 2.384-5.156 2.383-1.966 5.271-1.965 1.853 0 3.006.805t1.152 1.967q0 1.135-1.035 1.9t-2.548.766q-.744 0-1.301-.129-.266-.078-1.341-.568t-1.525-.49q-.69 0-1.194.472-.743.708-.743 1.836 0 .785.582 1.311.583.524 1.814.734t6.845.21h19.196q2.766 0 3.458-.216t1.211-.861q.519-.646.519-1.722v-1.078zm-22.812 20.457 12.272 3.902-12.272 3.779zm-6.396 9.652q-1.758.53-1.997.556-.507.105-.984.105-.8 0-1.225-.396-.586-.609-.586-2.088v-.502h-.937v12.263h.938q.132-1.163.956-1.797 1.089-.845 5.285-2.141l29.384-9.155v-.345L443.771 342q-4.114-1.269-5.428-2.154t-1.605-2.232h-.938v8.403h.938q.212-1.982.638-2.483.718-.846 2.233-.846 1.143 0 2.897.528l3.481 1.106v8.896z" style="fill:#1a171b"/><path d="m471.675 373.484-22.149 12.438h15.337q3.243 0 4.387-.656 1.54-.894 1.488-2.969h.938v8.313h-.938q-.292-1.604-.758-2.156-.465-.552-1.516-.854t-3.602-.302h-29.875v-.635l30.018-17.053H442.05q-3.123 0-4.218 1.004t-1.095 2.317v.616h-.937v-9.063h.938q.027 2.1 1.228 2.925t4.085.825h25.374l.9-.512q1.448-.82 1.903-1.427t.51-1.771h.938zm.812 68.596H460.05v-.75q4.901-.82 7.514-3.057 2.61-2.235 2.611-5.093 0-2.356-1.935-4.339-1.934-1.984-5.059-2.91-4-1.164-8.9-1.164-4.822 0-8.781.86-3.961.861-5.986 2.689-2.027 1.828-2.026 4.742 0 2.41 1.481 4.396 1.48 1.986 5.106 4.187h-3.092q-3.158-2.122-4.577-4.428-1.418-2.307-1.419-5.409.001-4.057 2.3-7.212t6.611-4.866q4.311-1.71 9.177-1.71 5.13 0 9.732 1.894 4.6 1.894 7.141 5.125 2.538 3.231 2.539 6.862 0 2.675-1.621 5.643-.941 1.72-.941 2.172 0 .61.614 1.046t1.948.57zm-2.245 8.714q-.996.47-4.632.471-4.486 0-6.024-.261-.903-.132-1.407-.536-.504-.405-.504-.953 0-.759 1.035-1.254 1.034-.496 4.353-.496 4.644 0 6.237.261.982.13 1.46.549.478.417.478.992-.001.756-.996 1.227m-.103-5.086q-2.224-1.506-5.718-1.506-3.443 0-5.625 1.493-2.184 1.493-2.184 3.846 0 2.326 2.17 3.806t5.719 1.48q3.494 0 5.678-1.507t2.184-3.832q-.001-2.273-2.224-3.78m1.536 18.753-22.149 12.438h15.337q3.243 0 4.387-.656 1.54-.894 1.488-2.969h.938v8.313h-.938q-.292-1.604-.758-2.156-.465-.552-1.516-.854t-3.602-.302h-29.875v-.635l30.018-17.053H442.05q-3.123 0-4.218 1.004t-1.095 2.317v.616h-.937v-9.063h.938q.027 2.1 1.228 2.925t4.085.825h25.374l.9-.512q1.448-.82 1.903-1.427t.51-1.771h.938zm.812 52.397-11.938.188v-.75q4.481-.557 7.209-2.672 2.728-2.117 2.729-4.576 0-1.906-1.438-3.017t-3.313-1.11q-1.188 0-2.111.369-1.241.552-2.454 1.737-.871.868-3.089 4.029-3.089 4.423-5.837 6.001-2.748 1.55-6.29 1.551-4.493 0-7.73-2.479t-3.237-6.296q0-1.22.347-2.28.346-1.06 1.308-2.677.533-.903.533-1.485 0-.477-.54-1.021t-1.647-.888v-.625h13.5v.625q-5.669.846-8.646 3.189-2.979 2.342-2.979 5.043 0 2.092 1.609 3.336 1.61 1.244 3.748 1.244 1.267 0 2.455-.475 1.187-.474 2.256-1.435 1.07-.961 2.785-3.437 2.401-3.424 4.092-4.929a12.2 12.2 0 0 1 3.778-2.303q2.087-.798 4.598-.798 4.28 0 7.292 2.215 3.012 2.216 3.012 5.592 0 1.214-.419 2.373-.315.87-1.167 2.136t-.852 1.768q0 .474.419.751.418.277 2.019.541v.565zm-.812 3.33v13.063h-.938v-.658q0-1.476-.438-2.028-.439-.554-1.209-.777-.77-.224-3.853-.224h-17.563q-4.815 0-6.375.508-1.561.507-2.593 1.666-1.031 1.157-1.031 2.902 0 2.03 1.31 3.462 1.31 1.43 3.61 2.134 2.301.703 8.015.703h14.628q2.417 0 3.454-.352 1.036-.35 1.435-.871.61-.832.611-2.34h.938v8.75h-.938v-.527q0-1.056-.611-1.769-.612-.713-1.833-1.029-.85-.237-3.056-.237H451.62q-6.32 0-9.122-.578-2.804-.578-5.156-2.849-2.353-2.27-2.354-6.184 0-3.257 1.243-5.041 1.692-2.417 4.336-3.414t7.113-.997h17.558q3.108 0 3.865-.252a2.44 2.44 0 0 0 1.209-.849q.451-.597.426-2.212zm.812 43.625-11.938.188v-.75q4.481-.557 7.209-2.672 2.728-2.117 2.729-4.576 0-1.906-1.438-3.017t-3.313-1.11q-1.188 0-2.111.369-1.241.552-2.454 1.737-.871.868-3.089 4.029-3.089 4.423-5.837 6.001-2.748 1.55-6.29 1.551-4.493 0-7.73-2.479t-3.237-6.296q0-1.22.347-2.28.346-1.06 1.308-2.677.533-.903.533-1.485 0-.477-.54-1.021t-1.647-.888v-.625h13.5v.625q-5.669.846-8.646 3.189-2.979 2.342-2.979 5.043 0 2.092 1.609 3.336 1.61 1.244 3.748 1.244 1.267 0 2.455-.475 1.187-.474 2.256-1.435 1.07-.961 2.785-3.437 2.401-3.425 4.092-4.929a12.2 12.2 0 0 1 3.778-2.303q2.087-.798 4.598-.798 4.28 0 7.292 2.215t3.012 5.592q0 1.213-.419 2.373-.315.87-1.167 2.136t-.852 1.768q0 .474.419.751.418.277 2.019.541v.565zm-46.143 42.358-.887 24.721-9.931 2.499-.229-.909.794-.199q1.075-.271 1.602-.985.344-.474.409-1.406.046-.677-.615-3.309l-5.767-22.911q-.675-2.684-1.049-3.303t-1.113-.968q-.74-.347-1.766-.09l-.793.199-.229-.909 12.788-3.219.229.909-.793.2q-1.1.277-1.604.979-.37.476-.405 1.419-.048.67.613 3.302l6.483 25.758 1.394-34.057.436-.109 17.481 29.037-6.16-24.475q-.646-2.568-.897-3.134-.554-1.226-1.535-1.839-.983-.614-2.669-.188l-.229-.909 8.364-2.104.229.908-.256.064a2.9 2.9 0 0 0-1.428.761 2.75 2.75 0 0 0-.79 1.345q-.189.765-.087 2.038.022.298.616 2.662l5.522 21.941q.675 2.684 1.047 3.298.373.613 1.114.966.743.355 1.766.097l.794-.199.229.909-9.941 2.502z" style="fill:#1a171b"/><path d="M447.375 452.267c.383.365 6.887 2.037 15.046 2.346-1.263-.744-4.65-2.65-5.08-4.466s.648-3.783.648-3.783-3.662 5.488-10.506 4.721c-.636.375-.49.816-.108 1.182" style="fill:#1a171b"/></g><g transform="translate(81.67 -25.502)scale(.31004)"><circle cx="142.616" cy="510" r="4.11" style="fill:#1a171b"/><circle cx="142.616" cy="313.083" r="4.11" style="fill:#1a171b"/><circle cx="142.616" cy="258.288" r="4.11" style="fill:#1a171b"/><path d="M166.953 195.833h13.063v.938h-.658q-1.476 0-2.028.438-.553.439-.777 1.209t-.224 3.853v17.563q0 4.815.508 6.375.507 1.561 1.666 2.593 1.157 1.031 2.902 1.031 2.03 0 3.462-1.31 1.43-1.31 2.134-3.61.703-2.301.703-8.015V202.27q0-2.417-.352-3.454-.35-1.035-.871-1.435-.832-.61-2.34-.611v-.938h8.75v.938h-.527q-1.056 0-1.769.611-.713.612-1.029 1.833-.237.85-.237 3.056v13.618q0 6.32-.578 9.122-.578 2.804-2.849 5.156-2.27 2.353-6.184 2.354-3.257 0-5.041-1.243-2.416-1.692-3.414-4.336-.997-2.644-.997-7.113V202.27q0-3.108-.252-3.865a2.44 2.44 0 0 0-.849-1.209q-.597-.451-2.212-.426zm4.203 432.738 1.875-14.441-.535-.069q-2.432-.316-3.804 1.66t-2.202 6.068l-.62-.08 2.414-18.595.62.081q-.154 3.067.317 5.097.47 2.03 1.346 2.822t2.721 1.032l1.302-10.029q.381-2.941.283-3.622a2.17 2.17 0 0 0-.533-1.163q-.433-.483-1.513-.623l-1.502-.195q-3.53-.46-5.965 1.562-2.433 2.021-3.967 6.619l-.677-.088 2.595-11.149 21.741 2.821-.121.93-.837-.108q-1.099-.143-1.825.326-.545.305-.923 1.169-.266.607-.615 3.3l-3.041 23.428q-.315 2.426-.309 2.991.064.948.496 1.513.611.832 1.84.99l.838.109-.121.93-21.073-2.735 1.352-10.413.62.081q.036 3.876.815 5.663a5.98 5.98 0 0 0 2.454 2.796q1 .603 3.889.979z" style="fill:#1a171b"/><path d="M131.806 603.48q-1.408-2.661-.317-4.764 1.09-2.1 4.693-4.008 2.488-1.317 4.38-1.48t3.084.654q1.192.819 2.403 3.106l.495.934-13.811 7.309zm15.629-7.881 10.656-14.873-3.719-7.027-.884.468q.402.928.039 1.988-.276.717-1.789 2.866l-7.925 11.062q-1.811-1.674-3.853-2.029-3.226-.566-6.727 1.287-2.871 1.52-4.38 3.83-1.51 2.311-1.308 4.613t2.356 6.373l5.508 10.407.829-.438q-.826-1.562-.73-2.34.096-.78.644-1.356.547-.577 3.116-1.937l20.66-10.934q2.57-1.36 3.343-1.48a2.44 2.44 0 0 1 1.477.218q.703.341 1.542 1.927l.829-.438-6.109-11.546-.829.438q.821 1.551.727 2.334a2.35 2.35 0 0 1-.64 1.361q-.546.578-3.116 1.938l-8.949 4.735z" style="fill:#1a171b"/><path d="M125.164 566.769q0-3.012 1.947-4.358 1.947-1.347 6.023-1.348 2.815 0 4.563.74c1.748.74 1.973 1.167 2.42 2.021q.67 1.282.671 3.87v1.057h-15.625v-1.982zm17.5.343 16.375-8.162V551h-1q-.079 1.008-.896 1.775-.578.504-2.922 1.696l-12.179 6.07q-.818-2.326-2.456-3.596-2.587-2.009-6.548-2.009-3.248 0-5.663 1.337t-3.313 3.466-.898 6.734v11.775h.938q0-1.767.449-2.41.45-.644 1.203-.897.754-.254 3.66-.255h23.375q2.907 0 3.647.255.741.255 1.203.884.462.63.462 2.424h.938v-13.063h-.938q0 1.755-.449 2.402t-1.202.904q-.754.256-3.661.256h-10.125z" style="fill:#1a171b"/><path d="m146.914 544.613-12.272-3.902 12.272-3.779zm6.395-9.652q1.757-.53 1.997-.556.507-.105.984-.105.8 0 1.225.396.586.609.586 2.088v.502h.938v-12.263h-.938q-.132 1.163-.956 1.797-1.088.846-5.285 2.141l-29.384 9.155v.345l28.592 9.092q4.113 1.269 5.428 2.154t1.605 2.232h.938v-8.403h-.938q-.213 1.982-.638 2.483-.718.846-2.233.846-1.143 0-2.897-.528l-3.481-1.106v-8.896zm-30.145-68.303h.938q.319 1.374 2.099 2.458 1.328.793 6.241 2.352l27.41 8.645v.629l-28.52 8.664q-5.183 1.559-6.087 2.088t-1.144 2.008h-.938v-12.109h.938v.423q0 1.638.589 2.246.401.422 1.178.422.481 0 1.138-.158.656-.157 3.504-1.018l17.836-5.378-15.866-4.966q-2.913-.911-3.9-1.123-.986-.212-1.679-.212-.8 0-1.413.304t-.933.886q-.453.792-.453 2.113h-.938zm1.432-7.057q.996-.47 4.632-.471 4.486 0 6.024.261.903.132 1.407.536.504.405.504.953 0 .759-1.035 1.254-1.034.496-4.353.496-4.644 0-6.237-.261-.982-.13-1.46-.549-.477-.417-.478-.992.002-.757.996-1.227m.104 5.086q2.224 1.506 5.718 1.506 3.442 0 5.625-1.493 2.184-1.493 2.184-3.846 0-2.326-2.17-3.806t-5.719-1.48q-3.494 0-5.678 1.507t-2.184 3.832q0 2.273 2.224 3.78m21.714-33.38 12.625.938v22.438h-.938v-.845q0-1.107-.559-1.768-.372-.502-1.277-.739-.637-.211-3.352-.211h-23.625q-2.766 0-3.458.198t-1.211.831-.519 1.688v.845h-.938v-13.563h.938v1.133q0 1.133.559 1.807.372.486 1.277.782.639.217 3.352.216h22.878q2.754 0 3.509-.224a1.83 1.83 0 0 0 1.125-.881q.238-.473.238-2.235v-2.104q0-1.997-1.009-3.339t-3.188-2.314-6.429-1.841v-.812zm-23.25-24.097h.938q.319 1.374 2.099 2.458 1.328.793 6.241 2.352l27.41 8.645v.629l-28.52 8.665q-5.183 1.559-6.087 2.088t-1.144 2.008h-.938v-12.11h.938v.423q0 1.638.589 2.246.401.422 1.178.422.481 0 1.138-.158.656-.157 3.504-1.018l17.836-5.378-15.866-4.966q-2.913-.911-3.9-1.123-.986-.212-1.679-.212-.8 0-1.413.304t-.933.886q-.453.792-.453 2.113h-.938zm2.062-9.889h14.563v-.539q0-2.452-2.136-3.559-2.136-1.104-6.302-1.402v-.625h18.75v.625q-3.061.243-5.014.971c-1.953.728-2.177 1.052-2.626 1.698q-.673.97-.673 2.831h10.113q2.967 0 3.628-.186.662-.186 1.085-.678.424-.491.424-1.581v-1.515q0-3.56-2.316-5.714-2.317-2.152-7.074-3.082v-.683l11.391 1.139v21.924h-.938v-.845q0-1.107-.559-1.768-.372-.502-1.277-.766-.637-.185-3.352-.185h-23.625q-2.447 0-3.006.079-.931.185-1.437.687-.745.713-.745 1.952v.845h-.938v-21.25h10.5v.625q-3.839.534-5.512 1.537a6 6 0 0 0-2.456 2.793q-.47 1.07-.47 3.982v2.69zm-.062-26.369q0-3.011 1.947-4.358 1.947-1.348 6.023-1.348 2.815 0 4.563.74c1.748.74 1.973 1.167 2.42 2.021q.67 1.282.671 3.87v1.057h-15.625zm17.5.344 16.375-8.162v-7.95h-1q-.079 1.008-.896 1.775-.578.504-2.922 1.696l-12.179 6.07q-.818-2.326-2.456-3.596-2.587-2.009-6.548-2.009-3.248 0-5.663 1.337t-3.313 3.466-.898 6.734v11.775h.938q0-1.767.449-2.41.45-.643 1.203-.897t3.66-.255h23.375q2.907 0 3.647.255.741.254 1.203.884t.462 2.424h.938V369.37h-.938q0 1.755-.449 2.402t-1.202.904q-.754.256-3.661.256h-10.125z" style="fill:#1a171b"/><path d="m146.914 348.8-12.272-3.902 12.272-3.779zm6.395-9.653q1.757-.53 1.997-.556.507-.105.984-.105.8 0 1.225.396.586.609.586 2.088v.502h.938V329.21h-.938q-.132 1.163-.956 1.797-1.088.846-5.285 2.141l-29.384 9.155v.345l28.592 9.092q4.113 1.269 5.428 2.154t1.605 2.232h.938v-8.403h-.938q-.213 1.982-.638 2.483-.718.846-2.233.846-1.143 0-2.897-.528l-3.481-1.106v-8.896zm-6.395-47.359-12.272-3.902 12.272-3.779zm6.395-9.653q1.757-.53 1.997-.556.507-.105.984-.105.8 0 1.225.396.586.609.586 2.088v.502h.938v-12.263h-.938q-.132 1.163-.956 1.797-1.088.846-5.285 2.141l-29.384 9.155v.345l28.592 9.092q4.113 1.269 5.428 2.154t1.605 2.232h.938v-8.403h-.938q-.213 1.982-.638 2.483-.718.846-2.233.846-1.143 0-2.897-.528l-3.481-1.106v-8.896zm-18.385-68.089q4.002.956 11.178 5.73 7.286 4.848 9.651 9.17 1.656 2.999.098 5.341-1.559 2.344-5.008 1.944-4.966-.554-12.627-5.651-6.383-4.246-8.995-7.816-3.112-4.25-1.261-7.032 1.922-2.89 6.964-1.686m22.842 8.946q-2.65-5.327-8.463-9.194-6.672-4.438-13.213-4.253-6.541.187-9.773 5.045-3.249 4.883-.917 11.002 2.33 6.12 9.024 10.572 5.77 3.839 11.489 4.265 5.72.427 9.396-2.617 4.623 1.425 8.137.478 3.512-.949 5.444-3.854 1.228-1.847 2.001-4.7l-1.353-.9a11 11 0 0 1-.777 1.394q-1.514 2.275-3.981 2.814-2.47.539-5.842-.686 1.478-4.039-1.172-9.366M147.602 463.75c-.383.365-6.887 2.037-15.046 2.346 1.263-.744 4.65-2.65 5.08-4.466s-.648-3.783-.648-3.783 3.662 5.488 10.506 4.721c.636.375.489.817.108 1.182" style="fill:#1a171b"/></g><path d="M363.085 553.905c2.324.137 4.3-1.018 3.7-3.533 2.527-.126 4.845-.17 7.235.563 2.535.777 3.299 2.441 5.442 3.392 1.803 5.796-16.809 4.825-17.426-.366.358-.092.704.025 1.049-.056m-19.719 26.2c2.402.205 4.533-.512 6.881-.805 1.36-.169 4.109.277 5.276-.263 2.314-1.071.954-3.973 3.616-4.701 2.509-.687 4.317 2.772 7.24 2.904 2.859.129 6.911-1.287 10.079-1.441 7.889-.384 16.185 2.518 23.871.655 5.091-1.232 8.024-7.989 13.829-5.249-2.222 3.064-5.641 4.967-7.236 8.548.729.071 1.581.551 2.445.423-3.396 2.122-14.015.987-18.524.646-5.73-.433-11.301-1.058-17.177-.28-3.548.47-29.736 3.286-29.936-1.155" style="fill:#520;fill-opacity:1" transform="translate(81.67 -25.502)scale(.31004)"/><g transform="translate(81.67 -25.502)scale(.31004)"><circle cx="311.288" cy="612.191" r="4.11" style="fill:#1a171b"/><circle cx="235.945" cy="612.191" r="4.11" style="fill:#1a171b"/><path d="m401.462 606.992-3.902 12.272-3.779-12.272zm-9.652-6.395q-.53-1.758-.556-1.997a5 5 0 0 1-.105-.984q0-.8.396-1.225.609-.586 2.088-.586h.502v-.938h-12.263v.938q1.163.132 1.797.956.845 1.088 2.141 5.285l9.155 29.384h.345l9.092-28.592q1.269-4.113 2.154-5.428t2.232-1.605v-.938h-8.403v.938q1.982.212 2.483.638.846.718.846 2.233 0 1.143-.528 2.897l-1.106 3.481h-8.896zm-18.971 30.145L360.4 608.593v15.337q0 3.243.656 4.387.894 1.54 2.969 1.488v.938h-8.313v-.938q1.604-.292 2.156-.758t.854-1.516.302-3.602v-29.875h.635l17.053 30.018v-22.955q0-3.123-1.004-4.218t-2.317-1.095h-.616v-.938h9.063v.938q-2.1.027-2.925 1.228t-.825 4.085v25.374l.512.9q.82 1.448 1.427 1.903t1.771.51v.938zm-24.717-1.432q-.47-.996-.471-4.632 0-4.486.261-6.024.132-.903.536-1.407t.953-.504q.759 0 1.254 1.035.496 1.034.496 4.353 0 4.644-.261 6.237-.13.982-.549 1.46-.417.477-.992.478-.756-.002-1.227-.996m5.086-.104q1.506-2.224 1.506-5.718 0-3.442-1.493-5.625-1.493-2.184-3.846-2.184-2.326 0-3.806 2.17t-1.48 5.719q0 3.494 1.507 5.678t3.832 2.184q2.273 0 3.78-2.224m-27.192 2.349-.188-11.938h.75q.557 4.481 2.672 7.209 2.117 2.728 4.576 2.729 1.906 0 3.017-1.438t1.11-3.313q0-1.188-.369-2.111-.552-1.241-1.737-2.454-.868-.871-4.029-3.089-4.423-3.089-6.001-5.837-1.55-2.748-1.551-6.29 0-4.493 2.479-7.73t6.296-3.237q1.22 0 2.28.347 1.06.346 2.677 1.308.903.533 1.485.533.477 0 1.021-.54t.888-1.647h.625v13.5h-.625q-.846-5.668-3.189-8.646t-5.043-2.979q-2.092 0-3.336 1.609-1.244 1.61-1.244 3.748 0 1.267.475 2.455.474 1.187 1.435 2.256.961 1.07 3.437 2.785 3.424 2.402 4.929 4.092a12.2 12.2 0 0 1 2.303 3.778q.798 2.087.798 4.598 0 4.28-2.215 7.292-2.216 3.012-5.592 3.012-1.214 0-2.373-.419-.87-.315-2.136-1.167t-1.768-.852q-.474 0-.751.419-.277.418-.541 2.019h-.565zm-52.492-24.063.938-12.625H296.9v.938h-.845q-1.107 0-1.768.559-.502.372-.739 1.277-.211.637-.211 3.352v23.625q0 2.766.198 3.458t.831 1.211 1.688.519h.845v.938h-13.563v-.938h1.133q1.133 0 1.807-.559.486-.372.782-1.277.217-.639.216-3.352V601.74q0-2.754-.224-3.509a1.83 1.83 0 0 0-.881-1.125q-.473-.238-2.235-.238h-2.104q-1.997 0-3.339 1.009t-2.314 3.188-1.841 6.429h-.812zm-8.088-.5-3.902 12.272-3.779-12.272zm-9.653-6.395q-.53-1.758-.556-1.997a5 5 0 0 1-.105-.984q0-.8.396-1.225.609-.586 2.088-.586h.502v-.938h-12.263v.938q1.163.132 1.797.956.845 1.088 2.141 5.285l9.155 29.384h.345l9.092-28.592q1.269-4.113 2.154-5.428t2.232-1.605v-.938h-8.403v.938q1.982.212 2.483.638.846.718.846 2.233 0 1.143-.528 2.897l-1.106 3.481h-8.896zm-56.627 30.145v-9.688h.625q.59 3.35 1.328 4.814t2.025 2.336q.724.475 2.521.475h1.875v-27.688q0-2.768-.221-3.459a2.63 2.63 0 0 0-.832-1.21q-.611-.519-1.678-.519h-.832v-.938h13.188v.938h-.838q-1.1 0-1.756.559-.497.372-.759 1.277-.21.637-.21 3.352v27.688h1.875q2.615 0 3.8-1.53 1.644-2.137 2.075-6.095h.625v9.688zm-14.332-34.937v-.938h13.188v.938h-.845q-1.108 0-1.768.559-.501.372-.766 1.277-.185.637-.185 3.352v23.625q0 2.766.198 3.458t.831 1.211 1.688.519h.845v.938h-13.188v-.938h.838q1.075 0 1.756-.559.471-.372.759-1.277.21-.639.21-3.352v-23.625q0-2.768-.223-3.459t-.838-1.21c-.615-.519-.965-.519-1.664-.519z" style="fill:#1a171b"/><path d="M349.335 606.338c-.429.311-3.247 6.405-5.024 14.375.96-1.107 3.447-4.096 5.31-4.19s3.604 1.321 3.604 1.321-4.737-4.593-2.746-11.186c-.255-.694-.716-.63-1.144-.32" style="fill:#1a171b"/></g><text font-size="20.001" style="font-size:20.0007px;fill:#1a171b;font-family:ArialMT" transform="rotate(29.071 -69.09 311.959)scale(.31005)">T</text><text font-size="20" style="font-size:20px;fill:#1a171b;font-family:ArialMT" transform="rotate(21.897 -120.208 416.792)scale(.31003)">I</text><text font-size="19.999" style="font-size:19.99909973px;fill:#1a171b;font-family:ArialMT" transform="rotate(17.141 -176.863 531.457)scale(.31002)">E</text><text font-size="20.001" style="font-size:20.00079918px;fill:#1a171b;font-family:ArialMT" transform="rotate(12.475 -275.955 739.242)scale(.31005)">R</text><text font-size="20.001" style="font-size:20.0007px;fill:#1a171b;font-family:ArialMT" transform="rotate(8.852 -425.535 1059.282)scale(.31004)">R</text><text font-size="19.999" style="font-size:19.99900055px;fill:#1a171b;font-family:ArialMT" transform="rotate(5.874 -686.649 1624.7)scale(.31002)">A</text><text font-size="20" style="font-size:20px;fill:#1a171b;font-family:ArialMT" transform="rotate(2.393 -1823.003 4093.106)scale(.31003)">Y</text><text font-size="20" style="font-size:20px;fill:#1a171b;font-family:ArialMT" transform="rotate(-1.279 3665.68 -7833.441)scale(.31004)">L</text><text font-size="20.001" style="font-size:20.00099945px;fill:#1a171b;font-family:ArialMT" transform="rotate(-3.088 1561.057 -3273.608)scale(.31)">I</text><text font-size="20" style="font-size:20px;fill:#1a171b;font-family:ArialMT" transform="rotate(-5.26 954.517 -1929.89)scale(.31005)">B</text><text font-size="20" style="font-size:20px;fill:#1a171b;font-family:ArialMT" transform="rotate(-8.582 618.61 -1195.886)scale(.31003)">E</text><text font-size="20.001" style="font-size:20.00090027px;fill:#1a171b;font-family:ArialMT" transform="rotate(-12.604 449.246 -820.766)scale(.31005)">R</text><text font-size="20" style="font-size:20px;fill:#1a171b;font-family:ArialMT" transform="rotate(-17.021 355.286 -611.557)scale(.31004)">T</text><text font-size="20" style="font-size:20px;fill:#1a171b;font-family:ArialMT" transform="rotate(-21.382 300.801 -486.082)scale(.31004)">A</text><text font-size="20" style="font-size:20px;fill:#1a171b;font-family:ArialMT" transform="rotate(-28.427 248.145 -362.105)scale(.31003)">D</text></svg>