<svg xmlns="http://www.w3.org/2000/svg" width="360" height="216"><path fill="#fff" d="M0 216h360V0H0z"/><path fill="#10a5ff" fill-rule="evenodd" stroke="#10a5ff" d="M.958 70.303s115.024-.649 167.442 0c12.972.16 33.272 9.717 43.135 26.992 0 0 14.084-28.144 51.947-28.854 49.147-.932 57.44 45.848 44.99 53.984 0 0-11.11-27.923-39.436-23.734-17.73 2.621-33.053 17.484-32.92 36.764.222 31.995 39.842 40.663 55.211 38.161 44.077-7.174 68.173-13.961 68.173-13.961V215.5H.5z"/><path fill="#fff" stroke="#fff" stroke-linecap="round" stroke-width=".836" d="M155.571 352.189a4.862 36.867 0 1 1-9.723 0 4.862 36.867 0 1 1 9.723 0z" transform="matrix(7.57982 0 0 .99954 -994.35 -215.82)"/></svg>