<svg xmlns="http://www.w3.org/2000/svg" width="374" height="216" overflow="visible"><path fill="#fff" d="M0 0h374v216H0z"/><path fill="#999" d="m223.88 66.103-1.563.388-4.871 24.816-7.26-22.068-13.912 3.455.104.238-1.723.428 16.77 38.335 11.847-2.942.077-.283 1.54-.383 12.531-45.61-13.487 3.349zm-108.64 15.21q-4.275-3.625-12.351-1.62l-24.729 6.14.014.261-1.631.405 3.14 57.91 14.915-3.704-.014-.261 1.631-.405-1.149-21.206 6.521-1.619a29.3 29.3 0 0 0 5.023-1.732c4.275-1.598 7.528-3.988 9.723-7.2q4.121-6.031 3.646-14.806-.466-8.538-4.739-12.163m-12.796 21.977c-.629.85-1.56 1.569-2.77 2.167-.5.172-1.023.332-1.593.474l-3.667.91-.686-12.656 2.629-.653q4.194-1.04 5.817.478t1.771 4.244q.152 2.804-1.501 5.036m45.434-19.528a9.2 9.2 0 0 0-2.106.826c-1.66.506-3.059 1.391-4.169 2.697-.678.797-1.327 1.888-1.95 3.251l-.202-3.732-12.521 3.108.015.261-1.632.405 2.274 41.935 13.44-3.337-.014-.261 1.632-.405-.762-14.051q-.546-10.063 1.325-14.248c.595-1.352 1.401-2.334 2.41-2.965.912-.203 2.146-.117 3.716.268l.262-.931c.424.063.869.146 1.355.265l3.519-12.491q-3.636-1.33-6.592-.595m44.23-3.584q-5.737-5.974-16.188-3.379c-1.652.41-3.194.961-4.646 1.63-4.646 1.755-8.372 4.694-11.147 8.855q-5.035 7.55-4.516 17.14.559 10.302 7.258 15.076 5.454 3.845 13.842 1.763c1.724-.429 3.326-1 4.828-1.688 4.712-1.783 8.45-4.707 11.181-8.81q4.987-7.499 4.464-17.168-.465-8.603-5.076-13.419m-11.362 26.399c-.783 1.428-1.755 2.467-2.91 3.136l-.042.013q-2.838.705-4.86-1.513c-2.022-2.218-2.123-4.086-2.325-7.822q-.3-5.526 1.446-8.698c.807-1.468 1.806-2.533 2.986-3.215l.045-.014q2.739-.679 4.744 1.522 2.005 2.203 2.299 7.648.317 5.842-1.383 8.943m98.313-33.311q-.467-8.603-5.077-13.418-5.736-5.975-16.187-3.38c-1.652.41-3.194.961-4.646 1.63-4.646 1.755-8.372 4.694-11.148 8.855q-5.035 7.55-4.516 17.14.56 10.303 7.26 15.076 5.455 3.845 13.841 1.763c1.725-.429 3.327-1 4.829-1.688 4.711-1.784 8.45-4.706 11.179-8.81q4.988-7.499 4.465-17.168m-16.439 12.98c-.783 1.428-1.756 2.467-2.911 3.135l-.041.014q-2.84.705-4.861-1.513t-2.324-7.822q-.299-5.526 1.445-8.698c.809-1.468 1.806-2.533 2.986-3.215l.046-.014q2.739-.679 4.743 1.522 2.004 2.203 2.3 7.648.317 5.842-1.383 8.943"/><path d="m227.438 61.103-1.563.388-4.87 24.816-7.261-22.068-13.912 3.455.104.238-1.721.428 16.77 38.335 11.846-2.942.077-.283 1.54-.383 12.532-45.61-13.487 3.349zm-108.641 15.21q-4.274-3.625-12.351-1.62l-24.729 6.141.014.261-1.631.404 3.14 57.91 14.915-3.704-.014-.261 1.631-.405-1.149-21.206 6.521-1.619a29.3 29.3 0 0 0 5.023-1.732c4.275-1.598 7.528-3.988 9.723-7.2q4.121-6.031 3.646-14.806-.465-8.538-4.739-12.163M106.001 98.29c-.629.85-1.56 1.569-2.77 2.167-.5.172-1.024.332-1.593.474l-3.667.91-.687-12.656 2.629-.653q4.194-1.04 5.817.478t1.771 4.244q.154 2.804-1.5 5.036m45.435-19.528a9.2 9.2 0 0 0-2.106.826c-1.66.506-3.059 1.391-4.169 2.697-.678.797-1.327 1.888-1.95 3.251l-.202-3.732-12.521 3.108.014.261-1.632.405 2.274 41.935 13.441-3.337-.015-.261 1.632-.405-.762-14.051q-.546-10.063 1.325-14.248c.595-1.352 1.401-2.334 2.41-2.965.912-.203 2.147-.117 3.716.268l.262-.931c.424.063.869.146 1.355.265l3.519-12.491q-3.635-1.33-6.591-.595m44.23-3.584q-5.737-5.974-16.188-3.379c-1.652.41-3.194.961-4.646 1.63-4.646 1.755-8.372 4.694-11.147 8.855q-5.035 7.55-4.516 17.14.559 10.302 7.258 15.076 5.454 3.845 13.842 1.763c1.725-.429 3.326-1 4.828-1.688 4.713-1.783 8.45-4.707 11.181-8.81q4.987-7.499 4.464-17.168-.466-8.603-5.076-13.419m-11.363 26.399c-.782 1.428-1.755 2.467-2.91 3.136l-.042.013q-2.838.705-4.86-1.513c-2.022-2.218-2.123-4.086-2.325-7.822q-.3-5.526 1.446-8.698c.807-1.468 1.806-2.533 2.986-3.215l.045-.014q2.74-.679 4.744 1.522 2.005 2.203 2.299 7.648.318 5.842-1.383 8.943m98.314-33.311q-.467-8.603-5.077-13.418-5.737-5.975-16.188-3.38c-1.651.41-3.194.961-4.645 1.63-4.647 1.755-8.374 4.694-11.148 8.855q-5.036 7.55-4.516 17.14.559 10.303 7.258 15.076 5.455 3.845 13.843 1.763c1.724-.429 3.326-1 4.828-1.688 4.713-1.784 8.449-4.706 11.18-8.81q4.99-7.499 4.465-17.168m-16.439 12.98c-.783 1.428-1.756 2.467-2.91 3.135l-.043.014q-2.838.705-4.859-1.513t-2.324-7.822q-.302-5.526 1.445-8.698c.808-1.468 1.806-2.533 2.985-3.215.017-.004.029-.01.046-.014q2.74-.679 4.744 1.522 2.004 2.203 2.298 7.648.318 5.842-1.382 8.943"/><linearGradient id="a" x2="282.666" y1="144.05" y2="144.05" gradientUnits="userSpaceOnUse"><stop offset=".004" stop-color="#391665"/><stop offset=".054" stop-color="#371b69"/><stop offset=".113" stop-color="#302976"/><stop offset=".176" stop-color="#24418c"/><stop offset=".241" stop-color="#1461aa"/><stop offset=".306" stop-color="#0089ce"/><stop offset=".525" stop-color="#4cb72d"/><stop offset=".686" stop-color="#dad908"/><stop offset=".797" stop-color="#e88d0c"/><stop offset=".801" stop-color="#e9870c"/><stop offset=".832" stop-color="#f05e08"/><stop offset=".864" stop-color="#f53c05"/><stop offset=".896" stop-color="#f92203"/><stop offset=".929" stop-color="#fd0f01"/><stop offset=".963" stop-color="#fe0400"/><stop offset="1" stop-color="red"/></linearGradient><path fill="url(#a)" d="M0 171.164v13.993l282.666-68.221v-13.994z"/></svg>