<svg xmlns="http://www.w3.org/2000/svg" xmlns:xlink="http://www.w3.org/1999/xlink" width="700" height="500" viewBox="0 0 2100 1500"><defs><path id="b" fill="#fff" d="M.162 0 0-.5l-.162.5z" transform="scale(65)"/><use xlink:href="#a" id="c" transform="scale(2)"/><g id="a"><use xlink:href="#b"/><use xlink:href="#b" transform="rotate(72)"/><use xlink:href="#b" transform="rotate(-72)"/><use xlink:href="#b" transform="rotate(144)"/><use xlink:href="#b" transform="rotate(-144)"/></g></defs><path fill="#fff" d="M0 0h2100v1500H0z"/><path fill="#d20000" d="M0 500h2100v500H0z"/><path fill="#001e78" d="M0 0h900v500H0z"/><use xlink:href="#c" x="450" y="250"/><use xlink:href="#a" x="100" y="100"/><use xlink:href="#a" x="200" y="100"/><use xlink:href="#a" x="300" y="100"/><use xlink:href="#a" x="400" y="100"/><use xlink:href="#a" x="500" y="100"/><use xlink:href="#a" x="600" y="100"/><use xlink:href="#a" x="700" y="100"/><use xlink:href="#a" x="800" y="100"/><use xlink:href="#a" x="100" y="200"/><use xlink:href="#a" x="300" y="200"/><use xlink:href="#a" x="600" y="200"/><use xlink:href="#a" x="800" y="200"/><use xlink:href="#a" x="100" y="300"/><use xlink:href="#a" x="300" y="300"/><use xlink:href="#a" x="600" y="300"/><use xlink:href="#a" x="800" y="300"/><use xlink:href="#a" x="100" y="400"/><use xlink:href="#a" x="200" y="400"/><use xlink:href="#a" x="300" y="400"/><use xlink:href="#a" x="400" y="400"/><use xlink:href="#a" x="500" y="400"/><use xlink:href="#a" x="600" y="400"/><use xlink:href="#a" x="700" y="400"/><use xlink:href="#a" x="800" y="400"/></svg>