<svg xmlns="http://www.w3.org/2000/svg" width="1000" height="700"><path fill="#fff" d="M0 0h1000v700H0z"/><g fill-rule="evenodd"><path fill="#00994c" d="m0 0 250 250h750v200H250L0 700z"/><path fill="#002580" d="M1000 200H270.71L70.71 0H1000z"/><path fill="#f3e718" d="m70.71 700 200-200H1000v200z"/><path d="m0 0 250 250h750v-17H257.042l-233-233zm0 700 250-250h750v17H257.042l-233 233z"/><path d="m46.669 0 217 217H1000v-17H270.71L70.71 0H46.67zm0 700 217-217H1000v17H270.71l-200 200H46.67z"/></g><g fill-rule="evenodd"><path fill="#fff" stroke="#000" stroke-width="5" d="m152 398-6 12 18 24 18-24-6-12 36-36 12 6 24-18-24-18-12 6-36-36 6-12-18-24-18 24 6 12-36 36-12-6-24 18 24 18 12.6-6z"/><path fill="#038301" stroke="#000" stroke-width="5" d="m164 386 36-36-36-36-36 36z"/><path d="m116 350-12-6-8 6 8 6zm96 0 12-6 8 6-8 6zm-48-48 6-12-6-8-6 8zm0 96 6 12-6 8-6-8z"/></g></svg>