<svg xmlns="http://www.w3.org/2000/svg" width="1066.667" height="711.111" viewBox="0 0 1000 666.667"><defs><clipPath id="a"><path d="M431.716 24.674h132.449v68.948H431.716z"/></clipPath></defs><path fill="#fff" d="M0 0h1000v666.667H0z" color="#000" overflow="visible" style="isolation:auto;mix-blend-mode:normal"/><path fill="#fff" d="M0 33.333h1000v600H0z" color="#000" overflow="visible" style="isolation:auto;mix-blend-mode:normal"/><g clip-path="url(#a)" transform="matrix(6.04008 0 0 -6.04008 -2507.604 688.942)"><path fill="#6ea31b" d="M544.626 51.82c-1.74-3.69-3.17-5.46-3.619-5.527q-.539.51-.539 1.923c0 1.95.76 5.174 2.272 9.637 0 0 .158.48.218.657l.588.54c2.948 2.73 3.698 2.526 3.703 2.523.127-.168.186-.46.186-.856 0-1.694-1.092-5.259-2.809-8.898m-10.369 3.615c-.904.754-1.912 2.905-1.912 8.754 0 .772.02 1.607.055 2.515q.04.93.041 1.835c0 1.537-.094 3.001-.262 4.39 2.518 2.41 4.901 3.23 6.9 2.345 2.396-1.064 3.933-4.457 3.933-8.564q0-.343-.012-.693c-.082-1.912-.47-4.292-1.148-7.062-5.316-4.638-6.672-4.286-7.594-3.52m-12.038 0c-3.545-2.536-6.426-3.956-8.109-4.003-1.449-.039-2.635.377-3.526 1.241-1.252 1.221-1.916 3.31-1.916 6.038 0 7.268-2.117 10.558-3.985 13.465-1.595 2.476-2.97 4.616-3.023 8.785.081 2.857 1.404 5.428 3.538 6.846 2.82 1.877 7.031 1.822 12.18-.16 7.34-2.83 11.521-7.504 12.796-14.269-4.168-4.426-7.439-13.407-7.955-17.944m1.98.047 1.407.96c1.598 1.028 2.004 1.028 2.098 1.001.03-.055.058-.147.058-.325 0-.565-.273-1.942-1.607-5.318-1.53-3.89-2.352-4.065-2.362-4.065-.172.138-.505.988-.505 3.16q-.001.458.021 1.005c.037.856.14 1.902.307 3.182.205.138.582.4.582.4m24.05 7.476c-.345.211-1.343.82-4.61-2.183.714 2.785 1.085 5.338 1.085 7.557 0 4.137-1.225 7.162-3.613 8.591-2.614 1.564-6.186.77-9.276-1.99-1.5 7.151-7.216 13.572-14.806 16.505-5.647 2.186-10.299 2.186-13.459-.002-2.634-1.825-4.004-5.023-3.962-9.253-.13-4.36 1.691-6.995 3.616-9.783 2.2-3.182 4.47-6.475 4.027-12.843-.279-4.065-.52-7.575 1.352-9.375 1.041-1 2.64-1.37 4.891-1.129 3.414.372 6.927 3.308 8.55 4.767l-.017-.155c-.186-1.559-.336-3.017-.336-4.26 0-1.664.271-2.937 1.09-3.523.338-.243.812-.3 1.302-.157.936.275 2.362 1.394 3.856 5.186 1.523 3.864 1.783 6.855 1.256 7.7a1.06 1.06 0 0 1-.744.477c-.879.134-2.375-.64-4.547-2.369.84 4.12 3.205 9.826 6.592 14.254a31 31 0 0 0 .091-4.19 59 59 0 0 1-.06-2.616c0-5.08.76-8.123 2.345-9.484 2.055-1.75 4.33-1.162 8.395 2.314-.07-.249-.174-.606-.174-.606-1.006-3.387-1.877-6.595-1.877-8.84 0-1.446.362-2.489 1.285-2.915 1.774-.82 4.344 2.502 6.157 5.885 1.672 3.114 2.93 6.681 2.93 9.268 0 1.45-.395 2.587-1.339 3.17"/><path fill="#5a6771" d="M437.524 38.567q.001 2.035-2.035 2.037h-1.816v-4.113h1.816q2.036 0 2.035 2.076m2.057-10.039h-2.176l-2.115 6.087h-1.617v-6.087h-1.956v13.969h3.93q1.679-.001 2.715-.898 1.178-1.018 1.178-2.974 0-2.814-2.196-3.672l2.236-6.425zm6.102 6.247q-.04 1.197-.509 1.926-.47.73-1.268.73-1.517 0-1.758-2.656zm1.956-.979a8 8 0 0 0-.02-.678h-5.47q.18-2.972 1.969-2.973 1.054-.001 1.89.778l1.174-1.217q-1.26-1.4-3.116-1.399-1.835 0-2.854 1.478-.997 1.416-.997 3.93 0 2.674 1.038 4.13.978 1.376 2.693 1.377 1.637 0 2.635-1.336 1.058-1.456 1.058-4.09m5.981-2.732v5.427q-.62.939-1.657.94-1.518-.002-1.518-3.455 0-3.87 1.618-3.87.98 0 1.558.958m1.916-1.622q0-2.294-.938-3.372-.998-1.135-3.333-1.396l-.54 1.537q1.718.22 2.305.84.59.618.59 2.117v.078q-.84-.939-1.956-.939-3.154 0-3.154 5.568 0 2.594.857 3.97.859 1.376 2.436 1.377 1.058 0 1.816-.776v.556h1.916v-9.56zm3.632-.914h-1.915v10.474h1.915zm.22 13.294q0-.477-.35-.828a1.13 1.13 0 0 0-.827-.349q-.5 0-.849.349-.35.351-.349.828 0 .5.349.851.35.348.849.348.478 0 .827-.348.35-.351.35-.851m6.811-8.064q0 3.632-1.857 3.632-1.82 0-1.819-3.632.001-3.613 1.838-3.613.88 0 1.36.978.477.978.478 2.635m1.934.037q0-2.694-1.028-4.09-1.028-1.398-2.804-1.398-1.696 0-2.673 1.338-1.04 1.396-1.039 4.07 0 2.694 1.018 4.13.978 1.376 2.775 1.377 1.715-.001 2.714-1.336 1.037-1.438 1.037-4.09m8.024-5.268h-1.917v6.446q0 1.317-.288 1.877-.29.559-1.008.558-.979 0-1.557-.957v-7.924h-1.915v10.474h1.915v-.715q.738.935 2.035.935 1.478 0 2.106-.949.629-.947.629-2.982zm12.731 3.612q0-1.718-.998-2.775-.998-1.059-2.814-1.058-2.355 0-3.692 2.277l1.537 1.237q.977-1.556 2.273-1.557 1.676 0 1.677 1.776 0 .82-.47 1.418-.468.597-1.875 1.526-1.407.928-1.986 1.686-.818 1.058-.818 2.555 0 1.557.957 2.525.96.967 2.575.967 2.096.001 3.393-1.896l-1.437-1.277q-.518.699-.947.96-.431.257-1.069.258-1.456.002-1.456-1.477 0-.778.43-1.317.427-.54 1.605-1.298 1.557-.998 2.215-1.815.9-1.118.9-2.716m7.811 6.863-4.13-14.16h-1.877l1.138 3.688-2.915 10.472h2.036l1.217-4.968q.38-1.515.62-2.85.218 1.236.64 2.871l1.236 4.947h2.034zm5.353-7.938v5.427q-.616.939-1.657.94-1.516-.002-1.516-3.455 0-3.87 1.617-3.87.978 0 1.556.958m1.917-2.536h-1.917v.7q-.855-.92-1.955-.92-3.151 0-3.153 5.567 0 2.594.858 3.97t2.434 1.377q1.059 0 1.816-.776v3.622l1.917.995zm6.506 2.536v5.427q-.622.939-1.656.94-1.52-.002-1.52-3.455.002-3.87 1.617-3.87.98 0 1.56.958m1.916-2.536h-1.916v.7q-.858-.92-1.957-.92-3.152 0-3.152 5.567 0 2.594.859 3.97.856 1.376 2.436 1.377 1.055 0 1.814-.776v3.622l1.916.995zm6.073 2.494v2.096q-.659.4-1.576.4-1.518 0-1.518-1.657 0-1.816 1.317-1.816 1.218.001 1.777.977m1.916-2.494h-1.916v.718q-.818-.939-2.156-.939-1.215 0-1.996.88-.856.937-.858 2.633 0 1.659.96 2.576.915.858 2.455.858.875 0 1.595-.34v1.02q0 1.496-1.357 1.496-.959 0-2.055-.659l-.82 1.455q1.497.997 3.013.996 1.72 0 2.426-.698.71-.7.71-2.434v-7.562zm8.521 0h-1.916v6.446q0 1.317-.29 1.877-.29.559-1.01.558-.976 0-1.555-.957v-7.924h-1.915v10.474h1.916v-.715q.74.935 2.035.935 1.478 0 2.108-.949.625-.947.627-2.982zm12.87 0h-1.914v6.446q-.002 1.178-.08 1.556-.221.879-1.018.879-.979 0-1.558-.957v-7.924h-1.914v6.446q0 1.178-.08 1.556-.221.879-1.018.879-.977 0-1.557-.957v-7.924h-1.916v10.474h1.916v-.715q.739.935 1.955.935 1.479 0 2.116-1.115.978 1.115 2.453 1.115 1.517 0 2.097-1.017.519-.918.518-3.112zm6.051 2.494v2.096q-.663.4-1.577.4-1.516 0-1.517-1.657.001-1.816 1.316-1.816 1.219.001 1.778.977m1.914-2.494h-1.914v.718q-.82-.939-2.157-.939-1.217 0-1.996.88-.857.937-.857 2.633 0 1.659.957 2.576.918.858 2.455.858.878 0 1.598-.34v1.02q0 1.496-1.36 1.496-.958 0-2.054-.659l-.819 1.455q1.498.997 3.014.996 1.715 0 2.424-.698.709-.7.71-2.434zm7.044 10.336-.46-1.914q-.555.32-1.337.32-.937 0-1.496-.818v-7.924h-1.914v10.474h1.914v-.715q.737.935 1.857.935.856 0 1.436-.358m7.383-10.336h-2.095l-1.737 4.891-1.039-1.657v-3.234h-1.914v13.538l1.914.997v-6.277q0-1.213-.039-2.251.22.46.86 1.615l1.576 2.852h2.174l-2.254-3.632z"/></g></svg>