<svg xmlns="http://www.w3.org/2000/svg" xmlns:xlink="http://www.w3.org/1999/xlink" width="600" height="400"><path fill="#fff" d="M0 0h600v400H0z"/><path fill="#fc0" fill-rule="evenodd" stroke="#000" stroke-width="3" d="M215.145 76.04v188.02s6.714 36.906 84.855 59.9c79.609-22.75 84.855-59.9 84.855-59.9V76.04z"/><path fill="#fc0" fill-rule="evenodd" stroke="#000" stroke-width="2" d="M233.447 113.978V262.24S253.14 294.237 300 305.657c48.01-12.555 66.553-43.417 66.553-43.417V113.978z"/><path fill="#00aad4" fill-rule="evenodd" d="M246.751 178.84v65.246H300l53.941-27.382-.486-37.864H246.75z"/><path fill="#80e5ff" fill-rule="evenodd" d="m246.923 163.094 106.532 1.371-.206-25.192H332.36c-2.491 3.004-8.05 7.107-17.388 5.858-3.016-.403-15.617-6.017-15.871-5.858-7.83 4.876-18.05 6.364-20.027 6.644-1.257.179-4.331-2.057-12.147-6.644H246.75l.172 23.821z"/><path fill="#d7eef4" fill-rule="evenodd" d="m285.925 179.004-.16-18.28h-35.022l.136 19.446z"/><path fill="#008400" fill-rule="evenodd" stroke="#000" stroke-width=".5" d="M246.798 240.765c9.753 1.692 17.618-5.034 27.377-3.755 28.687 10.487 57.87-30.123 79.76-17.96v36.69c-13.171 9.335-26.87 17.954-40.836 26.058-3.977 1.97-7.82 4.94-12.318 5.335-10.623-3.198-20.555-5.917-30.41-10.947-8.49-4.73-17.403-11.74-24.102-18.937-1.504-1.551.225-12.93.53-16.484z"/><path fill="#d7eef4" fill-rule="evenodd" stroke="#000" stroke-width=".5" d="M247.61 177.537c4.076-.77 9.472 2.37 12.458-.942 4.603-2.649 10.217-.008 12.28 4.567 2.558 2.785 15.8 7.454 19.705 6.836 3.115.18 4.486 3.72 7.485 3.855.536 1.982-5.06.056-6.756.66h-12.526c2.81.046 6.22 2.348 1.375 3.174-9.822.453-19.688-.147-29.505.307-2.044.512-2.819.397-5.025.158"/><path fill="#0062ad" fill-rule="evenodd" stroke="#000" stroke-width=".5" d="M246.798 178.856c-.88-3.317.19-21.928.033-24.843 3.088 1.954 8.305 7.276 10.819 11.877 1.342 2.457 14.479 12.057 6.49 10.705-5.123-.868-4.159 4.27-12.391 4.27-8.904 0-4.07 1.308-4.95-2.009zm85.897-32.459c-3.063 3.408-5.612 6.362-7.886 10.19-2.604-1.062-7.34-9.44-7.95-6.82-2.335 4.728-8.834 10.8-13.705 12.687-1.863-2.64-3.344-6.325-4.994-7.554-3.19 2.411-6.369 4.228-8.674 7.758-1.338 3.5-.792-4.726-4.587-7.517-1.81 2.039-4.025 2.937-5.904 4.7-2.9-.914-5.095-3.691-8.287-4.362-1.679 1.894-8.841 2.582-8.723 6.126.659 4.433 7.104 4.402 7.821 8.863-.098 3.729 3.836 5.323 6.876 6.007 3.176.989 4.92 3.269 8.323 3.112l68.17.688c.336-8.433-.287-16.88.25-25.309 2.958-4.552-5.627-4.305-6.897-8.172-6.96 5.462-4.979 3.818-8.049 6.66-1.85-2.607-4.857-6.236-5.784-7.057z"/><path fill="#214478" fill-rule="evenodd" stroke="#000" stroke-width=".5" d="M353.243 155.907c-4.077.565-5.607 4.68-6.976 7.972-1.577 4.919-8.007 2.154-10.19 6.307-1.991 3.566-4.992 6.017-9.058 6.559-4.87 2.613-8.528 7.024-13.665 9.206-2.476.906-3.214 2.962.12 2.317 4.288-.545 7.37 2.945 11.324 3.371 7.239.342 14.58-1.926 21.74-.202 2.036 1.727 4.17 1.256 6.705 1.075"/><path fill="#a40" fill-rule="evenodd" stroke="#000" stroke-width=".5" d="M258.768 230.737c.437.567 2.887 3.445-1.166 5.824-.382 2.788.565 4.67-.07 7.11-.266 1.024-.985 2.549-.36 3.714 1.738.376 4.412-4.189 3.619-2.997-.1.15-1.42-5.202-1.17-5.76.768-1.227 3.844-.02 3.133 1.763-.942 2.36-.157 3.19.136 3.819 1.668 3.58 2.226 2.964 1.312-.984.629-.27 1.887-1.096 1.317-1.827-5.499-7.052.496-3.533.472-6.673 1.24-1.056 1.01-2.988 1.721-3.925 7.496 1.315 11.521-2.438 11.386-2.448 6.834 7.382 3.572 2.688 10.625 11.848 1.596 1.236 2.515.666 2.154-.318-1.8-2.986-5.756-6.756-5.385-8.953 1.45.956 3.283 2.212 4.88 2.574 1.21.275 1.87 1.582 2.529 2.4.376.467.675-.63 1.165-.44 1.682.656 2.964.99 3.514-.304-1.363-.837-4.668-3.094-6.347-3.945-1.582-1.164-7.072-4.54-7.964-7.456-.045-1.05-.16-1.855.38-2.798.52-.908 1.672-1.96 2.953-2.636 2.99-.539.206 1.344 5.127.426 1.515-.214 2.085-.58 1.267-2.07-1.07-1.435-3.443-3.382-4.42-4.913-1.79-1.172.42-1.7-2.754.468-.235-.536-2.538-1.964-2.27-.82.064.276-.469 1.228-.696.739-.338-.726-1.57-1.938-1.616-1.224-.043.687-.957 2.358-.884 1.683.182-1.672-1.499 1.35-3.22.604-.186-.081-.07.424-.118.66-.399 1.975-1.4 4.764-4.113 2.185.439 2.82-2.468 1.084-4.122 2.087l-1.856-1.154c-.168-.62-2.553 1.91-4.038 3.8-.338.43.087 1.086.579 1.587-3.828 2.059-4.668 3.387-5.11 4.175-3.734 1.578-3.862 1.472-5.967 4.754-1.215 2.245-2.382 6.075-4.582 6.933 5.213.165 8.908-4.9 9.959-7.508zm81.992-31.446c-.068-.007-.322.395-1.91 1.479-.235-.537-2.42-.957-2.152.187.065.276-.465 1.219-.692.73-.338-.726-1.135-1.482-1.18-.767-.043.687-1.402 1.91-1.328 1.235.181-1.672-1.499 1.346-3.22.599-.187-.081-.065.42-.112.655-9.118 4.581-10.07-1.906-15.797 5.035-2.557 2.207-2.168 2.225-5.765 6.101-1.602 2.547-.024 2.493-3.181 5.297-1.216 2.245-.384 7.302-2.583 8.16 5.213.165 6.904-8.678 7.954-11.286 1.845 1.734 2.725 5.088 5.54 5.204 1.095.044-.013 2.018-.093 2.564 9.644 3.324 3.99 5.065 5.82 4.585 1.65-.432 3.351-2.064 4.942-.561.32.302 1.35 3.36 3.032 1.03.552-.766-.544-2.084-.936-3.594-.183-.708 1.327.611 2.358.337.963-.257 1.798-.161 3.8-4.137.939-1.864.069-5.243.15-9.845-.046-1.05.086-1.765.393-2.807.325-1.104 1.152-3.348 3.837-2.62 3.067-.629.364-.745 3.78.093 1.515-.215 3.439-.25 2.62-1.74-1.069-1.435-3.457-3.392-4.435-4.923-.895-.586-.775-1.003-.842-1.01zm-13.158 18.605c1.188 1.018.499 4.83-1.666 6.57-.556.165-1.4.39-1.385-.02.035-.912.269-2.733-2.078-2.395-1.37.197.008-2.885-.336-3.819 1.567-.321 3.724-.069 5.465-.336zm4.904 2.451c.903 2.139-1.095 5.288-2.228 2.677.856-.642 1.07-2.511 2.228-2.677zm-13.701.45c.92.697 2.259 1.114 1.441 2.227.075.376-1.037 1.728-1.329.561-.618-1.116-.21-1.55-.112-2.788z"/><path fill="#a40" fill-rule="evenodd" stroke="#000" stroke-width=".5" d="M310.006 207.556c-.057-1.29 6.694-7.95 9.568-8.724 1.64-4.011 1.026-3.183 4.189-5.042 5.16 5.407 2.166 3.05 3.027 5.244 1.671 0 5.974 5.294 6.182 5.8-2.735 2.637-4.694 8.146-6.538 10.082-.92-3.363-7.454-6.036-12.217-6.036-4.537 0-4.765-.215-4.21-1.324z"/><path fill="none" stroke="#000" stroke-width=".5" d="M253.892 160.898h7.84m10.027 18.554h12.457m-10.462-14.702c2.84 1.04 1.853-2.163 3.252-2.163.605 0 1.5-2.273 1.74-2.828m.194 11.363c.024 0 3.104-4.473 6.2-4.473.554 0 3.783-3.292 3.783-3.847m-2.039 13.026c1.732 0 14.77-11.443 16.638-13.31m-45.496 16.632v.145c0 5.291 11.69 12.995 15.714 13.532 3.29.439 3.818 1.164 5.966 1.164m40.861-29.374q.291 0 0 0c-1.98 0 2.55-1.323 3.783-7.858m-20.055 16.651c1.03-2.405 16.49-7.13 22.844-7.13"/><path fill="none" stroke="#000" stroke-width=".5" d="M317.96 171.966c2.312 0 8.706-5.607 9.604-5.965 1.633-.654 10.508-12.373 10.767-12.805"/><path fill="#050" fill-rule="evenodd" stroke="#000" stroke-width=".5" d="M350.815 259.032c.952-.307-4.27-2.049-5.287-2.24-2.437-1.83-4.292-3.061-6.712-4.831 1.07-1.774-.884-2.556-1.123-4.243-.45-2.767-3.906-5.04-4.187-6.313-.154-3.232-3.102-.367-3.541 1.528.247 2.68.791 4.336-.956 7.049-2.702.701-4.225 4.986-2.378 7.13-1.672 1.393-2.982 3.156-3.992 6.08-2.841.889-4.023 3.456-3.881 6.416-1.606.86-3.248-1.88-7.562 2.301-1.458 1.487-2.262 2.547-4.067 6.073.171 2.932-3.765 3.845-5.125 1.341-.828-3.59-1.701-4.434-2.22-5.412-2.015-1.905.15-2.81-1.448-4.962-.426-2.192-4.831-5.42-3.662-7.917-.4-3.635-3.238-3.248-6.292-2.01 2.103 3.486-2.658 1.918-4.297 3.872-2.208.274-2.87 2.516-4.592 3.051-3.023-.526-5.397.57-6.837 3.23 1.888.144-4.766.344-7.48 3.674-11.327-4.386 27.825 16.657 35.51 20.813 0 0 44.775-19.502 50.13-34.63z"/><path fill-rule="evenodd" d="M245.718 138.228v119.436c14.65 16.888 35.428 26.257 54.802 36.502 18.76-7.308 37.522-17.141 50.37-33.071 4.714-3.964 3.228-9.944 3.392-15.316V138.228h-23.415s-10.783 13.244-30.867 0c-21.138 13.74-32.42 0-32.42 0zm2.08 2.08h18.58s11.17 14.388 33.622 0c19.856 13.65 31.987 0 31.987 0h20.216V255.48c-9.914 15.49-26.537 25.034-42.78 32.692-5.326 3.303-10.728 4.41-15.777.037-16.442-8.49-33.364-17.313-45.849-31.325z"/><path fill="none" stroke="#000" stroke-width=".5" d="M279.293 270.56c1.354 1.65-1.638 1.58.474 1.58h.632c.215 0 .877.517 1.106.632m7.109-1.738c.519 0-.682 2.553-1.58 3.002m7.741 3.475c-.017.008-.107 2.3-.632 3.002-.157.209-1.04.158-1.422.158m-1.896-.316c-.029.039-1.02 0-1.58 0m13.745.158c-.94 1.252 3.539 1.956 3.16 3.475-.378 1.507 1.953.731.473 2.212-.074.074-.21 0-.316 0"/><path fill="none" stroke="#000" stroke-width=".5" d="M306.465 284.304c-.783.783-3.424 1.215-3.791 2.686-.244.974-1.638 1.538-2.054 2.37-.25.5-2.606 1.657-3.002 2.053m-2.843-4.581c-.237.473.315-1.343-.158-1.58-1.593-.796-3.301-1.094-4.581-2.054m7.74-2.369c-.66-.331.158-1.473.158-2.212 0-.372.106-.737.158-1.106m-2.053-5.055c0-.693-1.11-1.747-1.422-2.528m42.969-9.794c0-.086.072 2.254-2.053 3.317-.316.158-.316.632-.474.948m-10.269 6.477c-.576.288-2.361 2.307-3.001 3.16-.336.447-.737.842-1.106 1.263m-3.476 4.898c-.509.679.444-2.148-.315-2.528m-1.264-1.896c-.031.042-2.224-1.506-3.95-2.37m21.643-23.063c-.452.602-.291 1.48-.474 2.21m-3.317 6.004c-.306 1.222-.152.941-1.106 1.896-.685.685-.948.834-.948 1.737m16.114-2.527c-1.05 1.05-.704 3.36-1.738 4.739m-12.322 12.796c-.712.711.56-2.025.316-3.001-.19-.756-.509-1.128-.316-1.896"/><path fill="none" stroke="#000" stroke-width=".5" d="M329.53 274.51c-.241-.964 1.7-1.03 2.527-1.58.634-.423 1.114-.956 1.422-1.264m-20.221 15.166c.873-.582-2.26-.206-3.001-.948-.306-.305-.316-.995-.316-1.264"/><path fill="#a40" fill-rule="evenodd" stroke="#000" stroke-width=".5" d="M290.664 249.154c2.364-.9 3.71-2.367 4.98-3.265 2.37-1.91 4.197-2.182 8.04-2.758 1.423-.213 2.82-1.192 4.427-2.437 1.152-.302 1.253-.733 2.187-2.11.634.55 1.477.564 1.962.07.344.967.224 1.134 3.846 3.145-.129 1.058-2.126.879-3.7.713-1.15-.063-1.243.37-.178 1.455.61-.203 1.77-.089 6.669.341.279 1.288-.057 1.994-.914 1.623-1.469-.37-5.46-.538-6.553-.722 1.706.36 3.592 2.555 5.553 2.47 1.364.797.593-1.004 1.397.399.342 1.267-2.022.074-2.083.442-1.178-.294-4.3-.984-6.024-1.083-2.376.816-8.467.794-8.189.518-2.248 1.998-3.661 3.92-5.189 4.566-2.413 1.021-2.263 2.74-2.723 2.903-2.828 1.007 0-2.879-1.213-2.17-.16-1.436-2.837.045-1.256-.735-1.53-1.2 4.64-1.179 4.362-4.594-2.641.72-2.612 1.44-5.401 1.23zm2.395 4.081c.748-.803 1.265-1.124 1.95-1.994.357-.45 1.047-1.568.9-2.128m28.121-55.23c-.759-.189 1.866-1.785 1.233-2.706-.438-.44-1.818-1.4-1.394-1.593 1.186-.41 3.468.08 4.859-.538 1.297-.222 1.883.841 1.769 1.988.51 1.124.673 2.642 1.727 3.366-.703.977-2.632.26-2.695.807-.059.5-.241.834-.643.866-1.083.085-1.698 1.216-2.028 1.075-1.251-.697-2.11-2.052-2.828-3.265z"/><path id="a" fill="#fff" fill-rule="evenodd" stroke="#000" stroke-width=".3" d="m237.835 143.564-.605 1.033 2.19 2.19h1.46l.366.366-.365.365h-.73l1.46 1.46h1.46l.365.365-.365.365h-1.46l1.46 1.46v.731h-.73l-1.46-1.46v1.46l-.365.365-.365-.365v-1.46l-1.46-1.46v.73l-.366.364-.365-.365v-1.46l-2.19-2.19-1.033.604v3.098l1.033 1.033v.516h-.517l-.516-.516v2.065l1.033 1.033v.516h-.517l-1.032-1.032v2.065l-.517.516-.516-.516v-2.065l-1.033 1.032h-.516v-.516l1.033-1.033v-2.065l-.517.516h-.516v-.516l1.033-1.033v-3.098l-1.033-.605-2.19 2.19v1.461l-.366.365-.365-.365v-.73l-1.46 1.46v1.461l-.365.365-.365-.365v-1.46l-1.46 1.46h-.731v-.73l1.46-1.46h-1.46l-.365-.366.365-.365h1.46l1.46-1.46h-.73l-.364-.365.365-.366h1.46l2.19-2.19-.604-1.033h-3.098l-1.033 1.033h-.516v-.517l.516-.516h-2.065l-1.033 1.033h-.516v-.517l1.032-1.032h-2.065l-.516-.517.516-.516h2.065l-1.032-1.033v-.516h.516l1.033 1.033h2.065l-.516-.517v-.516h.516l1.033 1.033h3.098l.605-1.033-2.191-2.19h-1.46l-.365-.366.365-.365h.73l-1.46-1.46h-1.461l-.365-.365.365-.365h1.46l-1.46-1.46v-.731h.73l1.46 1.46v-1.46l.366-.365.365.365v1.46l1.46 1.46v-.73l.365-.365.365.366v1.46l2.19 2.19 1.034-.604v-3.098l-1.033-1.033v-.516h.516l.517.516v-2.065l-1.033-1.033v-.516h.516l1.033 1.032v-2.065l.516-.516.517.516v2.065l1.032-1.032h.517v.516l-1.033 1.033v2.065l.516-.516h.517v.516l-1.033 1.033v3.098l1.033.605 2.19-2.191v-1.46l.365-.366.365.366v.73l1.46-1.46v-1.461l.366-.365.365.365v1.46l1.46-1.46h.73v.73l-1.46 1.46h1.46l.365.366-.365.365h-1.46l-1.46 1.46h.73l.365.365-.365.365h-1.46l-2.191 2.191.605 1.033h3.098l1.032-1.033h.517v.516l-.517.517h2.066l1.032-1.033h.517v.516l-1.033 1.033h2.065l.517.516-.517.517h-2.065l1.033 1.032v.517h-.517l-1.032-1.033h-2.066l.517.516v.517h-.517l-1.032-1.033z"/><use xlink:href="#a" width="900" height="600" stroke="#000" stroke-width=".3" transform="translate(0 28.749)"/><use xlink:href="#a" id="b" width="900" height="600" stroke="#000" stroke-width=".3" transform="translate(0 56.3)"/><use xlink:href="#b" id="c" width="900" height="600" stroke="#000" stroke-width=".3" transform="translate(0 26.353)"/><use xlink:href="#c" id="d" width="900" height="600" stroke="#000" stroke-width=".3" transform="translate(0 27.55)"/><use xlink:href="#d" id="e" width="900" height="600" stroke="#000" stroke-width=".3" transform="translate(11.979 22.76)"/><use xlink:href="#e" width="900" height="600" stroke="#000" stroke-width=".3" transform="translate(22.76 16.77)"/><use xlink:href="#a" width="900" height="600" stroke="#000" stroke-width=".27" transform="translate(-.872 -38.386)scale(1.11111)"/><path fill="#fff" fill-rule="evenodd" stroke="#000" stroke-width=".3" d="m362.537 143.564.605 1.033-2.191 2.19h-1.46l-.365.366.365.365h.73l-1.46 1.46h-1.46l-.366.365.365.365h1.46l-1.46 1.46v.731h.73l1.46-1.46v1.46l.366.365.365-.365v-1.46l1.46-1.46v.73l.365.364.365-.365v-1.46l2.191-2.19 1.033.604v3.098l-1.033 1.033v.516h.516l.517-.516v2.065l-1.033 1.033v.516h.516l1.033-1.032v2.065l.516.516.517-.516v-2.065l1.032 1.032h.517v-.516l-1.033-1.033v-2.065l.516.516h.517v-.516l-1.033-1.033v-3.098l1.033-.605 2.19 2.19v1.461l.365.365.365-.365v-.73l1.46 1.46v1.461l.366.365.365-.365v-1.46l1.46 1.46h.73v-.73l-1.46-1.46h1.46l.366-.366-.366-.365h-1.46l-1.46-1.46h.73l.365-.365-.365-.366h-1.46l-2.191-2.19.605-1.033h3.098l1.032 1.033h.517v-.517l-.517-.516h2.066l1.032 1.033h.517v-.517l-1.033-1.032h2.065l.517-.517-.517-.516h-2.065l1.033-1.033v-.516h-.517l-1.032 1.033h-2.066l.517-.517v-.516h-.517l-1.032 1.033h-3.098l-.605-1.033 2.19-2.19h1.46l.366-.366-.365-.365h-.73l1.46-1.46h1.46l.366-.365-.366-.365h-1.46l1.46-1.46v-.731h-.73l-1.46 1.46v-1.46l-.365-.365-.365.365v1.46l-1.46 1.46v-.73l-.366-.365-.365.366v1.46l-2.19 2.19-1.033-.604v-3.098l1.033-1.033v-.516h-.517l-.516.516v-2.065l1.033-1.033v-.516h-.517l-1.032 1.032v-2.065l-.517-.516-.516.516v2.065l-1.033-1.032h-.516v.516l1.033 1.033v2.065l-.517-.516h-.516v.516l1.033 1.033v3.098l-1.033.605-2.19-2.191v-1.46l-.366-.366-.365.366v.73l-1.46-1.46v-1.461l-.365-.365-.365.365v1.46l-1.46-1.46h-.73v.73l1.46 1.46h-1.46l-.366.366.365.365h1.46l1.46 1.46h-.73l-.364.365.365.365h1.46l2.19 2.191-.604 1.033h-3.098l-1.033-1.033h-.516v.516l.516.517h-2.065l-1.033-1.033h-.516v.516l1.032 1.033h-2.065l-.516.516.516.517h2.065l-1.032 1.032v.517h.516l1.033-1.033h2.065l-.516.516v.517h.516l1.033-1.033z"/><use xlink:href="#a" width="900" height="600" stroke="#000" stroke-width=".3" transform="matrix(-1 0 0 1 600.371 28.749)"/><use xlink:href="#a" width="900" height="600" stroke="#000" stroke-width=".3" transform="matrix(-1 0 0 1 600.371 56.3)"/><use xlink:href="#b" width="900" height="600" stroke="#000" stroke-width=".3" transform="matrix(-1 0 0 1 600.371 26.353)"/><use xlink:href="#c" width="900" height="600" stroke="#000" stroke-width=".3" transform="matrix(-1 0 0 1 600.371 27.55)"/><use xlink:href="#d" width="900" height="600" stroke="#000" stroke-width=".3" transform="matrix(-1 0 0 1 588.393 22.76)"/><use xlink:href="#e" width="900" height="600" stroke="#000" stroke-width=".3" transform="matrix(-1 0 0 1 577.612 16.77)"/><use xlink:href="#a" width="900" height="600" stroke="#000" stroke-width=".27" transform="matrix(-1.11111 0 0 1.11111 601.244 -38.386)"/><path fill-rule="evenodd" d="m310.316 120.3.15-12.689-10.763-5.783-10.78 5.783.168 12.69 10.594 5.783"/><g id="x" stroke-width=".835" transform="translate(214.543 30.742)scale(.59893)"><path fill-rule="evenodd" d="m121.872 124.89 14.886-8.879-3.608 8.827-11.278.051z"/><path fill-rule="evenodd" d="m121.44 120.158 11.596-6.917-2.81 6.876-8.787.04z"/><path fill-rule="evenodd" d="m119.275 116.503 11.275-6.724-2.733 6.685z"/><path fill-rule="evenodd" d="m118.843 113.04 9.197-5.484-2.23 5.453-6.967.032z"/><path fill-rule="evenodd" d="m118.237 110.184 7.379-4.4-1.789 4.375zm-.952-2.402 6.254-3.73-1.516 3.708zm.007-2.251 4.948-2.95-1.199 2.933zm-.657-1.673 4.48-2.672-1.086 2.656z"/><path fill-rule="evenodd" d="m116.34 102.466 3.595-2.143-.872 2.131zm-.463-1.17 3.046-1.816-.739 1.806zm.003-1.096 2.41-1.437-.584 1.429z"/><path fill-rule="evenodd" d="m115.446 99.53 2.12-1.265-.514 1.257z"/><path fill-rule="evenodd" d="m115.306 98.871 1.701-1.014-.412 1.008zm-.219-.554 1.442-.86-.35.855zm.002-.518 1.14-.68-.276.676z"/><path fill-rule="evenodd" d="m114.868 97.508 1.097-.654-.266.65z"/><path fill-rule="evenodd" d="m114.796 97.167.88-.524-.213.521zm-.113-.286.745-.445-.18.442zm.001-.268.59-.352-.143.35z"/><path id="f" fill-rule="evenodd" d="m121.872 124.89 14.886-8.879-3.608 8.827-11.278.051z"/><path id="g" fill-rule="evenodd" d="m121.44 120.158 11.596-6.917-2.81 6.876-8.787.04z"/><path id="h" fill-rule="evenodd" d="m119.275 116.503 11.275-6.724-2.733 6.685z"/><path id="i" fill-rule="evenodd" d="m118.843 113.04 9.197-5.484-2.23 5.453-6.967.032z"/><path id="j" fill-rule="evenodd" d="m118.237 110.184 7.379-4.4-1.789 4.375z"/><path id="k" fill-rule="evenodd" d="m117.285 107.782 6.254-3.73-1.516 3.708z"/><path id="l" fill-rule="evenodd" d="m117.292 105.531 4.948-2.95-1.199 2.933z"/><path id="m" fill-rule="evenodd" d="m116.635 103.858 4.48-2.672-1.086 2.656z"/><path id="n" fill-rule="evenodd" d="m116.34 102.466 3.595-2.143-.872 2.131z"/><path id="o" fill-rule="evenodd" d="m115.877 101.296 3.046-1.816-.739 1.806z"/><path id="p" fill-rule="evenodd" d="m115.88 100.2 2.41-1.437-.584 1.429z"/><path id="q" fill-rule="evenodd" d="m115.446 99.53 2.12-1.265-.514 1.257z"/><path id="r" fill-rule="evenodd" d="m115.306 98.871 1.701-1.014-.412 1.008z"/><path fill-rule="evenodd" d="m115.087 98.317 1.442-.86-.35.855z"/><path id="s" fill-rule="evenodd" d="m115.089 97.799 1.14-.68-.276.676z"/><path id="t" fill-rule="evenodd" d="m114.868 97.508 1.097-.654-.266.65z"/><path id="u" fill-rule="evenodd" d="m114.796 97.167.88-.524-.213.521z"/><path id="v" fill-rule="evenodd" d="m114.683 96.881.745-.445-.18.442z"/><path id="w" fill-rule="evenodd" d="m114.684 96.613.59-.352-.143.35z"/><use xlink:href="#f" width="900" height="600"/><use xlink:href="#g" width="900" height="600"/><use xlink:href="#h" width="900" height="600"/><use xlink:href="#i" width="900" height="600"/><use xlink:href="#j" width="900" height="600"/><use xlink:href="#k" width="900" height="600"/><use xlink:href="#l" width="900" height="600"/><use xlink:href="#m" width="900" height="600"/><use xlink:href="#n" width="900" height="600"/><use xlink:href="#o" width="900" height="600"/><use xlink:href="#p" width="900" height="600"/><use xlink:href="#q" width="900" height="600"/><use xlink:href="#r" width="900" height="600"/><use xlink:href="#s" width="900" height="600"/><use xlink:href="#t" width="900" height="600"/><use xlink:href="#u" width="900" height="600"/><use xlink:href="#v" width="900" height="600"/><use xlink:href="#w" width="900" height="600"/></g><use xlink:href="#x" id="y" width="900" height="600" stroke-width=".835" transform="rotate(-60 298.81 113.22)"/><use xlink:href="#y" id="z" width="900" height="600" stroke-width=".835" transform="rotate(-60 298.622 114.868)"/><use xlink:href="#z" id="A" width="900" height="600" stroke-width=".835" transform="rotate(-60 299.215 111.613)"/><use xlink:href="#A" id="B" width="900" height="600" stroke-width=".835" transform="rotate(-60 300.794 113.969)"/><use xlink:href="#B" width="900" height="600" stroke-width=".835" transform="rotate(-60 300.503 113.489)"/><path fill="#fff" fill-rule="evenodd" stroke="#000" stroke-width=".5" d="M300.487 111.119c-3.576-1.786-8.276-2.673-12.137-.375-.426 1.78-.396 6.01 0 8.386 5.268-4.735 8.292-3.238 11.388-1.218 6.545 3.64 7.69 3.478 11.21 2.244-.293-1.713.687-3.772.228-7.13-1.778.956-3.645 1.548-10.69-1.907z"/><path d="m291.245 113.457.822.622q.341.257.48.308a.5.5 0 0 0 .311.002l.024.07-1.085.374-.023-.07a.5.5 0 0 0 .152-.077.16.16 0 0 0 .047-.073.13.13 0 0 0 0-.079.3.3 0 0 0-.046-.08 2 2 0 0 0-.159-.129l-.652-.5-.296.861a1 1 0 0 0-.05.18.2.2 0 0 0 .009.08q.02.06.084.082.065.021.207-.022l.024.07-.896.309-.024-.07a.6.6 0 0 0 .15-.095 1 1 0 0 0 .175-.206q.077-.119.152-.334l.337-.96-.75-.556q-.305-.226-.479-.27a.66.66 0 0 0-.36.015l-.023-.07 1.168-.402.024.068q-.147.058-.187.12t-.023.113q.024.07.16.17l.587.447.253-.724q.044-.128.049-.17a.2.2 0 0 0-.01-.083.12.12 0 0 0-.046-.062.16.16 0 0 0-.09-.03.7.7 0 0 0-.183.043l-.023-.069.896-.31.024.07a.56.56 0 0 0-.306.272q-.06.102-.145.35zm2.891.664.015.072-1.123.226-.015-.072.093-.018q.162-.033.217-.143.033-.071-.014-.307l-.34-1.693a.9.9 0 0 0-.078-.258.18.18 0 0 0-.096-.067.4.4 0 0 0-.188-.01l-.092.018-.015-.071 1.123-.226.015.071-.095.02q-.16.03-.215.141-.036.072.012.307l.34 1.694a.9.9 0 0 0 .079.258q.029.045.097.066.093.03.186.011zm3.826.415-.703-.126-.67-1.39-.162-.025-.054-.01-.06-.015-.137.765q-.045.249 0 .319.058.098.206.125l.103.018-.013.072-1.128-.202.013-.072.099.018q.167.03.258-.066.051-.053.092-.278l.304-1.7q.045-.249 0-.319-.06-.099-.21-.126l-.098-.017.013-.072.959.171q.42.076.607.172.188.097.297.286a.6.6 0 0 1 .07.416.62.62 0 0 1-.234.393q-.19.15-.536.164l.409.853q.14.293.258.402.12.11.33.172zm-1.627-1.688.064.013.044.009q.377.067.597-.062a.53.53 0 0 0 .266-.381.55.55 0 0 0-.083-.428.56.56 0 0 0-.38-.228 2 2 0 0 0-.312-.018zm3.31-.298-.392.982.546.217q.212.085.309.05.128-.046.225-.255l.067.027-.345.865-.067-.027a1 1 0 0 0 .041-.253.25.25 0 0 0-.068-.144.6.6 0 0 0-.216-.129l-.545-.218-.327.819a.8.8 0 0 0-.066.206q0 .042.029.078a.34.34 0 0 0 .13.076l.422.168q.21.084.317.093a.5.5 0 0 0 .23-.042q.159-.069.369-.25l.073.03-.463.536-1.913-.763.027-.068.088.035a.4.4 0 0 0 .183.024.17.17 0 0 0 .115-.056 1 1 0 0 0 .117-.231l.644-1.614q.094-.235.068-.31-.036-.1-.19-.161l-.088-.035.027-.068 1.914.764-.19.555-.071-.029a1 1 0 0 0 .022-.303.3.3 0 0 0-.094-.167.9.9 0 0 0-.247-.13zm4.053 1.718-.339.776-.06-.033q.057-.327-.013-.546a.85.85 0 0 0-.431-.494q-.45-.242-.876-.012-.358.195-.58.61a1.6 1.6 0 0 0-.202.684q-.019.349.122.591a.93.93 0 0 0 .364.363 1.1 1.1 0 0 0 .556.131l.367-.68q.095-.177.097-.247a.2.2 0 0 0-.038-.128.55.55 0 0 0-.183-.136l.035-.066.912.491-.036.066-.043-.023q-.135-.073-.235-.01-.07.045-.17.234l-.389.721q-.257 0-.479-.054a2 2 0 0 1-.46-.183q-.681-.366-.8-.995a1.33 1.33 0 0 1 .142-.9 1.4 1.4 0 0 1 .47-.515q.358-.243.766-.26a1.35 1.35 0 0 1 .692.178q.129.07.223.147.093.078.248.252.078.09.11.107a.08.08 0 0 0 .073 0q.04-.018.093-.104zm.172 3.24-.038.062-.979-.596.038-.063.081.05q.142.085.256.042.073-.03.198-.234l.899-1.476a.9.9 0 0 0 .117-.242.17.17 0 0 0-.024-.115.4.4 0 0 0-.13-.134l-.082-.05.038-.062.979.596-.038.062-.083-.05q-.139-.085-.254-.042-.075.03-.2.234l-.898 1.475a.9.9 0 0 0-.118.243.18.18 0 0 0 .027.115.36.36 0 0 0 .129.134l.082.05zm2.612-1.569q.459.244.612.772.152.527-.124 1.05-.284.54-.813.715a1.24 1.24 0 0 1-1.01-.08 1.23 1.23 0 0 1-.637-.78q-.15-.523.143-1.074.297-.563.869-.715.495-.133.96.112m-.1.11a.7.7 0 0 0-.634-.034q-.394.167-.693.731-.306.58-.223 1.022a.7.7 0 0 0 .376.503.78.78 0 0 0 .688.03q.354-.144.65-.704.321-.606.24-1.03a.73.73 0 0 0-.405-.518zm.841-.634-.832.33-.06-.032.502-.505zm-.299 1.11.712.142 1.21 2.287.302-1.512q.048-.241.006-.313-.055-.095-.21-.126l-.09-.018.013-.072.913.183-.014.071-.093-.018q-.166-.033-.256.053-.055.054-.1.274l-.441 2.21-.07-.014-1.306-2.457-.323 1.614q-.048.241-.008.312.057.096.21.127l.093.018-.015.072-.912-.183.014-.071.091.018q.168.034.258-.053.055-.054.099-.274l.365-1.823a1.2 1.2 0 0 0-.138-.21.7.7 0 0 0-.157-.115.6.6 0 0 0-.167-.051l.014-.072z" font-size="10.114"/></svg>