<svg xmlns="http://www.w3.org/2000/svg" width="900" height="600" viewBox="0 0 300 331"><path fill="#fff" d="M-98.25 0h496.5v331h-496.5z"/><path fill="#fff" d="M94.833 83.713v103.512c16.308 1.433 32.39 6.786 48.86 6.821a73 73 0 0 0 3.298-.063l.3.063h57.876V83.713H94.834z"/><path fill="#a5ff42" d="M153 141.889h52.158v52.157h-52.157z"/><path fill="#fff" d="M204.93 173.257c-.607-.464-1.75-.705-2.668-.848-6.176-.85-9.655-2.924-14.644-3.882-5.13-.952-10.351-1.49-15.552-1.925-2.785-1.643-3.16-2.176-4.057-5.14-1.808-3.962-2.027-7.951-4.097-11.798.291-.246.666-1.077.957-1.323-.39.206-1.178.627-1.574.833.17-.903-.146-1.54-.938-1.896.999 1.635-1.29 2.73-3.065 3.616-.271 2.84.298 2.24 2.824 2.317 2.41 7.453 2.345 15.86 7.392 22.242-1.087 3.963-2.685 3.708-2.728 7.86.482-.041.968-.081 1.45-.116q.119-.857.245-1.705c1.104-1.546.914-3.208 2.894-3.3-.447 3.485-.573 5.89 1.36 8.927.822-2.562-1.511-7.606 1.298-7.744 4.668 2.384 10.081 1.403 15.15 1.38 2.089.757 3.622 2.151 4.406 4.218.394 1.239-.27 2.49-.21 3.778.105.01.925.163 1.026.173-.143-1.537.664-2.586 1.148-4.127a190 190 0 0 1 2.417-.166c-.015 1.84-.07 3.681-.06 5.527.657.637 1.32 1.269 1.976 1.905 0-1.69-.02-3.38.07-5.07.863-2.056 1.816-4.092 2.403-6.249.915-3.463-1.117-7.25 2.577-7.487"/><path fill="#fede3c" d="M94.833 141.889v45.333c17.395 1.529 34.53 7.52 52.158 6.757v-52.09z"/><path fill="#fff" d="M149.667 153.158a7.075 7.075 0 1 1-14.149 0 7.075 7.075 0 1 1 14.15 0z"/><path fill="#0071bc" d="M146.99 172.118c-17.496.208-34.981 2.415-52.157 5.742v5.239c16.758 1.093 34.98 7.611 52.158 6.686v-17.667z"/><path fill="#f60" d="M119.3 149.364c-8.2.95-16.218 2.793-24.467 3.488v18.246c13.09.127 26.118.84 39.188-.227-.56-.876-1.24-1.707-1.587-2.694-.428-2.106-.229-4.312-.793-6.397-.615-2.735-3.035-4.49-4.193-6.964-1.018-1.763-1.605-4.2-3.74-4.936-1.463-.417-2.932-.548-4.408-.516"/><path fill="#4093f5" d="M199.576 90.766c-1.85.032-3.699.662-5.125 1.84-2.252 1.828-4.514 3.68-7.077 5.05a14.25 14.25 0 0 1-6.032 1.146c-2.367-.136-3.654-2.398-5.251-3.829-3.012.015-6.05-.252-9.041.076-3.52 4.426-8.78 7.75-14.04 9.824v5.706c.028 3.839.01 7.685 0 11.525v5.189c.014 2.861.06 5.718.163 8.577h11.421c.134-.015.27-.02.403-.037 2.61-.665 5.178-1.504 7.782-2.18 5.42-1.798 11.316-.367 16.71-2.342 5.292-2.013 10.392-4.507 15.678-6.55V93.084c-.99-.735-1.998-1.44-3.098-1.99a8.5 8.5 0 0 0-2.493-.328"/><path fill="#fede3c" d="M153.01 83.713v17.256c5.52-.882 8.981-5.794 13.07-9.132 3.465.116 6.916-.627 10.376-.29 2.045.62 3.551 2.272 5.34 3.376 1.964.08 4.07.038 5.716-1.197 2.76-1.98 5.33-4.28 8.412-5.781 2-.474 4.095-.811 6.145-.428 1.15.25 2.149.826 3.098 1.499v-5.303z"/><path fill="#0071bc" d="M205.167 124.761c-5.286 2.043-10.386 4.537-15.678 6.55-5.394 1.975-11.29.544-16.71 2.343-2.604.675-5.173 1.514-7.782 2.179.105.015.21.024.315.037h39.855z"/><path fill="#f60" d="M94.833 83.713h51.93v51.93h-51.93z"/><path fill="#fff" fill-rule="evenodd" d="m119.098 87.875-1.567.363.501 2.107-2.043.476.363 1.567 2.044-.489.715 2.997c-1.268.6-1.994 1.91-1.668 3.16.113.43.348.8.652 1.103l-3.147 4.513c-2.316 2.152-4.843 4.28-4.689 5.103.163.872.659 3.544 1.88 3.548l.728 4.59-3.084 4.525 3.66-.877 2.659 16.788 3.573-.05-4.84-27.446 6.608-9.641 10.617 4.025 12.124 32.636 4.087-.038-9.04-23.546 3.26-.577-4.601-2.921-1.919-5.003c.856-.783-.25-3.129-.614-3.912-.327-.7-3.163-.988-6.068-1.341l-5.903-1.931a2.4 2.4 0 0 0-.025-1.09c-.3-1.15-1.407-1.906-2.67-1.944l-.728-3.034 2.044-.49-.364-1.554-2.043.476z"/><path d="M57.086 224.063h4.945l-2.424-6.177zm-3.627 5.915 6.235-14.76 5.974 14.76h-1.406l-1.814-4.81H56.65l-1.881 4.81zm15.099-13.072v5.246h1.299q1.803 0 2.516-.577t.713-1.963q0-1.464-.737-2.085-.737-.62-2.492-.62h-1.3zm7.33 13.072h-1.57l-4.985-6.769h-.775v6.77h-1.29V215.78h2.608q2.308 0 3.457.96t1.15 2.91q0 1.658-.985 2.608t-2.71.95zm1.853 0v-14.197h1.29v14.197zm16.252-11.598q-1.056-.912-2.162-1.348a6.3 6.3 0 0 0-2.327-.436q-2.754 0-4.476 1.745-1.72 1.746-1.72 4.548 0 1.406.42 2.531.422 1.125 1.286 1.998a5.8 5.8 0 0 0 1.954 1.3 6.2 6.2 0 0 0 2.361.446q1.222 0 2.386-.417a7.8 7.8 0 0 0 2.2-1.232v1.513a9.2 9.2 0 0 1-2.215.984q-1.169.344-2.313.344a8 8 0 0 1-2.948-.552 7.05 7.05 0 0 1-2.414-1.552 6.85 6.85 0 0 1-1.571-2.386q-.534-1.357-.534-2.977 0-1.59.548-2.967a6.75 6.75 0 0 1 1.576-2.376q1-.979 2.41-1.532a8 8 0 0 1 2.933-.553q1.358 0 2.517.374a6.7 6.7 0 0 1 2.109 1.12zm4.48 5.683h4.946l-2.424-6.177zm-3.626 5.915 6.235-14.76 5.974 14.76h-1.406l-1.814-4.81h-5.799l-1.881 4.81h-1.31zm22.594 0v-6.536l-4.712-7.66h1.551l3.811 6.506 3.83-6.507h1.475l-4.665 7.661v6.536zm13.557 0v-14.197h2.59q1.53 0 2.254.165.722.165 1.256.543.67.485 1.037 1.329.369.843.369 1.871 0 2.026-1.135 2.973-1.134.945-3.588.945h-1.493v6.371zm1.29-7.506h.882q2.347 0 3.157-.596t.81-2.09a3.5 3.5 0 0 0-.185-1.159 2.8 2.8 0 0 0-.552-.945q-.379-.426-1.028-.601-.65-.175-2.202-.175h-.882zm10.328 1.59h4.945l-2.424-6.176zm-3.627 5.916 6.235-14.76 5.974 14.76h-1.406l-1.814-4.81h-5.799l-1.881 4.81h-1.31zm15.098-13.072v5.246h1.3q1.803 0 2.516-.577.713-.576.713-1.963 0-1.464-.737-2.085-.737-.62-2.492-.62zm7.332 13.072h-1.571l-4.985-6.769h-.776v6.77h-1.29V215.78h2.61q2.307 0 3.456.96t1.15 2.91q0 1.658-.985 2.608-.984.95-2.71.95l5.1 6.77zm1.852 0v-14.197h1.29v14.197zm4.848 0V215.18l10.056 11.88v-11.28h1.203v14.614l-10.047-11.898v11.481h-1.212zm16.505-5.915h4.946l-2.425-6.177zm-3.627 5.915 6.236-14.76 5.973 14.76H191.8l-1.813-4.81h-5.8l-1.88 4.81zm25.213-11.598q-1.056-.912-2.162-1.348a6.3 6.3 0 0 0-2.328-.436q-2.754 0-4.475 1.745t-1.721 4.548q0 1.406.422 2.531.421 1.125 1.285 1.998a5.8 5.8 0 0 0 1.954 1.3q1.1.446 2.36.446 1.222 0 2.386-.417a7.8 7.8 0 0 0 2.202-1.232v1.513a9.2 9.2 0 0 1-2.216.984q-1.17.344-2.313.344a8 8 0 0 1-2.948-.552 7.05 7.05 0 0 1-2.415-1.552 6.85 6.85 0 0 1-1.57-2.386q-.534-1.357-.534-2.977 0-1.59.548-2.967.547-1.377 1.576-2.376.999-.979 2.41-1.532a8 8 0 0 1 2.933-.553q1.358 0 2.516.374a6.7 6.7 0 0 1 2.11 1.12zm9.707 10.822q1.26 0 2.386-.465a6.3 6.3 0 0 0 2.026-1.358 6.35 6.35 0 0 0 1.824-4.47q0-1.28-.466-2.42a6.3 6.3 0 0 0-1.358-2.05 6.05 6.05 0 0 0-2.012-1.358 6.2 6.2 0 0 0-2.4-.466q-1.26 0-2.376.466a6.3 6.3 0 0 0-2.017 1.357 6.5 6.5 0 0 0-1.357 2.051 6.3 6.3 0 0 0-.466 2.42q0 1.28.466 2.42a6.3 6.3 0 0 0 1.357 2.05 6.1 6.1 0 0 0 1.998 1.363q1.105.46 2.395.46m7.603-6.293q0 1.503-.572 2.856a7.4 7.4 0 0 1-1.649 2.41 7.6 7.6 0 0 1-2.473 1.624 7.7 7.7 0 0 1-2.909.557 7.53 7.53 0 0 1-5.363-2.182 7.5 7.5 0 0 1-1.653-2.419 7.2 7.2 0 0 1-.567-2.846q0-1.523.567-2.875a7.5 7.5 0 0 1 1.654-2.43 7.2 7.2 0 0 1 2.434-1.6 7.9 7.9 0 0 1 2.928-.543 7.9 7.9 0 0 1 2.943.548 7.3 7.3 0 0 1 2.44 1.595 7.5 7.5 0 0 1 1.653 2.43 7.4 7.4 0 0 1 .567 2.875m5.382 7.07v-12.986h-3.908v-1.212h9.115v1.212h-3.917v12.985h-1.29zm9.057-5.916h4.946l-2.425-6.177zm-3.627 5.915 6.236-14.76 5.973 14.76h-1.406l-1.813-4.81h-5.8l-1.88 4.81z" font-family="Futura Lt BT" font-size="19.86" font-weight="400" style="text-align:start;line-height:125%;-inkscape-font-specification:Futura Lt BT"/><path d="M61.608 239.998q-.57-.882-1.402-1.337t-1.875-.454q-1.74 0-2.835 1.177c-1.095 1.177-1.094 1.803-1.094 3.052q0 .84.291 1.581.291.742.848 1.318.564.57 1.26.855.699.285 1.53.284 1.575 0 2.563-.927.99-.93 1.014-2.426h-3.231v-.736h4.166v.103q0 2.24-1.223 3.506-1.221 1.267-3.365 1.267-2.13 0-3.45-1.356-1.318-1.357-1.318-3.558 0-1.01.333-1.91t.96-1.565a4.45 4.45 0 0 1 1.532-1.081q.855-.36 1.904-.359 1.427 0 2.445.515a3.6 3.6 0 0 1 1.567 1.514zm11.371 6.502a4.07 4.07 0 0 0 2.912-1.203 4.2 4.2 0 0 0 1.203-2.95 4.2 4.2 0 0 0-.307-1.597 4.2 4.2 0 0 0-.896-1.353 4 4 0 0 0-1.328-.896 4.1 4.1 0 0 0-1.584-.307 4.03 4.03 0 0 0-2.899 1.203 4.3 4.3 0 0 0-.896 1.353 4.2 4.2 0 0 0-.307 1.597 4.2 4.2 0 0 0 .307 1.597q.308.75.896 1.353.59.595 1.318.899a4.1 4.1 0 0 0 1.581.304m5.017-4.153q0 .992-.377 1.884a4.9 4.9 0 0 1-1.088 1.59 5.03 5.03 0 0 1-3.552 1.44 4.97 4.97 0 0 1-3.539-1.44 4.9 4.9 0 0 1-1.09-1.596 4.8 4.8 0 0 1-.375-1.878q0-1.005.374-1.897.375-.894 1.091-1.603a4.8 4.8 0 0 1 1.607-1.056 5.2 5.2 0 0 1 1.932-.359q1.037 0 1.942.362.906.36 1.61 1.053a4.9 4.9 0 0 1 1.09 1.603q.375.892.375 1.897m6.527-.538h1.063q1.17 0 1.654-.384.483-.383.483-1.28 0-.966-.47-1.362-.471-.397-1.667-.397h-1.063zm0 4.467h1.088q.928 0 1.28-.077a1.5 1.5 0 0 0 .595-.262q.3-.23.48-.637.18-.406.18-.867a2.3 2.3 0 0 0-.2-.989 1.4 1.4 0 0 0-.55-.636 1.8 1.8 0 0 0-.572-.202q-.33-.06-1.027-.06h-1.274zm-.85.736v-9.369h1.625q1.068 0 1.542.103.473.102.806.352.468.351.71.86.244.51.244 1.124 0 .748-.39 1.273-.392.525-1.076.691.903.134 1.414.723.513.59.512 1.491 0 .66-.198 1.171a2.3 2.3 0 0 1-.602.883 2.3 2.3 0 0 1-.985.541q-.576.157-1.965.157h-1.638zm11.031 0v-9.369h.852v9.369zm6.988 0v-9.369h4.64v.8h-3.789v2.931h3.789v.8h-3.789v4.038h3.789v.8zm11.372-8.626v3.462h.857q1.19 0 1.66-.381.471-.381.471-1.296 0-.966-.486-1.376-.487-.41-1.645-.41zm4.838 8.626h-1.037l-3.29-4.467h-.511v4.467h-.851v-9.369h1.721q1.523 0 2.281.634.759.633.759 1.92 0 1.094-.65 1.721t-1.788.627zm5.01 0v-9.765l6.636 7.839v-7.443h.794v9.644l-6.63-7.852v7.577zm18.13-.512a4.07 4.07 0 0 0 2.911-1.203 4.2 4.2 0 0 0 1.203-2.95 4.2 4.2 0 0 0-.307-1.597 4.2 4.2 0 0 0-.896-1.353 4 4 0 0 0-1.328-.896 4.1 4.1 0 0 0-1.584-.307 4.03 4.03 0 0 0-2.899 1.203 4.3 4.3 0 0 0-.896 1.353 4.2 4.2 0 0 0-.307 1.597 4.2 4.2 0 0 0 .307 1.597q.308.75.896 1.353a4 4 0 0 0 1.318.899 4.1 4.1 0 0 0 1.581.304zm5.016-4.153q0 .992-.377 1.884a4.9 4.9 0 0 1-1.088 1.59 5.03 5.03 0 0 1-3.552 1.44 4.97 4.97 0 0 1-3.539-1.44 4.9 4.9 0 0 1-1.09-1.596 4.8 4.8 0 0 1-.375-1.878q0-1.005.374-1.897.375-.894 1.091-1.603a4.8 4.8 0 0 1 1.607-1.056 5.2 5.2 0 0 1 1.932-.359q1.037 0 1.942.362.906.36 1.61 1.053a4.9 4.9 0 0 1 1.09 1.603q.375.892.375 1.897m14.104-3.961v3.462h.857q1.19 0 1.661-.381.47-.381.47-1.296 0-.966-.486-1.376t-1.645-.41h-.857zm4.838 8.626h-1.037l-3.29-4.467h-.511v4.467h-.851v-9.369h1.721q1.524 0 2.282.634.758.633.758 1.92 0 1.094-.65 1.721t-1.788.627zm5.01 0v-9.369h4.64v.8h-3.789v2.931h3.789v.8h-3.789v4.038h3.789v.8zm18.2-7.014q-.57-.882-1.402-1.337t-1.875-.454q-1.74 0-2.835 1.177c-1.095 1.177-1.094 1.803-1.094 3.052q0 .84.291 1.581.291.742.848 1.318.564.57 1.26.855.699.285 1.53.284 1.575 0 2.563-.927.99-.93 1.014-2.426h-3.231v-.736h4.166v.103q0 2.24-1.223 3.506-1.221 1.267-3.366 1.267-2.13 0-3.449-1.356t-1.318-3.558q0-1.01.333-1.91t.96-1.565a4.45 4.45 0 0 1 1.532-1.081q.855-.36 1.904-.359 1.426 0 2.445.515a3.6 3.6 0 0 1 1.567 1.514zm6.808 7.014v-9.369h.852v9.369zm11.551-.512a4.07 4.07 0 0 0 2.912-1.203 4.2 4.2 0 0 0 1.203-2.95 4.2 4.2 0 0 0-.307-1.597 4.2 4.2 0 0 0-.896-1.353 4 4 0 0 0-1.328-.896 4.1 4.1 0 0 0-1.584-.307 4.03 4.03 0 0 0-2.899 1.203 4.3 4.3 0 0 0-.896 1.353 4.2 4.2 0 0 0-.307 1.597 4.2 4.2 0 0 0 .307 1.597q.308.75.896 1.353.59.595 1.318.899a4.1 4.1 0 0 0 1.581.304m5.017-4.153q0 .992-.378 1.884a4.9 4.9 0 0 1-1.087 1.59 5.03 5.03 0 0 1-3.552 1.44 4.97 4.97 0 0 1-3.539-1.44 4.9 4.9 0 0 1-1.09-1.596 4.8 4.8 0 0 1-.375-1.878q0-1.005.374-1.897.375-.894 1.091-1.603a4.8 4.8 0 0 1 1.606-1.056 5.2 5.2 0 0 1 1.933-.359q1.037 0 1.942.362.905.36 1.61 1.053a4.9 4.9 0 0 1 1.09 1.603q.375.892.375 1.897m5.676 4.665v-9.765l6.636 7.839v-7.443h.794v9.644l-6.63-7.852v7.577zm14.68-3.904h3.263l-1.6-4.076zm-2.393 3.904 4.114-9.74 3.942 9.74h-.928l-1.196-3.174h-3.827l-1.242 3.174zm12.9 0v-9.369h.851v8.569h3.213v.8z" font-family="Futura Lt BT" font-size="13.106" font-weight="400" style="text-align:start;line-height:125%;-inkscape-font-specification:Futura Lt BT"/></svg>