<svg xmlns="http://www.w3.org/2000/svg" width="600" height="400"><path fill="#fff" d="M0 0h600v400H0z"/><path fill="#faa" d="m395 224.583-95 54.848-95-54.848V114.886l95-54.848 95 54.848z"/><path fill="#da121a" d="M205 167.734v29.438l23.75-6.875 11.875 54.844 11.875 6.875 47.5-84.282h95v-27.437H286.934l-32.749 58.297-7.363-42.938z"/><path fill="#fff" d="m300 60.047-35.094 20.25-.875 1.75 8.531-2.219-2.343 9.031 7.875-3.937-.438 9.344 6.906-5.532 1.5 9.25 5.594-6.843 3.406 8.718 4.063-7.843 5.125 7.812 2.344-8.5 6.656 6.563.5-8.813 7.906 5.063-1.344-8.75 8.75 3.312-3.125-8.25 9.25 1.406-1.53-2.375z"/><path fill="#078930" d="m300 169.734-47.5 82.282 11.875 6.843 2.969 1.72 44.531-77.126H395v-13.719z"/><path fill="#fcdd09" d="m311.875 183.453-44.531 77.125L300 279.422l95-54.844v-41.125zm-83.125 6.844L205 197.172v27.406l35.625 20.563z"/><path fill="#fff" stroke="#000" stroke-linecap="round" d="m205.5 169.234 39.719-11.03 7 40.718.937 5.562 2.781-4.906 32.157-57.281H394.5v23.437h-95.656l-.563 1-47.875 83.5-10.25-5.906-4.469-2.594-30.187-17.437zM300 54.828l-1.25.719-97 56-1.25.75v114.875l1.25.719 34.875 20.125v.312l1 .563 11.875 6.843 1.719 1 .125-.218 47.406 27.375 1.25.75 1.25-.75 97-56 1.25-.72V112.298l-1.25-.75-97-56zm0 5.781 94.5 54.563v23.125H285.75l-.563 1.031-30 53.375-6.406-37.375-.375-2.219-2.125.625-40.781 11.782v-50.344zm1.156 109.125H394.5v54.563L300 278.859l-46.156-26.656z"/><g fill="#fff"><path d="m261.676 112.211-4.5 12.977 6.488 2.25z"/><path d="m261.676 112.211 3.987 13.143-6.572 1.994z"/><path d="m274.55 121.956-13.732-.27-.135 6.866z"/><path d="m274.55 121.956-11.268 7.853-3.927-5.634z"/><path d="m248.43 121.443 10.95 8.29 4.146-5.476z"/><path d="m248.43 121.443 13.732.27-.135 6.866z"/><path d="m269.26 137.211-3.987-13.143-6.572 1.993 10.558 11.15z"/><path d="m269.26 137.211-10.951-8.29 4.145-5.475 6.805 13.765z"/><path d="m253.117 136.894 11.268-7.853-3.927-5.634z"/><path d="m253.117 136.894 4.5-12.977 6.488 2.25z"/></g><g fill="#fff" stroke="#000" stroke-width=".5"><path d="m321.218 208.28-1.036 6.526-2.41-6.162.337 6.61-3.613-5.546 1.708 6.387-4.678-4.65 2.97 5.882-5.547-3.585 4.146 5.154-6.162-2.353 5.126 4.173-6.555-1.036 5.882 3.025-6.582.364 6.386 1.737-6.386 1.709 6.582.364-5.882 3.025 6.555-1.036-5.126 4.173 6.162-2.353-4.146 5.154 5.547-3.585-2.97 5.882 4.678-4.65-1.708 6.387 3.613-5.546-.336 6.61 2.409-6.162 1.036 6.526 1.037-6.526 2.409 6.162-.337-6.61 3.614 5.546-1.709-6.387 4.678 4.65-2.97-5.882 5.547 3.585-4.146-5.154 6.163 2.353-5.126-4.173 6.526 1.036-5.854-3.025 6.583-.364-6.387-1.709 6.387-1.737-6.583-.364 5.854-3.025-6.526 1.036 5.126-4.173-6.163 2.353 4.146-5.154-5.546 3.585 2.97-5.882-4.679 4.65 1.709-6.387-3.614 5.546.337-6.61-2.41 6.162zm0 8.823c4.244 0 7.675 3.46 7.675 7.703a7.67 7.67 0 0 1-7.675 7.675 7.67 7.67 0 0 1-7.675-7.675c0-4.244 3.432-7.703 7.675-7.703z"/><path d="M350.651 217.215c-5.763 0-10.507 1.238-11.092 6.443h-15.35v2.24h15.35c.585 5.209 5.329 6.471 11.092 6.471v-3.11c-4.45 0-8.067-.03-8.067-4.481s3.617-4.482 8.067-4.482z"/><path d="M353.06 216.187c-1.692.107-2.969.586-2.969 1.148v3.305c0 .643 1.644 1.149 3.697 1.149h11.905c2.053 0 3.726-.506 3.726-1.149v-3.305c0-.643-1.673-1.148-3.726-1.148h-11.905c-.256 0-.486-.016-.728 0zm10.565.952h3.385c.492 0 .896.412.896.924v1.849c0 .512-.404.924-.896.924h-3.385c-.492 0-.868-.412-.868-.924v-1.849c0-.512.376-.924.868-.924zm-10.565 10.663c-1.692.108-2.969.586-2.969 1.149v3.305c0 .643 1.644 1.148 3.697 1.148h11.905c2.053 0 3.726-.505 3.726-1.148v-3.305c0-.643-1.673-1.149-3.726-1.149h-11.905c-.256 0-.486-.015-.728 0zm10.565.953h3.385a.91.91 0 0 1 .896.924v1.849c0 .512-.404.924-.896.924h-3.385c-.492 0-.868-.412-.868-.924v-1.85c0-.512.376-.923.868-.923zm-42.413-7.338c-1.863 0-3.362 1.526-3.362 3.389a3.353 3.353 0 0 0 3.362 3.361c1.863 0 3.389-1.498 3.389-3.361a3.4 3.4 0 0 0-3.39-3.39zm-.224 2.269c.073-.015.146 0 .224 0 .62 0 1.12.499 1.12 1.12s-.5 1.12-1.12 1.12-1.12-.499-1.12-1.12c0-.543.383-1.015.896-1.12z"/></g><path d="M177.867 322.917v-.738q1.02-.089 1.17-.167a.3.3 0 0 0 .14-.167q.088-.212.123-1.424.045-1.88.044-2.962 0-1.46-.035-3.71-.036-1.677-.167-2.056a.3.3 0 0 0-.141-.175q-.141-.09-1.134-.194v-.738q1.82.07 2.347.07l4.403-.079q1.433 0 2.088.277.654.277 1.037.888.382.61.382 1.437 0 1.055-.61 1.85-.612.795-2.123 1.41l1.872 2.822 1.459 2.162q.412.527.615.637.202.11.66.119v.676l-.52.01q-2.232.016-2.873.052-.765-1.222-2.286-3.542l-1.81-2.751q.079-.15.132-.316.351.044.518.044.817 0 1.609-.66.79-.66.79-1.88 0-1.064-.623-1.653-.624-.589-1.872-.589-.396 0-1.073.062l-.061 2.593-.08 3.287q0 1.116.089 2.856.07 1.31.14 1.468.053.114.194.184.184.105 1.195.159v.738a73 73 0 0 0-2.804-.062q-1.3 0-2.795.062m13.588 0v-.475q.466-.21.853-.492.175-1.371.175-5.765 0-2.998-.061-3.973-.027-.519-.18-.655-.155-.135-1.305-.233v-.738q2.073.08 3.278.079l4.843-.053q.765 0 1.38.062l.061.096q-.194.96-.281 2.55h-.695q-.044-1.284-.1-1.372-.058-.087-.4-.167-.73-.158-2.233-.158-.738 0-1.723.062-.114 2.715-.131 4.324a27 27 0 0 0 1.766.061q1.222 0 1.468-.079.15-.053.21-.255.054-.157.124-1.107h.756q-.044 1.486-.044 1.933l.044 1.978h-.756q-.062-1.152-.158-1.327-.053-.105-.238-.15-.44-.096-1.977-.096-.483 0-1.134.052-.018.466-.018.95 0 2.513.088 3.867l1.74.026q1.485 0 2.716-.158.22-.808.422-1.837h.73a28 28 0 0 0-.238 2.97 14 14 0 0 1-1.538.089q-.483 0-1.907-.035a82 82 0 0 0-5.537.026m18.571-4.333v-.712q1.6.035 2.857.035 1.16 0 2.505-.035v.563a6 6 0 0 0-.739.29 13 13 0 0 0-.105 1.511q0 .448.105 1.776-1.74.632-2.913.857t-2.43.224q-3.393 0-5.313-1.762t-1.92-4.566q0-2.883 1.96-4.615 1.959-1.731 5.624-1.731 1.293 0 2.479.202t2.259.615l.079.132q-.255 1.116-.378 2.777h-.739a10 10 0 0 0-.114-1.476 3.44 3.44 0 0 0-1.446-.976q-.883-.325-2.087-.325-2.259 0-3.6 1.371-1.34 1.371-1.34 3.753 0 2.54 1.411 4.091t3.476 1.552q1.1 0 2.338-.536.07-.678.07-1.284 0-1.353-.158-1.494t-1.88-.237zm6.865 4.333v-.738q1.212-.062 1.37-.202t.194-.695q.062-1.16.062-4.324 0-1.213-.036-3.516-.017-1.572-.07-1.727a.38.38 0 0 0-.184-.224q-.195-.096-1.336-.167v-.738q1.81.07 2.768.07 1.653 0 2.988-.07v.738q-1.194.07-1.349.19-.153.117-.197.548-.08.844-.08 3.42 0 3.428.027 4.776.026 1.35.158 1.604.053.114.224.18t1.217.137v.738l-1.037-.026a50 50 0 0 0-1.757-.036zm13.755.176q-3.244 0-4.966-1.666-1.723-1.665-1.723-4.583 0-2.04.835-3.468a5.6 5.6 0 0 1 2.316-2.192q1.48-.765 3.81-.765 2.241 0 3.665.734t2.193 2.039.769 3.203q0 2.058-.844 3.556a5.83 5.83 0 0 1-2.377 2.32q-1.534.822-3.678.822m.333-.958q1.767 0 2.817-1.305t1.05-3.969q0-2.795-1.203-4.289-.976-1.204-3.006-1.204-1.899 0-2.94 1.257-1.042 1.257-1.042 3.867 0 1.881.572 3.186.57 1.305 1.454 1.881.883.576 2.298.576m-1.502-12.402h-.87l2.039-1.968q.72-.695.97-.84a1.03 1.03 0 0 1 .524-.145.75.75 0 0 1 .54.198.66.66 0 0 1 .207.497.64.64 0 0 1-.172.448q-.171.185-1.076.659zm9.386 13.184v-.738q1.072-.045 1.257-.141a.43.43 0 0 0 .185-.228q.096-.211.123-1.486.052-2.11.052-3.181l-.017-3.718q0-1.477-.097-1.705a.36.36 0 0 0-.167-.194q-.175-.105-1.336-.202v-.738a69 69 0 0 0 2.057.044q.738 0 1.679-.044a199 199 0 0 0 4.57 5.607 86 86 0 0 0 2.927 3.34v-3.48a95 95 0 0 0-.053-3.41q-.035-.853-.14-1.046a.3.3 0 0 0-.194-.15q-.141-.044-1.23-.123v-.738q.957.044 1.907.044 1.3 0 2.355-.044v.738q-.984.062-1.186.14a.5.5 0 0 0-.185.124.5.5 0 0 0-.105.202q-.062.21-.07 1.353l-.027 3.516-.018 3.542q0 1.425.062 2.848l-.114.123a43 43 0 0 0-1.503-.255 264 264 0 0 1-5.458-6.293 82 82 0 0 1-2.61-3.226v3.42q0 1.396.043 3.366.027 1.45.123 1.67a.27.27 0 0 0 .132.149q.167.096 1.266.176v.738a54 54 0 0 0-2.04-.062q-.51 0-2.188.062m20.162 0v-.448q.607-.352.862-.528.123-1.546.123-5.792 0-1.836-.04-3.071t-.118-1.411a.25.25 0 0 0-.115-.132q-.131-.07-1.292-.21v-.748q1.328.044 3.05.044l4.333-.044q2.364 0 3.59.598 1.227.598 1.947 1.828t.72 2.988q0 2.259-1.124 3.894t-2.742 2.329a8.7 8.7 0 0 1-3.454.694l-3.331-.053q-.8 0-2.409.062m3.56-1.081a9 9 0 0 0 1.512.123q1.959 0 2.988-.563t1.665-1.84q.638-1.279.638-3.143 0-2.452-1.266-3.735-1.116-1.143-3.647-1.143-.546 0-1.89.088l-.07 5.484q0 3.463.07 4.729m11.417 1.08v-.474q.466-.21.852-.492.176-1.371.176-5.765 0-2.998-.061-3.973-.027-.519-.18-.655-.154-.135-1.306-.233v-.738q2.074.08 3.279.079l4.842-.053q.765 0 1.38.062l.062.096q-.194.96-.281 2.55h-.695q-.044-1.284-.1-1.372-.058-.087-.4-.167-.73-.158-2.233-.158-.738 0-1.723.062-.114 2.715-.132 4.324.94.06 1.767.061 1.221 0 1.468-.079.15-.053.21-.255.054-.157.124-1.107h.756a85 85 0 0 0-.044 1.933l.044 1.978h-.756q-.062-1.152-.158-1.327-.054-.105-.238-.15-.44-.096-1.977-.096-.484 0-1.134.052-.018.466-.018.95 0 2.513.088 3.867l1.74.026q1.486 0 2.716-.158.22-.808.422-1.837h.73a28 28 0 0 0-.238 2.97 14 14 0 0 1-1.538.089q-.483 0-1.907-.035a82 82 0 0 0-5.537.026zm10.986 0v-.456q.484-.228.914-.536.115-2.382.115-4.966 0-2.03-.044-3.832-.027-1.284-.123-1.477a.3.3 0 0 0-.18-.171q-.137-.058-1.28-.154v-.738q1.697.044 3.147.044 1.406 0 2.663-.044v.738q-1.212.08-1.397.211-.114.08-.163.32-.048.243-.075 2.844l-.052 4.28q0 1.205.061 2.787 1.152.06 1.705.061 1.662 0 2.795-.255.23-.8.448-1.907h.774a44 44 0 0 0-.343 3.12q-.836.123-1.538.123l-3.182-.035-1.423-.018a64 64 0 0 0-2.822.062zm15.504 0v-.456q.483-.228.914-.536.115-2.382.115-4.966 0-2.03-.044-3.832-.027-1.284-.123-1.477a.3.3 0 0 0-.18-.171q-.137-.058-1.28-.154v-.738q1.697.044 3.147.044 1.406 0 2.663-.044v.738q-1.212.08-1.397.211-.115.08-.163.32-.048.243-.075 2.844l-.052 4.28q0 1.205.061 2.787 1.152.06 1.705.061 1.662 0 2.795-.255a24 24 0 0 0 .448-1.907h.774a44 44 0 0 0-.343 3.12q-.836.123-1.538.123l-3.182-.035-1.424-.018a64 64 0 0 0-2.82.062zm10.442 0v-.737q1.212-.062 1.37-.202t.194-.695q.062-1.16.062-4.324 0-1.213-.036-3.516-.017-1.572-.07-1.727a.38.38 0 0 0-.184-.224q-.195-.096-1.336-.167v-.738q1.81.07 2.768.07 1.653 0 2.988-.07v.738q-1.194.07-1.349.19-.153.117-.197.548-.08.844-.08 3.42 0 3.428.027 4.776.026 1.35.158 1.604.053.114.224.18t1.217.137v.738l-1.037-.026a50 50 0 0 0-1.757-.036zm7.716 0v-.412q.502-.3.765-.545.106-1.214.106-5.361 0-3.006-.088-4.254-.045-.677-.185-.791-.193-.177-1.336-.229v-.738l1.688.035 1.292.026q.588 0 1.74-.044a46 46 0 0 1 1.6-.043q1.95 0 2.794.654.844.655.844 1.789 0 1.17-.835 1.907t-2.355 1.055v.07q1.564.159 2.197.475t1.02.984.386 1.52q0 1.047-.637 1.978a4.1 4.1 0 0 1-1.688 1.424q-1.05.492-2.957.492-.378 0-1.134-.026a32 32 0 0 0-1.151-.027q-.501 0-2.066.062zm3.367-7.25h.457q1.485 0 2.087-.536t.602-1.679q0-1.002-.488-1.476-.488-.475-1.604-.475-.413 0-1.01.07-.054 2.699-.053 3.305zm.017 6.249q.51.132.958.132 1.248 0 1.916-.716.668-.717.668-2.105 0-.906-.303-1.481a2 2 0 0 0-.835-.857q-.532-.282-1.516-.282l-.888.01v.228l-.017 2.276.017 2.303zm8.5 1.002v-.475q.465-.21.852-.492.176-1.371.176-5.765 0-2.998-.062-3.973-.027-.519-.18-.655-.154-.135-1.305-.233v-.738q2.073.08 3.278.079l4.843-.053q.765 0 1.38.062l.061.096q-.194.96-.281 2.55h-.694q-.044-1.284-.102-1.372-.056-.087-.4-.167-.729-.158-2.232-.158-.738 0-1.722.062-.115 2.715-.132 4.324.94.06 1.766.061 1.222 0 1.468-.079.15-.053.211-.255.053-.157.123-1.107h.756a85 85 0 0 0-.044 1.933l.044 1.978h-.756q-.062-1.152-.158-1.327-.052-.105-.237-.15-.44-.096-1.978-.096-.483 0-1.134.052a25 25 0 0 0-.017.95q0 2.513.088 3.867l1.74.026q1.485 0 2.716-.158a27 27 0 0 0 .421-1.837h.73a28 28 0 0 0-.237 2.97 14 14 0 0 1-1.538.089q-.484 0-1.908-.035a82 82 0 0 0-5.537.026zm10.423 0v-.738q1.02-.089 1.169-.167a.3.3 0 0 0 .14-.167q.089-.212.124-1.424.044-1.88.044-2.962 0-1.46-.036-3.71-.035-1.677-.167-2.056a.3.3 0 0 0-.14-.175q-.141-.09-1.134-.194v-.738q1.82.07 2.347.07l4.403-.079q1.432 0 2.087.277t1.038.888q.382.61.382 1.437 0 1.055-.611 1.85-.61.795-2.123 1.41l1.873 2.822 1.459 2.162q.413.527.615.637t.659.119v.676l-.519.01q-2.232.016-2.874.052-.764-1.222-2.285-3.542l-1.81-2.751q.078-.15.131-.316.353.044.519.044.817 0 1.608-.66t.791-1.88q0-1.064-.624-1.653t-1.872-.589q-.394 0-1.072.062l-.061 2.593-.08 3.287q0 1.116.088 2.856.07 1.31.141 1.468.053.114.193.184.185.105 1.196.159v.738a73 73 0 0 0-2.804-.062q-1.3 0-2.795.062m15.39 0v-.738q.5 0 1.046-.088.255-.045.36-.145.105-.101.158-.374.061-.378.106-2.777.026-1.706.026-3.48 0-3.49-.022-3.556t-.62-.066q-1.221 0-2.1.07-.51.045-.576.089a.28.28 0 0 0-.101.153q-.034.11-.15 1.543h-.755q.017-1.68-.097-2.892l.097-.07q2.768.123 5.387.123 2.61 0 5.845-.123l.097.14q-.166 1.205-.237 2.822h-.73q-.079-1.468-.158-1.591-.062-.096-.281-.132-.704-.114-2.795-.114-.177 0-.211.053-.036.06-.035.465l-.053 5.907q0 2.565.044 3.15.045.585.21.708.115.079 1.38.185v.738a58 58 0 0 0-2.742-.062q-1.907 0-3.093.062m9.562-.8q.826-.044 1.02-.167.132-.087.413-.668a76 76 0 0 0 1.37-3.173l3.112-7.62h1.292l3.973 9.44q.773 1.836.953 2.012.18.177 1.112.238v.738a63 63 0 0 0-5.598 0v-.738q1.046-.045 1.208-.119.163-.076.163-.268 0-.166-.37-1.143l-.58-1.503a152 152 0 0 0-4.561 0l-.387 1.011a15 15 0 0 0-.386 1.23 1.2 1.2 0 0 0-.053.335q0 .202.171.285.171.084 1.235.172v.738a31 31 0 0 0-2.144-.062q-1.222 0-1.943.062zm5.766-8.516-1.855 4.508a41 41 0 0 0 3.736 0zm8.92 9.316v-.448q.607-.352.862-.528.123-1.546.123-5.792 0-1.836-.04-3.071-.039-1.236-.118-1.411a.25.25 0 0 0-.114-.132q-.132-.07-1.292-.21v-.748q1.326.044 3.05.044l4.332-.044q2.365 0 3.59.598 1.227.597 1.948 1.828.72 1.23.72 2.988 0 2.259-1.125 3.894t-2.742 2.329a8.7 8.7 0 0 1-3.454.694l-3.331-.053q-.8 0-2.408.062zm3.56-1.081a9 9 0 0 0 1.512.123q1.96 0 2.988-.563t1.666-1.84q.637-1.279.637-3.143 0-2.452-1.266-3.735-1.116-1.143-3.647-1.143-.545 0-1.89.088l-.07 5.484q0 3.463.07 4.729m17.596 1.257q-3.243 0-4.966-1.666t-1.723-4.583q0-2.04.835-3.468a5.6 5.6 0 0 1 2.316-2.192q1.482-.765 3.81-.765 2.242 0 3.665.734t2.193 2.039.77 3.203q0 2.058-.844 3.556a5.83 5.83 0 0 1-2.378 2.32q-1.533.822-3.678.822m.334-.958q1.767 0 2.817-1.305t1.05-3.969q0-2.795-1.204-4.289-.975-1.204-3.006-1.204-1.898 0-2.94 1.257-1.041 1.257-1.041 3.867 0 1.881.571 3.186.57 1.305 1.455 1.881.883.576 2.298.576m7.919.782v-.738q1.02-.089 1.169-.167a.3.3 0 0 0 .14-.167q.089-.212.124-1.424.043-1.88.043-2.962 0-1.46-.035-3.71-.035-1.677-.167-2.056a.3.3 0 0 0-.14-.175q-.141-.09-1.134-.194v-.738q1.82.07 2.347.07l4.403-.079q1.432 0 2.087.277t1.037.888.383 1.437q0 1.055-.611 1.85-.61.795-2.123 1.41l1.872 2.822 1.46 2.162q.413.527.615.637.201.11.659.119v.676l-.519.01q-2.232.015-2.874.052-.765-1.222-2.285-3.542l-1.81-2.751q.078-.15.131-.316.353.044.519.044.818 0 1.608-.66t.791-1.88q0-1.064-.624-1.653-.624-.588-1.872-.589-.394 0-1.072.062l-.062 2.593-.079 3.287q0 1.116.088 2.856.07 1.31.14 1.468.053.115.194.184.185.105 1.196.159v.738a73 73 0 0 0-2.804-.062q-1.3 0-2.795.062m-217.195 22.5v-.413q.5-.3.764-.545.105-1.214.106-5.361 0-3.006-.088-4.254-.044-.677-.185-.791-.193-.177-1.336-.229v-.738l1.688.035 1.292.026q.588 0 1.74-.044a46 46 0 0 1 1.6-.043q1.95 0 2.795.654.843.655.843 1.789 0 1.17-.835 1.907-.834.738-2.355 1.055v.07q1.564.159 2.197.475t1.02.984q.386.668.386 1.52 0 1.047-.637 1.978a4.1 4.1 0 0 1-1.687 1.424q-1.05.492-2.958.492-.378 0-1.134-.026a32 32 0 0 0-1.151-.027q-.5 0-2.065.062m3.366-7.251h.457q1.485 0 2.087-.536.602-.537.602-1.679 0-1.002-.488-1.476-.488-.475-1.604-.475-.413 0-1.01.07a260 260 0 0 0-.053 3.305zm.017 6.249q.51.132.958.132 1.248 0 1.916-.716.668-.717.668-2.105 0-.906-.303-1.481a2 2 0 0 0-.835-.857q-.531-.282-1.516-.282l-.888.01v.228l-.017 2.276.017 2.303zm8.5 1.002v-.475q.465-.21.852-.492.176-1.371.176-5.765 0-2.998-.062-3.973-.026-.519-.18-.655-.155-.135-1.305-.233v-.738q2.074.08 3.278.079l4.843-.053q.765 0 1.38.062l.061.096q-.193.96-.28 2.55h-.695q-.044-1.284-.101-1.372-.058-.087-.4-.167-.73-.158-2.233-.158-.738 0-1.722.062-.114 2.715-.132 4.324a27 27 0 0 0 1.766.061q1.222 0 1.468-.079.15-.053.211-.255.053-.157.123-1.107h.756q-.044 1.486-.044 1.933l.044 1.978h-.756q-.061-1.152-.158-1.327-.053-.105-.237-.15-.44-.096-1.978-.096-.483 0-1.134.052-.017.466-.017.95 0 2.513.088 3.867l1.74.026q1.485 0 2.716-.158.22-.808.422-1.837h.73a28 28 0 0 0-.238 2.97 14 14 0 0 1-1.538.089q-.484 0-1.907-.035a82 82 0 0 0-5.537.026m10.423 0v-.738q1.02-.089 1.17-.167a.3.3 0 0 0 .14-.167q.088-.212.123-1.424.045-1.88.044-2.962 0-1.46-.035-3.71-.036-1.678-.167-2.056a.3.3 0 0 0-.141-.175q-.141-.09-1.134-.194v-.738q1.82.07 2.347.07l4.403-.079q1.433 0 2.088.277.654.277 1.037.888.382.61.382 1.437 0 1.055-.61 1.85-.612.795-2.123 1.41l1.872 2.822 1.459 2.162q.412.527.615.637.202.11.66.119v.676l-.52.01q-2.232.015-2.873.052-.765-1.222-2.286-3.542l-1.81-2.751q.08-.15.132-.316.351.044.518.044.817 0 1.609-.66.79-.66.79-1.88 0-1.064-.623-1.653-.624-.589-1.872-.589-.396 0-1.073.062l-.061 2.593-.08 3.287q0 1.116.089 2.856.07 1.31.14 1.468.053.114.194.184.184.105 1.195.159v.738a73 73 0 0 0-2.804-.062q-1.3 0-2.795.062m12.973 0v-.738q1.072-.045 1.257-.141a.43.43 0 0 0 .184-.228q.098-.211.123-1.486.053-2.11.053-3.181l-.018-3.718q0-1.477-.096-1.705a.36.36 0 0 0-.167-.194q-.176-.105-1.336-.202v-.738q1.388.044 2.057.044.738 0 1.678-.044a199 199 0 0 0 4.57 5.607 86 86 0 0 0 2.927 3.34v-3.48a95 95 0 0 0-.052-3.41q-.035-.853-.141-1.046a.3.3 0 0 0-.193-.15q-.141-.044-1.23-.123v-.738q.957.044 1.906.044 1.302 0 2.356-.044v.738q-.984.062-1.187.14a.5.5 0 0 0-.184.124.5.5 0 0 0-.106.202q-.06.21-.07 1.353l-.026 3.516-.018 3.542q0 1.425.062 2.848l-.115.123a43 43 0 0 0-1.503-.255 264 264 0 0 1-5.458-6.293 82 82 0 0 1-2.61-3.226v3.42q0 1.397.044 3.366.027 1.45.123 1.67a.27.27 0 0 0 .132.149q.167.096 1.265.176v.738a54 54 0 0 0-2.039-.062q-.51 0-2.188.062m14.968-.8q.825-.045 1.02-.167.131-.087.412-.668a74 74 0 0 0 1.371-3.173l3.112-7.62h1.292l3.972 9.44q.774 1.836.954 2.012.18.177 1.112.238v.738a63 63 0 0 0-5.599 0v-.738q1.046-.045 1.209-.119.162-.075.162-.268 0-.167-.369-1.143l-.58-1.503a152 152 0 0 0-4.561 0l-.387 1.011q-.159.414-.387 1.23a1.2 1.2 0 0 0-.053.335q0 .202.172.285.171.084 1.235.172v.738a31 31 0 0 0-2.145-.062q-1.221 0-1.942.062zm5.765-8.516-1.854 4.508a41 41 0 0 0 3.735 0zm8.306 9.316v-.738q1.02-.089 1.169-.167a.3.3 0 0 0 .14-.167q.089-.212.124-1.424.044-1.88.044-2.962 0-1.46-.036-3.71-.035-1.677-.167-2.056a.3.3 0 0 0-.14-.175q-.141-.09-1.134-.194v-.738q1.82.07 2.347.07l4.403-.079q1.432 0 2.087.277t1.037.888.383 1.437q0 1.055-.611 1.85-.61.795-2.123 1.41l1.872 2.822 1.46 2.162q.413.527.615.637.201.11.659.119v.676l-.519.01q-2.232.015-2.874.052-.764-1.222-2.285-3.542l-1.81-2.751q.078-.15.131-.316.353.044.519.044.817 0 1.608-.66t.791-1.88q0-1.064-.624-1.653-.624-.588-1.872-.589-.394 0-1.072.062l-.062 2.593-.079 3.287q0 1.116.088 2.856.07 1.31.14 1.468.054.115.194.184.185.105 1.196.159v.738a73 73 0 0 0-2.804-.062q-1.3 0-2.795.062m13.623 0v-.448q.606-.352.861-.528.123-1.546.123-5.792 0-1.836-.04-3.071-.039-1.236-.118-1.411a.25.25 0 0 0-.114-.132q-.132-.07-1.292-.21v-.748q1.327.044 3.05.044l4.333-.044q2.364 0 3.59.598t1.947 1.828.72 2.988q0 2.259-1.124 3.894t-2.743 2.329a8.7 8.7 0 0 1-3.454.694l-3.33-.053q-.801 0-2.409.062m3.56-1.081a9 9 0 0 0 1.511.123q1.96 0 2.989-.563 1.027-.562 1.665-1.84.637-1.279.637-3.143 0-2.452-1.265-3.735-1.116-1.143-3.648-1.143-.545 0-1.89.088l-.07 5.484q0 3.463.07 4.729zm17.595 1.257q-3.243 0-4.966-1.666-1.722-1.665-1.722-4.583 0-2.04.835-3.468a5.6 5.6 0 0 1 2.316-2.192q1.48-.765 3.81-.765 2.241 0 3.665.734t2.193 2.039.769 3.203q0 2.058-.844 3.556a5.83 5.83 0 0 1-2.377 2.32q-1.535.822-3.679.822m.334-.958q1.767 0 2.817-1.305t1.05-3.969q.001-2.795-1.204-4.289-.975-1.204-3.006-1.204-1.897 0-2.94 1.257-1.041 1.257-1.041 3.867 0 1.881.571 3.186t1.455 1.881 2.298.576m19.178.958q-3.243 0-4.966-1.666-1.722-1.665-1.722-4.583 0-2.04.834-3.468a5.6 5.6 0 0 1 2.316-2.192q1.482-.765 3.81-.765 2.242 0 3.665.734t2.193 2.039.77 3.203q0 2.058-.844 3.556a5.83 5.83 0 0 1-2.378 2.32q-1.533.822-3.678.822m.334-.958q1.767 0 2.817-1.305t1.05-3.969q0-2.795-1.204-4.289-.975-1.204-3.006-1.204-1.898 0-2.94 1.257-1.041 1.257-1.041 3.867 0 1.881.571 3.186.57 1.305 1.455 1.881.884.576 2.298.576m8.824-6.671-.422-2.953a6 6 0 0 1-.052-.756q0-.651.276-1.002a.85.85 0 0 1 .7-.352q.42 0 .698.352.276.351.277.984 0 .369-.062.774l-.413 2.953q-.06.448-.51.448-.43 0-.492-.448m3.155 7.453v-.738q1.152-.054 1.306-.154.153-.102.206-.418.088-.483.088-2.434l-.009-4.808q-.009-2.435-.088-2.654a.38.38 0 0 0-.149-.202q-.175-.114-1.354-.185v-.738q1.758.06 2.787.061 1.626 0 2.97-.061v.738q-1.08.07-1.274.158a.34.34 0 0 0-.167.159q-.089.165-.123 1.02a62 62 0 0 0-.053 2.566v.729q.915.044 2.9.044 1.767 0 2.602-.044.009-2.856-.061-3.797-.036-.501-.185-.615-.202-.167-1.371-.22v-.738q2.188.06 2.962.061 1.328 0 2.804-.061v.738q-1.125.07-1.31.167a.35.35 0 0 0-.158.158q-.08.184-.115 1.433a101 101 0 0 0-.061 3.103l.053 3.99q.017 1.353.079 1.555a.47.47 0 0 0 .202.286q.14.084 1.31.163v.738l-.976-.026a57 57 0 0 0-1.723-.036q-1.301 0-3.067.062v-.738q1.178-.053 1.34-.19.163-.135.198-.716.061-.993.08-4.236a62 62 0 0 0-2.19-.035q-1.89 0-3.313.035v.58q0 2.303.062 3.454.044.774.21.901.168.127 1.345.207v.738l-1.037-.026a50 50 0 0 0-1.758-.036zm15.03 0v-.738q1.212-.062 1.37-.202t.194-.695q.062-1.16.062-4.324 0-1.213-.035-3.516-.018-1.572-.07-1.727a.38.38 0 0 0-.185-.224q-.195-.096-1.336-.167v-.738q1.81.07 2.768.07 1.653 0 2.989-.07v.738q-1.196.07-1.35.19-.153.117-.197.548-.08.844-.08 3.42 0 3.428.027 4.776.026 1.35.158 1.604.053.114.224.18t1.218.137v.738l-1.038-.026a50 50 0 0 0-1.757-.036zm15.143-4.333v-.712q1.6.035 2.857.035 1.16 0 2.505-.035v.563a6 6 0 0 0-.739.29 13 13 0 0 0-.105 1.511q0 .449.105 1.776-1.74.633-2.913.857t-2.43.224q-3.393 0-5.313-1.762t-1.92-4.566q0-2.883 1.96-4.615 1.959-1.731 5.624-1.731 1.293 0 2.479.202t2.258.615l.08.132q-.255 1.116-.378 2.777h-.739a10 10 0 0 0-.114-1.476 3.44 3.44 0 0 0-1.446-.976q-.883-.325-2.087-.325-2.259 0-3.6 1.371-1.34 1.371-1.34 3.753 0 2.54 1.411 4.091t3.476 1.552q1.1 0 2.338-.536.07-.678.07-1.284 0-1.353-.158-1.494t-1.88-.237zm15.012 0v-.712q1.6.035 2.856.035 1.161 0 2.505-.035v.563a6 6 0 0 0-.738.29 13 13 0 0 0-.105 1.511q0 .449.105 1.776-1.74.633-2.913.857-1.175.224-2.43.224-3.393 0-5.314-1.762-1.92-1.763-1.92-4.566 0-2.883 1.96-4.615 1.96-1.731 5.625-1.731 1.292 0 2.478.202t2.26.615l.078.132q-.255 1.116-.378 2.777h-.738a10 10 0 0 0-.114-1.476 3.44 3.44 0 0 0-1.446-.976q-.884-.325-2.087-.325-2.259 0-3.6 1.371-1.34 1.371-1.34 3.753 0 2.54 1.41 4.091 1.412 1.552 3.477 1.552 1.099 0 2.338-.536.07-.678.07-1.284 0-1.353-.158-1.494-.159-.141-1.881-.237m6.864 4.333v-.738q1.214-.062 1.371-.202.159-.141.194-.695.06-1.16.061-4.324 0-1.213-.035-3.516-.018-1.572-.07-1.727a.38.38 0 0 0-.185-.224q-.193-.096-1.336-.167v-.738q1.81.07 2.769.07 1.652 0 2.988-.07v.738q-1.195.07-1.349.19-.154.117-.198.548-.079.844-.079 3.42 0 3.428.027 4.776.026 1.35.158 1.604.053.114.224.18t1.217.137v.738l-1.037-.026a50 50 0 0 0-1.758-.036zm6.961 0v-.738q1.072-.045 1.257-.141a.43.43 0 0 0 .185-.228q.096-.211.123-1.486a139 139 0 0 0 .052-3.181l-.017-3.718q0-1.477-.097-1.705a.36.36 0 0 0-.167-.194q-.175-.105-1.336-.202v-.738a69 69 0 0 0 2.057.044q.738 0 1.679-.044a199 199 0 0 0 4.57 5.607 86 86 0 0 0 2.927 3.34v-3.48q0-1.978-.053-3.41-.035-.853-.14-1.046a.3.3 0 0 0-.194-.15q-.141-.044-1.23-.123v-.738q.957.044 1.907.044 1.3 0 2.355-.044v.738q-.985.062-1.186.14a.5.5 0 0 0-.185.124.5.5 0 0 0-.105.202q-.062.21-.07 1.353l-.027 3.516-.018 3.542q0 1.425.062 2.848l-.114.123a43 43 0 0 0-1.503-.255 264 264 0 0 1-5.458-6.293 82 82 0 0 1-2.61-3.226v3.42q0 1.397.043 3.366.027 1.45.123 1.67a.27.27 0 0 0 .132.149q.166.096 1.266.176v.738a54 54 0 0 0-2.04-.062q-.51 0-2.188.062m15.671-3.718h.774q.008 1.301.083 1.525.075.225.505.589.432.364 1.117.593.685.23 1.406.229 1.24 0 1.982-.66.743-.659.743-1.643 0-.905-.493-1.389-.5-.483-1.898-.685-2.074-.3-2.8-.65a2.65 2.65 0 0 1-1.142-1.055q-.417-.704-.417-1.688 0-1.651 1.164-2.8 1.164-1.146 3.722-1.146 1.002 0 1.78.15a7.3 7.3 0 0 1 1.56.491l.088.211q-.141.555-.198 1.002-.058.45-.1 1.547h-.766q-.044-1.353-.131-1.52-.167-.29-.849-.611-.681-.32-1.56-.32-1.204 0-1.867.584-.664.585-.664 1.507 0 .563.273.98a1.6 1.6 0 0 0 .76.615q.488.198 2.096.453 1.46.22 1.978.43.852.344 1.292 1.046.44.704.44 1.776 0 1.863-1.425 3.098-1.424 1.235-3.893 1.235-1.1 0-1.995-.211a8.4 8.4 0 0 1-1.855-.695q.159-.615.211-1.116a21 21 0 0 0 .08-1.872z" font-family="Book Antiqua" font-size="12" font-weight="400" style="text-align:center" text-anchor="middle"/></svg>