<svg xmlns="http://www.w3.org/2000/svg" xmlns:xlink="http://www.w3.org/1999/xlink" width="900" height="600" viewBox="0 0 27 18"><defs><g id="c"><g id="b"><path id="a" d="M0 0v1h.5z" transform="rotate(18 3.157 -.5)"/><use xlink:href="#a" width="27" height="18" transform="scale(-1 1)"/></g><use xlink:href="#b" width="27" height="18" transform="rotate(72)"/><use xlink:href="#b" width="27" height="18" transform="rotate(144)"/><use xlink:href="#b" width="27" height="18" transform="rotate(-144)"/><use xlink:href="#b" width="27" height="18" transform="rotate(-72)"/></g></defs><path fill="#fff" d="M0 0v18h27V0z"/><path fill="#fc0" fill-rule="evenodd" d="M3.076 6q-.242.001-.468.044-.224.043-.435.116a5 5 0 0 0-.419.164q-.203.09-.405.186c-.202.096-.272.128-.408.188a5 5 0 0 1-.417.164 3 3 0 0 1-.436.115L0 6.99v1.28a3 3 0 0 0 .524-.13 5 5 0 0 0 .417-.163c.136-.06.273-.127.408-.191q.202-.097.405-.186.206-.092.419-.164.212-.073.435-.116a2.5 2.5 0 0 1 .934 0q.226.043.44.116.21.072.415.164.204.09.406.186c.202.096.27.13.407.19q.205.09.417.163t.436.115a2.5 2.5 0 0 0 .936 0 3 3 0 0 0 .438-.115q.212-.073.416-.162c.08-.035.158-.075.237-.111l.02.032q.113-.055.222-.112.181-.097.366-.186a5 5 0 0 1 .385-.164h.002q.211-.073.435-.116a2.6 2.6 0 0 1 .45-.044q.232.003.449.044.226.043.439.116.21.072.415.164.205.09.407.186.202.097.408.188t.415.164q.214.072.44.115.185.035.38.041l.087.003.036.002q.242-.001.466-.045a3 3 0 0 0 .437-.115q.212-.073.415-.162c.137-.06.274-.127.409-.191q.202-.097.407-.186.203-.092.415-.164a3 3 0 0 1 .437-.116 2.6 2.6 0 0 1 .45-.044q.232.003.449.044.226.043.438.116.212.072.416.164a16 16 0 0 1 .566.26c.068.038.137.08.207.117.048.025.097.042.147.066l.014-.018a3.3 3.3 0 0 0 .736.228 2.5 2.5 0 0 0 .933 0 3 3 0 0 0 .437-.115q.212-.074.417-.164.204-.091.405-.188c.201-.097.272-.127.409-.186q.204-.092.415-.164a3 3 0 0 1 .437-.116 2.5 2.5 0 0 1 .936 0q.224.043.436.116a5 5 0 0 1 .418.164q.205.09.407.186.202.097.407.188t.417.164q.212.072.437.115.114.021.232.032L27 7.01a3 3 0 0 1-.234-.033 3 3 0 0 1-.437-.115 5 5 0 0 1-.417-.164 15 15 0 0 1-.407-.188 12 12 0 0 0-.407-.186 5 5 0 0 0-.418-.164 3 3 0 0 0-.436-.116 2.5 2.5 0 0 0-.936 0 3 3 0 0 0-.437.116 5 5 0 0 0-.415.164q-.206.09-.409.186-.201.097-.405.188a5 5 0 0 1-.417.164 3 3 0 0 1-.437.115 2.3 2.3 0 0 1-.91 0 3 3 0 0 1-.427-.115c-.28-.096-.55-.225-.826-.352a15 15 0 0 0-.418-.186 5 5 0 0 0-.536-.198A2.4 2.4 0 0 0 16.9 6h-.037q-.242.001-.466.044a3 3 0 0 0-.438.116 5 5 0 0 0-.415.164q-.205.09-.407.186a15 15 0 0 1-.408.188q-.205.091-.415.164a3 3 0 0 1-.438.115 2.6 2.6 0 0 1-.552.041 3 3 0 0 1-.346-.041 3 3 0 0 1-.437-.115 5 5 0 0 1-.419-.164q-.204-.091-.405-.188a16 16 0 0 0-.409-.186 5 5 0 0 0-.415-.164 3 3 0 0 0-.439-.116A2.5 2.5 0 0 0 9.988 6h-.035q-.242.001-.458.044a3 3 0 0 0-.41.116h-.002l-.1.038a6 6 0 0 0-.315.126q-.205.09-.407.186-.203.097-.408.188a5 5 0 0 1-.416.164 3 3 0 0 1-.439.115 2.3 2.3 0 0 1-.91 0 3 3 0 0 1-.425-.115c-.28-.096-.552-.225-.827-.352a15 15 0 0 0-.417-.186 5 5 0 0 0-.427-.164 3 3 0 0 0-.446-.116A2.6 2.6 0 0 0 3.076 6" overflow="visible" style="marker:none"/><path fill="#008f4c" fill-rule="evenodd" d="M3.076 7.85q-.242.002-.468.045a3 3 0 0 0-.435.115 5 5 0 0 0-.419.164q-.203.09-.405.187-.203.097-.408.187-.206.092-.417.164a3 3 0 0 1-.436.116L0 8.84v1.279a3 3 0 0 0 .524-.13 5 5 0 0 0 .417-.163c.136-.06.273-.127.408-.19q.202-.097.405-.187.206-.091.419-.164a3 3 0 0 1 .435-.115 2.5 2.5 0 0 1 .934 0q.226.042.44.115.21.074.415.164.204.09.406.186c.135.064.27.131.407.191q.205.09.417.163t.436.115a2.5 2.5 0 0 0 .936 0q.226-.042.438-.115t.416-.163q.12-.054.237-.11l.02.032q.113-.056.222-.113.181-.095.366-.186a5 5 0 0 1 .385-.164h.002a3 3 0 0 1 .435-.115 2.6 2.6 0 0 1 .45-.044q.232.002.449.044.226.043.439.115.21.074.415.164t.407.186.408.188q.205.091.415.164.214.073.44.116.185.034.38.04.044.004.087.004l.036.001q.242-.001.466-.044a3 3 0 0 0 .437-.115q.212-.072.415-.163c.137-.06.274-.127.409-.19q.202-.097.407-.187.203-.091.415-.164a3 3 0 0 1 .437-.115 2.6 2.6 0 0 1 .45-.044q.232.002.449.044.226.042.438.115t.416.164a16 16 0 0 1 .566.26q.102.06.207.117c.048.026.097.043.147.067l.014-.018q.146.06.296.112.213.073.44.116a2.5 2.5 0 0 0 .933 0 3 3 0 0 0 .437-.116q.212-.073.417-.164.204-.091.405-.188.203-.095.409-.186.204-.091.415-.164a3 3 0 0 1 .437-.115 2.5 2.5 0 0 1 .936 0q.224.042.436.115a5 5 0 0 1 .418.164q.205.09.407.186.202.097.407.188t.417.164.437.116q.114.021.232.032L27 8.86a3 3 0 0 1-.234-.032 3 3 0 0 1-.437-.116 5 5 0 0 1-.417-.164q-.205-.091-.407-.187-.202-.097-.407-.187a5 5 0 0 0-.418-.164 3 3 0 0 0-.436-.115 2.5 2.5 0 0 0-.936 0 3 3 0 0 0-.437.115 5 5 0 0 0-.415.164q-.206.09-.409.187-.201.097-.405.187-.204.092-.417.164a3 3 0 0 1-.437.116 2.3 2.3 0 0 1-.91 0 3 3 0 0 1-.427-.116c-.28-.095-.55-.224-.826-.351a15 15 0 0 0-.418-.187 5 5 0 0 0-.536-.198 2.4 2.4 0 0 0-.771-.126h-.037q-.242.002-.466.045a3 3 0 0 0-.438.115 5 5 0 0 0-.415.164q-.205.09-.407.187-.203.097-.408.187-.205.092-.415.164a3 3 0 0 1-.438.116 2.6 2.6 0 0 1-.552.041 3 3 0 0 1-.346-.041 3 3 0 0 1-.437-.116 5 5 0 0 1-.419-.164q-.204-.091-.405-.187a16 16 0 0 0-.409-.187 5 5 0 0 0-.415-.164 3 3 0 0 0-.439-.115 2.5 2.5 0 0 0-.466-.044h-.035q-.243.001-.458.044a3 3 0 0 0-.41.115h-.002l-.1.039a6 6 0 0 0-.315.125q-.205.09-.407.187-.203.097-.408.187-.204.092-.416.164a3 3 0 0 1-.439.116 2.3 2.3 0 0 1-.91 0 3 3 0 0 1-.425-.116c-.28-.095-.552-.224-.827-.351a15 15 0 0 0-.417-.187 5 5 0 0 0-.427-.164 3 3 0 0 0-.446-.115 2.6 2.6 0 0 0-.47-.044z" overflow="visible" style="marker:none"/><path fill="#0071bc" fill-rule="evenodd" d="M3.076 9.701q-.242.002-.468.045-.224.042-.435.115a5 5 0 0 0-.419.164q-.203.09-.405.186-.203.097-.408.188a5 5 0 0 1-.417.164 3 3 0 0 1-.436.115L0 10.692v1.278a3 3 0 0 0 .524-.13 5 5 0 0 0 .417-.162c.136-.06.273-.127.408-.19q.202-.097.405-.187.206-.091.419-.164.212-.073.435-.116a2.5 2.5 0 0 1 .934 0q.226.043.44.116.21.073.415.164.204.09.406.186c.202.096.27.131.407.19a5 5 0 0 0 .417.163q.212.073.436.116a2.5 2.5 0 0 0 .936 0q.226-.043.438-.116.212-.072.416-.162.12-.054.237-.111l.02.032q.113-.055.222-.112.181-.096.366-.186a5 5 0 0 1 .385-.164h.002q.211-.073.435-.116a2.6 2.6 0 0 1 .45-.044q.232.003.449.044.226.043.439.116.21.073.415.164.205.09.407.186.202.097.408.188t.415.164q.214.072.44.115.185.034.38.042l.087.003.036.001q.242-.001.466-.044a3 3 0 0 0 .437-.116q.212-.072.415-.162c.137-.06.274-.127.409-.19q.202-.097.407-.187.203-.091.415-.164a3 3 0 0 1 .437-.116 2.6 2.6 0 0 1 .45-.044q.232.003.449.044.226.043.438.116t.416.164a16 16 0 0 1 .566.26q.102.06.207.117c.048.025.097.042.147.066l.014-.017q.146.06.296.112.213.072.44.115a2.5 2.5 0 0 0 .933 0 3 3 0 0 0 .437-.115q.212-.073.417-.164.204-.091.405-.188c.201-.097.272-.126.409-.186q.204-.091.415-.164a3 3 0 0 1 .437-.116 2.5 2.5 0 0 1 .936 0q.224.043.436.116.213.073.418.164.205.09.407.186.202.097.407.188t.417.164a3.2 3.2 0 0 0 .669.148L27 10.71a3 3 0 0 1-.234-.033 3 3 0 0 1-.437-.115 5 5 0 0 1-.417-.164 15 15 0 0 1-.407-.188 16 16 0 0 0-.407-.186 5 5 0 0 0-.418-.164 3 3 0 0 0-.436-.115 2.5 2.5 0 0 0-.936 0 3 3 0 0 0-.437.115 5 5 0 0 0-.415.164q-.206.09-.409.186-.201.097-.405.188a5 5 0 0 1-.417.164 3 3 0 0 1-.437.115 2.3 2.3 0 0 1-.91 0 3 3 0 0 1-.427-.115c-.28-.096-.55-.224-.826-.352a15 15 0 0 0-.418-.186 5 5 0 0 0-.536-.198A2.4 2.4 0 0 0 16.9 9.7h-.037q-.242.002-.466.045a3 3 0 0 0-.438.115 5 5 0 0 0-.415.164q-.205.09-.407.186a15 15 0 0 1-.408.188q-.205.091-.415.164a3 3 0 0 1-.438.115 2.6 2.6 0 0 1-.552.042 3 3 0 0 1-.346-.042 3 3 0 0 1-.437-.115 5 5 0 0 1-.419-.164q-.204-.091-.405-.188a16 16 0 0 0-.409-.186 5 5 0 0 0-.415-.164 3 3 0 0 0-.439-.115 2.5 2.5 0 0 0-.466-.045h-.035q-.243.002-.458.045a3 3 0 0 0-.41.115h-.002l-.1.038a6 6 0 0 0-.315.126q-.205.09-.407.186-.203.097-.408.188a5 5 0 0 1-.416.164 3 3 0 0 1-.439.115 2.3 2.3 0 0 1-.91 0 3 3 0 0 1-.425-.115c-.28-.096-.552-.224-.827-.352a15 15 0 0 0-.417-.186 5 5 0 0 0-.427-.164 3 3 0 0 0-.446-.115 2.6 2.6 0 0 0-.47-.045z" overflow="visible" style="marker:none"/><path fill="#fff" d="M18.45 9a4.95 4.95 0 1 1-9.9 0 4.95 4.95 0 1 1 9.9 0"/><g fill="#fc0" transform="translate(13.5 9.062)scale(.65175)"><use xlink:href="#c" width="27" height="18" transform="translate(0 -6)"/><g id="d"><use xlink:href="#c" width="27" height="18" transform="rotate(72 -5.076 .534)"/><use xlink:href="#c" width="27" height="18" transform="rotate(72 -4.663 -2.076)"/><use xlink:href="#c" width="27" height="18" transform="translate(6)"/><use xlink:href="#c" width="27" height="18" transform="rotate(144 -2.11 -2.344)"/><use xlink:href="#c" width="27" height="18" transform="rotate(-144 -2.344 -2.11)"/></g><use xlink:href="#c" width="27" height="18" transform="translate(0 6)"/><use xlink:href="#d" width="27" height="18" transform="scale(-1 1)"/></g></svg>