<svg xmlns="http://www.w3.org/2000/svg" xmlns:xlink="http://www.w3.org/1999/xlink" width="900" height="600"><defs><linearGradient xlink:href="#a" id="b" x1="370.614" x2="365.672" y1="448.321" y2="402.976" gradientUnits="userSpaceOnUse"/><linearGradient id="a"><stop offset="0" stop-color="#80660f"/><stop offset="1" stop-color="#fff"/></linearGradient></defs><path fill="#0035ad" d="M0 0h900v600H0z"/><path fill="#eac102" d="m308.539 441.6.773-.85q1.265.966 1.52 1.031a.48.48 0 0 0 .336-.045q.322-.15 1.632-1.51a209 209 0 0 0 3.15-3.363 383 383 0 0 0 3.84-4.305q1.717-1.97 1.96-2.542a.47.47 0 0 0 .023-.35q-.07-.248-1.103-1.409l.773-.85q2.02 1.986 2.627 2.537l5.151 4.517q1.649 1.5 2.113 2.503.464 1.005.264 2.107-.199 1.103-1.063 2.054-1.104 1.214-2.64 1.49-1.535.276-3.918-.597l-.798 5.206-.583 4.015q-.077 1.04.04 1.377.119.338.635.827l-.708.778-.606-.532q-2.587-2.316-3.363-2.947.398-2.206 1.077-6.468l.794-5.06q.248-.09.483-.227.36.419.551.593.94.856 2.541.925t2.879-1.337q1.113-1.224 1.01-2.555-.1-1.33-1.538-2.637a20 20 0 0 0-1.298-1.051l-2.784 2.92-3.531 3.7a91 91 0 0 0-2.888 3.38q-1.29 1.581-1.374 1.836a.62.62 0 0 0 .03.415q.1.315 1.21 1.433l-.773.85a114 114 0 0 0-3.163-3.005 106 106 0 0 0-3.281-2.854m15.804 14.053.446-.588a7.5 7.5 0 0 0 1.52.192q1.506-1.535 5.64-6.98 2.817-3.713 3.659-4.98.455-.668.392-.98-.061-.314-1.398-1.517l.695-.914a141 141 0 0 0 3.987 3.18l6.05 4.49q.948.719 1.653 1.373l-.015.178q-1.14 1.005-2.745 2.894l-.86-.653q1.15-1.632 1.163-1.794.012-.163-.338-.583-.756-.882-2.618-2.296a44 44 0 0 0-2.192-1.543 228 228 0 0 0-4.23 5.234q1.108.96 2.131 1.737 1.514 1.15 1.893 1.283.236.075.501-.118.214-.146 1.194-1.256l.937.71q-1.452 1.8-1.873 2.355l-1.805 2.492-.937-.711q1.007-1.484 1.052-1.793.034-.18-.153-.409-.455-.533-2.36-1.979a22 22 0 0 0-1.454-1q-.46.56-.915 1.159-2.363 3.114-3.527 4.874l2.131 1.67a33 33 0 0 0 3.514 2.357 42 42 0 0 0 2.25-1.879l.904.686a44 44 0 0 0-3.087 3.458 22 22 0 0 1-1.989-1.338q-.6-.454-2.33-1.837a144 144 0 0 0-2.995-2.341q-1.819-1.38-3.891-2.833m27.23 10.77.581-.943q2.09 1.35 3.755 2.376 1.536.947 3.347 1.997l-.46.745a9 9 0 0 0-1.214-.218 20 20 0 0 0-1.372 1.916q-.366.594-1.309 2.438-2.82-.58-4.558-1.241a20 20 0 0 1-3.402-1.685q-4.493-2.768-5.6-6.668t1.18-7.614q2.352-3.819 6.36-4.514t8.863 2.295q1.71 1.053 3.118 2.289t2.49 2.657l-.003.24q-1.248 1.27-2.765 3.37l-.978-.602q.669-1.113 1.053-2.05-.215-1.32-1.12-2.47-.904-1.152-2.5-2.134-2.991-1.842-5.885-1.12-2.894.724-4.836 3.879-2.072 3.365-1.469 6.57t3.34 4.89q1.455.896 3.533 1.196.645-.84 1.14-1.642 1.103-1.793 1.01-2.109-.096-.315-2.299-1.848m5.74 11.051.519-1.024q1.725.768 2.045.684.318-.084.756-.828.901-1.567 3.127-5.956a387 387 0 0 0 2.424-4.903q1.081-2.194 1.117-2.445a.6.6 0 0 0-.099-.441q-.2-.27-1.736-1.172l.52-1.024q2.462 1.371 3.791 2.045a89 89 0 0 0 4.196 2.004l-.52 1.024q-1.707-.743-2.004-.686t-.66.623q-.705 1.115-2.515 4.688-2.41 4.755-3.323 6.646-.912 1.89-.909 2.337-.007.195.184.408.192.211 1.593 1.045l-.519 1.024-1.42-.766a78 78 0 0 0-2.414-1.285zm19.286 9.303q-4.674-1.9-6.18-5.31t.204-7.614q1.195-2.938 3.235-4.507a8.7 8.7 0 0 1 4.622-1.803q2.581-.234 5.938 1.131 3.23 1.314 4.851 3.205 1.622 1.893 1.965 4.224.344 2.331-.77 5.066-1.204 2.964-3.298 4.629a9.07 9.07 0 0 1-4.786 1.95q-2.691.286-5.781-.971m1.042-1.185q2.546 1.036 4.824-.23 2.278-1.265 3.839-5.102 1.638-4.027.778-6.886-.7-2.307-3.625-3.497-2.736-1.113-4.973.088-2.238 1.2-3.767 4.962-1.103 2.711-1.044 4.926t.994 3.563q.935 1.347 2.974 2.176m5.102-18.75-1.254-.51 4.092-1.642q1.445-.58 1.891-.64.446-.063.839.097.48.195.663.602.18.406.006.836a1 1 0 0 1-.51.546q-.354.165-1.937.319zm5.868 24.409.31-1.106q1.624.384 1.942.317a.67.67 0 0 0 .372-.265q.234-.275.808-2.173a216 216 0 0 0 1.415-4.743l1.534-5.576q.62-2.212.571-2.595a.57.57 0 0 0-.169-.36q-.22-.231-1.916-.863l.31-1.106q2.061.648 3.062.93a57 57 0 0 0 2.533.638 310 310 0 0 0 4.491 10.318q1.692 3.74 2.982 6.231l1.461-5.213a147 147 0 0 0 1.353-5.13q.305-1.291.228-1.626a.47.47 0 0 0-.227-.305q-.192-.124-1.791-.7l.31-1.106q1.416.468 2.838.866 1.949.546 3.547.923l-.31 1.106q-1.5-.321-1.836-.287a.7.7 0 0 0-.329.106.8.8 0 0 0-.242.259q-.18.29-.674 1.998l-1.515 5.254-1.514 5.298a103 103 0 0 0-1.103 4.292l-.223.136a68 68 0 0 0-2.144-1.013q-2.332-4.7-5.533-11.717-1.618-3.55-2.556-5.927l-1.435 5.12a247 247 0 0 0-1.348 5.061q-.57 2.184-.517 2.553.013.16.135.28.21.213 1.822.794l-.31 1.106a84 84 0 0 0-3.028-.949q-.764-.214-3.304-.826m31.045-10.446.15-1.14q2.563.435 4.704.716 1.899.25 4.174.452l-.15 1.14q-1.586-.099-1.91.003t-.364.414q-.053.393.718 3.349l2.606 9.857 4.058-7.16q2.243-3.954 2.354-4.793a.465.465 0 0 0-.233-.486q-.274-.175-1.942-.49l.15-1.138q2.468.42 3.308.531.881.116 3.158.319l-.15 1.138q-1.388-.044-1.629.117-.36.215-1.982 2.911l-5.473 9.43q-1.663 2.787-2.439 4.491l-1.979-.26-3.287-12.126q-1.137-4.148-1.617-5.632-.271-.877-.525-1.096-.255-.22-1.7-.547m19.962 19.472q1.287-.035 1.592-.218.21-.132.67-1.022.88-1.755 2.26-4.878l5.148-11.724 2.01.053 5.794 14.84q1.128 2.887 1.401 3.168.273.28 1.72.414l-.03 1.148a98 98 0 0 0-8.707-.227l.03-1.148q1.629-.026 1.884-.135.256-.11.264-.41.007-.26-.528-1.792l-.84-2.361a237 237 0 0 0-7.094-.185l-.642 1.556q-.264.636-.652 1.898a2 2 0 0 0-.095.517q-.008.315.255.451.263.137 1.913.317l-.03 1.148a48 48 0 0 0-3.332-.183q-1.9-.05-3.023.017zm9.311-13.01-3.066 6.937a52 52 0 0 0 2.772.14 64 64 0 0 0 3.036.011zm13.43 14.565-.048-.71a9 9 0 0 0 1.363-.927 161 161 0 0 0-.343-7.72q-.212-3.15-.47-5.942-.174-1.99-.345-2.279a.48.48 0 0 0-.298-.247q-.216-.074-2-.105l-.078-1.146q2.638-.11 4.888-.26a121 121 0 0 0 4.129-.348l.077 1.146q-1.874.249-2.147.474-.168.135-.218.515t.181 4.42l.367 6.649q.126 1.869.387 4.318a55 55 0 0 0 2.653-.084q2.578-.173 4.31-.688.272-1.265.497-3.007l1.2-.08q-.168 1.97-.205 4.878-1.283.278-2.374.352l-4.942.278-2.212.122q-1.528.09-4.372.39zm16.295-1.188-.171-1.135q1.59-.364 1.786-.533.15-.105.2-.32.086-.36-.225-2.828-.31-2.47-.66-4.782-.65-4.313-1.017-6.15-.368-1.84-.596-2.026-.229-.187-1.212-.108l-.795.05-.17-1.135 1.535-.176q1.425-.174 2.264-.3 1.149-.174 3.692-.64a58 58 0 0 1 2.02-.36q2.42-.365 3.644-.08 1.226.285 1.968 1.128.742.841.952 2.234.38 2.514-1.142 4.48-1.522 1.964-4.266 2.378a5.5 5.5 0 0 1-.752.058 12 12 0 0 1-.86-.022 16 16 0 0 0-.63-.873l.26-.385q.308.023.564.026t.459-.028q1.365-.206 2.089-1.276.723-1.07.468-2.76-.283-1.88-1.315-2.67-1.032-.792-2.763-.531a8.7 8.7 0 0 0-1.62.438q.48 4.185.915 7.08.147.972 1.045 6.188.353 2.062.494 2.36.102.218.305.285.32.104 2.34-.076l.17 1.135a106 106 0 0 0-4.042.513q-.73.11-4.934.841m16.452-3.706q1.23-.375 1.476-.634.166-.183.373-1.164.382-1.926.88-5.304l1.84-12.67 1.95-.485 9.538 12.761q1.856 2.484 2.194 2.68.338.199 1.768-.058l.276 1.115a98 98 0 0 0-8.452 2.1l-.277-1.115q1.563-.459 1.78-.633.218-.172.145-.465-.062-.252-.985-1.587l-1.44-2.051a237 237 0 0 0-6.886 1.71l-.205 1.671q-.084.683-.122 2.003-.01.298.045.524.076.304.366.367.29.061 1.929-.205l.276 1.115q-1.323.23-3.26.711-1.845.46-2.91.821l-.3-1.207zm5.51-15.02-1.109 7.503a52 52 0 0 0 2.71-.603 65 65 0 0 0 2.93-.798zm16.02 10.81-.389-1.08q1.446-.665 1.623-.86a.48.48 0 0 0 .118-.318q.018-.354-.568-2.149a209 209 0 0 0-1.494-4.359 383 383 0 0 0-2.003-5.411q-.935-2.439-1.326-2.923a.47.47 0 0 0-.298-.183q-.253-.055-1.762.313l-.388-1.08q2.7-.855 3.472-1.132l6.405-2.432q2.097-.755 3.201-.693 1.104.06 1.985.754.881.693 1.316 1.903.555 1.544.079 3.03t-2.365 3.18l4.224 3.146 3.273 2.398q.882.555 1.236.61.354.053 1.028-.174l.356.99-.755.286q-3.259 1.2-4.18 1.59a341 341 0 0 0-5.208-3.984l-4.097-3.075q.036-.26.026-.532.539-.12.782-.209 1.197-.43 2.008-1.81.811-1.382.169-3.17-.56-1.557-1.783-2.09-1.223-.535-3.05.122-.58.209-1.538.654l1.274 3.828 1.613 4.854q.588 1.635 1.632 4.135.792 1.88.978 2.075a.6.6 0 0 0 .38.168q.325.058 1.833-.397l.388 1.08a116 116 0 0 0-4.137 1.386q-1.903.684-4.059 1.56zm18.395-7.977q1.13-.617 1.319-.92.126-.212.13-1.214-.016-1.964-.208-5.373l-.755-12.781 1.812-.868 11.917 10.573q2.318 2.058 2.69 2.183.37.126 1.719-.414l.496 1.036a98 98 0 0 0-7.854 3.762l-.497-1.036q1.439-.765 1.616-.978.179-.214.048-.486-.112-.234-1.285-1.355l-1.824-1.719a237 237 0 0 0-6.4 3.065l.137 1.678q.056.687.284 1.986.05.296.15.504.136.285.433.286.296.002 1.848-.59l.496 1.037q-1.25.492-3.05 1.354-1.715.82-2.684 1.392zm2.367-15.823.428 7.572q1.164-.482 2.532-1.137a65 65 0 0 0 2.708-1.373zm17.79 7.223-.577-.993q1.585-1.03 1.687-1.342.104-.313-.282-1.085-.822-1.61-3.292-5.867a387 387 0 0 0-2.792-4.703q-1.251-2.103-1.442-2.269a.6.6 0 0 0-.423-.157q-.336.02-1.928.818l-.577-.994a118 118 0 0 0 3.78-2.066 89 89 0 0 0 3.966-2.427l.577.993q-1.554 1.027-1.668 1.308-.114.28.163.893.552 1.197 2.562 4.662 2.676 4.612 3.764 6.407 1.089 1.794 1.465 2.035.16.112.442.067c.282-.045.77-.285 1.744-.767l.577.994-1.417.774q-1.35.72-2.392 1.325l-3.938 2.394zm-8.115-19.001-1.17.68 1.206-4.242q.427-1.496.652-1.887.224-.39.59-.603.45-.261.882-.156t.665.507a1 1 0 0 1 .12.737q-.087.382-.935 1.727zm15.13 8.229.998-.673q1.142 1.67 1.434 1.894.291.225 1.163.32.873.096 1.956-.205a6.9 6.9 0 0 0 2.013-.928q1.598-1.077 1.983-2.574.384-1.496-.472-2.765-.787-1.168-1.842-1.363-1.067-.189-3.045.766-2.935 1.418-4.176 1.595a4.1 4.1 0 0 1-2.39-.366q-1.15-.544-2.007-1.814-1.436-2.13-.932-4.623.505-2.491 3.804-4.716 1.292-.872 2.425-1.355a11.4 11.4 0 0 1 2.44-.722l.297.196q.3.836.616 1.464.317.628 1.215 2.083l-.986.665q-1.234-1.707-1.492-1.846-.468-.23-1.625-.05-1.158.177-2.291.942-1.554 1.046-1.901 2.378-.348 1.331.455 2.521.489.726 1.203 1.027t1.516.133q.8-.17 3.097-1.24 2.073-.984 2.925-1.163 1.398-.3 2.576.225c1.178.525 1.49.986 2.11 1.908q1.62 2.403.858 5.234t-3.948 4.978q-1.417.956-2.757 1.463-1.34.509-2.995.717a12 12 0 0 0-.699-1.623q-.513-.956-1.526-2.483m24.956-10.685q-3.891 3.21-7.607 2.918t-6.605-3.793q-2.02-2.446-2.432-4.986a8.7 8.7 0 0 1 .608-4.924q1.02-2.385 3.813-4.69 2.689-2.22 5.124-2.749t4.65.275q2.216.805 4.095 3.082 2.035 2.468 2.508 5.101a9.07 9.07 0 0 1-.555 5.138q-1.026 2.505-3.6 4.628zm-.548-1.48q2.119-1.75 2.087-4.355-.032-2.607-2.67-5.801-2.766-3.353-5.69-3.954-2.363-.478-4.8 1.532-2.277 1.88-2.282 4.419-.005 2.54 2.58 5.67 1.861 2.257 3.84 3.257 1.977 1.001 3.607.817t3.328-1.585"/><g stroke="#000"><path fill="#eac102" fill-rule="evenodd" stroke-width=".394" d="M450.72 163.032c-13.182 0-24.298.337-33.667.922a355 355 0 0 0-5.42.383c-20.835 1.624-32.006 4.495-37.993 7.118a32 32 0 0 0-1.402.644c-2.14 1.07-3.457 2.093-4.258 2.924a7 7 0 0 0-.414.47c-.125.155-.23.297-.32.435-.536.812-.521 1.305-.521 1.305l4.552 21.564h158.886l4.552-21.564s.015-.493-.52-1.305a6 6 0 0 0-.32-.435c-.733-.91-2.103-2.11-4.673-3.394-.004-.002-.01.002-.013 0-5.584-2.785-16.81-6.002-39.382-7.762h-.013a352 352 0 0 0-5.406-.383c-9.37-.585-20.485-.922-33.668-.922z"/><path fill="#eac102" fill-rule="evenodd" stroke-width=".172" d="m29.522 2.522.894-1.022 4.729-.512 1.15 9.585-2.173-.128-.51-7.54zm3.706.638 2.045-1.916" transform="matrix(2.2544 0 0 2.33809 347.475 97.555)"/><path fill="#eac102" stroke-width=".394" d="M412.471 157.396c-1.406.044-2.813.076-4.219.113l-.646 22.124q.001.013.014.014l5.674-.163q.012-.001.012-.016l-.82-22.058a.014.014 0 0 0-.015-.014z"/><path fill="#eac102" fill-rule="evenodd" stroke-width=".172" d="m46.902.86 1.084-1.278 4.028-.255.04 15.718-3.672 2.13 2.71 15.933-4.31.128-.926-17.468L46.902.861zm5.24-1.533-2.212 1.79m2.14 13.945-1.653-.08" transform="matrix(2.2544 0 0 2.33809 328.604 99.797)"/><path fill="#eac102" stroke-width=".394" d="M437.366 155.069c1.4-.149 2.798-.308 4.197-.463L445 176.451q0 .014-.012.017l-5.645.61q-.013-.001-.015-.014l-1.975-21.979q0-.013.012-.016z"/><path fill="#eac102" fill-rule="evenodd" stroke-width=".172" d="m29.522 2.522.894-1.022 3.45-.384 2.43 9.457-2.174.384-1.916-7.796zm2.811 1.022 1.79-2.428" transform="matrix(2.2544 0 0 2.33809 328.604 99.797)"/><path fill="#eac102" fill-rule="evenodd" stroke-width=".394" d="m394.98 105.18 4.152 34.22 10.465 2.305 2.82 37.903 25.727-1.803-3.922-38.791 8.124-4.34.417-33.825-8.629.758-1.956 19.314-5.734.74-1.792-19.533-10.356 1.213.458 19.214-6.713 1.105-4.056-19.367zm2.287 20.03 10.862-1.539m6.59-.965 12.05-1.018m5.167-.932 10.838-.971m-33.252 21.535 24.706-2.252m-22.841-15.771 1.069 14.497m17.492-16.601.752 14.779m-9.445 4.707.752 12.825"/><g fill="#eac102" fill-rule="evenodd" stroke-width=".415"><path d="M120.732 20.062V2.35c.514-3.252 1.863-5.294 5.06-6.145 5.873-1.043 11.597 1.645 11.387 6.145.395.184.73 12.095.723 17.892z" transform="matrix(.8333 -.10912 .02036 1.07726 315.923 170.665)"/><path d="M123.762 19.938V4.792c.328-2.78 1.186-4.526 3.22-5.254 3.738-.892 7.13.1 7.247 5.254.479.515.465 10.343.46 15.3zm.765-23.372 1.627 3.073m-5.556 2.221 3.547 1.353m-3.413 5.282h3.072m-2.879 6.005 2.698-.041m11.157.337 3.122.205m-3.254-6.506 2.892.18m-3.585-5.105 3.043-1.763M131.756-.18l1.446-2.893" transform="matrix(.8333 -.10912 .02036 1.07726 315.923 170.665)"/></g><path fill="none" stroke-width=".394" d="m410.249 153.79 7.368 2.242m-6.541 7.886 5.89.057m-5.269 7.049 4.725-.515m19.049-19.371-5.844 4.29m6.878 6.98-5.384.464m6.054 6.563-6.125.349"/><path fill="#eac102" fill-rule="evenodd" stroke-width=".394" d="m399.126 139.3 43.188-4.427m-.793 19.667 5.633 8.763-2.16-.298.648 10.732-.914.325z"/><path fill="none" stroke-width=".394" d="m434.197 139.1 3.543 1.052"/><path fill="#eac102" fill-rule="evenodd" stroke-width=".172" d="m29.522 2.522.894-1.022 4.729-.512 1.15 9.585-2.173-.128-.51-7.54zm3.706.638 2.045-1.916" transform="matrix(2.21353 -.4273 .44316 2.2957 287.628 123.552)"/><path fill="#eac102" fill-rule="evenodd" stroke-width=".172" d="m46.902.86 1.084-1.278 4.028-.255.04 15.718-3.672 2.13 2.71 15.933-4.31.128-.926-17.468L46.902.861zm5.24-1.533-2.212 1.79m2.14 13.945-1.653-.08" transform="matrix(2.21353 -.4273 .44316 2.2957 269.524 129.33)"/><path fill="#eac102" stroke-width=".394" d="M386.79 162.985c1.346-.411 2.69-.832 4.033-1.25l7.517 20.798c.002.008-.002.017-.01.018l-5.426 1.669q-.013.002-.018-.01l-6.104-21.207a.013.013 0 0 1 .009-.018z"/><path fill="#eac102" fill-rule="evenodd" stroke-width=".172" d="m29.522 2.522.894-1.022 3.45-.384 2.43 9.457-2.174.384-1.916-7.796zm2.811 1.022 1.79-2.428" transform="matrix(2.21353 -.4273 .44316 2.2957 269.524 129.33)"/><path fill="#eac102" fill-rule="evenodd" stroke-width=".394" d="m335.716 122.035 10.564 32.813 10.712.28 9.952 36.68 24.92-6.646-11.203-37.345 7.154-5.8-6.002-33.291-8.329 2.38 1.74 19.334-5.49 1.813-5.462-18.839-9.938 3.154 4.091 18.778-6.381 2.358-7.653-18.247zm6.043 19.233 10.374-3.57m6.287-2.197 11.638-3.283m4.897-1.894 10.457-3.008m-28.567 27.448 23.831-6.894m-25.416-11.157 3.797 14.032m14.028-19.615 3.54 14.368m-8.381 6.412 3.17 12.45"/><g fill="#eac102" fill-rule="evenodd" stroke-width=".415"><path d="M120.732 20.062V2.35c.514-3.252 1.863-5.294 5.06-6.145 5.873-1.043 11.597 1.645 11.387 6.145.395.184.73 12.095.723 17.892z" transform="matrix(.7975 -.26509 .22418 1.05388 270.505 201.317)"/><path d="M123.762 19.938V4.792c.328-2.78 1.186-4.526 3.22-5.254 3.738-.892 7.13.1 7.247 5.254.479.515.465 10.343.46 15.3zm.765-23.372 1.627 3.073m-5.556 2.221 3.547 1.353m-3.413 5.282h3.072m-2.879 6.005 2.698-.041m11.157.337 3.122.205m-3.254-6.506 2.892.18m-3.585-5.105 3.043-1.763M131.756-.18l1.446-2.893" transform="matrix(.7975 -.26509 .22418 1.05388 270.505 201.317)"/></g><path fill="none" stroke-width=".394" d="m359.922 166.869 7.66.806m-4.928 8.982 5.793-1.06m-3.837 7.92 4.542-1.402m15.033-22.63-4.925 5.32m8.077 5.55-5.2 1.476m7.189 5.296-5.948 1.504"/><path fill="#eac102" fill-rule="evenodd" stroke-width=".394" d="m346.255 154.75 41.566-12.532m2.949 19.46 6.63 4.162-2.742 1.523 3.796 12.383-.835.493z"/><path fill="none" stroke-width=".394" d="m380.652 147.907 3.679.361"/><path fill="#eac102" fill-rule="evenodd" stroke-width=".172" d="m29.522 2.522.894-1.022 4.729-.512 1.15 9.585-2.173-.128-.51-7.54zm3.706.638 2.045-1.916" transform="rotate(-169.073 312.078 32.31)scale(2.2544 -2.33808)"/><path fill="#eac102" fill-rule="evenodd" stroke-width=".172" d="m46.902.86 1.084-1.278 4.028-.255.04 15.718-3.672 2.13 2.71 15.933-4.31.128-.926-17.468L46.902.861zm5.24-1.533-2.212 1.79m2.14 13.945-1.653-.08" transform="rotate(-169.073 321.407 34.334)scale(2.2544 -2.33808)"/><path fill="#eac102" stroke-width=".394" d="M513.212 162.62c-1.346-.411-2.689-.833-4.033-1.25l-7.516 20.798q-.004.013.009.018l5.427 1.669a.014.014 0 0 0 .017-.01l6.105-21.207c.002-.007-.002-.016-.009-.018z"/><path fill="#eac102" fill-rule="evenodd" stroke-width=".172" d="m29.522 2.522.894-1.022 3.45-.384 2.43 9.457-2.174.384-1.916-7.796zm2.811 1.022 1.79-2.428" transform="rotate(-169.073 321.407 34.334)scale(2.2544 -2.33808)"/><path fill="#eac102" fill-rule="evenodd" stroke-width=".394" d="m564.286 121.67-10.563 32.813-10.712.28-9.953 36.68-24.92-6.647 11.204-37.344-7.154-5.8 6.001-33.291 8.33 2.38-1.74 19.334 5.49 1.813 5.461-18.839 9.938 3.154-4.09 18.778 6.38 2.358 7.654-18.247zm-6.042 19.233-10.374-3.57m-6.287-2.197-11.638-3.283m-4.897-1.894-10.458-3.008m28.567 27.447-23.831-6.893m25.416-11.157-3.797 14.032m-14.028-19.616-3.54 14.369m8.381 6.412-3.169 12.45"/><g fill="#eac102" fill-rule="evenodd" stroke-width=".415"><path d="M120.732 20.062V2.35c.514-3.252 1.863-5.294 5.06-6.145 5.873-1.043 11.597 1.645 11.387 6.145.395.184.73 12.095.723 17.892z" transform="matrix(-.7975 -.26509 -.22418 1.05388 629.497 200.952)"/><path d="M123.762 19.938V4.792c.328-2.78 1.186-4.526 3.22-5.254 3.738-.892 7.13.1 7.247 5.254.479.515.465 10.343.46 15.3zm.765-23.372 1.627 3.073m-5.556 2.221 3.547 1.353m-3.413 5.282h3.072m-2.879 6.005 2.698-.041m11.157.337 3.122.205m-3.254-6.506 2.892.18m-3.585-5.105 3.043-1.763M131.756-.18l1.446-2.893" transform="matrix(-.7975 -.26509 -.22418 1.05388 629.497 200.952)"/></g><path fill="none" stroke-width=".394" d="m540.08 166.504-7.66.805m4.928 8.983-5.793-1.06m3.837 7.919-4.542-1.4m-15.032-22.631 4.925 5.32m-8.077 5.55 5.2 1.476m-7.189 5.296 5.947 1.504"/><path fill="#eac102" fill-rule="evenodd" stroke-width=".394" d="m553.748 154.385-41.567-12.532m-2.948 19.46-6.63 4.162 2.741 1.523-3.796 12.383.835.493z"/><path fill="none" stroke-width=".394" d="m519.351 147.541-3.679.362"/><path fill="#eac102" fill-rule="evenodd" stroke-width=".172" d="m29.522 2.522.894-1.022 4.729-.512 1.15 9.585-2.173-.128-.51-7.54zm3.706.638 2.045-1.916" transform="matrix(-2.2544 0 0 2.33809 551.963 97.471)"/><path fill="#eac102" stroke-width=".394" d="M486.967 157.312c1.406.044 2.813.076 4.219.113l.646 22.124q-.001.014-.014.014l-5.674-.163q-.012-.001-.012-.016l.821-22.057a.014.014 0 0 1 .014-.015z"/><path fill="#eac102" fill-rule="evenodd" stroke-width=".172" d="m46.902.86 1.084-1.278 4.028-.255.04 15.718-3.672 2.13 2.71 15.933-4.31.128-.926-17.468L46.902.861zm5.24-1.533-2.212 1.79m2.14 13.945-1.653-.08" transform="matrix(-2.2544 0 0 2.33809 570.834 99.713)"/><path fill="#eac102" stroke-width=".394" d="M462.072 154.985c-1.4-.149-2.798-.308-4.197-.463l-3.438 21.846q0 .012.012.016l5.646.61a.02.02 0 0 0 .015-.014l1.974-21.979q0-.013-.012-.016z"/><path fill="#eac102" fill-rule="evenodd" stroke-width=".172" d="m29.522 2.522.894-1.022 3.45-.384 2.43 9.457-2.174.384-1.916-7.796zm2.811 1.022 1.79-2.428" transform="matrix(-2.2544 0 0 2.33809 570.834 99.713)"/><path fill="#eac102" fill-rule="evenodd" stroke-width=".394" d="m504.458 105.096-4.152 34.22-10.465 2.305-2.82 37.903-25.727-1.803 3.922-38.791-8.124-4.339-.417-33.825 8.629.758 1.956 19.313 5.734.74 1.793-19.533 10.355 1.213-.458 19.214 6.713 1.105 4.056-19.367zm-2.287 20.03-10.862-1.539m-6.589-.965-12.05-1.018m-5.167-.932-10.839-.971m33.252 21.535-24.706-2.251m22.841-15.772-1.068 14.497m-17.493-16.601-.752 14.779m9.445 4.707-.752 12.825"/><g fill="#eac102" fill-rule="evenodd" stroke-width=".415"><path d="M120.732 20.062V2.35c.514-3.252 1.863-5.294 5.06-6.145 5.873-1.043 11.597 1.645 11.387 6.145.395.184.73 12.095.723 17.892z" transform="matrix(-.8333 -.10912 -.02036 1.07726 583.515 170.581)"/><path d="M123.762 19.938V4.792c.328-2.78 1.186-4.526 3.22-5.254 3.738-.892 7.13.1 7.247 5.254.479.515.465 10.343.46 15.3zm.765-23.372 1.627 3.073m-5.556 2.221 3.547 1.353m-3.413 5.282h3.072m-2.879 6.005 2.698-.041m11.157.337 3.122.205m-3.254-6.506 2.892.18m-3.585-5.105 3.043-1.763M131.756-.18l1.446-2.893" transform="matrix(-.8333 -.10912 -.02036 1.07726 583.515 170.581)"/></g><path fill="none" stroke-width=".394" d="m489.19 153.705-7.369 2.243m6.541 7.886-5.889.057m5.268 7.049-4.725-.515m-19.049-19.371 5.844 4.29m-6.878 6.98 5.385.464m-6.055 6.562 6.125.35"/><path fill="#eac102" fill-rule="evenodd" stroke-width=".394" d="m500.312 139.216-43.188-4.427m.793 19.666-5.633 8.764 2.161-.298-.648 10.732.913.325z"/><path fill="none" stroke-width=".394" d="m465.242 139.016-3.544 1.053"/><path fill="#eac102" fill-rule="evenodd" stroke-width=".166" d="M54.91 31.73c-10.727.141-21.578.154-32.113 2.997-2.351.94-5.712 1.463-6.595 4.788-.29 2.778 2.369 3.955 4.03 4.718 7.91 3.003 16.267 3.258 24.463 3.727 12.751.324 25.584.455 38.24-1.788 3.458-.845 7.265-1.366 10.109-4.213 1.698-2.103-.182-5.045-2.059-5.65-6.438-3.125-13.46-3.46-20.27-4.097-5.262-.363-10.534-.478-15.804-.483z" transform="matrix(2.2544 0 0 2.33809 326.557 99.797)"/><path fill="#eac102" fill-rule="evenodd" stroke-width=".166" d="M54.944 35.143c-5.847 0-10.778.144-14.934.395q-1.248.076-2.405.164c-9.241.694-14.197 1.922-16.852 3.044q-.335.14-.622.275c-.95.458-1.534.896-1.889 1.251a3 3 0 0 0-.326.387c-.237.347-.23.558-.23.558l2.019 9.223h70.478l2.02-9.223s.006-.21-.232-.558a2 2 0 0 0-.142-.186c-.325-.389-.932-.903-2.072-1.452h-.006c-2.477-1.19-7.457-2.567-17.469-3.32h-.006a173 173 0 0 0-2.398-.163c-4.156-.25-9.087-.395-14.934-.395z" transform="matrix(2.2544 0 0 2.33809 326.557 99.797)"/><path fill="#eac102" fill-rule="evenodd" d="M-518.584 630.117s37.062-17.868 171.525-17.868c134.018 0 171.525 17.868 171.525 17.868s-31.348 17.868-171.525 17.868c-140.623 0-171.525-17.868-171.525-17.868z" transform="matrix(.427 0 0 .59348 598.202 -155.558)"/><path fill="none" stroke-width=".52" d="M-390.717 650.838v-41.34" font-size="12" transform="matrix(.427 0 0 .59348 598.202 -155.558)"/><path fill="none" stroke-width=".766" d="M-398.598 650.838v-41.34" font-size="12" transform="matrix(.427 0 0 .59348 598.202 -155.558)"/><path fill="none" stroke-width="1.026" d="M-406.039 650.838v-41.34" font-size="12" transform="matrix(.427 0 0 .59348 598.202 -155.558)"/><path fill="none" stroke-width="1.286" d="M-413.415 650.838v-41.34" font-size="12" transform="matrix(.427 0 0 .59348 598.202 -155.558)"/><path fill="none" stroke-width="1.546" d="M-419.987 650.838v-41.34" font-size="12" transform="matrix(.427 0 0 .59348 598.202 -155.558)"/><path fill="none" stroke-width="1.806" d="m-432.522 648.609-.173-37.627m6.116 38.122v-39.358" font-size="12" transform="matrix(.427 0 0 .59348 598.202 -155.558)"/><path fill="none" stroke-width="2.051" d="M-444.094 646.917V612.25m5.863 35.657-.174-36.893" font-size="12" transform="matrix(.427 0 0 .59348 598.202 -155.558)"/><path fill="none" stroke-width="2.311" d="M-459.62 644.937V614.48m5.094 30.953V613.49m5.248 32.933V613.24" font-size="12" transform="matrix(.427 0 0 .59348 598.202 -155.558)"/><path fill="none" stroke-width="2.572" d="M-465.061 644.688v-29.465" font-size="12" transform="matrix(.427 0 0 .59348 598.202 -155.558)"/><path fill="none" stroke-width="2.832" d="M-470.136 643.203v-27.485" font-size="12" transform="matrix(.427 0 0 .59348 598.202 -155.558)"/><path fill="none" stroke-width="3.092" d="M-475.577 642.459v-25.505" font-size="12" transform="matrix(.427 0 0 .59348 598.202 -155.558)"/><path fill="none" stroke-width="3.337" d="m-486.718 640.233-.173-20.306m5.882 21.296v-22.78" font-size="12" transform="matrix(.427 0 0 .59348 598.202 -155.558)"/><path fill="none" stroke-width="3.525" d="M-492.427 638.5v-17.832" font-size="12" transform="matrix(.427 0 0 .59348 598.202 -155.558)"/><path fill="none" stroke-width="3.785" d="M-497.655 637.053v-14.849" font-size="12" transform="matrix(.427 0 0 .59348 598.202 -155.558)"/><path fill="none" stroke-width="4.031" d="M-503.364 635.073v-11.63" font-size="12" transform="matrix(.427 0 0 .59348 598.202 -155.558)"/><path fill="none" stroke-width="4.276" d="M-509.232 634.084v-8.66" font-size="12" transform="matrix(.427 0 0 .59348 598.202 -155.558)"/><path fill="none" stroke-width="5.042" d="M-515.443 632.106v-4.209" font-size="12" transform="matrix(.427 0 0 .59348 598.202 -155.558)"/><path fill="none" stroke-width=".26" d="M-359.358 648.609v-37.873m-13.353 39.112.174-40.102m-9.906 40.597v-40.846" font-size="12" transform="matrix(.427 0 0 .59348 598.202 -155.558)"/><path fill="none" stroke-width=".52" d="M-303.401 650.838v-41.34" font-size="12" transform="matrix(.427 0 0 .59348 598.202 -155.558)"/><path fill="none" stroke-width=".766" d="M-295.52 650.838v-41.34" font-size="12" transform="matrix(.427 0 0 .59348 598.202 -155.558)"/><path fill="none" stroke-width="1.026" d="M-288.08 650.838v-41.34" font-size="12" transform="matrix(.427 0 0 .59348 598.202 -155.558)"/><path fill="none" stroke-width="1.286" d="M-280.703 650.838v-41.34" font-size="12" transform="matrix(.427 0 0 .59348 598.202 -155.558)"/><path fill="none" stroke-width="1.546" d="M-274.13 650.838v-41.34" font-size="12" transform="matrix(.427 0 0 .59348 598.202 -155.558)"/><path fill="none" stroke-width="1.806" d="m-261.596 648.609.173-37.627m-6.116 38.122v-39.358" font-size="12" transform="matrix(.427 0 0 .59348 598.202 -155.558)"/><path fill="none" stroke-width="2.051" d="M-250.024 646.917V612.25m-5.863 35.657.174-36.893" font-size="12" transform="matrix(.427 0 0 .59348 598.202 -155.558)"/><path fill="none" stroke-width="2.311" d="M-234.498 644.937V614.48m-5.094 30.953V613.49m-5.248 32.933V613.24" font-size="12" transform="matrix(.427 0 0 .59348 598.202 -155.558)"/><path fill="none" stroke-width="2.572" d="M-229.057 644.688v-29.465" font-size="12" transform="matrix(.427 0 0 .59348 598.202 -155.558)"/><path fill="none" stroke-width="2.832" d="M-223.982 643.203v-27.485" font-size="12" transform="matrix(.427 0 0 .59348 598.202 -155.558)"/><path fill="none" stroke-width="3.092" d="M-218.541 642.459v-25.505" font-size="12" transform="matrix(.427 0 0 .59348 598.202 -155.558)"/><path fill="none" stroke-width="3.337" d="m-207.4 640.233.173-20.306m-5.882 21.296v-22.78" font-size="12" transform="matrix(.427 0 0 .59348 598.202 -155.558)"/><path fill="none" stroke-width="3.525" d="M-201.691 638.5v-17.832" font-size="12" transform="matrix(.427 0 0 .59348 598.202 -155.558)"/><path fill="none" stroke-width="3.785" d="M-196.463 637.053v-14.849" font-size="12" transform="matrix(.427 0 0 .59348 598.202 -155.558)"/><path fill="none" stroke-width="4.031" d="M-190.754 635.073v-11.63" font-size="12" transform="matrix(.427 0 0 .59348 598.202 -155.558)"/><path fill="none" stroke-width="4.276" d="M-184.886 634.084v-8.66" font-size="12" transform="matrix(.427 0 0 .59348 598.202 -155.558)"/><path fill="none" stroke-width="5.042" d="M-178.675 632.106v-4.209" font-size="12" transform="matrix(.427 0 0 .59348 598.202 -155.558)"/><path fill="none" stroke-width=".26" d="M-334.76 648.609v-37.873m13.353 39.112-.174-40.102m9.906 40.597v-40.846" font-size="12" transform="matrix(.427 0 0 .59348 598.202 -155.558)"/><path fill="#eac102" fill-rule="evenodd" d="M-347.212 599.983c-52.175.52-104.944.576-156.185 11.012-11.435 3.445-27.791 5.364-32.084 17.569-1.408 10.194 11.509 14.521 19.585 17.323 38.472 11.026 79.14 11.965 119.003 13.689 62.016 1.188 124.408 1.648 185.964-6.585 16.817-3.101 35.333-5.016 49.162-15.465 8.258-7.722-.865-18.518-9.993-20.739-31.314-11.47-65.465-12.692-98.584-15.028-25.596-1.333-51.237-1.759-76.868-1.776zm.144 12.269c134.017 0 171.535 17.87 171.535 17.87s-31.358 17.869-171.535 17.869c-140.623 0-171.507-17.87-171.507-17.87s37.043-17.87 171.507-17.87z" transform="matrix(.427 0 0 .59348 598.202 -155.558)"/><path fill="none" stroke-width=".394" d="M532.137 206.893s.015-.494-.506-1.306a6 6 0 0 0-.311-.435c-.713-.91-2.045-2.11-4.545-3.394-.004-.002-.01.001-.013 0-5.43-2.786-16.35-6.004-38.302-7.764h-.013a335 335 0 0 0-5.258-.383c-9.113-.585-19.924-.922-32.744-.922s-23.633.337-32.745.922c-1.823.117-3.582.248-5.272.383-20.263 1.625-31.128 4.496-36.951 7.12-.485.218-.945.43-1.363.644-2.082 1.069-3.363 2.093-4.142 2.924a7 7 0 0 0-.402.47 5 5 0 0 0-.312.435c-.52.812-.506 1.306-.506 1.306"/><path fill="none" stroke-width=".394" d="M385.324 198.013c1.162 7.791 1.743 7.791 1.743 7.791m23.032-11.979 1.028 8.249m24.336-9.428.576 8.217m26.218-8.217-.288 7.768m24.777-6.573-.576 8.366m25.023-5.229-2.161 8.218M368.62 192.944l4.467 8.218 8.93-3.138-1.151-10.159-8.067 2.838zm9.94-4.332 2.306 9.711m-11.093-3.586 9.364-3.884m-8.211 6.573 8.931-3.286m-7.347 5.677 7.923-2.69m10.498-11.102 2.646 9.025 9.374-1.059.995-10.177-8.469.96zm10.609-1.999.224 9.998m-10.081-5.99 9.952-1.691m-9.389 4.575 9.406-1.205m-8.357 3.895 8.296-.848m13.312-9.239 2.06 9.188 9.422-.41 1.645-10.085-8.51.374zm10.871-.819-.14 9.684m-10.111-6.808 10.039-1m-9.662 3.917 9.463-.553m-8.589 3.308 9.053-.296m15.292-8.665 2.26 9.62 10.721.17 2.365-9.932-8.515-.283zm12.935-.283-1.134 9.932m-9.17-7.401 10.084-.223m-9.916 3.161 9.476.179m-8.802 2.636 8.328.371m-9.525-8.658 1.134 9.931m85.463.474-4.466 8.218-8.931-3.138 1.153-10.16 8.067 2.84zm-9.939-4.332-2.306 9.71m11.093-3.585-9.364-3.884m8.212 6.573-8.932-3.286m7.347 5.676-7.923-2.689m-10.498-11.102-2.646 9.025-9.374-1.06-.995-10.177 8.469.961zm-10.608-1.999-.225 9.998m10.081-5.99-9.951-1.691m9.388 4.575-9.406-1.205m8.358 3.895-8.297-.848m-13.312-9.238-2.06 9.187-9.421-.409-1.646-10.086 8.51.374 4.618.933zm-10.87-.819.139 9.683m10.111-6.808-10.039-1m9.661 3.917-9.461-.553m8.589 3.308-9.053-.296"/></g><path fill="#eac102" fill-rule="evenodd" d="M43.025 310.608c.204 120.277-.41 240.567.311 360.835 3.833 107.937 86.48 206.523 192.018 229.318 97.635 23.777 206.936-18.953 262.045-103.22 33.005-47.127 45.16-105.45 42.438-162.221V310.608z" overflow="visible" style="marker:none" transform="translate(335.52 97.942)scale(.39375)"/><path fill="#0071bc" stroke="#000" stroke-linecap="round" stroke-width=".386" d="M450.334 425.818c40.668 0 73.42-32.75 73.42-73.419V249.612h-146.84v102.787c0 40.668 32.751 73.42 73.42 73.42z"/><path fill="#008f4c" stroke="#000" stroke-linecap="round" stroke-width=".386" d="M450.334 425.818c40.668 0 73.42-32.75 73.42-73.419V249.612h-73.42z"/><g stroke="#000"><path fill="#c8c4b7" fill-rule="evenodd" stroke-width=".197" d="m376.69 348.465 23.096 13.3 21.336 12.293 29.002 16.698v26.775l-22.813-13.13c-6.244-35.46-17.297-21.428-27.525-15.86L376.69 375.24z" font-size="12"/><path fill="none" stroke-width=".146" d="m450.072 394.124-8.911-5.153c-.569-.276-.811-.629-.784-1.045v-1.677m9.695 11.175-8.911-5.153c-.569-.276-.811-.629-.784-1.045v-1.678m-.727-1.45-8.91-5.154c-.57-.275-.812-.628-.784-1.045v-1.677m9.694 11.175-8.911-5.153c-.569-.276-.812-.628-.784-1.045v-1.678m-.727-1.45-8.911-5.154c-.568-.275-.811-.628-.784-1.045v-1.677m9.695 11.175-8.911-5.153c-.568-.276-.811-.628-.784-1.045v-1.677m-.727-1.451-8.91-5.153c-.569-.276-.812-.629-.784-1.045v-1.678m9.694 11.175-8.91-5.153c-.569-.275-.812-.628-.784-1.045v-1.677m-.727-1.451-8.911-5.153c-.569-.276-.811-.628-.784-1.045v-1.677m9.696 11.175-8.912-5.153c-.568-.276-.81-.628-.783-1.045v-1.678m-.727-1.45-8.91-5.154c-.57-.275-.812-.628-.784-1.045v-1.677m9.694 11.175-8.911-5.153c-.569-.275-.811-.628-.784-1.045v-1.677m-.727-1.451-8.911-5.153c-.568-.276-.811-.629-.784-1.045v-1.678m9.695 11.175-8.911-5.153c-.568-.275-.811-.628-.784-1.045v-1.677m-.727-1.45-8.91-5.154c-.57-.275-.812-.628-.784-1.045v-1.677m9.694 11.175-8.91-5.153c-.57-.276-.812-.628-.784-1.045v-1.678m82.646 53.85-8.91-5.153c-.57-.275-.812-.628-.784-1.045v-1.677m9.694 11.175-8.91-5.153c-.57-.276-.812-.628-.784-1.045v-1.677m-.728-1.451-8.91-5.153c-.569-.276-.812-.629-.784-1.045v-1.678m9.694 11.175-8.911-5.153c-.569-.275-.812-.628-.784-1.045v-1.677m-.727-1.451-5.804-3.356-3.89-4.52m9.694 11.176-4.394-2.541m-16.449-12.813-8.911-5.153c-.569-.275-.811-.628-.784-1.045v-1.677m5.282 8.623-4.498-2.6c-.569-.277-.811-.629-.784-1.046v-1.677m-.727-1.451-8.91-5.153c-.57-.276-.812-.629-.784-1.045v-1.678m9.694 11.175-8.91-5.152c-.569-.276-.811-.628-.784-1.045v-1.678m-.727-1.45-8.911-5.154c-.568-.275-.811-.628-.784-1.045v-1.677m9.695 11.175-8.911-5.153c-.568-.276-.811-.628-.784-1.045v-1.677m-.727-1.451-8.91-5.153c-.57-.276-.812-.629-.784-1.045v-1.678m9.694 11.175-8.91-5.153c-.57-.275-.812-.628-.784-1.045v-1.677m82.646 53.85-8.91-5.153c-.57-.276-.812-.629-.784-1.045v-1.677m9.694 11.175-8.91-5.153c-.57-.276-.812-.629-.784-1.045v-1.678m-.728-1.45-8.91-5.154c-.569-.275-.812-.628-.784-1.045v-1.677m9.694 11.175-8.911-5.153c-.569-.276-.812-.628-.784-1.045v-1.678m-.727-1.45-3.632-2.101m3.632 5.4-3.4-1.966m-22.266-16.176-4.088-2.364c-.569-.276-.811-.628-.784-1.045v-1.677m4.114 7.947-3.33-1.925c-.569-.276-.811-.628-.784-1.045v-1.678m-.727-1.45-8.91-5.154c-.57-.275-.812-.628-.784-1.045v-1.677m9.694 11.175-8.91-5.153c-.569-.275-.811-.628-.784-1.045v-1.677m-.727-1.451-8.911-5.153c-.568-.276-.811-.629-.784-1.045v-1.678m9.695 11.175-8.911-5.153c-.568-.275-.811-.628-.784-1.045v-1.677m-.727-1.45-8.91-5.154c-.57-.275-.812-.628-.784-1.045v-1.677m9.694 11.175-8.91-5.153c-.57-.276-.812-.628-.784-1.045v-1.678m82.646 53.85-8.91-5.153c-.57-.275-.812-.628-.784-1.045v-1.677m-.728 1.849-8.91-5.153c-.569-.276-.812-.629-.784-1.045v-1.678m-.727 1.849-2.787-1.612m-23.292-13.47-3.676-2.125c-.568-.275-.81-.628-.783-1.045v-1.677m-.727 1.849-8.91-5.153c-.57-.276-.812-.629-.784-1.045v-1.678m-.728 1.849-8.91-5.153c-.569-.276-.812-.628-.784-1.045v-1.677m-.727 1.848-8.911-5.153c-.569-.275-.812-.628-.784-1.045v-1.677"/><path fill="#c8c4b7" fill-rule="evenodd" stroke-linecap="round" stroke-linejoin="round" stroke-width=".197" d="M411.555 371.981c18.7 15.441 18.289 22.989 17.498 40.053l-4.38-1.219c.545-13.987.761-20.262-12.22-32.583-11.053 4.196-11.21 10.895-11.228 19.57l-1.544 6.086-5.5-1.526c-.152-12.428-1.214-24.92 17.374-30.38z"/><path fill="#c8c4b7" fill-rule="evenodd" stroke-width=".197" d="M412.418 378.086c1.501 1.326 2.745 2.672 3.837 3.972-1.942.474-7.341 2.647-9.952 6.765l-5.597-.209c1.563-4.383 4.856-8.107 11.712-10.528z"/><path fill="none" stroke-width=".197" d="m414.145 380.09 2.663-3.492m.829 7.001 3.297-2.557m-.211 7.088c.423-.105 3.809-2.433 3.809-2.433m-1.482 6.877 4.55-1.27m-2.857 6.666 4.338-.212m-19.785-18.515-1.904-5.819m-1.288 8.049-3.05-5.51m-.186 8.516-4.046-5.13m1.762 9.38-4.83-3.56m4.01 7.431-5.068-2.46"/><path fill="#b3b3b3" fill-rule="evenodd" stroke-width=".197" d="M450.143 445.797 421.141 429.1v-26.775l29.002 16.697zm-73.434-69.066 23.095 13.301v26.775l-23.095-13.3z"/><path fill="#999" fill-rule="evenodd" stroke-width=".197" d="m450.143 419.022-26.947-15.516-2.043-1.181.012-.012 3.581-2.055a46 46 0 0 1 .086 1.82l25.311 14.582zm-73.434-44.653 24.092 13.876 5.853.016 1.58 1.519c.083.043.132.08-.034.095l-8.715-.027-22.776-13.117z"/><path fill="#b3b3b3" stroke-width=".195" d="M408.321 389.896h-8.574v26.198h8.574z"/><path fill="#c8c4b7" fill-rule="evenodd" stroke-width=".197" d="m523.793 348.465-23.096 13.3-21.337 12.293-29.002 16.698v26.775l22.813-13.13c6.245-35.46 17.298-21.428 27.526-15.86l23.096-13.301z" font-size="12"/><path fill="none" stroke-width=".146" d="m450.41 394.124 8.912-5.153c.569-.276.811-.629.784-1.045v-1.677m-9.695 11.175 8.911-5.153c.569-.276.811-.629.784-1.045v-1.678m.727-1.45 8.91-5.154c.569-.275.812-.628.784-1.045v-1.677m-9.694 11.175 8.91-5.153c.57-.276.812-.628.784-1.045v-1.678m.728-1.45 8.911-5.154c.568-.275.811-.628.784-1.045v-1.677m-9.695 11.175 8.911-5.153c.568-.276.811-.628.784-1.045v-1.677m.726-1.451 8.911-5.153c.569-.276.812-.629.784-1.045v-1.678m-9.695 11.175 8.911-5.153c.569-.275.812-.628.784-1.045v-1.677m.727-1.451 8.911-5.153c.568-.276.811-.628.784-1.045v-1.677m-9.696 11.175 8.911-5.153c.569-.276.812-.628.784-1.045v-1.678m.727-1.45 8.91-5.154c.57-.275.812-.628.784-1.045v-1.677m-9.694 11.175 8.911-5.153c.569-.275.811-.628.784-1.045v-1.677m.727-1.451 8.91-5.153c.57-.276.812-.629.785-1.045v-1.678m-9.695 11.175 8.91-5.153c.57-.275.812-.628.785-1.045v-1.677m.726-1.45 8.912-5.154c.568-.275.81-.628.783-1.045v-1.677m-9.695 11.175 8.912-5.153c.568-.276.81-.628.783-1.045v-1.678m-82.646 53.85 8.91-5.153c.57-.275.812-.628.784-1.045v-1.677m-9.694 11.175 8.91-5.153c.57-.276.812-.628.784-1.045v-1.677m.728-1.451 8.91-5.153c.569-.276.812-.629.784-1.045v-1.678m-9.694 11.175 8.91-5.153c.57-.275.812-.628.784-1.045v-1.677m.728-1.451 5.804-3.356 3.89-4.52m-9.694 11.176 4.394-2.541m16.449-12.813 8.911-5.153c.568-.275.811-.628.784-1.045v-1.677m-5.282 8.623 4.498-2.6c.568-.277.811-.629.784-1.046v-1.677m.727-1.451 8.91-5.153c.57-.276.812-.629.784-1.045v-1.678m-9.694 11.175 8.91-5.152c.569-.276.811-.628.784-1.045v-1.678m.727-1.45 8.911-5.154c.568-.275.811-.628.784-1.045v-1.677m-9.695 11.175 8.911-5.153c.568-.276.811-.628.784-1.045v-1.677m.726-1.451 8.912-5.153c.568-.276.81-.629.783-1.045v-1.678m-9.695 11.175 8.912-5.153c.568-.275.81-.628.783-1.045v-1.677m-82.646 53.85 8.91-5.153c.57-.276.812-.629.784-1.045v-1.677m-9.694 11.175 8.91-5.153c.57-.276.812-.629.784-1.045v-1.678m.728-1.45 8.91-5.154c.569-.275.812-.628.784-1.045v-1.677m-9.694 11.175 8.91-5.153c.57-.276.812-.628.784-1.045v-1.678m.728-1.45 3.632-2.101m-3.632 5.4 3.399-1.966m22.266-16.176 4.09-2.364c.567-.276.81-.628.783-1.045v-1.677m-4.114 7.947 3.33-1.925c.568-.276.811-.628.784-1.045v-1.678m.727-1.45 8.91-5.154c.57-.275.812-.628.784-1.045v-1.677m-9.694 11.175 8.91-5.153c.569-.275.811-.628.784-1.045v-1.677m.727-1.451 8.911-5.153c.568-.276.811-.629.784-1.045v-1.678m-9.695 11.175 8.911-5.153c.568-.275.811-.628.784-1.045v-1.677m.726-1.45 8.912-5.154c.568-.275.81-.628.783-1.045v-1.677m-9.695 11.175 8.912-5.153c.568-.276.81-.628.783-1.045v-1.678m-82.646 53.85 8.91-5.153c.57-.275.812-.628.784-1.045v-1.677m.728 1.849 8.91-5.153c.569-.276.812-.629.784-1.045v-1.678m.727 1.849 2.787-1.612m23.292-13.47 3.675-2.125c.569-.275.812-.628.784-1.045v-1.677m.727 1.849 8.91-5.153c.57-.276.812-.629.784-1.045v-1.678m.728 1.849 8.91-5.153c.569-.276.812-.628.784-1.045v-1.677m.727 1.848 8.911-5.153c.569-.275.811-.628.784-1.045v-1.677"/><path fill="#c8c4b7" fill-rule="evenodd" stroke-linecap="round" stroke-linejoin="round" stroke-width=".197" d="M488.927 371.981c-18.698 15.441-18.288 22.989-17.497 40.053l4.38-1.219c-.545-13.987-.761-20.262 12.22-32.583 11.053 4.196 11.21 10.895 11.228 19.57l1.544 6.086 5.5-1.526c.152-12.428 1.214-24.92-17.375-30.38z"/><path fill="#c8c4b7" fill-rule="evenodd" stroke-width=".197" d="M488.065 378.086a37 37 0 0 0-3.837 3.972c1.942.474 7.341 2.647 9.952 6.765l5.597-.209c-1.563-4.383-4.856-8.107-11.712-10.528z"/><path fill="none" stroke-width=".197" d="m486.338 380.09-2.663-3.492m-.829 7.001-3.297-2.557m.211 7.088c-.423-.105-3.809-2.433-3.809-2.433m1.482 6.877-4.55-1.27m2.857 6.666-4.338-.212m19.785-18.515 1.904-5.819m1.288 8.049 3.05-5.51m.186 8.516 4.046-5.13m-1.763 9.38 4.83-3.56m-4.009 7.431 5.068-2.46"/><path fill="#b3b3b3" fill-rule="evenodd" stroke-width=".197" d="m450.34 445.797 29.002-16.697v-26.775l-29.002 16.697zm73.434-69.066-23.096 13.301v26.775l23.096-13.3z"/><path fill="#999" fill-rule="evenodd" stroke-width=".197" d="m450.34 419.022 26.947-15.516 2.043-1.181-.013-.012-3.58-2.055a46 46 0 0 0-.086 1.82L450.34 416.66zm73.434-44.653-24.093 13.876-5.853.016-1.579 1.519c-.083.043-.132.08.034.095l8.715-.027 22.776-13.117z"/><path fill="#b3b3b3" stroke-width=".195" d="M492.162 389.896h8.574v26.198h-8.574z"/><path fill="gray" fill-rule="evenodd" stroke-width=".393" d="M523.805 345.482v-9.45l-73.438 42.286-73.438-42.286v9.45l73.438 42.286z"/><path fill="none" stroke-width=".393" d="m457.017 382.973-6.869-3.955m64.619-29.22-6.869-3.955m-7.568 12.249-6.87-3.955m-7.568 12.249-6.869-3.955m-7.568 12.249-6.87-3.955"/><g fill-rule="evenodd" stroke-width=".197"><path fill="#4d4d4d" d="M523.805 336.82v-1.575l-73.438 42.285-73.438-42.285v1.575l73.438 42.285z"/><path fill="#666" d="M523.805 336.032v-3.15l-73.438 42.286-73.438-42.286v3.15l73.438 42.286z"/><path fill="#4d4d4d" d="M523.805 348.632v-1.575l-73.438 42.286-73.438-42.286v1.575l73.438 42.286z"/><path fill="#666" d="M523.805 347.845v-3.15l-73.438 42.285-73.438-42.285v3.15l73.438 42.285z"/></g><path fill="#c8c4b7" stroke-width=".197" d="M450.342 418.95v26.715z"/><path fill="none" stroke-width=".393" d="m392.442 345.843-6.869 3.956m64.619 29.219-6.869 3.956m-7.568-12.249-6.87 3.955m-7.568-12.249-6.869 3.955m-7.568-12.249-6.87 3.955"/></g><path fill="#eac102" fill-rule="evenodd" d="M43.012 310.599c.204 120.276-.408 240.575.313 360.843 3.833 107.937 86.494 206.518 192.03 229.313 97.637 23.777 206.923-18.953 262.032-103.219 33.005-47.127 45.16-105.447 42.438-162.219V310.6H43.012zm62.125 74.593h372.906v261.063c0 103.285-83.183 186.437-186.468 186.437S105.137 749.54 105.137 646.255z" overflow="visible" style="marker:none" transform="translate(335.52 97.942)scale(.39375)"/><path fill="none" stroke="#000" stroke-linecap="round" stroke-width=".394" d="M450.334 425.818c40.668 0 73.42-32.75 73.42-73.419V249.612h-146.84v102.787c0 40.668 32.751 73.42 73.42 73.42z"/><path fill="#eac102" fill-rule="evenodd" stroke="#000" stroke-width=".178" d="M431.628 317.926h-3.075v-8.397h2.152v.933h.615c.308 0 .591.164.591.457s-.283.476-.59.476h-.616v.621l.923.934z"/><path fill="#eac102" fill-rule="evenodd" stroke="#000" stroke-width=".288" d="M63.044 79.5h3v-1V80m-3 2.5h3v-1V83" class="fil2 str1" transform="matrix(.61493 0 0 .62203 389.786 264.742)"/><path fill="#eac102" fill-rule="evenodd" stroke="#000" stroke-width=".178" d="m407.956 287.407 8.035-4.367m-.071.053 7.686 2.93m-26.682 5.908 5.16-6.506m-7.534 16.309 4.92 6.842"/><path fill="#0071bc" fill-rule="evenodd" stroke="#000" stroke-width=".178" d="M407.926 305.174c1.23 2.489 2.46 4.355 5.227 5.288"/><path fill="#eac102" fill-rule="evenodd" stroke="#000" stroke-width=".178" d="M415.332 310.772h1.23l-.308-35.766c-.006-.182-.17-.269-.29-.274s-.321.098-.324.274z"/><path fill="#eac102" fill-rule="evenodd" stroke="#000" stroke-width=".172" d="m403.579 306.744.912-.069-2.524-22.51c-.016-.115-.144-.16-.234-.157s-.232.08-.222.191z"/><path fill="#eac102" fill-rule="evenodd" stroke="#000" stroke-width=".178" d="m389.874 303.764 9.994 4.812-.264.562-9.994-4.812c-.144-.075-.156-.254-.103-.394.054-.139.244-.205.368-.168z"/><path fill="#eac102" fill-rule="evenodd" stroke="#000" stroke-width=".178" d="m428.246 317.926 2.634-10.064c-9.09 3.533-20.775 3.222-31.674.576l.446 1.713 1.23.621c.922 2.489 1.844 7.154 7.379 7.154z"/><path fill="#eac102" fill-rule="evenodd" stroke="#000" stroke-width=".178" d="M401.58 309.3c.839 6.138 4.836 7.693 8.525 7.693h11.377c3.689 0 5.534-1.555 7.956-3.59l1.091-4.138c-7.51 3.063-23.498 4.929-28.949.035z"/><path fill="#eac102" fill-rule="evenodd" stroke="#000" stroke-width=".178" d="M401.813 310.572c8.292 5.799 21.82 2.689 28.485-.43l-.608 2.306c-4.519 5.167-24.196 5.478-27.07.4-.479-1.006-.582-1.402-.807-2.276z"/><path fill="#eac102" fill-rule="evenodd" stroke="#000" stroke-width=".178" d="M402.074 311.516c10.799 6.72 24.942 1.434 28.026-.625l-.206.782c-5.953 4.387-21.326 5.942-27.47.752-.144-.304-.248-.61-.35-.91zm29.246-2.92 2.152-4.666-10.146 2.488c-.307 1.556-.615 2.178-2.152 3.733z"/><path fill="#c83737" fill-rule="evenodd" stroke="#000" stroke-width=".178" d="m430.828 308.69 1.937-4.2-9.131 2.24c-.277 1.4-.554 1.96-1.938 3.359z"/><path fill="#eac102" fill-rule="evenodd" stroke="#000" stroke-width=".178" d="M416.87 312.328h3.69v.31h-3.69z"/><path fill="#eac102" fill-rule="evenodd" stroke="#000" stroke-width=".178" d="m417.213 313.47-.615-10.886m1.297 10.723-.616-10.885m1.297 10.723-.615-10.886m1.297 10.724-.615-10.885m1.297 10.723-.616-10.886" class="fil2 str1"/><path fill="#eac102" fill-rule="evenodd" stroke="#000" stroke-width=".178" d="m402.33 285.612 5.596 5.29"/><path fill="#eac102" fill-rule="evenodd" stroke="#000" stroke-width=".288" d="m25.544 74.5 4.5 1v.5l-4.5-1z" transform="matrix(.61493 0 0 .62203 389.786 264.742)"/><path fill="#eac102" fill-rule="evenodd" stroke="#000" stroke-width=".178" d="m405.8 312.328-1.536-9.33m2.176 9.474-1.538-9.33m2.176 9.474-1.537-9.33m2.176 9.474-1.538-9.33m2.177 9.475-1.538-9.33" class="fil2 str1"/><path fill="#e3e4e5" fill-rule="evenodd" stroke="#000" stroke-width=".178" d="m423.905 285.735-15.988 1.866c-3.69 7.776-3.075 12.44 0 20.216 5.227-3.732 10.761-3.421 14.758.311-2.152-9.33-.615-17.106 1.23-22.393z"/><path fill="#e3e4e5" fill-rule="evenodd" stroke="#000" stroke-width=".178" d="M397.393 307.327c-2.74-3.431-2.74-10.294-.685-15.44l11.644-1.03c-1.713 5.833-3.082 11.666 0 18.872-4.11-2.745-9.59-3.432-10.959-2.402z"/><path fill="#eac102" fill-rule="evenodd" stroke="#000" stroke-width=".375" d="m66.544 68.713-6 1V69l6-1z" transform="matrix(.61493 0 0 .36686 389.786 282.61)"/><path fill="#e3e4e5" fill-rule="evenodd" stroke="#000" stroke-width=".178" d="m390.564 304.092 6.925-10.577c-1.314 6.086-1.301 9.727-1.125 13.338-1.6-1.958-3.931-2.599-5.8-2.761z"/><path fill="#eac102" fill-rule="evenodd" stroke="#000" stroke-width=".288" d="M39.544 23h6l-1.5 6h-3z" transform="matrix(.61493 0 0 .62203 389.786 264.742)"/><path fill="#c83737" fill-rule="evenodd" stroke="#000" stroke-width=".178" d="M414.172 275.249a1.68 1.68 0 0 1 1.52 0v1.78c-.43-.242-1.057-.242-1.52 0zm-1.841 0v1.78c-.847-.478-2.32-.242-3.2.081l1.28-1.052-1.521-.567c1.04-.323 2.32-.647 3.441-.242zm1.841 2.266c-.56.243-1.28.243-1.841 0v-1.78c.52.242 1.28.242 1.84 0v1.78z"/><path fill="#eac102" fill-rule="evenodd" stroke="#000" stroke-width=".178" d="m390.2 303.775 11.65-17.971"/><path fill="#e3e4e5" fill-rule="evenodd" stroke="#000" stroke-width=".639" d="M426.26 850.527c-.93.027-1.876.114-2.8.114-2.91 0-5.446-.141-7.703-.38a52 52 0 0 1-6.062-1.005 57 57 0 0 1-5.01-1.384c-1.568-.506-3.074-1.048-4.61-1.593-1.535-.546-3.114-1.1-4.82-1.612a59 59 0 0 0-5.62-1.404 68 68 0 0 0-7.072-1.005c-2.665-.239-5.683-.38-9.136-.38-3.403 0-6.303.161-8.861.418a56 56 0 0 0-6.715 1.062 49 49 0 0 0-5.22 1.48c-1.58.54-3.055 1.138-4.504 1.706-1.45.568-2.886 1.132-4.442 1.65a44 44 0 0 1-5.114 1.385c-1.901.392-4.042.701-6.526.89s-5.325.261-8.63.172c-3.255-.09-6.092-.28-8.608-.55a73 73 0 0 1-6.694-1.043 71 71 0 0 1-5.41-1.31 121 121 0 0 1-4.736-1.46c-1.535-.5-3.055-1.002-4.672-1.479a66 66 0 0 0-5.242-1.327 70 70 0 0 0-6.44-1.005 98 98 0 0 0-8.21-.588c-3.058-.09-5.748 0-8.166.19-2.42.189-4.563.498-6.526.89a54 54 0 0 0-5.43 1.404 124 124 0 0 0-4.884 1.65 148 148 0 0 1-4.883 1.67 63 63 0 0 1-5.43 1.478 58 58 0 0 1-6.526 1.062 77 77 0 0 1-8.166.418c-3.059 0-5.759-.16-8.167-.418a57 57 0 0 1-6.483-1.062 61 61 0 0 1-5.368-1.479c-1.67-.536-3.257-1.1-4.841-1.669-1.584-.568-3.178-1.131-4.862-1.65s-3.46-1.01-5.431-1.403a56 56 0 0 0-6.588-.892 74 74 0 0 0-6.02-.208c-.732.003-1.475-.004-2.252.019-3.108.09-5.843.318-8.294.588-2.45.27-4.63.607-6.609 1.005s-3.76.85-5.452 1.327c-1.691.477-3.292.979-4.883 1.48-1.59.5-3.167.992-4.841 1.46s-3.446.91-5.389 1.309a72 72 0 0 1-6.462 1.043c-2.395.27-5.07.46-8.104.55-1.267.037-2.523-.062-3.788-.076a149 149 0 0 0 10.503 17.562c.428-.04.979-.049 1.39-.095a73 73 0 0 0 6.461-1.005 73 73 0 0 0 5.389-1.328c1.674-.477 3.25-.979 4.841-1.48 1.59-.5 3.192-1.016 4.883-1.497a70 70 0 0 1 5.452-1.328c1.98-.398 4.158-.717 6.61-.986 2.45-.27 5.185-.46 8.293-.55s5.825-.02 8.272.17 4.616.5 6.588.892 3.746.866 5.43 1.384a112 112 0 0 1 4.863 1.631c1.584.568 3.172 1.143 4.841 1.688a58 58 0 0 0 5.368 1.498c1.946.438 4.074.787 6.483 1.044 2.408.256 5.108.398 8.167.398 3.058 0 5.748-.142 8.166-.398 2.42-.257 4.563-.606 6.526-1.044a60 60 0 0 0 5.43-1.498c1.689-.545 3.287-1.12 4.883-1.688a110 110 0 0 1 4.884-1.63 57 57 0 0 1 5.43-1.385 55 55 0 0 1 6.526-.892c2.418-.19 5.108-.26 8.166-.17 3.108.09 5.804.28 8.21.55 2.405.27 4.53.588 6.44.986s3.624.846 5.242 1.328c1.617.481 3.137.997 4.672 1.498 1.536.5 3.08 1.002 4.736 1.479 1.657.477 3.426.93 5.41 1.328s4.177.735 6.694 1.005c2.516.27 5.353.441 8.608.53 3.305.09 6.147.02 8.63-.17s4.625-.499 6.526-.891c1.9-.393 3.559-.847 5.114-1.366 1.556-.518 2.993-1.082 4.442-1.65a108 108 0 0 1 4.504-1.669c1.58-.54 3.27-1.08 5.22-1.517s4.157-.767 6.715-1.024 5.458-.417 8.861-.417c3.453 0 6.47.14 9.136.38 2.664.238 4.99.557 7.072.966a59 59 0 0 1 5.62 1.404c1.706.511 3.285 1.066 4.82 1.612 1.536.545 3.042 1.087 4.61 1.593a57 57 0 0 0 5.01 1.384c1.81.41 3.804.767 6.062 1.005.03.004.074-.003.105 0a131 131 0 0 0 10.398-17.675zm12.061-37.02c-2.008.253-4.014.519-6.041.682-2.96.24-5.909.36-8.82.36-2.91 0-5.446-.12-7.703-.36a52 52 0 0 1-6.062-1.005 57 57 0 0 1-5.01-1.384c-1.568-.506-3.074-1.048-4.61-1.593-1.535-.546-3.114-1.1-4.82-1.612a59 59 0 0 0-5.62-1.404 68 68 0 0 0-7.072-1.005c-2.665-.239-5.683-.38-9.136-.38-3.403 0-6.303.161-8.861.418a56 56 0 0 0-6.715 1.062 49 49 0 0 0-5.22 1.48c-1.58.54-3.055 1.138-4.504 1.706-1.45.568-2.886 1.132-4.442 1.65a44 44 0 0 1-5.114 1.366c-1.901.392-4.042.701-6.526.891s-5.325.26-8.63.17c-3.255-.089-6.092-.28-8.608-.55a73 73 0 0 1-6.694-1.023 71 71 0 0 1-5.41-1.309c-1.656-.468-3.2-.96-4.736-1.46-1.535-.501-3.055-1.017-4.672-1.499a64 64 0 0 0-5.242-1.327c-1.91-.398-4.035-.717-6.44-.986a98 98 0 0 0-8.21-.588c-3.058-.09-5.748-.02-8.166.17-2.42.19-4.563.5-6.526.892-1.962.392-3.742.88-5.43 1.403a124 124 0 0 0-4.884 1.65c-1.596.568-3.194 1.148-4.883 1.688a62 62 0 0 1-5.43 1.48 58 58 0 0 1-6.526 1.061c-2.418.257-5.108.399-8.166.399s-5.759-.142-8.167-.399a57 57 0 0 1-11.85-2.54c-1.67-.541-3.258-1.12-4.842-1.689-1.584-.568-3.178-1.131-4.862-1.65s-3.46-1.01-5.431-1.403a56 56 0 0 0-6.588-.892 74 74 0 0 0-6.02-.208 90 90 0 0 0-2.252.038c-3.108.09-5.843.318-8.294.588-2.45.27-4.63.588-6.609.986s-3.76.846-5.452 1.327c-1.691.482-3.292.998-4.883 1.499-1.59.5-3.167.992-4.841 1.46s-3.446.91-5.389 1.309A72 72 0 0 1 131.45 814c-2.395.27-5.07.46-8.104.55-3.083.09-6.165.019-9.219-.17-2.418-.151-4.788-.42-7.135-.703a130 130 0 0 0 4.757 18.416c.8.066 1.572.177 2.378.227 3.054.19 6.136.26 9.22.17a99 99 0 0 0 8.103-.55c2.396-.269 4.52-.587 6.462-.985a73 73 0 0 0 5.389-1.328c1.674-.477 3.25-.978 4.841-1.48 1.59-.5 3.192-1.016 4.883-1.497a70 70 0 0 1 5.452-1.328c1.98-.398 4.158-.717 6.61-.986a103 103 0 0 1 8.293-.55c3.108-.09 5.825-.02 8.272.17s4.616.5 6.588.892 3.746.847 5.43 1.365c1.685.519 3.279 1.082 4.863 1.65s3.172 1.143 4.841 1.688a58 58 0 0 0 5.368 1.499c1.946.437 4.074.767 6.483 1.024a77 77 0 0 0 8.167.417c3.058 0 5.748-.16 8.166-.417 2.42-.257 4.563-.587 6.526-1.024a60 60 0 0 0 5.43-1.499c1.689-.545 3.287-1.12 4.883-1.688a110 110 0 0 1 4.884-1.63 57 57 0 0 1 5.43-1.385 55 55 0 0 1 6.526-.891c2.418-.19 5.108-.26 8.166-.171 3.108.09 5.804.28 8.21.55 2.405.27 4.53.588 6.44.986s3.624.846 5.242 1.328c1.617.481 3.137.997 4.672 1.498 1.536.5 3.08 1.002 4.736 1.48 1.657.476 3.426.929 5.41 1.327s4.177.716 6.694.986c2.516.27 5.353.46 8.608.55 3.305.09 6.147.019 8.63-.17 2.484-.19 4.625-.5 6.526-.892 1.9-.393 3.559-.847 5.114-1.366 1.556-.518 2.993-1.082 4.442-1.65s2.924-1.147 4.504-1.688 3.27-1.06 5.22-1.498 4.157-.767 6.715-1.024 5.458-.417 8.861-.417c3.453 0 6.47.14 9.136.38 2.664.238 4.99.538 7.072.947 2.082.41 3.914.911 5.62 1.423 1.706.511 3.285 1.066 4.82 1.612 1.536.545 3.042 1.087 4.61 1.593s3.198.975 5.01 1.384c1.81.41 3.804.748 6.062.987 2.257.238 4.793.379 7.703.379s5.86-.14 8.82-.38c.424-.034.838-.113 1.263-.151 1.94-6.066 3.633-12.209 4.778-18.453z" overflow="visible" style="marker:none" transform="translate(365.472 171.572)scale(.17792)"/><path fill="#806600" d="m476.51 294.253-.74.112c-.18-.045-.427.083-.547.282 0 0-3.124 4.943-4.334 6.685-.138-.063-.226-.099-.226-.099-.17-.092-.413-.022-.548.155 0 0-3.17 4.17-4.512 5.432a35.292 41.718 0 0 0 3.513 5.911c2.491 3.498 5.683 6.893 9.095 9.514h21.264c2.277-2.198 4.412-4.977 6.513-7.867a6.8 8.038 0 0 1-.857-.422l-.358-.212c-.36-.212-.702-.408-1.095-.549a4.1 4.1 0 0 0-1.417-.238c-.698 0-1.164-.037-1.786-.282-.1-.04-.188-.094-.285-.14l-.798-1.169c-.127-.19-.62-.352-.62-.352-.182 0-.422-.158-.535-.366l-1.536-2.744c-.096-.225-.975-.592-1.071-.816l-.989-2.308c-.096-.223-.329-.395-.512-.38 0 0-.25.023-.535.098s-.606.211-.762.437c-.519.395-1.076.737-1.631 1.055s-1.107.605-1.608.873c-.21-.59-.503-1.127-.821-1.647-.319-.52-.665-1.014-1.012-1.52a18 18 0 0 1-.988-1.576 7.8 7.8 0 0 1-.715-1.774c-.104-.216-.323-.491-.488-.605 0 0-.32-.004-.81-.154a5.29 6.254 0 0 1-.845-.352 5.463 6.458 0 0 1-.976-.676 8 8 0 0 1-1.06-1.168 22 22 0 0 1-1-1.464c-.607-.953-1.047-1.759-1.047-1.759-.116-.205-.354-.359-.536-.337l-2.786.422z"/><path fill="url(#b)" stroke="#000" d="m334.438 431.75 7.312-.938c.478-.047 1.102.296 1.406.75 0 0 1.157 1.79 2.75 3.907.797 1.059 1.697 2.214 2.625 3.25.929 1.036 1.9 1.949 2.781 2.594a14.3 14.3 0 0 0 2.563 1.5 14 14 0 0 0 2.219.78c1.285.334 2.125.344 2.125.344.433.252 1.008.864 1.281 1.344.436 1.435 1.096 2.72 1.875 3.938s1.682 2.376 2.594 3.5 1.82 2.22 2.656 3.375 1.604 2.347 2.156 3.656c1.314-.594 2.762-1.231 4.219-1.938s2.922-1.464 4.281-2.343c.41-.5 1.25-.801 2-.969a11 11 0 0 1 1.406-.219c.48-.032 1.09.349 1.344.844l2.594 5.125c.254.497 2.56 1.313 2.813 1.813l4.03 6.093c.296.46.927.813 1.407.813 0 0 1.292.36 1.625.781l2.094 2.594c.255.104.488.225.75.312 1.631.544 2.856.625 4.687.625 1.505 0 2.686.219 3.719.531s1.93.747 2.875 1.22l.938.468c.828.414 1.543.694 2.25.938 1.062-1.237 2.13-2.402 3.187-3.657 1.816-2.156 3.506-4.413 5.125-6.75 0-3.254-8.781-21.781-8.781-21.781-.24-.507-.801-.94-1.281-.969l-14.188-2.875c-1.52-1.445-5.625-11.093-5.625-11.094-.275-.479-.866-1.036-1.313-1.25l-4.906-1.906c-1.5-1.27-3.027-11.918-3.531-14.375 0 0-7.329-7.367-9.156-9.594s-5.438-4.968-5.438-4.968c-.407-.31-1.099-.35-1.531-.094 0 0-4.905 4.06-8.906 6.594-.785 2.49-3.292 8.191-5.25 12.344-1.873-.889-3.188-1.72-3.188-1.72-.423-.276-1.04-.138-1.375.282 0 0-2.677 3.813-3.687 5.969-1.512 3.225-6.148 6.607-7.531 11.156z" transform="matrix(.38098 0 0 .45036 349.093 99.812)"/><path fill="none" stroke="#1b1a1c" stroke-linecap="round" stroke-linejoin="round" stroke-width=".793" d="M770.85 499.033c.504 2.457 2.018 13.099 3.519 14.368l4.91 1.89c.447.214 1.039.782 1.314 1.262 0 0 4.113 9.637 5.633 11.082l14.166 2.89c.48.029 1.069.467 1.31.973 0 0 8.781 18.522 8.781 21.776a90 90 0 0 1-5.155 6.744c-6.467 7.684-13.478 15.268-21.033 21.129l-56.532-.11c-8.272-5.845-15.962-13.383-22.391-21.02a92.6 92.6 0 0 1-9.207-13.124c3.52-2.802 11.826-12.066 11.826-12.066.354-.394 1.012-.549 1.461-.344 0 0 .206.094.57.233 3.176-3.868 11.399-14.853 11.399-14.853.315-.442.96-.72 1.433-.62l1.915-.242c1.384-4.549 6.047-7.925 7.558-11.15 1.01-2.156 3.679-5.993 3.679-5.993.335-.42.954-.54 1.377-.264 0 0 1.304.822 3.176 1.71 1.958-4.152 4.47-9.855 5.254-12.346 4-2.534 8.919-6.598 8.919-6.598.432-.256 1.118-.214 1.525.095 0 0 3.608 2.74 5.436 4.967s9.156 9.611 9.156 9.611zm-60.827 35.683c1.936.743 8.324 2.761 11.72-1.375m3.026-14.34 7.32-.93c.478-.047 1.118.286 1.422.74 0 0 4.609 7.18 8.138 9.76s6.904 2.623 6.904 2.623c.433.252 1.01.854 1.283 1.334 0 0 4.231 7.494 5.177 8.646.946 1.15 3.323 3.308 4.269 5.689m-18.725-43.559c3.835 1.818 10.069 3.912 12.439-.215m-7.183-12.13c2.332 1.304 7.107 2.087 8.67 1.688m16.366 6.386c.37.372-.345 1.706-.721 2.07 0 0-3.52 3.369-4.403 6.594m-32.37 10.922c-1.26 3.07-4.682 6.583-5.564 7.658m20.762 4.917c-1.638 3.378-3.244 7.061-4.631 8.75m-25.77 32.275c4.093-3.405 7.244-5.094 9.387-5.094s14.002-1.431 14.002-1.431c.478-.058 1.03-.542 1.226-1.076 0 0 1.785-4.864 2.415-7.321s5.043-5.837 7.31-6.91c2.268-1.075 14.303-6.679 15.122-7.678.82-1 3.414-1.171 3.414-1.171.48-.033 1.08.349 1.334.844l2.606 5.104c.253.497 2.558 1.31 2.81 1.81l4.045 6.09c.295.46.93.836 1.411.836 0 0 1.29.344 1.622.766l2.066 2.614c.333.422.998.772 1.479.781l4.708-1.748c.465-.145 1.13.068 1.477.473 0 0 4.32 5.03 5.556 6.533m-28.494-23.95c-1.07 1.304-3.402 5.624-3.402 6.852m6.123-35.142c-1.01 1.23-4.612 4.584-5.241 6.427m17.098 7.807c-1.513 1.843-3.865 3.71-4.496 4.94m-80.947 12.913 7.765-8.506m-6.043 9.745 7.063-7.736m-5.098 8.712 6.072-6.65m-4.154 7.674 5.128-5.617m-3.209 6.643 4.182-4.581m-2.263 5.605 3.236-3.546m-1.316 4.57 2.29-2.508m19.134-26.934c1.49 2.508 6.324 7.838 9.206 9.889m-10.135-7.334c1.81 2.602 5.76 6.89 8.376 8.866m-9.337-6.431c1.88 2.507 5.194 6.065 7.58 7.954m-8.528-5.546c1.803 2.284 4.517 5.175 6.652 6.957M729.67 532c1.74 2.137 4.141 4.673 6.099 6.335m9.483 26.413c.748-3.403 2.47-7.832 3.534-9.129m-1.579 9.066c.606-2.728 1.83-6.093 2.834-7.977m-.878 7.913c.458-2.039 1.255-4.423 2.046-6.277m-.091 6.212c.368-1.622.95-3.456 1.568-5.064m.388 5a37 37 0 0 1 1.018-3.521m.937 3.46c.144-.624.319-1.274.515-1.931m-8.223-70.811c-.896 2.886-2.673 6.629-3.634 8.757m5.338-8.114c-.929 2.747-2.495 6.063-3.394 8.044m5.138-7.556c-.93 2.61-2.343 5.613-3.191 7.483m5.021-7.58c-.918 2.52-2.25 5.69-3.076 7.509m.715 7.356c1.689-.503 3.32-1.619 4.098-2.827m-2.795 4.343c1.478-.453 2.904-1.369 3.75-2.402m-2.445 3.917c1.285-.404 2.528-1.153 3.376-2.024m-2.076 3.54a8.6 8.6 0 0 0 2.99-1.685m12.676-8.802c.452 2.268 1.048 5.825 1.555 7.878m-2.885-6.617c.355 1.85.775 4.249 1.166 6.067m-2.419-4.377c.232 1.245.482 2.612.726 3.842m3.421 36.282c.785 1.818 2.08 3.775 2.903 4.78m-3.452-2.58c.654 1.514 1.663 3.128 2.458 4.205m-3.007-2.007c.573 1.328 1.418 2.73 2.153 3.782m-2.703-1.582c.497 1.153 1.2 2.364 1.859 3.351m11.556-28.204c-1.49-2.867-3.06-8.793-4.55-8.793m2.97 9.728c-1.125-2.385-2.29-6.214-3.427-7.69m1.831 8.547c-.842-1.93-1.705-4.495-2.558-6.128m.973 6.97c-.58-1.4-1.17-3.025-1.757-4.372m.193 5.24c-.335-.832-.67-1.715-1.007-2.554m9.215 33.843c1.048.95 3.182 1.704 5.022 1.498m-5.583.377c.962.827 2.735 1.49 4.39 1.474m-4.787.526c.883.653 2.26 1.171 3.628 1.271m-4.02.707c.763.498 1.808.896 2.885 1.054m-3.27.912c.61.355 1.364.646 2.157.815m22.312-19.96c-1.59-3.874-6.001-14.045-6.797-15.497m5.382 17.14c-1.498-3.598-4.492-10.509-5.872-13.478m4.524 15.29a566 566 0 0 0-5.084-11.708m3.737 13.523a619 619 0 0 0-4.3-9.917m2.952 11.737a623 623 0 0 0-3.516-8.122m2.165 9.936a649 649 0 0 0-2.727-6.31" transform="matrix(.38098 0 0 .45036 200.378 60.52)"/><path fill="#806600" d="M457.674 316.419v5.826h21.43c-.698-1.4-1.702-4.025-1.702-4.025-.105-.216-.33-.48-.5-.577l-1.87-.844c-.571-.572-1.153-5.368-1.345-6.474 0 0-2.792-3.318-3.488-4.32-.696-1.004-2.06-2.239-2.06-2.239a.5.5 0 0 0-.583-.042s-1.881 1.828-3.405 2.97c-.299 1.121-1.254 3.689-2 5.559a11.506 13.601 0 0 1-1.203-.774c-.161-.125-.408-.063-.535.126 0 0-1.009 1.717-1.394 2.688-.267.675-.805 1.375-1.345 2.126"/><path fill="none" stroke="#1b1a1c" stroke-linecap="round" stroke-linejoin="round" stroke-width=".793" d="M675.473 568.073c1.38-1.617 2.71-3.109 3.394-4.57 1.01-2.155 3.679-5.992 3.679-5.992.335-.42.954-.54 1.377-.264 0 0 1.304.822 3.176 1.71 1.958-4.151 4.47-9.855 5.254-12.346 4-2.534 8.919-6.597 8.919-6.597.432-.257 1.118-.214 1.525.095 0 0 3.608 2.74 5.436 4.966s9.156 9.612 9.156 9.612c.505 2.457 2.019 13.098 3.52 14.368l4.91 1.89c.447.214 1.038.782 1.314 1.26 0 0 2.361 5.535 4.167 8.844m-55.881-6.917 3.21-.407c.478-.048 1.118.285 1.422.739 0 0 2.033 3.498 4.74 6.572m2.306-22.078c3.835 1.817 10.069 3.912 12.439-.216m-7.183-12.13c2.331 1.304 7.107 2.087 8.67 1.688m16.366 6.387c.37.371-.345 1.705-.721 2.069 0 0-3.52 3.369-4.403 6.594m-32.37 10.923c-.933 2.271-3.049 4.786-4.444 6.375m45.458-11.593c-1.01 1.23-4.612 4.583-5.241 6.426m-35.558 2.53c.502.846.946 1.661 2.005 2.913m-2.934-.356c.185.267-.043.202.184.5m14.497-33.726c-.896 2.886-2.673 6.63-3.634 8.757m5.338-8.114c-.929 2.747-2.495 6.064-3.394 8.044m5.138-7.556c-.93 2.61-2.343 5.613-3.191 7.483m5.021-7.58c-.918 2.52-2.25 5.69-3.076 7.51m.715 7.355c1.689-.503 3.32-1.619 4.098-2.827m-2.795 4.343c1.478-.453 2.904-1.368 3.75-2.402m-2.445 3.917c1.285-.404 2.528-1.153 3.376-2.024m-2.076 3.54a8.6 8.6 0 0 0 2.99-1.685m12.676-8.802c.452 2.268 1.048 5.825 1.555 7.878m-2.885-6.617c.355 1.85.775 4.249 1.166 6.068m-2.419-4.378c.232 1.245.482 2.613.726 3.842m14.739 17.084c-1.355-3.05-2.76-7.85-4.101-7.85m2.096 7.669c-.848-2.137-1.709-4.534-2.553-5.63m.71 5.764c-.478-1.224-.96-2.431-1.437-3.346m-.466 3.197c-.12-.296-.198-.322-.318-.598" transform="matrix(.38098 0 0 .45036 200.378 60.52)"/><path fill="#806600" d="M492.915 322.245h23.466v-6.136l-.928-.422c-.572-.572-1.142-5.368-1.334-6.474 0 0-2.792-3.318-3.488-4.32-.696-1.004-2.072-2.239-2.072-2.239a.495.495 0 0 0-.583-.042s-1.88 1.829-3.405 2.97c-.3 1.122-1.254 3.689-2 5.559a11.557 13.661 0 0 1-1.203-.774c-.161-.125-.396-.063-.524.126 0 0-1.02 1.718-1.405 2.689-.575 1.452-2.354 2.975-2.881 5.024l-.726.113c-.18-.046-.428.082-.548.281 0 0-1.326 2.025-2.369 3.645"/><path fill="none" stroke="#1b1a1c" stroke-linecap="round" stroke-linejoin="round" stroke-width=".793" d="M768.103 580.925c3.033-3.973 5.956-7.876 5.956-7.876.315-.442.96-.721 1.433-.62l1.915-.242c1.384-4.549 6.047-7.925 7.558-11.15 1.01-2.156 3.679-5.993 3.679-5.993.334-.42.953-.54 1.376-.264 0 0 1.304.822 3.177 1.71 1.958-4.152 4.469-9.855 5.253-12.346 4.001-2.535 8.92-6.598 8.92-6.598.431-.256 1.117-.214 1.525.095 0 0 3.608 2.74 5.435 4.967 1.828 2.227 9.157 9.611 9.157 9.611.504 2.457 2.018 13.098 3.52 14.368l2.51.966m-52.11 4.634 7.319-.93c.478-.047 1.119.285 1.423.74 0 0 3.922 6.11 7.3 9.083m-.254-24.59c3.834 1.818 10.068 3.912 12.438-.215m-7.183-12.131c2.332 1.305 7.107 2.088 8.67 1.689m16.367 6.386c.37.372-.346 1.705-.722 2.07 0 0-3.52 3.368-4.402 6.594m-32.371 10.922c-1.26 3.07-4.681 6.583-5.564 7.658m46.578-12.876c-1.009 1.23-4.611 4.584-5.24 6.427m-35.559 2.53c.816 1.374 2.634 3.593 4.586 5.656m-5.515-3.1c.618.888 1.484 1.971 2.462 3.092m-3.423-.657q.195.26.41.534m15.233-36.194c-.897 2.886-2.674 6.629-3.635 8.757m5.339-8.114c-.93 2.747-2.496 6.063-3.394 8.044m5.137-7.557c-.93 2.61-2.343 5.614-3.19 7.484m5.02-7.58c-.917 2.52-2.249 5.69-3.075 7.509m.714 7.356c1.69-.503 3.32-1.62 4.099-2.828m-2.796 4.344c1.479-.453 2.905-1.369 3.75-2.402m-2.445 3.917c1.286-.404 2.529-1.154 3.377-2.024m-2.076 3.54a8.6 8.6 0 0 0 2.989-1.685m12.676-8.802c.453 2.268 1.048 5.825 1.555 7.878m-2.884-6.617c.355 1.849.775 4.248 1.166 6.067m-2.419-4.377c.232 1.245.481 2.612.726 3.842" transform="matrix(.38098 0 0 .45036 200.378 60.52)"/><path fill="none" stroke="#000" stroke-width=".779" d="M829.433 567.483v13.68H675.345v-13.336" transform="matrix(.38098 0 0 .45036 200.378 60.52)"/><g fill="#0071bc"><path d="m367.72 361.15-3.198 9.844 4.922 1.6z"/><path d="m367.72 361.15 3.198 9.844-4.921 1.6z"/><path d="M377.564 368.303h-10.35v5.175z"/><path d="m377.564 368.302-8.373 6.084-3.042-4.187z"/><path d="m357.876 368.302 8.374 6.084 3.041-4.187z"/><path d="M357.876 368.303h10.35v5.175z"/><path d="m373.804 379.875-3.198-9.844-4.922 1.6z"/><path d="m373.804 379.875-8.373-6.084 3.041-4.187 5.332 10.27z"/><path d="m361.636 379.875 8.374-6.084-3.042-4.187-5.332 10.27z"/><path d="m361.636 379.875 3.199-9.844 4.921 1.6zm3.722-86.43-3.199 9.844 4.922 1.599z"/><path d="m365.358 293.445 3.198 9.844-4.922 1.599z"/><path d="M375.202 300.597h-10.35v5.175z"/><path d="m375.202 300.597-8.374 6.084-3.042-4.187z"/><path d="m355.513 300.597 8.374 6.084 3.042-4.187z"/><path d="M355.513 300.597h10.35v5.175z"/><path d="m371.442 312.17-3.199-9.844-4.922 1.6 8.12 8.244z"/><path d="m371.442 312.17-8.374-6.084 3.042-4.187 5.332 10.27z"/><path d="m359.274 312.17 8.373-6.084-3.042-4.187-5.331 10.27z"/><path d="m359.274 312.17 3.198-9.844 4.922 1.6zm174.609 48.98-3.199 9.844 4.922 1.6z"/><path d="m533.883 361.15 3.198 9.844-4.922 1.6z"/><path d="M543.727 368.303h-10.35v5.175z"/><path d="m543.727 368.302-8.374 6.084-3.042-4.187z"/><path d="m524.038 368.302 8.374 6.084 3.042-4.187z"/><path d="M524.038 368.303h10.35v5.175z"/><path d="m539.967 379.875-3.199-9.844-4.922 1.6z"/><path d="m539.967 379.875-8.374-6.084 3.042-4.187 5.332 10.27z"/><path d="m527.799 379.875 8.373-6.084-3.042-4.187-5.331 10.27z"/><path d="m527.799 379.875 3.198-9.844 4.922 1.6zm8.446-86.43-3.198 9.844 4.922 1.599z"/><path d="m536.245 293.445 3.198 9.844-4.921 1.599z"/><path d="M546.09 300.597h-10.351v5.175z"/><path d="m546.09 300.597-8.374 6.084-3.042-4.187 11.415-1.897z"/><path d="m526.401 300.597 8.374 6.084 3.041-4.187z"/><path d="M526.4 300.597h10.351v5.175z"/><path d="m542.329 312.17-3.198-9.844-4.922 1.6z"/><path d="m542.33 312.17-8.374-6.084 3.041-4.187 5.332 10.27z"/><path d="m530.161 312.17 8.374-6.084-3.042-4.187-5.332 10.27z"/><path d="m530.161 312.17 3.199-9.844 4.921 1.6zM408.08 225.74l-3.199 9.843 4.922 1.6z"/><path d="m408.08 225.74 3.198 9.843-4.922 1.6 1.723-11.443z"/><path d="M417.924 232.892h-10.35v5.175z"/><path d="m417.924 232.892-8.374 6.084-3.042-4.187z"/><path d="m398.235 232.892 8.374 6.084 3.042-4.187z"/><path d="M398.235 232.892h10.35v5.175z"/><path d="m414.163 244.464-3.198-9.843-4.922 1.599z"/><path d="m414.164 244.464-8.374-6.084 3.042-4.186z"/><path d="m401.995 244.464 8.374-6.084-3.042-4.186z"/><path d="m401.996 244.464 3.198-9.843 4.922 1.599zm91.527-18.724-3.198 9.843 4.922 1.6z"/><path d="m493.523 225.74 3.199 9.843-4.922 1.6z"/><path d="M503.367 232.892h-10.35v5.175z"/><path d="m503.367 232.892-8.373 6.084-3.042-4.187z"/><path d="m483.68 232.892 8.373 6.084 3.042-4.187-11.416-1.897z"/><path d="M483.68 232.892h10.35v5.175z"/><path d="m499.607 244.464-3.198-9.843-4.922 1.599z"/><path d="m499.607 244.464-8.373-6.084 3.042-4.186z"/><path d="m487.44 244.464 8.373-6.084-3.042-4.186z"/><path d="m487.44 244.464 3.198-9.843 4.922 1.599zM450.379 430.05l-3.199 9.844 4.922 1.6-1.723-11.443z"/><path d="m450.378 430.05 3.199 9.844-4.922 1.6 1.723-11.443z"/><path d="M460.223 437.203h-10.35v5.175z"/><path d="m460.223 437.203-8.374 6.083-3.042-4.186z"/><path d="m440.534 437.203 8.374 6.083 3.042-4.186z"/><path d="M440.534 437.203h10.35v5.175z"/><path d="m456.462 448.775-3.198-9.843-4.922 1.599z"/><path d="m456.462 448.775-8.373-6.084 3.042-4.186z"/><path d="m444.294 448.775 8.374-6.084-3.042-4.186z"/><path d="m444.295 448.775 3.198-9.843 4.922 1.599z"/></g><path fill="none" stroke="#000" stroke-width="2.983" d="M42.18 312.343c.203 120.277-.41 240.567.31 360.835 3.834 107.937 86.48 206.523 192.018 229.318 97.636 23.778 206.937-18.953 262.046-103.22 33.005-47.127 45.16-105.45 42.438-162.221V312.343z" overflow="visible" style="marker:none" transform="translate(335.52 97.942)scale(.39375)"/></svg>