<svg xmlns="http://www.w3.org/2000/svg" width="800" height="480"><path fill="#0b45a1" fill-rule="evenodd" d="M0 0h800v480H0z" overflow="visible" style="marker:none"/><path fill="silver" fill-rule="evenodd" d="M800 480 0 0v74.188L679.563 480z"/><path fill="silver" fill-rule="evenodd" d="M308.75 160.218a109.782 109.782 0 1 1-219.564 0 109.782 109.782 0 1 1 219.565 0z" overflow="visible" style="marker:none"/><path fill="#f5dc0f" fill-rule="evenodd" d="m206.828 170.287 69.38 1.43-6.438 30.04-27.18 31.471-32.543 6.08-6.437-43.988z"/><path fill="#1663cf" fill-rule="evenodd" stroke="#000" stroke-width=".506" d="M122.072 166.353H274.63l-2.633-23.477-16.174-33.743-27.895-18.596-30.04-9.299-38.266 10.371-22.888 23.246-11.444 20.384z"/><path fill-rule="evenodd" d="M181.191 114.524h80.622v1.448H180.81l.38-1.448z" overflow="visible" style="marker:none"/><path fill="#f5dc0f" fill-rule="evenodd" stroke="#000" stroke-linecap="round" stroke-linejoin="round" stroke-width="1.525" d="M817.84 75.132c0-41.536 33.671-75.207 75.207-75.207s75.208 33.671 75.208 75.207h-75.208z" overflow="visible" style="marker:none" transform="matrix(.48902 0 0 .50567 -217.14 121.11)"/><path fill="#c70f2e" fill-rule="evenodd" d="M218.477 121.072h2.2v12.011h-2.2z" overflow="visible" style="marker:none"/><path fill="none" stroke="#000" stroke-width="1.525" d="M893.047-.075v23.754M901.793.31l-4.645 39.736" transform="matrix(.48902 0 0 .50567 -217.14 121.11)"/><path fill="#c70f2e" fill-rule="evenodd" d="m226.988 121.834 2.141.525-2.679 11.688-2.141-.525z" overflow="visible" style="marker:none"/><path fill="none" stroke="#000" stroke-width="1.525" d="m910.39 1.952-5.477 23.114m13.899-20.723L905.13 41.937" transform="matrix(.48902 0 0 .50567 -217.14 121.11)"/><path fill="#c70f2e" fill-rule="evenodd" d="m235.1 124.606 1.966 1.021-5.213 10.734-1.967-1.021z" overflow="visible" style="marker:none"/><path fill="none" stroke="#000" stroke-width="1.525" d="m926.8 7.924-10.661 21.228m18.304-16.959-21.985 33.425" transform="matrix(.48902 0 0 .50567 -217.14 121.11)"/><path fill="#c70f2e" fill-rule="evenodd" d="m242.374 129.237 1.686 1.463-7.467 9.202-1.686-1.463z" overflow="visible" style="marker:none"/><path fill="none" stroke="#000" stroke-width="1.525" d="M941.388 17.52 926.12 35.715m21.721-12.279-29.1 27.454" transform="matrix(.48902 0 0 .50567 -217.14 121.11)"/><path fill="#c70f2e" fill-rule="evenodd" d="m248.42 135.478 1.314 1.826-9.318 7.173-1.314-1.826z" overflow="visible" style="marker:none"/><path fill="none" stroke="#000" stroke-width="1.525" d="m953.372 30.22-19.054 14.186m23.968-6.941L923.64 57.47" transform="matrix(.48902 0 0 .50567 -217.14 121.11)"/><path fill="#c70f2e" fill-rule="evenodd" d="m252.91 142.993.873 2.09-10.666 4.757-.872-2.09z" overflow="visible" style="marker:none"/><path fill="none" stroke="#000" stroke-width="1.525" d="m962.103 45.342-21.811 9.41m24.922-1.227L926.888 65" transform="matrix(.48902 0 0 .50567 -217.14 121.11)"/><path fill="#c70f2e" fill-rule="evenodd" d="m255.605 151.376.382 2.241-11.44 2.086-.382-2.241z" overflow="visible" style="marker:none"/><path fill="none" stroke="#000" stroke-width="1.525" d="m967.112 62.07-23.394 4.126m24.534 4.554-39.94 2.328" transform="matrix(.48902 0 0 .50567 -217.14 121.11)"/><path fill="#c70f2e" fill-rule="evenodd" d="m210.025 122.36 2.141-.526 2.68 11.688-2.143.525z" overflow="visible" style="marker:none"/><path fill="none" stroke="#000" stroke-width="1.525" d="m875.703 1.952 5.478 23.114M884.302.31l4.644 39.736" transform="matrix(.48902 0 0 .50567 -217.14 121.11)"/><path fill="#c70f2e" fill-rule="evenodd" d="m202.088 125.627 1.967-1.021 5.213 10.734-1.967 1.021z" overflow="visible" style="marker:none"/><path fill="none" stroke="#000" stroke-width="1.525" d="m859.295 7.924 10.66 21.228m-2.672-24.81 13.683 37.595" transform="matrix(.48902 0 0 .50567 -217.14 121.11)"/><path fill="#c70f2e" fill-rule="evenodd" d="m195.094 130.7 1.686-1.463 7.467 9.202-1.686 1.463z" overflow="visible" style="marker:none"/><path fill="none" stroke="#000" stroke-width="1.525" d="m844.706 17.52 15.268 18.196m-8.321-23.524 21.983 33.426" transform="matrix(.48902 0 0 .50567 -217.14 121.11)"/><path fill="#c70f2e" fill-rule="evenodd" d="m189.42 137.303 1.314-1.825 9.318 7.173-1.315 1.825z" overflow="visible" style="marker:none"/><path fill="none" stroke="#000" stroke-width="1.525" d="m832.722 30.22 19.054 14.186m-13.522-20.972 29.099 27.456" transform="matrix(.48902 0 0 .50567 -217.14 121.11)"/><path fill="#c70f2e" fill-rule="evenodd" d="m185.371 145.083.872-2.09 10.666 4.758-.872 2.09z" overflow="visible" style="marker:none"/><path fill="none" stroke="#000" stroke-width="1.525" d="m823.991 45.342 21.811 9.41m-17.994-17.288 34.647 20.005" transform="matrix(.48902 0 0 .50567 -217.14 121.11)"/><path fill="#c70f2e" fill-rule="evenodd" d="m183.167 153.617.382-2.242 11.44 2.087-.382 2.241z" overflow="visible" style="marker:none"/><path fill="none" stroke="#000" stroke-width="1.525" d="m818.983 62.07 23.393 4.126M820.88 53.524l38.326 11.475m-41.364 5.75 39.94 2.328" transform="matrix(.48902 0 0 .50567 -217.14 121.11)"/><path fill="none" stroke="#000" stroke-linecap="round" stroke-linejoin="round" stroke-width="1.525" d="M817.84 75.132c0-41.536 33.671-75.207 75.207-75.207s75.208 33.671 75.208 75.207h-75.208z" overflow="visible" style="marker:none" transform="matrix(.48902 0 0 .50567 -217.14 121.11)"/><path fill-rule="evenodd" stroke="#000" stroke-width=".758" d="M274.36 157.69c-1.832 1.973-4.621 1.378-8.092 1.39-9.228.032-12.991-5.079-26.552-4.931-11.305.123-20.05 4.311-28.955 7.333v13.403h60.059l3.54-17.196z"/><path fill="#1663cf" fill-rule="evenodd" stroke="#000" stroke-width=".758" d="m150.312 201.47 15.198-2.041 18.544 11.001 38.165 21.72-15.425 13.554-42.192.68-26.993-28.808z"/><path fill="none" stroke="#000" stroke-width=".758" d="m158.723 215.413 10.747 26.626"/><path fill="#fff" fill-rule="evenodd" stroke="#000" stroke-width=".758" d="m209.146 120.438-7.474 4.883v95.065l15.091 8.612v-99.521l-7.617-9.04z"/><path fill="#fff" fill-rule="evenodd" stroke="#000" stroke-linecap="round" stroke-linejoin="round" stroke-width=".758" d="M180.747 149.874c-4.897.116-9.723-.494-14.354-.91v-4.65l-4.17-.589-1.205 2.246v2.138c-6.205-.977-12.132-2.772-17.91-4.887V138.7l-4.064-1.711-2.887 1.871v1.123c-3.616-1.78-6.484-3.694-9.143-5.774l-5.85 11.941-.276 34.194 23.439 36.95 14.634 6.242v-16.959l-.709-1.002 8.41-1.103 11.67 9.394 8.814-1.803 2.028-46.758z"/><path fill="none" stroke="#000" stroke-linecap="round" stroke-linejoin="round" stroke-width=".758" d="m186.273 202.36-13.623-5.24-5.386.682 11.859 5.814v6.563l-.781.095v2.94m-10.84-10.897 11.58 7.85"/><path fill="#fff" fill-rule="evenodd" stroke="#000" stroke-width=".758" d="M177.66 199.047v-58.223l3.327-2.157 6.082 3.405v60.596l-9.408-3.62z"/><path fill="none" stroke="#000" stroke-linecap="round" stroke-linejoin="round" stroke-width=".758" d="m158.935 206.572-13.316 1.951m42.171-6.232-8.901 1.309"/><path fill="#fff" fill-rule="evenodd" stroke="#000" stroke-width=".758" d="m194.23 85.958-7.902 9.228v116.525l17.161 9.734V99.185z"/><path fill="none" stroke="#000" stroke-width=".758" d="M194.246 86.642v129.546m1.735-122.968v123.843m1.45-121.856v122.678m1.449-120.692V218.77m1.449-119.59v120.38m1.45-118.439v119.26m7.34-99.788v104.002m2.391-96.262v97.695m1.503-96.136v96.926m1.504-95.21v96"/><path fill="none" stroke="#000" stroke-linecap="round" stroke-linejoin="round" stroke-width=".758" d="m148.688 198.564 23.913-2.42c-3.828-1.667-8.236-1.62-13.624-1.025-6.2.684-9.772 1.068-10.289 3.445"/><path fill="none" stroke="#000" stroke-width=".758" d="M180.987 200.18v-61.435m1.856 3.779v58.356m1.758-57.434v58.104"/><path fill="none" stroke="#000" stroke-linecap="round" stroke-linejoin="round" stroke-width=".758" d="m158.164 205.46-4.354-6.311-5.46.585m-9.308-62.731v11.625c-.888-1.851-1.188-6-1.257-7.682l-1.646-.897m6.966-1.335v10.57m23.283-4.978v10.164m-4.116-10.672v10.22c-.297-1.9-.398-3.975-.457-5.754l-.8-.15m6.322 49.761-.024 4.576-.659.122v1.81m5.972-8.253v.93m-19.998-50.782c-.06 14.163 1.663 31.222 6.511 48.495m.879-46.83c-.13 14.804.905 31.292 2.577 46.603m-18.035-50.919c.361 16.193 5.062 33.574 11.019 51.41m12.531-45.991c-.797 13.075-1.36 28.604-2.205 45.326m8.479-44.637c-.846 14.845-2.228 30.24-5.274 45.085m-33.607-55.15c.18 18.557 7.66 37.586 16.82 56.012m-2.723 1.276c-13.944-20.092-22.061-39.762-19.888-60.872m46.424 49.529a71.4 71.4 0 0 1-3.949 10.042"/><g fill="#f5dc0f" fill-rule="evenodd" stroke="#000" stroke-width=".759"><path d="M173.235 186.362v-10.339l15.847-2.077v13.003zm28.895 15.802v-16.253l21.762.36v20.227z"/><path d="M181.28 180.835v12.45l24.454 3.321v-16.793z"/></g><g fill="#008d38" fill-rule="evenodd" stroke="#000" stroke-width=".759"><path stroke-linecap="round" stroke-linejoin="round" d="M257.305 186.688c-.576-.864-.526-2.98.894-3.755-1.586-.933-1.071-2.149-.626-3.308-1.487-.462-2.603-1.13-1.966-2.771-1.161.23-2.374.772-3.308-.358-1.282 1.076-2.563 1.218-3.845.626.095 1.205-1.005 1.615-2.324 1.877.001 1.133.522 2.265-.805 3.398.704 1.102.934 2.205.447 3.308 1.325-.098 1.613 1.038 1.788 2.324.882-.174 2.692.044 2.95 1.788 1.14-.907 3.028-.9 3.934-.178-.266-1.77 1.504-2.341 2.861-2.95z"/><path d="M243.675 169.361c-.262 2.163-1.298 5.563-2.702 8.06-.702 1.248-1.5 2.277-2.196 2.844-.698.567-1.126.668-1.58.584-3.273-.6-4.525-2.043-5.373-3.934s-1.02-4.283-1.201-6.242l-4.03.38c.168 1.804.275 4.7 1.533 7.505 1.087 2.424 3.247 4.741 6.653 5.847-.215 5.248-.27 10.474-.253 15.818-2.582-1.8-4.035-4.276-5.199-6.51l-3.587 1.864c1.505 2.89 3.97 6.986 8.817 9.323.056 5.729.163 11.6.222 17.904l4.55-1.075c.017-7.663-.141-14.642-.347-21.396 5.578-2.214 9.93-6.239 12.657-12.278-.914-1.803-2.302-2.156-3.681-2.102-2.133 4.722-5.09 8.031-9.118 10.035-.122-3.746-.242-7.467-.348-11.188 1.066-.219 2.039-.735 2.845-1.39 1.295-1.054 2.295-2.46 3.16-3.999 1.73-3.076 2.847-6.716 3.192-9.56z"/><path stroke-linecap="round" stroke-linejoin="round" d="M255.538 168.593c-.998-.538-1.962-2.597-.895-4.06-2.054-.094-2.116-1.523-2.22-2.861-1.728.308-3.18.23-3.321-1.669-1.066.807-2.034 1.942-3.522 1.329-.782 1.681-2.012 2.466-3.594 2.544.674 1.11-.243 2.06-1.454 2.98.545 1.087 1.615 1.911.815 3.67 1.241.704 2.003 1.647 2.039 2.953 1.295-.764 2.131.182 2.925 1.33.81-.615 2.748-1.32 3.846.226.718-1.448 2.635-2.395 3.898-2.16-1.117-1.566.4-3.01 1.483-4.282m-26.716 28.322c-.34-1.347.882-2.628 2.559-2.68-1.072-1.496.748-1.949 1.626-2.827-1.172-1.026-1.922-2.09-.673-3.331-1.155-.262-2.483-.258-2.879-1.67-1.608.464-2.479.52-3.41-.54-.403 1.14-1.573 1.068-2.886.772-.458 1.036-.442 2.282-2.114 2.779.196 1.293-.4 1.947-1.292 2.758 1.251.448 1.053 1.603.691 2.85.878.198 2.443 1.133 1.971 2.831 1.41-.367 2.833-.02 3.369 1.007.475-1.725 1.55-1.943 3.038-1.95zm5.125-31.335c-1.15-.217-2.762-2.045-2.194-3.955-2.039.619-2.564-.862-3.1-2.233-1.59.928-3.033 1.354-3.79-.593-.78 1.22-1.357 2.752-3.011 2.627-.218 2.04-1.165 3.295-2.686 3.93 1.019.932.431 2.25-.454 3.64.886.953 2.2 1.446 1.989 3.575 1.443.305 2.494 1.031 2.953 2.391 1.018-1.256 2.143-.553 3.292.376.592-.929 2.258-2.347 3.833-1.106.232-1.773 1.798-3.438 3.11-3.633-1.602-1.255-.587-3.303.058-5.019"/></g><path fill="none" stroke="#000" stroke-width=".758" d="m163.13 205.162 30.252 33.325m-26.395-33.831 39.41 31.933m-24.999-23.336 27.958 20.1m-44.619-28.697 35.024 32.335m-15.581-24.339 30.592 18.678m-55.614-25.89 20.725 33.616M161.2 205.213l24.816 33.323m-26.972-29.058 15.238 30.796"/><path fill="#c70f2e" fill-rule="evenodd" stroke="#000" stroke-width=".758" d="m123.917 134.25 11.228 12.19 2.406 6.738 1.604 3.528-.642 5.775 2.085 3.529-.16 7.699 3.529 6.576.962 9.303 2.727 4.492 1.443 5.934 2.61 3.004.598 5.177 1.444 8.5-7.058 2.728-20.691-25.023-5.775-35.448z"/><path fill="#a70c26" fill-rule="evenodd" d="m124.043 154.35 7.941-1.588 3.291 3.829 2.236 4.666-.641 5.775 2.085 3.529-.16 7.699 3.528 6.576.963 9.303 2.726 4.491 1.444 5.935 2.61 3.004.598 5.177 1.443 8.5-7.057 2.728-20.692-25.023-5.774-35.448 5.459-9.152z"/><path fill="#c70f2e" fill-rule="evenodd" d="M137.279 181.901v-9.228l-3.207-6.768.162 5.473-1.633 1.295 3.009 3.554zm-1.319 8.669-.138-6.066-1.903-3.414-1.037 5.126.284 4.84zm7.26-1.842-3.16 12.389 1.011.379 4.425-6.7z"/><path fill="#c70f2e" fill-rule="evenodd" d="m142.715 199.094-1.517-8.343-2.276-5.057.632 5.183.506 9.228z"/><path fill="#0b45a1" fill-rule="evenodd" d="M198.97 55.729c-57.677 0-104.483 46.806-104.483 104.483 0 57.676 46.806 104.499 104.483 104.499 57.676 0 104.483-46.823 104.483-104.5S256.646 55.729 198.97 55.729m-4.74 30.229 2.97 4.235c.59-.015 1.176-.016 1.77-.016 38.66 0 70.035 31.375 70.035 70.035s-31.375 70.034-70.035 70.034-70.035-31.374-70.035-70.034c0-35.667 26.708-65.133 61.202-69.482z" overflow="visible" style="marker:none"/><path fill-rule="evenodd" stroke="#000" stroke-width=".758" d="m178.955 111.864-2.4 2.365-12.512-1.146c-1.448-.132-4.322.067-4.72 1.027-.288.169-.811.33-1.02.593-.147.186-.143.89.621.89h19.654l1.395-3.73h-1.018z"/><path fill="none" stroke="silver" stroke-linecap="round" stroke-linejoin="round" stroke-width="1.517" d="M273.917 160.218a74.949 74.949 0 1 1-149.897 0 74.949 74.949 0 1 1 149.897 0" overflow="visible" style="marker:none"/><path fill="none" stroke="silver" stroke-linecap="round" stroke-linejoin="round" stroke-width="1.517" d="M298.51 160.218a99.541 99.541 0 1 1-199.083 0 99.541 99.541 0 1 1 199.083 0" overflow="visible" style="marker:none"/><path fill="silver" d="M116.422 136.47q2.653.781 3.871 3.329t.587 6.04q-.712 3.943-3.195 5.916t-5.938 1.35q-3.455-.625-5.095-3.344t-.927-6.66q.623-3.445 2.583-5.418 1.96-1.972 4.531-1.8l-.71 3.933q-1.389.12-2.257 1.084-.867.964-1.188 2.736-.39 2.16.62 3.634 1.01 1.475 3.16 1.863 2.142.387 3.598-.636 1.457-1.023 1.85-3.194.338-1.878-.243-3.164-.582-1.287-1.961-1.717zm6.755-1.288-13.783-4.9 1.229-3.457 13.783 4.9zm-4.913-18.057 10.401 5.295-1.651 3.244-10.401-5.295-2.27 4.46-2.636-1.342 6.193-12.163 2.635 1.341-2.27 4.46zm15.81-3.368-4.983-3.758-10.543.052 2.805-3.72 6.375.236-2.004-6.032 2.793-3.704 2.778 10.246 4.983 3.758zm16.87-20.502q1.785-1.28 2.08-3.032t-.973-3.52q-1.28-1.785-3.034-2.065-1.755-.282-3.538.998-1.785 1.28-2.085 3.042t.974 3.537q1.269 1.768 3.026 2.047 1.758.279 3.55-1.007m-9.855 1.313q-2.047-2.853-1.332-5.946.714-3.093 3.969-5.429 3.255-2.334 6.405-2.015 3.152.319 5.198 3.173 2.047 2.852 1.338 5.936t-3.964 5.419-6.41 2.025q-3.158-.31-5.204-3.163m20.904-5.274-5.84-13.412 11.436-4.98 1.18 2.712-8.07 3.514 1.125 2.585 7.39-3.218 1.181 2.711-7.39 3.218 2.353 5.405zm20.742-7.375-2.047-14.484 3.633-.514 1.617 11.439 7.453-1.054.43 3.046zm17.796-7.552 3.864.164-1.774-4.6zm-6.779 5.77 7.549-14.32 3.518.149 6.039 14.898-4.072-.173-1.202-3.15-6.433-.273-1.446 3.037zm18.693-4.039 3.637.906-.033.134q-.3 1.2.6 2.091t2.915 1.393q1.556.387 2.513.141.96-.246 1.166-1.08.174-.701-.295-1.17-.47-.468-2.106-1.059l-2.462-.878q-2.693-.975-3.752-2.268-1.06-1.293-.62-3.06.52-2.091 2.724-2.94 2.204-.847 5.295-.079 3.32.826 4.889 2.532 1.568 1.706 1.033 3.855l-.029.115-3.532-.879q.141-1.096-.597-1.84-.736-.744-2.359-1.148-1.497-.373-2.429-.151-.931.221-1.125 1-.156.623.258 1.032.413.408 2.26 1.092l2.57.935q2.653.976 3.682 2.308 1.029 1.33.57 3.174-.59 2.37-2.82 3.125-2.232.754-5.937-.167-3.531-.88-5.11-2.648-1.578-1.769-.98-4.168zm26.299 14.71 2.042-15.82 3.464 2.07-1.764 11.17 9.05-6.818 3.438 2.055-13.03 9.256zm9.315 5.91 9.782-10.877 9.656 8.684-1.978 2.199-6.927-6.23-1.654 1.838 6.17 5.549-1.99 2.213-6.17-5.549-2.104 2.339 6.928 6.23-2.057 2.287zm20.333 20.26a6.9 6.9 0 0 1-2.622-1.072q-1.186-.804-2.156-2.176a10.7 10.7 0 0 1-1.463-2.891q-.486-1.51-.42-2.925.095-1.75.887-3.14t2.335-2.48q2.867-2.028 5.955-1.291 3.089.735 5.4 4.007 1.953 2.762 2.023 5.474t-1.728 4.383l-2.301-3.255q.71-1.12.599-2.33-.111-1.212-1.048-2.537-1.267-1.793-3.027-2.105t-3.544.949q-1.777 1.255-2.068 3.012-.29 1.755.983 3.557.867 1.227 2.05 1.785 1.181.557 2.398.327l-1.918-2.714 2.382-1.684 4.163 5.888-6.502 4.596-1.599-2.262zm8.958 7.89 1.482 3.572 3.42-3.55zm-8.092-3.71 16.168.799 1.35 3.252-10.959 11.762-1.561-3.764 2.348-2.42-2.467-5.947-3.364-.029zM280.8 136.41l.707 3.682-.136.026q-1.214.233-1.644 1.424-.431 1.19-.039 3.23.303 1.575.928 2.34.626.766 1.471.603.71-.136.937-.759.228-.622.075-2.356l-.238-2.603q-.247-2.853.481-4.358.729-1.505 2.515-1.849 2.118-.406 3.814 1.236 1.695 1.644 2.297 4.77.646 3.362-.242 5.501t-3.064 2.558l-.116.023-.687-3.575q1.053-.333 1.419-1.315.365-.982.05-2.623-.293-1.515-.885-2.267-.592-.753-1.38-.601-.63.12-.828.668-.197.546-.04 2.51l.231 2.725q.229 2.817-.546 4.31-.775 1.494-2.64 1.853-2.4.46-4.022-1.246-1.623-1.708-2.343-5.457-.687-3.575.254-5.75t3.37-2.642zM145.856 239.121l7.227-12.718 3.912 2.223 1.26 12.58 5.095-8.97 3.062 1.74-7.226 12.719-3.87-2.199-1.27-12.7-5.146 9.055zm20.038 10.295 4.292-13.984 12.415 3.81-.868 2.827-8.906-2.733-.726 2.364 7.933 2.434-.873 2.846-7.933-2.434-.923 3.006 8.907 2.734-.903 2.94zm22.536 5.303-4.96-15.16 4.018.378 3.21 10.843 5.238-10.047 3.988.376-7.782 13.96zm18.363-5.788 3.843-.436-2.465-4.27zm-5.804 6.75 5.241-15.316 3.499-.397L218 253.752l-4.049.46-1.676-2.926-6.397.725-.959 3.225zm21.528-15.452 2.853 8.17 2.68-.936q2.371-.827 3.24-2.3.87-1.47.169-3.479-.702-2.007-2.291-2.615-1.59-.607-3.971.224zm1.636-3.683q2.242-.783 3.43-.962a7 7 0 0 1 2.237-.001q1.822.297 3.197 1.565 1.376 1.27 2.093 3.324.716 2.044.428 3.894a6.1 6.1 0 0 1-1.524 3.225 6.9 6.9 0 0 1-1.752 1.387q-1.045.595-3.286 1.378l-6.237 2.179-4.823-13.81 6.237-2.18zm19.402.511 3.288-2.037-4.054-2.805zm-2.36 8.584-1.812-16.086 2.993-1.855 13.372 8.923-3.464 2.146-2.765-1.928-5.474 3.392.513 3.324z" font-family="Swis721 Ex BT" font-size="40.058" font-weight="700" style="text-align:center;line-height:125%;-inkscape-font-specification:Swis721 Ex BT Bold" text-anchor="middle"/><path fill="none" stroke="#000" stroke-width=".758" d="m186.588 94.892 7.69-8.927 9.015 12.993"/></svg>