<svg xmlns="http://www.w3.org/2000/svg" width="800" height="533" overflow="visible"><path fill="navy" d="M0 0h800v533H0z"/><path fill="#fff" d="M282.722 104.256c0 110.881 0 109.944-.021 271.262l-.447 2.485-1.103 5.606-3.936.615-3.522-5.192-5.915.206-3.341-1.4-4.078 1.591-1.563 1.933-2.087 3.391 2.268 14.653-.359 3.807 4.645 25.251-1.961 4.158-4.92-3.836C65.807 244.643 65.804 244.161 65.804 244.161l.003-139.905m286.565 85.072h26.035q26.034.001 35.252 2.012 9.217 2.013 15.027 10.279 5.81 8.268 5.811 26.375 0 16.535-4.107 22.223-4.108 5.686-16.17 6.822 10.925 2.707 14.684 7.248 3.756 4.542 4.676 8.34.917 3.8.918 20.914v37.287h-34.125v-46.982q0-11.353-1.803-14.061-1.802-2.707-9.448-2.707v63.75h-36.75zm36.75 24.25v31.5q6.24 0 8.744-1.705c2.504-1.705 2.506-4.828 2.506-11.07v-7.787q0-6.738-2.418-8.838-2.416-2.1-8.832-2.1m59.674-24.25h61.375v28.375h-24.625v26.875h23v26.875h-23v31h27v28.375h-63.75zm156.52 0v141.5h-32.25l-19.125-64.326v64.326h-30.75v-141.5h30.75l20.625 63.715v-63.715zm98.824 82.86q0 21.335-1.006 30.209-1.005 8.874-6.293 16.219t-14.289 11.279q-9.003 3.933-20.975 3.934-11.361-.001-20.408-3.715-9.046-3.715-14.551-11.148-5.507-7.43-6.555-16.174-1.05-8.742-1.049-30.604v-24.219q0-21.334 1.004-30.207t6.293-16.219q5.288-7.345 14.291-11.279 9-3.935 20.975-3.936 11.36 0 20.406 3.717t14.553 11.146q5.505 7.433 6.555 16.176t1.049 30.602zm-36.75-46.485q0-9.87-1.102-12.623-1.101-2.752-4.535-2.752-2.907 0-4.447 2.229-1.54 2.227-1.541 13.146v66.043q-.001 12.316 1.012 15.199t4.713 2.883q3.786 0 4.844-3.318 1.056-3.32 1.057-15.813z"/><path fill="navy" d="m95.606 218.776 6.472-4.729h-8.022l-2.474-7.544-2.474 7.544h-8.022l6.472 4.729-2.536 7.735 6.56-4.795 6.56 4.795z"/></svg>