<svg xmlns="http://www.w3.org/2000/svg" width="738.571" height="492.381"><path fill="#fff" d="M-11.313-13.908h789.13v540.23h-789.13z"/><path fill="#de0000" d="M1303.569 236.494h747.566v497.891h-747.566z"/><g fill="#fcd116"><path d="M1498.618 231.383h97.096v508.113h-97.096z"/><path d="M1293.475 534.352v-97.826h754.137v97.826z"/></g><path fill="#ed2939" stroke="#ed2939" stroke-miterlimit="10" stroke-width="14" d="m65-4.655 701.795 405.182"/><path fill="#ed2939" d="M733.036 283.153q-1.022-.592-3.172-1.167-7.21-.528-10.252 4.741l-.211.367q-1.226 2.124-1.318 5.914-.284 2.249.844 5.381l-.045.078-.08-.045a14.6 14.6 0 0 0-3.875-3.216l-.236-.137q-1.336-.772-3.248-1.456-7.706-1.548-11.23 4.561-.878 1.52-1.252 3.682-.369 6.813 4.639 9.703 6.422 3.708 13.236-2.04l.078.046-.045.078c-4.602 9.477-33.188 9.824-32.602-9.396-16.375 10.154-30.367-14.775-24.461-23.499l.047-.078-.01.143q-1.5 8.711 4.844 12.373 1.953.917 3.182 1.209 7.054.436 10.156-4.938.907-1.574 1.305-3.65.54-6.749-5.699-10.351l-.498-.288q-2.203-1.272-4.564-1.657l-.08-.046 2.482-.664q5.566-2.378 7.338-5.445a17.4 17.4 0 0 0 1.215-3.073q.788-7.479-4.822-10.718m-.002 0q-1.022-.591-3.172-1.167-7.21-.528-10.252 4.741l-.211.367q-1.227 2.124-1.318 5.915-.284 2.248.844 5.38l-.045.079-.08-.046a14.6 14.6 0 0 0-3.875-3.216l-.236-.136q-1.336-.773-3.248-1.457-7.706-1.547-11.23 4.561-.88 1.52-1.252 3.682-.368 6.813 4.639 9.703 6.421 3.71 13.236-2.039l.078.045-.045.079c-4.602 9.476-33.188 9.823-32.604-9.484-16.373 10.065-30.365-14.864-24.459-23.587l.045-.079-.008.142q-1.5 8.712 4.844 12.374 1.951.917 3.182 1.208 7.054.437 10.156-4.937.907-1.573 1.303-3.652.54-6.747-5.697-10.35l-.498-.288q-2.203-1.272-4.566-1.657l-.078-.045 2.48-.665q5.569-2.378 7.338-5.445a17.3 17.3 0 0 0 1.217-3.073q.786-7.48-4.822-10.718m-.002.001q-1.022-.59-3.172-1.167-7.211-.528-10.252 4.741l-.211.367q-1.227 2.124-1.318 5.915-.284 2.248.844 5.38l-.047.079-.078-.045a14.6 14.6 0 0 0-3.875-3.216l-.236-.136q-1.337-.772-3.248-1.456-7.705-1.548-11.232 4.56-.877 1.52-1.25 3.682-.368 6.813 4.639 9.704 6.422 3.708 13.234-2.04l.08.045-.047.079c-4.602 9.477-33.186 9.824-32.594-9.477-16.367 10.073-30.359-14.856-24.453-23.58l.045-.079-.01.142q-1.5 8.711 4.844 12.374 1.953.917 3.184 1.208 7.052.437 10.154-4.937.908-1.574 1.305-3.651.54-6.749-5.699-10.35l-.498-.288q-2.2-1.272-4.564-1.657l-.078-.045 2.48-.665q5.566-2.378 7.338-5.445a17.3 17.3 0 0 0 1.215-3.073q.788-7.48-4.822-10.718m-.002-.001q-1.023-.59-3.17-1.167-7.211-.527-10.252 4.741l-.213.367q-1.225 2.124-1.318 5.915-.284 2.248.844 5.38l-.045.079-.078-.045a14.6 14.6 0 0 0-3.877-3.216l-.234-.136q-1.339-.772-3.25-1.456-7.704-1.548-11.23 4.56-.878 1.52-1.252 3.682-.368 6.813 4.639 9.704 6.421 3.708 13.236-2.04l.078.045-.045.079c-4.602 9.477-33.188 9.824-32.559-9.352-16.33 10.198-30.322-14.731-24.416-23.455l.045-.079-.01.142q-1.5 8.712 4.844 12.374 1.954.917 3.184 1.208 7.052.437 10.154-4.937.908-1.573 1.305-3.651.541-6.749-5.699-10.35l-.498-.288q-2.2-1.272-4.564-1.657l-.078-.045 2.48-.665q5.566-2.378 7.338-5.445a17.3 17.3 0 0 0 1.215-3.073q.788-7.48-4.822-10.718m-.002-.001q-1.023-.59-3.17-1.167-7.211-.528-10.252 4.741l-.213.367q-1.224 2.124-1.318 5.915-.284 2.248.844 5.38l-.045.079-.078-.045a14.6 14.6 0 0 0-3.877-3.216l-.234-.136q-1.339-.772-3.25-1.456-7.705-1.548-11.23 4.56-.878 1.52-1.252 3.682-.368 6.813 4.639 9.704 6.421 3.708 13.236-2.04l.078.045-.045.079c-4.602 9.477-33.188 9.824-32.559-9.477-16.33 10.073-30.322-14.856-24.416-23.58l.045-.079-.01.142q-1.5 8.711 4.844 12.374 1.954.917 3.184 1.208 7.052.437 10.154-4.937.908-1.574 1.305-3.651.54-6.749-5.699-10.35l-.498-.288q-2.2-1.272-4.564-1.657l-.078-.045 2.48-.665q5.566-2.378 7.338-5.445a17.3 17.3 0 0 0 1.215-3.073q.788-7.48-4.822-10.718m-.002-.001q-1.023-.59-3.17-1.167-7.211-.527-10.252 4.741l-.213.367q-1.224 2.123-1.318 5.915-.284 2.248.844 5.38l-.045.079-.078-.045a14.6 14.6 0 0 0-3.877-3.216l-.234-.136q-1.339-.772-3.25-1.456-7.705-1.548-11.23 4.56-.878 1.52-1.252 3.682-.368 6.813 4.639 9.704 6.421 3.708 13.236-2.04l.078.045-.045.079c-4.602 9.477-33.188 9.824-32.684-9.477-16.455 10.073-30.448-14.856-24.542-23.58l.045-.079-.009.142q-1.5 8.712 4.845 12.374 1.952.917 3.183 1.208 7.052.437 10.154-4.937.908-1.574 1.305-3.651.54-6.748-5.698-10.35l-.498-.288q-2.202-1.272-4.565-1.657l-.079-.045 2.481-.665q5.566-2.378 7.338-5.445a17.3 17.3 0 0 0 1.215-3.073q.788-7.48-4.822-10.718M266.29 13.801q5.61 3.239 4.822 10.718a17.3 17.3 0 0 1-1.215 3.073q-1.77 3.067-7.338 5.445l-2.481.665.079.045q2.364.386 4.566 1.657l.498.288q6.239 3.602 5.698 10.35-.396 2.079-1.304 3.651-3.103 5.374-10.155 4.937-1.23-.291-3.182-1.208-6.343-3.662-4.845-12.374l.009-.142-.045.079c-5.906 8.723 8.086 33.653 24.417 23.455-.628 19.176 27.958 18.829 32.559 9.352l.045-.079-.079-.045q-6.814 5.748-13.236 2.04-5.007-2.89-4.639-9.704.375-2.162 1.252-3.681 3.526-6.108 11.231-4.561 1.911.684 3.249 1.456l.236.136a14.6 14.6 0 0 1 3.875 3.216l.079.045.045-.079q-1.127-3.132-.843-5.38.092-3.792 1.318-5.915l.212-.367q3.042-5.27 10.252-4.741 2.15.576 3.171 1.167m58.499 33.751q-1.022-.59-3.171-1.167-7.21-.528-10.252 4.741l-.212.367q-1.225 2.124-1.318 5.915-.284 2.248.843 5.38l-.045.079-.079-.045a14.6 14.6 0 0 0-3.875-3.216l-.236-.136q-1.337-.772-3.249-1.456-7.705-1.548-11.231 4.56-.877 1.52-1.252 3.682-.369 6.812 4.639 9.704 6.423 3.708 13.236-2.04l.079.045-.045.079c-4.602 9.477-33.188 9.824-32.684-9.477-16.455 10.073-30.447-14.856-24.542-23.58l.045-.079-.009.142q-1.5 8.712 4.845 12.374 1.952.917 3.182 1.208 7.053.437 10.155-4.937.908-1.573 1.304-3.651.54-6.748-5.698-10.35l-.498-.288q-2.202-1.272-4.566-1.657l-.079-.045 2.481-.665q5.567-2.378 7.338-5.445a17 17 0 0 0 1.215-3.073q.788-7.48-4.822-10.718M208.04-19.949q5.61 3.239 4.822 10.718a17.3 17.3 0 0 1-1.215 3.073q-1.77 3.067-7.338 5.445l-2.481.665.079.045q2.364.386 4.566 1.657l.498.288q6.239 3.602 5.698 10.35-.396 2.079-1.304 3.651-3.103 5.374-10.155 4.937-1.23-.291-3.182-1.208-6.343-3.663-4.845-12.374l.009-.142-.045.079c-5.906 8.723 8.086 33.653 24.417 23.58-.628 19.301 27.958 18.954 32.559 9.477l.045-.079-.079-.045q-6.814 5.748-13.236 2.04-5.007-2.89-4.639-9.704.375-2.161 1.252-3.681 3.526-6.108 11.231-4.561 1.911.684 3.249 1.456l.236.136a14.6 14.6 0 0 1 3.875 3.216l.079.045.045-.079q-1.127-3.132-.843-5.38.092-3.792 1.318-5.915l.212-.367q3.042-5.27 10.252-4.741 2.15.576 3.171 1.167M208.04-19.949q-1.023-.59-3.171-1.167-7.21-.528-10.252 4.741l-.212.367q-1.225 2.124-1.318 5.915-.283 2.248.843 5.38l-.045.079-.079-.045a14.6 14.6 0 0 0-3.875-3.216l-.236-.136q-1.337-.772-3.249-1.456-7.705-1.548-11.231 4.561-.877 1.52-1.252 3.681-.369 6.813 4.639 9.704 6.423 3.708 13.236-2.04l.079.045-.045.079c-4.602 9.477-33.188 9.824-32.705-9.48L160-83.619l704 82L743.352 335.15c-17.123 8.84-31.115-16.09-25.211-24.813l.047-.078-.01.142q-1.5 8.712 4.844 12.374 1.954.917 3.184 1.208 7.052.437 10.154-4.937.908-1.573 1.305-3.651.54-6.748-5.699-10.351l-.498-.287q-2.202-1.272-4.564-1.657l-.08-.046 2.482-.664q5.566-2.378 7.338-5.445a17.3 17.3 0 0 0 1.215-3.073q.788-7.48-4.822-10.718"/><path fill="#ed2939" stroke="#ed2939" stroke-miterlimit="10" stroke-width="14" d="M670.325 503.925-31.472 98.744"/><path fill="#ed2939" d="M2.288 216.118q1.022.59 3.171 1.167 7.21.528 10.252-4.741l.212-.367q1.226-2.124 1.318-5.915.284-2.248-.844-5.38l.045-.079.079.045a14.6 14.6 0 0 0 3.875 3.216l.236.136q1.337.772 3.249 1.457 7.704 1.547 11.231-4.561.878-1.52 1.251-3.682.368-6.812-4.639-9.704-6.422-3.708-13.236 2.04l-.079-.045.045-.079c4.602-9.477 33.187-9.824 32.602 9.396 16.373-10.154 30.365 14.775 24.459 23.499l-.045.079.009-.143q1.5-8.71-4.844-12.374-1.952-.917-3.183-1.208-7.053-.438-10.155 4.937-.908 1.573-1.304 3.651-.54 6.749 5.698 10.35l.498.288q2.202 1.272 4.565 1.657l.079.045-2.481.665q-5.566 2.377-7.338 5.445a17.3 17.3 0 0 0-1.215 3.074q-.788 7.48 4.822 10.718m.003 0q1.023.59 3.171 1.167 7.21.528 10.252-4.742l.212-.367q1.226-2.123 1.318-5.915.283-2.248-.843-5.38l.045-.079.079.045a14.6 14.6 0 0 0 3.875 3.216l.236.136q1.337.771 3.249 1.456 7.705 1.548 11.231-4.561.877-1.521 1.251-3.681.368-6.812-4.639-9.704-6.422-3.708-13.236 2.04l-.079-.045.046-.079c4.602-9.476 33.187-9.823 32.602 9.484 16.374-10.066 30.366 14.863 24.46 23.587l-.045.079.009-.143q1.5-8.711-4.845-12.374-1.952-.917-3.182-1.208-7.053-.437-10.155 4.938-.908 1.573-1.304 3.65-.54 6.748 5.698 10.351l.498.288q2.202 1.27 4.566 1.656l.079.046-2.481.665q-5.567 2.377-7.338 5.445a17.3 17.3 0 0 0-1.215 3.072q-.788 7.479 4.822 10.719m0 .003q1.023.59 3.171 1.166 7.21.527 10.252-4.74l.212-.367q1.226-2.124 1.318-5.916.283-2.247-.843-5.379l.045-.079.079.045a14.6 14.6 0 0 0 3.875 3.216l.236.137q1.337.772 3.249 1.456 7.705 1.548 11.231-4.561.878-1.521 1.251-3.681.369-6.814-4.639-9.704-6.423-3.708-13.236 2.04l-.079-.045.045-.079c4.602-9.477 33.188-9.823 32.596 9.478 16.367-10.074 30.359 14.855 24.453 23.579l-.045.079.009-.143q1.5-8.712-4.845-12.374-1.952-.917-3.182-1.208-7.053-.437-10.155 4.938-.908 1.573-1.304 3.65-.54 6.748 5.698 10.351l.498.288q2.202 1.27 4.566 1.656l.079.046-2.481.665q-5.567 2.377-7.338 5.445a17 17 0 0 0-1.215 3.072q-.788 7.48 4.822 10.719m0 0q1.023.59 3.171 1.166 7.21.528 10.252-4.741l.212-.366q1.226-2.124 1.318-5.915.284-2.248-.843-5.38l.045-.079.079.045a14.6 14.6 0 0 0 3.875 3.216l.236.137q1.336.772 3.249 1.456 7.705 1.548 11.231-4.561.877-1.521 1.251-3.681.369-6.814-4.639-9.704-6.423-3.708-13.236 2.04l-.079-.045.045-.079c4.602-9.477 33.188-9.823 32.559 9.353 16.33-10.199 30.322 14.73 24.417 23.454l-.045.079.009-.143q1.5-8.712-4.845-12.374-1.952-.917-3.182-1.208-7.053-.437-10.155 4.938-.908 1.572-1.304 3.65-.54 6.748 5.698 10.351l.498.287q2.202 1.272 4.566 1.657l.079.046-2.481.665q-5.567 2.378-7.338 5.444a17 17 0 0 0-1.215 3.073q-.788 7.48 4.822 10.719m0 0q1.023.59 3.171 1.166 7.21.528 10.252-4.741l.212-.366q1.225-2.124 1.318-5.915.284-2.248-.843-5.381l.045-.078.079.045a14.6 14.6 0 0 0 3.875 3.217l.236.136q1.336.772 3.249 1.456 7.705 1.548 11.231-4.561.877-1.52 1.251-3.682.368-6.811-4.639-9.703-6.423-3.708-13.236 2.04l-.079-.046.045-.078c4.602-9.477 33.188-9.823 32.559 9.477 16.33-10.072 30.322 14.856 24.417 23.58l-.045.079.009-.143q1.5-8.712-4.845-12.374-1.952-.917-3.182-1.208-7.053-.437-10.155 4.938-.908 1.572-1.304 3.65-.54 6.748 5.698 10.351l.498.287q2.202 1.272 4.566 1.657l.079.046-2.481.665q-5.567 2.378-7.338 5.444a17 17 0 0 0-1.215 3.073q-.788 7.48 4.822 10.719m0 0q1.023.59 3.171 1.166 7.21.528 10.252-4.741l.212-.366q1.225-2.124 1.318-5.915.284-2.248-.843-5.381l.045-.078.079.045a14.6 14.6 0 0 0 3.875 3.217l.236.136q1.337.772 3.249 1.456 7.705 1.548 11.231-4.561.877-1.52 1.251-3.682.368-6.811-4.639-9.703-6.423-3.708-13.236 2.04l-.079-.046.045-.078c4.602-9.477 33.188-9.823 32.684 9.477 16.455-10.072 30.447 14.856 24.542 23.58l-.045.079.009-.143q1.5-8.712-4.845-12.374-1.952-.917-3.182-1.208-7.053-.437-10.155 4.938-.908 1.572-1.304 3.65-.54 6.748 5.698 10.351l.498.287q2.202 1.272 4.566 1.657l.079.046-2.481.665q-5.567 2.378-7.338 5.444a17 17 0 0 0-1.215 3.073q-.788 7.48 4.822 10.719m116.75 67.25q-5.61-3.238-4.822-10.719a17.5 17.5 0 0 1 1.215-3.073q1.772-3.066 7.338-5.444l2.482-.665-.08-.046q-2.361-.386-4.564-1.657l-.498-.287q-6.24-3.602-5.699-10.351.397-2.08 1.305-3.65 3.102-5.375 10.156-4.938 1.229.291 3.182 1.208 6.344 3.662 4.844 12.374l-.01.143.047-.079c5.906-8.724-8.086-33.652-24.418-23.455.629-19.175-27.957-18.828-32.559-9.352l-.045.078.078.046q6.815-5.748 13.236-2.04 5.007 2.892 4.639 9.703-.372 2.161-1.252 3.682-3.526 6.108-11.23 4.561-1.912-.684-3.248-1.456l-.236-.136a14.6 14.6 0 0 1-3.875-3.217l-.08-.045-.045.078q1.128 3.133.844 5.381-.091 3.79-1.318 5.915l-.211.366q-3.043 5.27-10.252 4.741-2.15-.575-3.172-1.166m-58.502-33.75q1.023.59 3.171 1.166 7.21.528 10.252-4.741l.212-.366q1.225-2.124 1.318-5.915.284-2.248-.843-5.381l.045-.078.079.045a14.6 14.6 0 0 0 3.875 3.217l.236.136q1.337.772 3.248 1.456 7.706 1.548 11.231-4.561.878-1.52 1.251-3.682.369-6.811-4.639-9.703-6.422-3.708-13.236 2.04l-.079-.046.045-.078c4.601-9.477 33.187-9.823 32.683 9.477 16.457-10.072 30.449 14.856 24.543 23.58l-.047.079.01-.143q1.5-8.712-4.844-12.374-1.952-.917-3.182-1.208-7.054-.437-10.156 4.938-.907 1.572-1.305 3.65-.54 6.748 5.699 10.351l.498.287q2.202 1.272 4.564 1.657l.08.046-2.482.665q-5.566 2.378-7.338 5.444a17.5 17.5 0 0 0-1.215 3.073q-.788 7.48 4.822 10.719m116.504 67.25q-5.61-3.238-4.822-10.719a17.5 17.5 0 0 1 1.215-3.073q1.772-3.066 7.338-5.444l2.482-.665-.08-.046q-2.361-.386-4.564-1.657l-.498-.287q-6.24-3.602-5.699-10.351.398-2.08 1.305-3.65 3.102-5.375 10.156-4.938 1.229.291 3.182 1.208 6.344 3.662 4.844 12.374l-.01.143.047-.079c5.906-8.724-8.086-33.652-24.418-23.58.629-19.3-27.957-18.953-32.559-9.477l-.045.078.078.046q6.814-5.748 13.236-2.04 5.007 2.892 4.639 9.703-.373 2.161-1.252 3.682-3.525 6.108-11.23 4.561-1.912-.684-3.248-1.456l-.236-.136a14.6 14.6 0 0 1-3.875-3.217l-.08-.045-.045.078q1.128 3.133.844 5.381-.091 3.79-1.318 5.915l-.211.366q-3.042 5.27-10.252 4.741-2.15-.575-3.172-1.166m58.248 33.75q1.022.59 3.172 1.166 7.21.528 10.252-4.741l.211-.366q1.227-2.124 1.318-5.915.284-2.248-.844-5.381l.045-.078.08.045a14.6 14.6 0 0 0 3.875 3.217l.236.136q1.336.772 3.248 1.456 7.706 1.548 11.23-4.561.88-1.52 1.252-3.682.368-6.811-4.639-9.703-6.421-3.708-13.236 2.04l-.078-.046.045-.078c4.602-9.477 33.188-9.823 32.705 9.48l-.832 80.681-704.001-82L-8.028 164.12c17.124-8.839 31.116 16.09 25.21 24.813l-.045.079.009-.142q1.5-8.711-4.844-12.374-1.952-.918-3.182-1.208-7.053-.437-10.155 4.937-.908 1.574-1.304 3.651-.54 6.749 5.698 10.35l.498.288q2.202 1.272 4.565 1.657l.079.045-2.481.665q-5.566 2.378-7.338 5.445a17.3 17.3 0 0 0-1.215 3.073q-.788 7.48 4.822 10.718"/><path fill="#ffd203" d="M69.184 344.604q.766.443 2.377.875 5.406.396 7.685-3.554l.159-.275q.92-1.592.988-4.434.213-1.686-.632-4.033l.034-.06.059.034q1.216 1.436 2.905 2.411l.177.102q1.002.58 2.435 1.092 5.776 1.16 8.419-3.418.658-1.14.938-2.76.276-5.106-3.478-7.273-4.814-2.78-9.921 1.528l-.122-.021c11.157-15.186 25.834 1.447 22.897 6.657 7.836-5.34 15.054-.451 14.899 6.97-2.525 7.96-9.185 6.758-15.173 4.72 8.242 8.029 17.499 28.56 16.179 36.873l14.556-56.639-79.428-46.719-40.685 42.513c6.54-5.299 27.735-8.761 38.81-5.638-4.76-4.167-9.13-9.334-3.5-15.5 6.35-3.844 14.193-.037 13.486 9.418 3.043-5.148 24.787-.753 17.233 16.562l-.102.177-.059-.034q1.124-6.53-3.631-9.275-1.464-.687-2.385-.905-5.286-.327-7.612 3.7-.681 1.179-.978 2.737-.406 5.058 4.271 7.759l.373.215a10 10 0 0 0 3.422 1.243l.059.033-1.86.499q-4.173 1.782-5.5 4.081a13 13 0 0 0-.911 2.304q-.59 5.607 3.616 8.035m48.259 110.473q.767.443 2.377.875 5.405.396 7.685-3.555l.159-.274q.92-1.592.988-4.435.213-1.684-.632-4.032l.034-.06.059.034a10.9 10.9 0 0 0 2.905 2.411l.177.102q1.002.579 2.436 1.092 5.776 1.16 8.419-3.418.657-1.14.938-2.76.276-5.107-3.477-7.274-4.814-2.78-9.922 1.529l-.122-.021c11.157-15.186 25.835 1.447 22.897 6.657 7.836-5.34 15.054-.451 14.9 6.97-2.525 7.959-9.185 6.758-15.173 4.719 8.242 8.029 17.498 28.561 16.179 36.874l14.556-56.64-79.428-46.718-40.686 42.513c6.54-5.3 27.736-8.761 38.811-5.638-4.76-4.167-9.13-9.333-3.5-15.5 6.35-3.845 14.192-.038 13.486 9.418 3.043-5.148 24.786-.753 17.233 16.562l-.103.177-.059-.034q1.124-6.53-3.631-9.275-1.464-.687-2.386-.905-5.286-.328-7.612 3.7-.681 1.179-.978 2.737-.405 5.058 4.271 7.759l.374.215q1.65.954 3.422 1.242l.059.034-1.859.499q-4.173 1.782-5.5 4.081a13 13 0 0 0-.911 2.304q-.59 5.608 3.614 8.035m117.545-14.366q.766.442 2.377.875 5.405.395 7.685-3.555l.159-.275q.92-1.591.988-4.434.213-1.685-.632-4.033l.034-.059.059.034q1.215 1.435 2.905 2.41l.177.103q1.002.579 2.435 1.092 5.776 1.16 8.419-3.419.657-1.14.938-2.76.276-5.107-3.477-7.273-4.814-2.78-9.922 1.529l-.121-.021c11.157-15.187 25.834 1.447 22.897 6.656 7.835-5.34 15.054-.45 14.899 6.971-2.525 7.959-9.185 6.758-15.173 4.719 8.242 8.029 17.498 28.56 16.179 36.874l14.556-56.64-79.428-46.718-40.686 42.513c6.54-5.3 27.736-8.762 38.811-5.638-4.76-4.167-9.13-9.334-3.5-15.5 6.35-3.845 14.193-.038 13.486 9.418 3.043-5.148 24.787-.754 17.233 16.562l-.102.178-.059-.034q1.124-6.53-3.631-9.275-1.464-.688-2.386-.906-5.287-.327-7.612 3.701-.68 1.179-.978 2.737-.405 5.058 4.271 7.758l.374.216q1.65.954 3.422 1.242l.059.034-1.86.498q-4.174 1.782-5.5 4.082a13 13 0 0 0-.911 2.304q-.59 5.606 3.615 8.034m264.696-381.33q-.772-.437-2.383-.858-5.407-.357-7.66 3.609l-.156.276q-.907 1.598-.957 4.441-.202 1.687.66 4.028l-.033.059-.059-.033a10.9 10.9 0 0 0-2.922-2.39l-.178-.101q-1.008-.572-2.443-1.074-5.783-1.119-8.395 3.479-.651 1.144-.918 2.766-.24 5.109 3.527 7.249 4.835 2.745 9.912-1.6l.121.02c-11.049 15.265-25.844-1.263-22.943-6.494-7.799 5.396-15.051.558-14.949-6.864 2.469-7.977 9.137-6.823 15.139-4.827-8.299-7.971-17.701-28.435-16.439-36.757l-14.154 56.741 79.76 46.152 40.381-42.801c-6.502 5.346-27.672 8.958-38.77 5.914 4.791 4.133 9.197 9.268 3.611 15.475-6.322 3.889-14.193.139-13.553-9.322-3.008 5.17-24.781.93-17.352-16.439l.102-.178.059.034q-1.078 6.538 3.697 9.25 1.467.678 2.393.889 5.288.29 7.586-3.755.672-1.184.957-2.744.37-5.061-4.326-7.728l-.375-.213a10 10 0 0 0-3.432-1.218l-.059-.033 1.855-.512q4.16-1.812 5.473-4.121.567-1.138.895-2.31.55-5.612-3.672-8.01m119.319-15.677q-.769-.438-2.383-.858-5.407-.357-7.66 3.609l-.156.276q-.908 1.598-.957 4.441-.2 1.687.662 4.028l-.033.059-.061-.033a10.9 10.9 0 0 0-2.922-2.39l-.178-.101q-1.005-.572-2.443-1.074-5.782-1.119-8.393 3.479-.65 1.145-.92 2.766-.239 5.109 3.529 7.249 4.834 2.745 9.91-1.6l.121.02c-11.047 15.265-25.844-1.263-22.943-6.494-7.797 5.396-15.051.558-14.949-6.864 2.469-7.977 9.137-6.823 15.141-4.827-8.299-7.971-17.701-28.435-16.441-36.757l-14.152 56.741 79.758 46.152 40.383-42.801c-6.502 5.346-27.674 8.958-38.77 5.914 4.789 4.133 9.195 9.268 3.609 15.475-6.322 3.889-14.191.139-13.553-9.322-3.006 5.17-24.781.93-17.352-16.439l.102-.178.059.034q-1.075 6.538 3.697 9.25 1.47.678 2.393.889 5.288.29 7.586-3.755.672-1.184.959-2.744.369-5.061-4.328-7.728l-.375-.213a10 10 0 0 0-3.43-1.218l-.061-.033 1.857-.512q4.16-1.812 5.471-4.121.569-1.139.895-2.31.55-5.613-3.672-8.01m47.712 109.708q-.771-.437-2.385-.857-5.407-.357-7.658 3.608l-.158.276q-.907 1.597-.955 4.441-.202 1.686.66 4.028l-.033.059-.059-.034a11 11 0 0 0-2.922-2.39l-.178-.101q-1.008-.571-2.443-1.074-5.783-1.119-8.395 3.478-.651 1.144-.918 2.767-.24 5.109 3.527 7.249 4.834 2.745 9.912-1.6l.121.02c-11.049 15.265-25.844-1.264-22.945-6.494-7.797 5.396-15.049.558-14.947-6.864 2.469-7.977 9.137-6.823 15.139-4.827-8.299-7.97-17.701-28.435-16.441-36.757l-14.152 56.741 79.758 46.152 40.383-42.801c-6.502 5.346-27.672 8.958-38.77 5.914 4.789 4.133 9.197 9.269 3.611 15.475-6.322 3.889-14.193.138-13.555-9.322-3.006 5.17-24.779.93-17.35-16.439l.102-.177.059.034q-1.078 6.537 3.697 9.249 1.468.678 2.391.889 5.29.29 7.586-3.755.673-1.184.959-2.744.37-5.061-4.326-7.728l-.375-.213a10.1 10.1 0 0 0-3.432-1.218l-.059-.034 1.855-.511q4.16-1.812 5.473-4.121.566-1.138.893-2.31.552-5.612-3.67-8.009"/></svg>