<svg xmlns="http://www.w3.org/2000/svg" width="600" height="400"><path fill="#1a15a3" fill-rule="evenodd" d="M0 0h600v400H0z" color="#000" overflow="visible" style="marker:none"/><path fill="#fff" fill-rule="evenodd" stroke="#ffec50" stroke-width="3.327" d="m300 104.935-23.052 81.756-92.208 79.854L300 226.618l115.26 39.927-92.208-79.854z"/><path fill="#fff" fill-rule="evenodd" stroke="#ffec50" stroke-width="3.327" d="m300 173.382-115.26-39.928 92.208 79.855L300 333.09l23.052-119.782 92.208-79.855z"/><path fill="#fff" fill-rule="evenodd" stroke="#fff" stroke-width="3.327" d="m300 66.909-26.618 38.026L300 142.96l26.618-38.026z"/><path fill="none" stroke="#ffec50" stroke-width="3.327" d="m184.74 133.454 92.208 79.855L300 333.09l23.052-119.782 92.208-79.855"/><path fill="none" stroke="#fff" stroke-width="3.327" d="M283.973 167.813 300 173.347l16.116-5.536"/><path fill="none" stroke="#ffec50" stroke-width="3.327" d="m289.821 140.937 2.5-8.883-18.993-27.12 26.683-38.086 26.652 38.1-18.982 27.081 3.926 13.998"/></svg>