<svg xmlns="http://www.w3.org/2000/svg" width="600" height="400"><path fill="#090" d="M-13.235-5.882h647.426V418.75H-13.235z"/><path fill="#fff" d="M250.77 222.34c0 48.048-38.95 86.999-86.999 86.999s-87-38.951-87-87 38.952-86.999 87-86.999 87 38.951 87 87z"/><path fill="#090" d="M194.96 221.96c.004 17.159-13.905 31.07-31.063 31.07s-31.066-13.911-31.062-31.07c-.004-17.158 13.904-31.07 31.062-31.07s31.067 13.912 31.062 31.07z"/><path fill="#fff" fill-rule="evenodd" d="m241.932 259.084 8.08 7.07c-9.181 18.42-25.978 31.054-43.436 43.185h56.569l12.374-17.173 17.173 17.173 33.587-48.235-16.92-16.92 119.766-172.8-50.95 11.176-94.322 136.37-6.882-6.945 88.2-125.385-179.808 41.29c18.663 7.389 36.493 11.713 57.2 40.596H232.46l9.47 90.598z"/></svg>