<svg xmlns="http://www.w3.org/2000/svg" width="1200" height="800"><path fill="#2e328c" d="M0 0h1200v800H0z"/><path fill="#fff" d="M435 125c-9.235 0-17.616 3.521-24.062 9.156L343.344 180h45.812S329.28 361.308 325 455c0 121.503 98.497 220 220 220s220-98.497 220-220c0-47.903-15.318-92.219-41.312-128.344H737.5L875 235H545c-25.805 0-50.337 4.431-73.344 12.594v-85.938C471.656 141.406 455.25 125 435 125"/><path fill="#2e328c" d="M545 326.667c-70.877 0-128.333 57.456-128.333 128.333S474.123 583.333 545 583.333 673.333 525.876 673.333 455c0-46.747-25.094-87.563-62.448-110h124.896l1.719-18.333z"/></svg>