<svg xmlns="http://www.w3.org/2000/svg" width="625" height="375" fill-rule="evenodd" image-rendering="optimizeQuality" shape-rendering="geometricPrecision" text-rendering="geometricPrecision" viewBox="0 0 626 376"><path fill="#160055" d="M0 0h626v376H0z"/><text x="313" y="188" fill="#efc53d" font-family="Arial" font-size="50" transform="matrix(.91053 0 0 1 -223.749 164.831)">SPRINGFIELD ILLINOIS</text><path fill="#c70102" stroke="#fff" stroke-width="4" d="m175 93 13 39h41l-33 24 12 40-33-25-33 25 12-40-33-24h41zm-6 19"/><path fill="#fff" d="m175 24 3 10h11l-9 7 4 10-9-6-9 6 4-10-9-7h11zm-35 7 3 10h11l-9 7 3 10-8-6-9 6 3-10-8-7h11zM85 72l4 10h10l-8 6 3 11-9-7-8 7 3-11-9-6h11zm-17 30 3 11h11l-9 6 4 10-9-6-9 6 4-10-9-6h11zm-4 35 4 11h10l-8 6 3 10-9-6-8 6 3-10-9-6h11zm5 33 3 10h11l-9 7 3 10-8-6-9 6 3-10-8-7h10zm16 33 4 10h10l-8 6 3 10-9-6-8 6 3-10-9-6h11zm25 25 3 10h11l-9 7 3 10-8-7-9 7 3-10-8-7h10zm31 14 3 11h11l-9 6 4 10-9-6-9 6 4-10-9-6h11zm35 7 3 10h11l-9 6 3 11-8-7-9 7 3-11-8-6h10zm35-7 3 10h11l-9 6 4 11-9-7-9 7 4-11-9-6h11zm29-13 4 10h10l-8 6 3 10-9-6-8 6 3-10-9-6h11zm25-28 3 10h11l-9 7 4 10-9-7-9 7 4-10-9-7h11zm15-31 3 11h11l-9 6 4 10-9-6-9 6 4-10-9-6h11zm5-34 3 10h11l-9 6 3 10-8-6-9 6 3-10-8-6h10zm-4-33 3 10h11l-9 7 4 10-9-6-9 6 4-10-9-7h11zm-15-32 3 10h11l-9 6 4 10-9-6-9 6 4-10-9-6h11zm-25-25 3 10h11l-9 6 4 10-9-6-9 6 4-10-9-6h11zm-31-16 3 10h11l-9 6 3 10-8-6-9 6 3-10-8-6h10zM110 47l4 10h10l-8 7 3 10-9-7-8 7 3-10-9-7h11zm-1 5"/></svg>