<svg xmlns="http://www.w3.org/2000/svg" width="650" height="337" fill-rule="evenodd" image-rendering="optimizeQuality" shape-rendering="geometricPrecision" text-rendering="geometricPrecision" viewBox="0 0 650 338"><path fill="#160057" d="M0 0h650v338H0z"/><path d="M650 58c-17 10-28 30-28 51h-39c0-33-27-61-59-61-33 0-60 28-60 61h-39c0-33-26-61-59-61s-59 28-59 61h-39c0-33-27-61-59-61-33 0-60 28-60 61h-39V33h540zm0 91c-29 3-53 29-53 60h-38c0-33-27-60-60-60-32 0-59 27-59 60h-39c0-33-27-60-59-60-33 0-60 27-60 60h-38c0-33-27-60-60-60-32 0-59 27-59 60H86v-76h564zm0 107c-6-3-13-4-20-4-33 0-59 28-59 60h-39c0-32-27-60-59-60-33 0-60 28-60 60h-39c0-32-26-60-59-60s-59 28-59 60h-39c0-32-27-60-59-60-33 0-60 28-60 60H59v-80h591z" style="fill:#fff"/><path fill="#c70100" d="M0 0h146L61 338H0z"/></svg>